<svg width="268" height="352" fill="none" xmlns="http://www.w3.org/2000/svg"><g filter="url(#filter0_b)"><path d="M138.168 1c25.333 0 47.667 4.167 67 12.5s34.333 20.333 45 36c10.667 15.333 16 33.167 16 53.5 0 13-2.833 24.667-8.5 35-5.667 10-12.333 18.5-20 25.5s-17.333 14.667-29 23c-9.667 7.333-16.833 13.167-21.5 17.5-4.333 4.333-6.5 8.833-6.5 13.5V228h-85.5v-25c0-8 2.5-15.167 7.5-21.5 5-6.667 12.833-15 23.5-25 11-9.667 19.333-18.333 25-26 6-7.667 9-16.167 9-25.5 0-9.667-3-17.833-9-24.5-6-7-14-10.5-24-10.5-21.667 0-32.5 14-32.5 42 0 6 .167 10.5.5 13.5h-92c-.333-2.333-.667-5-1-8-.333-3-.5-6.667-.5-11 0-21.333 5.833-39.833 17.5-55.5 11.667-16 27.833-28.333 48.5-37 21-8.667 44.5-13 70.5-13zm-49 350v-92.5h99V351h-99z" fill="url(#paint0_linear)" fill-opacity=".2"/><path d="M205.168 13.5l-.396.918.396-.918zm45 36l-.827.563.006.008.821-.571zm7.5 88.5l.87.493.007-.012-.877-.481zm-20 25.5l-.674-.739v.001l.674.738zm-29 23l-.581-.814-.012.009-.011.008.604.797zm-21.5 17.5l-.68-.733-.014.013-.013.013.707.707zm-6.5 24v1h1v-1h-1zm-85.5 0h-1v1h1v-1zm7.5-46.5l.785.62.008-.01.007-.01-.8-.6zm23.5-25l-.66-.751-.012.01-.012.011.684.73zm25-26l-.788-.616-.008.011-.008.011.804.594zm0-50l-.759.65.008.01.008.009.743-.669zm-56 45v1h1.117l-.123-1.11-.994.11zm-92 0l-.99.141.123.859h.867v-1zm-1-8l.994-.11-.994.11zm17-66.5l.802.597.006-.008-.808-.589zm48.5-37l-.382-.924-.005.002.387.922zm21.5 337h-1v1h1v-1zm0-92.5v-1h-1v1h1zm99 0h1v-1h-1v1zm0 92.5v1h1v-1h-1zm-50-349c25.224 0 47.419 4.149 66.604 12.418l.792-1.836C186.083 4.185 163.61 0 138.168 0v2zm66.604 12.418c19.179 8.267 34.021 20.152 44.569 35.645l1.654-1.126c-10.786-15.84-25.943-27.955-45.431-36.355l-.792 1.836zm44.575 35.653c10.54 15.15 15.821 32.78 15.821 52.929h2c0-20.519-5.385-38.555-16.179-54.071l-1.642 1.142zM265.168 103c0 12.85-2.799 24.348-8.377 34.519l1.754.962c5.755-10.496 8.623-22.331 8.623-35.481h-2zm-8.37 34.507c-5.62 9.918-12.223 18.333-19.804 25.254l1.348 1.477c7.753-7.078 14.483-15.663 20.196-25.745l-1.74-.986zm-19.804 25.255c-7.629 6.965-17.262 14.606-28.907 22.924l1.162 1.628c11.688-8.349 21.388-16.041 29.093-23.076l-1.348-1.476zm-28.93 22.941c-9.674 7.339-16.873 13.196-21.576 17.564l1.36 1.466c4.63-4.299 11.765-10.109 21.424-17.436l-1.208-1.594zm-21.603 17.59c-4.46 4.46-6.793 9.2-6.793 14.207h2c0-4.326 2-8.586 6.207-12.793l-1.414-1.414zm-6.793 14.207V228h2v-10.5h-2zm1 9.5h-85.5v2h85.5v-2zm-84.5 1v-25h-2v25h2zm0-25c0-7.773 2.423-14.722 7.285-20.88l-1.57-1.24c-5.138 6.509-7.715 13.893-7.715 22.12h2zm7.3-20.9c4.949-6.598 12.733-14.885 23.384-24.87l-1.368-1.46c-10.682 10.015-18.565 18.395-23.616 25.13l1.6 1.2zm23.36-24.849c11.028-9.691 19.419-18.411 25.144-26.157l-1.608-1.188c-5.608 7.587-13.884 16.201-24.856 25.843l1.32 1.502zm25.127-26.135c6.132-7.834 9.213-16.549 9.213-26.116h-2c0 9.1-2.919 17.385-8.788 24.884l1.575 1.232zM161.168 105c0-9.893-3.078-18.304-9.257-25.169l-1.486 1.338c5.821 6.468 8.743 14.39 8.743 23.831h2zm-9.241-25.15C145.72 72.606 137.432 69 127.168 69v2c9.736 0 17.448 3.393 23.241 10.15l1.518-1.3zM127.168 69c-11.066 0-19.517 3.588-25.166 10.888-5.61 7.251-8.334 18.01-8.334 32.112h2c0-13.899 2.694-24.14 7.916-30.888C108.769 74.412 116.567 71 127.168 71v-2zm-33.5 43c0 6.008.166 10.553.506 13.61l1.988-.22c-.327-2.943-.494-7.398-.494-13.39h-2zm1.5 12.5h-92v2h92v-2zm-91.01.859a260.359 260.359 0 01-.996-7.969l-1.988.22c.334 3.008.669 5.685 1.004 8.031l1.98-.282zm-.996-7.969c-.328-2.952-.494-6.579-.494-10.89h-2c0 4.356.167 8.062.506 11.11l1.988-.22zm-.494-10.89c0-21.14 5.776-39.425 17.302-54.903l-1.604-1.194C6.559 66.258.668 84.973.668 106.5h2zm17.308-54.91c11.546-15.835 27.557-28.062 48.079-36.668l-.774-1.844C46.47 21.805 30.148 34.245 18.36 50.41l1.616 1.178zm48.073-36.666C88.912 6.314 112.28 2 138.168 2V0c-26.112 0-49.744 4.352-70.882 13.076l.763 1.848zM90.168 351v-92.5h-2V351h2zm-1-91.5h99v-2h-99v2zm98-1V351h2v-92.5h-2zm1 91.5h-99v2h99v-2z" fill="url(#paint1_linear)"/></g><defs><linearGradient id="paint0_linear" x1="-17" y1="186.19" x2="292.66" y2="203.507" gradientUnits="userSpaceOnUse"><stop stop-color="#FEBD2F"/><stop offset=".249" stop-color="#F95721"/><stop offset=".503" stop-color="#FC1370"/><stop offset=".672" stop-color="#BA2DB2"/><stop offset=".776" stop-color="#8342E9"/><stop offset=".964" stop-color="#3F89FC"/></linearGradient><linearGradient id="paint1_linear" x1="-17" y1="186.19" x2="292.66" y2="203.507" gradientUnits="userSpaceOnUse"><stop stop-color="#FEBD2F"/><stop offset=".249" stop-color="#F95721"/><stop offset=".503" stop-color="#FC1370"/><stop offset=".672" stop-color="#BA2DB2"/><stop offset=".776" stop-color="#8342E9"/><stop offset=".964" stop-color="#3F89FC"/></linearGradient><filter id="filter0_b" x="-14.332" y="-15" width="296.5" height="382" filterUnits="userSpaceOnUse" color-interpolation-filters="sRGB"><feFlood flood-opacity="0" result="BackgroundImageFix"/><feGaussianBlur in="BackgroundImage" stdDeviation="7.5"/><feComposite in2="SourceAlpha" operator="in" result="effect1_backgroundBlur"/><feBlend in="SourceGraphic" in2="effect1_backgroundBlur" result="shape"/></filter></defs></svg>