<svg width="42" height="30" fill="none" xmlns="http://www.w3.org/2000/svg"><path d="M2.625 0h36.75A2.618 2.618 0 0142 2.61v24.78A2.618 2.618 0 0139.375 30H2.625A2.617 2.617 0 010 27.392V2.61A2.618 2.618 0 012.625 0z" fill="#26A6D1"/><path d="M6.246 10L2 19.338h5.083l.63-1.489h1.441l.63 1.49h5.596v-1.137l.498 1.136h2.895l.498-1.16v1.16h11.637l1.415-1.45 1.325 1.45 5.977.012-4.26-4.655L39.625 10h-5.884l-1.378 1.423L31.08 10H18.42l-1.086 2.41L16.22 10h-5.073v1.098L10.584 10H6.246zm.984 1.326h2.478l2.816 6.332v-6.332h2.715l2.175 4.54 2.005-4.54h2.701v6.7h-1.643l-.014-5.25-2.396 5.25h-1.47l-2.41-5.25v5.25h-3.38l-.641-1.502H6.703l-.64 1.501h-1.81l2.977-6.699zm16.394 0h6.682l2.044 2.194 2.11-2.194h2.044l-3.106 3.368 3.105 3.329h-2.136l-2.044-2.22-2.12 2.22h-6.58v-6.697zM8.435 12.46l-1.14 2.676h2.28l-1.14-2.676zm16.839.253v1.224h3.645V15.3h-3.645v1.335h4.089l1.9-1.967-1.82-1.956h-4.17v.001z" fill="#fff"/></svg>