<svg width="42" height="30" fill="none" xmlns="http://www.w3.org/2000/svg"><path d="M.002 5.002a5 5 0 015-5.002H37a5 5 0 015 5v20a5 5 0 01-5 5H5.01a5 5 0 01-5-4.998l-.008-20z" fill="#fff"/><path fill-rule="evenodd" clip-rule="evenodd" d="M41.998 16.884V25a5 5 0 01-4.415 4.966H9.596c19.93-3.861 31.28-12.226 32.401-13.08z" fill="#E57026"/><path d="M3.549 9.104H1.8v6.87h1.75c.924 0 1.592-.25 2.182-.788.7-.65 1.113-1.623 1.113-2.635-.011-2.036-1.358-3.447-3.295-3.447zm1.402 5.17c-.378.375-.857.55-1.636.55h-.323v-4.546h.323c.768 0 1.236.15 1.636.55.412.412.657 1.049.657 1.71 0 .662-.245 1.324-.657 1.737zm3.631-5.17H7.391v6.87h1.191v-6.87zm2.915 2.636c-.712-.3-.924-.5-.924-.863 0-.437.379-.761.89-.761.357 0 .658.162.958.562l.623-.912c-.512-.5-1.124-.762-1.803-.762-1.08 0-1.915.85-1.915 1.973 0 .95.39 1.437 1.503 1.886.468.188.701.313.824.388a.863.863 0 01.356.711c0 .562-.39.975-.924.975-.568 0-1.024-.325-1.302-.912l-.768.837c.545.911 1.213 1.311 2.115 1.311 1.235 0 2.115-.924 2.115-2.26.022-1.112-.39-1.612-1.748-2.174zm2.139.811c0 2.023 1.414 3.585 3.228 3.585.512 0 .958-.113 1.492-.4v-1.574c-.479.537-.902.75-1.436.75-1.202 0-2.06-.975-2.06-2.373 0-1.324.88-2.361 2.004-2.361.568 0 1.002.225 1.492.774V9.38c-.523-.3-.957-.425-1.47-.425-1.791 0-3.25 1.599-3.25 3.597zm14.204 1.174l-1.637-4.621H24.9l2.594 7.044h.646l2.638-7.044h-1.291l-1.648 4.621zm3.483 2.248h3.384v-1.161h-2.193v-1.849h2.115v-1.161h-2.115v-1.524h2.193V9.104h-3.384v6.87zm8.117-4.833c0-1.287-.791-2.024-2.171-2.024h-1.77v6.87h1.19v-2.76h.157l1.647 2.76h1.47l-1.926-2.898c.901-.212 1.402-.9 1.402-1.948zm-2.405 1.136h-.345V10.19h.367c.746 0 1.147.35 1.147 1.025 0 .687-.401 1.061-1.17 1.061z" fill="#231F20"/><path d="M22.017 16.223c1.802 0 3.262-1.638 3.262-3.66 0-2.02-1.46-3.659-3.262-3.659-1.801 0-3.261 1.638-3.261 3.66 0 2.02 1.46 3.659 3.261 3.659z" fill="url(#paint0_linear)"/><path opacity=".65" d="M22.017 16.223c1.802 0 3.262-1.638 3.262-3.66 0-2.02-1.46-3.659-3.262-3.659-1.801 0-3.261 1.638-3.261 3.66 0 2.02 1.46 3.659 3.261 3.659z" fill="url(#paint1_linear)"/><path d="M40.196 9.366c0-.125-.078-.187-.2-.187h-.179v.6h.134V9.54l.156.237h.156l-.178-.25c.066-.012.11-.074.11-.162zm-.223.088h-.022V9.29h.022c.067 0 .1.025.1.075 0 .063-.033.088-.1.088z" fill="#231F20"/><path d="M40.017 8.954c-.256 0-.467.237-.467.525 0 .287.211.524.468.524.255 0 .467-.237.467-.524 0-.288-.212-.525-.468-.525zm0 .962c-.2 0-.378-.188-.378-.437 0-.238.167-.437.378-.437.2 0 .368.2.368.437s-.167.437-.367.437z" fill="#231F20"/><defs><linearGradient id="paint0_linear" x1="23.684" y1="15.492" x2="21.044" y2="11.808" gradientUnits="userSpaceOnUse"><stop stop-color="#F89F20"/><stop offset=".25" stop-color="#F79A20"/><stop offset=".533" stop-color="#F68D20"/><stop offset=".62" stop-color="#F58720"/><stop offset=".723" stop-color="#F48120"/><stop offset="1" stop-color="#F37521"/></linearGradient><linearGradient id="paint1_linear" x1="23.328" y1="15.439" x2="19.392" y2="8.581" gradientUnits="userSpaceOnUse"><stop stop-color="#F58720"/><stop offset=".359" stop-color="#E16F27"/><stop offset=".703" stop-color="#D4602C"/><stop offset=".982" stop-color="#D05B2E"/></linearGradient></defs></svg>