<svg width="1399" height="1664" viewBox="0 0 1399 1664" fill="none" xmlns="http://www.w3.org/2000/svg">
<path d="M-60 193.015C78.01 34.3747 620.6 286.395 829.01 133.075C1037.42 -20.2453 1503.65 65.3147 1375.87 339.125C1235.49 639.945 363.35 498.785 190.73 780.565C-33.91 1147.26 1181.59 1020.07 1375.96 1333.49C1457.64 1465.2 194.9 1540.71 39.44 1658.15" stroke="url(#paint0_linear)" stroke-width="0.7084" stroke-miterlimit="10"/>
<path d="M-60 209.205C64.2 49.7751 591.7 270.605 802.7 121.625C1008.74 -25.0249 1465.22 74.8751 1368.52 346.765C1347.15 406.845 1300.13 452.875 1230.4 487.165C943.2 628.395 319.5 556.385 178.36 771.045C7.96002 1030.21 679.83 1046.8 1063.94 1148.22C1204.25 1184.88 1325.54 1247.25 1364.32 1350.08C1418.2 1492.96 231.36 1552.47 91.44 1658.16" stroke="url(#paint1_linear)" stroke-width="0.7084" stroke-miterlimit="10"/>
<path d="M-60 225.405C50.41 65.1751 563.32 255.555 776.4 110.175C980.55 -29.1049 1427.85 85.8451 1361.17 354.405C1345.71 416.665 1306.13 466.705 1238.28 503.955C962.27 655.455 308.83 559.385 166 761.535C-10.89 1011.88 728.09 1041.8 1083.1 1138.55C1211.22 1173.47 1328.4 1242.67 1352.69 1366.65C1382.11 1516.88 267.83 1564.21 143.46 1658.16" stroke="url(#paint2_linear)" stroke-width="0.7084" stroke-miterlimit="10"/>
<path d="M-60 241.595C36.61 80.5748 534.59 240.025 750.1 98.7248C952.01 -33.6652 1391.88 97.9848 1353.83 362.055C1344.5 426.765 1312.13 480.505 1246.16 520.745C981.28 682.325 297.92 562.295 153.62 752.025C-30.01 993.465 776.46 1036.26 1102.25 1128.88C1218.24 1161.86 1333.24 1236.74 1341.04 1383.23C1349.35 1539.11 304.27 1575.95 195.45 1658.16" stroke="url(#paint3_linear)" stroke-width="0.7084" stroke-miterlimit="10"/>
<path d="M-60 257.785C22.8 95.9653 505.79 224.415 723.79 87.2753C923.39 -38.2947 1357.53 110.885 1346.48 369.695C1343.6 437.055 1318.1 494.245 1254.04 537.525C1000.22 709.005 286.78 565.075 141.25 742.505C-49.39 974.925 824.85 1030.67 1121.4 1119.22C1225.25 1150.23 1340.27 1230.6 1329.4 1399.81C1319.04 1561.08 340.73 1587.7 247.45 1658.16" stroke="url(#paint4_linear)" stroke-width="0.7084" stroke-miterlimit="10"/>
<path d="M-60 273.975C9 111.365 476.93 208.715 697.48 75.815C894.72 -43.035 1324.81 124.075 1339.12 377.325C1343.08 447.405 1324.04 507.935 1261.9 554.305C1019.06 735.505 275.42 567.705 128.88 732.985C-69.03 956.215 873.23 1024.99 1140.55 1109.54C1232.27 1138.55 1349.25 1224.9 1317.76 1416.38C1290.28 1583.48 377.19 1599.44 299.45 1658.16" stroke="url(#paint5_linear)" stroke-width="0.7084" stroke-miterlimit="10"/>
<path d="M-60 290.175C-4.8 126.765 448.01 192.925 671.18 64.3753C865.99 -47.8447 1293.56 137.125 1331.78 384.985C1343 457.745 1329.97 521.615 1269.79 571.105C1037.8 761.865 263.84 570.175 116.52 723.475C-88.95 937.285 921.64 1019.22 1159.72 1099.88C1239.32 1126.85 1359.75 1219.99 1306.14 1432.96C1262.43 1606.59 413.66 1611.19 351.48 1658.16" stroke="url(#paint6_linear)" stroke-width="0.7084" stroke-miterlimit="10"/>
<path d="M-60 306.365C-18.6 142.165 419.02 177.015 644.87 52.915C837.21 -52.765 1263.48 149.615 1324.42 392.615C1343.3 467.885 1335.85 535.225 1277.65 587.885C1056.39 788.075 252.06 572.435 104.15 713.955C-109.16 918.055 970.08 1013.27 1178.87 1090.2C1246.36 1115.06 1371.32 1215.91 1294.5 1449.54C1235.02 1630.41 450.12 1622.94 403.48 1658.17" stroke="url(#paint7_linear)" stroke-width="0.7084" stroke-miterlimit="10"/>
<path d="M-60 322.555C-32.4 157.555 389.98 160.975 618.57 41.4649C808.39 -57.7751 1234.23 161.335 1317.08 400.255C1343.97 477.805 1341.7 548.815 1285.54 604.665C1074.84 814.175 240.12 574.455 91.78 704.435C-129.64 898.455 1018.59 1007.09 1198.03 1080.53C1253.44 1103.21 1383.63 1212.62 1282.87 1466.1C1207.84 1654.86 486.59 1634.66 455.49 1658.15" stroke="url(#paint8_linear)" stroke-width="0.7084" stroke-miterlimit="10"/>
<path d="M-60 338.745C-46.2 172.955 360.88 144.805 592.26 30.0154C779.52 -62.8846 1205.47 172.155 1309.72 407.905C1344.89 487.435 1347.49 562.395 1293.4 621.455C1093.12 840.185 228.04 576.225 79.41 694.925C-150.38 878.435 1067.28 1000.5 1217.18 1070.87C1260.56 1091.23 1396.39 1210.04 1271.22 1482.69C1180.69 1679.9 523.03 1646.42 507.49 1658.16" stroke="url(#paint9_linear)" stroke-width="0.7084" stroke-miterlimit="10"/>
<path d="M-60 354.945C-60 188.365 331.73 128.485 565.96 18.565C814.85 -98.235 1502.66 396.765 1301.28 638.245C1111.23 866.135 215.87 577.715 67.04 685.405C-171.34 857.895 1116.46 993.135 1236.33 1061.19C1267.81 1079.06 1409.43 1208.02 1259.58 1499.26C1153.53 1705.37 559.49 1658.16 559.49 1658.16" stroke="url(#paint10_linear)" stroke-width="0.7084" stroke-miterlimit="10"/>
<defs>
<linearGradient id="paint0_linear" x1="-60.2715" y1="857.798" x2="1398.05" y2="857.798" gradientUnits="userSpaceOnUse">
<stop stop-color="#FFBE10"/>
<stop offset="0.2181" stop-color="#FF571A"/>
<stop offset="0.4968" stop-color="#FF0F74"/>
<stop offset="0.7459" stop-color="#9640EE"/>
<stop offset="0.7779" stop-color="#8F44EF"/>
<stop offset="0.8248" stop-color="#7B4DF1"/>
<stop offset="0.8811" stop-color="#5B5DF5"/>
<stop offset="0.9439" stop-color="#2E73FA"/>
<stop offset="1" stop-color="#008AFF"/>
</linearGradient>
<linearGradient id="paint1_linear" x1="-60.2837" y1="856.092" x2="1382.15" y2="856.092" gradientUnits="userSpaceOnUse">
<stop stop-color="#FFBE10"/>
<stop offset="0.2181" stop-color="#FF571A"/>
<stop offset="0.4968" stop-color="#FF0F74"/>
<stop offset="0.7459" stop-color="#9640EE"/>
<stop offset="0.7779" stop-color="#8F44EF"/>
<stop offset="0.8248" stop-color="#7B4DF1"/>
<stop offset="0.8811" stop-color="#5B5DF5"/>
<stop offset="0.9439" stop-color="#2E73FA"/>
<stop offset="1" stop-color="#008AFF"/>
</linearGradient>
<linearGradient id="paint2_linear" x1="-60.2959" y1="854.388" x2="1368.24" y2="854.388" gradientUnits="userSpaceOnUse">
<stop stop-color="#FFBE10"/>
<stop offset="0.2181" stop-color="#FF571A"/>
<stop offset="0.4968" stop-color="#FF0F74"/>
<stop offset="0.7459" stop-color="#9640EE"/>
<stop offset="0.7779" stop-color="#8F44EF"/>
<stop offset="0.8248" stop-color="#7B4DF1"/>
<stop offset="0.8811" stop-color="#5B5DF5"/>
<stop offset="0.9439" stop-color="#2E73FA"/>
<stop offset="1" stop-color="#008AFF"/>
</linearGradient>
<linearGradient id="paint3_linear" x1="-60.308" y1="852.365" x2="1356.49" y2="852.365" gradientUnits="userSpaceOnUse">
<stop stop-color="#FFBE10"/>
<stop offset="0.2181" stop-color="#FF571A"/>
<stop offset="0.4968" stop-color="#FF0F74"/>
<stop offset="0.7459" stop-color="#9640EE"/>
<stop offset="0.7779" stop-color="#8F44EF"/>
<stop offset="0.8248" stop-color="#7B4DF1"/>
<stop offset="0.8811" stop-color="#5B5DF5"/>
<stop offset="0.9439" stop-color="#2E73FA"/>
<stop offset="1" stop-color="#008AFF"/>
</linearGradient>
<linearGradient id="paint4_linear" x1="-60.3196" y1="850.055" x2="1347.03" y2="850.055" gradientUnits="userSpaceOnUse">
<stop stop-color="#FFBE10"/>
<stop offset="0.2181" stop-color="#FF571A"/>
<stop offset="0.4968" stop-color="#FF0F74"/>
<stop offset="0.7459" stop-color="#9640EE"/>
<stop offset="0.7779" stop-color="#8F44EF"/>
<stop offset="0.8248" stop-color="#7B4DF1"/>
<stop offset="0.8811" stop-color="#5B5DF5"/>
<stop offset="0.9439" stop-color="#2E73FA"/>
<stop offset="1" stop-color="#008AFF"/>
</linearGradient>
<linearGradient id="paint5_linear" x1="-60.3303" y1="847.419" x2="1339.97" y2="847.419" gradientUnits="userSpaceOnUse">
<stop stop-color="#FFBE10"/>
<stop offset="0.2181" stop-color="#FF571A"/>
<stop offset="0.4968" stop-color="#FF0F74"/>
<stop offset="0.7459" stop-color="#9640EE"/>
<stop offset="0.7779" stop-color="#8F44EF"/>
<stop offset="0.8248" stop-color="#7B4DF1"/>
<stop offset="0.8811" stop-color="#5B5DF5"/>
<stop offset="0.9439" stop-color="#2E73FA"/>
<stop offset="1" stop-color="#008AFF"/>
</linearGradient>
<linearGradient id="paint6_linear" x1="-60.3398" y1="844.446" x2="1335.77" y2="844.446" gradientUnits="userSpaceOnUse">
<stop stop-color="#FFBE10"/>
<stop offset="0.2181" stop-color="#FF571A"/>
<stop offset="0.4968" stop-color="#FF0F74"/>
<stop offset="0.7459" stop-color="#9640EE"/>
<stop offset="0.7779" stop-color="#8F44EF"/>
<stop offset="0.8248" stop-color="#7B4DF1"/>
<stop offset="0.8811" stop-color="#5B5DF5"/>
<stop offset="0.9439" stop-color="#2E73FA"/>
<stop offset="1" stop-color="#008AFF"/>
</linearGradient>
<linearGradient id="paint7_linear" x1="-60.3477" y1="841.143" x2="1334.01" y2="841.143" gradientUnits="userSpaceOnUse">
<stop stop-color="#FFBE10"/>
<stop offset="0.2181" stop-color="#FF571A"/>
<stop offset="0.4968" stop-color="#FF0F74"/>
<stop offset="0.7459" stop-color="#9640EE"/>
<stop offset="0.7779" stop-color="#8F44EF"/>
<stop offset="0.8248" stop-color="#7B4DF1"/>
<stop offset="0.8811" stop-color="#5B5DF5"/>
<stop offset="0.9439" stop-color="#2E73FA"/>
<stop offset="1" stop-color="#008AFF"/>
</linearGradient>
<linearGradient id="paint8_linear" x1="-60.3536" y1="837.537" x2="1334.11" y2="837.537" gradientUnits="userSpaceOnUse">
<stop stop-color="#FFBE10"/>
<stop offset="0.2181" stop-color="#FF571A"/>
<stop offset="0.4968" stop-color="#FF0F74"/>
<stop offset="0.7459" stop-color="#9640EE"/>
<stop offset="0.7779" stop-color="#8F44EF"/>
<stop offset="0.8248" stop-color="#7B4DF1"/>
<stop offset="0.8811" stop-color="#5B5DF5"/>
<stop offset="0.9439" stop-color="#2E73FA"/>
<stop offset="1" stop-color="#008AFF"/>
</linearGradient>
<linearGradient id="paint9_linear" x1="-60.3573" y1="833.659" x2="1335.58" y2="833.659" gradientUnits="userSpaceOnUse">
<stop stop-color="#FFBE10"/>
<stop offset="0.2181" stop-color="#FF571A"/>
<stop offset="0.4968" stop-color="#FF0F74"/>
<stop offset="0.7459" stop-color="#9640EE"/>
<stop offset="0.7779" stop-color="#8F44EF"/>
<stop offset="0.8248" stop-color="#7B4DF1"/>
<stop offset="0.8811" stop-color="#5B5DF5"/>
<stop offset="0.9439" stop-color="#2E73FA"/>
<stop offset="1" stop-color="#008AFF"/>
</linearGradient>
<linearGradient id="paint10_linear" x1="-60.3585" y1="831.907" x2="1338.06" y2="831.907" gradientUnits="userSpaceOnUse">
<stop stop-color="#FFBE10"/>
<stop offset="0.2181" stop-color="#FF571A"/>
<stop offset="0.4968" stop-color="#FF0F74"/>
<stop offset="0.7459" stop-color="#9640EE"/>
<stop offset="0.7779" stop-color="#8F44EF"/>
<stop offset="0.8248" stop-color="#7B4DF1"/>
<stop offset="0.8811" stop-color="#5B5DF5"/>
<stop offset="0.9439" stop-color="#2E73FA"/>
<stop offset="1" stop-color="#008AFF"/>
</linearGradient>
</defs>
</svg>
