<svg width="78" height="50" fill="none" xmlns="http://www.w3.org/2000/svg"><path d="M.272 4.312a4 4 0 014-4.002h69.6a4 4 0 014 4v41.404a4 4 0 01-4 4H4.289a4 4 0 01-4-3.999L.272 4.312z" fill="#fff"/><path fill-rule="evenodd" clip-rule="evenodd" d="M77.868 28.117v17.595a4.001 4.001 0 01-3.34 3.946H18c36.824-6.359 57.797-20.134 59.868-21.541z" fill="#E57026"/><path d="M6.827 15.302h-3.23v11.313h3.23c1.707 0 2.941-.412 4.031-1.296a5.657 5.657 0 002.057-4.34c-.02-3.352-2.51-5.677-6.088-5.677zm2.591 8.515c-.699.617-1.583.905-3.023.905h-.597v-7.486h.597c1.42 0 2.283.247 3.023.905.761.678 1.214 1.727 1.214 2.818 0 1.09-.453 2.18-1.214 2.858zm6.709-8.515h-2.201v11.313h2.2V15.302zm5.385 4.34c-1.316-.494-1.707-.823-1.707-1.419 0-.72.7-1.255 1.646-1.255.658 0 1.213.268 1.768.926l1.152-1.502a4.974 4.974 0 00-3.332-1.254c-1.995 0-3.537 1.398-3.537 3.25 0 1.563.72 2.365 2.776 3.105.864.309 1.296.514 1.522.638.432.288.659.7.659 1.172 0 .926-.72 1.604-1.708 1.604-1.049 0-1.892-.534-2.406-1.501l-1.42 1.378c1.009 1.502 2.243 2.16 3.909 2.16 2.283 0 3.907-1.522 3.907-3.723.042-1.83-.72-2.653-3.229-3.579zm3.953 1.337c0 3.332 2.612 5.903 5.965 5.903.946 0 1.768-.185 2.756-.658v-2.592c-.885.885-1.666 1.234-2.654 1.234-2.221 0-3.805-1.604-3.805-3.907 0-2.18 1.625-3.888 3.703-3.888 1.048 0 1.85.37 2.756 1.275v-2.591c-.967-.494-1.77-.7-2.715-.7-3.312 0-6.006 2.633-6.006 5.924zm26.242 1.933l-3.023-7.61h-2.407l4.793 11.6h1.193l4.874-11.6h-2.386l-3.044 7.61zm6.438 3.703h6.252v-1.913h-4.052v-3.044h3.908v-1.913h-3.908v-2.51h4.052v-1.933h-6.253v11.313zm14.995-7.96c0-2.119-1.46-3.332-4.01-3.332h-3.27v11.312h2.2V22.09h.288l3.044 4.545h2.715l-3.558-4.772c1.666-.35 2.591-1.48 2.591-3.208zm-4.442 1.871h-.638v-3.434h.679c1.378 0 2.118.576 2.118 1.686 0 1.132-.74 1.748-2.16 1.748z" fill="#231F20"/><path d="M40.95 27.026a6.026 6.026 0 100-12.053 6.026 6.026 0 000 12.053z" fill="url(#paint0_linear)"/><path opacity=".65" d="M40.95 27.026a6.026 6.026 0 100-12.053 6.026 6.026 0 000 12.053z" fill="url(#paint1_linear)"/><path d="M74.538 15.734c0-.206-.144-.308-.37-.308h-.33v.987h.248v-.39l.288.39h.288l-.33-.412c.124-.02.206-.123.206-.267zm-.411.144h-.041v-.267h.04c.124 0 .186.04.186.123 0 .103-.062.144-.185.144z" fill="#231F20"/><path d="M74.209 15.056a.869.869 0 00-.864.863c0 .473.39.864.864.864.473 0 .863-.39.863-.864a.869.869 0 00-.864-.864zm0 1.583c-.37 0-.7-.308-.7-.72 0-.39.309-.72.7-.72.37 0 .678.33.678.72 0 .391-.308.72-.678.72z" fill="#231F20"/><defs><linearGradient id="paint0_linear" x1="44.031" y1="25.822" x2="39.865" y2="19.3" gradientUnits="userSpaceOnUse"><stop stop-color="#F89F20"/><stop offset=".25" stop-color="#F79A20"/><stop offset=".533" stop-color="#F68D20"/><stop offset=".62" stop-color="#F58720"/><stop offset=".723" stop-color="#F48120"/><stop offset="1" stop-color="#F37521"/></linearGradient><linearGradient id="paint1_linear" x1="43.373" y1="25.734" x2="37.284" y2="13.834" gradientUnits="userSpaceOnUse"><stop stop-color="#F58720"/><stop offset=".359" stop-color="#E16F27"/><stop offset=".703" stop-color="#D4602C"/><stop offset=".982" stop-color="#D05B2E"/></linearGradient></defs></svg>