<svg width="151" height="40" fill="none" xmlns="http://www.w3.org/2000/svg"><path d="M56.013 8.18h-8.29a1.152 1.152 0 00-1.138.973L43.232 30.41a.692.692 0 00.684.797h3.957a1.152 1.152 0 001.139-.973l.904-5.733a1.151 1.151 0 011.137-.974h2.624c5.46 0 8.612-2.642 9.435-7.879.371-2.29.016-4.09-1.057-5.351-1.178-1.384-3.268-2.116-6.042-2.116zm.956 7.764c-.453 2.975-2.726 2.975-4.923 2.975h-1.251l.877-5.555a.69.69 0 01.683-.583h.573c1.497 0 2.91 0 3.639.853.435.51.568 1.265.402 2.31zm23.823-.096h-3.97a.692.692 0 00-.682.584l-.176 1.11-.277-.403c-.86-1.247-2.776-1.664-4.689-1.664-4.386 0-8.133 3.323-8.863 7.983-.38 2.325.16 4.548 1.479 6.098 1.21 1.426 2.94 2.02 5 2.02 3.535 0 5.495-2.273 5.495-2.273l-.177 1.103a.693.693 0 00.68.8h3.577a1.152 1.152 0 001.138-.973l2.145-13.587a.687.687 0 00-.68-.798zm-5.533 7.727c-.383 2.268-2.183 3.79-4.479 3.79-1.153 0-2.074-.37-2.665-1.07-.587-.696-.81-1.687-.623-2.79.357-2.248 2.188-3.82 4.448-3.82 1.127 0 2.044.374 2.647 1.081.605.714.845 1.71.672 2.809zm26.675-7.726h-3.989a1.156 1.156 0 00-.954.505l-5.502 8.104-2.332-7.788a1.156 1.156 0 00-1.105-.822h-3.92a.69.69 0 00-.656.914l4.394 12.895-4.131 5.832a.691.691 0 00.563 1.09h3.985a1.15 1.15 0 00.946-.494l13.268-19.152a.691.691 0 00-.567-1.085z" fill="#253B80"/><path d="M115.143 8.18h-8.291a1.154 1.154 0 00-1.137.973l-3.352 21.257a.684.684 0 00.392.734.692.692 0 00.289.063h4.254a.808.808 0 00.795-.68l.952-6.026a1.147 1.147 0 011.137-.974h2.623c5.462 0 8.612-2.642 9.436-7.879.372-2.29.015-4.09-1.058-5.351-1.177-1.384-3.265-2.116-6.04-2.116zm.957 7.764c-.453 2.975-2.725 2.975-4.924 2.975h-1.25l.879-5.555a.688.688 0 01.681-.583h.574c1.495 0 2.909 0 3.638.853.435.509.568 1.265.402 2.31zm23.821-.096h-3.967a.689.689 0 00-.681.583l-.176 1.11-.279-.402c-.859-1.247-2.774-1.664-4.687-1.664-4.387 0-8.132 3.323-8.862 7.983-.378 2.325.159 4.548 1.478 6.098 1.212 1.426 2.94 2.02 5 2.02 3.534 0 5.494-2.273 5.494-2.273l-.177 1.103a.69.69 0 00.394.737c.091.042.19.063.29.063h3.575a1.153 1.153 0 001.137-.973l2.146-13.587a.702.702 0 00-.018-.296.702.702 0 00-.377-.439.696.696 0 00-.29-.063zm-5.533 7.726c-.381 2.268-2.183 3.79-4.479 3.79-1.15 0-2.074-.369-2.665-1.07-.587-.695-.808-1.686-.623-2.789.36-2.248 2.188-3.82 4.448-3.82 1.127 0 2.044.374 2.647 1.081.608.714.848 1.71.672 2.809zm10.213-14.81l-3.402 21.646a.684.684 0 00.392.734.692.692 0 00.289.063h3.421a1.15 1.15 0 001.138-.973l3.355-21.256a.685.685 0 00-.392-.735.692.692 0 00-.289-.064h-3.83a.694.694 0 00-.682.585z" fill="#179BD7"/><path d="M8.807 35.338l.634-4.027-1.412-.032H1.286L5.972 1.566a.383.383 0 01.38-.325h11.37c3.775 0 6.38.786 7.74 2.336.637.727 1.043 1.487 1.24 2.324.206.877.21 1.926.008 3.204l-.014.094v.82l.637.36c.487.247.925.58 1.291.985.546.621.898 1.412 1.048 2.349.153.963.102 2.11-.15 3.408-.29 1.494-.76 2.794-1.396 3.858a7.936 7.936 0 01-2.212 2.425c-.844.598-1.846 1.053-2.98 1.344-1.098.286-2.35.43-3.723.43h-.885c-.633 0-1.247.228-1.73.636a2.68 2.68 0 00-.902 1.61l-.066.363-1.12 7.097-.051.26c-.013.083-.036.124-.07.152a.188.188 0 01-.117.042H8.807z" fill="#253B80"/><path d="M27.937 9.293c-.034.217-.073.44-.116.667-1.5 7.698-6.63 10.357-13.181 10.357h-3.336a1.62 1.62 0 00-1.601 1.373L7.995 32.52l-.483 3.07a.853.853 0 00.842.987h5.916c.7 0 1.296-.509 1.406-1.2l.059-.3 1.114-7.07.071-.387a1.423 1.423 0 011.406-1.203h.885c5.732 0 10.22-2.327 11.53-9.062.549-2.813.265-5.162-1.185-6.814a5.658 5.658 0 00-1.619-1.249z" fill="#179BD7"/><path d="M26.368 8.668a11.828 11.828 0 00-1.459-.324 18.525 18.525 0 00-2.94-.214h-8.912a1.42 1.42 0 00-1.405 1.202L9.758 21.34l-.055.35a1.62 1.62 0 011.601-1.372h3.336c6.552 0 11.681-2.66 13.18-10.357.046-.228.083-.45.117-.667a7.995 7.995 0 00-1.233-.52 10.97 10.97 0 00-.335-.105z" fill="#222D65"/><path d="M11.653 9.332a1.417 1.417 0 011.405-1.201h8.912c1.055 0 2.04.069 2.94.214.609.096 1.209.24 1.795.428.443.147.854.32 1.233.52.446-2.845-.004-4.781-1.542-6.535C24.7.827 21.64 0 17.724 0H6.354c-.8 0-1.483.582-1.606 1.373L.012 31.392a.977.977 0 00.964 1.13h7.019l1.762-11.183 1.896-12.007z" fill="#253B80"/></svg>