<svg width="141" height="141" fill="none" xmlns="http://www.w3.org/2000/svg"><rect x="30.35" y="34.5" width="75.976" height="72.6" rx="14.5" stroke="url(#paint0_linear)"/><path d="M76.896 69.215a1.5 1.5 0 010 2.57l-12.107 7.287a1.5 1.5 0 01-2.273-1.285V63.213a1.5 1.5 0 012.273-1.285l12.107 7.287z" fill="url(#paint1_linear)" fill-opacity=".2" stroke="url(#paint2_linear)"/><path stroke="url(#paint3_linear)" d="M30.518 89.519h76.313"/><path stroke="url(#paint4_linear)" d="M34.576 96.296h54.019"/><path stroke="url(#paint5_linear)" stroke-width="2" stroke-linecap="round" d="M95.672 96.471h4.752"/><path fill-rule="evenodd" clip-rule="evenodd" d="M106.861 50.656a.5.5 0 10-.07.997c6.496.456 11.705 1.428 15.365 2.86 3.688 1.442 5.647 3.286 5.969 5.389.186 1.207-.213 2.517-1.23 3.917-1.018 1.403-2.63 2.858-4.787 4.324a.5.5 0 00.562.827c2.209-1.501 3.923-3.032 5.035-4.563 1.113-1.533 1.647-3.105 1.409-4.657-.408-2.66-2.828-4.696-6.594-6.169-3.795-1.484-9.119-2.466-15.659-2.925zM30.04 63.768a.5.5 0 00-.38-.925c-5.683 2.33-10.174 4.778-13.164 7.241-2.967 2.444-4.584 5.013-4.19 7.577.37 2.41 2.516 4.302 5.77 5.727 3.282 1.437 7.835 2.467 13.314 3.07 10.965 1.209 25.754.723 41.776-1.734 7.995-1.226 15.549-2.828 22.364-4.676l-1.043 3.044a1 1 0 101.892.648l1.54-4.495a1 1 0 00-.621-1.27l-.014-.005-.009-.005-4.112-2.381a1 1 0 00-1.002 1.73l3.07 1.779c-6.766 1.833-14.27 3.424-22.217 4.642-15.96 2.448-30.659 2.926-41.515 1.73-5.431-.599-9.872-1.614-13.021-2.993-3.176-1.39-4.896-3.085-5.184-4.963-.309-2.014.936-4.263 3.838-6.653 2.879-2.371 7.265-4.774 12.908-7.088z" fill="url(#paint6_linear)"/><path stroke="url(#paint7_linear)" stroke-width="2" stroke-linecap="round" stroke-linejoin="round" d="M65.961 92.394v8.129"/><circle cx="70.5" cy="70.5" r="70" stroke="url(#paint8_linear)"/><defs><linearGradient id="paint0_linear" x1="29.85" y1="75.838" x2="107.987" y2="76.316" gradientUnits="userSpaceOnUse"><stop stop-color="#FEBD2F"/><stop offset=".249" stop-color="#F95721"/><stop offset=".503" stop-color="#FC1370"/><stop offset=".672" stop-color="#BA2DB2"/><stop offset=".776" stop-color="#8342E9"/><stop offset=".964" stop-color="#3F89FC"/></linearGradient><linearGradient id="paint1_linear" x1="66.369" y1="58" x2="66.214" y2="83.377" gradientUnits="userSpaceOnUse"><stop stop-color="#FEBD2F"/><stop offset=".249" stop-color="#F95721"/><stop offset=".503" stop-color="#FC1370"/><stop offset=".672" stop-color="#BA2DB2"/><stop offset=".776" stop-color="#8342E9"/><stop offset=".964" stop-color="#3F89FC"/></linearGradient><linearGradient id="paint2_linear" x1="66.369" y1="58" x2="66.214" y2="83.377" gradientUnits="userSpaceOnUse"><stop stop-color="#FEBD2F"/><stop offset=".249" stop-color="#F95721"/><stop offset=".503" stop-color="#FC1370"/><stop offset=".672" stop-color="#BA2DB2"/><stop offset=".776" stop-color="#8342E9"/><stop offset=".964" stop-color="#3F89FC"/></linearGradient><linearGradient id="paint3_linear" x1="30.518" y1="90.587" x2="95.119" y2="119.417" gradientUnits="userSpaceOnUse"><stop stop-color="#FEBD2F"/><stop offset=".249" stop-color="#F95721"/><stop offset=".503" stop-color="#FC1370"/><stop offset=".672" stop-color="#BA2DB2"/><stop offset=".776" stop-color="#8342E9"/><stop offset=".964" stop-color="#3F89FC"/></linearGradient><linearGradient id="paint4_linear" x1="34.576" y1="97.365" x2="84.436" y2="113.115" gradientUnits="userSpaceOnUse"><stop stop-color="#FEBD2F"/><stop offset=".249" stop-color="#F95721"/><stop offset=".503" stop-color="#FC1370"/><stop offset=".672" stop-color="#BA2DB2"/><stop offset=".776" stop-color="#8342E9"/><stop offset=".964" stop-color="#3F89FC"/></linearGradient><linearGradient id="paint5_linear" x1="94.672" y1="98.04" x2="101.516" y2="98.31" gradientUnits="userSpaceOnUse"><stop stop-color="#FEBD2F"/><stop offset=".249" stop-color="#F95721"/><stop offset=".503" stop-color="#FC1370"/><stop offset=".672" stop-color="#BA2DB2"/><stop offset=".776" stop-color="#8342E9"/><stop offset=".964" stop-color="#3F89FC"/></linearGradient><linearGradient id="paint6_linear" x1="12.247" y1="71.368" x2="130.896" y2="73.594" gradientUnits="userSpaceOnUse"><stop stop-color="#FEBD2F"/><stop offset=".249" stop-color="#F95721"/><stop offset=".503" stop-color="#FC1370"/><stop offset=".672" stop-color="#BA2DB2"/><stop offset=".776" stop-color="#8342E9"/><stop offset=".964" stop-color="#3F89FC"/></linearGradient><linearGradient id="paint7_linear" x1="64.393" y1="91.394" x2="63.786" y2="101.64" gradientUnits="userSpaceOnUse"><stop stop-color="#FEBD2F"/><stop offset=".249" stop-color="#F95721"/><stop offset=".503" stop-color="#FC1370"/><stop offset=".672" stop-color="#BA2DB2"/><stop offset=".776" stop-color="#8342E9"/><stop offset=".964" stop-color="#3F89FC"/></linearGradient><linearGradient id="paint8_linear" x1="0" y1="80.152" x2="143.128" y2="80.989" gradientUnits="userSpaceOnUse"><stop stop-color="#FEBD2F"/><stop offset=".249" stop-color="#F95721"/><stop offset=".503" stop-color="#FC1370"/><stop offset=".672" stop-color="#BA2DB2"/><stop offset=".776" stop-color="#8342E9"/><stop offset=".964" stop-color="#3F89FC"/></linearGradient></defs></svg>