<svg width="143" height="143" fill="none" xmlns="http://www.w3.org/2000/svg"><path d="M71.5 142c38.936 0 70.5-31.564 70.5-70.5S110.436 1 71.5 1 1 32.564 1 71.5 32.564 142 71.5 142z" stroke="url(#paint0_linear)" stroke-width="1.055" stroke-miterlimit="10" stroke-linecap="round" stroke-linejoin="round"/><path d="M57.67 60.459c0-2.03.7-3.71 9.38-4.06v8.33c-8.05-.56-9.38-2.24-9.38-4.13v-.14zm26.81 21.98c0 2.17-1.19 4.83-10.64 5.18v-10.15c9.31.56 10.64 2.24 10.64 4.69v.28zm-10.64 20.999v-4.34c26.671 0 31.571-8.68 31.571-17.64v-.98c0-10.22-7.35-14.7-26.46-15.26l-5.11-.21v-8.54c8.4.77 9.31 3.71 9.52 5.81h20.23v-.63c0-8.12-5.67-15.82-29.75-16.17v-4.13h-6.79v4.13c-23.73 0-29.47 7.07-29.47 15.47v.63c0 7.98 5.25 14.91 24.57 15.47l4.9.21v10.22c-8.33-.91-9.73-4.83-9.73-7.56H36.88v.77c0 6.65 2.87 18.06 30.17 18.41v4.34h6.79z" fill="url(#paint1_linear)" fill-opacity=".2"/><path d="M67.05 56.398h1v-1.04l-1.04.041.04 1zm0 8.33l-.069.998 1.07.075v-1.073h-1zm6.79 22.89h-1v1.038l1.038-.038-.037-1zm0-10.15l.06-.998-1.06-.064v1.063h1zm0 25.97v1h1v-1h-1zm0-4.34v-1h-1v1h1zm5.11-33.88l-.04 1h.011l.03-1zm-5.11-.21h-1v.96l.96.04.04-1zm0-8.54l.092-.995-1.091-.1v1.096h1zm9.52 5.81l-.994.1.09.9h.905v-1zm20.231 0v1h1v-1h-1zm-29.75-16.8h-1v.986l.985.014.015-1zm0-4.13h1v-1h-1v1zm-6.79 0v-1h-1v1h1zm0 4.13v1h1v-1h-1zm-4.9 31.57l.042-.999h-.013l-.03 1zm4.9.21h1V76.3l-.957-.04-.043.998zm0 10.22l-.109.995 1.109.12v-1.115h-1zm-9.73-7.56h1v-1h-1v1zm-20.44 0v-1h-1v1h1zm30.17 19.18h1v-.987l-.987-.012-.013 1zm0 4.34h-1v1h1v-1zm-8.38-42.98c0-.463.043-.778.157-1.032.102-.227.299-.489.772-.759 1.03-.586 3.154-1.095 7.491-1.27l-.08-1.998c-4.344.175-6.91.682-8.4 1.53-.786.448-1.307 1.009-1.608 1.678-.288.644-.332 1.3-.332 1.852h2zm7.38-4.06v8.33h2v-8.33h-2zm1.07 7.333c-4.002-.279-6.163-.83-7.302-1.448-.547-.297-.812-.584-.95-.822-.137-.238-.198-.51-.198-.862h-2c0 .592.105 1.238.468 1.865.363.626.934 1.148 1.726 1.577 1.539.835 4.068 1.403 8.116 1.685l.14-1.995zm-8.45-3.133v-.14h-2v.14h2zm24.81 21.84c0 .453-.063.87-.241 1.256-.175.377-.489.786-1.088 1.183-1.243.824-3.673 1.569-8.348 1.742l.074 1.999c4.775-.177 7.664-.937 9.379-2.073.88-.583 1.454-1.268 1.798-2.01.34-.735.426-1.464.426-2.096h-2zm-8.64 5.18v-10.15h-2v10.15h2zm-1.06-9.151c4.65.28 7.114.836 8.401 1.52.611.326.904.653 1.061.951.165.31.238.692.238 1.22h2c0-.696-.093-1.444-.47-2.155-.382-.723-1.004-1.31-1.89-1.781-1.705-.908-4.56-1.471-9.22-1.752l-.12 1.997zm9.7 3.692v.28h2v-.28h-2zm-8.64 21.279v-4.34h-2v4.34h2zm-1-3.34c13.402 0 21.554-2.172 26.371-5.649 4.902-3.537 6.199-8.306 6.199-12.99h-2c0 4.275-1.153 8.326-5.37 11.369-4.3 3.103-11.932 5.27-25.2 5.27v2zm32.57-18.64v-.98h-2v.98h2zm0-.98c0-2.673-.481-5.04-1.563-7.084-1.086-2.052-2.745-3.717-4.997-5.032-4.456-2.601-11.287-3.862-20.871-4.143l-.059 1.999c9.527.28 15.925 1.538 19.922 3.872 1.974 1.152 3.348 2.559 4.237 4.24.893 1.686 1.331 3.712 1.331 6.148h2zM78.991 64.22l-5.11-.21-.081 1.999 5.11.21.082-1.999zm-4.15.79v-8.54h-2v8.54h2zm-1.092-7.545c4.119.378 6.205 1.275 7.28 2.177 1.019.854 1.244 1.81 1.337 2.737l1.99-.199c-.117-1.172-.452-2.737-2.041-4.07-1.533-1.286-4.101-2.244-8.383-2.636l-.183 1.991zm9.612 5.815h20.23v-2h-20.23v2zm21.23-1v-.63h-2v.63h2zm0-.63c0-4.336-1.539-8.629-6.286-11.828-4.668-3.146-12.339-5.166-24.45-5.342l-.029 2c11.97.173 19.173 2.178 23.36 5 4.108 2.768 5.405 6.385 5.405 10.17h2zm-29.75-16.17v-4.13h-2v4.13h2zm-1-5.13h-6.79v2h6.79v-2zm-7.79 1v4.13h2v-4.13h-2zm1 3.13c-11.926 0-19.528 1.769-24.173 4.742-4.741 3.035-6.297 7.254-6.297 11.728h2c0-3.927 1.314-7.443 5.375-10.043 4.157-2.662 11.29-4.428 23.095-4.428v-2zm-30.47 16.47v.63h2v-.63h-2zm0 .63c0 4.236 1.41 8.29 5.44 11.316 3.967 2.981 10.354 4.87 20.1 5.153l.059-2c-9.574-.277-15.472-2.132-18.959-4.752-3.426-2.573-4.64-5.974-4.64-9.718h-2zm25.527 16.469l4.9.21.086-1.999-4.9-.21-.086 1.999zm3.943-.79v10.22h2v-10.22h-2zm1.108 9.226c-4.03-.44-6.207-1.59-7.38-2.8-1.157-1.194-1.458-2.574-1.458-3.766h-2c0 1.54.399 3.484 2.023 5.16 1.61 1.66 4.298 2.925 8.598 3.395l.217-1.989zm-9.838-7.566H36.88v2h20.44v-2zm-21.44 1v.77h2v-.77h-2zm0 .77c0 3.472.754 8.318 5.177 12.31 4.39 3.962 12.22 6.924 25.98 7.1l.026-2c-13.54-.173-20.795-3.091-24.666-6.584-3.836-3.463-4.517-7.647-4.517-10.825h-2zm30.17 18.41v4.34h2v-4.34h-2zm1 5.34h6.79v-2h-6.79v2z" fill="url(#paint2_linear)"/><defs><linearGradient id="paint0_linear" x1="1" y1="81.152" x2="144.128" y2="81.989" gradientUnits="userSpaceOnUse"><stop stop-color="#FEBD2F"/><stop offset=".249" stop-color="#F95721"/><stop offset=".503" stop-color="#FC1370"/><stop offset=".672" stop-color="#BA2DB2"/><stop offset=".776" stop-color="#8342E9"/><stop offset=".964" stop-color="#3F89FC"/></linearGradient><linearGradient id="paint1_linear" x1="35.971" y1="73.242" x2="108.031" y2="74.239" gradientUnits="userSpaceOnUse"><stop stop-color="#FEBD2F"/><stop offset=".249" stop-color="#F95721"/><stop offset=".503" stop-color="#FC1370"/><stop offset=".672" stop-color="#BA2DB2"/><stop offset=".776" stop-color="#8342E9"/><stop offset=".964" stop-color="#3F89FC"/></linearGradient><linearGradient id="paint2_linear" x1="35.971" y1="73.242" x2="108.031" y2="74.239" gradientUnits="userSpaceOnUse"><stop stop-color="#FEBD2F"/><stop offset=".249" stop-color="#F95721"/><stop offset=".503" stop-color="#FC1370"/><stop offset=".672" stop-color="#BA2DB2"/><stop offset=".776" stop-color="#8342E9"/><stop offset=".964" stop-color="#3F89FC"/></linearGradient></defs></svg>