<svg width="141" height="141" fill="none" xmlns="http://www.w3.org/2000/svg"><path d="M101 133.5c-9.27 4.54-20.09 6.5-31.11 6.5C41.43 140 16.94 123.02 6 98.64c.22-.05.39-.25.39-.49V76.12c0-6.89 5.58-12.47 12.47-12.47.28 0 .5-.23.5-.5 0-.2-.1-.36-.26-.45v-.01a12.17 12.17 0 01-6.98-11.01c0-6.73 5.45-12.18 12.17-12.18 6.73 0 12.71 4.27 12.71 11 2.53 4.32-3.15 11.2-7.27 13.15l-.24-.95c.24.95.24.75.24.95-.28 0 0 .27 0 0C36.62 63.65 43 68.61 43 75.5l.201 10c-1.79 3.18-2.811 6.59-2.811 10.5v37c0 .28-.78 0-.5 0 .27 0 .5-.22.5-.5V96c0-11.59 9.4-21 21-21 .27 0 .5-.22.5-.5 0-.18-.1-.34-.25-.43v-.02C54.69 70.77 49.89 63.7 49.89 55.5c0-11.32 9.17-20.5 20.5-20.5C81.71 35 92 44.18 92 55.5c0 8.2-3.5 15-11.5 19H80c.86.43 0 .32 0 .5 0 .28.22 0 .5 0 11.59 0 21 9.41 21 21v36.5c0 .17-.63.91-.5 1z" fill="url(#paint0_linear)" fill-opacity=".2"/><circle cx="70.5" cy="70.5" r="70" stroke="url(#paint1_linear)"/><path fill-rule="evenodd" clip-rule="evenodd" d="M12.733 52.174c0-6.723 5.45-12.174 12.174-12.174 6.724 0 12.175 5.45 12.175 12.174 0 4.866-2.855 9.066-6.983 11.015l.005.011a.5.5 0 00.236.941c6.89 0 12.476 5.586 12.476 12.476v9.122a.5.5 0 001 0v-9.122c0-6.864-5.133-12.53-11.77-13.369a13.164 13.164 0 006.036-11.074C38.082 44.898 32.183 39 24.907 39c-7.275 0-13.174 5.898-13.174 13.174 0 4.646 2.405 8.729 6.036 11.074C11.132 64.088 6 69.753 6 76.618v22.028a.5.5 0 101 0V76.617c0-6.89 5.586-12.476 12.476-12.476a.5.5 0 00.235-.941l.005-.01a12.176 12.176 0 01-6.983-11.016z" fill="url(#paint2_linear)"/><path fill-rule="evenodd" clip-rule="evenodd" d="M105.733 52.174c0-6.723 5.451-12.174 12.174-12.174 6.724 0 12.175 5.45 12.175 12.174 0 4.866-2.855 9.066-6.983 11.015l.005.011a.5.5 0 00.236.941c6.89 0 12.476 5.586 12.476 12.476v17.884a.5.5 0 101 0V76.616c0-6.864-5.133-12.53-11.77-13.369a13.164 13.164 0 006.036-11.074c0-7.276-5.899-13.174-13.175-13.174-7.275 0-13.174 5.898-13.174 13.174 0 4.646 2.405 8.729 6.036 11.074-6.637.84-11.769 6.505-11.769 13.37V87a.5.5 0 001 0V76.617c0-6.89 5.586-12.476 12.476-12.476a.5.5 0 00.235-.941l.005-.01c-4.128-1.95-6.983-6.15-6.983-11.016z" fill="url(#paint3_linear)"/><path fill-rule="evenodd" clip-rule="evenodd" d="M50.5 56c0-11.322 9.178-20.5 20.5-20.5S91.5 44.678 91.5 56c0 8.194-4.807 15.266-11.758 18.548l.01.018A.5.5 0 0080 75.5c11.598 0 21 9.402 21 21V133a.5.5 0 001 0V96.5c0-11.533-8.874-20.993-20.167-21.925C88.213 70.847 92.5 63.925 92.5 56c0-11.874-9.626-21.5-21.5-21.5S49.5 44.126 49.5 56c0 7.924 4.287 14.847 10.667 18.575C48.874 75.507 40 84.967 40 96.5V133a.5.5 0 001 0V96.5c0-11.598 9.402-21 21-21a.5.5 0 00.249-.934l.009-.018C55.308 71.266 50.5 64.194 50.5 56z" fill="url(#paint4_linear)"/><path d="M136.15 94.95c-6.17 16.58-18.45 30.18-34.1 38.08V96.5c0-3.32-.73-6.46-2.05-9.28.03-.07.05-.14.05-.22V76.62c0-6.89 5.58-12.47 12.47-12.47.28 0 .5-.23.5-.5 0-.2-.1-.36-.26-.45v-.01a12.17 12.17 0 01-6.98-11.01c0-6.73 5.45-12.18 12.17-12.18 6.73 0 12.18 5.45 12.18 12.18 0 4.86-2.86 9.06-6.98 11.01v.01c-.16.09-.26.25-.26.45 0 .27.22.5.5.5 6.89 0 12.47 5.58 12.47 12.47V94.5c0 .2.12.37.29.45z" fill="url(#paint5_linear)" fill-opacity=".2"/><defs><linearGradient id="paint0_linear" x1="6" y1="94.688" x2="102.038" y2="95.194" gradientUnits="userSpaceOnUse"><stop stop-color="#FEBD2F"/><stop offset=".249" stop-color="#F95721"/><stop offset=".503" stop-color="#FC1370"/><stop offset=".672" stop-color="#BA2DB2"/><stop offset=".776" stop-color="#8342E9"/><stop offset=".964" stop-color="#3F89FC"/></linearGradient><linearGradient id="paint1_linear" x1="0" y1="80.152" x2="143.128" y2="80.989" gradientUnits="userSpaceOnUse"><stop stop-color="#FEBD2F"/><stop offset=".249" stop-color="#F95721"/><stop offset=".503" stop-color="#FC1370"/><stop offset=".672" stop-color="#BA2DB2"/><stop offset=".776" stop-color="#8342E9"/><stop offset=".964" stop-color="#3F89FC"/></linearGradient><linearGradient id="paint2_linear" x1="6" y1="73.19" x2="44.387" y2="73.332" gradientUnits="userSpaceOnUse"><stop stop-color="#FEBD2F"/><stop offset=".249" stop-color="#F95721"/><stop offset=".503" stop-color="#FC1370"/><stop offset=".672" stop-color="#BA2DB2"/><stop offset=".776" stop-color="#8342E9"/><stop offset=".964" stop-color="#3F89FC"/></linearGradient><linearGradient id="paint3_linear" x1="99" y1="70.833" x2="137.387" y2="70.985" gradientUnits="userSpaceOnUse"><stop stop-color="#FEBD2F"/><stop offset=".249" stop-color="#F95721"/><stop offset=".503" stop-color="#FC1370"/><stop offset=".672" stop-color="#BA2DB2"/><stop offset=".776" stop-color="#8342E9"/><stop offset=".964" stop-color="#3F89FC"/></linearGradient><linearGradient id="paint4_linear" x1="40" y1="90.777" x2="102.937" y2="91.007" gradientUnits="userSpaceOnUse"><stop stop-color="#FEBD2F"/><stop offset=".249" stop-color="#F95721"/><stop offset=".503" stop-color="#FC1370"/><stop offset=".672" stop-color="#BA2DB2"/><stop offset=".776" stop-color="#8342E9"/><stop offset=".964" stop-color="#3F89FC"/></linearGradient><linearGradient id="paint5_linear" x1="100" y1="92.883" x2="136.697" y2="92.966" gradientUnits="userSpaceOnUse"><stop stop-color="#FEBD2F"/><stop offset=".249" stop-color="#F95721"/><stop offset=".503" stop-color="#FC1370"/><stop offset=".672" stop-color="#BA2DB2"/><stop offset=".776" stop-color="#8342E9"/><stop offset=".964" stop-color="#3F89FC"/></linearGradient></defs></svg>