<svg width="141" height="141" fill="none" xmlns="http://www.w3.org/2000/svg"><path d="M100.534 36.184l1.479-1.539a47.026 47.026 0 0113.373 50.958 12.034 12.034 0 00-1.187-.66l-.286-.138c.03-.43.012-.863-.054-1.29a44.874 44.874 0 00-13.325-47.33z" fill="url(#paint0_linear)" fill-opacity=".2"/><path d="M93.339 115.085a2.902 2.902 0 01-1.36-3.87l13.475-28.068a2.914 2.914 0 012.62-1.646 2.902 2.902 0 012.892 2.737 2.9 2.9 0 01-.282 1.42l-.024.052-13.45 28.016a2.906 2.906 0 01-1.654 1.482 2.904 2.904 0 01-2.217-.123z" fill="url(#paint1_linear)" fill-opacity=".2"/><path d="M117.152 99.643l-5.888 12.276a9.023 9.023 0 01-11.951 4.274l13.693-28.545a9.029 9.029 0 014.152 11.996l-.006-.001z" fill="url(#paint2_linear)" fill-opacity=".2"/><path d="M35.873 116.53a8.965 8.965 0 01-5.142-4.61l-5.888-12.276a9.03 9.03 0 014.148-11.996l13.692 28.546a8.96 8.96 0 01-6.81.336z" fill="url(#paint3_linear)" fill-opacity=".2"/><path d="M32.666 81.784c.39-.188.818-.286 1.25-.286a2.907 2.907 0 012.62 1.646l13.48 28.068a2.903 2.903 0 01-3.578 3.993 2.92 2.92 0 01-1.654-1.482L31.337 85.706l-.025-.052a2.9 2.9 0 011.36-3.87h-.006z" fill="url(#paint4_linear)" fill-opacity=".2"/><path d="M26.063 69.998a44.893 44.893 0 002.077 13.517c-.067.427-.085.86-.055 1.291l-.286.137c-.407.197-.803.418-1.186.66a47.027 47.027 0 0113.37-50.958l1.48 1.54a44.752 44.752 0 00-15.4 33.813z" fill="url(#paint5_linear)" fill-opacity=".2"/><path d="M95.507 35.416a42.31 42.31 0 00-49.018 0 1.389 1.389 0 01-1.817-.154l-2.415-2.513a47.062 47.062 0 0157.483 0l-2.413 2.512a1.39 1.39 0 01-1.82.155z" fill="url(#paint6_linear)" fill-opacity=".2"/><path fill-rule="evenodd" clip-rule="evenodd" d="M120.997 69.998a49.842 49.842 0 00-18.129-38.53 50.012 50.012 0 00-63.737 0 49.977 49.977 0 00-14.923 56.134 11.99 11.99 0 00-2.025 13.319l5.888 12.276a11.965 11.965 0 006.823 6.126 11.958 11.958 0 009.156-.507l1.245-.597c.107-.053.207-.118.297-.195a5.839 5.839 0 006.22-1.701 5.842 5.842 0 00.869-6.389L39.203 81.865a5.839 5.839 0 00-9.01-1.97 41.946 41.946 0 0113.51-41.745 4.288 4.288 0 001.955.493 4.38 4.38 0 002.544-.822 39.358 39.358 0 0145.593 0 4.326 4.326 0 004.507.338 41.945 41.945 0 0113.501 41.738 5.838 5.838 0 00-9.01 1.97l-13.474 28.067a5.832 5.832 0 007.088 8.091c.091.076.19.141.297.194l1.246.598a11.98 11.98 0 0015.978-5.62l5.889-12.276a11.99 11.99 0 00-2.026-13.32 49.518 49.518 0 003.206-17.603zM32.84 114.74a8.965 8.965 0 003.033 1.79 8.96 8.96 0 006.81-.336L28.99 87.648a9.03 9.03 0 00-4.148 11.996l5.888 12.276a8.966 8.966 0 002.11 2.82zm1.077-33.242a2.88 2.88 0 00-1.251.286h.006a2.9 2.9 0 00-1.36 3.87l.025.052 13.447 28.017a2.904 2.904 0 004.777.681 2.908 2.908 0 00.736-2.095 2.903 2.903 0 00-.281-1.097l-13.48-28.068a2.907 2.907 0 00-2.62-1.646zm-5.777 2.017a44.893 44.893 0 01-2.077-13.517 44.752 44.752 0 0115.4-33.814l-1.48-1.539a47.028 47.028 0 00-13.37 50.958c.383-.242.779-.463 1.186-.66l.287-.137a5.805 5.805 0 01.054-1.291zm42.858-55.921a42.31 42.31 0 0124.51 7.822 1.389 1.389 0 001.819-.155l2.413-2.512a47.062 47.062 0 00-57.483 0l2.415 2.513a1.389 1.389 0 001.817.154A42.31 42.31 0 0171 27.594zm31.015 7.051l-1.479 1.54a44.877 44.877 0 0113.325 47.33c.066.427.084.86.054 1.29l.286.138c.408.197.804.418 1.187.66a47.026 47.026 0 00-13.373-50.958zm-10.154 78.787a2.902 2.902 0 005.35.294L110.66 85.71l.024-.052a2.9 2.9 0 10-5.23-2.511l-13.475 28.068a2.906 2.906 0 00-.12 2.217zm19.405-1.513l5.888-12.276h.006a9.028 9.028 0 00-4.152-11.995l-13.694 28.545a9.02 9.02 0 0011.952-4.274z" fill="url(#paint7_linear)" fill-opacity=".2"/><path d="M120.747 69.998v0a49.293 49.293 0 01-3.189 17.515l-.055.145.105.114a11.743 11.743 0 011.983 13.041l-5.888 12.276a11.728 11.728 0 01-15.645 5.503l-1.243-.597-.001-.001a1.262 1.262 0 01-.246-.161l-.107-.09-.133.044a5.579 5.579 0 01-7.301-4.556 5.585 5.585 0 01.516-3.188l.001-.001 13.474-28.067h0a5.587 5.587 0 018.625-1.886l.309.258.094-.39a42.196 42.196 0 00-13.582-41.988l-.127-.11-.15.078a4.075 4.075 0 01-4.245-.318l-.002-.001a39.608 39.608 0 00-45.883 0h0a4.13 4.13 0 01-2.398.775 4.038 4.038 0 01-1.839-.465l-.15-.078-.129.11A42.196 42.196 0 0029.95 79.954l.094.391.309-.257a5.588 5.588 0 018.625 1.885h0l13.477 28.069h0a5.594 5.594 0 01-6.785 7.744l-.133-.043-.106.09a1.245 1.245 0 01-.245.161l-.001.001-1.243.596h0a11.712 11.712 0 01-15.645-5.502h0l-5.889-12.276a11.738 11.738 0 011.983-13.041l.105-.114-.054-.144A49.726 49.726 0 0139.29 31.662l-.16-.193.16.193a49.76 49.76 0 0163.418 0h.001a49.602 49.602 0 0118.038 38.336z" stroke="url(#paint8_linear)" stroke-width=".5"/><circle cx="70.5" cy="70.5" r="70" stroke="url(#paint9_linear)"/><defs><linearGradient id="paint0_linear" x1="25" y1="133" x2="143.695" y2="-15.046" gradientUnits="userSpaceOnUse"><stop stop-color="#FEBD2F"/><stop offset=".249" stop-color="#F95721"/><stop offset=".503" stop-color="#FC1370"/><stop offset=".672" stop-color="#BA2DB2"/><stop offset=".776" stop-color="#8342E9"/><stop offset=".964" stop-color="#3F89FC"/></linearGradient><linearGradient id="paint1_linear" x1="25" y1="133" x2="143.695" y2="-15.046" gradientUnits="userSpaceOnUse"><stop stop-color="#FEBD2F"/><stop offset=".249" stop-color="#F95721"/><stop offset=".503" stop-color="#FC1370"/><stop offset=".672" stop-color="#BA2DB2"/><stop offset=".776" stop-color="#8342E9"/><stop offset=".964" stop-color="#3F89FC"/></linearGradient><linearGradient id="paint2_linear" x1="25" y1="133" x2="143.695" y2="-15.046" gradientUnits="userSpaceOnUse"><stop stop-color="#FEBD2F"/><stop offset=".249" stop-color="#F95721"/><stop offset=".503" stop-color="#FC1370"/><stop offset=".672" stop-color="#BA2DB2"/><stop offset=".776" stop-color="#8342E9"/><stop offset=".964" stop-color="#3F89FC"/></linearGradient><linearGradient id="paint3_linear" x1="25" y1="133" x2="143.695" y2="-15.046" gradientUnits="userSpaceOnUse"><stop stop-color="#FEBD2F"/><stop offset=".249" stop-color="#F95721"/><stop offset=".503" stop-color="#FC1370"/><stop offset=".672" stop-color="#BA2DB2"/><stop offset=".776" stop-color="#8342E9"/><stop offset=".964" stop-color="#3F89FC"/></linearGradient><linearGradient id="paint4_linear" x1="25" y1="133" x2="143.695" y2="-15.046" gradientUnits="userSpaceOnUse"><stop stop-color="#FEBD2F"/><stop offset=".249" stop-color="#F95721"/><stop offset=".503" stop-color="#FC1370"/><stop offset=".672" stop-color="#BA2DB2"/><stop offset=".776" stop-color="#8342E9"/><stop offset=".964" stop-color="#3F89FC"/></linearGradient><linearGradient id="paint5_linear" x1="25" y1="133" x2="143.695" y2="-15.046" gradientUnits="userSpaceOnUse"><stop stop-color="#FEBD2F"/><stop offset=".249" stop-color="#F95721"/><stop offset=".503" stop-color="#FC1370"/><stop offset=".672" stop-color="#BA2DB2"/><stop offset=".776" stop-color="#8342E9"/><stop offset=".964" stop-color="#3F89FC"/></linearGradient><linearGradient id="paint6_linear" x1="25" y1="133" x2="143.695" y2="-15.046" gradientUnits="userSpaceOnUse"><stop stop-color="#FEBD2F"/><stop offset=".249" stop-color="#F95721"/><stop offset=".503" stop-color="#FC1370"/><stop offset=".672" stop-color="#BA2DB2"/><stop offset=".776" stop-color="#8342E9"/><stop offset=".964" stop-color="#3F89FC"/></linearGradient><linearGradient id="paint7_linear" x1="25" y1="133" x2="143.695" y2="-15.046" gradientUnits="userSpaceOnUse"><stop stop-color="#FEBD2F"/><stop offset=".249" stop-color="#F95721"/><stop offset=".503" stop-color="#FC1370"/><stop offset=".672" stop-color="#BA2DB2"/><stop offset=".776" stop-color="#8342E9"/><stop offset=".964" stop-color="#3F89FC"/></linearGradient><linearGradient id="paint8_linear" x1="21" y1="142.5" x2="134.24" y2="-.498" gradientUnits="userSpaceOnUse"><stop stop-color="#FEBD2F"/><stop offset=".249" stop-color="#F95721"/><stop offset=".503" stop-color="#FC1370"/><stop offset=".672" stop-color="#BA2DB2"/><stop offset=".776" stop-color="#8342E9"/><stop offset=".964" stop-color="#3F89FC"/></linearGradient><linearGradient id="paint9_linear" x1="0" y1="80.152" x2="143.128" y2="80.989" gradientUnits="userSpaceOnUse"><stop stop-color="#FEBD2F"/><stop offset=".249" stop-color="#F95721"/><stop offset=".503" stop-color="#FC1370"/><stop offset=".672" stop-color="#BA2DB2"/><stop offset=".776" stop-color="#8342E9"/><stop offset=".964" stop-color="#3F89FC"/></linearGradient></defs></svg>