<svg width="200" height="200" fill="none" xmlns="http://www.w3.org/2000/svg"><circle cx="100" cy="100" r="99.5" fill="#111" stroke="url(#paint0_linear)"/><path d="M20.85 119h24.7c21.75 0 26.2-10.1 26.2-18.1v-1.5c0-8.35-4.7-17.6-26.25-17.6H20.85V119zM32.5 90.6h12.1c13.4 0 14.95 5.75 14.95 9.55v.3c0 3.8-1.75 9.6-14.95 9.6H32.5V90.6zm70.298 13.2h-14.1l6.9-13.95 7.2 13.95zm7.8 15.2h12.55l-19.9-37.2h-15.1l-18.8 37.2h11.85l3.35-6.8h22.55l3.5 6.8zm33.927 0l8.45-24.9 8.95 24.9h11.75l15.05-37.2h-11.45l-9.4 24.85-8.5-24.85h-12.4l-8.3 25.6-9.6-25.6h-12.7l15.3 37.2h12.85z" fill="url(#paint1_linear)" fill-opacity=".2"/><path d="M20.85 119h-1v1h1v-1zm0-37.2v-1h-1v1h1zm11.65 8.8v-1h-1v1h1zm0 19.45h-1v1h1v-1zM20.85 120h24.7v-2h-24.7v2zm24.7 0c11.012 0 17.848-2.555 21.933-6.314 4.1-3.772 5.267-8.605 5.267-12.786h-2c0 3.819-1.058 8.036-4.62 11.314-3.578 3.291-9.842 5.786-20.58 5.786v2zm27.2-19.1v-1.5h-2v1.5h2zm0-1.5c0-4.364-1.235-9.083-5.388-12.687C63.236 83.135 56.394 80.8 45.5 80.8v2c10.656 0 16.939 2.29 20.55 5.424 3.585 3.11 4.7 7.19 4.7 11.176h2zM45.5 80.8H20.85v2H45.5v-2zm-25.65 1V119h2V81.8h-2zm12.65 9.8h12.1v-2H32.5v2zm12.1 0c6.586 0 10.024 1.418 11.82 3.083 1.77 1.642 2.13 3.697 2.13 5.467h2c0-2.03-.415-4.75-2.77-6.933-2.329-2.16-6.366-3.617-13.18-3.617v2zm13.95 8.55v.3h2v-.3h-2zm0 .3c0 1.751-.4 3.828-2.203 5.49-1.825 1.683-5.268 3.11-11.747 3.11v2c6.721 0 10.753-1.473 13.103-3.64 2.372-2.188 2.847-4.911 2.847-6.96h-2zm-13.95 8.6H32.5v2h12.1v-2zm-11.1 1V90.6h-2v19.45h2zm69.298-6.25v1h1.642l-.753-1.459-.889.459zm-14.1 0l-.896-.443-.714 1.443h1.61v-1zm6.9-13.95l.89-.459-.909-1.758-.877 1.774.896.443zm15 29.15l-.889.458.279.542h.61v-1zm12.55 0v1h1.669l-.787-1.472-.882.472zm-19.9-37.2l.882-.472-.282-.528h-.6v1zm-15.1 0v-1h-.615l-.277.549.892.451zm-18.8 37.2l-.892-.451-.733 1.451h1.625v-1zm11.85 0v1h.623l.275-.558-.898-.442zm3.35-6.8v-1h-.622l-.275.558.897.442zm22.55 0l.89-.458-.28-.542h-.61v1zm-4.3-9.4h-14.1v2h14.1v-2zm-13.203 1.443l6.9-13.95-1.793-.886-6.9 13.95 1.793.886zm5.115-13.934l7.2 13.95 1.777-.918-7.2-13.95-1.777.918zM110.598 120h12.55v-2h-12.55v2zm13.432-1.472l-19.9-37.2-1.763.944 19.9 37.2 1.763-.944zM103.248 80.8h-15.1v2h15.1v-2zm-15.992.549l-18.8 37.2 1.785.902 18.8-37.2-1.785-.902zM69.348 120h11.85v-2h-11.85v2zm12.748-.558l3.35-6.8-1.795-.884-3.35 6.8 1.794.884zm2.452-6.242h22.55v-2h-22.55v2zm21.661-.542l3.5 6.8 1.779-.916-3.5-6.8-1.779.916zM144.525 119v1h.716l.231-.679-.947-.321zm8.45-24.9l.941-.338-.969-2.694-.919 2.71.947.322zm8.95 24.9l-.941.338.237.662h.704v-1zm11.75 0v1h.674l.253-.625-.927-.375zm15.05-37.2l.927.375.556-1.375h-1.483v1zm-11.45 0v-1h-.691l-.245.646.936.354zm-9.4 24.85l-.947.324.899 2.628.983-2.598-.935-.354zm-8.5-24.85l.946-.324-.232-.676h-.714v1zm-12.4 0v-1h-.727l-.225.692.952.308zm-8.3 25.6l-.937.351 1.005 2.68.883-2.723-.951-.308zm-9.6-25.6l.936-.351-.243-.649h-.693v1zm-12.7 0v-1h-1.493l.568 1.38.925-.38zm15.3 37.2l-.925.38.255.62h.67v-1zm13.797.321l8.45-24.9-1.894-.642-8.45 24.9 1.894.642zm6.562-24.883l8.95 24.9 1.882-.676-8.95-24.9-1.882.676zM161.925 120h11.75v-2h-11.75v2zm12.677-.625l15.05-37.2-1.854-.75-15.05 37.2 1.854.75zM188.725 80.8h-11.45v2h11.45v-2zm-12.386.646l-9.4 24.85 1.871.708 9.4-24.85-1.871-.708zm-7.518 24.88l-8.5-24.85-1.893.648 8.5 24.85 1.893-.648zM159.375 80.8h-12.4v2h12.4v-2zm-13.352.692l-8.3 25.6 1.903.616 8.3-25.6-1.903-.616zm-6.412 25.557l-9.6-25.6-1.873.702 9.6 25.6 1.873-.702zM129.075 80.8h-12.7v2h12.7v-2zm-13.625 1.38l15.3 37.2 1.849-.76-15.3-37.2-1.849.76zM131.675 120h12.85v-2h-12.85v2z" fill="url(#paint2_linear)"/><defs><linearGradient id="paint0_linear" x1="0" y1="113.69" x2="203.018" y2="114.878" gradientUnits="userSpaceOnUse"><stop stop-color="#FEBD2F"/><stop offset=".249" stop-color="#F95721"/><stop offset=".503" stop-color="#FC1370"/><stop offset=".672" stop-color="#BA2DB2"/><stop offset=".776" stop-color="#8342E9"/><stop offset=".964" stop-color="#3F89FC"/></linearGradient><linearGradient id="paint1_linear" x1="18" y1="102.054" x2="191.394" y2="107.833" gradientUnits="userSpaceOnUse"><stop stop-color="#FEBD2F"/><stop offset=".249" stop-color="#F95721"/><stop offset=".503" stop-color="#FC1370"/><stop offset=".672" stop-color="#BA2DB2"/><stop offset=".776" stop-color="#8342E9"/><stop offset=".964" stop-color="#3F89FC"/></linearGradient><linearGradient id="paint2_linear" x1="18" y1="102.054" x2="191.394" y2="107.833" gradientUnits="userSpaceOnUse"><stop stop-color="#FEBD2F"/><stop offset=".249" stop-color="#F95721"/><stop offset=".503" stop-color="#FC1370"/><stop offset=".672" stop-color="#BA2DB2"/><stop offset=".776" stop-color="#8342E9"/><stop offset=".964" stop-color="#3F89FC"/></linearGradient></defs></svg>