<svg width="200" height="200" fill="none" xmlns="http://www.w3.org/2000/svg"><circle cx="100" cy="100" r="99.5" fill="#111" stroke="url(#paint0_linear)"/><circle cx="100" cy="100" r="99.5" fill="#111" stroke="url(#paint1_linear)"/><path fill="url(#paint2_linear)" fill-opacity=".2" stroke="url(#paint3_linear)" stroke-width=".83" d="M37.415 53.415H162.58v94.087H37.415z"/><path fill-rule="evenodd" clip-rule="evenodd" d="M49.6 89.119V53h-.84v94.917h.84V89.959h17.639v-.84h-17.64zm113.398.42h-59.644v-.84h59.644v.84zm-16.805 25.409H163v-.84h-16.807v.84zm-25.191.105H51.279v-.84h69.723v.84z" fill="url(#paint4_linear)"/><path d="M140.608 118.039c-.648.29-1.429.46-2.314.557a5.018 5.018 0 002.08-4.067 5.037 5.037 0 00-2.055-4.05c-3.054-2.239-5.434-4.478-7.239-6.803l-.743-.957v25.62a5.73 5.73 0 01-5.723 5.723 5.73 5.73 0 01-5.722-5.723 5.73 5.73 0 015.722-5.723c1.042 0 2.018.282 2.861.77l.623.362V97.244c.257.102.552.242.853.404.487.26.949.552 1.236.768l1.731 2.596c1.76 2.641 4.294 5.146 7.724 7.661l.246-.335-.246.335a7.288 7.288 0 012.971 5.856c0 1.002-.204 1.738-.542 2.286-.337.546-.828.94-1.463 1.224z" fill="#111" stroke="url(#paint5_linear)" stroke-width=".83"/><path d="M95.68 71.48h0l.011-.003c.268-.076.745-.185 1.168-.282l.135-.031v25.762a5.348 5.348 0 01-5.341 5.341 5.348 5.348 0 01-5.341-5.341 5.348 5.348 0 015.34-5.341c.973 0 1.884.262 2.67.718l.624.362V79.573l-.528.149-17.46 4.942-.302.085v17.933a5.347 5.347 0 01-5.341 5.341 5.347 5.347 0 01-5.341-5.341 5.348 5.348 0 015.34-5.341c.973 0 1.884.262 2.67.718l.624.362V76.862L95.68 71.48z" fill="#111" stroke="url(#paint6_linear)" stroke-width=".83"/><defs><linearGradient id="paint0_linear" x1="0" y1="113.69" x2="203.018" y2="114.878" gradientUnits="userSpaceOnUse"><stop stop-color="#FEBD2F"/><stop offset=".249" stop-color="#F95721"/><stop offset=".503" stop-color="#FC1370"/><stop offset=".672" stop-color="#BA2DB2"/><stop offset=".776" stop-color="#8342E9"/><stop offset=".964" stop-color="#3F89FC"/></linearGradient><linearGradient id="paint1_linear" x1="0" y1="113.69" x2="203.018" y2="114.878" gradientUnits="userSpaceOnUse"><stop stop-color="#FEBD2F"/><stop offset=".249" stop-color="#F95721"/><stop offset=".503" stop-color="#FC1370"/><stop offset=".672" stop-color="#BA2DB2"/><stop offset=".776" stop-color="#8342E9"/><stop offset=".964" stop-color="#3F89FC"/></linearGradient><linearGradient id="paint2_linear" x1="37" y1="106.956" x2="164.893" y2="107.948" gradientUnits="userSpaceOnUse"><stop stop-color="#FEBD2F"/><stop offset=".249" stop-color="#F95721"/><stop offset=".503" stop-color="#FC1370"/><stop offset=".672" stop-color="#BA2DB2"/><stop offset=".776" stop-color="#8342E9"/><stop offset=".964" stop-color="#3F89FC"/></linearGradient><linearGradient id="paint3_linear" x1="37" y1="106.956" x2="164.893" y2="107.948" gradientUnits="userSpaceOnUse"><stop stop-color="#FEBD2F"/><stop offset=".249" stop-color="#F95721"/><stop offset=".503" stop-color="#FC1370"/><stop offset=".672" stop-color="#BA2DB2"/><stop offset=".776" stop-color="#8342E9"/><stop offset=".964" stop-color="#3F89FC"/></linearGradient><linearGradient id="paint4_linear" x1="48.759" y1="106.956" x2="164.722" y2="107.772" gradientUnits="userSpaceOnUse"><stop stop-color="#FEBD2F"/><stop offset=".249" stop-color="#F95721"/><stop offset=".503" stop-color="#FC1370"/><stop offset=".672" stop-color="#BA2DB2"/><stop offset=".776" stop-color="#8342E9"/><stop offset=".964" stop-color="#3F89FC"/></linearGradient><linearGradient id="paint5_linear" x1="118.477" y1="118.165" x2="143.399" y2="118.26" gradientUnits="userSpaceOnUse"><stop stop-color="#FEBD2F"/><stop offset=".249" stop-color="#F95721"/><stop offset=".503" stop-color="#FC1370"/><stop offset=".672" stop-color="#BA2DB2"/><stop offset=".776" stop-color="#8342E9"/><stop offset=".964" stop-color="#3F89FC"/></linearGradient><linearGradient id="paint6_linear" x1="65.559" y1="92.126" x2="97.89" y2="92.285" gradientUnits="userSpaceOnUse"><stop stop-color="#FEBD2F"/><stop offset=".249" stop-color="#F95721"/><stop offset=".503" stop-color="#FC1370"/><stop offset=".672" stop-color="#BA2DB2"/><stop offset=".776" stop-color="#8342E9"/><stop offset=".964" stop-color="#3F89FC"/></linearGradient></defs></svg>