<svg width="1552" height="1218" fill="none" xmlns="http://www.w3.org/2000/svg"><ellipse cx="743.496" cy="672.989" rx="643.201" ry="545.011" fill="url(#paint0_radial)"/><ellipse cx="744.763" cy="661.844" rx="459.61" ry="411.266" fill="url(#paint1_radial)"/><ellipse cx="781.485" cy="562.649" rx="316.536" ry="278.635" fill="url(#paint2_radial)"/><ellipse cx="806.806" cy="562.65" rx="253.229" ry="222.908" fill="url(#paint3_radial)"/><path d="M342.088 270.192h.331a.335.335 0 00-.048-.171l-.283.171zm-83.992 74.026l-.215.251a.33.33 0 00.533-.16l-.318-.091zm83.992-48.402l.286.167.045-.077v-.09h-.331zm-93.957 39.861h-.331v.152l.115.099.216-.251zm0-22.778l-.318-.091-.013.045v.046h.331zm85.415-56.942l.284-.17a.33.33 0 00-.57.004l.286.166zm-75.132 64.151c.892-3.121 6.591-9.725 22.459-9.725v-.662c-16.019 0-22.089 6.682-23.095 10.205l.636.182zm22.459-9.725c8.049 0 12.429-2.52 14.962-5.824 2.508-3.272 3.164-7.276 3.866-10.086l-.642-.161c-.721 2.885-1.347 6.71-3.75 9.844-2.378 3.103-6.54 5.565-14.436 5.565v.662zm18.828-15.91c.714-2.857 1.84-7.125 4.312-10.12 1.229-1.489 2.783-2.652 4.78-3.173 1.997-.522 4.472-.411 7.557.711l.226-.622c-3.179-1.156-5.793-1.293-7.951-.73-2.158.564-3.825 1.821-5.123 3.393-2.581 3.127-3.734 7.542-4.443 10.38l.642.161zm16.649-12.582c6.38 2.32 12.061.865 16.55-1.879 4.481-2.739 7.791-6.769 9.474-9.654l-.572-.333c-1.639 2.809-4.878 6.751-9.247 9.422-4.361 2.665-9.831 4.058-15.979 1.822l-.226.622zm-57.936 62.418c.44-1.539 2.059-3.613 5.591-5.309 3.525-1.693 8.93-2.992 16.868-2.992v-.662c-8.005 0-13.515 1.31-17.155 3.057-3.633 1.745-5.431 3.941-5.94 5.724l.636.182zm22.459-8.301c8.049 0 12.429-2.521 14.962-5.824 2.508-3.272 3.164-7.277 3.866-10.087l-.642-.16c-.721 2.884-1.347 6.71-3.75 9.844-2.378 3.102-6.54 5.565-14.436 5.565v.662zm18.828-15.911c.714-2.856 1.84-7.125 4.312-10.119 1.229-1.489 2.783-2.652 4.78-3.174 1.997-.521 4.472-.41 7.557.712l.226-.622c-3.179-1.156-5.793-1.294-7.951-.73-2.158.564-3.825 1.821-5.123 3.393-2.581 3.127-3.734 7.542-4.443 10.38l.642.16zm16.649-12.581c6.38 2.32 12.061.865 16.55-1.879 4.481-2.739 7.791-6.769 9.474-9.654l-.572-.333c-1.639 2.809-4.878 6.751-9.247 9.422-4.361 2.665-9.831 4.057-15.979 1.822l-.226.622zm-58.585 12.501v24.201h.662v-24.201h-.662zm83.992-49.825v25.624h.662v-25.624h-.662zm-83.446 73.775l-9.965-8.542-.431.503 9.966 8.541.43-.502zm-9.849-8.29v-22.778h-.662v22.778h.662zm-.524-22.508l9.966 7.117.384-.538-9.965-7.118-.385.539zm.511-.179c.892-3.12 6.591-9.723 22.459-9.723v-.662c-16.02 0-22.089 6.68-23.095 10.203l.636.182zm22.459-9.723c8.049 0 12.429-2.521 14.961-5.824 2.509-3.272 3.165-7.276 3.867-10.087l-.642-.16c-.721 2.884-1.347 6.71-3.75 9.844-2.378 3.102-6.54 5.565-14.436 5.565v.662zm18.828-15.911c.714-2.856 1.84-7.125 4.312-10.119 1.229-1.489 2.783-2.652 4.78-3.174 1.997-.521 4.472-.41 7.557.712l.226-.622c-3.179-1.156-5.793-1.294-7.951-.73-2.158.564-3.825 1.821-5.123 3.393-2.581 3.127-3.734 7.542-4.443 10.38l.642.16zm16.649-12.581c6.447 2.345 12.511-.972 17.316-5.479 4.816-4.518 8.466-10.317 10.131-13.172l-.572-.333c-1.656 2.839-5.267 8.571-10.012 13.022-4.757 4.461-10.557 7.551-16.637 5.34l-.226.622zm26.877-18.647l8.542 14.234.567-.341-8.541-14.234-.568.341z" fill="url(#paint4_linear)"/><path d="M346.046 609.255l.281.176a.336.336 0 00.05-.169l-.331-.007zm-138.111 22.596l-.316.098a.33.33 0 00.537.148l-.221-.246zm121.09 4.538l.154.294.079-.042.047-.076-.28-.176zm-125.968-20.202l-.281-.176-.08.129.045.145.316-.098zm15.13-24.119l-.222-.246-.034.031-.025.039.281.176zm128.27-3.559l.331.006a.331.331 0 00-.485-.299l.154.293zM224.232 606.47c3.056-2.747 13.522-5.938 30.341 4.612l.352-.56c-16.947-10.631-27.769-7.571-31.135-4.544l.442.492zm30.341 4.612c8.507 5.337 14.792 5.569 19.638 3.764 4.81-1.791 8.149-5.579 10.766-8.094l-.459-.477c-2.672 2.568-5.891 6.22-10.538 7.951-4.609 1.716-10.678 1.55-19.055-3.704l-.352.56zm30.404-4.33c2.652-2.549 6.692-6.335 11.319-7.871 2.303-.764 4.74-.966 7.22-.185 2.482.78 5.041 2.554 7.57 5.801l.523-.407c-2.591-3.326-5.255-5.196-7.894-6.026-2.641-.83-5.222-.609-7.628.189-4.79 1.59-8.931 5.486-11.569 8.022l.459.477zm26.109-2.255c5.196 6.67 12.152 8.896 18.709 8.972 6.548.076 12.716-1.989 16.405-3.92l-.307-.587c-3.612 1.892-9.673 3.919-16.09 3.845-6.407-.075-13.151-2.242-18.194-8.717l-.523.407zm-102.93 27.6c1.512-1.359 4.631-2.481 9.511-1.929 4.874.551 11.472 2.771 19.885 8.049l.352-.561c-8.47-5.313-15.163-7.58-20.162-8.146-4.993-.564-8.328.566-10.028 2.095l.442.492zm29.396 6.12c8.507 5.336 14.791 5.568 19.638 3.763 4.81-1.791 8.148-5.579 10.766-8.094l-.459-.477c-2.673 2.568-5.891 6.221-10.538 7.951-4.609 1.716-10.678 1.551-19.055-3.704l-.352.561zm30.404-4.331c2.652-2.549 6.691-6.335 11.319-7.87 2.303-.765 4.739-.967 7.22-.186 2.482.78 5.041 2.554 7.57 5.801l.522-.407c-2.59-3.325-5.254-5.196-7.894-6.026-2.64-.83-5.221-.609-7.627.189-4.79 1.59-8.931 5.486-11.569 8.022l.459.477zm26.109-2.255c5.196 6.67 12.151 8.896 18.709 8.972 6.548.076 12.716-1.989 16.405-3.92l-.308-.587c-3.611 1.892-9.672 3.919-16.089 3.845-6.407-.075-13.151-2.241-18.195-8.717l-.522.407zm-70.335-25.583l-16.075 25.627.561.352 16.075-25.627-.561-.352zm122.036 3.031l-17.021 27.135.56.351 17.022-27.134-.561-.352zm-137.515 22.674l-4.878-15.664-.632.196 4.878 15.664.632-.196zm-4.914-15.39l15.13-24.119-.561-.352-15.13 24.119.561.352zm14.544-24.169l5.824 14.156.612-.252-5.824-14.156-.612.252zm.527.12c3.056-2.747 13.521-5.937 30.34 4.614l.352-.561c-16.948-10.631-27.768-7.572-31.135-4.545l.443.492zm30.34 4.614c8.507 5.336 14.792 5.568 19.638 3.763 4.81-1.791 8.148-5.578 10.766-8.094l-.459-.477c-2.673 2.569-5.891 6.221-10.538 7.951-4.609 1.716-10.678 1.551-19.055-3.704l-.352.561zm30.404-4.331c2.652-2.549 6.691-6.335 11.319-7.87 2.303-.765 4.739-.966 7.22-.186 2.482.78 5.041 2.554 7.57 5.801l.522-.406c-2.59-3.326-5.254-5.197-7.893-6.027-2.641-.83-5.222-.609-7.628.189-4.79 1.59-8.931 5.487-11.569 8.022l.459.477zm26.109-2.255c5.24 6.727 13.821 7.249 21.894 5.67 8.089-1.582 15.797-5.294 19.455-7.21l-.307-.586c-3.642 1.907-11.281 5.583-19.275 7.146-8.008 1.567-16.245.992-21.245-5.426l-.522.406zm40.865-1.84l-.411 20.747.662.013.411-20.747-.662-.013z" fill="url(#paint5_linear)"/><path d="M199.366 551.835l.467.293a.542.542 0 00.085-.282l-.552-.011zM88.877 569.912l-.526.164a.553.553 0 00.895.246l-.369-.41zm96.872 3.63l.256.489.132-.069.079-.126-.467-.294zM84.975 557.38l-.468-.293-.135.215.076.242.527-.164zm12.104-19.295l-.37-.41-.057.052-.04.065.467.293zm102.616-2.847l.551.011a.55.55 0 00-.807-.5l.256.489zm-97.588 14.582c2.309-2.076 10.529-4.686 23.928 3.72l.587-.935c-13.614-8.54-22.425-6.148-25.253-3.605l.738.82zm23.928 3.72c6.862 4.304 11.983 4.519 15.963 3.036 3.918-1.459 6.642-4.548 8.712-6.537l-.765-.795c-2.162 2.078-4.685 4.941-8.332 6.299-3.584 1.334-8.346 1.231-14.991-2.938l-.587.935zm24.675-3.501c2.127-2.045 5.315-5.026 8.946-6.231 1.799-.597 3.685-.75 5.6-.147 1.917.603 3.919 1.98 5.916 4.544l.87-.678c-2.099-2.695-4.275-4.233-6.455-4.919-2.182-.686-4.31-.5-6.278.153-3.903 1.295-7.26 4.46-9.364 6.483l.765.795zm20.462-1.834c4.222 5.42 9.878 7.226 15.19 7.288 5.294.061 10.276-1.606 13.26-3.169l-.512-.978c-2.855 1.496-7.658 3.102-12.735 3.043-5.06-.058-10.363-1.766-14.333-6.862l-.87.678zm-81.926 22.117c1.127-1.013 3.53-1.908 7.385-1.472 3.844.435 9.081 2.19 15.787 6.397l.587-.935c-6.801-4.265-12.196-6.099-16.25-6.558-4.043-.457-6.804.451-8.246 1.747l.737.821zm23.172 4.925c6.862 4.304 11.983 4.519 15.963 3.037 3.918-1.459 6.642-4.548 8.712-6.538l-.765-.795c-2.162 2.078-4.685 4.941-8.332 6.299-3.584 1.335-8.346 1.231-14.991-2.938l-.587.935zm24.675-3.501c2.127-2.045 5.315-5.026 8.946-6.23 1.799-.597 3.685-.75 5.6-.148 1.917.603 3.919 1.981 5.916 4.544l.87-.678c-2.099-2.695-4.275-4.233-6.455-4.918-2.181-.686-4.31-.501-6.278.152-3.903 1.296-7.26 4.461-9.364 6.483l.765.795zm20.462-1.834c4.222 5.42 9.878 7.226 15.19 7.288 5.294.061 10.276-1.606 13.26-3.169l-.512-.977c-2.855 1.495-7.658 3.102-12.735 3.043-5.06-.059-10.363-1.767-14.333-6.863l-.87.678zm-56.284-20.795l-12.86 20.501.934.587 12.86-20.502-.934-.586zm97.628 2.425l-13.617 21.707.934.587 13.617-21.708-.934-.586zM89.404 569.748l-3.903-12.532-1.053.328 3.903 12.532 1.053-.328zm-3.962-12.074l12.104-19.296-.935-.586-12.104 19.295.935.587zm11.126-19.379l4.66 11.325 1.02-.42-4.66-11.325-1.02.42zm.88.2c2.31-2.076 10.527-4.685 23.927 3.721l.587-.935c-13.614-8.539-22.424-6.149-25.252-3.606l.737.82zm23.927 3.721c6.862 4.304 11.983 4.519 15.963 3.037 3.918-1.459 6.642-4.548 8.711-6.538l-.764-.795c-2.162 2.078-4.685 4.941-8.332 6.299-3.584 1.334-8.346 1.231-14.991-2.938l-.587.935zm24.674-3.501c2.128-2.045 5.316-5.026 8.947-6.231 1.798-.596 3.685-.749 5.6-.147 1.917.603 3.919 1.981 5.916 4.544l.87-.678c-2.099-2.695-4.276-4.233-6.455-4.918-2.182-.686-4.31-.501-6.278.152-3.904 1.296-7.26 4.461-9.364 6.483l.764.795zm20.463-1.834c4.296 5.515 11.309 5.91 17.797 4.641 6.512-1.274 12.708-4.259 15.641-5.795l-.511-.978c-2.907 1.523-8.989 4.448-15.342 5.69-6.379 1.248-12.819.765-16.715-4.236l-.87.678zm32.631-1.654l-.328 16.597 1.103.022.328-16.597-1.103-.022z" fill="url(#paint6_linear)"/><path d="M119.931 344.422l.28.176a.338.338 0 00.051-.169l-.331-.007zM9.441 362.498l-.315.099a.33.33 0 00.537.148l-.221-.247zm96.873 3.631l.153.293.079-.041.048-.076-.28-.176zM5.539 349.967l-.28-.176-.081.129.045.146.316-.099zm12.104-19.295l-.221-.246-.035.031-.024.039.28.176zm102.616-2.847l.331.006a.331.331 0 00-.485-.299l.154.293zm-97.735 14.418c2.413-2.169 10.75-4.736 24.193 3.697l.352-.561c-13.57-8.513-22.263-6.077-24.988-3.628l.443.492zm24.193 3.697c6.818 4.277 11.868 4.469 15.769 3.017 3.864-1.439 6.547-4.483 8.635-6.49l-.459-.477c-2.143 2.06-4.706 4.968-8.407 6.346-3.664 1.364-8.498 1.239-15.186-2.957l-.352.561zm24.404-3.473c2.123-2.041 5.345-5.058 9.03-6.281 1.833-.608 3.767-.768 5.736-.149 1.97.62 4.006 2.029 6.023 4.619l.523-.407c-2.079-2.668-4.22-4.174-6.348-4.843-2.128-.67-4.208-.491-6.142.151-3.849 1.278-7.172 4.406-9.28 6.433l.458.477zm20.79-1.811c4.171 5.355 9.757 7.142 15.018 7.203 5.251.061 10.197-1.594 13.155-3.144l-.307-.586c-2.881 1.509-7.719 3.127-12.84 3.068-5.11-.059-10.484-1.787-14.504-6.948l-.523.407zM9.662 362.745c1.19-1.07 3.664-1.967 7.557-1.527 3.886.44 9.155 2.21 15.88 6.429l.352-.561c-6.782-4.254-12.145-6.072-16.157-6.526-4.006-.453-6.695.453-8.074 1.692l.442.493zm23.437 4.902c6.818 4.277 11.868 4.469 15.769 3.017 3.864-1.439 6.547-4.483 8.635-6.49l-.459-.477c-2.143 2.06-4.706 4.968-8.407 6.346-3.664 1.365-8.498 1.239-15.186-2.957l-.352.561zm24.404-3.473c2.123-2.04 5.345-5.058 9.03-6.281 1.833-.608 3.767-.768 5.736-.148 1.97.619 4.006 2.029 6.024 4.618l.522-.406c-2.079-2.669-4.22-4.175-6.348-4.844-2.128-.669-4.208-.49-6.142.152-3.849 1.277-7.172 4.405-9.28 6.432l.458.477zm20.79-1.811c4.171 5.356 9.757 7.142 15.018 7.203 5.251.061 10.197-1.594 13.155-3.144l-.307-.586c-2.881 1.509-7.72 3.128-12.84 3.068-5.11-.059-10.484-1.787-14.504-6.947l-.522.406zm-56.272-20.542l-12.86 20.502.56.351 12.86-20.501-.56-.352zm97.628 2.425l-13.617 21.707.561.352 13.617-21.707-.561-.352zM9.758 362.4l-3.903-12.531-.632.197 3.903 12.531.632-.197zm-3.939-12.257l12.104-19.295-.56-.352-12.104 19.295.56.352zm11.518-19.345l4.66 11.325.611-.252-4.659-11.325-.612.252zm.527.12c2.414-2.169 10.75-4.735 24.193 3.698l.352-.561c-13.571-8.513-22.263-6.078-24.987-3.629l.442.492zm24.193 3.698c6.818 4.277 11.868 4.469 15.769 3.017 3.864-1.439 6.547-4.483 8.635-6.49l-.459-.477c-2.143 2.06-4.706 4.968-8.407 6.346-3.664 1.365-8.498 1.239-15.186-2.957l-.352.561zm24.404-3.473c2.123-2.04 5.345-5.058 9.03-6.281 1.832-.608 3.767-.768 5.736-.148 1.97.619 4.006 2.029 6.023 4.618l.523-.407c-2.079-2.668-4.22-4.174-6.348-4.843-2.128-.669-4.208-.49-6.142.152-3.85 1.277-7.172 4.405-9.28 6.432l.458.477zm20.79-1.811c4.215 5.413 11.114 5.825 17.58 4.56 6.481-1.267 12.654-4.24 15.582-5.774l-.308-.586c-2.911 1.525-9.016 4.462-15.401 5.711-6.4 1.251-12.956.786-16.931-4.318l-.523.407zm32.677-1.514l-.328 16.597.662.014.328-16.598-.662-.013z" fill="url(#paint7_linear)"/><path d="M343.512 35.446h.331a.33.33 0 00-.047-.17l-.284.17zm-104.99 92.533l-.215.251a.333.333 0 00.534-.16l-.319-.091zm104.99-60.503l.286.167.045-.077v-.09h-.331zm-117.446 49.826h-.331v.152l.116.099.215-.251zm0-28.472l-.318-.09-.013.044v.046h.331zm106.769-71.177l.284-.17a.331.331 0 00-.57.003l.286.167zm-93.994 80.165c1.128-3.95 8.298-12.216 28.153-12.216v-.662c-20.006 0-27.546 8.343-28.79 12.696l.637.182zm28.153-12.216c10.042 0 15.489-3.143 18.636-7.248 3.122-4.072 3.938-9.055 4.818-12.577l-.642-.16c-.899 3.596-1.685 8.4-4.701 12.335-2.993 3.903-8.222 6.988-18.111 6.988v.662zm23.454-19.825c.893-3.569 2.303-8.923 5.407-12.682 1.545-1.872 3.501-3.337 6.017-3.995 2.517-.657 5.628-.514 9.496.892l.226-.622c-3.962-1.44-7.212-1.61-9.889-.91-2.678.7-4.747 2.259-6.361 4.213-3.213 3.893-4.65 9.394-5.538 12.943l.642.16zm20.92-15.785c7.946 2.89 15.021 1.079 20.616-2.342 5.587-3.415 9.716-8.441 11.814-12.038l-.572-.333c-2.054 3.521-6.111 8.46-11.587 11.806-5.467 3.342-12.331 5.09-20.045 2.285l-.226.622zm-72.527 78.078c.558-1.954 2.604-4.563 7.031-6.688 4.422-2.123 11.19-3.749 21.122-3.749v-.662c-9.998 0-16.872 1.636-21.408 3.814-4.529 2.174-6.754 4.905-7.382 7.103l.637.182zm28.153-10.437c10.042 0 15.489-3.143 18.636-7.248 3.122-4.072 3.938-9.055 4.818-12.577l-.642-.16c-.899 3.595-1.685 8.4-4.701 12.335-2.993 3.903-8.222 6.988-18.111 6.988v.662zm23.454-19.825c.893-3.569 2.303-8.923 5.407-12.682 1.545-1.872 3.501-3.337 6.017-3.995 2.517-.657 5.628-.514 9.496.892l.226-.622c-3.962-1.44-7.212-1.61-9.889-.91-2.678.7-4.747 2.259-6.361 4.213-3.213 3.893-4.65 9.394-5.538 12.943l.642.16zm20.92-15.785c7.946 2.89 15.021 1.079 20.616-2.342 5.587-3.415 9.716-8.441 11.814-12.038l-.572-.333c-2.054 3.521-6.111 8.46-11.587 11.806-5.467 3.342-12.331 5.09-20.045 2.285l-.226.622zm-73.177 15.704v30.252h.662V97.727h-.662zm104.99-62.282v32.031h.662v-32.03h-.662zm-104.443 92.282l-12.457-10.677-.43.503 12.456 10.677.431-.503zm-12.341-10.425V88.83h-.662v28.472h.662zm-.523-28.203l12.456 8.897.385-.538-12.457-8.897-.384.538zm.51-.178c1.129-3.951 8.299-12.214 28.154-12.214v-.662c-20.006 0-27.547 8.34-28.79 12.694l.636.182zm28.154-12.214c10.041 0 15.489-3.143 18.636-7.248 3.122-4.073 3.938-9.056 4.818-12.578l-.642-.16c-.899 3.596-1.685 8.4-4.702 12.335-2.992 3.904-8.222 6.989-18.11 6.989v.662zm23.454-19.825c.892-3.57 2.302-8.923 5.406-12.682 1.545-1.872 3.502-3.338 6.018-3.995 2.517-.657 5.628-.515 9.496.892l.226-.622c-3.962-1.44-7.213-1.61-9.89-.91-2.677.7-4.747 2.259-6.36 4.213-3.214 3.892-4.651 9.394-5.538 12.943l.642.16zm20.92-15.785c8.013 2.914 15.559-1.204 21.56-6.832 6.011-5.639 10.568-12.879 12.649-16.446l-.572-.333c-2.071 3.55-6.59 10.724-12.53 16.296-5.952 5.583-13.235 9.473-20.881 6.693l-.226.622zm33.639-23.274l10.677 17.793.568-.34-10.677-17.794-.568.34z" fill="url(#paint8_linear)"/><path d="M351.507 410.413c0 26.642-20.612 48.213-46.006 48.213-25.395 0-46.006-21.571-46.006-48.213 0-26.641 20.611-48.212 46.006-48.212 25.394 0 46.006 21.571 46.006 48.212z" stroke="url(#paint9_linear)" stroke-width=".662"/><path d="M223.859 273.608h.331a.327.327 0 00-.047-.17l-.284.17zm-65.092 57.369l-.216.252a.331.331 0 00.534-.161l-.318-.091zm65.092-37.51l.286.166.045-.077v-.089h-.331zm-72.815 30.891h-.331v.152l.116.099.215-.251zm0-17.652l-.318-.091-.013.044v.047h.331zm66.196-44.13l.283-.17a.332.332 0 00-.285-.161.333.333 0 00-.284.165l.286.166zm-58.155 49.737c.678-2.373 5.053-7.483 17.334-7.483v-.662c-12.432 0-17.178 5.187-17.97 7.963l.636.182zm17.334-7.483c6.255 0 9.674-1.96 11.654-4.543 1.956-2.551 2.467-5.674 3.009-7.844l-.642-.16c-.561 2.244-1.042 5.188-2.893 7.602-1.826 2.381-5.026 4.283-11.128 4.283v.662zm14.663-12.387c.554-2.216 1.424-5.507 3.327-7.813.945-1.144 2.137-2.035 3.666-2.435 1.53-.399 3.432-.316 5.812.55l.227-.622c-2.475-.9-4.517-1.009-6.207-.568-1.691.442-2.995 1.426-4.008 2.654-2.013 2.438-2.91 5.877-3.459 8.074l.642.16zm12.805-9.698c4.971 1.807 9.397.673 12.891-1.463 3.485-2.13 6.058-5.263 7.367-7.507l-.572-.334c-1.265 2.169-3.767 5.214-7.14 7.276-3.365 2.057-7.581 3.129-12.319 1.406l-.227.622zm-44.802 48.323c.333-1.165 1.568-2.759 4.293-4.067 2.719-1.306 6.896-2.312 13.041-2.312v-.662c-6.212 0-10.493 1.016-13.327 2.377-2.828 1.357-4.241 3.073-4.643 4.482l.636.182zm17.334-6.379c6.255 0 9.674-1.96 11.654-4.543 1.956-2.551 2.467-5.674 3.009-7.844l-.642-.16c-.561 2.243-1.042 5.188-2.893 7.601-1.826 2.382-5.026 4.284-11.128 4.284v.662zm14.663-12.387c.554-2.216 1.424-5.507 3.327-7.813.945-1.144 2.137-2.035 3.666-2.435 1.53-.399 3.432-.316 5.812.55l.227-.622c-2.475-.9-4.517-1.01-6.207-.568-1.691.442-2.995 1.426-4.008 2.654-2.013 2.438-2.91 5.877-3.459 8.074l.642.16zm12.805-9.698c4.971 1.807 9.397.672 12.891-1.463 3.485-2.13 6.058-5.264 7.367-7.508l-.572-.333c-1.265 2.169-3.767 5.214-7.14 7.276-3.365 2.057-7.581 3.129-12.319 1.406l-.227.622zm-45.451 9.618v18.755h.662v-18.755h-.662zm65.092-38.614v19.859h.662v-19.859h-.662zm-64.546 57.118l-7.723-6.619-.43.502 7.722 6.62.431-.503zm-7.607-6.368v-17.652h-.662v17.652h.662zm-.523-17.383l7.722 5.516.385-.539-7.723-5.516-.384.539zm.51-.178c.678-2.374 5.053-7.482 17.334-7.482v-.662c-12.432 0-17.177 5.186-17.97 7.962l.636.182zm17.334-7.482c6.255 0 9.674-1.96 11.654-4.543 1.956-2.551 2.467-5.674 3.01-7.844l-.643-.16c-.561 2.244-1.042 5.188-2.892 7.602-1.826 2.381-5.027 4.283-11.129 4.283v.662zm14.664-12.387c.554-2.216 1.423-5.507 3.326-7.813.945-1.144 2.137-2.035 3.666-2.435 1.53-.399 3.432-.316 5.813.55l.226-.622c-2.474-.9-4.516-1.009-6.206-.568-1.691.442-2.996 1.426-4.009 2.654-2.013 2.438-2.909 5.877-3.459 8.074l.643.16zm12.805-9.698c5.038 1.832 9.766-.764 13.495-4.262 3.741-3.509 6.574-8.01 7.865-10.225l-.571-.333c-1.283 2.198-4.077 6.633-7.746 10.075-3.681 3.453-8.147 5.821-12.817 4.123l-.226.622zm20.791-14.483l6.619 11.031.568-.34-6.62-11.032-.567.341z" fill="url(#paint10_linear)"/><g filter="url(#filter0_b)"><path d="M144.295 240.511c0 12.018-9.296 21.734-20.731 21.734-11.435 0-20.731-9.716-20.731-21.734 0-12.018 9.296-21.734 20.731-21.734 11.435 0 20.731 9.716 20.731 21.734z" stroke="url(#paint11_linear)" stroke-width=".662"/></g><g filter="url(#filter1_b)"><path d="M100.165 458.957c0 12.018-9.296 21.734-20.732 21.734-11.435 0-20.73-9.716-20.73-21.734 0-12.018 9.295-21.734 20.73-21.734 11.436 0 20.732 9.716 20.732 21.734z" stroke="url(#paint12_linear)" stroke-width=".662"/></g><path d="M276.13 194.098c3.149-3.149 4.213-8.037 2.3-12.344a11.129 11.129 0 00-7.78-6.33c-8.682-1.891-15.942-4.428-22.062-7.713l-.851-.457.392.883 23.145 52.084c3.135 7.054-.054 15.345-7.109 18.48s-15.345-.054-18.48-7.109.054-15.345 7.109-18.48a13.912 13.912 0 017.161-1.122l.572.062-.234-.525-22.802-51.312-2.011-4.526c.839-.117 2.006-.109 3.198-.022 1.361.099 2.712.299 3.57.508l6.244 3.955s0 0 0 0c6.181 3.915 13.886 6.836 23.542 8.938a17.659 17.659 0 0112.339 10.044c.985 2.217 1.282 4.1 1.06 5.737-.221 1.635-.965 3.055-2.117 4.338-1.679 1.869-4.205 3.43-7.186 4.911z" stroke="url(#paint13_linear)" stroke-width=".662"/><path d="M277.014 500.546c-3.278-2.474-7.795-3.074-11.74-1.168a11.352 11.352 0 00-6.199 8.137c-1.609 8.723-3.907 16.04-6.984 22.24l-.715 1.442 1.45-.701 51.316-24.8c6.841-3.306 15.098-.43 18.404 6.411 3.306 6.841.43 15.098-6.411 18.404-6.841 3.306-15.098.43-18.404-6.411a13.693 13.693 0 01-1.329-7.01l.072-.955-.862.417-50.556 24.433-4.189 2.025c-.102-.781-.121-1.802-.078-2.858.055-1.338.206-2.663.382-3.513l3.734-6.336s0 0 0 0c3.732-6.331 6.412-14.152 8.207-23.888a17.439 17.439 0 019.524-12.495c2.156-1.043 3.988-1.387 5.581-1.223 1.589.164 2.991.84 4.283 1.927 1.664 1.401 3.12 3.46 4.514 5.922z" stroke="url(#paint14_linear)" stroke-width="1.103"/><path d="M229.868 367.968h.014c.658.009 1.829.084 2.849.149l.82.052-.13.435a2865.06 2865.06 0 01-.886 2.974l-16.307 54.746c-2.029 6.811-9.222 10.702-16.033 8.673-6.81-2.029-10.702-9.222-8.673-16.032 2.029-6.811 9.222-10.702 16.033-8.673a12.794 12.794 0 015.68 3.501l.657.697.273-.918 7.881-26.458.209-.699-.73-.01-42.367-.58-.417-.006-.119.4-11.746 39.428c-2.028 6.811-9.221 10.702-16.032 8.674-6.811-2.029-10.702-9.222-8.673-16.033 2.029-6.811 9.222-10.702 16.032-8.673a12.811 12.811 0 015.681 3.501l.657.697.273-.917 12.987-43.598.997-3.347 51.07 2.017z" stroke="url(#paint15_linear)" stroke-width="1.103"/><path d="M1416.66 350.326a1.1 1.1 0 001.52.338c.51-.328.67-1.01.34-1.524l-1.86 1.186zm-61.73-33.002l-.28 1.069.07.017.06.008.15-1.094zm-81.87-42.351l.9-.642-.01-.016-.02-.015-.87.673zm145.46 74.167c-8.62-13.516-24.58-21.723-38.2-26.548-6.84-2.421-13.14-4.01-17.74-4.994-2.29-.492-4.17-.833-5.47-1.051a90.49 90.49 0 00-1.5-.24l-.4-.057-.1-.014-.03-.004-.01-.001-.14 1.093-.15 1.094.01.001.02.003.1.013c.08.012.21.03.37.055.34.049.83.126 1.47.233 1.27.213 3.11.548 5.37 1.033 4.53.969 10.74 2.534 17.46 4.916 13.5 4.781 28.87 12.779 37.08 25.654l1.86-1.186zm-63.59-31.816l.27-1.069-.01-.002a9.708 9.708 0 01-.17-.043c-.11-.031-.29-.077-.52-.139-.47-.124-1.15-.309-2.03-.554-1.75-.49-4.28-1.219-7.37-2.177-6.19-1.916-14.64-4.742-23.66-8.383-9.03-3.642-18.62-8.092-27.1-13.249-8.5-5.166-15.82-10.998-20.38-17.377l-1.8 1.284c4.82 6.729 12.42 12.746 21.03 17.978 8.62 5.242 18.33 9.742 27.42 13.41 9.1 3.67 17.61 6.516 23.84 8.445 3.11.964 5.66 1.7 7.43 2.195a243.033 243.033 0 002.59.702l.13.036.04.009.01.002v.001l.28-1.069zm-81-43.024c-45.5-59.086-96.03-68.966-162.8-84.303l-.5 2.151c66.84 15.353 116.59 25.116 161.56 83.498l1.74-1.346z" fill="url(#paint16_linear)"/><path d="M1472.43 319.078l-27.26-15.682m40.35-3.956l-18.29-9.283" stroke="url(#paint17_linear)" stroke-width="2.207"/><path d="M1472.43 319.078l-27.26-15.682m40.35-3.956l-18.29-9.283" stroke="url(#paint18_linear)" stroke-width="2.207"/><path d="M1485.52 299.44l-18.29-9.283" stroke="url(#paint19_linear)" stroke-width="2.207"/><path d="M1434.36 269.195c-16.82-26.391-63.49-32.846-63.49-32.846s-49.27-9.077-70.23-37.282c-56.16-68.867-95.37-68.556-162.18-83.9" stroke="url(#paint20_linear)" stroke-width="2.207"/><path d="M1498.3 233.381a1.1 1.1 0 001.52.337c.52-.327.67-1.009.34-1.523l-1.86 1.186zm-63.94-34.314l.17-1.091-.05-.008-.06-.003-.06 1.102zm65.8 33.128c-8.61-13.518-25.13-22.052-39.29-27.201-7.11-2.585-13.69-4.338-18.49-5.445-2.4-.553-4.36-.946-5.72-1.2-.68-.128-1.21-.22-1.57-.281l-.41-.069a2.449 2.449 0 01-.11-.017l-.03-.004-.01-.002-.17 1.091-.16 1.09v.001l.03.004.1.016.39.065c.35.059.87.15 1.54.275 1.33.249 3.26.635 5.62 1.181 4.74 1.093 11.23 2.822 18.23 5.368 14.07 5.114 29.99 13.44 38.19 26.314l1.86-1.186zm-65.8-33.128l.06-1.102-.02-.002-.1-.006a50.598 50.598 0 01-1.89-.176 90.768 90.768 0 01-5.68-.826c-4.87-.855-11.74-2.406-19.7-5.192-15.92-5.572-36.21-16.07-53.71-35.781l-1.65 1.465c17.81 20.06 38.45 30.737 54.63 36.399 8.1 2.831 15.08 4.41 20.04 5.282 2.49.436 4.47.696 5.83.847.68.075 1.21.123 1.57.152l.41.032.11.007.03.002h.01l.06-1.101zm-81.04-43.085c-35.52-40.009-95.84-68.871-162.76-84.242l-.49 2.15c66.69 15.319 126.51 44.028 161.6 83.557l1.65-1.465z" fill="url(#paint21_linear)"/><path d="M1434.36 328.13l-.93.593a1.11 1.11 0 002.04-.593h-1.11zm0-58.935h1.11v-.321l-.18-.271-.93.592zm-63.49-32.846l-.21 1.082.03.006.03.005.15-1.093zm-70.23-37.282l.91-.628-.03-.036-.02-.034-.86.698zm59.58 93.297l-.22 1.081.02.004.02.004.18-1.089zm-77.24-38.665l.92-.612-.03-.044-.03-.042-.86.698zm152.31 14.904c-8.61-13.518-24.78-21.834-38.61-26.767-6.94-2.476-13.35-4.119-18.02-5.144-2.33-.512-4.24-.871-5.56-1.101a81.49 81.49 0 00-1.94-.314l-.1-.016-.03-.003-.01-.001v-.001l-.15 1.093-.15 1.093.01.001.02.003.09.014c.09.012.22.032.39.058.34.053.84.134 1.49.247 1.29.225 3.17.578 5.47 1.083 4.61 1.01 10.92 2.63 17.75 5.067 13.71 4.892 29.29 12.999 37.49 25.873l1.86-1.185zm-64.42-32.254l.21-1.082v-.002a.313.313 0 01-.03-.005l-.11-.022-.42-.089c-.38-.08-.94-.202-1.65-.366-1.43-.328-3.5-.829-6.05-1.514-5.09-1.37-12.07-3.478-19.63-6.426-15.18-5.918-32.46-15.14-41.64-28.404l-1.82 1.256c9.58 13.837 27.41 23.256 42.66 29.204 7.65 2.984 14.71 5.116 19.86 6.501 2.57.693 4.67 1.2 6.13 1.534.72.167 1.29.291 1.68.373l.44.093.12.023.02.006.01.002h.01l.21-1.082zm-69.37-37.98c-28.17-34.543-52.16-51.81-77.53-62.342-25.29-10.496-51.98-14.291-85.26-21.936l-.49 2.151c33.52 7.7 59.84 11.422 84.9 21.823 24.97 10.365 48.68 27.376 76.67 61.699l1.71-1.395zm133.79 129.168c-4.33-6.801-11.23-12.443-19.04-17.078-7.83-4.642-16.65-8.316-24.91-11.152-8.26-2.838-15.99-4.844-21.66-6.141-2.83-.649-5.15-1.121-6.76-1.431-.8-.155-1.43-.27-1.86-.346l-.49-.085-.13-.021-.03-.006-.01-.001v-.001l-.18 1.089-.18 1.089.01.001a1.761 1.761 0 00.15.025l.47.083c.42.074 1.04.187 1.83.34 1.59.306 3.89.772 6.69 1.415 5.61 1.285 13.26 3.271 21.44 6.077 8.17 2.806 16.84 6.424 24.49 10.962 7.66 4.545 14.24 9.972 18.31 16.367l1.86-1.186zm-75.07-35.173l.22-1.081-.01-.002a.16.16 0 01-.03-.006l-.13-.026-.49-.106c-.44-.094-1.08-.237-1.91-.427-1.65-.382-4.04-.956-6.96-1.729-5.83-1.546-13.8-3.882-22.3-7.041-8.52-3.161-17.55-7.138-25.54-11.958-8-4.828-14.88-10.46-19.17-16.901l-1.83 1.223c4.54 6.823 11.73 12.658 19.86 17.567 8.15 4.916 17.32 8.948 25.91 12.137 8.59 3.191 16.63 5.547 22.51 7.106 2.94.779 5.35 1.36 7.02 1.746.84.193 1.5.337 1.94.434a32.078 32.078 0 00.64.136c.02.003.03.005.03.007l.01.001.01.001.22-1.081zm-76.38-39.363c-28.17-34.544-52.15-51.81-77.53-62.342-25.29-10.496-51.98-14.291-85.26-21.936l-.49 2.151c33.52 7.7 59.84 11.422 84.9 21.823 24.98 10.365 48.68 27.376 76.67 61.699l1.71-1.395zm149.42 16.194v58.935h2.21v-58.935h-2.21z" fill="url(#paint22_linear)"/><mask id="a" fill="#fff"><path fill-rule="evenodd" clip-rule="evenodd" d="M1446.35 343.298c0 9.038-7.33 16.365-16.37 16.365-9.04 0-14.6-7.327-14.6-16.365 0-9.038 5.52-16.037 17.87-16.037v-57.277l67.08-38.299v70.608c1.64 19.638-6.62 26.479-16.55 25.375-9.93-1.103-12.89-4.461-12.89-13.499s5.69-14.728 14.73-14.728v-18.002l-39.27 22.911v38.948zm-1.18-68.586v17.652l42.09-24.016v-19.011l-42.09 25.375z"/></mask><path fill-rule="evenodd" clip-rule="evenodd" d="M1446.35 343.298c0 9.038-7.33 16.365-16.37 16.365-9.04 0-14.6-7.327-14.6-16.365 0-9.038 5.52-16.037 17.87-16.037v-57.277l67.08-38.299v70.608c1.64 19.638-6.62 26.479-16.55 25.375-9.93-1.103-12.89-4.461-12.89-13.499s5.69-14.728 14.73-14.728v-18.002l-39.27 22.911v38.948zm-1.18-68.586v17.652l42.09-24.016v-19.011l-42.09 25.375z" fill="url(#paint23_linear)" fill-opacity=".2"/><path d="M1433.25 327.261v2.206h2.21v-2.206h-2.21zm0-57.277l-1.09-1.916-1.11.635v1.281h2.2zm67.08-38.299h2.21v-3.801l-3.3 1.884 1.09 1.917zm0 70.608h-2.2v.184l2.2-.184zm-16.55 25.375l.25-2.193-.25 2.193zm1.84-28.227v2.206h2.21v-2.206h-2.21zm0-18.002h2.21v-3.841l-3.32 1.935 1.11 1.906zm-39.27 22.911l-1.12-1.906-1.09.639v1.267h2.21zm-1.18-11.986h-2.21v3.8l3.3-1.883-1.09-1.917zm0-17.652l-1.14-1.889-1.07.643v1.246h2.21zm42.09-6.364l1.09 1.917 1.12-.635v-1.282h-2.21zm0-19.011h2.21v-3.906l-3.35 2.017 1.14 1.889zm-57.28 112.533c10.26 0 18.57-8.315 18.57-18.572h-4.41c0 7.82-6.34 14.158-14.16 14.158v4.414zm-16.81-18.572c0 4.958 1.53 9.581 4.44 13.002 2.94 3.454 7.21 5.57 12.37 5.57v-4.414c-3.87 0-6.91-1.548-9.01-4.016-2.13-2.502-3.38-6.062-3.38-10.142h-4.42zm20.08-18.244c-6.59 0-11.67 1.875-15.11 5.264-3.44 3.387-4.97 8.016-4.97 12.98h4.42c0-4.073 1.23-7.463 3.64-9.836 2.41-2.37 6.26-3.995 12.02-3.995v-4.413zm-2.2-55.07v57.277h4.41v-57.277h-4.41zm68.19-40.216l-67.08 38.3 2.19 3.832 67.08-38.299-2.19-3.833zm3.3 72.525v-70.608h-4.41v70.608h4.41zm-19 27.568c5.56.618 10.94-.996 14.6-5.756 3.58-4.648 5.23-11.916 4.39-21.995l-4.4.367c.8 9.558-.86 15.529-3.48 18.935-2.54 3.294-6.26 4.548-10.62 4.063l-.49 4.386zm-14.85-15.692c0 4.67.74 8.496 3.32 11.237 2.54 2.707 6.45 3.891 11.53 4.455l.49-4.386c-4.85-.539-7.39-1.586-8.81-3.092-1.38-1.474-2.12-3.846-2.12-8.214h-4.41zm16.93-16.935c-4.99 0-9.27 1.58-12.31 4.621-3.04 3.042-4.62 7.325-4.62 12.314h4.41c0-4.05 1.27-7.13 3.33-9.193 2.06-2.064 5.14-3.329 9.19-3.329v-4.413zm-2.2-15.795v18.002h4.41v-18.002h-4.41zm-35.96 24.817l39.27-22.911-2.22-3.812-39.28 22.911 2.23 3.812zm1.09 37.042V304.35h-4.41v38.948h4.41zm-1.17-50.934v-17.652h-4.42v17.652h4.42zm38.79-25.932l-42.09 24.016 2.18 3.833 42.09-24.016-2.18-3.833zm-1.12-17.095v19.011h4.42v-19.011h-4.42zm-38.74 27.265l42.09-25.375-2.28-3.779-42.09 25.375 2.28 3.779z" fill="url(#paint24_linear)" mask="url(#a)"/><path d="M1429.9 577.598a1.1 1.1 0 001.52.337c.51-.327.67-1.009.34-1.523l-1.86 1.186zm-61.73-33.002l-.28 1.069.07.016.06.009.15-1.094zm-81.87-42.352l.9-.642-.01-.016-.01-.015-.88.673zm145.46 74.168c-8.61-13.517-24.58-21.723-38.2-26.548-6.84-2.422-13.14-4.011-17.74-4.994-2.29-.492-4.17-.834-5.47-1.052a88.29 88.29 0 00-1.5-.239c-.17-.026-.31-.045-.4-.058l-.1-.014-.03-.004-.01-.001-.14 1.094-.15 1.094.01.001.02.003.1.013a77.251 77.251 0 011.84.287c1.27.214 3.11.549 5.37 1.033 4.53.97 10.74 2.535 17.46 4.917 13.5 4.781 28.87 12.779 37.08 25.654l1.86-1.186zm-63.59-31.816l.27-1.069v-.001l-.01-.002a.111.111 0 01-.03-.008l-.14-.035-.52-.139c-.46-.123-1.15-.308-2.02-.553-1.76-.49-4.29-1.22-7.38-2.178-6.19-1.916-14.63-4.742-23.66-8.383-9.03-3.642-18.62-8.091-27.1-13.249-8.5-5.166-15.82-10.998-20.38-17.377l-1.8 1.284c4.82 6.73 12.42 12.746 21.03 17.979 8.62 5.241 18.33 9.741 27.42 13.41 9.1 3.67 17.61 6.516 23.84 8.444 3.11.965 5.66 1.7 7.43 2.195a209.59 209.59 0 002.59.702c.06.016.1.028.14.036l.03.009.01.003v.001l.28-1.069zm-80.99-43.025c-45.51-59.086-96.04-68.966-162.81-84.302l-.5 2.15c66.84 15.353 116.59 25.117 161.56 83.498l1.75-1.346z" fill="url(#paint25_linear)"/><path d="M1485.67 546.349l-27.26-15.681m40.35-3.957l-18.29-9.282" stroke="url(#paint26_linear)" stroke-width="2.207"/><path d="M1485.67 546.349l-27.26-15.681m40.35-3.957l-18.29-9.282" stroke="url(#paint27_linear)" stroke-width="2.207"/><path d="M1498.76 526.711l-18.28-9.282" stroke="url(#paint28_linear)" stroke-width="2.207"/><path d="M1447.6 496.467c-16.81-26.392-63.49-32.847-63.49-32.847s-49.27-9.077-70.23-37.282c-56.16-68.867-95.37-68.555-162.18-83.9" stroke="url(#paint29_linear)" stroke-width="2.207"/><path d="M1511.54 460.652c.33.514 1.01.665 1.52.338.52-.328.67-1.01.34-1.524l-1.86 1.186zm-63.94-34.314l.17-1.091-.05-.008-.06-.002-.06 1.101zm65.8 33.128c-8.61-13.518-25.13-22.052-39.29-27.201-7.11-2.585-13.69-4.338-18.49-5.444-2.4-.554-4.36-.946-5.72-1.201-.68-.127-1.21-.22-1.57-.281-.18-.031-.32-.053-.41-.068l-.11-.017-.03-.005-.01-.001-.17 1.09-.16 1.091v.001l.03.004.1.015c.08.014.22.036.39.066.35.059.87.149 1.54.274 1.33.25 3.26.636 5.63 1.182 4.73 1.092 11.22 2.821 18.22 5.368 14.07 5.113 29.99 13.44 38.19 26.313l1.86-1.186zm-65.8-33.128l.06-1.101v-.001l-.02-.001-.1-.006c-.08-.006-.21-.015-.38-.029-.34-.028-.85-.074-1.51-.147a90.768 90.768 0 01-5.68-.826c-4.87-.855-11.73-2.407-19.7-5.193-15.92-5.571-36.21-16.07-53.71-35.78l-1.65 1.465c17.81 20.059 38.45 30.736 54.64 36.398 8.09 2.831 15.07 4.411 20.04 5.283 2.48.436 4.46.695 5.82.846a54.927 54.927 0 001.98.184l.11.007.03.002h.01v.001l.06-1.102zm-81.04-43.084c-35.52-40.01-95.84-68.872-162.76-84.243l-.49 2.151c66.69 15.318 126.51 44.027 161.6 83.557l1.65-1.465z" fill="url(#paint30_linear)"/><path d="M1447.6 555.401l-.93.593a1.108 1.108 0 002.04-.593h-1.11zm0-58.934h1.11v-.322l-.18-.271-.93.593zm-63.49-32.847l-.21 1.083.03.006.03.004.15-1.093zm-70.23-37.282l.91-.628-.03-.035-.02-.034-.86.697zm59.58 93.297l-.22 1.082.02.004.02.003.18-1.089zm-77.23-38.665l.91-.611-.03-.045-.03-.041-.85.697zm152.3 14.904c-8.61-13.518-24.78-21.833-38.61-26.766-6.94-2.476-13.35-4.12-18.02-5.144-2.33-.513-4.24-.871-5.56-1.102a90.816 90.816 0 00-1.93-.314l-.11-.015a.308.308 0 00-.03-.004v-.001h-.01l-.15 1.092-.15 1.093.01.001.02.003.1.014.38.059c.34.052.84.133 1.49.246 1.3.226 3.17.578 5.47 1.083 4.61 1.01 10.92 2.63 17.75 5.067 13.71 4.892 29.29 13 37.49 25.874l1.86-1.186zm-64.42-32.254c.22-1.082.22-1.082.21-1.082v-.001l-.03-.006a5.61 5.61 0 00-.11-.021l-.42-.09c-.38-.08-.93-.201-1.65-.365-1.43-.329-3.5-.829-6.05-1.514-5.09-1.37-12.07-3.478-19.63-6.426-15.17-5.919-32.46-15.141-41.64-28.405l-1.82 1.256c9.58 13.838 27.41 23.257 42.66 29.204 7.65 2.985 14.71 5.116 19.86 6.502 2.57.692 4.67 1.199 6.13 1.533a93.906 93.906 0 002.12.466l.12.023a.16.16 0 00.03.006v.002h.01l.21-1.082zm-69.37-37.979c-28.17-34.544-52.16-51.81-77.53-62.343-25.29-10.496-51.98-14.29-85.26-21.935l-.49 2.15c33.52 7.7 59.84 11.422 84.9 21.823 24.97 10.365 48.68 27.376 76.67 61.699l1.71-1.394zm133.79 129.167c-4.33-6.8-11.23-12.442-19.04-17.078-7.83-4.641-16.65-8.316-24.91-11.152-8.26-2.837-15.99-4.844-21.66-6.141-2.83-.649-5.15-1.121-6.76-1.431-.8-.155-1.43-.269-1.86-.345l-.49-.085-.13-.022-.03-.005-.01-.002-.18 1.088-.18 1.089v.001l.01.001.03.005.12.02.47.083c.42.074 1.04.186 1.84.339 1.58.306 3.88.773 6.68 1.415 5.61 1.285 13.27 3.272 21.44 6.077 8.17 2.807 16.84 6.424 24.49 10.963 7.66 4.545 14.24 9.971 18.31 16.366l1.86-1.186zm-75.07-35.173l.22-1.081-.01-.001a.325.325 0 01-.03-.007l-.13-.026-.49-.106c-.44-.094-1.08-.236-1.91-.427-1.65-.381-4.04-.956-6.95-1.729-5.84-1.546-13.8-3.881-22.31-7.041-8.52-3.161-17.55-7.137-25.54-11.958-8-4.828-14.88-10.459-19.17-16.9l-1.83 1.222c4.54 6.824 11.73 12.658 19.86 17.567 8.15 4.916 17.32 8.948 25.91 12.138 8.59 3.19 16.63 5.547 22.51 7.105a218.192 218.192 0 008.96 2.18l.51.109.13.027.04.007v.002h.01l.22-1.081zm-76.38-39.362c-28.17-34.544-52.15-51.811-77.53-62.343-25.29-10.496-51.98-14.29-85.26-21.935l-.49 2.15c33.52 7.7 59.84 11.422 84.91 21.823 24.97 10.365 48.67 27.376 76.66 61.699l1.71-1.394zm149.42 16.194v58.934h2.21v-58.934h-2.21z" fill="url(#paint31_linear)"/><mask id="b" fill="#fff"><path fill-rule="evenodd" clip-rule="evenodd" d="M1459.59 570.57c0 9.038-7.33 16.364-16.37 16.364-9.04 0-14.6-7.326-14.6-16.364s5.52-16.038 17.88-16.038v-57.277l67.07-38.299v70.609c1.64 19.638-6.62 26.478-16.55 25.375-9.93-1.104-12.89-4.462-12.89-13.5s5.69-14.728 14.73-14.728v-18.001l-39.27 22.911v38.948zm-1.18-68.587v17.652l42.09-24.016v-19.011l-42.09 25.375z"/></mask><path fill-rule="evenodd" clip-rule="evenodd" d="M1459.59 570.57c0 9.038-7.33 16.364-16.37 16.364-9.04 0-14.6-7.326-14.6-16.364s5.52-16.038 17.88-16.038v-57.277l67.07-38.299v70.609c1.64 19.638-6.62 26.478-16.55 25.375-9.93-1.104-12.89-4.462-12.89-13.5s5.69-14.728 14.73-14.728v-18.001l-39.27 22.911v38.948zm-1.18-68.587v17.652l42.09-24.016v-19.011l-42.09 25.375z" fill="url(#paint32_linear)" fill-opacity=".2"/><path d="M1446.5 554.532v2.207h2.2v-2.207h-2.2zm0-57.277l-1.1-1.916-1.11.635v1.281h2.21zm67.07-38.299h2.21v-3.801l-3.3 1.885 1.09 1.916zm0 70.609h-2.2v.183l2.2-.183zm-16.55 25.375l.25-2.193-.25 2.193zm1.84-28.228v2.207h2.21v-2.207h-2.21zm0-18.001h2.21v-3.842l-3.32 1.936 1.11 1.906zm-39.27 22.911l-1.11-1.906-1.1.638v1.268h2.21zm-1.18-11.987h-2.21v3.8l3.3-1.883-1.09-1.917zm0-17.652l-1.14-1.89-1.07.644v1.246h2.21zm42.09-6.364l1.09 1.916 1.12-.635v-1.281h-2.21zm0-19.011h2.21v-3.907l-3.35 2.017 1.14 1.89zm-57.28 112.533c10.26 0 18.57-8.315 18.57-18.571h-4.41c0 7.819-6.34 14.158-14.16 14.158v4.413zm-16.8-18.571c0 4.958 1.52 9.581 4.43 13.001 2.94 3.455 7.21 5.57 12.37 5.57v-4.413c-3.87 0-6.91-1.548-9.01-4.017-2.13-2.502-3.38-6.061-3.38-10.141h-4.41zm20.08-18.244c-6.6 0-11.68 1.875-15.12 5.264-3.44 3.386-4.96 8.015-4.96 12.98h4.41c0-4.074 1.23-7.463 3.64-9.836 2.41-2.371 6.26-3.995 12.03-3.995v-4.413zm-2.21-55.071v57.277h4.41v-57.277h-4.41zm68.19-40.215l-67.08 38.299 2.19 3.833 67.08-38.3-2.19-3.832zm3.3 72.525v-70.609h-4.41v70.609h4.41zm-19 27.568c5.56.618 10.94-.996 14.6-5.757 3.58-4.647 5.23-11.916 4.39-21.994l-4.4.366c.8 9.559-.86 15.53-3.48 18.936-2.54 3.293-6.26 4.548-10.62 4.063l-.49 4.386zm-14.85-15.693c0 4.671.74 8.497 3.32 11.237 2.54 2.708 6.45 3.891 11.53 4.456l.49-4.386c-4.85-.539-7.39-1.586-8.81-3.093-1.38-1.474-2.12-3.846-2.12-8.214h-4.41zm16.93-16.934c-4.99 0-9.27 1.579-12.31 4.621-3.04 3.041-4.62 7.325-4.62 12.313h4.41c0-4.049 1.27-7.129 3.33-9.193 2.06-2.063 5.14-3.328 9.19-3.328v-4.413zm-2.2-15.795v18.001h4.41v-18.001h-4.41zm-35.96 24.816l39.27-22.91-2.22-3.812-39.27 22.911 2.22 3.811zm1.09 37.043v-38.948h-4.41v38.948h4.41zm-1.17-50.935v-17.652h-4.42v17.652h4.42zm38.79-25.933l-42.09 24.017 2.18 3.833 42.09-24.017-2.18-3.833zm-1.12-17.094v19.011h4.42v-19.011h-4.42zm-38.74 27.265l42.09-25.375-2.28-3.78-42.09 25.375 2.28 3.78z" fill="url(#paint33_linear)" mask="url(#b)"/><path d="M1467.41 807.076a1.1 1.1 0 001.52.337c.52-.327.67-1.009.34-1.523l-1.86 1.186zm-61.73-33.002l-.28 1.069.07.016.06.009.15-1.094zm-81.87-42.352l.9-.641-.01-.016-.01-.016-.88.673zm145.46 74.168c-8.61-13.516-24.58-21.723-38.2-26.548-6.84-2.422-13.14-4.01-17.74-4.994-2.29-.492-4.17-.833-5.47-1.052a88.29 88.29 0 00-1.9-.296l-.1-.015-.03-.003-.01-.001v-.001l-.14 1.094-.15 1.094.01.001.02.003.1.013.37.054c.34.05.83.126 1.47.233 1.27.214 3.11.549 5.37 1.034 4.53.969 10.74 2.534 17.46 4.916 13.5 4.781 28.87 12.779 37.08 25.654l1.86-1.186zm-63.59-31.816l.27-1.069-.01-.002a9.708 9.708 0 01-.17-.043c-.11-.031-.29-.078-.52-.139-.46-.124-1.15-.309-2.02-.554-1.76-.49-4.29-1.22-7.38-2.177-6.19-1.916-14.63-4.742-23.66-8.383-9.03-3.643-18.62-8.092-27.1-13.249-8.5-5.167-15.82-10.998-20.38-17.377l-1.8 1.283c4.82 6.73 12.42 12.747 21.03 17.979 8.63 5.241 18.33 9.741 27.42 13.41 9.1 3.67 17.61 6.516 23.84 8.444 3.11.965 5.66 1.7 7.43 2.195.89.248 1.58.435 2.05.561.23.062.42.11.54.142.06.015.1.027.14.036l.03.009.01.002v.001l.28-1.069zm-80.99-43.025c-45.51-59.086-96.04-68.965-162.81-84.302l-.5 2.151c66.85 15.353 116.59 25.116 161.56 83.498l1.75-1.347z" fill="url(#paint34_linear)"/><path d="M1523.18 775.827l-27.26-15.681m40.35-3.956l-18.28-9.283" stroke="url(#paint35_linear)" stroke-width="2.207"/><path d="M1523.18 775.827l-27.26-15.681m40.35-3.956l-18.28-9.283" stroke="url(#paint36_linear)" stroke-width="2.207"/><path d="M1536.27 756.19l-18.28-9.283" stroke="url(#paint37_linear)" stroke-width="2.207"/><path d="M1485.11 725.945c-16.81-26.391-63.49-32.846-63.49-32.846s-49.27-9.078-70.23-37.283c-56.16-68.867-95.37-68.555-162.18-83.899" stroke="url(#paint38_linear)" stroke-width="2.207"/><path d="M1549.05 690.13c.33.514 1.01.665 1.52.338.52-.328.67-1.01.34-1.523l-1.86 1.185zm-63.94-34.314l.17-1.09-.05-.008-.06-.003-.06 1.101zm65.8 33.129c-8.61-13.518-25.13-22.053-39.29-27.202-7.11-2.585-13.69-4.337-18.49-5.444-2.4-.554-4.36-.946-5.72-1.201-.68-.127-1.21-.22-1.57-.281l-.41-.068-.11-.017-.03-.005-.01-.001-.17 1.09-.16 1.091v.001l.03.004.1.016c.08.014.22.035.39.065.35.059.87.15 1.54.274 1.33.25 3.26.636 5.63 1.182 4.73 1.092 11.22 2.821 18.22 5.368 14.07 5.114 29.99 13.44 38.19 26.313l1.86-1.185zm-65.8-33.129l.06-1.101-.02-.002-.1-.006c-.08-.006-.21-.015-.38-.029-.34-.028-.85-.074-1.51-.147a90.768 90.768 0 01-5.68-.826c-4.87-.855-11.73-2.407-19.7-5.192-15.92-5.572-36.21-16.07-53.71-35.781l-1.65 1.465c17.81 20.059 38.45 30.737 54.64 36.398 8.09 2.832 15.07 4.411 20.04 5.283 2.48.436 4.46.696 5.82.846a51.454 51.454 0 001.98.184l.11.008.03.001.01.001.06-1.102zm-81.04-43.084c-35.52-40.009-95.84-68.872-162.76-84.243l-.49 2.151c66.69 15.318 126.51 44.028 161.6 83.557l1.65-1.465z" fill="url(#paint39_linear)"/><path d="M1485.11 784.88l-.93.593a1.11 1.11 0 002.04-.593h-1.11zm0-58.935h1.11v-.321l-.18-.272-.93.593zm-63.49-32.846l-.21 1.082.03.006.03.005.15-1.093zm-70.23-37.283l.91-.627-.03-.036-.02-.034-.86.697zm59.58 93.298l-.22 1.081.02.004.02.004.18-1.089zm-77.23-38.666l.91-.611-.03-.044-.03-.042-.85.697zm152.3 14.904c-8.61-13.517-24.78-21.833-38.61-26.766-6.94-2.476-13.35-4.119-18.02-5.144-2.33-.513-4.24-.871-5.56-1.101a83.247 83.247 0 00-1.93-.315 1.902 1.902 0 01-.11-.015l-.03-.004v-.001h-.01l-.15 1.093-.15 1.093h.01l.02.004.1.014c.08.012.21.031.38.058.34.053.84.134 1.49.246 1.3.226 3.17.578 5.47 1.083 4.61 1.011 10.92 2.63 17.75 5.067 13.71 4.893 29.29 13 37.49 25.874l1.86-1.186zm-64.42-32.253l.22-1.083h-.01v-.001l-.03-.005-.11-.022-.42-.089c-.38-.08-.93-.202-1.65-.366-1.43-.329-3.5-.829-6.05-1.514-5.09-1.37-12.07-3.478-19.63-6.426-15.17-5.918-32.46-15.14-41.64-28.404l-1.81 1.255c9.57 13.838 27.4 23.257 42.65 29.205 7.65 2.984 14.71 5.115 19.86 6.501 2.57.693 4.67 1.2 6.13 1.534a92.152 92.152 0 002.12.465l.12.024.03.006v.001l.01.001.21-1.082zm-69.37-37.98c-28.17-34.544-52.16-51.81-77.53-62.342-25.29-10.496-51.98-14.291-85.26-21.936l-.49 2.151c33.52 7.7 59.84 11.421 84.9 21.823 24.98 10.364 48.68 27.376 76.67 61.699l1.71-1.395zm133.79 129.168c-4.33-6.801-11.23-12.443-19.04-17.079-7.83-4.641-16.65-8.316-24.91-11.152-8.26-2.837-15.99-4.843-21.66-6.141-2.83-.648-5.15-1.12-6.76-1.43-.8-.155-1.43-.27-1.86-.346l-.49-.085-.13-.022a.313.313 0 00-.03-.005l-.01-.001v-.001l-.18 1.089-.18 1.089.01.001c.01.001.01.003.03.005l.12.02.47.083c.42.074 1.04.187 1.84.34 1.59.305 3.88.772 6.68 1.414 5.61 1.285 13.27 3.272 21.44 6.077 8.17 2.807 16.84 6.424 24.49 10.963 7.66 4.545 14.24 9.972 18.31 16.367l1.86-1.186zm-75.07-35.173l.22-1.081v-.001l-.01-.001-.03-.007-.13-.026-.49-.105c-.44-.095-1.08-.237-1.91-.428-1.65-.381-4.04-.956-6.95-1.728-5.84-1.546-13.8-3.882-22.31-7.042-8.51-3.16-17.55-7.137-25.54-11.958-8-4.827-14.88-10.459-19.17-16.9l-1.83 1.223c4.54 6.823 11.73 12.657 19.86 17.567 8.15 4.916 17.32 8.948 25.91 12.137 8.59 3.191 16.63 5.547 22.51 7.106 2.94.779 5.35 1.36 7.03 1.746a137.388 137.388 0 002.44.542l.13.027.04.007v.002l.01.001.22-1.081zm-76.38-39.363c-28.17-34.544-52.15-51.81-77.53-62.343-25.29-10.495-51.97-14.29-85.26-21.935l-.49 2.151c33.52 7.7 59.85 11.421 84.91 21.822 24.97 10.365 48.67 27.377 76.66 61.7l1.71-1.395zm149.42 16.194v58.935h2.21v-58.935h-2.21z" fill="url(#paint40_linear)"/><mask id="c" fill="#fff"><path fill-rule="evenodd" clip-rule="evenodd" d="M1497.1 800.048c0 9.038-7.33 16.365-16.37 16.365-9.04 0-14.6-7.327-14.6-16.365 0-9.038 5.52-16.037 17.88-16.037v-57.277l67.07-38.3v70.609c1.64 19.638-6.62 26.478-16.55 25.375-9.92-1.103-12.89-4.461-12.89-13.499s5.69-14.729 14.73-14.729v-18.001L1497.1 761.1v38.948zm-1.18-68.587v17.652l42.09-24.016v-19.011l-42.09 25.375z"/></mask><path fill-rule="evenodd" clip-rule="evenodd" d="M1497.1 800.048c0 9.038-7.33 16.365-16.37 16.365-9.04 0-14.6-7.327-14.6-16.365 0-9.038 5.52-16.037 17.88-16.037v-57.277l67.07-38.3v70.609c1.64 19.638-6.62 26.478-16.55 25.375-9.92-1.103-12.89-4.461-12.89-13.499s5.69-14.729 14.73-14.729v-18.001L1497.1 761.1v38.948zm-1.18-68.587v17.652l42.09-24.016v-19.011l-42.09 25.375z" fill="url(#paint41_linear)" fill-opacity=".2"/><path d="M1484.01 784.011v2.206h2.2v-2.206h-2.2zm0-57.277l-1.1-1.916-1.11.635v1.281h2.21zm67.07-38.3h2.21v-3.8l-3.3 1.884 1.09 1.916zm0 70.609h-2.2v.183l2.2-.183zm-16.55 25.375l.25-2.193-.25 2.193zm1.84-28.228v2.207h2.21v-2.207h-2.21zm0-18.001h2.21v-3.842l-3.32 1.936 1.11 1.906zM1497.1 761.1l-1.11-1.906-1.1.638v1.268h2.21zm-1.18-11.987h-2.21v3.8l3.3-1.883-1.09-1.917zm0-17.652l-1.14-1.89-1.07.644v1.246h2.21zm42.09-6.364l1.09 1.917 1.12-.636v-1.281h-2.21zm0-19.011h2.21v-3.907l-3.35 2.017 1.14 1.89zm-57.28 112.533c10.26 0 18.57-8.314 18.57-18.571h-4.41c0 7.819-6.34 14.158-14.16 14.158v4.413zm-16.8-18.571c0 4.958 1.52 9.581 4.43 13.002 2.94 3.454 7.21 5.569 12.37 5.569v-4.413c-3.87 0-6.91-1.548-9.01-4.016-2.13-2.503-3.38-6.062-3.38-10.142h-4.41zm20.08-18.244c-6.6 0-11.68 1.875-15.12 5.264-3.44 3.386-4.96 8.015-4.96 12.98h4.41c0-4.074 1.23-7.463 3.64-9.836 2.41-2.37 6.26-3.995 12.03-3.995v-4.413zm-2.21-55.07v57.277h4.41v-57.277h-4.41zm68.19-40.216l-67.08 38.3 2.19 3.832 67.08-38.299-2.19-3.833zm3.3 72.525v-70.609h-4.41v70.609h4.41zm-19 27.568c5.56.618 10.94-.996 14.6-5.756 3.58-4.648 5.23-11.916 4.39-21.995l-4.4.366c.8 9.559-.86 15.53-3.48 18.936-2.54 3.294-6.26 4.548-10.62 4.063l-.49 4.386zm-14.85-15.692c0 4.67.74 8.496 3.32 11.236 2.54 2.708 6.45 3.892 11.53 4.456l.49-4.386c-4.85-.539-7.39-1.586-8.81-3.093-1.38-1.474-2.12-3.846-2.12-8.213h-4.41zm16.93-16.935c-4.99 0-9.27 1.58-12.31 4.621-3.04 3.041-4.62 7.325-4.62 12.314h4.41c0-4.05 1.27-7.13 3.33-9.194 2.06-2.063 5.14-3.328 9.19-3.328v-4.413zm-2.2-15.795v18.001h4.41v-18.001h-4.41zm-35.96 24.817l39.27-22.911-2.22-3.812-39.27 22.911 2.22 3.812zm1.09 37.042V761.1h-4.41v38.948h4.41zm-1.17-50.935v-17.652h-4.42v17.652h4.42zm38.79-25.932l-42.09 24.016 2.18 3.833 42.09-24.016-2.18-3.833zm-1.12-17.095v19.011h4.42v-19.011h-4.42zm-38.74 27.265l42.09-25.375-2.28-3.78-42.09 25.375 2.28 3.78z" fill="url(#paint42_linear)" mask="url(#c)"/><g filter="url(#filter2_b)"><rect x="309.913" width="903.358" height="665.701" rx="19.695" fill="url(#paint43_linear)" fill-opacity=".2"/><rect x="310.413" y=".5" width="902.358" height="664.701" rx="19.195" stroke="url(#paint44_linear)" stroke-linecap="round" stroke-linejoin="round"/></g><rect x="359.6" y="62.815" width="901.151" height="663.495" rx="18.592" fill="#111" stroke="url(#paint45_linear)" stroke-width="2.207"/><path d="M361.775 518.643h898.105" stroke="url(#paint46_linear)" stroke-width="2.207"/><path d="M358.497 263.918H1256.6" stroke="url(#paint47_linear)" stroke-width="2.207"/><path fill-rule="evenodd" clip-rule="evenodd" d="M333.549 762.215c0 .609.494 1.103 1.103 1.103h621.48a1.103 1.103 0 000-2.206h-621.48c-.609 0-1.103.494-1.103 1.103zm357.143 22.97c0 .61.494 1.104 1.103 1.104h431.095c.6 0 1.1-.494 1.1-1.104 0-.609-.5-1.103-1.1-1.103H691.795c-.609 0-1.103.494-1.103 1.103zm-183.823 0c0 .61-.494 1.104-1.103 1.104H311.019a1.103 1.103 0 010-2.207h194.747c.609 0 1.103.494 1.103 1.103zm656.511 0a1.1 1.1 0 001.1 1.104h63.45a1.1 1.1 0 001.1-1.104 1.1 1.1 0 00-1.1-1.103h-63.45a1.1 1.1 0 00-1.1 1.103z" fill="url(#paint48_linear)"/><rect x="682.602" y="98.268" width="102.835" height="84.453" rx="5.516" stroke="url(#paint49_linear)" stroke-width="2.207"/><rect x="821.778" y="98.266" width="102.835" height="84.453" rx="5.516" stroke="url(#paint50_linear)" stroke-width="2.207"/><rect x="960.957" y="98.266" width="102.835" height="84.453" rx="5.516" stroke="url(#paint51_linear)" stroke-width="2.207"/><rect x="1100.14" y="98.266" width="102.835" height="84.453" rx="5.516" stroke="url(#paint52_linear)" stroke-width="2.207"/><path d="M1261.85 332.194H929.66c-7.252 0-13.13 5.878-13.13 13.13v85.346c0 7.252 5.878 13.13 13.13 13.13h332.19" stroke="url(#paint53_linear)" stroke-width="2.207"/><path fill-rule="evenodd" clip-rule="evenodd" d="M997.041 391.279c0 16.911-13.709 30.619-30.619 30.619-16.911 0-30.619-13.708-30.619-30.619 0-16.91 13.708-30.619 30.619-30.619 16.91 0 30.619 13.709 30.619 30.619zm2.206 0c0 18.129-14.696 32.826-32.825 32.826-18.129 0-32.826-14.697-32.826-32.826s14.697-32.825 32.826-32.825 32.825 14.696 32.825 32.825zm76.573 0c0 16.911-13.71 30.619-30.62 30.619s-30.62-13.708-30.62-30.619c0-16.91 13.71-30.619 30.62-30.619s30.62 13.709 30.62 30.619zm2.21 0c0 18.129-14.7 32.826-32.83 32.826s-32.82-14.697-32.82-32.826 14.69-32.825 32.82-32.825c18.13 0 32.83 14.696 32.83 32.825zm45.96 30.619c16.91 0 30.62-13.708 30.62-30.619 0-16.91-13.71-30.619-30.62-30.619s-30.62 13.709-30.62 30.619c0 16.911 13.71 30.619 30.62 30.619zm0 2.207c18.13 0 32.82-14.697 32.82-32.826s-14.69-32.825-32.82-32.825c-18.13 0-32.83 14.696-32.83 32.825 0 18.129 14.7 32.826 32.83 32.826zm115.96-32.826c0 16.911-13.71 30.619-30.62 30.619s-30.62-13.708-30.62-30.619c0-16.91 13.71-30.619 30.62-30.619s30.62 13.709 30.62 30.619zm2.21 0c0 18.129-14.7 32.826-32.83 32.826s-32.82-14.697-32.82-32.826 14.69-32.825 32.82-32.825c18.13 0 32.83 14.696 32.83 32.825z" fill="url(#paint54_linear)"/><mask id="d" fill="#fff"><path fill-rule="evenodd" clip-rule="evenodd" d="M533.126 91.913a6.566 6.566 0 00-6.565 6.565v84.033a6.565 6.565 0 0013.131 0V98.478a6.566 6.566 0 00-6.566-6.565zm-30.2 11.817a6.565 6.565 0 016.565-6.565 6.565 6.565 0 016.565 6.565v73.529a6.566 6.566 0 11-13.13 0V103.73zm-18.381-1.313a6.565 6.565 0 00-6.565 6.565v63.025a6.565 6.565 0 1013.13 0v-63.025a6.565 6.565 0 00-6.565-6.565zm-31.514 14.443a6.565 6.565 0 1113.13 0v47.269a6.565 6.565 0 11-13.13 0V116.86zm-18.379 1.313a6.565 6.565 0 00-6.565 6.565v31.513a6.565 6.565 0 1013.13 0v-31.513a6.565 6.565 0 00-6.565-6.565zm-24.949 7.878a6.565 6.565 0 00-6.565 6.565v17.07a6.565 6.565 0 0013.13 0v-17.07a6.565 6.565 0 00-6.565-6.565zM551.51 103.73a6.565 6.565 0 016.565-6.565 6.565 6.565 0 016.565 6.565v73.529a6.566 6.566 0 11-13.13 0V103.73zm30.198-1.313a6.565 6.565 0 00-6.565 6.565v63.025a6.565 6.565 0 1013.13 0v-63.025a6.565 6.565 0 00-6.565-6.565z"/></mask><path fill-rule="evenodd" clip-rule="evenodd" d="M533.126 91.913a6.566 6.566 0 00-6.565 6.565v84.033a6.565 6.565 0 0013.131 0V98.478a6.566 6.566 0 00-6.566-6.565zm-30.2 11.817a6.565 6.565 0 016.565-6.565 6.565 6.565 0 016.565 6.565v73.529a6.566 6.566 0 11-13.13 0V103.73zm-18.381-1.313a6.565 6.565 0 00-6.565 6.565v63.025a6.565 6.565 0 1013.13 0v-63.025a6.565 6.565 0 00-6.565-6.565zm-31.514 14.443a6.565 6.565 0 1113.13 0v47.269a6.565 6.565 0 11-13.13 0V116.86zm-18.379 1.313a6.565 6.565 0 00-6.565 6.565v31.513a6.565 6.565 0 1013.13 0v-31.513a6.565 6.565 0 00-6.565-6.565zm-24.949 7.878a6.565 6.565 0 00-6.565 6.565v17.07a6.565 6.565 0 0013.13 0v-17.07a6.565 6.565 0 00-6.565-6.565zM551.51 103.73a6.565 6.565 0 016.565-6.565 6.565 6.565 0 016.565 6.565v73.529a6.566 6.566 0 11-13.13 0V103.73zm30.198-1.313a6.565 6.565 0 00-6.565 6.565v63.025a6.565 6.565 0 1013.13 0v-63.025a6.565 6.565 0 00-6.565-6.565z" fill="url(#paint55_linear)" fill-opacity=".2"/><path d="M528.768 98.478a4.358 4.358 0 014.358-4.359v-4.413a8.771 8.771 0 00-8.771 8.772h4.413zm0 84.033V98.478h-4.413v84.033h4.413zm4.358 4.359a4.359 4.359 0 01-4.358-4.359h-4.413a8.772 8.772 0 008.771 8.772v-4.413zm4.359-4.359a4.359 4.359 0 01-4.359 4.359v4.413a8.772 8.772 0 008.772-8.772h-4.413zm0-84.033v84.033h4.413V98.478h-4.413zm-4.359-4.359a4.358 4.358 0 014.359 4.359h4.413a8.772 8.772 0 00-8.772-8.772v4.413zm-23.635.84a8.771 8.771 0 00-8.771 8.771h4.413a4.358 4.358 0 014.358-4.358v-4.413zm8.772 8.771a8.771 8.771 0 00-8.772-8.771v4.413a4.359 4.359 0 014.359 4.358h4.413zm0 73.529V103.73h-4.413v73.529h4.413zm-8.772 8.772a8.772 8.772 0 008.772-8.772h-4.413a4.359 4.359 0 01-4.359 4.359v4.413zm-8.771-8.772a8.771 8.771 0 008.771 8.772v-4.413a4.358 4.358 0 01-4.358-4.359h-4.413zm0-73.529v73.529h4.413V103.73h-4.413zm-20.534 5.252a4.359 4.359 0 014.359-4.358v-4.413a8.771 8.771 0 00-8.772 8.771h4.413zm0 63.025v-63.025h-4.413v63.025h4.413zm4.359 4.359a4.36 4.36 0 01-4.359-4.359h-4.413a8.772 8.772 0 008.772 8.772v-4.413zm4.358-4.359a4.359 4.359 0 01-4.358 4.359v4.413a8.771 8.771 0 008.771-8.772h-4.413zm0-63.025v63.025h4.413v-63.025h-4.413zm-4.358-4.358a4.358 4.358 0 014.358 4.358h4.413a8.771 8.771 0 00-8.771-8.771v4.413zm-24.949 3.465a8.771 8.771 0 00-8.771 8.771h4.413a4.358 4.358 0 014.358-4.358v-4.413zm8.772 8.771a8.771 8.771 0 00-8.772-8.771v4.413a4.359 4.359 0 014.359 4.358h4.413zm0 47.269V116.86h-4.413v47.269h4.413zm-8.772 8.772a8.772 8.772 0 008.772-8.772h-4.413a4.36 4.36 0 01-4.359 4.359v4.413zm-8.771-8.772a8.772 8.772 0 008.771 8.772v-4.413a4.359 4.359 0 01-4.358-4.359h-4.413zm0-47.269v47.269h4.413V116.86h-4.413zm-20.532 7.878a4.359 4.359 0 014.359-4.358v-4.413a8.772 8.772 0 00-8.772 8.771h4.413zm0 31.513v-31.513h-4.413v31.513h4.413zm4.359 4.358a4.359 4.359 0 01-4.359-4.358h-4.413a8.772 8.772 0 008.772 8.771v-4.413zm4.359-4.358a4.359 4.359 0 01-4.359 4.358v4.413a8.772 8.772 0 008.772-8.771h-4.413zm0-31.513v31.513h4.413v-31.513h-4.413zm-4.359-4.358a4.359 4.359 0 014.359 4.358h4.413a8.772 8.772 0 00-8.772-8.771v4.413zm-29.307 12.236a4.358 4.358 0 014.358-4.358v-4.413a8.771 8.771 0 00-8.771 8.771h4.413zm0 17.07v-17.07h-4.413v17.07h4.413zm4.358 4.358a4.358 4.358 0 01-4.358-4.358h-4.413a8.771 8.771 0 008.771 8.771v-4.413zm4.359-4.358a4.359 4.359 0 01-4.359 4.358v4.413a8.771 8.771 0 008.772-8.771h-4.413zm0-17.07v17.07h4.413v-17.07h-4.413zm-4.359-4.358a4.359 4.359 0 014.359 4.358h4.413a8.771 8.771 0 00-8.772-8.771v4.413zm148.372-33.3a8.771 8.771 0 00-8.771 8.772h4.413a4.358 4.358 0 014.358-4.358v-4.413zm8.772 8.772a8.771 8.771 0 00-8.772-8.771v4.413a4.359 4.359 0 014.359 4.358h4.413zm0 73.529V103.73h-4.413v73.529h4.413zm-8.772 8.772a8.772 8.772 0 008.772-8.772h-4.413a4.359 4.359 0 01-4.359 4.359v4.413zm-8.771-8.772a8.771 8.771 0 008.771 8.772v-4.413a4.358 4.358 0 01-4.358-4.359h-4.413zm0-73.529v73.529h4.413V103.73h-4.413zm28.045 5.252a4.359 4.359 0 014.359-4.358v-4.413a8.772 8.772 0 00-8.772 8.771h4.413zm0 63.025v-63.025h-4.413v63.025h4.413zm4.359 4.359a4.36 4.36 0 01-4.359-4.359h-4.413a8.772 8.772 0 008.772 8.772v-4.413zm4.359-4.359a4.36 4.36 0 01-4.359 4.359v4.413a8.772 8.772 0 008.772-8.772h-4.413zm0-63.025v63.025h4.413v-63.025h-4.413zm-4.359-4.358a4.359 4.359 0 014.359 4.358h4.413a8.772 8.772 0 00-8.772-8.771v4.413z" fill="url(#paint56_linear)" mask="url(#d)"/><rect x="439.692" y="301.785" width="10.924" height="198.686" rx="5.462" fill="url(#paint57_linear)" fill-opacity=".2" stroke="url(#paint58_linear)" stroke-width="2.207"/><path fill="#111" stroke="url(#paint59_linear)" stroke-width="2.207" d="M404.241 333.298h81.827v115.965h-81.827z"/><mask id="e" fill="#fff"><path fill-rule="evenodd" clip-rule="evenodd" d="M426.77 365.019a6.565 6.565 0 010-13.131h36.764a6.566 6.566 0 010 13.131H426.77zm0 17.069a6.565 6.565 0 110-13.13h36.764a6.565 6.565 0 110 13.13H426.77zm-6.565 11.817a6.565 6.565 0 006.565 6.565h36.764a6.565 6.565 0 000-13.131H426.77a6.566 6.566 0 00-6.565 6.566z"/></mask><path fill-rule="evenodd" clip-rule="evenodd" d="M426.77 365.019a6.565 6.565 0 010-13.131h36.764a6.566 6.566 0 010 13.131H426.77zm0 17.069a6.565 6.565 0 110-13.13h36.764a6.565 6.565 0 110 13.13H426.77zm-6.565 11.817a6.565 6.565 0 006.565 6.565h36.764a6.565 6.565 0 000-13.131H426.77a6.566 6.566 0 00-6.565 6.566z" fill="url(#paint60_linear)" fill-opacity=".2"/><path d="M417.998 358.454a8.771 8.771 0 008.772 8.771v-4.413a4.359 4.359 0 01-4.359-4.358h-4.413zm8.772-8.772a8.772 8.772 0 00-8.772 8.772h4.413a4.359 4.359 0 014.359-4.359v-4.413zm36.764 0H426.77v4.413h36.764v-4.413zm8.772 8.772a8.772 8.772 0 00-8.772-8.772v4.413a4.359 4.359 0 014.359 4.359h4.413zm-8.772 8.771a8.771 8.771 0 008.772-8.771h-4.413a4.359 4.359 0 01-4.359 4.358v4.413zm-36.764 0h36.764v-4.413H426.77v4.413zm-8.772 8.298a8.772 8.772 0 008.772 8.772v-4.413a4.36 4.36 0 01-4.359-4.359h-4.413zm8.772-8.772a8.772 8.772 0 00-8.772 8.772h4.413a4.359 4.359 0 014.359-4.358v-4.414zm36.764 0H426.77v4.414h36.764v-4.414zm8.772 8.772a8.772 8.772 0 00-8.772-8.772v4.414a4.359 4.359 0 014.359 4.358h4.413zm-8.772 8.772a8.772 8.772 0 008.772-8.772h-4.413a4.36 4.36 0 01-4.359 4.359v4.413zm-36.764 0h36.764v-4.413H426.77v4.413zm0 13.968a4.359 4.359 0 01-4.359-4.358h-4.413a8.771 8.771 0 008.772 8.771v-4.413zm36.764 0H426.77v4.413h36.764v-4.413zm4.359-4.358a4.359 4.359 0 01-4.359 4.358v4.413a8.771 8.771 0 008.772-8.771h-4.413zm-4.359-4.359a4.359 4.359 0 014.359 4.359h4.413a8.772 8.772 0 00-8.772-8.772v4.413zm-36.764 0h36.764v-4.413H426.77v4.413zm-4.359 4.359a4.359 4.359 0 014.359-4.359v-4.413a8.772 8.772 0 00-8.772 8.772h4.413z" fill="url(#paint61_linear)" mask="url(#e)"/><rect x="773.197" y="300.471" width="10.924" height="198.686" rx="5.462" fill="url(#paint62_linear)" fill-opacity=".2" stroke="url(#paint63_linear)" stroke-width="2.207"/><path fill="#111" stroke="url(#paint64_linear)" stroke-width="2.207" d="M737.746 331.984h81.827v115.965h-81.827z"/><mask id="f" fill="#fff"><path fill-rule="evenodd" clip-rule="evenodd" d="M760.279 363.706a6.565 6.565 0 010-13.13h36.765a6.565 6.565 0 110 13.13h-36.765zm0 17.07a6.566 6.566 0 010-13.13h36.765a6.565 6.565 0 110 13.13h-36.765zm-6.565 11.816a6.565 6.565 0 006.565 6.565h36.765a6.565 6.565 0 100-13.13h-36.765a6.565 6.565 0 00-6.565 6.565z"/></mask><path fill-rule="evenodd" clip-rule="evenodd" d="M760.279 363.706a6.565 6.565 0 010-13.13h36.765a6.565 6.565 0 110 13.13h-36.765zm0 17.07a6.566 6.566 0 010-13.13h36.765a6.565 6.565 0 110 13.13h-36.765zm-6.565 11.816a6.565 6.565 0 006.565 6.565h36.765a6.565 6.565 0 100-13.13h-36.765a6.565 6.565 0 00-6.565 6.565z" fill="url(#paint65_linear)" fill-opacity=".2"/><path d="M751.508 357.141a8.772 8.772 0 008.771 8.772V361.5a4.359 4.359 0 01-4.358-4.359h-4.413zm8.771-8.772a8.772 8.772 0 00-8.771 8.772h4.413a4.359 4.359 0 014.358-4.359v-4.413zm36.765 0h-36.765v4.413h36.765v-4.413zm8.772 8.772a8.773 8.773 0 00-8.772-8.772v4.413a4.36 4.36 0 014.359 4.359h4.413zm-8.772 8.772a8.773 8.773 0 008.772-8.772h-4.413a4.36 4.36 0 01-4.359 4.359v4.413zm-36.765 0h36.765V361.5h-36.765v4.413zm-8.771 8.298a8.771 8.771 0 008.771 8.771v-4.413a4.358 4.358 0 01-4.358-4.358h-4.413zm8.771-8.772a8.771 8.771 0 00-8.771 8.772h4.413a4.358 4.358 0 014.358-4.359v-4.413zm36.765 0h-36.765v4.413h36.765v-4.413zm8.772 8.772a8.772 8.772 0 00-8.772-8.772v4.413a4.359 4.359 0 014.359 4.359h4.413zm-8.772 8.771a8.772 8.772 0 008.772-8.771h-4.413a4.359 4.359 0 01-4.359 4.358v4.413zm-36.765 0h36.765v-4.413h-36.765v4.413zm0 13.969a4.359 4.359 0 01-4.358-4.359h-4.413a8.772 8.772 0 008.771 8.772v-4.413zm36.765 0h-36.765v4.413h36.765v-4.413zm4.359-4.359a4.36 4.36 0 01-4.359 4.359v4.413a8.773 8.773 0 008.772-8.772h-4.413zm-4.359-4.359a4.36 4.36 0 014.359 4.359h4.413a8.773 8.773 0 00-8.772-8.772v4.413zm-36.765 0h36.765v-4.413h-36.765v4.413zm-4.358 4.359a4.359 4.359 0 014.358-4.359v-4.413a8.772 8.772 0 00-8.771 8.772h4.413z" fill="url(#paint66_linear)" mask="url(#f)"/><rect x="552.61" y="300.471" width="10.924" height="198.686" rx="5.462" fill="url(#paint67_linear)" fill-opacity=".2" stroke="url(#paint68_linear)" stroke-width="2.207"/><path fill="#111" stroke="url(#paint69_linear)" stroke-width="2.207" d="M517.16 331.984h81.827v115.965H517.16z"/><mask id="g" fill="#fff"><path fill-rule="evenodd" clip-rule="evenodd" d="M539.692 399.156a6.565 6.565 0 110-13.13h36.765a6.565 6.565 0 010 13.13h-36.765zm0 17.07a6.565 6.565 0 110-13.13h36.765a6.565 6.565 0 010 13.13h-36.765zm-6.565 11.816a6.565 6.565 0 006.565 6.565h36.765a6.565 6.565 0 000-13.13h-36.765a6.565 6.565 0 00-6.565 6.565z"/></mask><path fill-rule="evenodd" clip-rule="evenodd" d="M539.692 399.156a6.565 6.565 0 110-13.13h36.765a6.565 6.565 0 010 13.13h-36.765zm0 17.07a6.565 6.565 0 110-13.13h36.765a6.565 6.565 0 010 13.13h-36.765zm-6.565 11.816a6.565 6.565 0 006.565 6.565h36.765a6.565 6.565 0 000-13.13h-36.765a6.565 6.565 0 00-6.565 6.565z" fill="url(#paint70_linear)" fill-opacity=".2"/><path d="M530.92 392.591a8.772 8.772 0 008.772 8.772v-4.413a4.36 4.36 0 01-4.359-4.359h-4.413zm8.772-8.771a8.772 8.772 0 00-8.772 8.771h4.413a4.359 4.359 0 014.359-4.358v-4.413zm36.765 0h-36.765v4.413h36.765v-4.413zm8.771 8.771a8.771 8.771 0 00-8.771-8.771v4.413a4.358 4.358 0 014.358 4.358h4.413zm-8.771 8.772a8.771 8.771 0 008.771-8.772h-4.413a4.359 4.359 0 01-4.358 4.359v4.413zm-36.765 0h36.765v-4.413h-36.765v4.413zm-8.772 8.298a8.772 8.772 0 008.772 8.771v-4.413a4.359 4.359 0 01-4.359-4.358h-4.413zm8.772-8.772a8.772 8.772 0 00-8.772 8.772h4.413a4.36 4.36 0 014.359-4.359v-4.413zm36.765 0h-36.765v4.413h36.765v-4.413zm8.771 8.772a8.771 8.771 0 00-8.771-8.772v4.413a4.359 4.359 0 014.358 4.359h4.413zm-8.771 8.771a8.771 8.771 0 008.771-8.771h-4.413a4.358 4.358 0 01-4.358 4.358v4.413zm-36.765 0h36.765v-4.413h-36.765v4.413zm0 13.969a4.36 4.36 0 01-4.359-4.359h-4.413a8.772 8.772 0 008.772 8.772v-4.413zm36.765 0h-36.765v4.413h36.765v-4.413zm4.358-4.359a4.359 4.359 0 01-4.358 4.359v4.413a8.771 8.771 0 008.771-8.772h-4.413zm-4.358-4.358a4.358 4.358 0 014.358 4.358h4.413a8.771 8.771 0 00-8.771-8.771v4.413zm-36.765 0h36.765v-4.413h-36.765v4.413zm-4.359 4.358a4.359 4.359 0 014.359-4.358v-4.413a8.772 8.772 0 00-8.772 8.771h4.413z" fill="url(#paint71_linear)" mask="url(#g)"/><rect x="665.534" y="300.471" width="10.924" height="198.686" rx="5.462" fill="url(#paint72_linear)" fill-opacity=".2" stroke="url(#paint73_linear)" stroke-width="2.207"/><path fill="#111" stroke="url(#paint74_linear)" stroke-width="2.207" d="M630.084 331.984h81.827v115.965h-81.827z"/><mask id="h" fill="#fff"><path fill-rule="evenodd" clip-rule="evenodd" d="M652.616 399.156a6.565 6.565 0 010-13.13h36.765a6.565 6.565 0 110 13.13h-36.765zm0 17.07a6.565 6.565 0 010-13.13h36.765a6.565 6.565 0 110 13.13h-36.765zm-6.565 11.816a6.565 6.565 0 006.565 6.565h36.765a6.565 6.565 0 100-13.13h-36.765a6.565 6.565 0 00-6.565 6.565z"/></mask><path fill-rule="evenodd" clip-rule="evenodd" d="M652.616 399.156a6.565 6.565 0 010-13.13h36.765a6.565 6.565 0 110 13.13h-36.765zm0 17.07a6.565 6.565 0 010-13.13h36.765a6.565 6.565 0 110 13.13h-36.765zm-6.565 11.816a6.565 6.565 0 006.565 6.565h36.765a6.565 6.565 0 100-13.13h-36.765a6.565 6.565 0 00-6.565 6.565z" fill="url(#paint75_linear)" fill-opacity=".2"/><path d="M643.845 392.591a8.771 8.771 0 008.771 8.772v-4.413a4.359 4.359 0 01-4.358-4.359h-4.413zm8.771-8.771a8.771 8.771 0 00-8.771 8.771h4.413a4.358 4.358 0 014.358-4.358v-4.413zm36.765 0h-36.765v4.413h36.765v-4.413zm8.772 8.771a8.772 8.772 0 00-8.772-8.771v4.413a4.359 4.359 0 014.359 4.358h4.413zm-8.772 8.772a8.772 8.772 0 008.772-8.772h-4.413a4.36 4.36 0 01-4.359 4.359v4.413zm-36.765 0h36.765v-4.413h-36.765v4.413zm-8.771 8.298a8.771 8.771 0 008.771 8.771v-4.413a4.358 4.358 0 01-4.358-4.358h-4.413zm8.771-8.772a8.771 8.771 0 00-8.771 8.772h4.413a4.359 4.359 0 014.358-4.359v-4.413zm36.765 0h-36.765v4.413h36.765v-4.413zm8.772 8.772a8.772 8.772 0 00-8.772-8.772v4.413a4.36 4.36 0 014.359 4.359h4.413zm-8.772 8.771a8.772 8.772 0 008.772-8.771h-4.413a4.359 4.359 0 01-4.359 4.358v4.413zm-36.765 0h36.765v-4.413h-36.765v4.413zm0 13.969a4.359 4.359 0 01-4.358-4.359h-4.413a8.771 8.771 0 008.771 8.772v-4.413zm36.765 0h-36.765v4.413h36.765v-4.413zm4.359-4.359a4.36 4.36 0 01-4.359 4.359v4.413a8.772 8.772 0 008.772-8.772h-4.413zm-4.359-4.358a4.359 4.359 0 014.359 4.358h4.413a8.772 8.772 0 00-8.772-8.771v4.413zm-36.765 0h36.765v-4.413h-36.765v4.413zm-4.358 4.358a4.358 4.358 0 014.358-4.358v-4.413a8.771 8.771 0 00-8.771 8.771h4.413z" fill="url(#paint76_linear)" mask="url(#h)"/><path fill-rule="evenodd" clip-rule="evenodd" d="M415.01 553.675h170.583a4.413 4.413 0 014.413 4.413v29.252H410.597v-29.252a4.413 4.413 0 014.413-4.413zm-4.413 35.871v31.932h179.409v-31.932H410.597zm0 67.383v-33.244h179.409v33.244H410.597zm0 2.207v30.145a4.412 4.412 0 004.413 4.413h170.583a4.412 4.412 0 004.413-4.413v-30.145H410.597zm181.616 0v30.145a6.62 6.62 0 01-6.62 6.62H415.01a6.62 6.62 0 01-6.62-6.62V558.088a6.62 6.62 0 016.62-6.619h170.583a6.62 6.62 0 016.62 6.619v101.048z" fill="url(#paint77_linear)"/><path fill-rule="evenodd" clip-rule="evenodd" d="M1032.13 553.675h170.58c2.44 0 4.41 1.976 4.41 4.413v29.252h-179.41v-29.252a4.417 4.417 0 014.42-4.413zm-6.62 35.871v99.735c0 3.656 2.96 6.62 6.62 6.62h170.58c3.66 0 6.62-2.964 6.62-6.62V558.088a6.617 6.617 0 00-6.62-6.619h-170.58a6.617 6.617 0 00-6.62 6.619v31.458zm2.2 69.59v30.145a4.417 4.417 0 004.42 4.413h170.58c2.44 0 4.41-1.975 4.41-4.413v-30.145h-179.41zm179.41-2.207v-33.244h-179.41v33.244h179.41zm-179.41-35.451h179.41v-31.932h-179.41v31.932z" fill="url(#paint78_linear)"/><defs><linearGradient id="paint4_linear" x1="248.131" y1="306.129" x2="343.505" y2="306.723" gradientUnits="userSpaceOnUse"><stop stop-color="#FEBD2F"/><stop offset=".249" stop-color="#F95721"/><stop offset=".503" stop-color="#FC1370"/><stop offset=".672" stop-color="#BA2DB2"/><stop offset=".776" stop-color="#8342E9"/><stop offset=".964" stop-color="#3F89FC"/></linearGradient><linearGradient id="paint5_linear" x1="222.684" y1="584.899" x2="323.281" y2="648.88" gradientUnits="userSpaceOnUse"><stop stop-color="#FEBD2F"/><stop offset=".249" stop-color="#F95721"/><stop offset=".503" stop-color="#FC1370"/><stop offset=".672" stop-color="#BA2DB2"/><stop offset=".776" stop-color="#8342E9"/><stop offset=".964" stop-color="#3F89FC"/></linearGradient><linearGradient id="paint6_linear" x1="100.676" y1="532.35" x2="181.154" y2="583.535" gradientUnits="userSpaceOnUse"><stop stop-color="#FEBD2F"/><stop offset=".249" stop-color="#F95721"/><stop offset=".503" stop-color="#FC1370"/><stop offset=".672" stop-color="#BA2DB2"/><stop offset=".776" stop-color="#8342E9"/><stop offset=".964" stop-color="#3F89FC"/></linearGradient><linearGradient id="paint7_linear" x1="21.241" y1="324.937" x2="101.718" y2="376.122" gradientUnits="userSpaceOnUse"><stop stop-color="#FEBD2F"/><stop offset=".249" stop-color="#F95721"/><stop offset=".503" stop-color="#FC1370"/><stop offset=".672" stop-color="#BA2DB2"/><stop offset=".776" stop-color="#8342E9"/><stop offset=".964" stop-color="#3F89FC"/></linearGradient><linearGradient id="paint8_linear" x1="226.066" y1="80.368" x2="345.284" y2="81.11" gradientUnits="userSpaceOnUse"><stop stop-color="#FEBD2F"/><stop offset=".249" stop-color="#F95721"/><stop offset=".503" stop-color="#FC1370"/><stop offset=".672" stop-color="#BA2DB2"/><stop offset=".776" stop-color="#8342E9"/><stop offset=".964" stop-color="#3F89FC"/></linearGradient><linearGradient id="paint9_linear" x1="259.164" y1="417.059" x2="353.236" y2="417.584" gradientUnits="userSpaceOnUse"><stop stop-color="#FEBD2F"/><stop offset=".249" stop-color="#F95721"/><stop offset=".503" stop-color="#FC1370"/><stop offset=".672" stop-color="#BA2DB2"/><stop offset=".776" stop-color="#8342E9"/><stop offset=".964" stop-color="#3F89FC"/></linearGradient><linearGradient id="paint10_linear" x1="151.044" y1="301.459" x2="224.958" y2="301.919" gradientUnits="userSpaceOnUse"><stop stop-color="#FEBD2F"/><stop offset=".249" stop-color="#F95721"/><stop offset=".503" stop-color="#FC1370"/><stop offset=".672" stop-color="#BA2DB2"/><stop offset=".776" stop-color="#8342E9"/><stop offset=".964" stop-color="#3F89FC"/></linearGradient><linearGradient id="paint11_linear" x1="102.502" y1="243.532" x2="145.262" y2="243.771" gradientUnits="userSpaceOnUse"><stop stop-color="#FEBD2F"/><stop offset=".249" stop-color="#F95721"/><stop offset=".503" stop-color="#FC1370"/><stop offset=".672" stop-color="#BA2DB2"/><stop offset=".776" stop-color="#8342E9"/><stop offset=".964" stop-color="#3F89FC"/></linearGradient><linearGradient id="paint12_linear" x1="58.371" y1="461.978" x2="101.131" y2="462.216" gradientUnits="userSpaceOnUse"><stop stop-color="#FEBD2F"/><stop offset=".249" stop-color="#F95721"/><stop offset=".503" stop-color="#FC1370"/><stop offset=".672" stop-color="#BA2DB2"/><stop offset=".776" stop-color="#8342E9"/><stop offset=".964" stop-color="#3F89FC"/></linearGradient><linearGradient id="paint13_linear" x1="235.735" y1="210.017" x2="289.005" y2="186.587" gradientUnits="userSpaceOnUse"><stop stop-color="#FEBD2F"/><stop offset=".249" stop-color="#F95721"/><stop offset=".503" stop-color="#FC1370"/><stop offset=".672" stop-color="#BA2DB2"/><stop offset=".776" stop-color="#8342E9"/><stop offset=".964" stop-color="#3F89FC"/></linearGradient><linearGradient id="paint14_linear" x1="294.985" y1="541.345" x2="269.862" y2="488.853" gradientUnits="userSpaceOnUse"><stop stop-color="#FEBD2F"/><stop offset=".249" stop-color="#F95721"/><stop offset=".503" stop-color="#FC1370"/><stop offset=".672" stop-color="#BA2DB2"/><stop offset=".776" stop-color="#8342E9"/><stop offset=".964" stop-color="#3F89FC"/></linearGradient><linearGradient id="paint15_linear" x1="148.679" y1="394.508" x2="220.926" y2="416.417" gradientUnits="userSpaceOnUse"><stop stop-color="#FEBD2F"/><stop offset=".249" stop-color="#F95721"/><stop offset=".503" stop-color="#FC1370"/><stop offset=".672" stop-color="#BA2DB2"/><stop offset=".776" stop-color="#8342E9"/><stop offset=".964" stop-color="#3F89FC"/></linearGradient><linearGradient id="paint16_linear" x1="1077.68" y1="99.293" x2="1419.28" y2="350.033" gradientUnits="userSpaceOnUse"><stop stop-color="#FEBD2F"/><stop offset=".249" stop-color="#F95721"/><stop offset=".464" stop-color="#BA2DB2"/><stop offset=".675" stop-color="#FC1370"/><stop offset=".978" stop-color="#FEB52E"/></linearGradient><linearGradient id="paint17_linear" x1="1383.39" y1="283.538" x2="1473.94" y2="319.732" gradientUnits="userSpaceOnUse"><stop stop-color="#FEBD2F"/><stop offset=".249" stop-color="#F95721"/><stop offset=".464" stop-color="#BA2DB2"/><stop offset=".675" stop-color="#FC1370"/><stop offset=".978" stop-color="#BC2CB1"/></linearGradient><linearGradient id="paint18_linear" x1="1383.39" y1="283.538" x2="1473.94" y2="319.732" gradientUnits="userSpaceOnUse"><stop stop-color="#FEBD2F"/><stop offset=".249" stop-color="#F95721"/><stop offset=".464" stop-color="#BA2DB2"/><stop offset=".675" stop-color="#FC1370"/><stop offset=".978" stop-color="#BC2CB1"/></linearGradient><linearGradient id="paint19_linear" x1="1383.39" y1="283.538" x2="1487.13" y2="300.946" gradientUnits="userSpaceOnUse"><stop stop-color="#6B5CF0"/><stop offset=".249" stop-color="#F95721"/><stop offset=".464" stop-color="#BA2DB2"/><stop offset=".675" stop-color="#FC1370"/><stop offset=".978" stop-color="#6B5BF0"/></linearGradient><linearGradient id="paint20_linear" x1="1077.78" y1="99.293" x2="1503.99" y2="233.603" gradientUnits="userSpaceOnUse"><stop stop-color="#FEBD2F"/><stop offset=".339" stop-color="#F95721"/><stop offset=".703" stop-color="#BA2DB2"/><stop offset="1" stop-color="#FC1370"/></linearGradient><linearGradient id="paint21_linear" x1="1077.78" y1="99.293" x2="1503.99" y2="233.603" gradientUnits="userSpaceOnUse"><stop stop-color="#3F89FC"/><stop offset=".339" stop-color="#F95721"/><stop offset=".703" stop-color="#BA2DB2"/><stop offset="1" stop-color="#4088FC"/></linearGradient><linearGradient id="paint22_linear" x1="1120.81" y1="236.226" x2="1440.87" y2="323.928" gradientUnits="userSpaceOnUse"><stop stop-color="#FEBD2F"/><stop offset=".249" stop-color="#F95721"/><stop offset=".503" stop-color="#FC1370"/><stop offset=".721" stop-color="#BA2DB2"/><stop offset=".964" stop-color="#FA6623"/></linearGradient><linearGradient id="paint23_linear" x1="1415.38" y1="304.434" x2="1501.83" y2="304.771" gradientUnits="userSpaceOnUse"><stop stop-color="#FEBD2F"/><stop offset=".249" stop-color="#F95721"/><stop offset=".503" stop-color="#FC1370"/><stop offset=".672" stop-color="#BA2DB2"/><stop offset=".776" stop-color="#8342E9"/><stop offset=".964" stop-color="#3F89FC"/></linearGradient><linearGradient id="paint24_linear" x1="1415.38" y1="304.434" x2="1501.83" y2="304.771" gradientUnits="userSpaceOnUse"><stop stop-color="#FEBD2F"/><stop offset=".249" stop-color="#F95721"/><stop offset=".503" stop-color="#FC1370"/><stop offset=".672" stop-color="#BA2DB2"/><stop offset=".776" stop-color="#8342E9"/><stop offset=".964" stop-color="#3F89FC"/></linearGradient><linearGradient id="paint25_linear" x1="1090.92" y1="326.565" x2="1432.52" y2="577.304" gradientUnits="userSpaceOnUse"><stop stop-color="#FEBD2F"/><stop offset=".249" stop-color="#F95721"/><stop offset=".464" stop-color="#BA2DB2"/><stop offset=".675" stop-color="#FC1370"/><stop offset=".978" stop-color="#FEB52E"/></linearGradient><linearGradient id="paint26_linear" x1="1396.63" y1="510.809" x2="1487.18" y2="547.004" gradientUnits="userSpaceOnUse"><stop stop-color="#FEBD2F"/><stop offset=".249" stop-color="#F95721"/><stop offset=".464" stop-color="#BA2DB2"/><stop offset=".675" stop-color="#FC1370"/><stop offset=".978" stop-color="#BC2CB1"/></linearGradient><linearGradient id="paint27_linear" x1="1396.63" y1="510.809" x2="1487.18" y2="547.004" gradientUnits="userSpaceOnUse"><stop stop-color="#FEBD2F"/><stop offset=".249" stop-color="#F95721"/><stop offset=".464" stop-color="#BA2DB2"/><stop offset=".675" stop-color="#FC1370"/><stop offset=".978" stop-color="#BC2CB1"/></linearGradient><linearGradient id="paint28_linear" x1="1396.63" y1="510.809" x2="1500.37" y2="528.217" gradientUnits="userSpaceOnUse"><stop stop-color="#6B5CF0"/><stop offset=".249" stop-color="#F95721"/><stop offset=".464" stop-color="#BA2DB2"/><stop offset=".675" stop-color="#FC1370"/><stop offset=".978" stop-color="#6B5BF0"/></linearGradient><linearGradient id="paint29_linear" x1="1091.02" y1="326.565" x2="1517.23" y2="460.875" gradientUnits="userSpaceOnUse"><stop stop-color="#FEBD2F"/><stop offset=".339" stop-color="#F95721"/><stop offset=".703" stop-color="#BA2DB2"/><stop offset="1" stop-color="#FC1370"/></linearGradient><linearGradient id="paint30_linear" x1="1091.02" y1="326.565" x2="1517.23" y2="460.875" gradientUnits="userSpaceOnUse"><stop stop-color="#3F89FC"/><stop offset=".339" stop-color="#F95721"/><stop offset=".703" stop-color="#BA2DB2"/><stop offset="1" stop-color="#4088FC"/></linearGradient><linearGradient id="paint31_linear" x1="1134.05" y1="463.498" x2="1454.11" y2="551.199" gradientUnits="userSpaceOnUse"><stop stop-color="#FEBD2F"/><stop offset=".249" stop-color="#F95721"/><stop offset=".503" stop-color="#FC1370"/><stop offset=".721" stop-color="#BA2DB2"/><stop offset=".964" stop-color="#FA6623"/></linearGradient><linearGradient id="paint32_linear" x1="1428.62" y1="531.706" x2="1515.07" y2="532.042" gradientUnits="userSpaceOnUse"><stop stop-color="#FEBD2F"/><stop offset=".249" stop-color="#F95721"/><stop offset=".503" stop-color="#FC1370"/><stop offset=".672" stop-color="#BA2DB2"/><stop offset=".776" stop-color="#8342E9"/><stop offset=".964" stop-color="#3F89FC"/></linearGradient><linearGradient id="paint33_linear" x1="1428.62" y1="531.706" x2="1515.07" y2="532.042" gradientUnits="userSpaceOnUse"><stop stop-color="#FEBD2F"/><stop offset=".249" stop-color="#F95721"/><stop offset=".503" stop-color="#FC1370"/><stop offset=".672" stop-color="#BA2DB2"/><stop offset=".776" stop-color="#8342E9"/><stop offset=".964" stop-color="#3F89FC"/></linearGradient><linearGradient id="paint34_linear" x1="1128.43" y1="556.043" x2="1470.03" y2="806.783" gradientUnits="userSpaceOnUse"><stop stop-color="#FEBD2F"/><stop offset=".249" stop-color="#F95721"/><stop offset=".464" stop-color="#BA2DB2"/><stop offset=".675" stop-color="#FC1370"/><stop offset=".978" stop-color="#FEB52E"/></linearGradient><linearGradient id="paint35_linear" x1="1434.14" y1="740.287" x2="1524.69" y2="776.482" gradientUnits="userSpaceOnUse"><stop stop-color="#FEBD2F"/><stop offset=".249" stop-color="#F95721"/><stop offset=".464" stop-color="#BA2DB2"/><stop offset=".675" stop-color="#FC1370"/><stop offset=".978" stop-color="#BC2CB1"/></linearGradient><linearGradient id="paint36_linear" x1="1434.14" y1="740.287" x2="1524.69" y2="776.482" gradientUnits="userSpaceOnUse"><stop stop-color="#FEBD2F"/><stop offset=".249" stop-color="#F95721"/><stop offset=".464" stop-color="#BA2DB2"/><stop offset=".675" stop-color="#FC1370"/><stop offset=".978" stop-color="#BC2CB1"/></linearGradient><linearGradient id="paint37_linear" x1="1434.14" y1="740.287" x2="1537.89" y2="757.695" gradientUnits="userSpaceOnUse"><stop stop-color="#6B5CF0"/><stop offset=".249" stop-color="#F95721"/><stop offset=".464" stop-color="#BA2DB2"/><stop offset=".675" stop-color="#FC1370"/><stop offset=".978" stop-color="#6B5BF0"/></linearGradient><linearGradient id="paint38_linear" x1="1128.53" y1="556.043" x2="1554.74" y2="690.353" gradientUnits="userSpaceOnUse"><stop stop-color="#FEBD2F"/><stop offset=".339" stop-color="#F95721"/><stop offset=".703" stop-color="#BA2DB2"/><stop offset="1" stop-color="#FC1370"/></linearGradient><linearGradient id="paint39_linear" x1="1128.53" y1="556.043" x2="1554.74" y2="690.353" gradientUnits="userSpaceOnUse"><stop stop-color="#3F89FC"/><stop offset=".339" stop-color="#F95721"/><stop offset=".703" stop-color="#BA2DB2"/><stop offset="1" stop-color="#4088FC"/></linearGradient><linearGradient id="paint40_linear" x1="1171.56" y1="692.976" x2="1491.62" y2="780.677" gradientUnits="userSpaceOnUse"><stop stop-color="#FEBD2F"/><stop offset=".249" stop-color="#F95721"/><stop offset=".503" stop-color="#FC1370"/><stop offset=".721" stop-color="#BA2DB2"/><stop offset=".964" stop-color="#FA6623"/></linearGradient><linearGradient id="paint41_linear" x1="1466.13" y1="761.184" x2="1552.58" y2="761.52" gradientUnits="userSpaceOnUse"><stop stop-color="#FEBD2F"/><stop offset=".249" stop-color="#F95721"/><stop offset=".503" stop-color="#FC1370"/><stop offset=".672" stop-color="#BA2DB2"/><stop offset=".776" stop-color="#8342E9"/><stop offset=".964" stop-color="#3F89FC"/></linearGradient><linearGradient id="paint42_linear" x1="1466.13" y1="761.184" x2="1552.58" y2="761.52" gradientUnits="userSpaceOnUse"><stop stop-color="#FEBD2F"/><stop offset=".249" stop-color="#F95721"/><stop offset=".503" stop-color="#FC1370"/><stop offset=".672" stop-color="#BA2DB2"/><stop offset=".776" stop-color="#8342E9"/><stop offset=".964" stop-color="#3F89FC"/></linearGradient><linearGradient id="paint43_linear" x1="309.913" y1="378.419" x2="1226.88" y2="385.696" gradientUnits="userSpaceOnUse"><stop stop-color="#FEBD2F"/><stop offset=".249" stop-color="#F95721"/><stop offset=".503" stop-color="#FC1370"/><stop offset=".672" stop-color="#BA2DB2"/><stop offset=".776" stop-color="#8342E9"/><stop offset=".964" stop-color="#3F89FC"/></linearGradient><linearGradient id="paint44_linear" x1="309.913" y1="378.419" x2="1226.88" y2="385.696" gradientUnits="userSpaceOnUse"><stop stop-color="#FEBD2F"/><stop offset=".249" stop-color="#F95721"/><stop offset=".503" stop-color="#FC1370"/><stop offset=".672" stop-color="#BA2DB2"/><stop offset=".776" stop-color="#8342E9"/><stop offset=".964" stop-color="#3F89FC"/></linearGradient><linearGradient id="paint45_linear" x1="358.497" y1="440.131" x2="1275.46" y2="447.408" gradientUnits="userSpaceOnUse"><stop stop-color="#FEBD2F"/><stop offset=".249" stop-color="#F95721"/><stop offset=".503" stop-color="#FC1370"/><stop offset=".672" stop-color="#BA2DB2"/><stop offset=".776" stop-color="#8342E9"/><stop offset=".964" stop-color="#3F89FC"/></linearGradient><linearGradient id="paint46_linear" x1="361.775" y1="519.211" x2="393.67" y2="686.724" gradientUnits="userSpaceOnUse"><stop stop-color="#FEBD2F"/><stop offset=".249" stop-color="#F95721"/><stop offset=".503" stop-color="#FC1370"/><stop offset=".672" stop-color="#BA2DB2"/><stop offset=".776" stop-color="#8342E9"/><stop offset=".964" stop-color="#3F89FC"/></linearGradient><linearGradient id="paint47_linear" x1="358.497" y1="264.486" x2="390.392" y2="432" gradientUnits="userSpaceOnUse"><stop stop-color="#FEBD2F"/><stop offset=".249" stop-color="#F95721"/><stop offset=".503" stop-color="#FC1370"/><stop offset=".672" stop-color="#BA2DB2"/><stop offset=".776" stop-color="#8342E9"/><stop offset=".964" stop-color="#3F89FC"/></linearGradient><linearGradient id="paint48_linear" x1="309.916" y1="775.424" x2="1202.26" y2="965.928" gradientUnits="userSpaceOnUse"><stop stop-color="#FEBD2F"/><stop offset=".249" stop-color="#F95721"/><stop offset=".503" stop-color="#FC1370"/><stop offset=".672" stop-color="#BA2DB2"/><stop offset=".776" stop-color="#8342E9"/><stop offset=".964" stop-color="#3F89FC"/></linearGradient><linearGradient id="paint49_linear" x1="675.094" y1="195.278" x2="805.843" y2="87.607" gradientUnits="userSpaceOnUse"><stop stop-color="#FEBD2F"/><stop offset=".249" stop-color="#F95721"/><stop offset=".503" stop-color="#FC1370"/><stop offset=".672" stop-color="#BA2DB2"/><stop offset=".776" stop-color="#8342E9"/><stop offset=".964" stop-color="#3F89FC"/></linearGradient><linearGradient id="paint50_linear" x1="806.38" y1="200.793" x2="952.524" y2="83.116" gradientUnits="userSpaceOnUse"><stop stop-color="#FEBD2F"/><stop offset=".249" stop-color="#F95721"/><stop offset=".503" stop-color="#FC1370"/><stop offset=".672" stop-color="#BA2DB2"/><stop offset=".776" stop-color="#8342E9"/><stop offset=".964" stop-color="#3F89FC"/></linearGradient><linearGradient id="paint51_linear" x1="947.597" y1="197.483" x2="1083.84" y2="85.372" gradientUnits="userSpaceOnUse"><stop stop-color="#FEBD2F"/><stop offset=".249" stop-color="#F95721"/><stop offset=".503" stop-color="#FC1370"/><stop offset=".672" stop-color="#BA2DB2"/><stop offset=".776" stop-color="#8342E9"/><stop offset=".964" stop-color="#3F89FC"/></linearGradient><linearGradient id="paint52_linear" x1="1087.71" y1="198.587" x2="1231.63" y2="77.611" gradientUnits="userSpaceOnUse"><stop stop-color="#FEBD2F"/><stop offset=".249" stop-color="#F95721"/><stop offset=".503" stop-color="#FC1370"/><stop offset=".672" stop-color="#BA2DB2"/><stop offset=".776" stop-color="#8342E9"/><stop offset=".964" stop-color="#3F89FC"/></linearGradient><linearGradient id="paint53_linear" x1="916.53" y1="395.637" x2="1266.96" y2="401.978" gradientUnits="userSpaceOnUse"><stop stop-color="#FEBD2F"/><stop offset=".249" stop-color="#F95721"/><stop offset=".503" stop-color="#FC1370"/><stop offset=".672" stop-color="#BA2DB2"/><stop offset=".776" stop-color="#8342E9"/><stop offset=".964" stop-color="#3F89FC"/></linearGradient><linearGradient id="paint54_linear" x1="933.596" y1="395.773" x2="1246.59" y2="404.376" gradientUnits="userSpaceOnUse"><stop stop-color="#FEBD2F"/><stop offset=".249" stop-color="#F95721"/><stop offset=".503" stop-color="#FC1370"/><stop offset=".672" stop-color="#BA2DB2"/><stop offset=".776" stop-color="#8342E9"/><stop offset=".964" stop-color="#3F89FC"/></linearGradient><linearGradient id="paint55_linear" x1="403.138" y1="147.145" x2="591.05" y2="149.239" gradientUnits="userSpaceOnUse"><stop stop-color="#FEBD2F"/><stop offset=".249" stop-color="#F95721"/><stop offset=".503" stop-color="#FC1370"/><stop offset=".672" stop-color="#BA2DB2"/><stop offset=".776" stop-color="#8342E9"/><stop offset=".964" stop-color="#3F89FC"/></linearGradient><linearGradient id="paint56_linear" x1="403.138" y1="147.145" x2="591.05" y2="149.239" gradientUnits="userSpaceOnUse"><stop stop-color="#FEBD2F"/><stop offset=".249" stop-color="#F95721"/><stop offset=".503" stop-color="#FC1370"/><stop offset=".672" stop-color="#BA2DB2"/><stop offset=".776" stop-color="#8342E9"/><stop offset=".964" stop-color="#3F89FC"/></linearGradient><linearGradient id="paint57_linear" x1="421.519" y1="527.178" x2="432.868" y2="237.742" gradientUnits="userSpaceOnUse"><stop stop-color="#FEBD2F"/><stop offset=".249" stop-color="#F95721"/><stop offset=".503" stop-color="#FC1370"/><stop offset=".672" stop-color="#BA2DB2"/><stop offset=".776" stop-color="#8342E9"/><stop offset=".964" stop-color="#3F89FC"/></linearGradient><linearGradient id="paint58_linear" x1="419.549" y1="530.46" x2="434.641" y2="278.264" gradientUnits="userSpaceOnUse"><stop stop-color="#FEBD2F"/><stop offset=".249" stop-color="#F95721"/><stop offset=".503" stop-color="#FC1370"/><stop offset=".672" stop-color="#BA2DB2"/><stop offset=".776" stop-color="#8342E9"/><stop offset=".964" stop-color="#3F89FC"/></linearGradient><linearGradient id="paint59_linear" x1="403.138" y1="399.37" x2="488.441" y2="399.725" gradientUnits="userSpaceOnUse"><stop stop-color="#FEBD2F"/><stop offset=".249" stop-color="#F95721"/><stop offset=".503" stop-color="#FC1370"/><stop offset=".672" stop-color="#BA2DB2"/><stop offset=".776" stop-color="#8342E9"/><stop offset=".964" stop-color="#3F89FC"/></linearGradient><linearGradient id="paint60_linear" x1="425.457" y1="404.409" x2="473.394" y2="326.544" gradientUnits="userSpaceOnUse"><stop stop-color="#FEBD2F"/><stop offset=".249" stop-color="#F95721"/><stop offset=".503" stop-color="#FC1370"/><stop offset=".672" stop-color="#BA2DB2"/><stop offset=".776" stop-color="#8342E9"/><stop offset=".964" stop-color="#3F89FC"/></linearGradient><linearGradient id="paint61_linear" x1="420.205" y1="379.505" x2="470.852" y2="379.809" gradientUnits="userSpaceOnUse"><stop stop-color="#FEBD2F"/><stop offset=".249" stop-color="#F95721"/><stop offset=".503" stop-color="#FC1370"/><stop offset=".672" stop-color="#BA2DB2"/><stop offset=".776" stop-color="#8342E9"/><stop offset=".964" stop-color="#3F89FC"/></linearGradient><linearGradient id="paint62_linear" x1="755.024" y1="525.864" x2="766.373" y2="236.428" gradientUnits="userSpaceOnUse"><stop stop-color="#FEBD2F"/><stop offset=".249" stop-color="#F95721"/><stop offset=".503" stop-color="#FC1370"/><stop offset=".672" stop-color="#BA2DB2"/><stop offset=".776" stop-color="#8342E9"/><stop offset=".964" stop-color="#3F89FC"/></linearGradient><linearGradient id="paint63_linear" x1="753.054" y1="529.146" x2="768.146" y2="276.95" gradientUnits="userSpaceOnUse"><stop stop-color="#FEBD2F"/><stop offset=".249" stop-color="#F95721"/><stop offset=".503" stop-color="#FC1370"/><stop offset=".672" stop-color="#BA2DB2"/><stop offset=".776" stop-color="#8342E9"/><stop offset=".964" stop-color="#3F89FC"/></linearGradient><linearGradient id="paint64_linear" x1="736.643" y1="398.056" x2="821.946" y2="398.411" gradientUnits="userSpaceOnUse"><stop stop-color="#FEBD2F"/><stop offset=".249" stop-color="#F95721"/><stop offset=".503" stop-color="#FC1370"/><stop offset=".672" stop-color="#BA2DB2"/><stop offset=".776" stop-color="#8342E9"/><stop offset=".964" stop-color="#3F89FC"/></linearGradient><linearGradient id="paint65_linear" x1="758.966" y1="403.096" x2="806.904" y2="325.232" gradientUnits="userSpaceOnUse"><stop stop-color="#FEBD2F"/><stop offset=".249" stop-color="#F95721"/><stop offset=".503" stop-color="#FC1370"/><stop offset=".672" stop-color="#BA2DB2"/><stop offset=".776" stop-color="#8342E9"/><stop offset=".964" stop-color="#3F89FC"/></linearGradient><linearGradient id="paint66_linear" x1="753.714" y1="378.192" x2="804.362" y2="378.496" gradientUnits="userSpaceOnUse"><stop stop-color="#FEBD2F"/><stop offset=".249" stop-color="#F95721"/><stop offset=".503" stop-color="#FC1370"/><stop offset=".672" stop-color="#BA2DB2"/><stop offset=".776" stop-color="#8342E9"/><stop offset=".964" stop-color="#3F89FC"/></linearGradient><linearGradient id="paint67_linear" x1="534.437" y1="525.864" x2="545.787" y2="236.428" gradientUnits="userSpaceOnUse"><stop stop-color="#FEBD2F"/><stop offset=".249" stop-color="#F95721"/><stop offset=".503" stop-color="#FC1370"/><stop offset=".672" stop-color="#BA2DB2"/><stop offset=".776" stop-color="#8342E9"/><stop offset=".964" stop-color="#3F89FC"/></linearGradient><linearGradient id="paint68_linear" x1="532.468" y1="529.146" x2="547.56" y2="276.95" gradientUnits="userSpaceOnUse"><stop stop-color="#FEBD2F"/><stop offset=".249" stop-color="#F95721"/><stop offset=".503" stop-color="#FC1370"/><stop offset=".672" stop-color="#BA2DB2"/><stop offset=".776" stop-color="#8342E9"/><stop offset=".964" stop-color="#3F89FC"/></linearGradient><linearGradient id="paint69_linear" x1="516.057" y1="398.056" x2="601.359" y2="398.411" gradientUnits="userSpaceOnUse"><stop stop-color="#FEBD2F"/><stop offset=".249" stop-color="#F95721"/><stop offset=".503" stop-color="#FC1370"/><stop offset=".672" stop-color="#BA2DB2"/><stop offset=".776" stop-color="#8342E9"/><stop offset=".964" stop-color="#3F89FC"/></linearGradient><linearGradient id="paint70_linear" x1="538.379" y1="438.546" x2="586.316" y2="360.682" gradientUnits="userSpaceOnUse"><stop stop-color="#FEBD2F"/><stop offset=".249" stop-color="#F95721"/><stop offset=".503" stop-color="#FC1370"/><stop offset=".672" stop-color="#BA2DB2"/><stop offset=".776" stop-color="#8342E9"/><stop offset=".964" stop-color="#3F89FC"/></linearGradient><linearGradient id="paint71_linear" x1="533.127" y1="413.642" x2="583.775" y2="413.946" gradientUnits="userSpaceOnUse"><stop stop-color="#FEBD2F"/><stop offset=".249" stop-color="#F95721"/><stop offset=".503" stop-color="#FC1370"/><stop offset=".672" stop-color="#BA2DB2"/><stop offset=".776" stop-color="#8342E9"/><stop offset=".964" stop-color="#3F89FC"/></linearGradient><linearGradient id="paint72_linear" x1="647.361" y1="525.864" x2="658.711" y2="236.428" gradientUnits="userSpaceOnUse"><stop stop-color="#FEBD2F"/><stop offset=".249" stop-color="#F95721"/><stop offset=".503" stop-color="#FC1370"/><stop offset=".672" stop-color="#BA2DB2"/><stop offset=".776" stop-color="#8342E9"/><stop offset=".964" stop-color="#3F89FC"/></linearGradient><linearGradient id="paint73_linear" x1="645.392" y1="529.146" x2="660.484" y2="276.95" gradientUnits="userSpaceOnUse"><stop stop-color="#FEBD2F"/><stop offset=".249" stop-color="#F95721"/><stop offset=".503" stop-color="#FC1370"/><stop offset=".672" stop-color="#BA2DB2"/><stop offset=".776" stop-color="#8342E9"/><stop offset=".964" stop-color="#3F89FC"/></linearGradient><linearGradient id="paint74_linear" x1="628.98" y1="398.056" x2="714.283" y2="398.411" gradientUnits="userSpaceOnUse"><stop stop-color="#FEBD2F"/><stop offset=".249" stop-color="#F95721"/><stop offset=".503" stop-color="#FC1370"/><stop offset=".672" stop-color="#BA2DB2"/><stop offset=".776" stop-color="#8342E9"/><stop offset=".964" stop-color="#3F89FC"/></linearGradient><linearGradient id="paint75_linear" x1="651.303" y1="438.546" x2="699.241" y2="360.682" gradientUnits="userSpaceOnUse"><stop stop-color="#FEBD2F"/><stop offset=".249" stop-color="#F95721"/><stop offset=".503" stop-color="#FC1370"/><stop offset=".672" stop-color="#BA2DB2"/><stop offset=".776" stop-color="#8342E9"/><stop offset=".964" stop-color="#3F89FC"/></linearGradient><linearGradient id="paint76_linear" x1="646.051" y1="413.642" x2="696.699" y2="413.946" gradientUnits="userSpaceOnUse"><stop stop-color="#FEBD2F"/><stop offset=".249" stop-color="#F95721"/><stop offset=".503" stop-color="#FC1370"/><stop offset=".672" stop-color="#BA2DB2"/><stop offset=".776" stop-color="#8342E9"/><stop offset=".964" stop-color="#3F89FC"/></linearGradient><linearGradient id="paint77_linear" x1="399.28" y1="680.712" x2="639.18" y2="530.793" gradientUnits="userSpaceOnUse"><stop stop-color="#FEBD2F"/><stop offset=".249" stop-color="#F95721"/><stop offset=".503" stop-color="#FC1370"/><stop offset=".672" stop-color="#BA2DB2"/><stop offset=".776" stop-color="#8342E9"/><stop offset=".964" stop-color="#3F89FC"/></linearGradient><linearGradient id="paint78_linear" x1="1024.83" y1="686.229" x2="1245.95" y2="530.87" gradientUnits="userSpaceOnUse"><stop stop-color="#FEBD2F"/><stop offset=".249" stop-color="#F95721"/><stop offset=".503" stop-color="#FC1370"/><stop offset=".672" stop-color="#BA2DB2"/><stop offset=".776" stop-color="#8342E9"/><stop offset=".964" stop-color="#3F89FC"/></linearGradient><radialGradient id="paint0_radial" cx="0" cy="0" r="1" gradientUnits="userSpaceOnUse" gradientTransform="matrix(0 438.015 -516.928 0 742.826 673.23)"><stop stop-color="#3F89FC"/><stop offset="1" stop-color="#111" stop-opacity="0"/></radialGradient><radialGradient id="paint1_radial" cx="0" cy="0" r="1" gradientUnits="userSpaceOnUse" gradientTransform="scale(459.61 411.266) rotate(90 .006 1.615)"><stop stop-color="#8342E9"/><stop offset="1" stop-color="#111" stop-opacity="0"/></radialGradient><radialGradient id="paint2_radial" cx="0" cy="0" r="1" gradientUnits="userSpaceOnUse" gradientTransform="scale(259.722 228.624) rotate(90 .165 2.844)"><stop stop-color="#BA2DB2"/><stop offset="1" stop-color="#38488F" stop-opacity="0"/></radialGradient><radialGradient id="paint3_radial" cx="0" cy="0" r="1" gradientUnits="userSpaceOnUse" gradientTransform="matrix(0 222.908 -253.229 0 806.806 562.65)"><stop stop-color="#F95721"/><stop offset=".974" stop-color="#443D9D" stop-opacity="0"/></radialGradient><filter id="filter0_b" x="93.676" y="209.62" width="59.777" height="61.783" filterUnits="userSpaceOnUse" color-interpolation-filters="sRGB"><feFlood flood-opacity="0" result="BackgroundImageFix"/><feGaussianBlur in="BackgroundImage" stdDeviation="4.413"/><feComposite in2="SourceAlpha" operator="in" result="effect1_backgroundBlur"/><feBlend in="SourceGraphic" in2="effect1_backgroundBlur" result="shape"/></filter><filter id="filter1_b" x="49.545" y="428.066" width="59.777" height="61.783" filterUnits="userSpaceOnUse" color-interpolation-filters="sRGB"><feFlood flood-opacity="0" result="BackgroundImageFix"/><feGaussianBlur in="BackgroundImage" stdDeviation="4.413"/><feComposite in2="SourceAlpha" operator="in" result="effect1_backgroundBlur"/><feBlend in="SourceGraphic" in2="effect1_backgroundBlur" result="shape"/></filter><filter id="filter2_b" x="301.087" y="-8.826" width="921.01" height="683.353" filterUnits="userSpaceOnUse" color-interpolation-filters="sRGB"><feFlood flood-opacity="0" result="BackgroundImageFix"/><feGaussianBlur in="BackgroundImage" stdDeviation="4.413"/><feComposite in2="SourceAlpha" operator="in" result="effect1_backgroundBlur"/><feBlend in="SourceGraphic" in2="effect1_backgroundBlur" result="shape"/></filter></defs></svg>