<svg width="141" height="141" fill="none" xmlns="http://www.w3.org/2000/svg"><mask id="a" fill="#fff"><path fill-rule="evenodd" clip-rule="evenodd" d="M77.81 30.283a2.849 2.849 0 00-3.023.343L46.993 52.86H33.715A5.723 5.723 0 0028 58.575V81.43a5.72 5.72 0 005.714 5.714h13.28l27.787 22.233c.52.412 1.154.623 1.788.623.423 0 .846-.097 1.24-.286a2.85 2.85 0 001.617-2.571V32.86a2.866 2.866 0 00-1.617-2.577zm16.08 19.514a2.864 2.864 0 00-4.04.023 2.866 2.866 0 00.022 4.045c4.32 4.263 6.697 9.994 6.697 16.137 0 6.142-2.377 11.873-6.697 16.136a2.86 2.86 0 00-.023 4.04c.56.566 1.297.846 2.029.846a2.85 2.85 0 002.011-.829c5.417-5.331 8.394-12.508 8.394-20.193 0-7.686-2.977-14.863-8.394-20.205zm4.016-8.034a2.861 2.861 0 014.046-.017c7.588 7.52 11.759 17.553 11.759 28.256 0 10.702-4.171 20.736-11.759 28.25a2.861 2.861 0 01-2.017.828c-.732 0-1.463-.28-2.029-.84a2.871 2.871 0 01.017-4.045c6.497-6.44 10.074-15.028 10.074-24.193 0-9.166-3.577-17.76-10.074-24.2a2.864 2.864 0 01-.017-4.04z"/></mask><path fill-rule="evenodd" clip-rule="evenodd" d="M77.81 30.283a2.849 2.849 0 00-3.023.343L46.993 52.86H33.715A5.723 5.723 0 0028 58.575V81.43a5.72 5.72 0 005.714 5.714h13.28l27.787 22.233c.52.412 1.154.623 1.788.623.423 0 .846-.097 1.24-.286a2.85 2.85 0 001.617-2.571V32.86a2.866 2.866 0 00-1.617-2.577zm16.08 19.514a2.864 2.864 0 00-4.04.023 2.866 2.866 0 00.022 4.045c4.32 4.263 6.697 9.994 6.697 16.137 0 6.142-2.377 11.873-6.697 16.136a2.86 2.86 0 00-.023 4.04c.56.566 1.297.846 2.029.846a2.85 2.85 0 002.011-.829c5.417-5.331 8.394-12.508 8.394-20.193 0-7.686-2.977-14.863-8.394-20.205zm4.016-8.034a2.861 2.861 0 014.046-.017c7.588 7.52 11.759 17.553 11.759 28.256 0 10.702-4.171 20.736-11.759 28.25a2.861 2.861 0 01-2.017.828c-.732 0-1.463-.28-2.029-.84a2.871 2.871 0 01.017-4.045c6.497-6.44 10.074-15.028 10.074-24.193 0-9.166-3.577-17.76-10.074-24.2a2.864 2.864 0 01-.017-4.04z" fill="url(#paint0_linear)" fill-opacity=".2"/><path d="M74.787 30.626l.624.781.004-.003-.628-.778zm3.022-.343l.437-.9-.006-.002-.43.902zM46.993 52.86v1h.351l.274-.219-.625-.78zm0 34.285l.625-.781-.274-.22h-.35v1zm27.788 22.233l-.625.781.004.003.62-.784zm3.028.337l.432.902-.432-.902zM89.85 49.82l-.709-.706-.003.004.712.702zm4.04-.023l.702-.712-.702.712zm-4.017 4.068l-.705.71.003.002.702-.712zm0 32.273l.702.713v-.001l-.702-.712zm-.023 4.04l-.712.702.002.002.71-.704zm4.04.017l-.701-.713-.002.002.703.711zm8.063-48.45l.704-.71h-.001l-.703.71zm-4.046.018l-.709-.706-.002.002.711.704zm4.046 56.489l.703.71-.703-.71zm-4.046-.011l-.71.703.007.007.703-.71zm.017-4.046l-.704-.71-.003.003.707.707zm0-48.392l-.705.709h.001l.704-.71zM75.415 31.405a1.848 1.848 0 011.964-.22l.86-1.804a3.848 3.848 0 00-4.08.467l1.255 1.556zM47.618 53.64l27.793-22.233-1.25-1.562L46.37 52.08l1.25 1.561zm-13.904.22h13.28v-2h-13.28v2zM29 58.573a4.723 4.723 0 014.714-4.715v-2c-3.7 0-6.714 3.014-6.714 6.715h2zm0 22.856V58.574h-2V81.43h2zm4.714 4.714A4.72 4.72 0 0129 81.43h-2a6.72 6.72 0 006.714 6.714v-2zm13.28 0h-13.28v2h13.28v-2zm28.412 22.452L47.618 86.363l-1.25 1.562 27.788 22.233 1.25-1.562zm1.163.404c-.413 0-.828-.138-1.168-.407l-1.24 1.568c.7.554 1.553.839 2.408.839v-2zm.809-.188c-.264.126-.54.188-.809.188v2c.577 0 1.147-.133 1.672-.384l-.863-1.804zm1.048-1.669c0 .713-.408 1.362-1.05 1.67l.866 1.803a3.852 3.852 0 002.184-3.473h-2zm0-74.283v74.283h2V32.86h-2zm-1.053-1.677a1.866 1.866 0 011.053 1.677h2c0-1.482-.849-2.83-2.18-3.476l-.873 1.799zm13.185 19.342a1.864 1.864 0 012.63-.016l1.403-1.425a3.864 3.864 0 00-5.45.03l1.417 1.41zm.02 2.631a1.866 1.866 0 01-.016-2.635l-1.425-1.403a3.866 3.866 0 00.03 5.456l1.41-1.418zm6.991 16.846c0-6.407-2.481-12.395-6.995-16.849l-1.404 1.424c4.126 4.072 6.399 9.546 6.399 15.425h2zM90.574 86.85c4.514-4.453 6.995-10.442 6.995-16.848h-2c0 5.879-2.273 11.352-6.4 15.424l1.406 1.424zm-.012 2.626a1.859 1.859 0 01.012-2.625l-1.403-1.425a3.859 3.859 0 00-.034 5.454l1.425-1.404zm1.316.548c-.477 0-.955-.182-1.318-.55l-1.421 1.407a3.847 3.847 0 002.739 1.143v-2zm1.308-.54a1.85 1.85 0 01-1.308.54v2c.979 0 1.96-.371 2.715-1.118l-1.407-1.422zm8.097-19.482c0 7.421-2.872 14.34-8.095 19.48l1.403 1.426c5.61-5.522 8.692-12.957 8.692-20.906h-2zm-8.096-19.493c5.224 5.152 8.096 12.071 8.096 19.493h2c0-7.95-3.082-15.384-8.692-20.917l-1.404 1.424zm9.468-9.474a3.86 3.86 0 00-5.458.023l1.418 1.41a1.86 1.86 0 012.633-.012l1.407-1.421zm12.056 28.967c0-10.968-4.277-21.258-12.055-28.967l-1.408 1.421c7.398 7.331 11.463 17.109 11.463 27.546h2zm-12.056 28.96c7.779-7.702 12.056-17.992 12.056-28.96h-2c0 10.436-4.065 20.214-11.463 27.54l1.407 1.42zm-2.72 1.118a3.86 3.86 0 002.72-1.117l-1.407-1.422a1.86 1.86 0 01-1.313.54v1.999zm-2.732-1.129a3.874 3.874 0 002.732 1.129v-2c-.475 0-.952-.18-1.325-.55l-1.407 1.421zm.013-5.463a3.871 3.871 0 00-.02 5.456l1.421-1.407a1.871 1.871 0 01.013-2.635l-1.414-1.414zm9.781-23.486c0 8.899-3.471 17.231-9.778 23.483l1.408 1.42c6.687-6.628 10.37-15.472 10.37-24.903h-2zm-9.778-23.49c6.307 6.252 9.778 14.59 9.778 23.49h2c0-9.432-3.683-18.282-10.37-24.91l-1.408 1.42zm-.023-5.453a3.864 3.864 0 00.022 5.453l1.41-1.418a1.864 1.864 0 01-.011-2.628l-1.422-1.407z" fill="url(#paint1_linear)" mask="url(#a)"/><circle cx="70.5" cy="70.5" r="70" stroke="url(#paint2_linear)"/><defs><linearGradient id="paint0_linear" x1="28" y1="91.515" x2="117.58" y2="52.52" gradientUnits="userSpaceOnUse"><stop stop-color="#FEBD2F"/><stop offset=".249" stop-color="#F95721"/><stop offset=".503" stop-color="#FC1370"/><stop offset=".672" stop-color="#BA2DB2"/><stop offset=".776" stop-color="#8342E9"/><stop offset=".964" stop-color="#3F89FC"/></linearGradient><linearGradient id="paint1_linear" x1="28" y1="75.476" x2="124.818" y2="44.192" gradientUnits="userSpaceOnUse"><stop stop-color="#FEBD2F"/><stop offset=".249" stop-color="#F95721"/><stop offset=".503" stop-color="#FC1370"/><stop offset=".571" stop-color="#BA2DB2"/><stop offset=".776" stop-color="#8342E9"/><stop offset=".964" stop-color="#3F89FC"/></linearGradient><linearGradient id="paint2_linear" x1="0" y1="80.152" x2="143.128" y2="80.989" gradientUnits="userSpaceOnUse"><stop stop-color="#FEBD2F"/><stop offset=".249" stop-color="#F95721"/><stop offset=".503" stop-color="#FC1370"/><stop offset=".672" stop-color="#BA2DB2"/><stop offset=".776" stop-color="#8342E9"/><stop offset=".964" stop-color="#3F89FC"/></linearGradient></defs></svg>