<svg width="150" height="50" fill="none" xmlns="http://www.w3.org/2000/svg"><path fill="#fff" d="M0 0h150v50H0z"/><g clip-path="url(#clip0)"><path d="M72.73 24.656v8.794h-2.79V11.733h7.4a6.69 6.69 0 014.79 1.88 6.045 6.045 0 012.002 4.583 6.017 6.017 0 01-2.001 4.61c-1.294 1.233-2.891 1.85-4.791 1.848h-4.61v.002zm0-10.25v7.581h4.679a3.689 3.689 0 002.76-1.122 3.7 3.7 0 000-5.308 3.64 3.64 0 00-2.76-1.152H72.73v.001zm17.83 3.7c2.063 0 3.69.551 4.884 1.653 1.193 1.102 1.79 2.613 1.788 4.533v9.158h-2.668v-2.062h-.122c-1.155 1.698-2.691 2.547-4.609 2.547-1.637 0-3.006-.485-4.108-1.455a4.647 4.647 0 01-1.653-3.64c0-1.537.58-2.76 1.743-3.668 1.162-.907 2.713-1.363 4.654-1.365 1.657 0 3.02.303 4.093.91v-.638a3.176 3.176 0 00-1.152-2.47 3.95 3.95 0 00-2.693-1.016c-1.558 0-2.792.657-3.7 1.972l-2.457-1.548c1.352-1.94 3.352-2.91 6-2.91zm-3.609 10.795a2.227 2.227 0 00.926 1.82 3.404 3.404 0 002.168.728 4.448 4.448 0 003.138-1.303c.924-.87 1.386-1.89 1.386-3.062-.87-.693-2.083-1.04-3.639-1.04-1.133 0-2.078.273-2.835.82-.764.554-1.144 1.228-1.144 2.037zm25.6-10.31L103.235 40h-2.88l3.457-7.49-6.125-13.919h3.032l4.427 10.674h.061l4.306-10.674h3.038z" fill="#5F6368"/><path d="M61.457 22.76c.001-.85-.07-1.699-.215-2.537H49.476v4.806h6.74a5.776 5.776 0 01-2.492 3.79v3.12h4.021c2.355-2.171 3.712-5.382 3.712-9.179z" fill="#4285F4"/><path d="M49.475 34.952c3.367 0 6.202-1.105 8.269-3.011l-4.022-3.12c-1.12.76-2.561 1.193-4.247 1.193-3.254 0-6.016-2.194-7.004-5.15h-4.143v3.214a12.477 12.477 0 0011.147 6.874z" fill="#34A853"/><path d="M42.472 24.864a7.475 7.475 0 010-4.776v-3.214H38.33a12.476 12.476 0 000 11.204l4.143-3.214z" fill="#FBBC04"/><path d="M49.475 14.938a6.774 6.774 0 014.786 1.872l3.56-3.561A11.987 11.987 0 0049.476 10a12.476 12.476 0 00-11.147 6.874l4.143 3.214c.988-2.956 3.75-5.15 7.004-5.15z" fill="#EA4335"/></g><defs><clipPath id="clip0"><path fill="#fff" transform="translate(37 10)" d="M0 0h75.545v30H0z"/></clipPath></defs></svg>