<svg width="59" height="59" fill="none" xmlns="http://www.w3.org/2000/svg"><path d="M29.526 58.052c15.755 0 28.526-12.771 28.526-28.526C58.052 13.771 45.281 1 29.526 1 13.771 1 1 13.771 1 29.526c0 15.755 12.771 28.526 28.526 28.526z" stroke="url(#paint0_linear)" stroke-width="1.055" stroke-miterlimit="10" stroke-linecap="round" stroke-linejoin="round"/><path d="M52.889 29.325a.527.527 0 00-.746 0l-3.357 3.356a.527.527 0 00.746.746l2.984-2.983 2.983 2.983a.527.527 0 10.746-.746l-3.356-3.356zm-23.246 22.5a.527.527 0 000 .746l3.356 3.356a.527.527 0 10.746-.746l-2.983-2.983 2.983-2.984a.527.527 0 10-.746-.745l-3.356 3.356zM7.143 30.07c.206.206.54.206.746 0l3.356-3.357a.527.527 0 10-.746-.745l-2.983 2.983-2.984-2.984a.527.527 0 10-.746.746l3.357 3.357zm23.246-22.5a.528.528 0 000-.746l-3.357-3.357a.527.527 0 00-.746.746l2.984 2.984-2.984 2.983a.527.527 0 00.746.746l3.357-3.356zm21.6 22.127c0 12.135-9.838 21.972-21.973 21.972v1.055c12.717 0 23.027-10.31 23.027-23.027h-1.055zm-43.946 0c0-12.135 9.838-21.973 21.973-21.973V6.67c-12.718 0-23.028 10.31-23.028 23.028h1.055z" fill="url(#paint1_linear)"/><path d="M26.266 26.723c0-.725.25-1.325 3.35-1.45v2.975c-2.875-.2-3.35-.8-3.35-1.475v-.05zm9.575 7.85c0 .775-.425 1.725-3.8 1.85v-3.625c3.325.2 3.8.8 3.8 1.675v.1zm-3.8 7.5v-1.55c9.525 0 11.275-3.1 11.275-6.3v-.35c0-3.65-2.625-5.25-9.45-5.45l-1.825-.075v-3.05c3 .275 3.325 1.325 3.4 2.075h7.225v-.225c0-2.9-2.025-5.65-10.625-5.775v-1.475h-2.425v1.475c-8.475 0-10.525 2.525-10.525 5.525v.225c0 2.85 1.875 5.325 8.775 5.525l1.75.075v3.65c-2.975-.325-3.475-1.725-3.475-2.7h-7.3v.275c0 2.375 1.025 6.45 10.775 6.575v1.55h2.425z" fill="url(#paint2_linear)" fill-opacity=".2"/><path d="M29.616 25.273h1v-1.041l-1.04.042.04.999zm0 2.975l-.07.997 1.07.075v-1.072h-1zm2.425 8.175h-1v1.038l1.037-.039-.037-1zm0-3.625l.06-.998-1.06-.064v1.062h1zm0 9.275v1h1v-1h-1zm0-1.55v-1h-1v1h1zm1.825-12.1l-.041.999h.011l.03-1zm-1.825-.075h-1v.96l.959.039.04-1zm0-3.05l.09-.996-1.09-.1v1.096h1zm3.4 2.075l-.995.1.09.9h.905v-1zm7.225 0v1h1v-1h-1zm-10.625-6h-1v.985l.985.015.015-1zm0-1.475h1v-1h-1v1zm-2.425 0v-1h-1v1h1zm0 1.475v1h1v-1h-1zm-1.75 11.275l.042-1h-.013l-.03 1zm1.75.075h1v-.958l-.958-.041-.042.999zm0 3.65l-.109.994 1.109.12v-1.114h-1zm-3.475-2.7h1v-1h-1v1zm-7.3 0v-1h-1v1h1zm10.775 6.85h1v-.988l-.988-.012-.012 1zm0 1.55h-1v1h1v-1zm-2.35-15.35c0-.137.015-.14 0-.106-.028.061-.062.064.007.025.22-.125.836-.308 2.383-.37l-.08-1.998c-1.554.062-2.612.242-3.293.63-.38.217-.671.513-.842.895a2.22 2.22 0 00-.175.924h2zm1.35-1.45v2.975h2v-2.975h-2zm1.069 1.977c-1.414-.098-2.067-.29-2.346-.44-.116-.064-.112-.091-.09-.052.024.04.017.064.017.015h-2c0 .288.051.64.254.988.201.349.504.61.866.806.678.368 1.7.577 3.16.678l.139-1.995zm-2.42-.477v-.05h-2v.05h2zm7.576 7.8a.422.422 0 01-.027.178c-.008.017-.036.075-.16.157-.292.194-1.013.455-2.65.515l.074 2c1.737-.065 2.917-.342 3.68-.848.405-.268.694-.6.871-.984a2.4 2.4 0 00.212-1.018h-2zm-1.8 1.85v-3.625h-2v3.625h2zm-1.06-2.627c1.658.1 2.412.296 2.737.469.13.07.128.102.112.073-.009-.018.01 0 .01.135h2c0-.303-.04-.688-.242-1.07-.208-.395-.536-.688-.94-.904-.744-.395-1.89-.6-3.557-.7l-.12 1.997zm2.86.677v.1h2v-.1h-2zm-1.8 7.6v-1.55h-2v1.55h2zm-1-.55c4.83 0 7.908-.778 9.794-2.14 1.971-1.422 2.48-3.356 2.48-5.16h-2c0 1.396-.365 2.611-1.65 3.539-1.37.989-3.929 1.76-8.624 1.76v2zm12.275-7.3v-.35h-2v.35h2zm0-.35c0-1.031-.186-1.986-.633-2.831-.451-.853-1.135-1.53-2.029-2.052-1.739-1.015-4.318-1.466-7.76-1.567l-.058 2c3.384.099 5.53.547 6.81 1.295.615.359 1.015.779 1.269 1.26.258.487.4 1.101.4 1.895h2zm-10.41-6.45l-1.824-.074L32 29.347l1.825.075.082-1.998zm-.865.925v-3.05h-2v3.05h2zm-1.092-2.054c1.419.13 2.009.43 2.246.63.18.15.225.296.25.548l1.99-.199c-.05-.497-.204-1.252-.955-1.882-.694-.583-1.766-.944-3.348-1.09l-.183 1.993zm3.492 2.079h7.225v-2H35.44v2zm8.225-1v-.225h-2v.225h2zm0-.225c0-1.725-.627-3.476-2.529-4.758-1.82-1.227-4.711-1.954-9.082-2.017l-.029 2c4.23.061 6.651.772 7.993 1.676 1.261.85 1.647 1.924 1.647 3.099h2zM33.04 21.373v-1.475h-2v1.475h2zm-1-2.475h-2.425v2h2.425v-2zm-3.425 1v1.475h2v-1.475h-2zm1 .475c-4.298 0-7.164.633-8.98 1.795-1.912 1.224-2.545 2.956-2.545 4.73h2c0-1.227.391-2.257 1.623-3.046 1.328-.85 3.724-1.48 7.902-1.48v-2zM18.09 26.898v.225h2v-.225h-2zm0 .225c0 1.671.566 3.33 2.199 4.556 1.572 1.18 4.01 1.866 7.547 1.968l.058-1.999c-3.364-.097-5.313-.75-6.404-1.569-1.03-.773-1.4-1.778-1.4-2.956h-2zm9.732 6.524l1.75.075.085-1.998-1.75-.075-.085 1.998zm.793-.924v3.65h2v-3.65h-2zm1.108 2.656c-1.352-.148-1.966-.522-2.244-.809-.263-.272-.34-.584-.34-.897h-2c0 .661.175 1.537.904 2.29.716.738 1.84 1.227 3.463 1.404l.217-1.988zm-3.583-2.706h-7.3v2h7.3v-2zm-8.3 1v.275h2v-.275h-2zm0 .275c0 1.334.293 3.277 2.06 4.873 1.735 1.566 4.717 2.638 9.702 2.702l.025-2c-4.765-.061-7.17-1.09-8.386-2.186-1.182-1.067-1.401-2.349-1.401-3.39h-2zm10.775 6.575v1.55h2v-1.55h-2zm1 2.55h2.425v-2h-2.425v2z" fill="url(#paint3_linear)"/><defs><linearGradient id="paint0_linear" x1="1" y1="33.431" x2="58.913" y2="33.77" gradientUnits="userSpaceOnUse"><stop stop-color="#FEBD2F"/><stop offset=".249" stop-color="#F95721"/><stop offset=".503" stop-color="#FC1370"/><stop offset=".672" stop-color="#BA2DB2"/><stop offset=".776" stop-color="#8342E9"/><stop offset=".964" stop-color="#3F89FC"/></linearGradient><linearGradient id="paint1_linear" x1="7.516" y1="32.778" x2="53.195" y2="33.045" gradientUnits="userSpaceOnUse"><stop stop-color="#FEBD2F"/><stop offset=".249" stop-color="#F95721"/><stop offset=".503" stop-color="#FC1370"/><stop offset=".672" stop-color="#BA2DB2"/><stop offset=".776" stop-color="#8342E9"/><stop offset=".964" stop-color="#3F89FC"/></linearGradient><linearGradient id="paint2_linear" x1="18.516" y1="31.546" x2="47.953" y2="31.731" gradientUnits="userSpaceOnUse"><stop stop-color="#FEBD2F"/><stop offset=".249" stop-color="#F95721"/><stop offset=".503" stop-color="#FC1370"/><stop offset=".672" stop-color="#BA2DB2"/><stop offset=".776" stop-color="#8342E9"/><stop offset=".964" stop-color="#3F89FC"/></linearGradient><linearGradient id="paint3_linear" x1="18.516" y1="31.546" x2="47.953" y2="31.731" gradientUnits="userSpaceOnUse"><stop stop-color="#FEBD2F"/><stop offset=".249" stop-color="#F95721"/><stop offset=".503" stop-color="#FC1370"/><stop offset=".672" stop-color="#BA2DB2"/><stop offset=".776" stop-color="#8342E9"/><stop offset=".964" stop-color="#3F89FC"/></linearGradient></defs></svg>