<svg width="51" height="48" fill="none" xmlns="http://www.w3.org/2000/svg"><path d="M6.994 9.322c2.316-2.686 4.8-4.673 7.451-5.961 2.652-1.289 5.296-1.782 7.933-1.482 2.6.27 4.98 1.335 7.136 3.193 1.38 1.188 2.357 2.555 2.935 4.1.543 1.515.835 2.998.876 4.451.042 1.453-.03 3.178-.212 5.177-.106 1.695-.142 2.988-.11 3.879.064.855.343 1.496.838 1.923l1.114.96-7.817 9.064-2.652-2.284a4.729 4.729 0 01-1.594-2.76c-.25-1.14-.418-2.732-.503-4.777-.02-2.05-.177-3.725-.472-5.027-.265-1.336-.892-2.431-1.882-3.284-1.025-.884-2.165-1.312-3.42-1.285-1.292-.004-2.394.525-3.309 1.585-1.98 2.297-1.486 4.725 1.483 7.284.637.548 1.13.942 1.478 1.18l-8.411 9.755a36.598 36.598 0 01-.94-.625 14.253 14.253 0 01-1.213-.952c-2.262-1.95-3.691-4.26-4.286-6.928-.63-2.699-.46-5.54.51-8.523 1.001-3.019 2.69-5.906 5.067-8.663zm32.64 37.181l-9.81-8.453 9.05-10.497 9.811 8.454-9.051 10.496z" fill="url(#paint0_linear)" fill-opacity=".2"/><path d="M14.445 3.36l.437.9-.437-.9zm7.933-1.48l-.114.993h.01l.104-.994zm10.071 7.292l.942-.337-.005-.013-.937.35zm.876 4.451l-1 .029 1-.029zm-.212 5.177l-.996-.091-.001.014-.001.014.998.063zm-.11 3.879l-1 .037.002.018.001.018.997-.073zm1.952 2.882l.757.653.653-.758-.757-.652-.653.757zm-7.817 9.065l-.654.758.758.652.653-.757-.757-.653zm-4.246-5.045l.982-.19-.003-.012-.002-.012-.977.214zm-.503-4.776l-1 .01v.032l1-.042zm-.472-5.027l-.981.195.002.013.004.013.975-.22zm-5.303-4.57l-.003 1h.024l-.02-1zm-.347 10.05l.757.654.73-.846-.922-.632-.565.825zm-8.411 9.755l-.54.842.73.468.567-.657-.757-.653zm-.94-.625l.565-.825-.565.825zm-5.499-7.88l.976-.217-.002-.01-.974.227zm.51-8.523l-.95-.315-.001.005.951.31zm37.707 28.518l-.653.758.758.652.653-.757-.758-.653zm-9.81-8.453l-.758-.653-.653.757.758.653.653-.757zm9.05-10.497l.654-.757-.758-.653-.653.758.758.652zm9.811 8.454l.758.653.653-.758-.758-.653-.653.758zM7.752 9.975c2.244-2.604 4.624-4.497 7.13-5.715l-.874-1.799C11.212 3.82 8.624 5.901 6.236 8.67l1.516 1.306zm7.13-5.715c2.5-1.215 4.955-1.664 7.382-1.387l.227-1.987c-2.846-.325-5.68.214-8.483 1.575l.874 1.799zm7.392-1.386c2.38.247 4.571 1.218 6.587 2.956l1.306-1.515c-2.296-1.98-4.863-3.137-7.686-3.43l-.207 1.989zm6.587 2.956C30.126 6.92 31 8.15 31.512 9.522l1.874-.7c-.643-1.718-1.726-3.22-3.219-4.507L28.861 5.83zm2.647 3.68c.51 1.425.78 2.805.817 4.142l2-.057c-.045-1.569-.36-3.157-.934-4.76l-1.883.674zm.817 4.142c.04 1.4-.028 3.084-.208 5.057l1.992.182c.185-2.025.259-3.792.216-5.296l-2 .057zm-.21 5.085c-.107 1.705-.146 3.037-.111 3.979l1.999-.074c-.031-.84.003-2.094.108-3.78l-1.996-.125zm-.109 4.016c.077 1.033.429 1.957 1.182 2.606l1.306-1.515c-.237-.204-.443-.562-.493-1.24l-1.995.149zm1.182 2.606l1.113.96 1.307-1.515-1.114-.96-1.306 1.515zm1.009-.45l-7.817 9.064 1.515 1.306 7.817-9.065-1.515-1.306zm-6.406 8.96l-2.652-2.285-1.306 1.515 2.652 2.285 1.306-1.515zm-2.652-2.285a3.73 3.73 0 01-1.265-2.192l-1.964.38a5.727 5.727 0 001.923 3.327l1.306-1.515zm-1.27-2.217c-.232-1.056-.396-2.58-.481-4.604l-1.999.084c.087 2.066.257 3.726.526 4.949l1.954-.429zm-.48-4.572c-.02-2.087-.18-3.84-.497-5.238l-1.95.442c.273 1.206.427 2.804.447 4.816l2-.02zm-.49-5.21c-.307-1.547-1.044-2.843-2.21-3.849l-1.307 1.515c.813.7 1.33 1.594 1.554 2.721l1.962-.388zm-2.21-3.849c-1.197-1.03-2.574-1.56-4.096-1.527l.042 2c.989-.022 1.893.306 2.747 1.042l1.306-1.515zm-4.072-1.527c-1.61-.004-2.982.672-4.068 1.932l1.515 1.306c.742-.86 1.575-1.24 2.547-1.238l.006-2zm-4.068 1.932c-1.143 1.325-1.66 2.81-1.338 4.396.31 1.525 1.364 2.953 2.925 4.298l1.306-1.514c-1.408-1.214-2.087-2.28-2.27-3.183-.172-.842.053-1.719.892-2.691l-1.515-1.306zm1.587 8.694c.643.554 1.17.977 1.565 1.249l1.131-1.65c-.301-.206-.76-.57-1.39-1.113l-1.306 1.514zm1.373-.229L7.098 34.36l1.515 1.306 8.411-9.754-1.515-1.306zm-7.114 9.565a35.562 35.562 0 01-.914-.608l-1.13 1.65c.354.243.676.457.965.642l1.079-1.684zm-.914-.608a13.278 13.278 0 01-1.125-.885L5.05 34.193c.477.41.911.753 1.3 1.02l1.131-1.65zm-1.125-.885c-2.115-1.822-3.419-3.948-3.963-6.387l-1.952.435c.646 2.898 2.2 5.39 4.61 7.467l1.305-1.515zm-3.965-6.397c-.583-2.5-.434-5.154.487-7.987l-1.902-.619c-1.02 3.134-1.21 6.161-.533 9.06l1.948-.454zm.486-7.982c.954-2.878 2.57-5.653 4.875-8.324L6.236 8.669c-2.45 2.842-4.21 5.842-5.258 9.001l1.899.63zm37.41 27.447l-9.81-8.454-1.306 1.515 9.81 8.453 1.306-1.514zm-9.706-7.044l9.052-10.496-1.516-1.305-9.05 10.496 1.514 1.306zm7.64-10.391l9.811 8.453 1.306-1.515-9.81-8.453-1.306 1.515zm9.707 7.043L38.877 45.85l1.515 1.306 9.05-10.496-1.514-1.306z" fill="url(#paint1_linear)"/><defs><linearGradient id="paint0_linear" x1="56.909" y1="85.412" x2="89.779" y2="47.392" gradientUnits="userSpaceOnUse"><stop stop-color="#FEBD2F"/><stop offset=".249" stop-color="#F95721"/><stop offset=".503" stop-color="#FC1370"/><stop offset=".672" stop-color="#BA2DB2"/><stop offset=".776" stop-color="#8342E9"/><stop offset=".964" stop-color="#3F89FC"/></linearGradient><linearGradient id="paint1_linear" x1="56.909" y1="85.412" x2="89.779" y2="47.392" gradientUnits="userSpaceOnUse"><stop stop-color="#FEBD2F"/><stop offset=".249" stop-color="#F95721"/><stop offset=".503" stop-color="#FC1370"/><stop offset=".672" stop-color="#BA2DB2"/><stop offset=".776" stop-color="#8342E9"/><stop offset=".964" stop-color="#3F89FC"/></linearGradient></defs></svg>