<svg width="33" height="33" fill="none" xmlns="http://www.w3.org/2000/svg"><path fill-rule="evenodd" clip-rule="evenodd" d="M16.5 33C25.613 33 33 25.613 33 16.5S25.613 0 16.5 0 0 7.387 0 16.5 7.387 33 16.5 33zm3.945-17.683h-9.02a.564.564 0 00-.563.564v7.893c0 .31.253.563.563.563h10.148c.31 0 .564-.252.564-.563V15.88a.564.564 0 00-.564-.564h-1.128zM11.99 14.19v-2.255a4.515 4.515 0 014.51-4.51 4.515 4.515 0 014.51 4.51v2.255h.564c.932 0 1.691.758 1.691 1.691v7.893c0 .932-.759 1.69-1.691 1.69H11.425a1.693 1.693 0 01-1.69-1.69V15.88c0-.933.758-1.691 1.69-1.691h.564zm1.128 0h6.765v-2.255A3.387 3.387 0 0016.5 8.552a3.387 3.387 0 00-3.382 3.383v2.255zm2.838 5.904a1.505 1.505 0 01.564-2.897 1.505 1.505 0 01.564 2.897v1.8a.564.564 0 01-1.128 0v-1.8zm.188-1.394a.376.376 0 11.753.001.376.376 0 01-.753 0z" fill="#111"/></svg>