<svg width="320" height="180" fill="none" xmlns="http://www.w3.org/2000/svg"><g clip-path="url(#clip0)"><path d="M0 10C0 4.477 4.477 0 10 0h300c5.523 0 10 4.477 10 10v170H0V10z" fill="#111"/><path d="M-9.665 83.341s20.025-2.216 35.928-26.2c15.306-23.087 26.26-24.7 32.486-6.403 2.145 6.306 9.946 66.166 17.902 65.455 7.956-.711 10.97-79.597 24.231-81.021 13.26-1.422 14.418 48.448 25.026 49.159 10.608.71 25.865-40.982 32.291-52.803 10.144-18.66 21.298-6.218 24.126-2.728 8.811 10.87-5.259 105.841 10.901 127.948 12.071 16.515 17.495-101.484 31.417-101.484 13.923 0 18.085 35.173 31.346 33.749 13.26-1.425 18.897-47.526 31.495-49.658 12.598-2.135 3.281 48.837 15.888 55.787 12.999 7.164 34.498 20.959 41.13 15.978" stroke="url(#paint0_linear)" stroke-width=".166" stroke-miterlimit="10"/><path d="M-9.553 83.701s19.584-2.357 35.203-24.93c2.452-3.54 4.813-6.527 7.008-9.013 11.31-12.82 19.274-11.222 24.926 3.306 2.583 6.64 10.765 63.803 18.564 62.931 7.854-.905 10.816-76.669 23.516-78.827 3.741-.621 6.486 3.028 8.818 8.556 5.588 13.232 8.543 37.292 15.884 38.167 3.074.365 6.538-2.849 10.06-7.858 8.357-11.79 17.402-33.774 22.058-41.877 3.583-6.239 7.167-8.903 10.465-9.494 5.969-1.069 11.101 4.733 12.993 7.108 8.893 11.118-3.129 102.405 12.846 123.41 11.873 15.671 17.716-97.032 31.571-98.109 13.275-1.03 17.476 32.123 30.109 30.108 12.908-2.058 18.56-46.178 30.619-48.303 12.574-2.217 4.565 49.653 16.987 56.848.317.184.638.368.962.55 13.003 7.228 34.801 19.691 41.308 15.065" stroke="url(#paint1_linear)" stroke-width=".166" stroke-miterlimit="10"/><path d="M-9.435 84.06s19.156-2.5 34.48-23.658a97.723 97.723 0 016.947-8.528c10.966-12.05 18.457-10.217 24.429 3.513 3.04 6.994 11.587 61.466 19.226 60.408 7.756-1.074 10.654-73.788 22.801-76.634 3.57-.836 6.202 2.432 8.509 7.556 5.54 12.296 8.664 35.477 15.869 36.728 2.988.519 6.331-2.378 9.767-6.98 8.121-10.883 17.373-31.78 22.179-39.687 3.596-5.914 7.072-8.527 10.256-9.1 5.652-1.015 10.582 4.567 12.535 7.055 8.976 11.363-1 98.97 14.793 118.871 11.675 14.825 17.854-92.545 31.729-94.734 12.581-1.984 16.877 29.05 28.87 26.464 12.576-2.71 18.221-44.836 29.744-46.948 12.552-2.3 5.842 50.482 18.085 57.91.324.197.648.39.977.572 12.934 7.17 35.889 19.067 42.435 14.68" stroke="url(#paint2_linear)" stroke-width=".166" stroke-miterlimit="10"/><path d="M-9.323 84.42s18.734-2.64 33.755-22.39c2.418-3.18 4.791-5.81 6.89-8.041 10.618-11.287 17.733-9.241 23.93 3.722 3.518 7.352 12.41 59.111 19.892 57.881 7.656-1.258 10.492-70.88 22.086-74.44 3.396-1.042 5.919 1.84 8.199 6.56 5.495 11.365 8.783 33.659 15.855 35.29 2.9.667 6.136-1.9 9.474-6.103 7.906-9.957 17.337-29.783 22.301-37.493 3.598-5.591 6.977-8.151 10.048-8.703 5.333-.96 10.06 4.405 12.076 7 9.033 11.632 1.179 95.489 16.739 114.331 11.514 13.945 17.918-88.01 31.884-91.36 11.854-2.842 16.289 25.949 27.631 22.821 12.264-3.38 17.88-43.498 28.867-45.592 12.531-2.388 7.12 51.32 19.184 58.97.329.21.657.412.991.596 12.865 7.111 36.981 18.443 43.562 14.291" stroke="url(#paint3_linear)" stroke-width=".166" stroke-miterlimit="10"/><path d="M-9.204 84.78s18.323-2.778 33.03-21.119c2.407-2.999 4.78-5.448 6.831-7.553 10.265-10.519 17.08-8.287 23.435 3.93 4.013 7.715 13.232 56.759 20.554 55.358 7.556-1.445 10.327-67.968 21.371-72.246 3.224-1.248 5.638 1.245 7.892 5.559 5.452 10.437 8.899 31.836 15.84 33.85 2.815.816 5.938-1.42 9.179-5.226 7.694-9.033 17.297-27.788 22.42-35.3 3.595-5.27 6.881-7.773 9.838-8.31 5.016-.903 9.541 4.239 11.618 6.947 9.112 11.882 3.322 92.036 18.684 109.791 11.325 13.089 17.923-83.406 32.039-87.983 11.106-3.603 15.709 22.815 26.394 19.18 11.968-4.074 17.539-42.17 27.993-44.24 12.509-2.478 8.389 52.168 20.282 60.03.336.223.667.433 1.008.62 12.798 7.051 38.069 17.821 44.689 13.904" stroke="url(#paint4_linear)" stroke-width=".166" stroke-miterlimit="10"/><path d="M-9.092 85.14s17.925-2.91 32.308-19.847c2.394-2.82 4.765-5.09 6.774-7.067 9.91-9.758 16.489-7.36 22.937 4.14 4.527 8.074 14.05 54.4 21.216 52.833 7.456-1.631 10.162-65.053 20.656-70.052 3.05-1.452 5.357.652 7.582 4.562 5.412 9.511 9.014 30.005 15.827 32.411 2.726.961 5.742-.946 8.885-4.352 7.482-8.11 17.249-25.794 22.541-33.11 3.584-4.952 6.786-7.397 9.629-7.913 4.696-.846 9.021 4.073 11.158 6.896 9.191 12.133 5.462 88.587 20.631 105.25 11.134 12.233 17.894-78.725 32.193-84.608 10.353-4.26 15.133 19.647 25.155 15.536 11.683-4.794 17.199-40.842 27.116-42.885 12.488-2.57 9.658 53.026 21.381 61.095.341.235.679.455 1.022.642 12.729 6.993 39.161 17.198 45.819 13.518" stroke="url(#paint5_linear)" stroke-width=".166" stroke-miterlimit="10"/><path d="M-8.974 85.5S8.568 82.462 22.61 66.924c2.383-2.64 4.754-4.73 6.717-6.582 9.553-8.998 15.946-6.456 22.441 4.347 5.066 8.428 14.873 52.043 21.879 50.31 7.355-1.821 9.998-62.133 19.941-67.858 2.876-1.657 5.078.061 7.273 3.562 5.377 8.588 9.13 28.172 15.812 30.971 2.637 1.108 5.547-.467 8.59-3.474 7.274-7.188 17.194-23.805 22.662-30.916 3.567-4.64 6.691-7.021 9.422-7.52 4.379-.79 8.504 3.907 10.701 6.842 9.269 12.381 7.598 85.138 22.574 100.712 10.942 11.379 17.852-73.954 32.349-81.233 9.607-4.825 14.559 16.444 23.916 11.892 11.406-5.548 16.858-39.522 26.241-41.53 12.465-2.666 10.923 53.89 22.479 62.157.346.248.689.475 1.037.665 12.66 6.934 40.252 16.574 46.945 13.129" stroke="url(#paint6_linear)" stroke-width=".166" stroke-miterlimit="10"/><path d="M-8.855 85.859S8.318 82.7 22.005 68.554c2.375-2.458 4.739-4.373 6.657-6.094 9.19-8.238 15.443-5.574 21.943 4.554C56.23 75.782 66.3 116.698 73.148 114.8c7.256-2.009 9.834-59.207 19.227-65.664 2.702-1.856 4.804-.529 6.963 2.565 5.351 7.673 9.247 26.331 15.797 29.535 2.55 1.248 5.354.01 8.297-2.598 7.07-6.267 17.13-21.816 22.784-28.724 3.543-4.33 6.596-6.646 9.212-7.124 4.06-.736 7.985 3.74 10.244 6.789 9.35 12.626 9.733 81.691 24.521 96.17 10.746 10.525 17.823-69.087 32.503-77.858 8.883-5.305 13.98 13.204 22.68 8.251 11.127-6.338 16.515-38.205 25.364-40.174 12.443-2.766 12.181 54.762 23.578 63.217a9.01 9.01 0 001.051.69c12.593 6.876 41.341 15.953 48.072 12.744" stroke="url(#paint7_linear)" stroke-width=".166" stroke-miterlimit="10"/><path d="M-8.743 86.218S8.079 82.95 21.392 70.184c2.37-2.273 4.725-4.015 6.6-5.608 8.821-7.484 14.971-4.715 21.445 4.764 6.21 9.092 16.518 47.321 23.206 45.262 7.156-2.201 9.67-56.277 18.512-63.47 2.53-2.058 4.532-1.12 6.653 1.565 5.335 6.758 9.366 24.485 15.785 28.095 2.464 1.386 5.164.486 8.002-1.72 6.872-5.347 17.056-19.835 22.905-26.534 3.515-4.024 6.503-6.27 9.005-6.73 3.741-.68 7.468 3.575 9.784 6.735 9.433 12.875 11.866 78.245 26.468 91.633 10.551 9.673 17.837-64.123 32.66-74.483 8.185-5.72 13.389 9.928 21.441 4.607 10.841-7.167 16.172-36.896 24.49-38.819 12.419-2.871 13.436 55.641 24.676 64.279a8.3 8.3 0 001.065.713c12.524 6.817 42.432 15.329 49.2 12.357" stroke="url(#paint8_linear)" stroke-width=".166" stroke-miterlimit="10"/><path d="M-8.625 86.577s16.487-3.365 29.411-14.764c2.369-2.089 4.708-3.659 6.54-5.119 8.45-6.735 14.526-3.876 20.95 4.971 6.822 9.397 17.337 44.958 23.868 42.739 7.056-2.398 9.51-53.345 17.797-61.277 2.36-2.257 4.268-1.71 6.343.568 5.328 5.848 9.486 22.634 15.772 26.656 2.378 1.521 4.975.964 7.708-.844 6.679-4.423 16.975-17.86 23.025-24.34 3.479-3.725 6.407-5.89 8.795-6.333 3.424-.624 6.951 3.409 9.326 6.684 9.517 13.12 13.994 74.803 28.412 87.094 10.351 8.824 17.919-59.057 32.816-71.108 7.522-6.086 12.786 6.622 20.204.964 10.536-8.037 15.828-35.59 23.613-37.464 12.395-2.984 14.69 56.523 25.774 65.339.363.289.72.542 1.08.737 12.455 6.755 43.524 14.705 50.329 11.971" stroke="url(#paint9_linear)" stroke-width=".166" stroke-miterlimit="10"/><path d="M-8.513 86.937s16.17-3.444 28.687-13.493c2.368-1.9 4.691-3.301 6.483-4.633 8.07-5.994 14.099-3.058 20.451 5.177 7.461 9.673 18.16 42.591 24.534 40.216 6.955-2.593 9.354-50.407 17.082-59.086 2.187-2.454 4.008-2.3 6.033-.432 5.34 4.933 9.612 20.778 15.757 25.217 2.292 1.656 4.792 1.444 7.413.03 6.493-3.498 16.884-15.896 23.146-22.148 3.436-3.431 6.312-5.515 8.588-5.94 3.105-.567 6.433 3.24 8.866 6.63 9.603 13.363 16.12 71.364 30.359 82.553 10.148 7.975 18.09-53.897 32.971-67.732 6.898-6.416 12.161 3.288 18.964-2.678 10.201-8.944 15.484-34.29 22.737-36.108 12.371-3.102 15.938 57.41 26.87 66.403a6.95 6.95 0 001.094.759c12.388 6.697 44.613 14.084 51.456 11.583" stroke="url(#paint10_linear)" stroke-width=".166" stroke-miterlimit="10"/><path d="M-8.394 87.296s15.87-3.503 27.962-12.223c2.37-1.71 4.672-2.948 6.426-4.147 7.687-5.257 13.687-2.26 19.956 5.388 8.128 9.915 18.976 40.222 25.195 37.689 6.853-2.793 9.203-47.467 16.368-56.892 2.018-2.651 3.757-2.897 5.723-1.43 5.371 4.013 9.741 18.917 15.743 23.78 2.211 1.79 4.609 1.928 7.12.908 6.314-2.562 16.782-13.943 23.268-19.954 3.391-3.143 6.216-5.14 8.378-5.544 2.788-.511 5.916 3.074 8.408 6.577 9.686 13.608 18.241 67.927 32.304 78.014 9.946 7.131 18.376-48.653 33.125-64.358 6.317-6.725 11.514-.069 17.726-6.32 9.829-9.89 15.135-32.995 21.862-34.754 12.342-3.23 17.182 58.303 27.969 67.464a6.47 6.47 0 001.108.783c12.319 6.637 45.704 13.459 52.583 11.196" stroke="url(#paint11_linear)" stroke-width=".166" stroke-miterlimit="10"/><path d="M-8.282 87.656s15.588-3.536 27.24-10.951c2.378-1.514 4.653-2.596 6.367-3.66 7.296-4.53 13.286-1.48 19.457 5.595 8.83 10.12 19.796 37.855 25.858 35.166 6.75-2.995 9.055-44.527 15.653-54.698 1.849-2.851 3.514-3.503 5.413-2.43 5.423 3.07 9.875 17.053 15.729 22.34 2.13 1.924 4.43 2.417 6.824 1.785 6.143-1.615 16.673-12.007 23.39-17.762 3.338-2.862 6.121-4.764 8.17-5.15 2.469-.458 5.404 2.902 7.952 6.523 9.795 13.832 20.358 64.498 34.25 73.473 9.738 6.292 18.785-43.343 33.28-60.98 5.773-7.03 10.839-3.437 16.489-9.965 9.407-10.87 14.79-31.705 20.985-33.398 12.314-3.365 18.421 59.2 29.067 68.525.377.33.749.606 1.123.806 12.249 6.579 46.795 12.838 53.71 10.81" stroke="url(#paint12_linear)" stroke-width=".166" stroke-miterlimit="10"/><path d="M-8.164 88.014s15.317-3.537 26.516-9.68c2.387-1.31 4.632-2.246 6.31-3.174 6.9-3.815 12.89-.718 18.96 5.802 9.566 10.276 20.613 35.485 26.52 32.641 6.645-3.196 8.911-41.585 14.937-52.503 1.683-3.048 3.279-4.122 5.104-3.43 5.495 2.09 10.013 15.186 15.715 20.901 2.049 2.056 4.251 2.91 6.531 2.662 5.973-.652 16.551-10.087 23.511-15.572 3.286-2.587 6.026-4.388 7.961-4.753 2.151-.402 4.887 2.736 7.491 6.469 9.877 14.078 22.474 61.077 36.194 68.934 9.529 5.457 19.334-37.98 33.436-57.605 5.273-7.338 10.138-6.811 15.249-13.605 8.931-11.872 14.44-30.42 20.111-32.043 12.281-3.516 19.66 60.1 30.166 69.586a5.74 5.74 0 001.137.829c12.18 6.52 47.884 12.214 54.837 10.422" stroke="url(#paint13_linear)" stroke-width=".166" stroke-miterlimit="10"/><path d="M-8.045 88.375s15.052-3.5 25.791-8.41c2.4-1.097 4.61-1.9 6.25-2.685 6.5-3.114 12.496.023 18.464 6.011 10.342 10.377 21.431 33.113 27.186 30.118 6.54-3.4 8.773-38.645 14.222-50.31 1.516-3.244 3.043-4.755 4.794-4.425 5.57 1.048 10.156 13.316 15.701 19.46 1.973 2.186 4.069 3.414 6.235 3.539 5.8.335 16.42-8.192 23.63-13.378 3.229-2.322 5.933-4.012 7.754-4.36 1.832-.345 4.368 2.57 7.034 6.418 9.96 14.327 24.588 57.664 38.141 64.394 9.319 4.628 20.018-32.591 33.592-54.23 4.809-7.665 9.41-10.184 14.011-17.249 8.395-12.887 14.09-29.138 19.234-30.688 12.243-3.684 20.892 61 31.264 70.648.386.36.77.649 1.151.851 12.114 6.462 48.976 11.591 55.967 10.036" stroke="url(#paint14_linear)" stroke-width=".166" stroke-miterlimit="10"/><path d="M-7.933 88.736s14.785-3.42 25.067-7.14c2.411-.871 4.587-1.56 6.193-2.198 6.1-2.432 12.1.744 17.966 6.218 11.154 10.407 22.245 30.737 27.847 27.594 6.434-3.608 8.662-35.694 13.508-48.116 1.356-3.439 2.802-5.295 4.485-5.425 5.602-.433 10.303 11.447 15.685 18.023 1.897 2.317 3.884 3.923 5.943 4.416 5.609 1.34 16.284-6.32 23.752-11.187 3.171-2.066 5.837-3.633 7.543-3.963 1.516-.289 3.851 2.404 6.575 6.364 10.041 14.572 26.699 54.263 40.087 59.855 9.11 3.805 20.831-27.195 33.748-50.854 4.377-8.019 8.654-13.547 12.774-20.893 7.799-13.91 13.737-27.865 18.359-29.333 12.198-3.876 22.124 61.906 32.363 71.712a5.45 5.45 0 001.168.877c12.045 6.402 50.067 10.969 57.093 9.649" stroke="url(#paint15_linear)" stroke-width=".166" stroke-miterlimit="10"/><path d="M-7.814 89.094s22.526-5.117 30.478-7.582c17.558-5.443 37.907 36.37 45.98 31.496 8.073-4.873 9.398-50.721 16.968-52.345 7.57-1.623 13.75 18.571 21.319 21.875 7.567 3.303 25.657-11.481 31.209-12.563 5.55-1.084 31.293 55.961 48.149 61.627 17.502 5.884 50.305-95.733 62.92-99.993 12.614-4.26 24.225 68.155 34.641 73.67 11.975 6.344 51.155 10.345 58.22 9.261" stroke="url(#paint16_linear)" stroke-width=".166" stroke-miterlimit="10"/><g filter="url(#filter0_f)"><ellipse cx="163.246" cy="78.084" rx="113.917" ry="31.75" fill="url(#paint17_linear)"/></g><path d="M66.782 77.665h4.59v-7.69l4.31 7.69h2.403l4.326-7.69v7.69h4.657v-12.33H80.87l-3.845 6.927-3.78-6.928h-6.463v12.331zm35.125-8.916h-4.491v4.143c0 1.21-.812 2.171-2.32 2.171-1.509 0-2.056-.911-2.056-2.055v-4.26h-4.524v5.636c0 1.442.96 3.48 4.276 3.48h.116c2.734 0 4.094-1.359 4.525-1.79v1.591h4.474V68.75zm7.736 9.165c5.237 0 6.149-1.425 6.149-3.066v-.116c0-1.773-.829-2.702-4.856-2.834l-1.873-.05c-1.376-.05-1.658-.315-1.658-.663v-.017c0-.397.282-.613 1.741-.613h.016c1.625 0 1.741.53 1.79.829h4.508v-.116c0-1.409-1.06-2.768-5.85-2.768h-.879c-4.922 0-5.85 1.31-5.85 2.768v.1c0 1.325.845 2.668 4.607 2.8l1.89.05c1.475.05 1.707.298 1.707.73v.033c0 .38-.249.745-1.84.745h-.033c-1.674 0-1.84-.762-1.84-1.094h-4.591v.117c0 1.16.58 3.165 5.95 3.165h.912zm11.593-12.58h-4.508v2.669h4.508v-2.669zm0 3.415h-4.508v8.916h4.508V68.75zm8.528 9.165c6.099 0 6.58-2.884 6.58-4.094v-.033h-4.608c-.049.348-.364 1.608-2.469 1.608h-.066c-1.89 0-2.42-1.177-2.42-2.254v-.083c0-1.011.497-2.072 2.42-2.072h.066c2.121 0 2.42 1.21 2.469 1.542h4.608v-.05c0-1.227-.613-3.978-6.563-3.978h-1.028c-5.718 0-6.547 2.668-6.547 4.508v.299c0 1.856.846 4.607 6.564 4.607h.994zm22.929-4.11c4.508 0 5.851-1.89 5.851-4.127v-.265c0-2.271-1.293-4.078-5.851-4.078h-10.276v12.331h4.707v-3.861h5.569zm-5.569-5.387h5.006c1.11 0 1.558.415 1.558 1.127v.05c0 .68-.481 1.127-1.558 1.127h-5.006v-2.304zm16.825.332h-4.475v8.916h4.508v-4.491c0-1.127.597-1.923 1.657-1.923 1.177 0 1.608.83 1.608 1.823v.315h4.376v-.895c0-1.906-.796-3.944-3.746-3.944h-.199c-2.221 0-3.381 1.326-3.729 1.84v-1.641zm16.26 9.165c5.999 0 6.745-2.701 6.745-4.608v-.298c0-1.856-.812-4.508-6.729-4.508h-1.259c-5.719 0-6.746 2.635-6.746 4.525v.265c0 1.923 1.061 4.624 6.762 4.624h1.227zm-.597-6.895c2.204 0 2.784 1.11 2.784 2.089v.066c0 .928-.58 2.204-2.784 2.204h-.017c-2.237 0-2.801-1.226-2.801-2.204v-.066c0-.978.58-2.089 2.801-2.089h.017zm17.929 2.188c0 .995-.878 2.105-2.801 2.105h-.066c-1.857 0-2.52-1.127-2.52-2.105v-.083c0-.994.547-2.055 2.503-2.055h.083c1.889 0 2.801 1.06 2.801 2.055v.083zm0-7.873v4.542c-.414-.315-1.624-1.293-4.375-1.293h-.315c-3.879 0-5.271 2.121-5.271 4.392v.348c0 2.37 1.508 4.508 5.403 4.508h.282c2.784 0 3.994-1.127 4.293-1.458v1.292h4.491v-12.33h-4.508zm19.203 3.415h-4.491v4.143c0 1.21-.812 2.171-2.32 2.171-1.509 0-2.056-.911-2.056-2.055v-4.26h-4.524v5.636c0 1.442.961 3.48 4.276 3.48h.116c2.734 0 4.094-1.359 4.524-1.79v1.591h4.475V68.75zm8.531 9.165c6.1 0 6.58-2.884 6.58-4.094v-.033h-4.607c-.05.348-.365 1.608-2.47 1.608h-.066c-1.89 0-2.42-1.177-2.42-2.254v-.083c0-1.011.497-2.072 2.42-2.072h.066c2.122 0 2.42 1.21 2.47 1.542h4.607v-.05c0-1.227-.613-3.978-6.563-3.978h-1.028c-5.718 0-6.546 2.668-6.546 4.508v.299c0 1.856.845 4.607 6.563 4.607h.994zm14.929-.249v-2.767h-.961c-.647 0-.746-.232-.746-.78v-2.635h1.707V68.75h-1.707v-2.602h-4.475v2.602h-1.707v2.734h1.707v3.647c0 1.707.829 2.535 2.37 2.535h3.812zm5.58-12.33h-4.508v2.668h4.508v-2.669zm0 3.414h-4.508v8.916h4.508V68.75zm8.959 9.165c6 0 6.746-2.701 6.746-4.608v-.298c0-1.856-.812-4.508-6.729-4.508h-1.26c-5.718 0-6.745 2.635-6.745 4.525v.265c0 1.923 1.06 4.624 6.762 4.624h1.226zm-.596-6.895c2.204 0 2.784 1.11 2.784 2.089v.066c0 .928-.58 2.204-2.784 2.204h-.017c-2.237 0-2.801-1.226-2.801-2.204v-.066c0-.978.58-2.089 2.801-2.089h.017zm8.316 6.646h4.508v-4.143c0-1.26.845-2.171 2.37-2.171 1.542 0 2.155.862 2.155 2.055v4.26h4.524V71.93c0-1.409-1.044-3.381-4.375-3.381h-.1c-2.784 0-4.16 1.359-4.607 1.773V68.75h-4.475v8.916zm-149.957 7.67v12.33h13.773v-3.082h-9.132v-1.69h8.817v-3h-8.817V88.35h9v-3.017h-13.641zm21.415 12.58c5.238 0 6.149-1.426 6.149-3.067v-.116c0-1.773-.828-2.702-4.856-2.834l-1.873-.05c-1.375-.05-1.657-.315-1.657-.663v-.017c0-.397.282-.613 1.74-.613h.017c1.624 0 1.74.53 1.79.829h4.508v-.116c0-1.409-1.061-2.768-5.851-2.768h-.878c-4.923 0-5.851 1.31-5.851 2.768v.1c0 1.325.845 2.668 4.608 2.8l1.889.05c1.475.05 1.707.298 1.707.73v.033c0 .38-.248.745-1.839.745h-.034c-1.674 0-1.839-.762-1.839-1.094h-4.591v.117c0 1.16.58 3.165 5.95 3.165h.911zm13.532 0c5.237 0 6.149-1.426 6.149-3.067v-.116c0-1.773-.829-2.702-4.857-2.834l-1.873-.05c-1.375-.05-1.657-.315-1.657-.663v-.017c0-.397.282-.613 1.74-.613h.017c1.624 0 1.74.53 1.79.829h4.508v-.116c0-1.409-1.061-2.768-5.851-2.768h-.878c-4.923 0-5.851 1.31-5.851 2.768v.1c0 1.325.846 2.668 4.608 2.8l1.889.05c1.475.05 1.707.298 1.707.73v.033c0 .38-.248.745-1.839.745h-.033c-1.674 0-1.84-.762-1.84-1.094h-4.591v.117c0 1.16.58 3.165 5.95 3.165h.912zm13.78-7.227c1.707 0 2.387.497 2.569 1.342h-5.138c.216-.795.862-1.342 2.569-1.342zm7.044 3.729h-4.442c-.033.199-.364 1.077-2.502 1.077h-.017c-1.807 0-2.569-.712-2.702-1.64h9.696v-.498c0-2.138-.812-4.856-6.629-4.856h-.912c-5.519 0-6.58 2.436-6.58 4.492v.331c0 2.089 1.144 4.591 6.63 4.591h.878c5.818 0 6.58-2.22 6.58-3.464v-.033zm.973 3.248h4.508v-4.143c0-1.26.845-2.171 2.37-2.171 1.542 0 2.155.862 2.155 2.055v4.26h4.524V91.93c0-1.409-1.044-3.381-4.375-3.381h-.1c-2.784 0-4.16 1.359-4.607 1.773V88.75h-4.475v8.916zm22.122 0v-2.767h-.961c-.647 0-.746-.232-.746-.78v-2.635h1.707V88.75h-1.707v-2.602h-4.475v2.602h-1.707v2.734h1.707v3.647c0 1.707.829 2.535 2.37 2.535h3.812zm5.58-12.33h-4.508v2.668h4.508v-2.669zm0 3.414h-4.508v8.916h4.508V88.75zm9.291 5.088c0 .928-1.011 1.84-2.669 1.84-1.11 0-1.408-.498-1.408-.912v-.016c0-.448.315-.63 1.094-.763l2.983-.53v.38zm.083 2.635c.132.78.663 1.194 1.442 1.194h3.745v-2.603h-.48c-.315 0-.381-.132-.381-.38v-3.299c0-1.21-.382-2.867-5.951-2.867h-.928c-5.353 0-5.718 1.79-5.718 2.983v.1h4.177c.05-.282.099-.912 2.005-.912h.067c1.757 0 1.939.348 1.939.68 0 .248-.116.38-.497.43l-4.293.382c-2.652.215-3.613 1.093-3.613 2.585v.199c0 1.459 1.143 2.867 4.127 2.867h.182c2.602 0 3.746-.928 4.177-1.359zm10.47-11.138h-4.509v12.331h4.509v-12.33zm7.732 12.58c5.238 0 6.149-1.425 6.149-3.066v-.116c0-1.773-.828-2.702-4.856-2.834l-1.873-.05c-1.375-.05-1.657-.315-1.657-.663v-.017c0-.397.282-.613 1.74-.613h.017c1.624 0 1.74.53 1.79.829h4.508v-.116c0-1.409-1.061-2.768-5.851-2.768h-.878c-4.923 0-5.851 1.31-5.851 2.768v.1c0 1.325.846 2.668 4.608 2.8l1.889.05c1.475.05 1.707.298 1.707.73v.033c0 .38-.248.745-1.839.745h-.033c-1.674 0-1.84-.762-1.84-1.094h-4.591v.117c0 1.16.58 3.165 5.95 3.165h.911z" fill="#E5E6EF"/></g><defs><linearGradient id="paint0_linear" x1="-9.678" y1="89.917" x2="344.571" y2="89.917" gradientUnits="userSpaceOnUse"><stop stop-color="#FFBE10"/><stop offset=".218" stop-color="#FF571A"/><stop offset=".497" stop-color="#FF0F74"/><stop offset=".746" stop-color="#9640EE"/><stop offset=".778" stop-color="#8F44EF"/><stop offset=".825" stop-color="#7B4DF1"/><stop offset=".881" stop-color="#5B5DF5"/><stop offset=".944" stop-color="#2E73FA"/><stop offset="1" stop-color="#008AFF"/></linearGradient><linearGradient id="paint1_linear" x1="-9.566" y1="90.6" x2="344.413" y2="90.6" gradientUnits="userSpaceOnUse"><stop stop-color="#FFBE10"/><stop offset=".218" stop-color="#FF571A"/><stop offset=".497" stop-color="#FF0F74"/><stop offset=".746" stop-color="#9640EE"/><stop offset=".778" stop-color="#8F44EF"/><stop offset=".825" stop-color="#7B4DF1"/><stop offset=".881" stop-color="#5B5DF5"/><stop offset=".944" stop-color="#2E73FA"/><stop offset="1" stop-color="#008AFF"/></linearGradient><linearGradient id="paint2_linear" x1="-9.45" y1="91.285" x2="344.26" y2="91.285" gradientUnits="userSpaceOnUse"><stop stop-color="#FFBE10"/><stop offset=".218" stop-color="#FF571A"/><stop offset=".497" stop-color="#FF0F74"/><stop offset=".746" stop-color="#9640EE"/><stop offset=".778" stop-color="#8F44EF"/><stop offset=".825" stop-color="#7B4DF1"/><stop offset=".881" stop-color="#5B5DF5"/><stop offset=".944" stop-color="#2E73FA"/><stop offset="1" stop-color="#008AFF"/></linearGradient><linearGradient id="paint3_linear" x1="-9.338" y1="91.965" x2="344.103" y2="91.965" gradientUnits="userSpaceOnUse"><stop stop-color="#FFBE10"/><stop offset=".218" stop-color="#FF571A"/><stop offset=".497" stop-color="#FF0F74"/><stop offset=".746" stop-color="#9640EE"/><stop offset=".778" stop-color="#8F44EF"/><stop offset=".825" stop-color="#7B4DF1"/><stop offset=".881" stop-color="#5B5DF5"/><stop offset=".944" stop-color="#2E73FA"/><stop offset="1" stop-color="#008AFF"/></linearGradient><linearGradient id="paint4_linear" x1="-9.222" y1="92.65" x2="343.95" y2="92.65" gradientUnits="userSpaceOnUse"><stop stop-color="#FFBE10"/><stop offset=".218" stop-color="#FF571A"/><stop offset=".497" stop-color="#FF0F74"/><stop offset=".746" stop-color="#9640EE"/><stop offset=".778" stop-color="#8F44EF"/><stop offset=".825" stop-color="#7B4DF1"/><stop offset=".881" stop-color="#5B5DF5"/><stop offset=".944" stop-color="#2E73FA"/><stop offset="1" stop-color="#008AFF"/></linearGradient><linearGradient id="paint5_linear" x1="-9.11" y1="93.335" x2="343.793" y2="93.335" gradientUnits="userSpaceOnUse"><stop stop-color="#FFBE10"/><stop offset=".218" stop-color="#FF571A"/><stop offset=".497" stop-color="#FF0F74"/><stop offset=".746" stop-color="#9640EE"/><stop offset=".778" stop-color="#8F44EF"/><stop offset=".825" stop-color="#7B4DF1"/><stop offset=".881" stop-color="#5B5DF5"/><stop offset=".944" stop-color="#2E73FA"/><stop offset="1" stop-color="#008AFF"/></linearGradient><linearGradient id="paint6_linear" x1="-8.993" y1="92.36" x2="343.639" y2="92.36" gradientUnits="userSpaceOnUse"><stop stop-color="#FFBE10"/><stop offset=".218" stop-color="#FF571A"/><stop offset=".497" stop-color="#FF0F74"/><stop offset=".746" stop-color="#9640EE"/><stop offset=".778" stop-color="#8F44EF"/><stop offset=".825" stop-color="#7B4DF1"/><stop offset=".881" stop-color="#5B5DF5"/><stop offset=".944" stop-color="#2E73FA"/><stop offset="1" stop-color="#008AFF"/></linearGradient><linearGradient id="paint7_linear" x1="-8.874" y1="91.287" x2="343.488" y2="91.287" gradientUnits="userSpaceOnUse"><stop stop-color="#FFBE10"/><stop offset=".218" stop-color="#FF571A"/><stop offset=".497" stop-color="#FF0F74"/><stop offset=".746" stop-color="#9640EE"/><stop offset=".778" stop-color="#8F44EF"/><stop offset=".825" stop-color="#7B4DF1"/><stop offset=".881" stop-color="#5B5DF5"/><stop offset=".944" stop-color="#2E73FA"/><stop offset="1" stop-color="#008AFF"/></linearGradient><linearGradient id="paint8_linear" x1="-8.765" y1="90.213" x2="343.328" y2="90.213" gradientUnits="userSpaceOnUse"><stop stop-color="#FFBE10"/><stop offset=".218" stop-color="#FF571A"/><stop offset=".497" stop-color="#FF0F74"/><stop offset=".746" stop-color="#9640EE"/><stop offset=".778" stop-color="#8F44EF"/><stop offset=".825" stop-color="#7B4DF1"/><stop offset=".881" stop-color="#5B5DF5"/><stop offset=".944" stop-color="#2E73FA"/><stop offset="1" stop-color="#008AFF"/></linearGradient><linearGradient id="paint9_linear" x1="-8.646" y1="89.141" x2="343.177" y2="89.141" gradientUnits="userSpaceOnUse"><stop stop-color="#FFBE10"/><stop offset=".218" stop-color="#FF571A"/><stop offset=".497" stop-color="#FF0F74"/><stop offset=".746" stop-color="#9640EE"/><stop offset=".778" stop-color="#8F44EF"/><stop offset=".825" stop-color="#7B4DF1"/><stop offset=".881" stop-color="#5B5DF5"/><stop offset=".944" stop-color="#2E73FA"/><stop offset="1" stop-color="#008AFF"/></linearGradient><linearGradient id="paint10_linear" x1="-8.536" y1="88.068" x2="343.017" y2="88.068" gradientUnits="userSpaceOnUse"><stop stop-color="#FFBE10"/><stop offset=".218" stop-color="#FF571A"/><stop offset=".497" stop-color="#FF0F74"/><stop offset=".746" stop-color="#9640EE"/><stop offset=".778" stop-color="#8F44EF"/><stop offset=".825" stop-color="#7B4DF1"/><stop offset=".881" stop-color="#5B5DF5"/><stop offset=".944" stop-color="#2E73FA"/><stop offset="1" stop-color="#008AFF"/></linearGradient><linearGradient id="paint11_linear" x1="-8.417" y1="86.997" x2="342.865" y2="86.997" gradientUnits="userSpaceOnUse"><stop stop-color="#FFBE10"/><stop offset=".218" stop-color="#FF571A"/><stop offset=".497" stop-color="#FF0F74"/><stop offset=".746" stop-color="#9640EE"/><stop offset=".778" stop-color="#8F44EF"/><stop offset=".825" stop-color="#7B4DF1"/><stop offset=".881" stop-color="#5B5DF5"/><stop offset=".944" stop-color="#2E73FA"/><stop offset="1" stop-color="#008AFF"/></linearGradient><linearGradient id="paint12_linear" x1="-8.307" y1="85.925" x2="342.705" y2="85.925" gradientUnits="userSpaceOnUse"><stop stop-color="#FFBE10"/><stop offset=".218" stop-color="#FF571A"/><stop offset=".497" stop-color="#FF0F74"/><stop offset=".746" stop-color="#9640EE"/><stop offset=".778" stop-color="#8F44EF"/><stop offset=".825" stop-color="#7B4DF1"/><stop offset=".881" stop-color="#5B5DF5"/><stop offset=".944" stop-color="#2E73FA"/><stop offset="1" stop-color="#008AFF"/></linearGradient><linearGradient id="paint13_linear" x1="-8.188" y1="84.854" x2="342.553" y2="84.854" gradientUnits="userSpaceOnUse"><stop stop-color="#FFBE10"/><stop offset=".218" stop-color="#FF571A"/><stop offset=".497" stop-color="#FF0F74"/><stop offset=".746" stop-color="#9640EE"/><stop offset=".778" stop-color="#8F44EF"/><stop offset=".825" stop-color="#7B4DF1"/><stop offset=".881" stop-color="#5B5DF5"/><stop offset=".944" stop-color="#2E73FA"/><stop offset="1" stop-color="#008AFF"/></linearGradient><linearGradient id="paint14_linear" x1="-8.07" y1="83.783" x2="342.399" y2="83.783" gradientUnits="userSpaceOnUse"><stop stop-color="#FFBE10"/><stop offset=".218" stop-color="#FF571A"/><stop offset=".497" stop-color="#FF0F74"/><stop offset=".746" stop-color="#9640EE"/><stop offset=".778" stop-color="#8F44EF"/><stop offset=".825" stop-color="#7B4DF1"/><stop offset=".881" stop-color="#5B5DF5"/><stop offset=".944" stop-color="#2E73FA"/><stop offset="1" stop-color="#008AFF"/></linearGradient><linearGradient id="paint15_linear" x1="-7.957" y1="82.711" x2="342.241" y2="82.711" gradientUnits="userSpaceOnUse"><stop stop-color="#FFBE10"/><stop offset=".218" stop-color="#FF571A"/><stop offset=".497" stop-color="#FF0F74"/><stop offset=".746" stop-color="#9640EE"/><stop offset=".778" stop-color="#8F44EF"/><stop offset=".825" stop-color="#7B4DF1"/><stop offset=".881" stop-color="#5B5DF5"/><stop offset=".944" stop-color="#2E73FA"/><stop offset="1" stop-color="#008AFF"/></linearGradient><linearGradient id="paint16_linear" x1="-7.839" y1="81.638" x2="342.087" y2="81.638" gradientUnits="userSpaceOnUse"><stop stop-color="#FFBE10"/><stop offset=".218" stop-color="#FF571A"/><stop offset=".497" stop-color="#FF0F74"/><stop offset=".746" stop-color="#9640EE"/><stop offset=".778" stop-color="#8F44EF"/><stop offset=".825" stop-color="#7B4DF1"/><stop offset=".881" stop-color="#5B5DF5"/><stop offset=".944" stop-color="#2E73FA"/><stop offset="1" stop-color="#008AFF"/></linearGradient><linearGradient id="paint17_linear" x1="163.246" y1="46.334" x2="163.246" y2="109.834" gradientUnits="userSpaceOnUse"><stop stop-color="#111" stop-opacity="0"/><stop offset=".412" stop-color="#111"/><stop offset=".677" stop-color="#111" stop-opacity=".912"/><stop offset="1" stop-color="#111" stop-opacity="0"/></linearGradient><clipPath id="clip0"><path d="M0 10C0 4.477 4.477 0 10 0h300c5.523 0 10 4.477 10 10v170H0V10z" fill="#fff"/></clipPath><filter id="filter0_f" x="34.413" y="31.417" width="257.667" height="93.333" filterUnits="userSpaceOnUse" color-interpolation-filters="sRGB"><feFlood flood-opacity="0" result="BackgroundImageFix"/><feBlend in="SourceGraphic" in2="BackgroundImageFix" result="shape"/><feGaussianBlur stdDeviation="7.458" result="effect1_foregroundBlur"/></filter></defs></svg>