<svg width="150" height="41" fill="none" xmlns="http://www.w3.org/2000/svg"><path fill-rule="evenodd" clip-rule="evenodd" d="M97.595 25.086v-.82c-1.423-.112-4.37-.084-4.853.057-.062.181-.057.399-.053.609l.002.11v8.1c0 .34 0 .707-.026 1.046a5.12 5.12 0 01-.152.905c-.076.31-.28.452-.56.452-.304 0-.457-.113-.584-.452a2.59 2.59 0 01-.1-.472l-.001-.009c-.009-.163-.02-.323-.032-.482a12.718 12.718 0 01-.044-.931v-8.706l-.001-.142-.002-.093c-.009-.56-.01-.588.714-.84.66-.225 1.296-.395 1.982-.508l.057-.013a1.47 1.47 0 00.578-.1c1.262-.469 1.295-.75 1.366-1.364l.006-.05c.071-.456-.87-.926-1.78-1.38a13.71 13.71 0 01-1.066-.57c-1.55-.99-1.22-2.092-1.22-2.092s-.045-10.668-.007-11.803a.736.736 0 01.135-.012.55.55 0 01.56.396c.075.226.126.452.151.678.026.368.051.763.051 1.13v9.018h4.879V7.165c0-.48-.026-.989-.077-1.47-.203-1.752-1.194-3.872-3.506-4.522-1.194-.34-2.389-.34-3.583-.113-2.134.367-3.582 1.95-3.963 4.325-.076.531-.101 1.063-.126 1.594l-.001.017v9.36c-.017.164-.392 4.015.28 4.292.19.078.495.161.824.25.862.234 1.892.513 1.488.88-.17.155-.536.292-.958.448-.967.36-2.225.827-2.066 1.87.229 1.47.153 11.081.153 11.081s.228 2.205 1.702 3.477c.068.058.13.088.188.092.524.51 1.177.88 1.971 1.096a7.543 7.543 0 003.964.028c1.931-.48 3.074-1.866 3.532-3.986.125-.612.151-1.25.176-1.863l.002-.03c.017-.624.01-1.26.005-1.89V32.1a98.222 98.222 0 01-.005-.936v-6.078zm-33.692-8.278a.33.33 0 00.177-.057c.07-.108.086-.234.103-.367.015-.11.03-.224.076-.34V7.142c0-.48-.026-.961-.077-1.414-.203-1.752-1.194-3.872-3.532-4.494a7.832 7.832 0 00-4.04-.028c-.998.257-1.79.78-2.386 1.533l-.001-.095s-1.703 1.865-2.033 3.76c-.101.548-.127 3.506-.152 6.427-.026 2.946-.05 5.852-.153 6.207-.105.366-.748.717-1.443 1.096-.647.352-1.339.73-1.682 1.166-.316.375-.207.651.02.845.035.072.087.14.157.204.127.113.305.255.483.311a10.423 10.423 0 002.17.644c.186.039.369.077.549.12.836.22.833.291.818.82a9.222 9.222 0 00-.005.282v9.61c0 .594 0 1.187.127 1.753.457 2.091 1.55 3.533 3.48 4.042a7.827 7.827 0 004.27-.085c.94-.283 1.727-.876 2.312-1.752a6.122 6.122 0 00.99-2.799c.051-.48.076-.933.076-1.413v-8.848c0-.05.003-.102.005-.153.008-.203.016-.406-.106-.61a.63.63 0 01-.114-.014c-.039-.007-.077-.014-.115-.014h-4.32a.4.4 0 00-.157.039l-.02.008-.026.01c-.06.203-.056.406-.052.61l.002.153v8.14c0 .34 0 .65-.026.99a9.497 9.497 0 01-.127.848c-.101.367-.279.537-.584.537a.645.645 0 01-.306-.068c-.008-1.982-.045-12.536 0-13.304.041-.668-1.796-.898-2.887-1.034a9.128 9.128 0 01-.67-.097c-.385-.086.419-.432 1.269-.798.55-.237 1.12-.483 1.4-.672.737-.452.559-.65.559-.65V6.105a3.11 3.11 0 01.05-.151c.102-.255.306-.368.56-.368.254 0 .457.113.533.396.076.283.127.593.152.904.026.34.026.65.026.99v8.197c0 .05-.002.1-.005.15-.009.177-.017.352.081.528a.426.426 0 00.178.057h4.396zm-21.816 4.03l.27-.173c.998-.634 2.388-1.518 2.388-2.843V1.371h2.414l-.001.028h3c.06 0 .12.018.193.039l.06.017c.085.236.081.472.078.707l-.001.141v17.271c-.178.311-.432.452-.686.566-.483.197-.965.367-1.448.536-.29.095-.58.19-.862.285-.276.261-.592.816.328 1.186 1.194.48 3.252 1.414 3.303 2.205.05.791 0 15.462 0 15.462h-2.846v-.001h-2.44c-.036 0-.087-.015-.152-.034l-.044-.013-.032-.01a1.837 1.837 0 01-.05-.395V24.889c0-.905-.051-1.018-.788-1.414-.36-.2-.76-.356-1.147-.507l-.15-.058a30.616 30.616 0 00-.614-.242h-.001c-.275-.106-.545-.21-.807-.324a1.486 1.486 0 01-.333-.204l-.049.007s-.063-.024-.149-.176a4.372 4.372 0 01-.053-.05.453.453 0 01-.026-.622 1.52 1.52 0 01.458-.368c.062-.032.124-.063.187-.093zM16.033 18.5c-1.296 1.13-.407 2.799-.407 2.799l.055-.014c.128.25.33.431.607.551.076.028.159.056.241.085.083.028.165.056.241.085.115.056.236.099.356.14.12.043.242.086.356.142.711.34.762.453.762 1.329v10.26c0 .481 0 .99.051 1.47.203 2.064 1.347 3.958 3.506 4.58 1.322.367 2.643.367 3.964.056.347-.08.67-.19.967-.33 3.58-.885 3.53-6.68 3.53-6.68s-.127-9.102-.127-9.81c0-.508-.673-.827-1.59-1.261-.356-.169-.75-.354-1.154-.576-.636-.353-.718-.701-.615-.978a59.226 59.226 0 001.987-.66l.093-.037h.002c.251-.099.51-.199.668-.5V1.654a.237.237 0 00-.035-.1.582.582 0 01-.042-.098l-.06-.017a.685.685 0 00-.194-.04H24.8a.721.721 0 00-.204.057 2.414 2.414 0 00-.064.495c-.008.123-.016.25-.037.381v16.423c0 .254-.102.396-.305.48a1.375 1.375 0 01-.356.142c-.184.048-.373.101-.565.156-.257.072-.52.146-.782.211-.155.046-.315.083-.475.12a5.575 5.575 0 00-.693.191c-.28.113-.585.283-.839.48-.203.142-.229.481-.05.68.101.112.228.253.38.338.072.04.144.082.216.125.184.108.372.218.572.3.305.15.61.276.915.401.152.063.305.126.457.192.432.198.864.396 1.245.706.204.17.33.368.305.65v9.612c0 .279-.022.57-.044.865-.012.154-.023.309-.032.464a3.919 3.919 0 00-.018.088c-.02.102-.045.221-.084.308a.579.579 0 01-1.041.084 1.338 1.338 0 01-.153-.452c-.05-.48-.102-.99-.102-1.47v-9.894a.573.573 0 00-.28-.509 1.855 1.855 0 00-.456-.254c-.354-.164-.716-.318-1.082-.474-.265-.114-.532-.227-.799-.346-.508-.226-.99-.452-1.372-.876-.33-.34-.28-.679.102-.905.205-.127.451-.208.684-.285l.078-.026c.458-.145.927-.267 1.393-.389h.002c.257-.067.512-.134.765-.204.356-.113.686-.226.965-.566V1.823c-.025-.141-.05-.282.077-.424-.06 0-.11-.01-.153-.017a.407.407 0 00-.076-.01h-4.269a.476.476 0 00-.143.027h-.721v14.218c0 .904-.432 1.752-1.728 2.883zm83.976-1.088l-.026.155s-.381 2.883.127 3.024c.508.142 2.541 1.018 2.008 1.413-.167.124-.477.258-.826.41-.77.334-1.731.75-1.766 1.315-.051.82 0 16.055 0 16.055h3.405v-.054h1.956V22.544h1.5v17.158h4.878V1.26h-4.878v14.784l.003.589c.004.596.009 1.196-.029 1.813-.482.113-.94.084-1.423.028l-.002-.014c-.024-.193-.049-.386-.049-.551V1.316h-4.878v16.096zm-26.528.527c.056.11.182.21.327.294.114.199.236.348.36.408.155.075.605.256 1.175.484 1.577.632 4.072 1.632 3.755 1.777-.1.046-.306.074-.566.108-.869.117-2.34.314-2.458 1.532-.02.234.341.823.795 1.564.749 1.223 1.752 2.86 1.72 4.004-.043 1.564.026 6.04.046 7.227a.675.675 0 01-.555.268c-.355 0-.635-.14-.762-.508-.12-.295-.172-.614-.22-.911l-.008-.05a4.3 4.3 0 01-.03-.738c.002-.083.004-.167.004-.252v-8c0-.056.003-.112.005-.169.009-.199.018-.402-.08-.622a1.773 1.773 0 00-.382-.056h-3.634c-.059 0-.126.019-.203.04a1.774 1.774 0 01-.178.045v9.78c0 .282 0 .565.026.848.152 2.205 1.448 4.325 3.684 4.89a7.74 7.74 0 004.015-.028c1.778-.48 2.87-1.81 3.328-3.76a7.999 7.999 0 00.203-1.894v-5.794c0-1.385-.203-2.714-.711-3.986a.982.982 0 00-.052-.128c-.018-.042-.037-.084-.05-.126-.076-.283-.025-.452.204-.594.253-.14.507-.254.76-.367h.002c.177-.085.355-.163.533-.24.178-.078.356-.156.534-.24.178-.086.356-.227.508-.396a.407.407 0 00.079-.104c.331-.328.33-.612.329-.894v-.05c-.024-.823-2.824-1.763-4.323-2.267l-.004-.001-.4-.135c-2.646-.94-3.522-4.726-3.777-7.916.005-.63 0-1.26-.004-1.89-.002-.424-.005-.848-.005-1.272 0-.28.022-.572.044-.868.012-.153.023-.307.032-.461.025-.17.05-.34.102-.48.152-.368.508-.538.838-.368.178.085.28.283.33.48.128.481.128.962.128 1.47v9.187c.541.056 1.038.063 1.535.07.249.002.497.005.751.015.259-.01.517-.006.776-.001.456.008.915.016 1.384-.056 0-.102.007-.19.013-.274.006-.078.012-.153.012-.235 0-1.063.003-2.124.006-3.184v-.012c.006-2.118.011-4.232-.006-6.358 0-.48-.05-.989-.152-1.47-.457-2.12-1.575-3.533-3.507-4.042-1.244-.31-2.49-.31-3.71.085-1.447.48-2.464 1.498-3.048 3.053a6.115 6.115 0 00-.407 2.261v6.502c0 .273-.007.56-.014.852-.038 1.553-.08 3.263.903 3.953zM14.545 20.24c.022.362.092.72.269.893.088.087.217.2.367.33.58.51 1.473 1.29 1.513 1.875.05.735 0 16.422 0 16.422h-.99c-.678.109-3.413.08-3.965-.004a1.844 1.844 0 01-.051-.395V18.726a1.2 1.2 0 00-.203.566c-.064.777-.134 1.548-.204 2.32-.07.769-.14 1.539-.203 2.315a2842.2 2842.2 0 00-.229 2.391v.004l-.228 2.382c-.076.79-.146 1.574-.216 2.357-.07.786-.14 1.571-.216 2.364-.153 1.61-.305 3.222-.458 4.862l-.076.763c-.025.226-.05.452-.101.735-.307.085-.6.074-.877.063a6.948 6.948 0 00-.267-.007H7.267c-.11 0-.22.005-.328.01-.27.011-.537.022-.79-.038-.153-.452-.381-2.855-.56-5.286-.081-1.13-.184-2.26-.288-3.398a341.707 341.707 0 01-.32-3.67c-.094-1.14-.189-2.286-.306-3.419-.053-.525-.1-1.051-.146-1.577-.109-1.227-.217-2.454-.413-3.68 0 .056-.006.113-.013.17-.006.056-.012.112-.012.169V39.05c0 .11-.006.22-.012.332-.007.12-.014.244-.014.374l-.106.026a.717.717 0 01-.173.031H.229c-.04 0-.093-.033-.139-.061l-.04-.024a.935.935 0 01-.05-.282C.025 26.867.025 14.26.025 1.653a.57.57 0 01.051-.198l.057-.022A.334.334 0 01.254 1.4h5.717c.052 0 .105.013.173.03.032.009.067.018.106.026.013.1.032.205.051.311.02.106.038.212.051.311.076.847.146 1.687.216 2.527.07.842.14 1.684.216 2.533l.229 2.572.228 2.572.153 1.795.152 1.795c.051.65.102 1.3.178 1.979.005.04.008.082.012.125.012.164.025.34.166.497.209-2.221.41-4.434.61-6.645.313-3.443.625-6.883.965-10.343l.066-.013c.124-.023.232-.044.34-.044h5.413c.12 0 .225.018.352.04l.105.017.014.122c.02.169.037.31.037.471V17.71c0 .395-.101.678-.381.904-.144.114-.27.284-.395.449l-.088.116c-.22.328-.351.692-.395 1.062zm23.853-.194c.152-.069.304-.14.452-.213.229-.085.458-.198.508-.537a12.13 12.13 0 01-.19-.311c-.064-.106-.127-.212-.19-.31a14.697 14.697 0 01-1.424-2.686 10.24 10.24 0 01-.787-3.901c-.017-1.055-.012-2.11-.006-3.165.003-.529.006-1.056.006-1.584 0-.339.05-.706.101-1.046 0-.113.026-.226.077-.339a.55.55 0 01.559-.396.55.55 0 01.559.396c.05.17.076.311.101.48.009.165.02.326.032.486.023.308.044.612.044.928v8.14c0 .064-.003.128-.006.192-.01.19-.019.381.057.572.077.028.153.056.204.056h3.938c.05 0 .101-.025.152-.05.026-.012.051-.025.077-.034 0-.117.006-.219.013-.317.006-.092.012-.181.012-.277V6.944c0-.481-.025-.99-.127-1.47-.407-2.233-1.55-3.732-3.583-4.269-1.194-.31-2.439-.31-3.633.085-1.084.337-1.918.974-2.502 1.877-.463.48-1.358 1.77-1.436 3.885l-.007.205c-.064 1.718-.272 7.358.312 8.982.584 1.696-.635 3.25-1.067 3.618-.432.367-1.448 1.64 1.702 2.318.12.026.242.032.365.023l.117.038c.407.127.82.247 1.232.367.413.12.826.24 1.233.368.295.102.602.234.904.363.115.05.23.099.341.145.229.114.381.283.508.51.61 1.243 1.093 2.515 1.194 3.928.009.189.02.377.032.566.022.376.045.753.045 1.13v3.816c0 .509-.026.99-.178 1.47-.127.34-.356.565-.712.594-.38.028-.66-.142-.813-.538a2.376 2.376 0 01-.177-.734c-.051-.396-.051-.792-.051-1.188V25.26c0-.067.003-.13.005-.193.006-.123.012-.241-.005-.372 0-.08-.026-.175-.05-.263a2.66 2.66 0 01-.026-.105l-.077-.022a.628.628 0 00-.152-.034h-3.812a.608.608 0 00-.19.043c-.044.015-.09.03-.14.042 0 .149-.007.282-.014.408a6.14 6.14 0 00-.011.326v8.905c0 .395.025.79.05 1.187.153 1.78 1.195 4.042 3.583 4.692a7.373 7.373 0 004.142 0c.297-.08.575-.185.835-.315l.003.114s.005-.054.121-.178a4.06 4.06 0 00.93-.691c.09-.056.19-.115.296-.176 1.321-.735 1.779-5.173 1.779-5.173s-.051-8.395 0-9.328c.044-.822-3.284-2.06-4.823-2.634a31.582 31.582 0 01-.513-.193c-.59-.229-.306-.788.081-1.254zm102.747-18.59c.03-.011.06-.027.089-.042.044-.022.084-.043.114-.043h4.244c.084 0 .168.02.267.042h.001l.062.015.077.424v32.93c0 .07-.003.139-.006.208-.008.242-.017.483.081.725.127.028.28.056.407.056h2.795c.096 0 .192.007.293.013.114.008.234.016.368.016.076.509.066 1.002.057 1.492a19.69 19.69 0 00-.003.972v.004c.004.488.009.98-.029 1.489a.896.896 0 00-.104.038c-.057.024-.111.047-.175.047h-8.385c-.039 0-.093-.033-.139-.062h-.001l-.015-.01a.931.931 0 00-.023-.013c-.076-.622-.127-35.644-.051-37.962l.002-.01v-.002l.074-.327zM124.96 34.023v-13.43c0-4.493 0-8.958.025-13.423 0-.622 0-1.244-.127-1.838-.457-2.063-1.524-3.505-3.404-4.07-1.22-.367-2.465-.34-3.71-.113-2.033.368-3.277 1.724-3.837 3.9-.177.68-.203 1.386-.203 2.093v26.853c0 .537.026 1.046.102 1.554.228 1.781 1.27 3.788 3.481 4.382 1.168.31 2.388.31 3.583.113 2.109-.34 3.607-1.979 3.963-4.325.102-.565.127-1.13.127-1.696zm-6.378-.934V20.596c0-4.184 0-8.339-.05-12.522 0-.1-.002-.198-.003-.297a6.163 6.163 0 01.028-.89c.051-.34.127-.65.229-.962a.467.467 0 01.457-.339.453.453 0 01.357.11.474.474 0 01.203.257c.076.226.152.48.203.735.051.424.076.848.076 1.272v25.355c0 .424-.025.848-.051 1.272a5.275 5.275 0 01-.127.622.55.55 0 01-.559.396.585.585 0 01-.264-.06c-.152-.051-.267-.166-.32-.364a4.2 4.2 0 01-.153-.82c-.026-.423-.026-.847-.026-1.272zm20.099-12.495V34.02c0 .537-.026 1.074-.102 1.611-.381 2.262-1.55 3.788-3.608 4.297a7.355 7.355 0 01-3.913-.028c-2.033-.566-3.151-2.092-3.532-4.325a10.43 10.43 0 01-.101-1.555V7.026c0-.707.05-1.413.228-2.092.534-2.063 1.779-3.392 3.735-3.788 1.245-.254 2.49-.254 3.71.114 1.956.565 3.049 2.035 3.456 4.155a8.66 8.66 0 01.127 1.61v13.569zm-6.276-14.19a1.775 1.775 0 01.175-.503l.001-.003.001-.003c.204-.396.686-.396.889-.001h.001v.001c.124.22.199.494.227.77l.001.01.001.012c.05.48.076.989.076 1.47v24.789c0 .509-.026 1.046-.051 1.555a3.246 3.246 0 01-.152.678c-.077.283-.305.396-.559.396-.019 0-.037 0-.055-.002a.494.494 0 01-.479-.394 4.128 4.128 0 01-.153-.764c-.025-.339-.025-.706-.025-1.045V7.873c0-.48.051-.989.102-1.47z" fill="#fff"/></svg>