<svg width="2905" height="1422" fill="none" xmlns="http://www.w3.org/2000/svg"><path fill="url(#paint0_linear)" fill-opacity=".2" stroke="url(#paint1_linear)" stroke-width="4.733" d="M2.367 1260.99h2900.21v158.645H2.367z"/><rect x="839.312" y="982.183" width="230.97" height="297.458" rx="6.967" fill="#464649" stroke="url(#paint2_linear)" stroke-width="5"/><mask id="a" fill="#fff"><rect x="867.216" y="980.095" width="235.97" height="302.458" rx="4.733"/></mask><rect x="867.216" y="980.095" width="235.97" height="302.458" rx="4.733" fill="#111" stroke="url(#paint3_linear)" stroke-width="10" mask="url(#a)"/><mask id="b" fill="#fff"><path fill-rule="evenodd" clip-rule="evenodd" d="M985.856 1107.86c26.644 0 48.234-23.93 48.234-53.45 0-29.52-21.59-53.45-48.234-53.45-26.641 0-48.237 23.93-48.237 53.45 0 29.52 21.596 53.45 48.237 53.45zm-.652 161.66c36.356 0 65.836-33.57 65.836-74.97s-29.48-74.96-65.836-74.96c-36.361 0-65.837 33.56-65.837 74.96 0 41.4 29.476 74.97 65.837 74.97z"/></mask><path fill-rule="evenodd" clip-rule="evenodd" d="M985.856 1107.86c26.644 0 48.234-23.93 48.234-53.45 0-29.52-21.59-53.45-48.234-53.45-26.641 0-48.237 23.93-48.237 53.45 0 29.52 21.596 53.45 48.237 53.45zm-.652 161.66c36.356 0 65.836-33.57 65.836-74.97s-29.48-74.96-65.836-74.96c-36.361 0-65.837 33.56-65.837 74.96 0 41.4 29.476 74.97 65.837 74.97z" fill="#646569" fill-opacity=".2"/><path d="M1029.09 1054.41c0 27.25-19.83 48.45-43.234 48.45v10c29.874 0 53.234-26.67 53.234-58.45h-10zm-43.234-48.45c23.404 0 43.234 21.19 43.234 48.45h10c0-31.79-23.36-58.455-53.234-58.455v10.005zm-43.237 48.45c0-27.26 19.828-48.45 43.237-48.45v-10.005c-29.873 0-53.237 26.665-53.237 58.455h10zm43.237 48.45c-23.409 0-43.237-21.2-43.237-48.45h-10c0 31.78 23.364 58.45 53.237 58.45v-10zm60.184 91.69c0 39.27-27.83 69.97-60.836 69.97v10c39.716 0 70.836-36.43 70.836-79.97h-10zm-60.836-69.96c33.006 0 60.836 30.7 60.836 69.96h10c0-43.53-31.12-79.96-70.836-79.96v10zm-60.837 69.96c0-39.26 27.828-69.96 60.837-69.96v-10c-39.712 0-70.837 36.43-70.837 79.96h10zm60.837 69.97c-33.009 0-60.837-30.7-60.837-69.97h-10c0 43.54 31.125 79.97 70.837 79.97v-10z" fill="url(#paint4_linear)" mask="url(#b)"/><mask id="c" fill="#fff"><path d="M1038.94 1206.29c2.36 0 4.29-1.92 4.17-4.28-.45-9.01-2.33-17.86-5.55-26.13-3.73-9.57-9.18-18.15-16-25.17-6.82-7.03-14.86-12.35-23.598-15.63-7.235-2.71-14.818-3.97-22.408-3.73-2.635.09-4.541 2.44-4.31 5.07.239 2.72 2.679 4.69 5.413 4.65a50.85 50.85 0 0118.631 3.26c7.602 2.85 14.592 7.48 20.532 13.6 5.93 6.11 10.67 13.57 13.92 21.9 2.74 7.03 4.36 14.54 4.8 22.18.14 2.36 2.04 4.28 4.4 4.28z"/></mask><path d="M1038.94 1206.29c2.36 0 4.29-1.92 4.17-4.28-.45-9.01-2.33-17.86-5.55-26.13-3.73-9.57-9.18-18.15-16-25.17-6.82-7.03-14.86-12.35-23.598-15.63-7.235-2.71-14.818-3.97-22.408-3.73-2.635.09-4.541 2.44-4.31 5.07.239 2.72 2.679 4.69 5.413 4.65a50.85 50.85 0 0118.631 3.26c7.602 2.85 14.592 7.48 20.532 13.6 5.93 6.11 10.67 13.57 13.92 21.9 2.74 7.03 4.36 14.54 4.8 22.18.14 2.36 2.04 4.28 4.4 4.28z" stroke="url(#paint5_linear)" stroke-width="6" mask="url(#c)"/><rect x="357.148" y="749.404" width="412.901" height="530.652" rx="6.967" fill="#464649" stroke="url(#paint6_linear)" stroke-width="5"/><rect x="412.563" y="749.404" width="412.901" height="530.652" rx="6.967" fill="#111" stroke="url(#paint7_linear)" stroke-width="5"/><mask id="d" fill="#fff"><path fill-rule="evenodd" clip-rule="evenodd" d="M620.164 973.171c47.18 0 85.427-42.382 85.427-94.663 0-52.28-38.247-94.662-85.427-94.662-47.18 0-85.427 42.382-85.427 94.662 0 52.281 38.247 94.663 85.427 94.663zm-1.152 286.299c64.394 0 116.596-59.44 116.596-132.76s-52.202-132.76-116.596-132.76c-64.395 0-116.597 59.44-116.597 132.76s52.202 132.76 116.597 132.76z"/></mask><path fill-rule="evenodd" clip-rule="evenodd" d="M620.164 973.171c47.18 0 85.427-42.382 85.427-94.663 0-52.28-38.247-94.662-85.427-94.662-47.18 0-85.427 42.382-85.427 94.662 0 52.281 38.247 94.663 85.427 94.663zm-1.152 286.299c64.394 0 116.596-59.44 116.596-132.76s-52.202-132.76-116.596-132.76c-64.395 0-116.597 59.44-116.597 132.76s52.202 132.76 116.597 132.76z" fill="#646569" fill-opacity=".2"/><path d="M700.591 878.508c0 50.015-36.479 89.663-80.427 89.663v10c50.412 0 90.427-45.116 90.427-99.663h-10zm-80.427-89.662c43.948 0 80.427 39.648 80.427 89.662h10c0-54.547-40.015-99.662-90.427-99.662v10zm-80.427 89.662c0-50.014 36.479-89.662 80.427-89.662v-10c-50.412 0-90.427 45.115-90.427 99.662h10zm80.427 89.663c-43.948 0-80.427-39.648-80.427-89.663h-10c0 54.547 40.015 99.663 90.427 99.663v-10zm110.444 158.539c0 71.19-50.553 127.76-111.596 127.76v10c67.746 0 121.596-62.31 121.596-137.76h-10zM619.012 998.95c61.043 0 111.596 56.57 111.596 127.76h10c0-75.45-53.85-137.76-121.596-137.76v10zm-111.597 127.76c0-71.19 50.554-127.76 111.597-127.76v-10c-67.746 0-121.597 62.31-121.597 137.76h10zm111.597 127.76c-61.043 0-111.597-56.57-111.597-127.76h-10c0 75.45 53.851 137.76 121.597 137.76v-10z" fill="url(#paint8_linear)" mask="url(#d)"/><mask id="e" fill="#fff"><path d="M714.182 1147.49c4.182 0 7.593-3.39 7.383-7.57-.8-15.95-4.124-31.63-9.83-46.28-6.607-16.95-16.261-32.14-28.339-44.58-12.078-12.45-26.312-21.88-41.785-27.67-12.814-4.81-26.242-7.03-39.685-6.61-4.666.15-8.041 4.32-7.633 8.97.424 4.82 4.745 8.3 9.586 8.23 11.184-.16 22.334 1.79 32.996 5.79 13.464 5.04 25.849 13.24 36.358 24.07 10.509 10.83 18.909 24.05 24.657 38.8 4.848 12.44 7.72 25.74 8.501 39.28.241 4.18 3.608 7.57 7.791 7.57z"/></mask><path d="M714.182 1147.49c4.182 0 7.593-3.39 7.383-7.57-.8-15.95-4.124-31.63-9.83-46.28-6.607-16.95-16.261-32.14-28.339-44.58-12.078-12.45-26.312-21.88-41.785-27.67-12.814-4.81-26.242-7.03-39.685-6.61-4.666.15-8.041 4.32-7.633 8.97.424 4.82 4.745 8.3 9.586 8.23 11.184-.16 22.334 1.79 32.996 5.79 13.464 5.04 25.849 13.24 36.358 24.07 10.509 10.83 18.909 24.05 24.657 38.8 4.848 12.44 7.72 25.74 8.501 39.28.241 4.18 3.608 7.57 7.791 7.57z" fill="url(#paint9_linear)" fill-opacity=".2" stroke="url(#paint10_linear)" stroke-width="10" mask="url(#e)"/><rect x="2228.77" y="985.128" width="230.97" height="297.458" rx="12.986" fill="#464649" stroke="url(#paint11_linear)" stroke-width="5"/><rect x="2260.05" y="985.129" width="230.97" height="297.458" rx="12.986" fill="#111" stroke="url(#paint12_linear)" stroke-width="5"/><mask id="f" fill="#fff"><path fill-rule="evenodd" clip-rule="evenodd" d="M2376.19 1110.39c26.64 0 48.24-23.93 48.24-53.45 0-29.52-21.6-53.45-48.24-53.45s-48.24 23.93-48.24 53.45c0 29.52 21.6 53.45 48.24 53.45zm-.65 161.66c36.36 0 65.84-33.56 65.84-74.96 0-41.4-29.48-74.97-65.84-74.97s-65.84 33.57-65.84 74.97 29.48 74.96 65.84 74.96z"/></mask><path fill-rule="evenodd" clip-rule="evenodd" d="M2376.19 1110.39c26.64 0 48.24-23.93 48.24-53.45 0-29.52-21.6-53.45-48.24-53.45s-48.24 23.93-48.24 53.45c0 29.52 21.6 53.45 48.24 53.45zm-.65 161.66c36.36 0 65.84-33.56 65.84-74.96 0-41.4-29.48-74.97-65.84-74.97s-65.84 33.57-65.84 74.97 29.48 74.96 65.84 74.96z" fill="#646569" fill-opacity=".2"/><path d="M2419.43 1056.94c0 27.25-19.83 48.45-43.24 48.45v10c29.87 0 53.24-26.66 53.24-58.45h-10zm-43.24-48.45c23.41 0 43.24 21.2 43.24 48.45h10c0-31.79-23.37-58.451-53.24-58.451v10.001zm-43.24 48.45c0-27.25 19.83-48.45 43.24-48.45v-10.001c-29.87 0-53.24 26.661-53.24 58.451h10zm43.24 48.45c-23.41 0-43.24-21.2-43.24-48.45h-10c0 31.79 23.37 58.45 53.24 58.45v-10zm60.19 91.7c0 39.27-27.83 69.96-60.84 69.96v10c39.71 0 70.84-36.43 70.84-79.96h-10zm-60.84-69.97c33.01 0 60.84 30.7 60.84 69.97h10c0-43.53-31.13-79.97-70.84-79.97v10zm-60.84 69.97c0-39.27 27.83-69.97 60.84-69.97v-10c-39.71 0-70.84 36.44-70.84 79.97h10zm60.84 69.96c-33.01 0-60.84-30.69-60.84-69.96h-10c0 43.53 31.13 79.96 70.84 79.96v-10z" fill="url(#paint13_linear)" mask="url(#f)"/><mask id="g" fill="#fff"><path d="M2429.28 1208.82c2.36 0 4.29-1.92 4.17-4.27-.45-9.01-2.33-17.86-5.55-26.13-3.73-9.58-9.18-18.15-16-25.18-6.82-7.03-14.86-12.35-23.6-15.62a58.31 58.31 0 00-22.41-3.73c-2.63.08-4.54 2.43-4.31 5.06.24 2.72 2.68 4.69 5.42 4.65 6.31-.09 12.61 1.01 18.63 3.26 7.6 2.85 14.59 7.48 20.53 13.6 5.93 6.11 10.67 13.58 13.92 21.91 2.74 7.02 4.36 14.53 4.8 22.18.14 2.35 2.04 4.27 4.4 4.27z"/></mask><path d="M2429.28 1208.82c2.36 0 4.29-1.92 4.17-4.27-.45-9.01-2.33-17.86-5.55-26.13-3.73-9.58-9.18-18.15-16-25.18-6.82-7.03-14.86-12.35-23.6-15.62a58.31 58.31 0 00-22.41-3.73c-2.63.08-4.54 2.43-4.31 5.06.24 2.72 2.68 4.69 5.42 4.65 6.31-.09 12.61 1.01 18.63 3.26 7.6 2.85 14.59 7.48 20.53 13.6 5.93 6.11 10.67 13.58 13.92 21.91 2.74 7.02 4.36 14.53 4.8 22.18.14 2.35 2.04 4.27 4.4 4.27z" stroke="url(#paint14_linear)" stroke-width="6" mask="url(#g)"/><rect x="1747.48" y="751.933" width="412.901" height="530.652" rx="6.967" fill="#464649" stroke="url(#paint15_linear)" stroke-width="5"/><rect x="1802.9" y="751.932" width="412.901" height="530.652" rx="6.967" fill="#111" stroke="url(#paint16_linear)" stroke-width="5"/><mask id="h" fill="#fff"><path fill-rule="evenodd" clip-rule="evenodd" d="M2010.5 975.698c47.18 0 85.43-42.382 85.43-94.662 0-52.281-38.25-94.663-85.43-94.663-47.18 0-85.43 42.382-85.43 94.663 0 52.28 38.25 94.662 85.43 94.662zm-1.15 286.292c64.39 0 116.59-59.43 116.59-132.75s-52.2-132.762-116.59-132.762c-64.4 0-116.6 59.442-116.6 132.762s52.2 132.75 116.6 132.75z"/></mask><path fill-rule="evenodd" clip-rule="evenodd" d="M2010.5 975.698c47.18 0 85.43-42.382 85.43-94.662 0-52.281-38.25-94.663-85.43-94.663-47.18 0-85.43 42.382-85.43 94.663 0 52.28 38.25 94.662 85.43 94.662zm-1.15 286.292c64.39 0 116.59-59.43 116.59-132.75s-52.2-132.762-116.59-132.762c-64.4 0-116.6 59.442-116.6 132.762s52.2 132.75 116.6 132.75z" fill="#646569" fill-opacity=".15"/><path d="M2090.93 881.036c0 50.014-36.48 89.662-80.43 89.662v10c50.41 0 90.43-45.116 90.43-99.662h-10zm-80.43-89.663c43.95 0 80.43 39.648 80.43 89.663h10c0-54.547-40.02-99.663-90.43-99.663v10zm-80.43 89.663c0-50.015 36.48-89.663 80.43-89.663v-10c-50.41 0-90.43 45.116-90.43 99.663h10zm80.43 89.662c-43.95 0-80.43-39.648-80.43-89.662h-10c0 54.546 40.02 99.662 90.43 99.662v-10zm110.44 158.542c0 71.18-50.55 127.75-111.59 127.75v10c67.74 0 121.59-62.3 121.59-137.75h-10zm-111.59-127.76c61.04 0 111.59 56.57 111.59 127.76h10c0-75.46-53.85-137.762-121.59-137.762v10.002zm-111.6 127.76c0-71.19 50.55-127.76 111.6-127.76v-10.002c-67.75 0-121.6 62.302-121.6 137.762h10zm111.6 127.75c-61.05 0-111.6-56.57-111.6-127.75h-10c0 75.45 53.85 137.75 121.6 137.75v-10z" fill="url(#paint17_linear)" mask="url(#h)"/><mask id="i" fill="#fff"><path d="M2104.52 1150.02c4.18 0 7.59-3.4 7.38-7.57-.8-15.96-4.12-31.63-9.83-46.28-6.61-16.95-16.26-32.14-28.34-44.59-12.08-12.44-26.31-21.87-41.78-27.67-12.82-4.8-26.25-7.03-39.69-6.6-4.66.15-8.04 4.31-7.63 8.97.42 4.82 4.74 8.3 9.59 8.23 11.18-.16 22.33 1.79 32.99 5.78 13.46 5.05 25.85 13.25 36.36 24.08 10.51 10.83 18.91 24.05 24.66 38.8 4.84 12.44 7.72 25.74 8.5 39.28.24 4.17 3.61 7.57 7.79 7.57z"/></mask><path d="M2104.52 1150.02c4.18 0 7.59-3.4 7.38-7.57-.8-15.96-4.12-31.63-9.83-46.28-6.61-16.95-16.26-32.14-28.34-44.59-12.08-12.44-26.31-21.87-41.78-27.67-12.82-4.8-26.25-7.03-39.69-6.6-4.66.15-8.04 4.31-7.63 8.97.42 4.82 4.74 8.3 9.59 8.23 11.18-.16 22.33 1.79 32.99 5.78 13.46 5.05 25.85 13.25 36.36 24.08 10.51 10.83 18.91 24.05 24.66 38.8 4.84 12.44 7.72 25.74 8.5 39.28.24 4.17 3.61 7.57 7.79 7.57z" fill="url(#paint18_linear)" fill-opacity=".2" stroke="url(#paint19_linear)" stroke-width="10" mask="url(#i)"/><path d="M1635.19 965.909l22.24-61.149h-389.16l-33.36 87.736 400.28-26.587z" fill="#464649"/><path d="M1265.73 906.811c-43.49 155.309-169.1 328.279-62.95 339.459l394.13-5.59c-81.93-44.52 17.95-182.86 61.44-338.177l-392.62 4.308z" stroke="url(#paint20_linear)" stroke-width="4.733"/><path fill-rule="evenodd" clip-rule="evenodd" d="M1269.03 903.974l-92.93 234.766c-11.18 33.54-32.28 103.41 37.03 103.41h377.3v.14h130.87v39.12h-131.36v-.13h-407.56c-34.46-1.86-89.99-32.98-36.33-142.54l86.64-234.766h36.34z" fill="#111"/><path d="M1176.1 1138.74l-2.2-.87-.02.06-.02.06 2.24.75zm92.93-234.766l2.2.871 1.28-3.238h-3.48v2.367zm321.4 338.176h2.37v-2.37h-2.37v2.37zm0 .14h-2.36v2.36h2.36v-2.36zm130.87 0h2.37v-2.37h-2.37v2.37zm0 39.12v2.37h2.37v-2.37h-2.37zm-131.36 0h-2.36v2.37h2.36v-2.37zm0-.13h2.37v-2.37h-2.37v2.37zm-407.56 0l-.12 2.36.06.01h.06v-2.37zm-36.33-142.54l2.13 1.04.05-.11.04-.11-2.22-.82zm86.64-234.766v-2.367h-1.65l-.57 1.548 2.22.819zm-54.39 235.636l92.93-234.765-4.4-1.742-92.93 234.767 4.4 1.74zm34.83 100.17c-16.94 0-27.97-4.26-34.99-10.8-7.03-6.55-10.39-15.7-11.35-26.17-1.94-21.09 5.94-46.48 11.56-63.32l-4.49-1.5c-5.57 16.7-13.83 43.02-11.79 65.25 1.03 11.19 4.69 21.6 12.85 29.2 8.16 7.61 20.49 12.08 38.21 12.08v-4.74zm377.3 0h-377.3v4.74h377.3v-4.74zm2.37 2.51v-.14h-4.73v.14h4.73zm-2.37 2.36h130.87v-4.73h-130.87v4.73zm128.51-2.36v39.12h4.73v-39.12h-4.73zm2.36 36.76h-131.36v4.73h131.36v-4.73zm-128.99 2.36v-.13h-4.73v.13h4.73zm-409.93 2.24h407.56v-4.74h-407.56v4.74zm-38.45-145.95c-26.97 55.06-26.86 91.11-14.85 113.8 12 22.69 35.43 31.18 53.18 32.14l.25-4.72c-16.72-.91-38.28-8.9-49.25-29.63-10.96-20.72-11.78-55.01 14.92-109.51l-4.25-2.08zm86.54-234.545l-86.64 234.765 4.44 1.64 86.64-234.766-4.44-1.639zm38.56-1.548h-36.34v4.734h36.34v-4.734z" fill="url(#paint21_linear)"/><path d="M1597.92 1244.24v35.28" stroke="url(#paint22_linear)" stroke-width="4.733"/><rect x="743.327" y="36.824" width="1354.57" height="871.288" rx="35.367" fill="#464649" stroke="url(#paint23_linear)" stroke-width="5"/><rect x="807.059" y="36.824" width="1354.57" height="871.288" rx="35.367" fill="#111" stroke="url(#paint24_linear)" stroke-width="5"/><path stroke="url(#paint25_linear)" stroke-width="2" d="M885.637 143.87h1154.73v671.875H885.637z"/><path stroke="url(#paint26_linear)" stroke-width="2" d="M988.781 614.418h327.87v154.861h-327.87z"/><path d="M1016.18 686.1c-.88 0-1.52-.247-1.9-.742-.38-.503-.57-1.241-.57-2.214h1.35c0 .57.07 1.027.22 1.371.16.344.47.516.92.516.34 0 .6-.101.77-.302.17-.201.27-.466.31-.793.05-.335.08-.78.08-1.333 0-.512-.03-.918-.09-1.22-.05-.311-.16-.546-.33-.705-.16-.168-.4-.251-.73-.251-.26 0-.49.079-.69.239-.19.159-.34.36-.44.603h-1.14v-5.459h4.39v1.346h-3.17l-.09 2.818c.36-.378.85-.566 1.47-.566.78 0 1.33.268 1.66.805.34.528.5 1.266.5 2.214 0 1.157-.18 2.059-.56 2.704-.38.646-1.03.969-1.96.969zm3.54-1.598h1.34V686h-1.34v-1.498zm4.9 1.611c-.89 0-1.53-.256-1.93-.768-.39-.511-.59-1.249-.59-2.214 0-.646.11-1.161.32-1.547.21-.386.53-.705.94-.956-.75-.503-1.13-1.262-1.13-2.277 0-.83.19-1.476.59-1.938.39-.461.99-.691 1.8-.691.79 0 1.39.23 1.77.691.4.462.59 1.108.59 1.938 0 .545-.09 1.002-.29 1.371-.19.361-.47.663-.84.906.41.26.73.583.94.968.22.386.33.898.33 1.535 0 .956-.2 1.694-.59 2.214-.39.512-1.03.768-1.91.768zm0-6.102c.69-.008 1.04-.587 1.04-1.736 0-.453-.08-.817-.25-1.094-.16-.277-.42-.415-.79-.415-.37 0-.64.138-.82.415-.17.277-.25.641-.25 1.094 0 .504.08.919.24 1.246.16.318.43.482.83.49zm0 5.032c.45 0 .77-.163.94-.49.18-.336.27-.801.27-1.397 0-.545-.1-.989-.29-1.333-.19-.344-.49-.52-.92-.528-.44.008-.75.184-.95.528-.19.344-.28.788-.28 1.333 0 .596.08 1.061.26 1.397.18.327.51.49.97.49zm6.68-6.315h1.25v.692c.24-.268.51-.47.79-.604.3-.142.6-.214.92-.214.62 0 1.02.307 1.18.919.51-.612 1.11-.919 1.82-.919.37 0 .68.139.91.416.25.276.37.7.37 1.27V686h-1.23v-5.624c0-.335-.06-.566-.17-.692a.558.558 0 00-.46-.201c-.19 0-.38.055-.58.164-.2.1-.39.243-.56.427V686h-1.23v-5.624c0-.335-.05-.566-.16-.692-.11-.134-.27-.201-.47-.201-.17 0-.36.055-.56.164-.21.1-.39.243-.57.427V686h-1.25v-7.272zm10.24 7.372c-.59 0-1.06-.184-1.43-.553-.36-.369-.57-.864-.62-1.485l1.12-.339c.07.469.18.817.34 1.044.17.226.4.339.7.339.24 0 .42-.067.55-.201a.81.81 0 00.2-.566c0-.21-.05-.398-.14-.566-.09-.168-.25-.34-.45-.516l-1.25-1.069a3.024 3.024 0 01-.67-.768c-.15-.276-.22-.612-.22-1.006 0-.562.16-.998.5-1.308.34-.319.79-.478 1.37-.478.55 0 .99.18 1.3.541.32.352.5.809.55 1.371l-.91.339c-.05-.411-.15-.721-.28-.931a.677.677 0 00-.61-.327c-.22 0-.39.072-.53.214a.802.802 0 00-.19.529c0 .268.13.511.37.729l1.28 1.183c.33.302.58.599.76.893.18.294.27.65.27 1.069 0 .604-.18 1.065-.54 1.384-.36.319-.85.478-1.47.478z" fill="url(#paint27_linear)"/><path fill-rule="evenodd" clip-rule="evenodd" d="M1045 662.437a23.042 23.042 0 01-14.61 8.398l-.43-2.945a20.099 20.099 0 0012.72-7.314 20.105 20.105 0 004.35-14.013 20.073 20.073 0 00-6.33-13.236 20.083 20.083 0 00-27.32-.077 20.057 20.057 0 00-4.48 6.047l20.4 6.334-1.03 3.305-20.6-6.397c-.36 1.269-.6 2.578-.7 3.911a20.087 20.087 0 004.27 14.038 20.124 20.124 0 0012.68 7.385l-.45 2.943a23.068 23.068 0 01-14.56-8.48 23.043 23.043 0 01-4.91-16.118c.45-5.8 3.08-11.214 7.36-15.157a23.045 23.045 0 0115.7-6.11 23.08 23.08 0 0115.67 6.198 23.074 23.074 0 012.27 31.288z" fill="url(#paint28_linear)"/><path fill-rule="evenodd" clip-rule="evenodd" d="M1045 731.642a23.042 23.042 0 01-14.61 8.398l-.43-2.945a20.099 20.099 0 0012.72-7.314 20.105 20.105 0 004.35-14.013 20.073 20.073 0 00-6.33-13.236 20.083 20.083 0 00-27.32-.077 20.042 20.042 0 00-6.41 13.2c-.15 1.851-.03 3.697.32 5.489l18.9-6.325 1.1 3.282-19.03 6.368a20.097 20.097 0 002.98 5.224 20.124 20.124 0 0012.68 7.385l-.45 2.943a23.068 23.068 0 01-14.56-8.48 22.982 22.982 0 01-3.48-6.126l-.01.005-.19-.557a7.709 7.709 0 01-.21-.64l-.7-2.084.13-.044a22.915 22.915 0 01-.45-6.672c.45-5.8 3.08-11.213 7.36-15.157a23.045 23.045 0 0115.7-6.11 23.08 23.08 0 0115.67 6.198 23.076 23.076 0 012.27 31.288z" fill="url(#paint29_linear)"/><path d="M1013.99 755.113c-.84 0-1.47-.306-1.89-.919-.41-.62-.61-1.43-.61-2.428v-3.434c0-1.099.19-1.975.58-2.629.38-.654 1.02-.981 1.92-.981.79 0 1.4.213 1.83.641.42.428.65 1.04.66 1.837l.02.151h-1.36c0-.52-.09-.902-.25-1.145-.17-.252-.47-.377-.9-.377-.77 0-1.16.725-1.16 2.176v1.547c.14-.218.33-.39.58-.515.26-.126.57-.189.91-.189.8 0 1.36.256 1.7.767.33.503.5 1.229.5 2.177 0 .998-.2 1.803-.62 2.415-.41.604-1.04.906-1.91.906zm0-1.12c.42 0 .72-.172.9-.516.18-.344.27-.796.27-1.358 0-.512-.02-.919-.06-1.221a1.367 1.367 0 00-.32-.742c-.16-.193-.43-.289-.79-.289-.26 0-.49.067-.69.201-.19.134-.35.298-.47.491v1.522c0 .579.09 1.044.27 1.396.18.344.48.516.89.516zm6.33 1.12c-.84 0-1.47-.306-1.89-.919-.41-.62-.61-1.43-.61-2.428v-3.434c0-1.099.19-1.975.57-2.629.39-.654 1.03-.981 1.93-.981.79 0 1.4.213 1.82.641.43.428.65 1.04.67 1.837l.01.151h-1.36c0-.52-.08-.902-.25-1.145-.17-.252-.46-.377-.89-.377-.77 0-1.16.725-1.16 2.176v1.547c.14-.218.33-.39.58-.515.26-.126.56-.189.91-.189.79 0 1.36.256 1.69.767.34.503.51 1.229.51 2.177 0 .998-.21 1.803-.62 2.415-.41.604-1.05.906-1.91.906zm0-1.12c.42 0 .72-.172.89-.516.19-.344.28-.796.28-1.358 0-.512-.02-.919-.06-1.221-.05-.302-.15-.549-.32-.742-.17-.193-.43-.289-.79-.289-.26 0-.49.067-.69.201-.2.134-.35.298-.47.491v1.522c0 .579.09 1.044.27 1.396.18.344.48.516.89.516zm3.71-.491h1.35V755h-1.35v-1.498zm4.99 1.611c-.84 0-1.47-.306-1.89-.919-.41-.62-.62-1.43-.62-2.428v-3.434c0-1.099.2-1.975.58-2.629.39-.654 1.03-.981 1.93-.981.79 0 1.39.213 1.82.641.43.428.65 1.04.67 1.837l.01.151h-1.36c0-.52-.08-.902-.25-1.145-.17-.252-.47-.377-.89-.377-.77 0-1.16.725-1.16 2.176v1.547c.13-.218.33-.39.58-.515.26-.126.56-.189.9-.189.8 0 1.37.256 1.7.767.34.503.51 1.229.51 2.177 0 .998-.21 1.803-.62 2.415-.41.604-1.05.906-1.91.906zm0-1.12c.42 0 .71-.172.89-.516.18-.344.28-.796.28-1.358 0-.512-.02-.919-.07-1.221-.04-.302-.14-.549-.31-.742-.17-.193-.43-.289-.79-.289-.26 0-.49.067-.7.201-.19.134-.34.298-.46.491v1.522c0 .579.09 1.044.26 1.396.19.344.49.516.9.516zm6.64-6.265h1.25v.692c.24-.268.51-.47.79-.604.3-.142.6-.214.92-.214.62 0 1.02.307 1.18.919.51-.612 1.11-.919 1.82-.919.37 0 .68.139.91.416.25.276.37.7.37 1.27V755h-1.23v-5.624c0-.335-.06-.566-.17-.692a.558.558 0 00-.46-.201c-.19 0-.38.055-.58.164-.2.1-.39.243-.56.427V755h-1.23v-5.624c0-.335-.05-.566-.16-.692-.11-.134-.27-.201-.47-.201-.17 0-.36.055-.56.164-.21.1-.39.243-.57.427V755h-1.25v-7.272zm10.24 7.372c-.59 0-1.06-.184-1.43-.553-.36-.369-.57-.864-.62-1.485l1.12-.339c.07.469.18.817.34 1.044.17.226.4.339.7.339.24 0 .42-.067.55-.201a.81.81 0 00.2-.566c0-.21-.05-.398-.14-.566-.09-.168-.25-.34-.45-.516l-1.25-1.069a3.024 3.024 0 01-.67-.768c-.15-.276-.22-.612-.22-1.006 0-.562.16-.998.5-1.308.34-.319.79-.478 1.37-.478.55 0 .99.18 1.3.541.32.352.5.809.55 1.371l-.91.339c-.05-.411-.15-.721-.28-.931a.677.677 0 00-.61-.327c-.22 0-.39.072-.53.214a.802.802 0 00-.19.529c0 .268.13.511.37.729l1.28 1.183c.33.302.58.599.76.893.18.294.27.65.27 1.069 0 .604-.18 1.065-.54 1.384-.36.319-.85.478-1.47.478z" fill="url(#paint30_linear)"/><path fill-rule="evenodd" clip-rule="evenodd" d="M1255.06 624.645h16.76v15.223h-16.76v-15.223zm-2 0h-16.45v15.223h16.45v-15.223zm-18.45 0h-21.07v15.223h21.07v-15.223zm-23.07 0h-21.06v15.223h21.06v-15.223zm-23.06 0h-9.54v15.223h9.54v-15.223zm-11.54 0h-9.54v15.223h9.54v-15.223zm-11.54 0h-9.53v15.223h9.53v-15.223zm-11.53 0h-9.53v15.223h9.53v-15.223zm-11.53 0h-25.69v15.223h25.69v-15.223zm-27.69 0h-7.22v15.223h7.22v-15.223zm-9.22 0h-7.23v15.223h7.23v-15.223zm-9.23 0h-4.92v15.223h4.92v-15.223zm-6.92 0h-4.92v15.223h4.92v-15.223zm-6.92 0h-2.62v15.223h2.62v-15.223zm-4.62 0h-4.92v15.223h4.92v-15.223zm-6.92 0h-7.22v15.223h7.22v-15.223zm-7.22 17.223v17.224h7.22v-17.224h-7.22zm0 19.224v8.128c.26.119.65.292 1.14.512 1.01.452 2.49 1.102 4.35 1.893.54.234 1.12.48 1.73.737v-11.27h-7.22zm0 10.321c.1.046.21.094.32.145a363.512 363.512 0 006.9 2.973v3.783h-7.22v-6.901zm0 8.901v17.224h7.22v-17.224h-7.22zm0 19.224v17.223h7.22v-17.223h-7.22zm0 19.223v17.223h7.22v-17.223h-7.22zm7.22 19.223h203v-19.223h.01v-2h-.01v-17.223h.01v-2h-.01v-17.224h.01v-2h-.01v-17.222h.01v-2h-.01v-17.224h.01v-2h-.01v-17.223H1061.6v115.339h9.22zm201-96.116h-16.76v17.224h16.76v-17.224zm0 19.224h-16.76v17.222h16.76v-17.222zm0 19.222h-16.22c1.11 2.782 2.01 5.706 2.73 8.706a82.5 82.5 0 011.57 8.518h11.92v-17.224zm0 19.224h-11.68c.65 5.82.76 11.695.48 17.223h11.2v-17.223zm0 19.223h-11.32c-.44 6.55-1.43 12.525-2.7 17.223h14.02v-17.223zm-16.09 17.223c1.3-4.617 2.31-10.614 2.77-17.223h-3.44v17.223h.67zm-2.67 0v-17.223h-16.45v17.223h16.45zm-18.45 0v-17.223h-21.07v17.223h21.07zm-23.07 0v-17.223h-21.06v17.223h21.06zm-23.06 0v-17.223h-9.54v17.223h9.54zm-11.54 0v-17.223h-9.54v17.223h9.54zm-11.54 0v-17.223h-9.53v17.223h9.53zm-11.53 0v-17.223h-9.53v17.223h9.53zm-11.53 0v-17.223h-25.69v17.223h25.69zm-27.69 0v-17.223h-7.22v17.223h7.22zm-9.22 0v-17.223h-7.23v17.223h7.23zm-9.23 0v-17.223h-4.92v17.223h4.92zm-6.92 0v-17.223h-4.92v17.223h4.92zm-6.92 0v-17.223h-2.62v17.223h2.62zm-4.62 0v-17.223h-4.92v17.223h4.92zm-4.92-60.623v2.953h4.92v-.968c-1.75-.693-3.4-1.36-4.92-1.985zm4.92-.166c-1.76-.702-3.41-1.373-4.92-1.998v-12.105h4.92v14.103zm2 2.935v.184h.48l-.48-.184zm2.62-1.133c-.89-.342-1.76-.68-2.62-1.013v-14.892h2.62v15.905zm3.51 1.317c-.51-.187-1.01-.374-1.51-.56v-16.662h4.92v17.222h-3.41zm-.36 2c1.23.454 2.49.91 3.77 1.364v15.86h-4.92v-17.224h1.15zm5.77 2.066c1.62.56 3.26 1.115 4.92 1.657v13.501h-4.92V682.38zm4.92-.448c-1.61-.529-3.2-1.071-4.77-1.618h4.77v1.618zm2 2.748v12.858h7.23v-10.7c-2.42-.673-4.83-1.4-7.23-2.158zm7.23.081c-2.41-.681-4.83-1.415-7.23-2.18v-2.267h7.23v4.447zm2 2.623v10.154h7.22v-8.405c-2.37-.508-4.79-1.099-7.22-1.749zm7.22-.297c-2.36-.516-4.78-1.115-7.22-1.773v-5h7.22v6.773zm2 2.458v7.993h25.69v-7.467c-6.12 1.115-12.64 1.4-19.74.463a96.75 96.75 0 01-5.95-.989zm25.69-1.508c-6.04 1.138-12.47 1.439-19.48.514-2-.264-4.08-.618-6.21-1.045v-7.192h25.69v7.723zm2 1.637v7.864h9.53v-10.614a74.006 74.006 0 01-9.53 2.75zm9.53-4.879c-3.09 1.141-6.26 2.107-9.53 2.832v-7.313h9.53v4.481zm2 1.382v11.361h9.53v-15.602c-3.11 1.541-6.27 2.981-9.53 4.241zm8.29-5.863a114.074 114.074 0 01-8.29 3.714v-3.714h8.29zm3.24.613c.4-.203.79-.407 1.19-.613h8.35v17.224h-9.54v-16.611zm4.94-2.613c.87-.47 1.73-.944 2.59-1.42.67-.368 1.34-.738 2.01-1.108v2.528h-4.6zm4.6-4.816c-.99.55-1.98 1.099-2.97 1.645a322.608 322.608 0 01-5.88 3.171h-.69v-17.222h9.54v12.406zm2 1.178v3.638h9.54v-8.791c-3.2 1.648-6.37 3.393-9.54 5.153zm9.54-7.403c-3.23 1.637-6.39 3.372-9.54 5.115v-11.296h9.54v6.181zm2 1.236v9.805h21.06v-17.222h-1.55c-6.88 1.632-13.28 4.307-19.51 7.417zm12.33-7.417c-4.26 1.446-8.35 3.227-12.33 5.183v-5.183h12.33zm8.73-2.389c-.59.122-1.18.252-1.77.389h-19.29v-17.224h21.06v16.835zm11.57 2.389h-9.57v17.222h21.07v-7.516a9.3 9.3 0 01-2.31.29c-5.09 0-9.22-4.131-9.22-9.227 0-.259.01-.515.03-.769zm11.5 7.621c-.73.243-1.5.375-2.31.375a7.222 7.222 0 01-7.22-7.227c0-.26.01-.516.04-.769h9.49v7.621zm2-1.045v-5.898c.97.415 1.91.88 2.8 1.393a7.211 7.211 0 01-2.8 4.505zm0 2.357v8.289h15.95c-1.79-3.817-4.01-7.248-6.74-10.104a28.679 28.679 0 00-4.61-3.927 9.274 9.274 0 01-4.6 5.742zm16.45 4.844c-1.62-2.964-3.54-5.678-5.79-8.04a30.566 30.566 0 00-5.74-4.728v-.24c0-.259-.01-.515-.03-.769h11.56v13.777zm2 9.851v12.818h2.82a79.005 79.005 0 00-1.49-8.05 65.627 65.627 0 00-1.33-4.768zm3.07 14.818h-3.07v17.223h3.56c.28-5.523.17-11.406-.49-17.223zm-17.02-40.446a9.275 9.275 0 00-4.5-5.395v-11.829h16.45v17.224h-11.95zm-4.5-3.038a7.224 7.224 0 012.37 3.038h-2.37v-3.038zm-2-1.045v3.896c-2.47-.773-5.15-1.265-8.05-1.436a7.212 7.212 0 015.74-2.835c.81 0 1.58.132 2.31.375zm0-2.085c-.74-.19-1.51-.29-2.31-.29-3.48 0-6.5 1.924-8.08 4.767-3.7 0-7.26.331-10.68.924v-16.457h21.07v11.056zm18.45 46.614v17.223h-16.45v-17.223h16.45zm-18.45 0v17.223h-21.07v-17.223h21.07zm-23.07 0v17.223h-21.06v-17.223h21.06zm-23.06 0v17.223h-9.54v-17.223h9.54zm-11.54 0v17.223h-9.54v-17.223h9.54zm-11.54 0v17.223h-9.53v-17.223h9.53zm-11.53 0v17.223h-9.53v-17.223h9.53zm-11.53 0v17.223h-25.69v-17.223h25.69zm-27.69 0v17.223h-7.22v-17.223h7.22zm-9.22 0v17.223h-7.23v-17.223h7.23zm-9.23 0v17.223h-4.92v-17.223h4.92zm-6.92 0v17.223h-4.92v-17.223h4.92zm-6.92 0v17.223h-2.62v-17.223h2.62zm-4.62 0v17.223h-4.92v-17.223h4.92zm-4.92-2h4.92v-17.224h-4.92v17.224zm6.92 0h2.62v-17.224h-2.62v17.224zm99.2 0h9.54v-17.224h-9.54v17.224zm11.54 0h21.06v-17.224h-21.06v17.224zm23.06 0h21.07v-17.224h-21.07v17.224zm23.07 0h16.45v-17.224h-16.45v17.224zm-80.74-36.446h9.53v17.222h-9.53v-17.222zm-11.53 0h9.53v17.222h-9.53v-17.222zm-27.69 0h25.69v17.222h-25.69v-17.222zm-9.22 0h7.22v17.222h-7.22v-17.222zm-9.23 0h7.23v17.222h-7.23v-17.222zm-6.92 0h4.92v17.222h-4.92v-17.222zm-18.46-2h4.92v-17.224h-4.92v17.224zm6.92 0h2.62v-17.224h-2.62v17.224zm4.62 0h4.92v-17.224h-4.92v17.224zm6.92 0h4.92v-17.224h-4.92v17.224zm6.92 0h7.23v-17.224h-7.23v17.224zm9.23 0h7.22v-17.224h-7.22v17.224zm9.22 0h25.69v-17.224h-25.69v17.224zm27.69 0h9.53v-17.224h-9.53v17.224zm11.53 0h9.53v-17.224h-9.53v17.224zm11.53 0h9.54v-17.224h-9.54v17.224zm11.54 0h9.54v-17.224h-9.54v17.224zm57.67 103.351h42.13v-15.539h-42.13v15.539zm42.13 2h2v-19.539h-46.13v19.539h44.13zm-31.58-7.768c-3.05-1.782-4.91-4.274-4.91-7.394a1.001 1.001 0 00-2 0c0 4.061 2.47 7.113 5.9 9.12 3.42 2.001 7.91 3.045 12.32 3.127 4.42.082 8.89-.796 12.25-2.771 3.4-1.997 5.72-5.159 5.54-9.516a.992.992 0 00-1.03-.96.99.99 0 00-.96 1.04c.13 3.458-1.64 5.999-4.56 7.711-2.96 1.735-7.03 2.573-11.2 2.496-4.16-.077-8.3-1.065-11.35-2.853zm-141.43-9.769h-42.13v15.549h42.13v-15.549zm-42.13-2h-2v19.549h46.13v-19.549h-44.13zm12.26 6.27c-3.16.254-6.21.499-8.79.499a1.001 1.001 0 010-2c2.49 0 5.43-.236 8.59-.489v-.001c.74-.059 1.5-.12 2.26-.179 3.97-.305 8.15-.555 11.93-.306 3.76.248 7.29.997 9.84 2.809 2.64 1.868 4.13 4.776 3.96 8.981a1 1 0 01-2-.08c.15-3.614-1.09-5.839-3.11-7.269-2.1-1.487-5.17-2.205-8.82-2.445-3.62-.239-7.68-.001-11.65.304l-2.21.176zm45.41-4.27h42.13v15.549h-42.13v-15.549zm42.13-2h2v19.549h-46.13v-19.549h44.13zm-12.26 6.27c3.16.254 6.21.499 8.79.499a1.001 1.001 0 000-2c-2.49 0-5.43-.236-8.59-.489v-.001c-.74-.059-1.5-.12-2.26-.179-3.97-.305-8.15-.555-11.94-.306-3.76.248-7.28.997-9.84 2.809-2.63 1.868-4.12 4.776-3.95 8.981a1 1 0 002-.08c-.15-3.614 1.09-5.839 3.11-7.269 2.1-1.487 5.17-2.205 8.82-2.445 3.62-.239 7.67-.001 11.64.304.75.058 1.49.117 2.22.176zm69.93-4.27h-42.13v15.549h42.13v-15.549zm2-2h-46.13v19.549h46.13v-19.549zm-6.47 15.168c0-3.122-1.87-5.616-4.91-7.398-3.06-1.789-7.19-2.779-11.36-2.855-4.16-.077-8.24.761-11.19 2.497-2.92 1.714-4.7 4.256-4.56 7.716a1.001 1.001 0 01-2 .08c-.17-4.359 2.14-7.523 5.54-9.521 3.37-1.976 7.84-2.854 12.25-2.772 4.42.081 8.91 1.126 12.33 3.129 3.43 2.008 5.9 5.062 5.9 9.124a1.001 1.001 0 01-2 0z" fill="url(#paint31_linear)"/><path fill-rule="evenodd" clip-rule="evenodd" d="M1451.14 617.724h173.62v152.861h-173.62V617.724zm-2-2h177.62v156.861h-177.62V615.724zm116.12 40.534h9.02v24.117h-3.36v67.945h-2.31v-67.945h-3.35v-24.117zm5.66 93.32H1564V655h11.53v94.578h-4.61zm-83.56-5.682a15.024 15.024 0 01-9.5 5.458l-.28-1.914a13.089 13.089 0 008.27-4.754 13.093 13.093 0 002.83-9.109 13.06 13.06 0 00-12.99-12.111 13.063 13.063 0 00-13.06 12.038 13.1 13.1 0 00.46 4.589l12.37-4.139.38 1.137-12.37 4.14c.47 1.213 1.12 2.36 1.94 3.397a13.077 13.077 0 008.25 4.801l-.3 1.913a14.963 14.963 0 01-9.46-5.512 15.05 15.05 0 01-2.27-3.984l-.01.003-.13-.406c-.04-.107-.07-.215-.11-.323l-.14-.409.01-.003c-.5-1.722-.69-3.535-.55-5.355a15.02 15.02 0 014.79-9.852 14.997 14.997 0 0120.39.057 15.049 15.049 0 014.73 9.879c.27 3.771-.89 7.507-3.25 10.459zm-9.5-31.451a15.024 15.024 0 009.5-5.458 15.032 15.032 0 003.25-10.459c-.28-3.771-1.97-7.3-4.73-9.879a14.997 14.997 0 00-25.18 9.795c-.14 1.82.05 3.634.56 5.358l-.02.003.38 1.138.02-.004c.54 1.423 1.3 2.768 2.26 3.982a14.957 14.957 0 009.46 5.511l.3-1.912a13.081 13.081 0 01-8.25-4.801 13.085 13.085 0 01-1.94-3.395l12.37-4.139-.38-1.137-12.37 4.139a13.122 13.122 0 01-.46-4.592 13.064 13.064 0 0113.06-12.039 13.06 13.06 0 0112.99 12.112c.24 3.285-.78 6.538-2.83 9.109a13.089 13.089 0 01-8.27 4.754l.28 1.914zm9.5-42.365a15.024 15.024 0 01-9.5 5.458l-.28-1.914a13.08 13.08 0 008.27-4.754 13.092 13.092 0 002.83-9.108 13.06 13.06 0 00-12.99-12.112 13.063 13.063 0 00-13.06 12.038c-.12 1.559.04 3.112.46 4.59l12.37-4.139.38 1.137-12.37 4.14a13.129 13.129 0 001.94 3.397 13.08 13.08 0 008.25 4.8l-.3 1.913a14.958 14.958 0 01-9.46-5.512 14.746 14.746 0 01-2.26-3.984l-.02.004-.14-.435-.09-.267-.15-.435.01-.004c-.5-1.723-.69-3.536-.55-5.356a15.02 15.02 0 014.79-9.852 14.98 14.98 0 0110.2-3.971c3.79.011 7.42 1.449 10.19 4.028a15.049 15.049 0 014.73 9.879 15.03 15.03 0 01-3.25 10.459zm27.37-44.128h99.5v129.487h-99.5V625.952zm-1-1h101.5v131.487h-101.5V624.952zm28.98 30.989h-9.53v24.375h3.62v68.203h2.3v-68.203h3.61v-24.375zm-5.91 93.578h6.91v-94.578h-11.53v94.578h4.62zm51.74-93.578h9.54v49.749h-3.62v42.829h-2.3V705.69h-3.62v-49.749zm-1 93.578v-94.578h11.54v94.578h-11.54z" fill="url(#paint32_linear)"/><path fill-rule="evenodd" clip-rule="evenodd" d="M1672.12 186.664H977.774v101.095h694.346V186.664zm-27.68 101.498h-525.95v106.076h525.95V288.162zM1289.2 394.273h525.94v101.494H1289.2V394.273zm355.24 101.499h-525.95v103.805h525.95V495.772z" fill="url(#paint33_linear)" fill-opacity=".2"/><path fill-rule="evenodd" clip-rule="evenodd" d="M1673.81 190h138.55v96.499h-138.55V190zm-2 0H981v96.499h690.81V190zM981 288.499v104.11h137.1v-104.11H981zm0 106.11v99.498h307.77v-99.498H981zm0 101.498v100.807h136.74V496.107H981zm138.74 100.807h523.94V496.107h-523.94v100.807zm525.94 0h166.68V496.107h-166.68v100.807zm169.68-100.807h.01v-2h-.01v-99.498h.01v-2h-.01v-104.11h.01v-2h-.01V187H978v412.914h837.36V496.107zm-3-207.608h-138.55v.032h-2v-.032h-26.49v104.11h167.04v-104.11zm0 106.11h-522.31v99.498h522.31v-99.498zm-692.99-106.11v104.11h524.67v-104.11h-524.67z" fill="url(#paint34_linear)"/><path fill-rule="evenodd" clip-rule="evenodd" d="M2003.07 617.724h-247.44v152.861h247.44V617.724zm-247.44-2h-2v156.861h251.44V615.724h-249.44zm23.07 22.76h199v51.972a.856.856 0 00-.2.088c-.46.264-.93.543-1.43.83v.002c-3.87 2.262-8.69 5.078-13.22 6.099-2.53.57-4.86.549-6.82-.351-1.95-.889-3.7-2.708-4.97-6.067-10.03-26.632-21.62-35.75-31.88-36.972-10.16-1.21-18.45 5.411-21.72 8.955-4.96 5.08-14.12 11.599-25.39 14.571-11.24 2.965-24.59 2.406-38.07-6.639-14-9.399-26.46-9.66-36.39-6.005-8.32 3.063-14.8 8.849-18.91 14.126v-40.609zm-2 44.618v34.119h203v-80.737h-203v45.408l-.04.064c-.23.363-.2.821.04 1.146zm2-.608c3.73-5.54 10.54-12.315 19.61-15.65 9.3-3.425 21.09-3.267 34.58 5.788 14.02 9.409 27.97 10.004 39.69 6.913 11.68-3.081 21.15-9.82 26.32-15.118l.01-.01v-.01c3.13-3.38 10.82-9.432 20.03-8.336 9.12 1.085 20.3 9.268 30.25 35.691 1.4 3.723 3.47 6.021 6 7.181 2.51 1.148 5.33 1.107 8.1.483 4.86-1.095 9.97-4.087 13.8-6.33v-.001l.37-.216.24-.138v22.48h-199v-32.727zm48.18 80.648a19.602 19.602 0 0016.67-20.814 19.642 19.642 0 00-6.18-12.919 19.614 19.614 0 00-26.67-.075 19.597 19.597 0 00-6.25 12.884c-.19 2.381.06 4.753.72 7.007l-.02.003.13.367c.08.251.16.501.25.749l.12.372.01-.004a19.6 19.6 0 002.96 5.206 19.614 19.614 0 0012.37 7.208l.39-2.502a17.11 17.11 0 01-10.78-6.277 17.025 17.025 0 01-2.53-4.439l16.18-5.414-.5-1.487-16.18 5.414a17.07 17.07 0 014.85-17.226 17.046 17.046 0 0111.62-4.522c4.31.012 8.45 1.65 11.6 4.587a17.059 17.059 0 015.38 11.251c.32 4.295-1.01 8.55-3.7 11.911a17.063 17.063 0 01-10.81 6.217l.37 2.503zm67.78-7.137a19.622 19.622 0 01-12.42 7.138l-.37-2.504a17.063 17.063 0 0010.81-6.217 17.052 17.052 0 003.71-11.911 17.114 17.114 0 00-5.39-11.25 17.074 17.074 0 00-28.07 17.161l16.18-5.415.5 1.488-16.18 5.414a17.035 17.035 0 002.53 4.438 17.115 17.115 0 0010.78 6.278l-.38 2.501a19.607 19.607 0 01-12.38-7.208 19.29 19.29 0 01-2.95-5.205l-.01.003-.1-.285c-.11-.305-.21-.614-.31-.924l-.09-.278.01-.003a19.43 19.43 0 01-.72-7.008 19.595 19.595 0 0119.6-18.077c4.94.014 9.7 1.896 13.32 5.268a19.642 19.642 0 016.18 12.919 19.603 19.603 0 01-4.25 13.677zm42.94 7.138a19.603 19.603 0 0016.67-20.815 19.642 19.642 0 00-6.18-12.919 19.614 19.614 0 00-26.67-.074 19.595 19.595 0 00-6.25 12.883 19.43 19.43 0 00.72 7.008l-.01.003.08.238c.1.337.21.672.33 1.003l.09.246.01-.002a19.3 19.3 0 002.95 5.204 19.607 19.607 0 0012.38 7.208l.38-2.501a17.115 17.115 0 01-10.78-6.278 17.03 17.03 0 01-2.53-4.437l16.18-5.415-.5-1.488-16.18 5.415a17.07 17.07 0 014.85-17.227 17.074 17.074 0 0123.22.066 17.114 17.114 0 015.39 11.25c.31 4.295-1.01 8.55-3.71 11.911a17.063 17.063 0 01-10.81 6.217l.37 2.504z" fill="url(#paint35_linear)"/><path fill-rule="evenodd" clip-rule="evenodd" d="M2004.11 494.465h-152.59v99.498h152.59v-99.498zm-152.59-1h-1v101.498h154.59V493.465h-153.59zm62.02 10.368h-52.65v18.3h52.65v-18.3zm-52.65-1h-1v20.3h54.65v-20.3h-53.65zm30.23 29.108h22.42v18.3h-22.42v-18.3zm-1 0h-29.23v18.3h29.23v-18.3zm1-1h23.42v20.3h-54.65v-20.3h31.23zm98.93 1h-63.58v18.3h63.58v-18.3zm-63.58-1h-1v20.3h65.58v-20.3h-64.58zm-14.05 30.669h33.91v18.299h-33.91V561.61zm-1-1h35.91v20.299h-35.91V560.61zm-16.62 1h-33.91v18.299h33.91V561.61zm-33.91-1h-1v20.299h35.91V560.61h-34.91z" fill="url(#paint36_linear)"/><path stroke="url(#paint37_linear)" d="M1933.78 503.333h27.107v19.3h-27.107z"/><path d="M1945.24 518.28l-.72.699.01.008.71-.707zm-.98-2.36l-.29-.957-.77.234.06.804 1-.081zm1.78-.54l.99-.141-.17-1.154-1.11.338.29.957zm.54 1.66l-.82.575.01.01.01.01.8-.595zm1.98.22l-.73-.685v.001l.73.684zm.1-1.8l-.88.482.88-.482zm-.72-.82l-.65.759.01.007.64-.766zm-1.98-1.7l.65-.759v-.002l-.65.761zm-1.06-1.22l-.88.479.01.016.01.016.86-.511zm.44-3.68l.68.734.01-.009-.69-.725zm4.24.1l-.76.652.01.01.01.009.74-.671zm.88 2.18l.35.936.71-.267-.06-.758-1 .089zm-1.44.54l-.99.141.18 1.232 1.16-.437-.35-.936zm-.46-1.48l-.85.524v.008l.01.007.84-.539zm-1.8-.18l-.73-.685-.01.011-.01.012.75.662zm.28 2l.68-.735-.01-.01-.67.745zm2.04 1.88l.68-.735-.68.735zm1.2 1.42l-.86.514.01.009v.009l.85-.532zm-.42 3.9l-.66-.749.66.749zm-2.34-.24c-.71 0-1.2-.212-1.57-.587l-1.42 1.414c.8.798 1.83 1.173 2.99 1.173v-2zm-1.57-.579c-.37-.387-.63-.938-.69-1.742l-2 .162c.1 1.169.5 2.192 1.26 2.978l1.43-1.398zm-1.4-.704l1.78-.54-.58-1.914-1.78.54.58 1.914zm.5-1.356c.11.807.32 1.544.71 2.094l1.64-1.15c-.12-.17-.27-.539-.37-1.226l-1.98.282zm.73 2.114c.47.635 1.15.945 1.92.945v-2c-.19 0-.25-.05-.32-.135l-1.6 1.19zm1.92.945c.57 0 1.15-.169 1.59-.636l-1.46-1.368c0-.004.01-.008.01-.012.01-.003.01-.003.01-.001a.498.498 0 01-.15.017v2zm1.59-.635c.42-.448.59-1.011.59-1.585h-2c0 .172-.04.209-.05.215l1.46 1.37zm.59-1.585c0-.485-.11-.954-.34-1.382l-1.76.964c.06.105.1.237.1.418h2zm-.34-1.382c-.23-.411-.57-.776-.96-1.104l-1.28 1.532c.27.232.42.413.48.536l1.76-.964zm-.95-1.097l-1.98-1.7-1.3 1.518 1.98 1.7 1.3-1.518zm-1.98-1.702a3.91 3.91 0 01-.85-.97l-1.72 1.022c.32.537.75 1.026 1.27 1.47l1.3-1.522zm-.83-.938c-.15-.261-.24-.62-.24-1.121h-2c0 .753.14 1.46.48 2.079l1.76-.958zm-.24-1.121c0-.683.2-1.084.48-1.346l-1.36-1.468c-.78.725-1.12 1.711-1.12 2.814h2zm.49-1.355c.3-.289.76-.485 1.49-.485v-2c-1.11 0-2.11.31-2.87 1.035l1.38 1.45zm1.49-.485c.64 0 1.03.197 1.3.512l1.52-1.304c-.72-.831-1.7-1.208-2.82-1.208v2zm1.32.531c.33.37.56.879.62 1.598l2-.178c-.1-1.068-.46-2.012-1.14-2.762l-1.48 1.342zm1.27.573l-1.44.54.7 1.872 1.44-.54-.7-1.872zm-.1 1.335c-.1-.713-.28-1.37-.61-1.878l-1.68 1.078c.1.158.22.488.31 1.082l1.98-.282zm-.6-1.863c-.4-.659-1.06-.996-1.81-.996v2c.08 0 .09.014.08.009v-.001c0 .003.01.013.03.036l1.7-1.048zm-1.81-.996c-.59 0-1.14.203-1.57.655l1.46 1.37c0-.007.01-.01.01-.01v-.003c.01-.002.04-.012.1-.012v-2zm-1.59.678c-.38.429-.55.952-.55 1.502h2c0-.117.03-.154.05-.178l-1.5-1.324zm-.55 1.502c0 .771.36 1.413.91 1.905l1.34-1.49c-.23-.201-.25-.333-.25-.415h-2zm.9 1.895l2.04 1.88 1.36-1.47-2.04-1.88-1.36 1.47zm2.04 1.88c.47.433.8.835 1.02 1.199l1.72-1.028c-.34-.569-.81-1.114-1.38-1.641l-1.36 1.47zm1.03 1.217c.18.277.29.65.29 1.168h2c0-.815-.18-1.576-.59-2.232l-1.7 1.064zm.29 1.168c0 .752-.22 1.18-.52 1.451l1.32 1.498c.84-.743 1.2-1.781 1.2-2.949h-2zm-.52 1.451c-.35.303-.87.509-1.68.509v2c1.16 0 2.2-.3 3-1.011l-1.32-1.498z" fill="url(#paint38_linear)"/><path fill-rule="evenodd" clip-rule="evenodd" d="M1970.19 503.834h19.86v18.3h-19.86v-18.3zm-1-1h21.86v20.3h-21.86v-20.3zm15.74 10.148a4.465 4.465 0 11-4.46-4.466c2.46 0 4.46 2 4.46 4.466zm1 0a5.466 5.466 0 01-5.46 5.465 5.468 5.468 0 01-5.47-5.465 5.469 5.469 0 015.47-5.466c3.01 0 5.46 2.447 5.46 5.466z" fill="url(#paint39_linear)"/><path fill-rule="evenodd" clip-rule="evenodd" d="M2004.11 362.979h-152.59v99.499h152.59v-99.499zm-152.59-1h-1v101.499h154.59V361.979h-153.59zm62.02 10.368h-52.65v18.3h52.65v-18.3zm-52.65-1h-1v20.3h54.65v-20.3h-53.65zm30.23 29.108h22.42v18.299h-22.42v-18.299zm-1 0h-29.23v18.299h29.23v-18.299zm1-1h23.42v20.299h-54.65v-20.299h31.23zm98.93 1h-63.58v18.299h63.58v-18.299zm-63.58-1h-1v20.299h65.58v-20.299h-64.58zm-14.05 30.668h33.91v18.3h-33.91v-18.3zm-1-1h35.91v20.3h-35.91v-20.3zm-16.62 1h-33.91v18.3h33.91v-18.3zm-33.91-1h-1v20.3h35.91v-20.3h-34.91z" fill="url(#paint40_linear)"/><path stroke="url(#paint41_linear)" d="M1933.78 371.848h27.107v19.3h-27.107z"/><path d="M1944.86 386.28l-.71.699.01.008.7-.707zm-.98-2.36l-.29-.957-.77.234.07.804.99-.081zm1.78-.54l.99-.141-.16-1.154-1.12.338.29.957zm.54 1.66l-.82.575.01.01.01.01.8-.595zm1.98.22l-.73-.685v.001l.73.684zm.1-1.8l-.87.482.87-.482zm-.72-.82l-.65.759.01.007.64-.766zm-1.98-1.7l.65-.759v-.002l-.65.761zm-1.06-1.22l-.88.479.01.016.01.016.86-.511zm.44-3.68l.68.734.01-.009-.69-.725zm4.24.1l-.76.652.01.01.01.009.74-.671zm.88 2.18l.35.936.72-.267-.07-.758-1 .089zm-1.44.54l-.99.141.18 1.232 1.16-.437-.35-.936zm-.46-1.48l-.85.524.01.008v.007l.84-.539zm-1.8-.18l-.73-.685-.01.011-.01.012.75.662zm.28 2l.68-.735-.01-.01-.67.745zm2.04 1.88l.68-.735-.68.735zm1.2 1.42l-.86.514.01.009.01.009.84-.532zm-.42 3.9l-.66-.749.66.749zm-2.34-.24c-.7 0-1.2-.212-1.57-.587l-1.41 1.414c.79.798 1.82 1.173 2.98 1.173v-2zm-1.56-.579c-.38-.387-.64-.938-.7-1.742l-1.99.162c.09 1.169.49 2.192 1.26 2.978l1.43-1.398zm-1.41-.704l1.78-.54-.58-1.914-1.78.54.58 1.914zm.5-1.356c.12.807.33 1.544.71 2.094l1.64-1.15c-.12-.17-.27-.539-.37-1.226l-1.98.282zm.73 2.114c.47.635 1.15.945 1.92.945v-2c-.19 0-.25-.05-.31-.135l-1.61 1.19zm1.92.945c.57 0 1.15-.169 1.59-.636l-1.46-1.368c.01-.004.01-.008.02-.012v-.001a.437.437 0 01-.15.017v2zm1.59-.635c.42-.448.59-1.011.59-1.585h-2c0 .172-.04.209-.05.215l1.46 1.37zm.59-1.585c0-.485-.11-.954-.34-1.382l-1.75.964a.94.94 0 01.09.418h2zm-.34-1.382c-.23-.411-.56-.776-.95-1.104l-1.29 1.532c.28.232.42.413.49.536l1.75-.964zm-.95-1.097l-1.98-1.7-1.3 1.518 1.98 1.7 1.3-1.518zm-1.98-1.702c-.38-.329-.66-.654-.85-.97l-1.72 1.022c.32.537.75 1.026 1.27 1.47l1.3-1.522zm-.83-.938c-.14-.261-.24-.62-.24-1.121h-2c0 .753.15 1.46.48 2.079l1.76-.958zm-.24-1.121c0-.683.2-1.084.48-1.346l-1.36-1.468c-.78.725-1.12 1.711-1.12 2.814h2zm.49-1.355c.3-.289.76-.485 1.49-.485v-2c-1.11 0-2.1.31-2.87 1.035l1.38 1.45zm1.49-.485c.64 0 1.03.197 1.3.512l1.52-1.304c-.71-.831-1.7-1.208-2.82-1.208v2zm1.32.531c.34.37.56.879.63 1.598l1.99-.178c-.1-1.068-.46-2.012-1.14-2.762l-1.48 1.342zm1.27.573l-1.44.54.7 1.872 1.44-.54-.7-1.872zm-.1 1.335c-.1-.713-.28-1.37-.61-1.878l-1.68 1.078c.1.158.23.488.31 1.082l1.98-.282zm-.6-1.863c-.4-.659-1.05-.996-1.81-.996v2c.08 0 .1.014.09.009-.01-.001-.01-.003-.01-.001.01.003.02.013.03.036l1.7-1.048zm-1.81-.996c-.59 0-1.14.203-1.57.655l1.46 1.37c.01-.007.01-.01.01-.01 0-.001 0-.002.01-.003 0-.002.03-.012.09-.012v-2zm-1.59.678c-.38.429-.55.952-.55 1.502h2c0-.117.03-.154.05-.178l-1.5-1.324zm-.55 1.502c0 .771.37 1.413.91 1.905l1.34-1.49c-.23-.201-.25-.333-.25-.415h-2zm.9 1.895l2.04 1.88 1.36-1.47-2.04-1.88-1.36 1.47zm2.04 1.88c.47.433.81.835 1.02 1.199l1.72-1.028c-.34-.569-.81-1.114-1.38-1.641l-1.36 1.47zm1.04 1.217c.17.277.28.65.28 1.168h2c0-.815-.18-1.576-.59-2.232l-1.69 1.064zm.28 1.168c0 .752-.21 1.18-.52 1.451l1.32 1.498c.85-.743 1.2-1.781 1.2-2.949h-2zm-.52 1.451c-.34.303-.86.509-1.68.509v2c1.16 0 2.2-.3 3-1.011l-1.32-1.498z" fill="url(#paint42_linear)"/><path fill-rule="evenodd" clip-rule="evenodd" d="M1970.19 372.347h19.86v18.299h-19.86v-18.299zm-1-1h21.86v20.299h-21.86v-20.299zm16.18 10.15a4.465 4.465 0 11-8.93.001 4.465 4.465 0 018.93-.001zm1 0a5.46 5.46 0 01-5.46 5.466 5.469 5.469 0 01-5.47-5.466 5.468 5.468 0 015.47-5.465 5.46 5.46 0 015.46 5.465z" fill="url(#paint43_linear)"/><path fill-rule="evenodd" clip-rule="evenodd" d="M2004.11 231.492h-152.59v99.498h152.59v-99.498zm-152.59-1h-1V331.99h154.59V230.492h-153.59zm62.02 10.367h-52.65v18.3h52.65v-18.3zm-52.65-1h-1v20.3h54.65v-20.3h-53.65zm30.23 29.108h22.42v18.3h-22.42v-18.3zm-1 0h-29.23v18.3h29.23v-18.3zm1-1h23.42v20.3h-54.65v-20.3h31.23zm98.93 1h-63.58v18.3h63.58v-18.3zm-63.58-1h-1v20.3h65.58v-20.3h-64.58zm-14.05 30.669h33.91v18.299h-33.91v-18.299zm-1-1h35.91v20.299h-35.91v-20.299zm-16.62 1h-33.91v18.299h33.91v-18.299zm-33.91-1h-1v20.299h35.91v-20.299h-34.91z" fill="url(#paint44_linear)"/><path stroke="url(#paint45_linear)" d="M1933.78 240.358h27.107v19.3h-27.107z"/><path d="M1944.86 255.28l-.71.698.01.009.7-.707zm-.98-2.36l-.29-.957-.77.234.07.803.99-.08zm1.78-.54l.99-.142-.16-1.154-1.12.339.29.957zm.54 1.66l-.82.575.01.01.01.01.8-.595zm1.98.22l-.73-.686v.002l.73.684zm.1-1.8l-.87.481.87-.481zm-.72-.82l-.65.758.01.007.64-.765zm-1.98-1.7l.65-.759v-.002l-.65.761zm-1.06-1.22l-.88.478.01.016.01.016.86-.51zm.44-3.68l.68.734.01-.009-.69-.725zm4.24.1l-.76.652.01.009.01.009.74-.67zm.88 2.18l.35.936.72-.267-.07-.759-1 .09zm-1.44.54l-.99.141.18 1.232 1.16-.437-.35-.936zm-.46-1.48l-.85.524.01.007v.008l.84-.539zm-1.8-.18l-.73-.686-.01.012-.01.012.75.662zm.28 2l.68-.736-.01-.009-.67.745zm2.04 1.88l.68-.735v-.001l-.68.736zm1.2 1.42l-.86.514.01.009.01.009.84-.532zm-.42 3.9l-.66-.75.66.75zm-2.34-.24c-.7 0-1.2-.213-1.57-.588l-1.41 1.415c.79.798 1.82 1.173 2.98 1.173v-2zm-1.56-.579c-.38-.388-.64-.938-.7-1.742l-1.99.161c.09 1.17.49 2.192 1.26 2.978l1.43-1.397zm-1.41-.705l1.78-.54-.58-1.913-1.78.54.58 1.913zm.5-1.355c.12.806.33 1.544.71 2.094l1.64-1.151c-.12-.17-.27-.539-.37-1.226l-1.98.283zm.73 2.114c.47.635 1.15.945 1.92.945v-2c-.19 0-.25-.051-.31-.136l-1.61 1.191zm1.92.945c.57 0 1.15-.169 1.59-.637l-1.46-1.367c.01-.004.01-.009.02-.012v-.002a.421.421 0 01-.15.018v2zm1.59-.635c.42-.448.59-1.011.59-1.585h-2c0 .172-.04.209-.05.214l1.46 1.371zm.59-1.585c0-.486-.11-.954-.34-1.382l-1.75.963c.05.106.09.237.09.419h2zm-.34-1.382c-.23-.411-.56-.776-.95-1.104l-1.29 1.531c.28.232.42.414.49.536l1.75-.963zm-.95-1.097l-1.98-1.7-1.3 1.517 1.98 1.7 1.3-1.517zm-1.98-1.702c-.38-.33-.66-.655-.85-.97l-1.72 1.021c.32.538.75 1.026 1.27 1.47l1.3-1.521zm-.83-.938c-.14-.261-.24-.621-.24-1.121h-2c0 .752.15 1.459.48 2.078l1.76-.957zm-.24-1.121c0-.684.2-1.084.48-1.346l-1.36-1.469c-.78.725-1.12 1.711-1.12 2.815h2zm.49-1.355c.3-.289.76-.485 1.49-.485v-2c-1.11 0-2.1.31-2.87 1.035l1.38 1.45zm1.49-.485c.64 0 1.03.196 1.3.512l1.52-1.305c-.71-.831-1.7-1.207-2.82-1.207v2zm1.32.53c.34.371.56.88.63 1.599l1.99-.179c-.1-1.067-.46-2.012-1.14-2.761l-1.48 1.341zm1.27.573l-1.44.54.7 1.873 1.44-.54-.7-1.873zm-.1 1.335c-.1-.712-.28-1.369-.61-1.878l-1.68 1.079c.1.158.23.488.31 1.082l1.98-.283zm-.6-1.863c-.4-.659-1.05-.995-1.81-.995v2c.08 0 .1.014.09.009-.01-.002-.01-.003-.01-.001.01.003.02.013.03.036l1.7-1.049zm-1.81-.995c-.59 0-1.14.203-1.57.654l1.46 1.371c.01-.007.01-.01.01-.011l.01-.003c0-.001.03-.011.09-.011v-2zm-1.59.678c-.38.429-.55.951-.55 1.502h2c0-.117.03-.154.05-.179l-1.5-1.323zm-.55 1.502c0 .771.37 1.412.91 1.904l1.34-1.489c-.23-.202-.25-.334-.25-.415h-2zm.9 1.895l2.04 1.88 1.36-1.471-2.04-1.88-1.36 1.471zm2.04 1.879c.47.434.81.835 1.02 1.2l1.72-1.029c-.34-.568-.81-1.114-1.38-1.64l-1.36 1.469zm1.04 1.218c.17.276.28.649.28 1.168h2c0-.816-.18-1.576-.59-2.233l-1.69 1.065zm.28 1.168c0 .751-.21 1.18-.52 1.45l1.32 1.499c.85-.743 1.2-1.781 1.2-2.949h-2zm-.52 1.45c-.34.303-.86.51-1.68.51v2c1.16 0 2.2-.301 3-1.011l-1.32-1.499z" fill="url(#paint46_linear)"/><path d="M1991.68 229.393h135.57C2127.24-41.79 2021.41 5.095 1889.13 5.095c-21.36-3.22-67.26-1.294-80.01 32.179h130.5c34.98 35.555 58.77 97.236 52.06 192.119z" fill="#2E2E34"/><path d="M1889.13 5.095c132.28 0 238.11-46.885 238.12 224.298h-135.57c6.71-94.883-17.08-156.564-52.06-192.12m-50.49-32.178c10.49 3.943 24.06 10.6 33.78 17.717 5.79 4.23 11.38 9.043 16.71 14.462m-50.49-32.179c-21.36-3.22-67.26-1.294-80.01 32.179h130.5" stroke="url(#paint47_linear)" stroke-width="4"/><circle r="97.216" transform="matrix(-1 0 0 1 2067.71 282.307)" fill="#1F1F22" stroke="url(#paint48_linear)" stroke-width="4"/><circle r="97.216" transform="matrix(-1 0 0 1 2087.56 282.307)" fill="#2E2E34" stroke="url(#paint49_linear)" stroke-width="4"/><circle r="64.144" transform="matrix(-1 0 0 1 2087.55 282.306)" fill="#949496" fill-opacity=".2" stroke="url(#paint50_linear)" stroke-width="4"/><defs><linearGradient id="paint0_linear" x1="0" y1="1351.49" x2="2917.34" y2="1654.84" gradientUnits="userSpaceOnUse"><stop stop-color="#FEBD2F"/><stop offset=".249" stop-color="#F95721"/><stop offset=".503" stop-color="#FC1370"/><stop offset=".672" stop-color="#BA2DB2"/><stop offset=".776" stop-color="#8342E9"/><stop offset=".964" stop-color="#3F89FC"/></linearGradient><linearGradient id="paint1_linear" x1="0" y1="1351.49" x2="2917.34" y2="1654.84" gradientUnits="userSpaceOnUse"><stop stop-color="#FEBD2F"/><stop offset=".249" stop-color="#F95721"/><stop offset=".503" stop-color="#FC1370"/><stop offset=".672" stop-color="#BA2DB2"/><stop offset=".776" stop-color="#8342E9"/><stop offset=".964" stop-color="#3F89FC"/></linearGradient><linearGradient id="paint2_linear" x1="836.812" y1="1151.62" x2="1076.35" y2="1152.71" gradientUnits="userSpaceOnUse"><stop stop-color="#FEBD2F"/><stop offset=".249" stop-color="#F95721"/><stop offset=".503" stop-color="#FC1370"/><stop offset=".672" stop-color="#BA2DB2"/><stop offset=".776" stop-color="#8342E9"/><stop offset=".964" stop-color="#3F89FC"/></linearGradient><linearGradient id="paint3_linear" x1="867.216" y1="1152.03" x2="1106.75" y2="1153.12" gradientUnits="userSpaceOnUse"><stop stop-color="#FEBD2F"/><stop offset=".249" stop-color="#F95721"/><stop offset=".503" stop-color="#FC1370"/><stop offset=".672" stop-color="#BA2DB2"/><stop offset=".776" stop-color="#8342E9"/><stop offset=".964" stop-color="#3F89FC"/></linearGradient><linearGradient id="paint4_linear" x1="919.367" y1="1153.62" x2="1053.03" y2="1154" gradientUnits="userSpaceOnUse"><stop stop-color="#FEBD2F"/><stop offset=".249" stop-color="#F95721"/><stop offset=".503" stop-color="#FC1370"/><stop offset=".672" stop-color="#BA2DB2"/><stop offset=".776" stop-color="#8342E9"/><stop offset=".964" stop-color="#3F89FC"/></linearGradient><linearGradient id="paint5_linear" x1="911.542" y1="1216.55" x2="1045.2" y2="1217.24" gradientUnits="userSpaceOnUse"><stop stop-color="#FEBD2F"/><stop offset=".249" stop-color="#F95721"/><stop offset=".503" stop-color="#FC1370"/><stop offset=".672" stop-color="#BA2DB2"/><stop offset=".776" stop-color="#8342E9"/><stop offset=".964" stop-color="#3F89FC"/></linearGradient><linearGradient id="paint6_linear" x1="354.648" y1="1051.4" x2="778.861" y2="1053.33" gradientUnits="userSpaceOnUse"><stop stop-color="#FEBD2F"/><stop offset=".249" stop-color="#F95721"/><stop offset=".503" stop-color="#FC1370"/><stop offset=".672" stop-color="#BA2DB2"/><stop offset=".776" stop-color="#8342E9"/><stop offset=".964" stop-color="#3F89FC"/></linearGradient><linearGradient id="paint7_linear" x1="410.063" y1="1051.4" x2="834.276" y2="1053.33" gradientUnits="userSpaceOnUse"><stop stop-color="#FEBD2F"/><stop offset=".249" stop-color="#F95721"/><stop offset=".503" stop-color="#FC1370"/><stop offset=".672" stop-color="#BA2DB2"/><stop offset=".776" stop-color="#8342E9"/><stop offset=".964" stop-color="#3F89FC"/></linearGradient><linearGradient id="paint8_linear" x1="502.415" y1="1054.21" x2="739.133" y2="1054.89" gradientUnits="userSpaceOnUse"><stop stop-color="#FEBD2F"/><stop offset=".249" stop-color="#F95721"/><stop offset=".503" stop-color="#FC1370"/><stop offset=".672" stop-color="#BA2DB2"/><stop offset=".776" stop-color="#8342E9"/><stop offset=".964" stop-color="#3F89FC"/></linearGradient><linearGradient id="paint9_linear" x1="488.562" y1="1165.66" x2="725.275" y2="1166.88" gradientUnits="userSpaceOnUse"><stop stop-color="#FEBD2F"/><stop offset=".249" stop-color="#F95721"/><stop offset=".503" stop-color="#FC1370"/><stop offset=".672" stop-color="#BA2DB2"/><stop offset=".776" stop-color="#8342E9"/><stop offset=".964" stop-color="#3F89FC"/></linearGradient><linearGradient id="paint10_linear" x1="488.562" y1="1165.66" x2="725.275" y2="1166.88" gradientUnits="userSpaceOnUse"><stop stop-color="#FEBD2F"/><stop offset=".249" stop-color="#F95721"/><stop offset=".503" stop-color="#FC1370"/><stop offset=".672" stop-color="#BA2DB2"/><stop offset=".776" stop-color="#8342E9"/><stop offset=".964" stop-color="#3F89FC"/></linearGradient><linearGradient id="paint11_linear" x1="2226.27" y1="1154.56" x2="2465.8" y2="1155.65" gradientUnits="userSpaceOnUse"><stop stop-color="#FEBD2F"/><stop offset=".249" stop-color="#F95721"/><stop offset=".503" stop-color="#FC1370"/><stop offset=".672" stop-color="#BA2DB2"/><stop offset=".776" stop-color="#8342E9"/><stop offset=".964" stop-color="#3F89FC"/></linearGradient><linearGradient id="paint12_linear" x1="2257.55" y1="1154.56" x2="2497.09" y2="1155.65" gradientUnits="userSpaceOnUse"><stop stop-color="#FEBD2F"/><stop offset=".249" stop-color="#F95721"/><stop offset=".503" stop-color="#FC1370"/><stop offset=".672" stop-color="#BA2DB2"/><stop offset=".776" stop-color="#8342E9"/><stop offset=".964" stop-color="#3F89FC"/></linearGradient><linearGradient id="paint13_linear" x1="2309.7" y1="1156.15" x2="2443.37" y2="1156.54" gradientUnits="userSpaceOnUse"><stop stop-color="#FEBD2F"/><stop offset=".249" stop-color="#F95721"/><stop offset=".503" stop-color="#FC1370"/><stop offset=".672" stop-color="#BA2DB2"/><stop offset=".776" stop-color="#8342E9"/><stop offset=".964" stop-color="#3F89FC"/></linearGradient><linearGradient id="paint14_linear" x1="2301.88" y1="1219.08" x2="2435.54" y2="1219.77" gradientUnits="userSpaceOnUse"><stop stop-color="#FEBD2F"/><stop offset=".249" stop-color="#F95721"/><stop offset=".503" stop-color="#FC1370"/><stop offset=".672" stop-color="#BA2DB2"/><stop offset=".776" stop-color="#8342E9"/><stop offset=".964" stop-color="#3F89FC"/></linearGradient><linearGradient id="paint15_linear" x1="1744.98" y1="1053.93" x2="2169.19" y2="1055.86" gradientUnits="userSpaceOnUse"><stop stop-color="#FEBD2F"/><stop offset=".249" stop-color="#F95721"/><stop offset=".503" stop-color="#FC1370"/><stop offset=".672" stop-color="#BA2DB2"/><stop offset=".776" stop-color="#8342E9"/><stop offset=".964" stop-color="#3F89FC"/></linearGradient><linearGradient id="paint16_linear" x1="1800.4" y1="1053.92" x2="2224.61" y2="1055.86" gradientUnits="userSpaceOnUse"><stop stop-color="#FEBD2F"/><stop offset=".249" stop-color="#F95721"/><stop offset=".503" stop-color="#FC1370"/><stop offset=".672" stop-color="#BA2DB2"/><stop offset=".776" stop-color="#8342E9"/><stop offset=".964" stop-color="#3F89FC"/></linearGradient><linearGradient id="paint17_linear" x1="1892.75" y1="1056.74" x2="2129.47" y2="1057.42" gradientUnits="userSpaceOnUse"><stop stop-color="#FEBD2F"/><stop offset=".249" stop-color="#F95721"/><stop offset=".503" stop-color="#FC1370"/><stop offset=".672" stop-color="#BA2DB2"/><stop offset=".776" stop-color="#8342E9"/><stop offset=".964" stop-color="#3F89FC"/></linearGradient><linearGradient id="paint18_linear" x1="1878.9" y1="1168.19" x2="2115.61" y2="1169.41" gradientUnits="userSpaceOnUse"><stop stop-color="#FEBD2F"/><stop offset=".249" stop-color="#F95721"/><stop offset=".503" stop-color="#FC1370"/><stop offset=".672" stop-color="#BA2DB2"/><stop offset=".776" stop-color="#8342E9"/><stop offset=".964" stop-color="#3F89FC"/></linearGradient><linearGradient id="paint19_linear" x1="1878.9" y1="1168.19" x2="2115.61" y2="1169.41" gradientUnits="userSpaceOnUse"><stop stop-color="#FEBD2F"/><stop offset=".249" stop-color="#F95721"/><stop offset=".503" stop-color="#FC1370"/><stop offset=".672" stop-color="#BA2DB2"/><stop offset=".776" stop-color="#8342E9"/><stop offset=".964" stop-color="#3F89FC"/></linearGradient><linearGradient id="paint20_linear" x1="1161.23" y1="1097.92" x2="1665.83" y2="1102.19" gradientUnits="userSpaceOnUse"><stop stop-color="#FEBD2F"/><stop offset=".249" stop-color="#F95721"/><stop offset=".503" stop-color="#FC1370"/><stop offset=".672" stop-color="#BA2DB2"/><stop offset=".776" stop-color="#8342E9"/><stop offset=".964" stop-color="#3F89FC"/></linearGradient><linearGradient id="paint21_linear" x1="1123.72" y1="1118.53" x2="1730.29" y2="1124.15" gradientUnits="userSpaceOnUse"><stop stop-color="#FEBD2F"/><stop offset=".249" stop-color="#F95721"/><stop offset=".503" stop-color="#FC1370"/><stop offset=".672" stop-color="#BA2DB2"/><stop offset=".776" stop-color="#8342E9"/><stop offset=".964" stop-color="#3F89FC"/></linearGradient><linearGradient id="paint22_linear" x1="1597.92" y1="1293.75" x2="1582.07" y2="1252.91" gradientUnits="userSpaceOnUse"><stop offset=".357" stop-color="#8145EA"/><stop offset=".588" stop-color="#8342E9"/><stop offset=".964" stop-color="#8145EA"/></linearGradient><linearGradient id="paint23_linear" x1="740.827" y1="532.452" x2="2120.85" y2="544.974" gradientUnits="userSpaceOnUse"><stop stop-color="#FEBD2F"/><stop offset=".249" stop-color="#F95721"/><stop offset=".503" stop-color="#FC1370"/><stop offset=".672" stop-color="#BA2DB2"/><stop offset=".776" stop-color="#8342E9"/><stop offset=".964" stop-color="#3F89FC"/></linearGradient><linearGradient id="paint24_linear" x1="804.559" y1="532.452" x2="2184.58" y2="544.974" gradientUnits="userSpaceOnUse"><stop stop-color="#FEBD2F"/><stop offset=".249" stop-color="#F95721"/><stop offset=".503" stop-color="#FC1370"/><stop offset=".672" stop-color="#BA2DB2"/><stop offset=".776" stop-color="#8342E9"/><stop offset=".964" stop-color="#3F89FC"/></linearGradient><linearGradient id="paint25_linear" x1="884.637" y1="525.936" x2="2058.74" y2="537.722" gradientUnits="userSpaceOnUse"><stop stop-color="#FEBD2F"/><stop offset=".249" stop-color="#F95721"/><stop offset=".503" stop-color="#FC1370"/><stop offset=".672" stop-color="#BA2DB2"/><stop offset=".776" stop-color="#8342E9"/><stop offset=".964" stop-color="#3F89FC"/></linearGradient><linearGradient id="paint26_linear" x1="987.781" y1="702.586" x2="1322.59" y2="706.704" gradientUnits="userSpaceOnUse"><stop stop-color="#FEBD2F"/><stop offset=".249" stop-color="#F95721"/><stop offset=".503" stop-color="#FC1370"/><stop offset=".672" stop-color="#BA2DB2"/><stop offset=".776" stop-color="#8342E9"/><stop offset=".964" stop-color="#3F89FC"/></linearGradient><linearGradient id="paint27_linear" x1="1010" y1="680.095" x2="1047.55" y2="680.603" gradientUnits="userSpaceOnUse"><stop stop-color="#FEBD2F"/><stop offset=".249" stop-color="#F95721"/><stop offset=".503" stop-color="#FC1370"/><stop offset=".672" stop-color="#BA2DB2"/><stop offset=".776" stop-color="#8342E9"/><stop offset=".964" stop-color="#3F89FC"/></linearGradient><linearGradient id="paint28_linear" x1="1003.93" y1="651.034" x2="1050.76" y2="651.309" gradientUnits="userSpaceOnUse"><stop stop-color="#FEBD2F"/><stop offset=".249" stop-color="#F95721"/><stop offset=".503" stop-color="#FC1370"/><stop offset=".672" stop-color="#BA2DB2"/><stop offset=".776" stop-color="#8342E9"/><stop offset=".964" stop-color="#3F89FC"/></linearGradient><linearGradient id="paint29_linear" x1="1003.93" y1="720.239" x2="1050.76" y2="720.514" gradientUnits="userSpaceOnUse"><stop stop-color="#FEBD2F"/><stop offset=".249" stop-color="#F95721"/><stop offset=".503" stop-color="#FC1370"/><stop offset=".672" stop-color="#BA2DB2"/><stop offset=".776" stop-color="#8342E9"/><stop offset=".964" stop-color="#3F89FC"/></linearGradient><linearGradient id="paint30_linear" x1="1008" y1="749.095" x2="1051.64" y2="749.781" gradientUnits="userSpaceOnUse"><stop stop-color="#FEBD2F"/><stop offset=".249" stop-color="#F95721"/><stop offset=".503" stop-color="#FC1370"/><stop offset=".672" stop-color="#BA2DB2"/><stop offset=".776" stop-color="#8342E9"/><stop offset=".964" stop-color="#3F89FC"/></linearGradient><linearGradient id="paint31_linear" x1="1061.6" y1="703.257" x2="1284.04" y2="705.267" gradientUnits="userSpaceOnUse"><stop stop-color="#FEBD2F"/><stop offset=".249" stop-color="#F95721"/><stop offset=".503" stop-color="#FC1370"/><stop offset=".672" stop-color="#BA2DB2"/><stop offset=".776" stop-color="#8342E9"/><stop offset=".964" stop-color="#3F89FC"/></linearGradient><linearGradient id="paint32_linear" x1="1589.95" y1="748.564" x2="1584.26" y2="707.512" gradientUnits="userSpaceOnUse"><stop stop-color="#FEBD2F"/><stop offset=".249" stop-color="#F95721"/><stop offset=".503" stop-color="#FC1370"/><stop offset=".672" stop-color="#BA2DB2"/><stop offset=".776" stop-color="#8342E9"/><stop offset=".964" stop-color="#3F89FC"/></linearGradient><linearGradient id="paint33_linear" x1="1118.49" y1="554.78" x2="1651.93" y2="570.586" gradientUnits="userSpaceOnUse"><stop stop-color="#FEBD2F"/><stop offset=".249" stop-color="#F95721"/><stop offset=".503" stop-color="#FC1370"/><stop offset=".672" stop-color="#BA2DB2"/><stop offset=".776" stop-color="#8342E9"/><stop offset=".964" stop-color="#3F89FC"/></linearGradient><linearGradient id="paint34_linear" x1="978" y1="421.722" x2="1827.92" y2="431.802" gradientUnits="userSpaceOnUse"><stop stop-color="#FEBD2F"/><stop offset=".249" stop-color="#F95721"/><stop offset=".503" stop-color="#FC1370"/><stop offset=".672" stop-color="#BA2DB2"/><stop offset=".776" stop-color="#8342E9"/><stop offset=".964" stop-color="#3F89FC"/></linearGradient><linearGradient id="paint35_linear" x1="1753.63" y1="704.892" x2="2008.85" y2="707.284" gradientUnits="userSpaceOnUse"><stop stop-color="#FEBD2F"/><stop offset=".249" stop-color="#F95721"/><stop offset=".503" stop-color="#FC1370"/><stop offset=".672" stop-color="#BA2DB2"/><stop offset=".776" stop-color="#8342E9"/><stop offset=".964" stop-color="#3F89FC"/></linearGradient><linearGradient id="paint36_linear" x1="1850.52" y1="551.162" x2="2007.43" y2="552.56" gradientUnits="userSpaceOnUse"><stop stop-color="#FEBD2F"/><stop offset=".249" stop-color="#F95721"/><stop offset=".503" stop-color="#FC1370"/><stop offset=".672" stop-color="#BA2DB2"/><stop offset=".776" stop-color="#8342E9"/><stop offset=".964" stop-color="#3F89FC"/></linearGradient><linearGradient id="paint37_linear" x1="1933.28" y1="514.372" x2="1961.81" y2="514.603" gradientUnits="userSpaceOnUse"><stop stop-color="#FEBD2F"/><stop offset=".249" stop-color="#F95721"/><stop offset=".503" stop-color="#FC1370"/><stop offset=".672" stop-color="#BA2DB2"/><stop offset=".776" stop-color="#8342E9"/><stop offset=".964" stop-color="#3F89FC"/></linearGradient><linearGradient id="paint38_linear" x1="1943" y1="510.327" x2="1952.14" y2="510.342" gradientUnits="userSpaceOnUse"><stop stop-color="#FEBD2F"/><stop offset=".249" stop-color="#F95721"/><stop offset=".503" stop-color="#FC1370"/><stop offset=".672" stop-color="#BA2DB2"/><stop offset=".776" stop-color="#8342E9"/><stop offset=".964" stop-color="#3F89FC"/></linearGradient><linearGradient id="paint39_linear" x1="1969.19" y1="514.373" x2="1991.38" y2="514.513" gradientUnits="userSpaceOnUse"><stop stop-color="#FEBD2F"/><stop offset=".249" stop-color="#F95721"/><stop offset=".503" stop-color="#FC1370"/><stop offset=".672" stop-color="#BA2DB2"/><stop offset=".776" stop-color="#8342E9"/><stop offset=".964" stop-color="#3F89FC"/></linearGradient><linearGradient id="paint40_linear" x1="1850.52" y1="419.676" x2="2007.43" y2="421.074" gradientUnits="userSpaceOnUse"><stop stop-color="#FEBD2F"/><stop offset=".249" stop-color="#F95721"/><stop offset=".503" stop-color="#FC1370"/><stop offset=".672" stop-color="#BA2DB2"/><stop offset=".776" stop-color="#8342E9"/><stop offset=".964" stop-color="#3F89FC"/></linearGradient><linearGradient id="paint41_linear" x1="1933.28" y1="382.888" x2="1961.81" y2="383.119" gradientUnits="userSpaceOnUse"><stop stop-color="#FEBD2F"/><stop offset=".249" stop-color="#F95721"/><stop offset=".503" stop-color="#FC1370"/><stop offset=".672" stop-color="#BA2DB2"/><stop offset=".776" stop-color="#8342E9"/><stop offset=".964" stop-color="#3F89FC"/></linearGradient><linearGradient id="paint42_linear" x1="1944" y1="376.315" x2="1950.34" y2="376.325" gradientUnits="userSpaceOnUse"><stop stop-color="#FEBD2F"/><stop offset=".249" stop-color="#F95721"/><stop offset=".503" stop-color="#FC1370"/><stop offset=".672" stop-color="#BA2DB2"/><stop offset=".776" stop-color="#8342E9"/><stop offset=".964" stop-color="#3F89FC"/></linearGradient><linearGradient id="paint43_linear" x1="1969.19" y1="382.886" x2="1991.38" y2="383.026" gradientUnits="userSpaceOnUse"><stop stop-color="#FEBD2F"/><stop offset=".249" stop-color="#F95721"/><stop offset=".503" stop-color="#FC1370"/><stop offset=".672" stop-color="#BA2DB2"/><stop offset=".776" stop-color="#8342E9"/><stop offset=".964" stop-color="#3F89FC"/></linearGradient><linearGradient id="paint44_linear" x1="1850.52" y1="288.189" x2="2007.43" y2="289.586" gradientUnits="userSpaceOnUse"><stop stop-color="#FEBD2F"/><stop offset=".249" stop-color="#F95721"/><stop offset=".503" stop-color="#FC1370"/><stop offset=".672" stop-color="#BA2DB2"/><stop offset=".776" stop-color="#8342E9"/><stop offset=".964" stop-color="#3F89FC"/></linearGradient><linearGradient id="paint45_linear" x1="1933.28" y1="251.398" x2="1961.81" y2="251.629" gradientUnits="userSpaceOnUse"><stop stop-color="#FEBD2F"/><stop offset=".249" stop-color="#F95721"/><stop offset=".503" stop-color="#FC1370"/><stop offset=".672" stop-color="#BA2DB2"/><stop offset=".776" stop-color="#8342E9"/><stop offset=".964" stop-color="#3F89FC"/></linearGradient><linearGradient id="paint46_linear" x1="1944" y1="245.314" x2="1950.34" y2="245.324" gradientUnits="userSpaceOnUse"><stop stop-color="#FEBD2F"/><stop offset=".249" stop-color="#F95721"/><stop offset=".503" stop-color="#FC1370"/><stop offset=".672" stop-color="#BA2DB2"/><stop offset=".776" stop-color="#8342E9"/><stop offset=".964" stop-color="#3F89FC"/></linearGradient><linearGradient id="paint47_linear" x1="2127.25" y1="131.262" x2="1804.33" y2="133.904" gradientUnits="userSpaceOnUse"><stop stop-color="#FEBD2F"/><stop offset=".249" stop-color="#F95721"/><stop offset=".503" stop-color="#FC1370"/><stop offset=".672" stop-color="#BA2DB2"/><stop offset=".776" stop-color="#8342E9"/><stop offset=".964" stop-color="#3F89FC"/></linearGradient><linearGradient id="paint48_linear" x1="0" y1="112.799" x2="201.427" y2="113.977" gradientUnits="userSpaceOnUse"><stop stop-color="#FEBD2F"/><stop offset=".249" stop-color="#F95721"/><stop offset=".503" stop-color="#FC1370"/><stop offset=".672" stop-color="#BA2DB2"/><stop offset=".776" stop-color="#8342E9"/><stop offset=".964" stop-color="#3F89FC"/></linearGradient><linearGradient id="paint49_linear" x1="0" y1="112.799" x2="201.427" y2="113.977" gradientUnits="userSpaceOnUse"><stop stop-color="#FEBD2F"/><stop offset=".249" stop-color="#F95721"/><stop offset=".503" stop-color="#FC1370"/><stop offset=".672" stop-color="#BA2DB2"/><stop offset=".776" stop-color="#8342E9"/><stop offset=".964" stop-color="#3F89FC"/></linearGradient><linearGradient id="paint50_linear" x1="11.853" y1="6.405" x2="84.769" y2="141.247" gradientUnits="userSpaceOnUse"><stop stop-color="#FEBD2F"/><stop offset=".249" stop-color="#F95721"/><stop offset=".503" stop-color="#FC1370"/><stop offset=".672" stop-color="#BA2DB2"/><stop offset=".776" stop-color="#8342E9"/><stop offset=".964" stop-color="#3F89FC"/></linearGradient></defs></svg>