<svg width="141" height="141" fill="none" xmlns="http://www.w3.org/2000/svg"><circle cx="70.5" cy="70.5" r="70" fill="#111" stroke="url(#paint0_linear)"/><circle cx="70.5" cy="70.5" r="70" fill="#111" stroke="url(#paint1_linear)"/><path fill="url(#paint2_linear)" fill-opacity=".2" stroke="url(#paint3_linear)" stroke-width=".83" d="M26.5 37.78h87.997v66.086H26.5z"/><path fill-rule="evenodd" clip-rule="evenodd" d="M34.968 62.58V37.366h-.84v66.916h.84v-40.86h12.435v-.84H34.968zm79.945.545H72.865v-.84h42.048v.84zm-11.847 17.913h11.849v-.84h-11.849v.84zm-17.76.074H36.152v-.84h49.154v.84z" fill="url(#paint4_linear)"/><path d="M97.587 77.789c-2.146-1.574-3.815-3.144-5.079-4.772l-.743-.957v18.418a3.917 3.917 0 01-3.912 3.912 3.917 3.917 0 01-3.912-3.912 3.917 3.917 0 013.912-3.912c.712 0 1.38.192 1.956.526l.623.362V68.74c.131.06.274.13.421.209.33.176.642.372.839.519L92.9 71.28c1.252 1.878 3.05 3.653 5.475 5.432l.246-.335-.245.335a5.017 5.017 0 012.044 4.03c0 .69-.14 1.185-.364 1.547-.222.36-.548.623-.977.816a4.697 4.697 0 01-1.171.326 3.651 3.651 0 001.178-2.689c0-1.163-.56-2.266-1.499-2.954zm0 0l-.245.335m.245-.335l-.245.335m0 0c-1.945-1.426-3.512-2.856-4.747-4.337m4.747 4.337a3.26 3.26 0 011.329 2.62 3.247 3.247 0 01-1.573 2.78l-4.503-9.737m0 0v-.516h-.415l-.328.254c.107.138.216.275.328.411V90.48a4.332 4.332 0 01-4.327 4.327 4.332 4.332 0 01-4.327-4.327 4.332 4.332 0 014.327-4.327 4.31 4.31 0 011.749.37v.212h.415l.208-.359a4.752 4.752 0 00-.208-.114v-16.48l2.578 4.006z" fill="#111" stroke="url(#paint5_linear)" stroke-width=".83"/><path d="M67.485 50.512h0l.01-.003c.178-.05.481-.12.763-.185v18.009a3.648 3.648 0 01-3.643 3.643 3.648 3.648 0 01-3.643-3.643 3.648 3.648 0 013.643-3.643c.663 0 1.285.178 1.821.49l.623.361v-9.605l-.528.15-12.31 3.484-.301.086V72.39a3.648 3.648 0 01-3.643 3.643 3.648 3.648 0 01-3.643-3.643 3.648 3.648 0 013.643-3.643c.663 0 1.284.178 1.82.49l.624.361V54.283l14.764-3.771z" fill="#111" stroke="url(#paint6_linear)" stroke-width=".83"/><defs><linearGradient id="paint0_linear" x1="0" y1="80.152" x2="143.128" y2="80.989" gradientUnits="userSpaceOnUse"><stop stop-color="#FEBD2F"/><stop offset=".249" stop-color="#F95721"/><stop offset=".503" stop-color="#FC1370"/><stop offset=".672" stop-color="#BA2DB2"/><stop offset=".776" stop-color="#8342E9"/><stop offset=".964" stop-color="#3F89FC"/></linearGradient><linearGradient id="paint1_linear" x1="0" y1="80.152" x2="143.128" y2="80.989" gradientUnits="userSpaceOnUse"><stop stop-color="#FEBD2F"/><stop offset=".249" stop-color="#F95721"/><stop offset=".503" stop-color="#FC1370"/><stop offset=".672" stop-color="#BA2DB2"/><stop offset=".776" stop-color="#8342E9"/><stop offset=".964" stop-color="#3F89FC"/></linearGradient><linearGradient id="paint2_linear" x1="26.085" y1="75.404" x2="116.25" y2="76.104" gradientUnits="userSpaceOnUse"><stop stop-color="#FEBD2F"/><stop offset=".249" stop-color="#F95721"/><stop offset=".503" stop-color="#FC1370"/><stop offset=".672" stop-color="#BA2DB2"/><stop offset=".776" stop-color="#8342E9"/><stop offset=".964" stop-color="#3F89FC"/></linearGradient><linearGradient id="paint3_linear" x1="26.085" y1="75.404" x2="116.25" y2="76.104" gradientUnits="userSpaceOnUse"><stop stop-color="#FEBD2F"/><stop offset=".249" stop-color="#F95721"/><stop offset=".503" stop-color="#FC1370"/><stop offset=".672" stop-color="#BA2DB2"/><stop offset=".776" stop-color="#8342E9"/><stop offset=".964" stop-color="#3F89FC"/></linearGradient><linearGradient id="paint4_linear" x1="34.128" y1="75.404" x2="116.133" y2="75.983" gradientUnits="userSpaceOnUse"><stop stop-color="#FEBD2F"/><stop offset=".249" stop-color="#F95721"/><stop offset=".503" stop-color="#FC1370"/><stop offset=".672" stop-color="#BA2DB2"/><stop offset=".776" stop-color="#8342E9"/><stop offset=".964" stop-color="#3F89FC"/></linearGradient><linearGradient id="paint5_linear" x1="83.526" y1="83.306" x2="101.096" y2="83.373" gradientUnits="userSpaceOnUse"><stop stop-color="#FEBD2F"/><stop offset=".249" stop-color="#F95721"/><stop offset=".503" stop-color="#FC1370"/><stop offset=".672" stop-color="#BA2DB2"/><stop offset=".776" stop-color="#8342E9"/><stop offset=".964" stop-color="#3F89FC"/></linearGradient><linearGradient id="paint6_linear" x1="46.219" y1="64.949" x2="69.012" y2="65.061" gradientUnits="userSpaceOnUse"><stop stop-color="#FEBD2F"/><stop offset=".249" stop-color="#F95721"/><stop offset=".503" stop-color="#FC1370"/><stop offset=".672" stop-color="#BA2DB2"/><stop offset=".776" stop-color="#8342E9"/><stop offset=".964" stop-color="#3F89FC"/></linearGradient></defs></svg>