<svg width="1440" height="366" fill="none" xmlns="http://www.w3.org/2000/svg"><path d="M-149 165.51s102.282-5.897 183.51-69.698c78.184-61.414 134.132-65.706 165.934-17.032 10.954 16.773 50.801 176.011 91.439 174.12 40.637-1.891 56.033-211.741 123.763-215.53 67.73-3.782 73.645 128.881 127.829 130.772 54.184 1.891 132.112-109.02 164.937-140.464 51.81-49.64 108.781-16.542 123.228-7.258 45.007 28.915-26.861 281.555 55.681 340.364 61.656 43.933 89.357-269.965 160.469-269.965 71.11 0 92.38 93.566 160.11 89.778 67.73-3.789 96.52-126.426 160.87-132.099 64.34-5.68 16.76 129.915 81.15 148.403 66.39 19.058 176.21 55.754 210.08 42.504" stroke="url(#paint0_linear)" stroke-miterlimit="10"/><path d="M-148.418 166.469s100.03-6.271 179.81-66.318c12.523-9.42 24.584-17.365 35.793-23.976 57.774-34.105 98.449-29.853 127.318 8.794 13.193 17.665 54.987 169.727 94.821 167.407 40.115-2.408 55.243-203.953 120.113-209.694 19.108-1.652 33.128 8.054 45.043 22.76 28.541 35.199 43.632 99.204 81.13 101.53 15.7.973 33.396-7.577 51.385-20.902 42.682-31.363 88.882-89.845 112.664-111.4 18.304-16.597 36.609-23.684 53.453-25.255 30.488-2.843 56.703 12.59 66.367 18.909 45.421 29.574-15.98 272.413 65.612 328.29 60.646 41.689 90.489-258.122 161.259-260.986 67.81-2.741 89.26 85.451 153.79 80.092 65.93-5.476 94.8-122.841 156.39-128.494 64.23-5.897 23.32 132.085 86.77 151.225 1.62.49 3.26.98 4.92 1.463 66.41 19.229 177.75 52.381 210.99 40.076" stroke="url(#paint1_linear)" stroke-miterlimit="10"/><path d="M-147.822 167.421s97.84-6.652 176.11-62.937C40.727 95.54 52.812 88.071 63.778 81.8c56.009-32.057 94.274-27.18 124.774 9.346 15.529 18.603 59.185 163.509 98.205 160.693 39.615-2.857 54.415-196.287 116.461-203.858 18.232-2.224 31.68 6.469 43.461 20.1 28.297 32.71 44.253 94.375 81.057 97.701 15.262 1.381 32.337-6.326 49.888-18.569 41.477-28.948 88.736-84.54 113.284-105.571 18.366-15.733 36.123-22.684 52.383-24.208 28.869-2.7 54.05 12.148 64.03 18.766 45.847 30.228-5.112 263.279 75.555 316.218 59.636 39.437 91.195-246.186 162.064-252.008 64.26-5.278 86.21 77.275 147.46 70.399 64.24-7.21 93.07-119.27 151.93-124.889 64.11-6.121 29.84 134.289 92.37 154.048 1.66.524 3.31 1.041 4.99 1.524 66.07 19.072 183.32 50.721 216.75 39.049" stroke="url(#paint2_linear)" stroke-miterlimit="10"/><path d="M-147.236 168.38s95.686-7.019 172.41-59.557c12.353-8.461 24.475-15.453 35.198-21.391 54.232-30.024 90.574-24.582 122.23 9.903 17.964 19.555 63.385 157.245 101.601 153.973 39.104-3.346 53.587-188.553 112.81-198.022 17.343-2.775 30.231 4.891 41.879 17.447 28.065 30.234 44.861 89.54 80.983 93.879 14.812 1.775 31.34-5.054 48.391-16.236 40.382-26.486 88.554-79.228 113.905-99.735 18.378-14.876 35.636-21.684 51.324-23.154 27.238-2.55 51.385 11.72 61.681 18.624 46.139 30.941 6.025 254.014 85.499 304.137 58.809 37.097 91.523-234.119 162.855-243.029 60.55-7.564 83.2 69.025 141.13 60.706 62.64-8.992 91.33-115.713 147.45-121.284 64.01-6.353 36.37 136.52 97.99 156.871 1.68.558 3.35 1.095 5.06 1.585 65.71 18.916 188.89 49.062 222.5 38.015" stroke="url(#paint3_linear)" stroke-miterlimit="10"/><path d="M-146.637 169.333s93.593-7.387 168.71-56.177c12.292-7.978 24.414-14.494 34.894-20.092 52.431-27.983 87.239-22.045 119.698 10.454 20.495 20.521 67.584 150.987 104.984 147.26 38.593-3.843 52.748-180.806 109.159-192.186 16.467-3.32 28.796 3.313 40.309 14.787 27.847 27.765 45.458 84.69 80.911 90.05 14.373 2.17 30.329-3.782 46.881-13.903 39.299-24.031 88.347-73.923 114.514-93.906 18.366-14.019 35.149-20.678 50.253-22.106 25.619-2.401 48.731 11.277 59.344 18.48 46.541 31.608 16.966 244.832 95.43 292.064 57.848 34.819 91.548-221.876 163.65-234.051 56.72-9.584 80.24 60.693 134.81 51.021 61.14-10.836 89.59-112.176 142.98-117.686 63.9-6.59 42.86 138.778 103.6 159.694 1.72.592 3.41 1.149 5.15 1.646 65.37 18.759 194.45 47.409 228.26 36.988" stroke="url(#paint4_linear)" stroke-miterlimit="10"/><path d="M-146.053 170.292s91.56-7.741 165.022-52.796c12.232-7.502 24.342-13.543 34.602-18.8 50.617-25.956 84.221-19.576 117.154 11.012 23.125 21.48 71.771 144.716 108.368 140.546 38.082-4.339 51.908-173.052 105.508-186.35 15.578-3.863 27.359 1.735 38.727 12.135 27.639 25.303 46.041 79.819 80.837 86.22 13.924 2.557 29.332-2.517 45.385-11.577 38.216-21.575 88.103-68.617 115.134-88.077 18.305-13.175 34.663-19.678 49.182-21.052 23.989-2.251 46.078 10.836 56.995 18.345 46.943 32.275 27.896 235.656 105.374 279.984 56.874 32.54 91.402-209.422 164.435-225.073 52.88-11.332 77.3 52.266 128.49 41.328 59.67-12.753 87.85-108.645 138.5-114.08 63.79-6.836 49.33 141.056 109.21 162.523 1.74.626 3.47 1.211 5.22 1.707 65.02 18.603 200.02 45.749 234.03 35.961" stroke="url(#paint5_linear)" stroke-miterlimit="10"/><path d="M-145.458 171.251s89.6-8.081 161.322-49.415c12.17-7.02 24.28-12.584 34.31-17.508 48.791-23.936 81.445-17.175 114.622 11.563 25.875 22.419 75.97 138.444 111.752 133.833 37.57-4.843 51.068-165.285 101.856-180.514 14.69-4.408 25.936.163 37.145 9.475 27.469 22.847 46.638 74.942 80.764 82.39 13.473 2.945 28.334-1.244 43.876-9.243 37.157-19.12 87.823-63.325 115.755-82.241 18.219-12.346 34.175-18.678 48.123-20.005 22.369-2.101 43.437 10.394 54.658 18.202C806.069 100.723 797.538 294.27 874.03 335.7c55.888 30.268 91.183-196.73 165.23-216.094 49.07-12.836 74.36 43.742 122.16 31.635 58.26-14.76 86.1-105.136 134.03-110.476 63.67-7.094 55.79 143.356 114.82 165.346 1.76.66 3.52 1.265 5.29 1.769 64.67 18.446 205.6 44.089 239.79 34.927" stroke="url(#paint6_linear)" stroke-miterlimit="10"/><path d="M-144.874 172.203s87.714-8.4 157.622-46.035c12.134-6.536 24.208-11.631 34.005-16.209 46.942-21.915 78.878-14.828 112.08 12.115 28.735 23.323 80.168 132.166 115.146 127.119 37.06-5.346 50.229-157.503 98.205-174.678 13.802-4.938 24.537-1.408 35.563 6.822 27.335 20.413 47.235 70.046 80.692 78.568 13.022 3.32 27.347.028 42.378-6.91 36.11-16.672 87.495-58.034 116.376-76.412 18.098-11.516 33.688-17.678 47.052-18.95 20.739-1.959 40.784 9.951 52.322 18.059 47.757 33.587 49.717 217.312 125.248 255.83 54.89 27.997 91.037-183.785 166.025-207.115 45.37-14.114 71.4 35.124 115.84 21.949 56.83-16.862 84.35-101.633 129.55-106.87 63.56-7.36 62.22 145.675 120.43 168.168 1.8.694 3.57 1.327 5.37 1.837 64.32 18.29 211.16 42.436 245.54 33.9" stroke="url(#paint7_linear)" stroke-miterlimit="10"/><path d="M-144.278 173.162s85.925-8.692 153.923-42.654c12.11-6.047 24.134-10.679 33.713-14.916 45.055-19.91 76.468-12.543 109.536 12.671 31.716 24.188 84.367 125.882 118.53 120.407 36.548-5.857 49.388-149.709 94.554-168.842 12.925-5.476 23.148-2.98 33.98 4.162 27.25 17.978 47.843 65.135 80.631 74.739 12.584 3.686 26.374 1.292 40.869-4.578 35.1-14.222 87.118-52.762 116.997-70.582 17.952-10.707 33.214-16.678 45.993-17.903 19.108-1.81 38.143 9.51 49.973 17.916 48.183 34.247 60.61 208.143 135.191 243.758 53.892 25.731 91.11-170.577 166.828-198.138 41.8-15.216 68.38 26.412 109.51 12.257 55.37-19.066 82.6-98.15 125.09-103.266 63.43-7.638 68.63 148.015 126.04 170.992 1.82.728 3.61 1.381 5.44 1.898 63.97 18.133 216.73 40.777 251.3 32.873" stroke="url(#paint8_linear)" stroke-miterlimit="10"/><path d="M-143.692 174.114s84.21-8.951 150.223-39.273c12.098-5.558 24.05-9.734 33.408-13.618 43.158-17.916 74.193-10.311 107.005 13.223 34.845 24.997 88.554 119.597 121.914 113.693 36.037-6.38 48.573-141.907 90.902-163.006 12.049-6.006 21.798-4.55 32.399 1.51 27.213 15.556 48.451 60.21 80.557 70.909 12.147 4.047 25.413 2.564 39.373-2.245 34.114-11.767 86.703-47.511 117.605-64.746 17.769-9.91 32.727-15.672 44.922-16.849 17.489-1.66 35.502 9.067 47.636 17.78 48.609 34.901 71.478 198.988 145.123 231.685 52.869 23.473 91.523-157.102 167.615-189.159 38.42-16.189 65.31 17.616 103.19 2.564 53.82-21.378 80.85-94.675 120.62-99.66 63.31-7.938 75.03 150.361 131.65 173.813 1.85.769 3.67 1.442 5.51 1.959 63.62 17.971 222.31 39.118 257.07 31.847" stroke="url(#paint9_linear)" stroke-miterlimit="10"/><path d="M-143.097 175.074s82.59-9.162 146.523-35.894c12.097-5.053 23.964-8.781 33.116-12.325 41.222-15.943 72.014-8.135 104.461 13.774 38.106 25.731 92.753 113.298 125.309 106.979 35.526-6.897 47.782-134.091 87.252-157.176 11.172-6.53 20.471-6.122 30.816-1.15 27.274 13.121 49.096 55.272 80.484 67.08 11.709 4.407 24.476 3.843 37.863.081 33.165-9.305 86.242-42.287 118.226-58.917 17.55-9.128 32.24-14.672 43.863-15.8 15.859-1.51 32.861 8.617 45.288 17.636 49.047 35.547 82.334 189.84 155.066 219.604 51.835 21.215 92.4-143.375 168.41-180.18 35.23-17.066 62.11 8.747 96.86-7.122 52.1-23.793 79.09-91.22 116.13-96.055 63.19-8.25 81.41 152.721 137.25 176.643 1.88.803 3.73 1.497 5.59 2.021 63.28 17.814 227.87 37.464 262.83 30.812" stroke="url(#paint10_linear)" stroke-miterlimit="10"/><path d="M-142.513 176.026S-61.457 166.707.31 143.513c12.11-4.551 23.866-7.843 32.824-11.033 39.263-13.984 69.908-6.013 101.929 14.332 41.514 26.377 96.928 106.999 128.693 100.259 35.003-7.428 47.003-126.27 83.6-151.341 10.309-7.054 19.193-7.707 29.234-3.802 27.433 10.672 49.754 50.32 80.412 63.257 11.294 4.761 23.538 5.128 36.366 2.414 32.252-6.815 85.718-37.09 118.846-53.081 17.319-8.36 31.754-13.672 42.793-14.746 14.239-1.36 30.219 8.175 42.95 17.494 49.474 36.199 93.166 180.697 164.998 207.531 50.8 18.97 93.86-129.426 169.195-171.203 32.27-17.888 58.81-.183 90.54-16.814 50.2-26.309 77.31-87.77 111.66-92.45 63.05-8.591 87.77 155.095 142.86 179.466 1.9.844 3.78 1.551 5.66 2.082 62.93 17.657 233.45 35.804 268.59 29.785" stroke="url(#paint11_linear)" stroke-miterlimit="10"/><path d="M-141.919 176.985s79.62-9.407 139.135-29.133c12.147-4.026 23.77-6.904 32.52-9.733 37.267-12.053 67.864-3.938 99.386 14.882 45.105 26.922 101.114 100.701 132.076 93.546 34.48-7.965 46.249-118.447 79.949-145.505 9.445-7.584 17.952-9.318 27.652-6.462 27.701 8.163 50.435 45.362 80.339 59.428 10.88 5.115 22.625 6.428 34.857 4.748 31.376-4.299 85.158-31.942 119.467-47.253 17.051-7.611 31.266-12.671 41.733-13.699 12.609-1.217 27.603 7.72 40.614 17.352 50.033 36.798 103.986 171.576 174.941 195.451 49.741 16.739 95.953-115.298 169.99-162.217 29.49-18.699 55.36-9.142 84.22-26.507 48.05-28.915 75.54-84.343 107.19-88.846 62.89-8.95 94.09 157.483 148.47 182.29 1.92.877 3.82 1.612 5.73 2.142 62.57 17.501 239.02 34.152 274.34 28.758" stroke="url(#paint12_linear)" stroke-miterlimit="10"/><path d="M-141.331 177.937s78.233-9.407 135.436-25.752c12.195-3.482 23.66-5.972 32.228-8.441 35.246-10.148 65.843-1.911 96.842 15.434 48.865 27.336 105.288 94.395 135.459 86.832 33.944-8.502 45.518-110.625 76.298-139.669 8.593-8.108 16.747-10.965 26.07-9.121 28.065 5.557 51.141 40.396 80.265 55.598 10.467 5.469 21.713 7.74 33.36 7.081 30.512-1.735 84.538-26.834 120.088-41.424 16.783-6.883 30.78-11.672 40.662-12.644 10.99-1.068 24.962 7.278 38.265 17.208 50.447 37.451 114.794 162.476 184.872 183.378 48.671 14.515 98.753-101.035 170.776-153.239 26.94-19.521 51.79-18.12 77.9-36.192 45.61-31.581 73.75-80.922 102.72-85.24 62.72-9.353 100.42 159.876 154.08 185.111 1.94.918 3.87 1.667 5.8 2.204 62.22 17.345 244.58 32.492 280.1 27.724" stroke="url(#paint13_linear)" stroke-miterlimit="10"/><path d="M-140.734 178.896s76.882-9.311 131.735-22.371c12.256-2.918 23.55-5.054 31.924-7.142 33.202-8.285 63.823.061 94.311 15.991 52.82 27.602 109.463 88.084 138.855 80.119 33.408-9.046 44.812-102.803 72.647-133.833 7.74-8.631 15.541-12.651 24.487-11.774 28.443 2.789 51.871 35.424 80.192 51.769 10.078 5.815 20.788 9.08 31.851 9.414 29.624.891 83.868-21.793 120.697-35.588 16.491-6.176 30.305-10.672 39.603-11.597 9.359-.918 22.309 6.836 35.928 17.073 50.873 38.111 125.589 153.395 194.816 171.297 47.599 12.312 102.246-86.696 171.578-144.26 24.56-20.392 48.07-27.092 71.57-45.885 42.87-34.281 71.96-77.514 98.24-81.636 62.53-9.801 106.71 162.272 159.69 187.935 1.97.959 3.93 1.728 5.88 2.265 61.87 17.188 250.15 30.833 285.86 26.697" stroke="url(#paint14_linear)" stroke-miterlimit="10"/><path d="M-140.152 179.855s75.519-9.094 128.035-18.991c12.317-2.319 23.429-4.149 31.632-5.849 31.157-6.469 61.803 1.979 91.767 16.542 56.971 27.683 113.625 81.765 142.238 73.405 32.861-9.597 44.241-94.953 68.996-127.997 6.925-9.148 14.313-14.086 22.905-14.433 28.613-1.15 52.626 30.452 80.12 47.946 9.688 6.162 19.838 10.434 30.353 11.747 28.65 3.564 83.175-16.814 121.318-29.758 16.199-5.496 29.818-9.666 38.532-10.543 7.741-.769 19.668 6.394 33.579 16.93 51.287 38.763 136.372 144.348 204.759 159.224 46.529 10.121 106.396-72.345 172.378-135.282 22.35-21.331 44.2-36.036 65.24-55.578 39.84-37.002 70.17-74.126 93.78-78.03 62.3-10.312 113 164.679 165.3 190.764 2 .993 3.98 1.782 5.96 2.333 61.53 17.032 255.73 29.18 291.62 25.67" stroke="url(#paint15_linear)" stroke-miterlimit="10"/><path d="M-139.555 180.808S-24.494 167.197 16.12 160.64c89.685-14.481 193.623 96.749 234.857 83.785 41.234-12.964 48.001-134.928 86.667-139.247 38.667-4.319 70.237 49.402 108.891 58.19 38.654 8.788 131.054-30.541 159.412-33.418 28.345-2.884 159.837 148.865 245.933 163.938 89.393 15.651 256.95-254.667 321.38-266 64.43-11.331 123.74 181.304 176.94 195.975 61.17 16.876 261.29 27.52 297.37 24.636" stroke="url(#paint16_linear)" stroke-miterlimit="10"/><defs><linearGradient id="paint0_linear" x1="-149.068" y1="183.002" x2="1660.35" y2="183.002" gradientUnits="userSpaceOnUse"><stop stop-color="#FFBE10"/><stop offset=".218" stop-color="#FF571A"/><stop offset=".497" stop-color="#FF0F74"/><stop offset=".746" stop-color="#9640EE"/><stop offset=".778" stop-color="#8F44EF"/><stop offset=".825" stop-color="#7B4DF1"/><stop offset=".881" stop-color="#5B5DF5"/><stop offset=".944" stop-color="#2E73FA"/><stop offset="1" stop-color="#008AFF"/></linearGradient><linearGradient id="paint1_linear" x1="-148.485" y1="184.821" x2="1659.56" y2="184.821" gradientUnits="userSpaceOnUse"><stop stop-color="#FFBE10"/><stop offset=".218" stop-color="#FF571A"/><stop offset=".497" stop-color="#FF0F74"/><stop offset=".746" stop-color="#9640EE"/><stop offset=".778" stop-color="#8F44EF"/><stop offset=".825" stop-color="#7B4DF1"/><stop offset=".881" stop-color="#5B5DF5"/><stop offset=".944" stop-color="#2E73FA"/><stop offset="1" stop-color="#008AFF"/></linearGradient><linearGradient id="paint2_linear" x1="-147.9" y1="186.64" x2="1658.77" y2="186.64" gradientUnits="userSpaceOnUse"><stop stop-color="#FFBE10"/><stop offset=".218" stop-color="#FF571A"/><stop offset=".497" stop-color="#FF0F74"/><stop offset=".746" stop-color="#9640EE"/><stop offset=".778" stop-color="#8F44EF"/><stop offset=".825" stop-color="#7B4DF1"/><stop offset=".881" stop-color="#5B5DF5"/><stop offset=".944" stop-color="#2E73FA"/><stop offset="1" stop-color="#008AFF"/></linearGradient><linearGradient id="paint3_linear" x1="-147.313" y1="188.452" x2="1657.98" y2="188.452" gradientUnits="userSpaceOnUse"><stop stop-color="#FFBE10"/><stop offset=".218" stop-color="#FF571A"/><stop offset=".497" stop-color="#FF0F74"/><stop offset=".746" stop-color="#9640EE"/><stop offset=".778" stop-color="#8F44EF"/><stop offset=".825" stop-color="#7B4DF1"/><stop offset=".881" stop-color="#5B5DF5"/><stop offset=".944" stop-color="#2E73FA"/><stop offset="1" stop-color="#008AFF"/></linearGradient><linearGradient id="paint4_linear" x1="-146.726" y1="190.271" x2="1657.19" y2="190.271" gradientUnits="userSpaceOnUse"><stop stop-color="#FFBE10"/><stop offset=".218" stop-color="#FF571A"/><stop offset=".497" stop-color="#FF0F74"/><stop offset=".746" stop-color="#9640EE"/><stop offset=".778" stop-color="#8F44EF"/><stop offset=".825" stop-color="#7B4DF1"/><stop offset=".881" stop-color="#5B5DF5"/><stop offset=".944" stop-color="#2E73FA"/><stop offset="1" stop-color="#008AFF"/></linearGradient><linearGradient id="paint5_linear" x1="-146.141" y1="192.091" x2="1656.4" y2="192.091" gradientUnits="userSpaceOnUse"><stop stop-color="#FFBE10"/><stop offset=".218" stop-color="#FF571A"/><stop offset=".497" stop-color="#FF0F74"/><stop offset=".746" stop-color="#9640EE"/><stop offset=".778" stop-color="#8F44EF"/><stop offset=".825" stop-color="#7B4DF1"/><stop offset=".881" stop-color="#5B5DF5"/><stop offset=".944" stop-color="#2E73FA"/><stop offset="1" stop-color="#008AFF"/></linearGradient><linearGradient id="paint6_linear" x1="-145.558" y1="189.5" x2="1655.61" y2="189.5" gradientUnits="userSpaceOnUse"><stop stop-color="#FFBE10"/><stop offset=".218" stop-color="#FF571A"/><stop offset=".497" stop-color="#FF0F74"/><stop offset=".746" stop-color="#9640EE"/><stop offset=".778" stop-color="#8F44EF"/><stop offset=".825" stop-color="#7B4DF1"/><stop offset=".881" stop-color="#5B5DF5"/><stop offset=".944" stop-color="#2E73FA"/><stop offset="1" stop-color="#008AFF"/></linearGradient><linearGradient id="paint7_linear" x1="-144.974" y1="186.644" x2="1654.81" y2="186.644" gradientUnits="userSpaceOnUse"><stop stop-color="#FFBE10"/><stop offset=".218" stop-color="#FF571A"/><stop offset=".497" stop-color="#FF0F74"/><stop offset=".746" stop-color="#9640EE"/><stop offset=".778" stop-color="#8F44EF"/><stop offset=".825" stop-color="#7B4DF1"/><stop offset=".881" stop-color="#5B5DF5"/><stop offset=".944" stop-color="#2E73FA"/><stop offset="1" stop-color="#008AFF"/></linearGradient><linearGradient id="paint8_linear" x1="-144.389" y1="183.789" x2="1654.02" y2="183.789" gradientUnits="userSpaceOnUse"><stop stop-color="#FFBE10"/><stop offset=".218" stop-color="#FF571A"/><stop offset=".497" stop-color="#FF0F74"/><stop offset=".746" stop-color="#9640EE"/><stop offset=".778" stop-color="#8F44EF"/><stop offset=".825" stop-color="#7B4DF1"/><stop offset=".881" stop-color="#5B5DF5"/><stop offset=".944" stop-color="#2E73FA"/><stop offset="1" stop-color="#008AFF"/></linearGradient><linearGradient id="paint9_linear" x1="-143.802" y1="180.935" x2="1653.23" y2="180.935" gradientUnits="userSpaceOnUse"><stop stop-color="#FFBE10"/><stop offset=".218" stop-color="#FF571A"/><stop offset=".497" stop-color="#FF0F74"/><stop offset=".746" stop-color="#9640EE"/><stop offset=".778" stop-color="#8F44EF"/><stop offset=".825" stop-color="#7B4DF1"/><stop offset=".881" stop-color="#5B5DF5"/><stop offset=".944" stop-color="#2E73FA"/><stop offset="1" stop-color="#008AFF"/></linearGradient><linearGradient id="paint10_linear" x1="-143.218" y1="178.083" x2="1652.43" y2="178.083" gradientUnits="userSpaceOnUse"><stop stop-color="#FFBE10"/><stop offset=".218" stop-color="#FF571A"/><stop offset=".497" stop-color="#FF0F74"/><stop offset=".746" stop-color="#9640EE"/><stop offset=".778" stop-color="#8F44EF"/><stop offset=".825" stop-color="#7B4DF1"/><stop offset=".881" stop-color="#5B5DF5"/><stop offset=".944" stop-color="#2E73FA"/><stop offset="1" stop-color="#008AFF"/></linearGradient><linearGradient id="paint11_linear" x1="-142.631" y1="175.232" x2="1651.64" y2="175.232" gradientUnits="userSpaceOnUse"><stop stop-color="#FFBE10"/><stop offset=".218" stop-color="#FF571A"/><stop offset=".497" stop-color="#FF0F74"/><stop offset=".746" stop-color="#9640EE"/><stop offset=".778" stop-color="#8F44EF"/><stop offset=".825" stop-color="#7B4DF1"/><stop offset=".881" stop-color="#5B5DF5"/><stop offset=".944" stop-color="#2E73FA"/><stop offset="1" stop-color="#008AFF"/></linearGradient><linearGradient id="paint12_linear" x1="-142.046" y1="172.381" x2="1650.84" y2="172.381" gradientUnits="userSpaceOnUse"><stop stop-color="#FFBE10"/><stop offset=".218" stop-color="#FF571A"/><stop offset=".497" stop-color="#FF0F74"/><stop offset=".746" stop-color="#9640EE"/><stop offset=".778" stop-color="#8F44EF"/><stop offset=".825" stop-color="#7B4DF1"/><stop offset=".881" stop-color="#5B5DF5"/><stop offset=".944" stop-color="#2E73FA"/><stop offset="1" stop-color="#008AFF"/></linearGradient><linearGradient id="paint13_linear" x1="-141.453" y1="169.531" x2="1650.05" y2="169.531" gradientUnits="userSpaceOnUse"><stop stop-color="#FFBE10"/><stop offset=".218" stop-color="#FF571A"/><stop offset=".497" stop-color="#FF0F74"/><stop offset=".746" stop-color="#9640EE"/><stop offset=".778" stop-color="#8F44EF"/><stop offset=".825" stop-color="#7B4DF1"/><stop offset=".881" stop-color="#5B5DF5"/><stop offset=".944" stop-color="#2E73FA"/><stop offset="1" stop-color="#008AFF"/></linearGradient><linearGradient id="paint14_linear" x1="-140.863" y1="166.681" x2="1649.25" y2="166.681" gradientUnits="userSpaceOnUse"><stop stop-color="#FFBE10"/><stop offset=".218" stop-color="#FF571A"/><stop offset=".497" stop-color="#FF0F74"/><stop offset=".746" stop-color="#9640EE"/><stop offset=".778" stop-color="#8F44EF"/><stop offset=".825" stop-color="#7B4DF1"/><stop offset=".881" stop-color="#5B5DF5"/><stop offset=".944" stop-color="#2E73FA"/><stop offset="1" stop-color="#008AFF"/></linearGradient><linearGradient id="paint15_linear" x1="-140.275" y1="163.829" x2="1648.46" y2="163.829" gradientUnits="userSpaceOnUse"><stop stop-color="#FFBE10"/><stop offset=".218" stop-color="#FF571A"/><stop offset=".497" stop-color="#FF0F74"/><stop offset=".746" stop-color="#9640EE"/><stop offset=".778" stop-color="#8F44EF"/><stop offset=".825" stop-color="#7B4DF1"/><stop offset=".881" stop-color="#5B5DF5"/><stop offset=".944" stop-color="#2E73FA"/><stop offset="1" stop-color="#008AFF"/></linearGradient><linearGradient id="paint16_linear" x1="-139.681" y1="160.975" x2="1647.66" y2="160.975" gradientUnits="userSpaceOnUse"><stop stop-color="#FFBE10"/><stop offset=".218" stop-color="#FF571A"/><stop offset=".497" stop-color="#FF0F74"/><stop offset=".746" stop-color="#9640EE"/><stop offset=".778" stop-color="#8F44EF"/><stop offset=".825" stop-color="#7B4DF1"/><stop offset=".881" stop-color="#5B5DF5"/><stop offset=".944" stop-color="#2E73FA"/><stop offset="1" stop-color="#008AFF"/></linearGradient></defs></svg>