<svg width="19" height="18" fill="none" xmlns="http://www.w3.org/2000/svg"><path fill-rule="evenodd" clip-rule="evenodd" d="M6.365 0h5.455c1.004 0 1.818.732 1.818 1.636v.817h2.726c1.004 0 1.818.733 1.818 1.636v1.635c0 .904-.814 1.636-1.818 1.636h-.073l-.837 8.995c0 .904-.814 1.636-1.818 1.636h-9.09c-1.005 0-1.819-.732-1.816-1.568L1.89 7.36h-.072C.814 7.36 0 6.628 0 5.724V4.09c0-.903.814-1.636 1.818-1.636h2.729v-.817C4.547.732 5.36 0 6.365 0zM4.547 4.089h-2.73v1.635h14.545V4.09H4.547zm9.92 3.271H3.716l.83 8.996h9.091l.003-.068.827-8.928zm-2.649-5.724v.817H6.364v-.817h5.454z" fill="#F4F5F6"/></svg>