<svg width="40" height="40" fill="none" xmlns="http://www.w3.org/2000/svg"><circle cx="20" cy="20" r="19.5" fill="#111" stroke="url(#paint0_linear)"/><path d="M34.246 14.437c0-.094-.282-2.16-1.174-3.146-1.08-1.174-2.254-1.315-2.865-1.362h-.187c-3.804-.282-9.486-.329-9.58-.329-.047 0-5.775.047-9.532.423h-.14c-.658.047-1.832.188-2.865 1.361-.94.986-1.22 3.1-1.22 3.194 0 0-.283 2.394-.283 4.789v2.207c0 2.348.282 4.743.282 4.79 0 .093.282 2.16 1.174 3.146.986 1.127 2.16 1.267 2.911 1.361.141 0 .235 0 .376.047 2.16.188 9.016.282 9.297.282.047 0 5.776 0 9.58-.422h.14c.658-.047 1.832-.188 2.865-1.362.939-.986 1.22-3.1 1.22-3.193 0 0 .282-2.395.282-4.79v-2.207c0-2.348-.281-4.742-.281-4.79zm-.658 7.09c0 2.348-.282 4.696-.282 4.696-.093.516-.375 2.019-.986 2.676-.798.94-1.737 1.033-2.253 1.08h-.141c-3.757.282-9.439.282-9.486.282-.047 0-7.09-.094-9.156-.329-.141 0-.282-.047-.423-.047-.657-.047-1.596-.188-2.348-1.033-.563-.61-.892-2.113-.939-2.63 0-.046-.281-2.394-.281-4.695V19.32c0-2.348.281-4.696.281-4.696.047-.516.376-2.019.94-2.676.845-.94 1.737-1.033 2.3-1.08h.141c3.757-.282 9.438-.329 9.485-.329.047 0 5.73.047 9.486.329h.187c.517.047 1.456.14 2.254 1.08.564.657.846 2.16.94 2.676.046.094.281 2.442.281 4.696v2.207z" fill="url(#paint1_linear)"/><path d="M26.31 20.447l-8.921-5.212a.426.426 0 00-.47 0 .493.493 0 00-.235.423v10.19c0 .187.094.328.235.422.094.047.141.047.235.047s.14 0 .235-.047l8.922-4.978a.493.493 0 00.234-.422.493.493 0 00-.235-.423zm-8.686 4.602v-8.593l7.513 4.414-7.513 4.179z" fill="url(#paint2_linear)"/><defs><linearGradient id="paint0_linear" x1="0" y1="22.738" x2="40.604" y2="22.976" gradientUnits="userSpaceOnUse"><stop stop-color="#FEBD2F"/><stop offset=".249" stop-color="#F95721"/><stop offset=".503" stop-color="#FC1370"/><stop offset=".672" stop-color="#BA2DB2"/><stop offset=".776" stop-color="#8342E9"/><stop offset=".964" stop-color="#3F89FC"/></linearGradient><linearGradient id="paint1_linear" x1="6.4" y1="21.879" x2="34.951" y2="22.096" gradientUnits="userSpaceOnUse"><stop stop-color="#FEBD2F"/><stop offset=".249" stop-color="#F95721"/><stop offset=".503" stop-color="#FC1370"/><stop offset=".672" stop-color="#BA2DB2"/><stop offset=".776" stop-color="#8342E9"/><stop offset=".964" stop-color="#3F89FC"/></linearGradient><linearGradient id="paint2_linear" x1="16.684" y1="21.504" x2="26.694" y2="21.556" gradientUnits="userSpaceOnUse"><stop stop-color="#FEBD2F"/><stop offset=".249" stop-color="#F95721"/><stop offset=".503" stop-color="#FC1370"/><stop offset=".672" stop-color="#BA2DB2"/><stop offset=".776" stop-color="#8342E9"/><stop offset=".964" stop-color="#3F89FC"/></linearGradient></defs></svg>