<svg width="20" height="14" fill="none" xmlns="http://www.w3.org/2000/svg"><path d="M19.336 2.61c.14.632.281 1.617.352 2.882l.035 1.758-.035 1.758c-.07 1.336-.211 2.285-.352 2.918-.14.422-.352.773-.633 1.054a2.293 2.293 0 01-1.09.633c-.633.176-2.039.282-4.289.352L10.125 14l-3.2-.035c-2.25-.07-3.69-.176-4.288-.352a2.14 2.14 0 01-1.09-.633 2.039 2.039 0 01-.633-1.054c-.176-.633-.281-1.582-.352-2.918L.527 7.25c0-.492 0-1.09.035-1.758.07-1.265.176-2.25.352-2.883a2.3 2.3 0 01.633-1.09c.281-.28.668-.492 1.09-.632.597-.14 2.039-.282 4.289-.352L10.125.5l3.2.035c2.25.07 3.655.211 4.288.352.422.14.774.351 1.09.633.281.316.492.667.633 1.09zm-11.18 7.523l5.028-2.883-5.028-2.848v5.73z" fill="#F4F5F6"/></svg>