<svg width="150" height="50" fill="none" xmlns="http://www.w3.org/2000/svg"><path fill="#fff" d="M0 0h150v50H0z"/><g clip-path="url(#clip0)"><path d="M51.358 13.868c-.856 1.013-2.226 1.812-3.596 1.698-.172-1.37.499-2.826 1.284-3.725.856-1.042 2.355-1.784 3.568-1.841.143 1.427-.414 2.826-1.256 3.868zm1.242 1.97c-1.984-.115-3.683 1.127-4.625 1.127-.956 0-2.397-1.07-3.967-1.042-2.041.028-3.94 1.185-4.981 3.026-2.14 3.682-.557 9.134 1.513 12.13 1.013 1.485 2.226 3.112 3.825 3.055 1.512-.057 2.112-.985 3.939-.985 1.84 0 2.369.985 3.967.957 1.656-.029 2.698-1.485 3.711-2.969 1.156-1.684 1.627-3.325 1.656-3.411-.029-.029-3.197-1.242-3.226-4.895-.028-3.055 2.498-4.51 2.612-4.596-1.427-2.112-3.654-2.34-4.424-2.398zm11.46-4.14v22.25h3.454v-7.606h4.781c4.367 0 7.436-2.998 7.436-7.336 0-4.339-3.011-7.308-7.322-7.308H64.06zm3.454 2.912h3.982c2.997 0 4.71 1.598 4.71 4.41 0 2.812-1.713 4.424-4.724 4.424h-3.968V14.61zM86.04 34.12c2.17 0 4.182-1.1 5.095-2.84h.072v2.669h3.197V22.874c0-3.212-2.57-5.281-6.523-5.281-3.667 0-6.38 2.098-6.48 4.98h3.112c.257-1.37 1.527-2.268 3.269-2.268 2.112 0 3.296.984 3.296 2.797v1.227l-4.31.257c-4.01.243-6.18 1.884-6.18 4.739 0 2.882 2.241 4.795 5.452 4.795zm.928-2.64c-1.841 0-3.011-.885-3.011-2.241 0-1.399 1.127-2.212 3.282-2.34l3.84-.243v1.256c0 2.083-1.77 3.568-4.111 3.568zM98.67 40c3.368 0 4.953-1.285 6.337-5.18l6.066-17.013h-3.511l-4.068 13.145h-.071l-4.068-13.145h-3.61l5.851 16.199-.314.984c-.528 1.67-1.385 2.313-2.912 2.313-.27 0-.799-.029-1.013-.057v2.668c.2.057 1.056.086 1.313.086z" fill="#000"/></g><defs><clipPath id="clip0"><path fill="#fff" transform="translate(38 10)" d="M0 0h73.073v30H0z"/></clipPath></defs></svg>