<svg width="200" height="200" fill="none" xmlns="http://www.w3.org/2000/svg"><path fill-rule="evenodd" clip-rule="evenodd" d="M100 200c55.228 0 100-44.772 100-100S155.228 0 100 0 0 44.772 0 100s44.772 100 100 100zm23.916-107.167H69.25a3.42 3.42 0 00-3.417 3.417v47.833a3.421 3.421 0 003.417 3.417h61.5a3.422 3.422 0 003.417-3.417V96.25a3.421 3.421 0 00-3.417-3.417h-6.834zm-3.417-20.5V86h-41V72.333c0-11.302 9.198-20.5 20.5-20.5 11.303 0 20.5 9.198 20.5 20.5zM72.666 86V72.333C72.666 57.26 84.925 45 99.999 45c15.075 0 27.334 12.259 27.334 27.333V86h3.417c5.649 0 10.25 4.597 10.25 10.25v47.833c0 5.654-4.601 10.25-10.25 10.25h-61.5c-5.649 0-10.25-4.596-10.25-10.25V96.25C59 90.597 63.601 86 69.25 86h3.416zm24.03 35.78c-3.337-1.353-5.696-4.629-5.696-8.447 0-5.024 4.086-9.111 9.111-9.111s9.111 4.087 9.111 9.111c0 3.817-2.358 7.092-5.693 8.447v10.914a3.418 3.418 0 01-3.417 3.417 3.418 3.418 0 01-3.417-3.417V121.78zm1.137-8.447a2.281 2.281 0 012.278-2.277 2.281 2.281 0 012.278 2.277 2.281 2.281 0 01-2.278 2.278 2.281 2.281 0 01-2.278-2.278z" fill="#FAFAFA"/></svg>