<svg width="70" height="50" fill="none" xmlns="http://www.w3.org/2000/svg"><path d="M4.375 0h61.25C68.04 0 70 1.948 70 4.35v41.302c0 2.4-1.96 4.348-4.375 4.348H4.375C1.958 50 0 48.052 0 45.653V4.35C0 1.948 1.96 0 4.375 0z" fill="#26A6D1"/><path d="M11.288 17.39L4.375 32.593h8.275l1.026-2.423h2.345l1.026 2.423h9.109v-1.85l.812 1.85h4.711l.812-1.889v1.89h18.944l2.303-2.362 2.157 2.361 9.73.02-6.934-7.578 6.934-7.643h-9.579l-2.242 2.317-2.09-2.317H31.107l-1.77 3.923-1.81-3.923h-8.259v1.787l-.918-1.787h-7.061zm1.6 2.16h4.035l4.585 10.308V19.549h4.419l3.541 7.391 3.264-7.39h4.397v10.907h-2.676l-.022-8.547-3.9 8.547h-2.393l-3.922-8.547v8.547h-5.504l-1.043-2.445H12.03l-1.04 2.443H8.04l4.85-10.905zm26.688 0h10.879l3.327 3.57 3.434-3.57h3.328l-5.056 5.482 5.056 5.419h-3.478l-3.328-3.613-3.452 3.613h-10.71V19.549zm-24.725 1.845l-1.857 4.356h3.712l-1.855-4.356zm27.412.413v1.991h5.934v2.22h-5.934v2.174h6.656l3.093-3.203-2.962-3.184h-6.787v.002z" fill="#fff"/></svg>