<svg width="50" height="50" fill="none" xmlns="http://www.w3.org/2000/svg"><circle cx="25" cy="25" r="24.5" fill="#111" fill-opacity=".2" stroke="url(#paint0_linear)"/><mask id="a" fill="#fff"><path fill-rule="evenodd" clip-rule="evenodd" d="M39.785 20.833a6.09 6.09 0 00-1.19.117 9.98 9.98 0 00-3.016-5.31A9.962 9.962 0 0028.81 13c-1.227 0-2.479.234-3.621.677a.965.965 0 00.697 1.8 8.176 8.176 0 012.924-.547 8.02 8.02 0 018.033 7.35.965.965 0 001.336.806 4.157 4.157 0 015.757 3.83 4.157 4.157 0 01-4.153 4.154l-14.168-.008a.965.965 0 00-.126 1.924C25.613 33 39.643 33 39.784 33a6.09 6.09 0 006.083-6.084 6.09 6.09 0 00-6.082-6.083zm-33.82 1.543a.965.965 0 00-.965.965v7.728a.965.965 0 001.93 0v-7.727a.965.965 0 00-.965-.966zm3.98-.564a.965.965 0 011.93 0v9.147a.965.965 0 01-1.93 0v-9.147zm6.029-5.061a.965.965 0 00-.966.965v14.286a.965.965 0 001.93 0V17.716a.965.965 0 00-.964-.965zm4.22 1.129a.965.965 0 011.93 0v14.135a.965.965 0 01-1.93 0V17.88z"/></mask><path d="M38.595 20.95l-.979.204.202.97.972-.194-.195-.98zm-3.016-5.31l.678-.735-.678.736zm-10.39-1.963l-.36-.933.36.933zm-.55 1.248l.932-.36-.933.36zm1.248.552l.361.932-.36-.932zm10.957 6.804l-.996.088.996-.088zm.463.742l.516-.857-.516.857zm.873.063l-.388-.922.388.922zm-12.564 7.976l-.022 1h.018l.004-1zm-.977.857l.994.112-.994-.112zm.851 1.067l.112-.994-.112.994zm20.377-6.07h1-1zM38.79 21.93c.324-.064.656-.097.995-.097v-2c-.468 0-.93.046-1.385.136l.39 1.961zm-3.889-5.554a8.98 8.98 0 012.715 4.778l1.958-.409a10.98 10.98 0 00-3.317-5.84L34.9 16.376zM28.811 14c2.265 0 4.427.844 6.09 2.376l1.355-1.47A10.961 10.961 0 0028.811 12v2zm-3.26.609a9.126 9.126 0 013.26-.609v-2c-1.35 0-2.725.257-3.982.744l.722 1.865zm.02-.045a.035.035 0 01-.02.045l-.723-1.865a1.965 1.965 0 00-1.122 2.543l1.865-.723zm-.045-.02a.035.035 0 01.045.02l-1.865.722a1.965 1.965 0 002.543 1.123l-.723-1.865zm3.285-.614a9.175 9.175 0 00-3.285.614l.723 1.865a7.176 7.176 0 012.563-.479v-2zm9.029 8.263a9.02 9.02 0 00-9.029-8.263v2a7.02 7.02 0 017.037 6.439l1.992-.176zm-.017-.027c.01.006.016.016.017.027l-1.992.176c.055.625.406 1.186.943 1.51l1.032-1.713zm-.031-.002a.035.035 0 01.031.002l-1.032 1.713a1.965 1.965 0 001.777.128l-.776-1.843zm1.993-.4c-.688 0-1.36.134-1.993.4l.775 1.843a3.12 3.12 0 011.218-.243v-2zm5.152 5.153a5.157 5.157 0 00-5.152-5.153v2a3.157 3.157 0 013.152 3.153h2zm-5.153 5.153a5.157 5.157 0 005.153-5.153h-2a3.157 3.157 0 01-3.153 3.153v2zm-14.172-.008l14.172.008v-2l-14.164-.008-.008 2zm.02-.031c-.001.015-.016.031-.038.03l.044-1.999a1.963 1.963 0 00-1.993 1.745l1.988.224zm-.03-.039c.02.002.033.02.03.039l-1.987-.224a1.965 1.965 0 001.733 2.173l.224-1.988zM39.784 32c-.07 0-3.613 0-7.153-.002a5341.491 5341.491 0 01-6.955-.01h-.12c-.07-.002-.014-.003.046.004l-.224 1.988a1.957 1.957 0 00.15.007l.135.001.468.003 1.623.003 4.876.004c3.54.002 7.083.002 7.154.002v-2zm5.083-5.084A5.09 5.09 0 0139.784 32v2a7.09 7.09 0 007.083-7.084h-2zm-5.082-5.083a5.09 5.09 0 015.082 5.084h2c0-3.907-3.176-7.084-7.082-7.084v2zM6 23.342a.035.035 0 01-.035.034v-2c-1.085 0-1.965.88-1.965 1.965h2zm0 7.727v-7.727H4v7.727h2zm-.035-.035c.02 0 .035.015.035.035H4c0 1.085.88 1.965 1.965 1.965v-2zm-.034.035c0-.02.015-.035.034-.035v2c1.086 0 1.966-.88 1.966-1.965h-2zm0-7.727v7.727h2v-7.727h-2zm.034.034a.035.035 0 01-.034-.035h2c0-1.085-.88-1.965-1.966-1.965v2zm4.945-3.529c-1.086 0-1.966.88-1.966 1.965h2c0 .02-.015.035-.034.035v-2zm1.965 1.965c0-1.085-.88-1.965-1.965-1.965v2a.035.035 0 01-.035-.035h2zm0 9.147v-9.147h-2v9.147h2zm-1.965 1.966c1.085 0 1.965-.88 1.965-1.966h-2c0-.019.016-.034.035-.034v2zm-1.966-1.966c0 1.086.88 1.966 1.966 1.966v-2c.019 0 .034.015.034.034h-2zm0-9.147v9.147h2v-9.147h-2zm7.064-4.096c0 .02-.015.035-.034.035v-2c-1.086 0-1.966.88-1.966 1.965h2zm0 14.286V17.716h-2v14.286h2zm-.034-.035c.019 0 .034.016.034.035h-2c0 1.085.88 1.965 1.966 1.965v-2zm-.035.035c0-.019.015-.035.035-.035v2c1.085 0 1.965-.88 1.965-1.965h-2zm0-14.286v14.286h2V17.716h-2zm.035.035a.035.035 0 01-.035-.035h2c0-1.085-.88-1.965-1.965-1.965v2zm5.185-1.837c-1.086 0-1.966.88-1.966 1.966h2a.035.035 0 01-.034.035v-2zm1.965 1.966c0-1.086-.88-1.965-1.965-1.965v2a.035.035 0 01-.035-.035h2zm0 14.135V17.88h-2v14.135h2zm-1.965 1.965c1.085 0 1.965-.88 1.965-1.965h-2c0-.02.016-.035.035-.035v2zm-1.966-1.965c0 1.085.88 1.965 1.966 1.965v-2c.019 0 .034.015.034.035h-2zm0-14.135v14.135h2V17.88h-2z" fill="url(#paint1_linear)" mask="url(#a)"/><defs><linearGradient id="paint0_linear" x1="0" y1="28.423" x2="50.755" y2="28.719" gradientUnits="userSpaceOnUse"><stop stop-color="#FEBD2F"/><stop offset=".249" stop-color="#F95721"/><stop offset=".503" stop-color="#FC1370"/><stop offset=".672" stop-color="#BA2DB2"/><stop offset=".776" stop-color="#8342E9"/><stop offset=".964" stop-color="#3F89FC"/></linearGradient><linearGradient id="paint1_linear" x1="5" y1="24.369" x2="46.48" y2="24.865" gradientUnits="userSpaceOnUse"><stop stop-color="#FEBD2F"/><stop offset=".249" stop-color="#F95721"/><stop offset=".503" stop-color="#FC1370"/><stop offset=".672" stop-color="#BA2DB2"/><stop offset=".776" stop-color="#8342E9"/><stop offset=".964" stop-color="#3F89FC"/></linearGradient></defs></svg>