<svg width="181" height="181" fill="none" xmlns="http://www.w3.org/2000/svg"><path d="M90.53 161.811c38.935 0 70.499-31.563 70.499-70.5 0-38.936-31.564-70.5-70.5-70.5s-70.5 31.564-70.5 70.5c0 38.937 31.564 70.5 70.5 70.5z" stroke="url(#paint0_linear)" stroke-width="1.055" stroke-miterlimit="10" stroke-linecap="round" stroke-linejoin="round"/><path d="M177.373 90.127a.528.528 0 00-.746 0l-3.356 3.356a.527.527 0 10.746.746L177 91.246l2.983 2.983a.528.528 0 00.746-.746l-3.356-3.356zm-87.246 86.5a.528.528 0 000 .746l3.356 3.356a.527.527 0 10.746-.746L91.246 177l2.983-2.983a.528.528 0 00-.746-.746l-3.356 3.356zm-86.5-85.754c.206.206.54.206.746 0l3.356-3.356a.527.527 0 00-.746-.746L4 89.754l-2.983-2.983a.527.527 0 10-.746.746l3.356 3.356zm87.246-86.5a.527.527 0 000-.746L87.517.271a.527.527 0 00-.746.746L89.754 4l-2.983 2.983a.528.528 0 00.746.746l3.356-3.356zm85.6 86.127c0 47.481-38.492 85.973-85.973 85.973v1.054c48.064 0 87.027-38.963 87.027-87.027h-1.054zm-171.946 0C4.527 43.019 43.02 4.527 90.5 4.527V3.473C42.436 3.473 3.473 42.436 3.473 90.5h1.054z" fill="url(#paint1_linear)"/><path d="M76.7 80.27c0-2.03.7-3.71 9.38-4.06v8.33c-8.05-.56-9.38-2.24-9.38-4.13v-.14zm26.81 21.98c0 2.17-1.19 4.83-10.64 5.18V97.28c9.31.56 10.64 2.24 10.64 4.69v.28zm-10.64 21v-4.34c26.67 0 31.57-8.68 31.57-17.64v-.98c0-10.22-7.35-14.7-26.46-15.26l-5.11-.21v-8.54c8.4.77 9.31 3.71 9.52 5.81h20.23v-.63c0-8.12-5.67-15.82-29.75-16.17v-4.13h-6.79v4.13c-23.73 0-29.47 7.07-29.47 15.47v.63c0 7.98 5.25 14.91 24.57 15.47l4.9.21v10.22c-8.33-.91-9.73-4.83-9.73-7.56H55.91v.77c0 6.65 2.87 18.06 30.17 18.41v4.34h6.79z" fill="url(#paint2_linear)" fill-opacity=".2"/><path d="M86.08 76.21h1v-1.041l-1.04.042.04.999zm0 8.33l-.07.998 1.07.074V84.54h-1zm6.79 22.89h-1v1.038l1.037-.039-.037-.999zm0-10.15l.06-.998-1.06-.064v1.062h1zm0 25.97v1h1v-1h-1zm0-4.34v-1h-1v1h1zm5.11-33.88l-.041 1h.012l.029-1zm-5.11-.21h-1v.96l.959.04.041-1zm0-8.54l.091-.996-1.091-.1v1.096h1zm9.52 5.81l-.995.1.09.9h.905v-1zm20.23 0v1h1v-1h-1zm-29.75-16.8h-1v.986l.986.014.014-1zm0-4.13h1v-1h-1v1zm-6.79 0v-1h-1v1h1zm0 4.13v1h1v-1h-1zm-4.9 31.57l.043-1h-.014l-.029 1zm4.9.21h1v-.958l-.957-.041-.043.999zm0 10.22l-.109.994 1.109.121v-1.115h-1zm-9.73-7.56h1v-1h-1v1zm-20.44 0v-1h-1v1h1zm30.17 19.18h1v-.987l-.987-.013-.013 1zm0 4.34h-1v1h1v-1zM77.7 80.27c0-.463.043-.778.157-1.032.102-.227.299-.49.773-.759 1.03-.586 3.153-1.095 7.49-1.27l-.08-1.998c-4.343.175-6.91.681-8.4 1.53-.786.448-1.307 1.008-1.607 1.678-.289.643-.333 1.3-.333 1.851h2zm7.38-4.06v8.33h2v-8.33h-2zm1.07 7.332c-4.002-.278-6.163-.83-7.302-1.447-.547-.297-.811-.585-.95-.823-.137-.237-.198-.51-.198-.862h-2c0 .593.105 1.239.468 1.865.363.626.935 1.148 1.726 1.578 1.54.835 4.068 1.403 8.117 1.685l.138-1.996zM77.7 80.41v-.14h-2v.14h2zm24.81 21.84c0 .453-.062.869-.241 1.256-.175.377-.488.786-1.088 1.183-1.242.824-3.673 1.569-8.348 1.742l.074 1.998c4.775-.177 7.665-.937 9.379-2.073.88-.583 1.454-1.267 1.798-2.01.34-.734.426-1.464.426-2.096h-2zm-8.64 5.18V97.28h-2v10.15h2zm-1.06-9.152c4.65.28 7.114.836 8.401 1.521.611.325.904.652 1.062.951.164.31.237.692.237 1.22h2c0-.697-.093-1.444-.469-2.155-.383-.723-1.005-1.31-1.89-1.781-1.706-.908-4.562-1.472-9.221-1.752l-.12 1.996zm9.7 3.692v.28h2v-.28h-2zm-8.64 21.28v-4.34h-2v4.34h2zm-1-3.34c13.402 0 21.555-2.173 26.371-5.649 4.902-3.538 6.199-8.307 6.199-12.991h-2c0 4.276-1.153 8.327-5.369 11.369-4.301 3.104-11.933 5.271-25.201 5.271v2zm32.57-18.64v-.98h-2v.98h2zm0-.98c0-2.674-.481-5.04-1.563-7.085-1.086-2.052-2.744-3.716-4.997-5.031-4.455-2.602-11.287-3.863-20.87-4.144l-.06 2c9.527.279 15.925 1.538 19.922 3.871 1.974 1.153 3.348 2.56 4.237 4.24.893 1.687 1.331 3.713 1.331 6.149h2zM98.021 84.03l-5.11-.21-.082 2 5.11.21.082-2zm-4.151.79v-8.54h-2v8.54h2zm-1.091-7.544c4.118.377 6.205 1.275 7.28 2.176 1.018.855 1.243 1.81 1.336 2.737l1.99-.198c-.117-1.173-.452-2.738-2.041-4.07-1.533-1.287-4.101-2.244-8.383-2.637l-.182 1.992zm9.611 5.814h20.23v-2h-20.23v2zm21.23-1v-.63h-2v.63h2zm0-.63c0-4.335-1.538-8.628-6.286-11.828-4.667-3.145-12.339-5.166-24.45-5.342l-.028 2c11.969.174 19.172 2.178 23.36 5 4.107 2.768 5.404 6.385 5.404 10.17h2zM93.87 65.29v-4.13h-2v4.13h2zm-1-5.13h-6.79v2h6.79v-2zm-7.79 1v4.13h2v-4.13h-2zm1 3.13c-11.925 0-19.528 1.77-24.173 4.743-4.74 3.035-6.297 7.254-6.297 11.727h2c0-3.927 1.314-7.443 5.375-10.043 4.158-2.661 11.29-4.427 23.095-4.427v-2zM55.61 80.76v.63h2v-.63h-2zm0 .63c0 4.236 1.41 8.29 5.44 11.317 3.968 2.98 10.355 4.87 20.101 5.153l.058-2c-9.574-.277-15.472-2.133-18.958-4.752-3.427-2.574-4.641-5.974-4.641-9.718h-2zm25.527 16.47l4.9.21.086-2-4.9-.21-.086 2zm3.943-.79v10.22h2V97.07h-2zm1.109 9.226c-4.03-.44-6.207-1.59-7.38-2.8-1.158-1.194-1.459-2.575-1.459-3.766h-2c0 1.539.399 3.483 2.023 5.159 1.61 1.66 4.298 2.925 8.598 3.395l.218-1.988zM76.35 98.73H55.91v2h20.44v-2zm-21.44 1v.77h2v-.77h-2zm0 .77c0 3.472.754 8.318 5.178 12.31 4.389 3.962 12.22 6.924 25.98 7.1l.025-2c-13.54-.174-20.795-3.092-24.666-6.585-3.836-3.463-4.517-7.647-4.517-10.825h-2zm30.17 18.41v4.34h2v-4.34h-2zm1 5.34h6.79v-2h-6.79v2z" fill="url(#paint3_linear)"/><defs><linearGradient id="paint0_linear" x1="20.029" y1="100.963" x2="163.157" y2="101.8" gradientUnits="userSpaceOnUse"><stop stop-color="#FEBD2F"/><stop offset=".249" stop-color="#F95721"/><stop offset=".503" stop-color="#FC1370"/><stop offset=".672" stop-color="#BA2DB2"/><stop offset=".776" stop-color="#8342E9"/><stop offset=".964" stop-color="#3F89FC"/></linearGradient><linearGradient id="paint1_linear" x1="4" y1="102.342" x2="179.611" y2="103.369" gradientUnits="userSpaceOnUse"><stop stop-color="#FEBD2F"/><stop offset=".249" stop-color="#F95721"/><stop offset=".503" stop-color="#FC1370"/><stop offset=".672" stop-color="#BA2DB2"/><stop offset=".776" stop-color="#8342E9"/><stop offset=".964" stop-color="#3F89FC"/></linearGradient><linearGradient id="paint2_linear" x1="55" y1="93.054" x2="127.06" y2="94.051" gradientUnits="userSpaceOnUse"><stop stop-color="#FEBD2F"/><stop offset=".249" stop-color="#F95721"/><stop offset=".503" stop-color="#FC1370"/><stop offset=".672" stop-color="#BA2DB2"/><stop offset=".776" stop-color="#8342E9"/><stop offset=".964" stop-color="#3F89FC"/></linearGradient><linearGradient id="paint3_linear" x1="55" y1="93.054" x2="127.06" y2="94.051" gradientUnits="userSpaceOnUse"><stop stop-color="#FEBD2F"/><stop offset=".249" stop-color="#F95721"/><stop offset=".503" stop-color="#FC1370"/><stop offset=".672" stop-color="#BA2DB2"/><stop offset=".776" stop-color="#8342E9"/><stop offset=".964" stop-color="#3F89FC"/></linearGradient></defs></svg>