<svg width="141" height="141" fill="none" xmlns="http://www.w3.org/2000/svg"><circle cx="70.5" cy="70.5" r="70" stroke="url(#paint0_linear)"/><path d="M48.335 61v-9.625H39.13v3.08H23.52c0-.735.98-1.925 6.965-2.94l5.6-.945c9.38-1.505 11.865-3.535 11.865-7.875v-.14c0-4.27-2.555-8.085-15.68-8.085h-1.505c-14.175 0-15.47 6.195-15.47 9.485v.245h10.15c.105-1.015.385-3.395 6.37-3.395 4.935 0 5.705.805 5.705 1.715 0 .805-.35 1.295-3.64 1.96-1.365.245-3.395.63-5.04 1.015-13.545 2.94-13.965 8.925-13.965 12.46V61h33.46zm1.496-10.605v5.635h19.215V61h9.905v-4.97h5.425v-6.72h-5.425V34.82h-10.92l-18.2 15.575zm19.215-1.085h-9.1l9.1-7.77v7.77z" fill="url(#paint1_linear)" fill-opacity=".2"/><path d="M48.335 61v1h1v-1h-1zm0-9.625h1v-1h-1v1zm-9.205 0v-1h-1v1h1zm0 3.08v1h1v-1h-1zm-15.61 0h-1v1h1v-1zm6.965-2.94l-.166-.986h-.001l.167.986zm5.6-.945l-.158-.987h-.008l.166.987zm-20.79-6.37h-1v1h1v-1zm10.15 0v1h.902l.093-.897-.995-.103zm8.435.28l.177.984.01-.002.011-.002-.198-.98zm-5.04 1.015l.212.977.008-.002.008-.001-.228-.974zM14.875 61h-1v1h1v-1zm34.46 0v-9.625h-2V61h2zm-1-10.625H39.13v2h9.205v-2zm-10.205 1v3.08h2v-3.08h-2zm1 2.08H23.52v2h15.61v-2zm-14.61 1c0 .187-.163-.03.7-.478.853-.443 2.472-.974 5.432-1.476l-.334-1.972c-3.024.513-4.888 1.085-6.021 1.674-1.124.584-1.777 1.33-1.777 2.252h2zm6.131-1.954l5.6-.945-.332-1.972-5.6.945.332 1.972zm5.592-.944c4.696-.753 7.864-1.66 9.86-3.038 1.026-.708 1.757-1.549 2.22-2.556.46-.996.627-2.091.627-3.268h-2c0 .993-.143 1.78-.443 2.431-.295.642-.772 1.216-1.54 1.747-1.592 1.098-4.356 1.958-9.04 2.71l.316 1.974zm12.707-8.862v-.14h-2v.14h2zm0-.14c0-2.374-.735-4.76-3.372-6.481-2.529-1.65-6.692-2.604-13.308-2.604v2c6.51 0 10.186.954 12.215 2.279 1.923 1.254 2.465 2.91 2.465 4.806h2zM32.27 33.47h-1.505v2h1.505v-2zm-1.505 0c-7.206 0-11.373 1.57-13.734 3.778-2.385 2.231-2.736 4.933-2.736 6.707h2c0-1.516.296-3.556 2.102-5.246 1.831-1.712 5.399-3.239 12.368-3.239v-2zm-16.47 10.485v.245h2v-.245h-2zm1 1.245h10.15v-2h-10.15v2zm11.145-.897c.048-.465.116-.97.64-1.426.566-.49 1.841-1.072 4.735-1.072v-2c-3.091 0-4.948.609-6.046 1.562-1.138.988-1.262 2.18-1.319 2.73l1.99.206zm5.375-2.498c2.454 0 3.718.206 4.34.448.294.114.36.205.361.207.002.001 0 0 0-.002l-.001-.002c0 .002.005.02.005.064h2c0-.377-.083-.824-.391-1.244-.298-.405-.732-.686-1.248-.887-.996-.387-2.585-.584-5.066-.584v2zm4.705.715c0 .136-.017.138-.002.107.02-.04.027-.01-.108.073-.328.202-1.073.465-2.728.8l.396 1.96c1.635-.33 2.71-.645 3.379-1.055.364-.224.664-.508.852-.888.184-.37.211-.73.211-.997h-2zm-2.817.976c-1.37.246-3.42.634-5.09 1.025l.455 1.948c1.619-.38 3.628-.76 4.989-1.005l-.354-1.968zm-5.075 1.022c-6.888 1.495-10.639 3.805-12.638 6.369-2.014 2.582-2.115 5.253-2.115 7.068h2c0-1.72.11-3.809 1.692-5.838 1.596-2.047 4.828-4.2 11.485-5.645l-.424-1.954zM13.875 57.955V61h2v-3.045h-2zm1 4.045h33.46v-2h-33.46v2zm34.956-11.605l-.65-.76-.35.3v.46h1zm0 5.635h-1v1h1v-1zm19.215 0h1v-1h-1v1zm0 4.97h-1v1h1v-1zm9.905 0v1h1v-1h-1zm0-4.97v-1h-1v1h1zm5.425 0v1h1v-1h-1zm0-6.72h1v-1h-1v1zm-5.425 0h-1v1h1v-1zm0-14.49h1v-1h-1v1zm-10.92 0v-1h-.37l-.28.24.65.76zm1.015 14.49v1h1v-1h-1zm-9.1 0l-.65-.76-2.061 1.76h2.711v-1zm9.1-7.77h1v-2.169l-1.65 1.408.65.761zm-20.215 8.855v5.635h2v-5.635h-2zm1 6.635h19.215v-2H49.831v2zm18.215-1V61h2v-4.97h-2zm1 5.97h9.905v-2h-9.905v2zm10.905-1v-4.97h-2V61h2zm-1-3.97h5.425v-2h-5.425v2zm6.425-1v-6.72h-2v6.72h2zm-1-7.72h-5.425v2h5.425v-2zm-4.425 1V34.82h-2v14.49h2zm-1-15.49h-10.92v2h10.92v-2zm-11.57.24l-18.2 15.575 1.3 1.52 18.2-15.575-1.3-1.52zm1.665 14.25h-9.1v2h9.1v-2zm-8.45 1.76l9.1-7.77-1.3-1.52-9.1 7.77 1.3 1.52zm7.45-8.53v7.77h2v-7.77h-2z" fill="url(#paint2_linear)"/><path d="M83.085 77.96v11.55h9.625v-5.04h13.615c-.105.595-2.24 2.275-5.88 5.495-5.145 4.655-6.44 7.175-6.44 10.92V104h11.13v-.21c0-4.2.525-7.49 4.27-12.53 2.555-3.5 5.11-6.16 6.23-7.455V77.96h-32.55z" fill="url(#paint3_linear)" fill-opacity=".2"/><path d="M83.085 77.96v-1h-1v1h1zm0 11.55h-1v1h1v-1zm9.625 0v1h1v-1h-1zm0-5.04v-1h-1v1h1zm13.615 0l.985.174.207-1.174h-1.192v1zm-5.88 5.495l-.663-.749-.008.008.671.741zM94.005 104h-1v1h1v-1zm11.13 0v1h1v-1h-1zm4.27-12.74l.803.596.005-.006-.808-.59zm6.23-7.455l.756.654.244-.282v-.372h-1zm0-5.845h1v-1h-1v1zm-33.55 0v11.55h2V77.96h-2zm1 12.55h9.625v-2h-9.625v2zm10.625-1v-5.04h-2v5.04h2zm-1-4.04h13.615v-2H92.71v2zm12.63-1.174c.025-.14.079-.192.029-.12-.037.053-.107.14-.227.269-.239.256-.6.597-1.098 1.043-1.014.907-2.405 2.086-4.262 3.728l1.326 1.498c1.784-1.578 3.279-2.85 4.27-3.736.503-.45.923-.843 1.227-1.17a4.4 4.4 0 00.409-.494 1.73 1.73 0 00.296-.67l-1.97-.348zm-5.566 4.927c-2.594 2.347-4.298 4.226-5.345 6.044-1.07 1.86-1.424 3.605-1.424 5.618h2c0-1.732.294-3.12 1.157-4.62.887-1.541 2.403-3.25 4.954-5.558l-1.342-1.483zm-6.769 11.662V104h2v-3.115h-2zm1 4.115h11.13v-2h-11.13v2zm12.13-1v-.21h-2v.21h2zm0-.21c0-2.059.13-3.819.688-5.66.557-1.84 1.562-3.82 3.385-6.274l-1.606-1.192c-1.922 2.587-3.052 4.771-3.693 6.886-.641 2.114-.774 4.099-.774 6.24h2zm4.078-11.94c2.522-3.456 5.019-6.05 6.178-7.39l-1.512-1.31c-1.081 1.25-3.694 3.976-6.282 7.52l1.616 1.18zm6.422-8.045V77.96h-2v5.845h2zm-1-6.845h-32.55v2h32.55v-2z" fill="url(#paint4_linear)"/><path d="M42 107.5L116.5 33" stroke="url(#paint5_linear)" stroke-width="3"/><defs><linearGradient id="paint0_linear" x1="0" y1="80.152" x2="143.128" y2="80.989" gradientUnits="userSpaceOnUse"><stop stop-color="#FEBD2F"/><stop offset=".249" stop-color="#F95721"/><stop offset=".503" stop-color="#FC1370"/><stop offset=".672" stop-color="#BA2DB2"/><stop offset=".776" stop-color="#8342E9"/><stop offset=".964" stop-color="#3F89FC"/></linearGradient><linearGradient id="paint1_linear" x1="14" y1="50.054" x2="86.06" y2="51.051" gradientUnits="userSpaceOnUse"><stop stop-color="#FEBD2F"/><stop offset=".249" stop-color="#F95721"/><stop offset=".503" stop-color="#FC1370"/><stop offset=".672" stop-color="#BA2DB2"/><stop offset=".776" stop-color="#8342E9"/><stop offset=".964" stop-color="#3F89FC"/></linearGradient><linearGradient id="paint2_linear" x1="14" y1="50.054" x2="86.06" y2="51.051" gradientUnits="userSpaceOnUse"><stop stop-color="#FEBD2F"/><stop offset=".249" stop-color="#F95721"/><stop offset=".503" stop-color="#FC1370"/><stop offset=".672" stop-color="#BA2DB2"/><stop offset=".776" stop-color="#8342E9"/><stop offset=".964" stop-color="#3F89FC"/></linearGradient><linearGradient id="paint3_linear" x1="82" y1="93.054" x2="117.528" y2="93.296" gradientUnits="userSpaceOnUse"><stop stop-color="#FEBD2F"/><stop offset=".249" stop-color="#F95721"/><stop offset=".503" stop-color="#FC1370"/><stop offset=".672" stop-color="#BA2DB2"/><stop offset=".776" stop-color="#8342E9"/><stop offset=".964" stop-color="#3F89FC"/></linearGradient><linearGradient id="paint4_linear" x1="82" y1="93.054" x2="117.528" y2="93.296" gradientUnits="userSpaceOnUse"><stop stop-color="#FEBD2F"/><stop offset=".249" stop-color="#F95721"/><stop offset=".503" stop-color="#FC1370"/><stop offset=".672" stop-color="#BA2DB2"/><stop offset=".776" stop-color="#8342E9"/><stop offset=".964" stop-color="#3F89FC"/></linearGradient><linearGradient id="paint5_linear" x1="42" y1="75.35" x2="117.624" y2="75.792" gradientUnits="userSpaceOnUse"><stop stop-color="#FEBD2F"/><stop offset=".249" stop-color="#F95721"/><stop offset=".503" stop-color="#FC1370"/><stop offset=".672" stop-color="#BA2DB2"/><stop offset=".776" stop-color="#8342E9"/><stop offset=".964" stop-color="#3F89FC"/></linearGradient></defs></svg>