<svg width="471" height="832" fill="none" xmlns="http://www.w3.org/2000/svg"><path d="M350.706 255.625h.322a.327.327 0 00-.046-.166l-.276.166zm-81.773 72.071l-.209.244a.319.319 0 00.302.064.32.32 0 00.217-.22l-.31-.088zm81.773-47.123l.278.162.044-.075v-.087h-.322zm-91.474 38.807h-.323v.148l.113.097.21-.245zm0-22.176l-.31-.088-.013.043v.045h.323zm83.158-55.437l.276-.166a.321.321 0 00-.554.004l.278.162zm-73.147 62.456c.868-3.038 6.417-9.468 21.866-9.468v-.645c-15.597 0-21.506 6.506-22.485 9.936l.619.177zm21.866-9.468c7.836 0 12.1-2.454 14.566-5.67 2.442-3.186 3.08-7.084 3.764-9.82l-.625-.157c-.702 2.809-1.311 6.533-3.651 9.584-2.315 3.021-6.367 5.418-14.054 5.418v.645zm18.33-15.49c.695-2.782 1.791-6.937 4.198-9.852 1.197-1.45 2.71-2.582 4.653-3.09 1.945-.508 4.355-.399 7.358.693l.22-.606c-3.095-1.125-5.64-1.259-7.74-.711-2.102.549-3.725 1.773-4.988 3.303-2.513 3.045-3.635 7.344-4.326 10.106l.625.157zm16.209-12.249c6.211 2.258 11.742.842 16.113-1.83 4.362-2.666 7.585-6.59 9.223-9.398l-.557-.325c-1.595 2.735-4.748 6.573-9.002 9.173-4.245 2.595-9.571 3.951-15.557 1.774l-.22.606zm-56.405 60.768c.428-1.498 2.005-3.517 5.443-5.168 3.432-1.648 8.694-2.914 16.423-2.914v-.644c-7.794 0-13.158 1.275-16.702 2.977-3.538 1.698-5.288 3.836-5.783 5.572l.619.177zm21.866-8.082c7.836 0 12.1-2.453 14.566-5.67 2.442-3.185 3.08-7.084 3.764-9.82l-.625-.156c-.702 2.808-1.311 6.533-3.651 9.584-2.315 3.021-6.367 5.418-14.054 5.418v.644zm18.33-15.49c.695-2.781 1.791-6.936 4.198-9.852 1.197-1.449 2.71-2.582 4.653-3.089 1.945-.508 4.355-.4 7.358.692l.22-.605c-3.095-1.126-5.64-1.26-7.74-.711-2.102.549-3.725 1.773-4.988 3.303-2.513 3.044-3.635 7.343-4.326 10.106l.625.156zm16.209-12.249c6.211 2.259 11.742.842 16.113-1.829 4.362-2.667 7.585-6.59 9.223-9.399l-.557-.324c-1.595 2.735-4.748 6.573-9.002 9.173-4.245 2.595-9.571 3.95-15.557 1.774l-.22.605zm-57.037 12.171v23.562h.645v-23.562h-.645zm81.772-48.509v24.948h.645v-24.948h-.645zm-81.24 71.826l-9.702-8.316-.419.49 9.702 8.315.419-.489zm-9.589-8.071v-22.176h-.645v22.176h.645zm-.51-21.913l9.702 6.929.375-.524-9.702-6.93-.375.525zm.497-.174c.868-3.038 6.417-9.467 21.866-9.467v-.644c-15.596 0-21.505 6.504-22.485 9.934l.619.177zm21.866-9.467c7.836 0 12.1-2.453 14.566-5.67 2.442-3.185 3.08-7.084 3.764-9.819l-.625-.157c-.702 2.809-1.311 6.533-3.65 9.584-2.316 3.021-6.368 5.418-14.055 5.418v.644zm18.33-15.489c.696-2.782 1.791-6.937 4.198-9.852 1.197-1.45 2.71-2.582 4.654-3.09 1.945-.508 4.354-.4 7.357.693l.221-.606c-3.095-1.126-5.641-1.259-7.741-.711-2.102.549-3.724 1.773-4.988 3.303-2.513 3.045-3.635 7.344-4.326 10.106l.625.157zm16.209-12.249c6.277 2.282 12.18-.947 16.859-5.335 4.689-4.398 8.242-10.044 9.863-12.824l-.556-.324c-1.613 2.764-5.128 8.345-9.748 12.678-4.631 4.344-10.278 7.351-16.197 5.199l-.221.606zm26.168-18.155l8.315 13.858.553-.332-8.316-13.858-.552.332z" fill="url(#paint0_linear)"/><path d="M392.739 645.295l.273.171a.318.318 0 00.049-.165l-.322-.006zm-134.462 21.998l-.307.096a.32.32 0 00.222.215.324.324 0 00.301-.071l-.216-.24zm117.89 4.419l.15.285.077-.04.046-.074-.273-.171zm-122.639-19.669l-.273-.171-.079.126.044.141.308-.096zm14.73-23.482l-.216-.239-.033.03-.024.038.273.171zm124.88-3.464l.323.006a.324.324 0 00-.472-.292l.149.286zm-118.995 17.486c2.976-2.674 13.165-5.781 29.54 4.491l.342-.546c-16.499-10.351-27.034-7.371-30.312-4.424l.43.479zm29.54 4.491c8.282 5.195 14.4 5.421 19.119 3.664 4.682-1.744 7.933-5.432 10.481-7.881l-.446-.464c-2.602 2.501-5.736 6.056-10.26 7.741-4.487 1.671-10.396 1.51-18.552-3.606l-.342.546zm29.6-4.217c2.582-2.481 6.515-6.167 11.02-7.662 2.242-.744 4.614-.941 7.029-.181 2.417.76 4.908 2.487 7.371 5.648l.508-.396c-2.522-3.238-5.116-5.059-7.685-5.867-2.571-.808-5.084-.593-7.426.184-4.664 1.548-8.695 5.341-11.263 7.81l.446.464zm25.42-2.195c5.058 6.494 11.83 8.661 18.214 8.735 6.375.074 12.38-1.936 15.971-3.817l-.299-.571c-3.516 1.842-9.416 3.816-15.664 3.743-6.238-.072-12.803-2.182-17.714-8.486l-.508.396zm-100.21 26.871c1.471-1.323 4.508-2.415 9.259-1.878 4.745.537 11.168 2.697 19.359 7.836l.343-.546c-8.246-5.173-14.762-7.38-19.629-7.93-4.861-.55-8.108.551-9.763 2.039l.431.479zm28.618 5.958c8.282 5.195 14.401 5.421 19.12 3.664 4.682-1.744 7.933-5.431 10.481-7.88l-.447-.465c-2.602 2.501-5.735 6.056-10.259 7.741-4.488 1.671-10.397 1.51-18.552-3.606l-.343.546zm29.601-4.216c2.582-2.482 6.515-6.168 11.019-7.663 2.243-.744 4.615-.94 7.03-.181 2.416.76 4.908 2.487 7.37 5.648l.509-.396c-2.522-3.238-5.116-5.059-7.686-5.867-2.57-.808-5.084-.593-7.426.184-4.663 1.548-8.695 5.342-11.263 7.81l.447.465zm25.419-2.196c5.059 6.494 11.83 8.661 18.215 8.735 6.374.074 12.38-1.936 15.971-3.817l-.299-.571c-3.516 1.842-9.417 3.816-15.665 3.743-6.237-.072-12.803-2.182-17.713-8.486l-.509.396zm-68.476-24.906l-15.651 24.949.546.343 15.651-24.95-.546-.342zm118.811 2.951l-16.572 26.417.546.342 16.572-26.417-.546-.342zm-133.881 22.073l-4.75-15.25-.615.192 4.75 15.25.615-.192zm-4.784-14.983l14.73-23.481-.546-.343-14.73 23.482.546.342zm14.159-23.53l5.67 13.782.596-.245-5.67-13.782-.596.245zm.513.117c2.975-2.674 13.164-5.78 29.539 4.492l.342-.546c-16.499-10.35-27.034-7.372-30.312-4.425l.431.479zm29.539 4.492c8.281 5.195 14.4 5.421 19.119 3.664 4.682-1.744 7.933-5.431 10.481-7.88l-.447-.465c-2.602 2.501-5.735 6.057-10.259 7.741-4.487 1.671-10.396 1.51-18.552-3.606l-.342.546zm29.6-4.216c2.582-2.482 6.515-6.168 11.02-7.663 2.242-.744 4.614-.94 7.029-.181 2.416.76 4.908 2.487 7.37 5.648l.509-.396c-2.522-3.237-5.116-5.058-7.685-5.866-2.571-.809-5.084-.593-7.426.184-4.664 1.547-8.695 5.341-11.264 7.809l.447.465zm25.419-2.196c5.102 6.55 13.456 7.058 21.316 5.52 7.875-1.54 15.38-5.154 18.941-7.019l-.299-.571c-3.546 1.857-10.983 5.436-18.766 6.958-7.797 1.525-15.816.965-20.683-5.284l-.509.396zm39.785-1.791l-.399 20.198.644.013.4-20.198-.645-.013z" fill="url(#paint1_linear)"/><path d="M261.498 537.893l.455.285a.542.542 0 00.082-.275l-.537-.01zm-107.57 17.599l-.512.159a.535.535 0 00.871.24l-.359-.399zm94.312 3.534l.25.476.128-.067.077-.123-.455-.286zm-98.111-15.734l-.455-.286-.132.209.074.236.513-.159zm11.784-18.786l-.359-.399-.056.05-.04.064.455.285zm99.904-2.772l.537.011a.538.538 0 00-.786-.487l.249.476zm-95.009 14.197c2.249-2.021 10.251-4.562 23.296 3.621l.571-.91c-13.254-8.314-21.831-5.985-24.585-3.509l.718.798zm23.296 3.621c6.681 4.191 11.667 4.4 15.542 2.957 3.814-1.421 6.465-4.428 8.481-6.365l-.745-.774c-2.105 2.023-4.561 4.81-8.111 6.132-3.49 1.3-8.126 1.199-14.596-2.86l-.571.91zm24.023-3.408c2.071-1.991 5.175-4.893 8.71-6.066 1.751-.581 3.587-.73 5.452-.144 1.866.588 3.815 1.929 5.759 4.424l.848-.66c-2.044-2.623-4.163-4.121-6.285-4.788-2.124-.668-4.196-.487-6.112.149-3.8 1.26-7.068 4.342-9.117 6.311l.745.774zm19.921-1.786c4.111 5.277 9.618 7.036 14.789 7.096 5.155.059 10.004-1.564 12.91-3.086l-.499-.951c-2.78 1.456-7.455 3.02-12.398 2.963-4.927-.058-10.09-1.721-13.954-6.682l-.848.66zm-79.761 21.533c1.098-.987 3.436-1.857 7.19-1.433 3.742.424 8.841 2.132 15.37 6.228l.571-.91c-6.621-4.153-11.873-5.938-15.82-6.385-3.936-.445-6.625.439-8.029 1.701l.718.799zm22.56 4.795c6.68 4.19 11.666 4.399 15.542 2.956 3.814-1.42 6.465-4.427 8.481-6.364l-.745-.775c-2.105 2.024-4.561 4.811-8.111 6.133-3.49 1.299-8.126 1.199-14.596-2.86l-.571.91zm24.023-3.408c2.071-1.991 5.175-4.893 8.71-6.066 1.751-.581 3.587-.73 5.452-.144 1.866.587 3.815 1.928 5.759 4.424l.848-.66c-2.044-2.624-4.163-4.121-6.285-4.788-2.124-.668-4.196-.488-6.113.148-3.8 1.261-7.067 4.343-9.116 6.311l.745.775zm19.921-1.786c4.111 5.277 9.618 7.035 14.789 7.095 5.154.06 10.004-1.563 12.91-3.085l-.499-.951c-2.78 1.456-7.455 3.02-12.398 2.962-4.927-.057-10.09-1.72-13.954-6.681l-.848.66zm-54.797-20.245l-12.521 19.959.91.571 12.521-19.96-.91-.57zm95.049 2.36l-13.258 21.134.91.571 13.258-21.134-.91-.571zm-106.602 17.725l-3.8-12.2-1.025.319 3.8 12.2 1.025-.319zm-3.857-11.755l11.784-18.785-.91-.571-11.784 18.785.91.571zm10.832-18.867l4.536 11.026.994-.408-4.537-11.026-.993.408zm.856.196c2.249-2.022 10.25-4.562 23.295 3.622l.571-.91c-13.253-8.314-21.831-5.987-24.584-3.511l.718.799zm23.295 3.622c6.681 4.19 11.667 4.399 15.542 2.956 3.814-1.42 6.465-4.427 8.481-6.364l-.745-.775c-2.105 2.023-4.561 4.811-8.111 6.133-3.49 1.299-8.126 1.198-14.596-2.86l-.571.91zm24.023-3.408c2.071-1.991 5.175-4.894 8.71-6.067 1.751-.581 3.587-.729 5.452-.143 1.866.587 3.815 1.928 5.759 4.424l.848-.66c-2.044-2.624-4.163-4.121-6.285-4.789-2.124-.668-4.196-.487-6.112.149-3.8 1.261-7.068 4.342-9.117 6.311l.745.775zm19.921-1.786c4.183 5.369 11.011 5.753 17.327 4.518 6.341-1.24 12.373-4.146 15.228-5.642l-.498-.952c-2.83 1.482-8.751 4.33-14.936 5.54-6.21 1.215-12.481.745-16.273-4.124l-.848.66zm31.769-1.61l-.319 16.158 1.074.021.319-16.158-1.074-.021z" fill="url(#paint2_linear)"/><path d="M116.788 393.183l.273.171a.318.318 0 00.049-.165l-.322-.006zM9.218 410.782l-.307.096a.321.321 0 00.523.143l-.215-.239zm94.313 3.535l.149.285.077-.04.047-.074-.273-.171zM5.419 398.582l-.273-.171-.079.125.044.142.308-.096zm11.784-18.786l-.215-.239-.034.03-.024.038.273.171zm99.905-2.772l.322.007a.324.324 0 00-.472-.292l.15.285zm-95.153 14.038c2.35-2.113 10.467-4.611 23.554 3.599l.342-.546c-13.212-8.288-21.674-5.917-24.327-3.532l.43.479zm23.554 3.599c6.638 4.164 11.554 4.351 15.352 2.937 3.762-1.401 6.374-4.364 8.407-6.318l-.447-.465c-2.087 2.006-4.582 4.837-8.185 6.179-3.567 1.328-8.273 1.206-14.785-2.879l-.342.546zm23.76-3.381c2.066-1.987 5.202-4.925 8.79-6.116 1.785-.592 3.668-.747 5.584-.144 1.918.603 3.901 1.975 5.865 4.497l.509-.397c-2.024-2.597-4.11-4.064-6.18-4.715-2.072-.652-4.097-.477-5.98.148-3.748 1.243-6.982 4.289-9.035 6.262l.446.465zm20.24-1.763c4.06 5.213 9.499 6.953 14.621 7.012 5.112.059 9.927-1.552 12.807-3.061l-.299-.57c-2.805 1.469-7.515 3.044-12.501 2.987-4.975-.058-10.207-1.74-14.12-6.765l-.509.397zM9.433 411.021c1.159-1.041 3.567-1.914 7.357-1.486 3.784.428 8.913 2.152 15.46 6.259l.343-.546c-6.602-4.141-11.824-5.911-15.73-6.353-3.9-.441-6.518.44-7.86 1.647l.43.479zm22.818 4.773c6.638 4.164 11.554 4.352 15.352 2.937 3.761-1.4 6.374-4.364 8.407-6.318l-.447-.464c-2.087 2.006-4.582 4.837-8.185 6.179-3.567 1.328-8.273 1.205-14.785-2.88l-.342.546zm23.759-3.381c2.067-1.986 5.203-4.924 8.791-6.115 1.784-.592 3.668-.747 5.584-.144 1.918.603 3.901 1.975 5.865 4.496l.508-.396c-2.023-2.598-4.108-4.064-6.18-4.715-2.071-.652-4.096-.478-5.98.147-3.747 1.244-6.982 4.289-9.035 6.263l.447.464zm20.24-1.763c4.061 5.214 9.5 6.953 14.622 7.013 5.112.059 9.927-1.552 12.807-3.061l-.299-.571c-2.805 1.47-7.515 3.045-12.5 2.987-4.976-.057-10.208-1.739-14.122-6.764l-.508.396zm-54.785-19.999l-12.52 19.96.546.342 12.52-19.96-.546-.342zm95.049 2.361l-13.257 21.133.546.343 13.257-21.134-.546-.342zM9.526 410.686l-3.8-12.2-.615.192 3.8 12.2.615-.192zm-3.834-11.933l11.784-18.785-.546-.343-11.784 18.786.546.342zm11.213-18.834l4.536 11.026.596-.245-4.536-11.026-.596.245zm.514.117c2.35-2.112 10.465-4.61 23.553 3.6l.342-.546c-13.212-8.288-21.674-5.918-24.326-3.533l.43.479zm23.553 3.6c6.638 4.164 11.554 4.351 15.352 2.937 3.762-1.4 6.374-4.364 8.407-6.318l-.447-.465c-2.087 2.006-4.582 4.838-8.185 6.179-3.567 1.328-8.273 1.206-14.785-2.879l-.342.546zm23.76-3.381c2.066-1.987 5.203-4.925 8.79-6.115 1.784-.592 3.668-.747 5.584-.145 1.918.603 3.901 1.976 5.865 4.497l.509-.396c-2.024-2.598-4.11-4.064-6.18-4.715-2.072-.652-4.097-.478-5.98.147-3.747 1.244-6.982 4.289-9.035 6.262l.446.465zm20.24-1.763c4.104 5.269 10.82 5.671 17.115 4.439 6.31-1.234 12.319-4.128 15.17-5.621l-.299-.571c-2.835 1.485-8.778 4.344-14.995 5.56-6.231 1.219-12.613.766-16.483-4.203l-.509.396zm31.813-1.474l-.319 16.159.644.012.32-16.158-.645-.013z" fill="url(#paint3_linear)"/><path d="M263.794 18.323h.323a.323.323 0 00-.046-.166l-.277.166zM161.579 108.41l-.21.245a.323.323 0 00.52-.157l-.31-.088zm102.215-58.904l.279.163.044-.076v-.087h-.323zm-114.342 48.51h-.322v.147l.112.097.21-.245zm0-27.72l-.31-.089-.012.043v.046h.322zM253.4 1l.276-.166a.322.322 0 00-.555.004L253.4 1zm-91.511 78.047c1.099-3.846 8.08-11.893 27.409-11.893v-.645c-19.477 0-26.818 8.123-28.029 12.361l.62.177zm27.409-11.893c9.777 0 15.08-3.06 18.144-7.056 3.04-3.965 3.834-8.817 4.691-12.245l-.625-.157c-.875 3.502-1.641 8.179-4.578 12.01-2.913 3.8-8.004 6.803-17.632 6.803v.645zm22.835-19.301c.869-3.475 2.241-8.687 5.263-12.347 1.505-1.822 3.41-3.25 5.859-3.89 2.451-.64 5.479-.5 9.245.87l.22-.607c-3.857-1.402-7.022-1.566-9.628-.886-2.607.681-4.622 2.2-6.193 4.102-3.128 3.79-4.527 9.145-5.391 12.601l.625.157zM232.5 32.485c7.736 2.813 14.624 1.05 20.072-2.28 5.439-3.325 9.458-8.218 11.501-11.72l-.557-.325c-2 3.429-5.95 8.237-11.281 11.495-5.322 3.253-12.005 4.955-19.515 2.224l-.22.606zM161.889 108.5c.543-1.902 2.536-4.441 6.846-6.511 4.304-2.067 10.894-3.65 20.563-3.65v-.644c-9.734 0-16.426 1.593-20.842 3.713-4.41 2.117-6.575 4.775-7.187 6.915l.62.177zm27.409-10.16c9.777 0 15.08-3.06 18.144-7.057 3.04-3.965 3.834-8.816 4.691-12.245l-.625-.156c-.875 3.501-1.641 8.178-4.578 12.01-2.913 3.8-8.004 6.803-17.632 6.803v.644zm22.835-19.302c.869-3.474 2.241-8.687 5.263-12.347 1.505-1.822 3.41-3.249 5.859-3.889 2.451-.64 5.479-.5 9.245.869l.22-.606c-3.857-1.403-7.022-1.567-9.628-.886-2.607.681-4.622 2.2-6.193 4.102-3.128 3.79-4.527 9.145-5.391 12.6l.625.157zM232.5 63.67c7.736 2.813 14.624 1.05 20.072-2.28 5.439-3.325 9.458-8.219 11.501-11.72l-.557-.325c-2 3.428-5.95 8.236-11.281 11.495-5.322 3.253-12.005 4.955-19.515 2.224l-.22.606zm-71.243 15.289v29.452h.644V78.959h-.644zm102.215-60.636v31.184h.645V18.323h-.645zm-101.683 89.843l-12.128-10.395-.419.49 12.127 10.395.42-.49zm-12.015-10.15v-27.72h-.644v27.72h.644zm-.51-27.457l12.128 8.662.374-.524-12.127-8.663-.375.525zm.498-.174c1.099-3.846 8.079-11.891 27.409-11.891v-.645c-19.477 0-26.818 8.12-28.029 12.36l.62.176zm27.409-11.891c9.777 0 15.08-3.06 18.144-7.056 3.04-3.966 3.834-8.817 4.691-12.246l-.625-.156c-.876 3.501-1.641 8.179-4.578 12.01-2.913 3.8-8.005 6.803-17.632 6.803v.645zm22.835-19.302c.868-3.474 2.241-8.686 5.263-12.346 1.504-1.823 3.409-3.25 5.859-3.89 2.45-.64 5.479-.5 9.245.869l.22-.606c-3.857-1.402-7.022-1.567-9.628-.886-2.607.681-4.622 2.2-6.193 4.102-3.128 3.79-4.527 9.145-5.391 12.601l.625.156zm20.367-15.367c7.801 2.837 15.148-1.172 20.99-6.651 5.853-5.49 10.289-12.54 12.315-16.012l-.557-.324c-2.016 3.457-6.415 10.44-12.199 15.866-5.795 5.435-12.885 9.222-20.329 6.515l-.22.606zm32.75-22.66l10.395 17.323.553-.331L253.676.834l-.553.332z" fill="url(#paint4_linear)"/><path d="M366.599 479.895c0 25.938-20.067 46.938-44.79 46.938s-44.79-21-44.79-46.938c0-25.938 20.067-46.939 44.79-46.939s44.79 21.001 44.79 46.939z" stroke="url(#paint5_linear)" stroke-width=".644"/><path d="M139.555 784.284c0 25.938-20.067 46.939-44.79 46.939-24.724 0-44.79-21.001-44.79-46.939s20.066-46.938 44.79-46.938c24.723 0 44.79 21 44.79 46.938z" stroke="url(#paint6_linear)" stroke-width=".644"/><path d="M196.64 210.092h.323a.324.324 0 00-.046-.166l-.277.166zm-63.372 55.854l-.21.244a.321.321 0 00.52-.156l-.31-.088zm63.372-36.52l.279.162.044-.075v-.087h-.323zm-70.891 30.075h-.322v.148l.113.097.209-.245zm0-17.186l-.31-.088-.012.043v.045h.322zm64.447-42.963l.276-.166a.322.322 0 00-.555.004l.279.162zm-56.618 48.422c.66-2.31 4.919-7.285 16.876-7.285v-.644c-12.104 0-16.724 5.05-17.496 7.752l.62.177zm16.876-7.285c6.089 0 9.418-1.908 11.346-4.422 1.904-2.484 2.402-5.525 2.93-7.637l-.625-.156c-.547 2.184-1.015 5.051-2.817 7.4-1.778 2.319-4.894 4.171-10.834 4.171v.644zm14.276-12.059c.539-2.158 1.385-5.362 3.239-7.607.919-1.114 2.08-1.981 3.568-2.37 1.49-.389 3.342-.308 5.659.535l.221-.606c-2.409-.876-4.397-.983-6.042-.553-1.647.43-2.917 1.389-3.903 2.584-1.96 2.374-2.833 5.722-3.367 7.861l.625.156zm12.466-9.442c4.839 1.759 9.149.654 12.55-1.425 3.393-2.073 5.898-5.124 7.173-7.309l-.557-.324c-1.232 2.111-3.667 5.076-6.952 7.083-3.276 2.003-7.38 3.046-11.993 1.369l-.221.606zm-43.618 47.046c.324-1.134 1.526-2.686 4.18-3.96 2.647-1.271 6.713-2.251 12.696-2.251v-.644c-6.048 0-10.216.989-12.975 2.314-2.753 1.322-4.129 2.992-4.521 4.364l.62.177zm16.876-6.211c6.089 0 9.418-1.908 11.346-4.422 1.904-2.484 2.402-5.525 2.93-7.637l-.625-.156c-.547 2.184-1.015 5.051-2.817 7.401-1.778 2.318-4.894 4.17-10.834 4.17v.644zm14.276-12.059c.539-2.158 1.385-5.362 3.239-7.607.919-1.114 2.08-1.981 3.568-2.37 1.49-.389 3.342-.308 5.659.535l.221-.606c-2.409-.876-4.397-.983-6.042-.553-1.647.43-2.917 1.389-3.903 2.584-1.96 2.374-2.833 5.722-3.367 7.861l.625.156zm12.466-9.442c4.839 1.759 9.149.655 12.55-1.425 3.393-2.073 5.898-5.124 7.173-7.309l-.557-.324c-1.232 2.111-3.667 5.076-6.952 7.084-3.276 2.002-7.38 3.045-11.993 1.368l-.221.606zm-44.25 9.364v18.26h.644v-18.26h-.644zm63.372-37.594v19.334h.645v-19.334h-.645zm-62.84 55.609l-7.519-6.445-.419.49 7.518 6.444.42-.489zm-7.406-6.2v-17.186h-.645v17.186h.645zm-.51-16.924l7.519 5.371.374-.525-7.518-5.37-.375.524zm.497-.173c.66-2.311 4.92-7.284 16.876-7.284v-.645c-12.104 0-16.724 5.05-17.496 7.752l.62.177zm16.876-7.284c6.09 0 9.418-1.908 11.346-4.423 1.904-2.484 2.402-5.524 2.93-7.636l-.625-.157c-.546 2.185-1.015 5.052-2.817 7.401-1.777 2.319-4.894 4.17-10.834 4.17v.645zm14.276-12.059c.539-2.158 1.386-5.362 3.239-7.607.92-1.114 2.08-1.982 3.569-2.371 1.489-.389 3.341-.307 5.659.535l.22-.605c-2.409-.876-4.397-.983-6.042-.553-1.647.43-2.917 1.389-3.903 2.584-1.96 2.374-2.832 5.721-3.367 7.86l.625.157zm12.467-9.443c4.905 1.784 9.508-.744 13.139-4.149 3.642-3.416 6.4-7.799 7.657-9.955l-.557-.324c-1.248 2.14-3.968 6.458-7.541 9.809-3.584 3.361-7.931 5.667-12.478 4.014l-.22.605zm20.241-14.1l6.445 10.74.553-.332-6.445-10.74-.553.332z" fill="url(#paint7_linear)"/><path d="M247.788 732.793h.322a.32.32 0 00-.046-.165l-.276.165zm-63.373 55.854l-.209.245a.324.324 0 00.302.064.324.324 0 00.217-.22l-.31-.089zm63.373-36.52l.278.163.044-.075v-.088h-.322zm-70.891 30.075h-.323v.149l.113.096.21-.245zm0-17.185l-.31-.089-.013.044v.045h.323zm64.446-42.964l.277-.165a.323.323 0 00-.555.003l.278.162zm-56.618 48.423c.66-2.311 4.92-7.285 16.876-7.285v-.645c-12.103 0-16.723 5.05-17.495 7.753l.619.177zm16.876-7.285c6.09 0 9.418-1.908 11.346-4.423 1.904-2.484 2.402-5.525 2.93-7.637l-.625-.156c-.546 2.184-1.015 5.051-2.816 7.401-1.778 2.319-4.894 4.17-10.835 4.17v.645zm14.276-12.06c.54-2.157 1.386-5.362 3.239-7.606.92-1.115 2.08-1.982 3.569-2.371 1.49-.389 3.342-.308 5.659.535l.22-.606c-2.409-.876-4.397-.982-6.042-.552-1.646.43-2.916 1.388-3.903 2.583-1.96 2.374-2.832 5.722-3.367 7.861l.625.156zm12.467-9.442c4.839 1.76 9.148.655 12.55-1.424 3.392-2.074 5.898-5.124 7.172-7.309l-.556-.325c-1.232 2.112-3.668 5.076-6.952 7.084-3.276 2.002-7.381 3.046-11.994 1.368l-.22.606zm-43.619 47.047c.324-1.135 1.527-2.687 4.18-3.961 2.647-1.271 6.714-2.25 12.696-2.25v-.645c-6.047 0-10.216.99-12.975 2.314-2.753 1.322-4.128 2.992-4.52 4.365l.619.177zm16.876-6.211c6.09 0 9.418-1.908 11.346-4.423 1.904-2.484 2.402-5.525 2.93-7.637l-.625-.156c-.546 2.185-1.015 5.051-2.816 7.401-1.778 2.319-4.894 4.17-10.835 4.17v.645zm14.276-12.06c.54-2.157 1.386-5.362 3.239-7.606.92-1.115 2.08-1.982 3.569-2.371 1.49-.389 3.342-.308 5.659.535l.22-.606c-2.409-.876-4.397-.982-6.042-.552-1.646.43-2.916 1.388-3.903 2.583-1.96 2.374-2.832 5.722-3.367 7.861l.625.156zm12.467-9.442c4.839 1.76 9.148.655 12.55-1.424 3.392-2.074 5.898-5.124 7.172-7.309l-.556-.325c-1.232 2.112-3.668 5.076-6.952 7.084-3.276 2.002-7.381 3.046-11.994 1.368l-.22.606zm-44.251 9.364v18.26h.645v-18.26h-.645zm63.373-37.594v19.334h.644v-19.334h-.644zm-62.841 55.609l-7.519-6.444-.419.489 7.519 6.445.419-.49zm-7.406-6.2v-17.185h-.645v17.185h.645zm-.51-16.923l7.519 5.37.375-.524-7.519-5.371-.375.525zm.498-.174c.66-2.31 4.919-7.284 16.875-7.284v-.644c-12.103 0-16.723 5.049-17.495 7.751l.62.177zm16.875-7.284c6.09 0 9.418-1.908 11.346-4.422 1.905-2.484 2.403-5.525 2.93-7.637l-.625-.156c-.546 2.184-1.015 5.051-2.816 7.401-1.778 2.318-4.894 4.17-10.835 4.17v.644zm14.276-12.059c.54-2.158 1.386-5.362 3.239-7.607.92-1.114 2.08-1.981 3.569-2.37 1.49-.389 3.342-.308 5.659.535l.22-.606c-2.408-.876-4.396-.982-6.042-.553-1.646.43-2.916 1.389-3.903 2.584-1.96 2.374-2.832 5.722-3.367 7.861l.625.156zm12.467-9.442c4.905 1.783 9.509-.744 13.139-4.15 3.642-3.416 6.4-7.798 7.658-9.954l-.557-.325c-1.249 2.141-3.969 6.458-7.542 9.809-3.583 3.362-7.93 5.668-12.478 4.014l-.22.606zm20.242-14.101l6.445 10.74.552-.331-6.444-10.74-.553.331z" fill="url(#paint8_linear)"/><g filter="url(#filter0_b)"><path d="M77.866 158.459c0 11.701-9.05 21.16-20.183 21.16s-20.184-9.459-20.184-21.16c0-11.7 9.05-21.159 20.184-21.159 11.133 0 20.183 9.459 20.183 21.159z" stroke="url(#paint9_linear)" stroke-width=".644"/></g><g filter="url(#filter1_b)"><path d="M206.358 652.468c0 11.701-9.05 21.16-20.183 21.16s-20.184-9.459-20.184-21.16c0-11.7 9.051-21.16 20.184-21.16 11.133 0 20.183 9.46 20.183 21.16z" stroke="url(#paint10_linear)" stroke-width=".644"/></g><g filter="url(#filter2_b)"><path d="M94.084 501.521c0 11.701-9.05 21.16-20.184 21.16-11.133 0-20.183-9.459-20.183-21.16 0-11.7 9.05-21.16 20.183-21.16s20.184 9.46 20.184 21.16z" stroke="url(#paint11_linear)" stroke-width=".644"/></g><path d="M323.385 150.109c3.066-3.066 4.102-7.825 2.239-12.018a10.832 10.832 0 00-7.574-6.162c-8.453-1.841-15.521-4.311-21.479-7.51l-.829-.445.382.86 22.533 50.708c3.052 6.868-.052 14.94-6.921 17.992-6.868 3.052-14.94-.053-17.992-6.921-3.052-6.869.053-14.94 6.921-17.992a13.538 13.538 0 016.973-1.092l.556.06-.227-.511-22.2-49.957-1.958-4.406c.817-.113 1.953-.106 3.114-.021 1.325.097 2.64.291 3.476.495l6.079 3.85s0 0 0 0c6.017 3.811 13.518 6.655 22.919 8.702a17.189 17.189 0 0112.013 9.779c.959 2.157 1.249 3.991 1.032 5.585-.215 1.592-.94 2.974-2.061 4.223-1.635 1.82-4.094 3.339-6.996 4.781z" stroke="url(#paint12_linear)" stroke-width=".644"/><path d="M73.574 628.186c1.62 1.363 3.037 3.368 4.394 5.765-3.191-2.409-7.59-2.993-11.43-1.137a11.05 11.05 0 00-6.035 7.921c-1.566 8.493-3.804 15.617-6.799 21.653l-.697 1.404 1.412-.682 49.96-24.145c6.66-3.219 14.699-.419 17.918 6.241 3.218 6.661.418 14.699-6.242 17.918-6.66 3.219-14.699.418-17.917-6.242a13.323 13.323 0 01-1.294-6.824l.07-.93-.84.406-49.22 23.787-4.078 1.971c-.099-.76-.118-1.753-.076-2.782.054-1.302.201-2.592.372-3.42l3.636-6.168s0 0 0 0c3.633-6.164 6.242-13.779 7.99-23.257a16.975 16.975 0 019.271-12.165c2.1-1.015 3.884-1.351 5.434-1.191 1.547.16 2.912.818 4.17 1.877z" stroke="url(#paint13_linear)" stroke-width="1.074"/><path d="M242.824 363.788v.001h.013c.641.009 1.781.081 2.775.145l.797.05-.126.424-.862 2.895-15.877 53.3c-1.975 6.63-8.978 10.419-15.609 8.443-6.631-1.975-10.419-8.977-8.444-15.608 1.976-6.631 8.978-10.419 15.609-8.444a12.448 12.448 0 015.53 3.409l.64.678.266-.893 7.673-25.759.203-.681-.71-.009-41.248-.566-.407-.005-.115.389-11.435 38.387c-1.975 6.631-8.978 10.419-15.609 8.444-6.631-1.975-10.419-8.978-8.444-15.609 1.975-6.631 8.978-10.419 15.609-8.444a12.466 12.466 0 015.53 3.409l.64.679.266-.894 12.643-42.445.971-3.259 49.721 1.963z" stroke="url(#paint14_linear)" stroke-width="1.074"/><path d="M242.824 363.788v.001h.013c.641.009 1.781.081 2.775.145l.797.05-.126.424-.862 2.895-15.877 53.3c-1.975 6.63-8.978 10.419-15.609 8.443-6.631-1.975-10.419-8.977-8.444-15.608 1.976-6.631 8.978-10.419 15.609-8.444a12.448 12.448 0 015.53 3.409l.64.678.266-.893 7.673-25.759.203-.681-.71-.009-41.248-.566-.407-.005-.115.389-11.435 38.387c-1.975 6.631-8.978 10.419-15.609 8.444-6.631-1.975-10.419-8.978-8.444-15.609 1.975-6.631 8.978-10.419 15.609-8.444a12.466 12.466 0 015.53 3.409l.64.679.266-.894 12.643-42.445.971-3.259 49.721 1.963z" stroke="url(#paint15_linear)" stroke-width="1.074"/><path d="M348.861 741.78h0l.014.001c.64.008 1.78.081 2.774.144l.798.051-.126.423-.863 2.896-15.877 53.299c-1.975 6.631-8.978 10.419-15.608 8.444-6.631-1.975-10.419-8.978-8.444-15.609 1.975-6.63 8.978-10.419 15.608-8.443a12.464 12.464 0 015.531 3.408l.639.679.266-.894 7.673-25.758.203-.681-.71-.01-41.248-.565-.406-.006-.116.39-11.435 38.387c-1.975 6.631-8.978 10.419-15.608 8.444-6.631-1.976-10.42-8.978-8.444-15.609 1.975-6.631 8.977-10.419 15.608-8.444a12.457 12.457 0 015.531 3.409l.639.678.266-.893 12.644-42.446.97-3.258 49.721 1.963z" stroke="url(#paint16_linear)" stroke-width="1.074"/><path d="M388.861 38.66l-.43.071-.081.428-2.384 12.482c-.062.16-.132.386-.202.608l-.015.05c-.091.292-.193.615-.304.918a6.04 6.04 0 01-.216.529 6.02 6.02 0 01-.217-.529 20.54 20.54 0 01-.303-.918l-.016-.05a11.19 11.19 0 00-.198-.599l-1.996-12.473-.071-.446-.446-.071-12.474-1.996c-.159-.061-.38-.13-.599-.198l-.049-.016a20.623 20.623 0 01-.919-.303 6.126 6.126 0 01-.528-.217c.147-.07.326-.143.528-.217a22.3 22.3 0 01.918-.303l.05-.015c.222-.07.447-.14.608-.202l12.481-2.334.43-.08.071-.432 1.995-12.136c.061-.16.131-.381.199-.6l.015-.05c.092-.292.193-.615.304-.918.074-.202.146-.382.217-.529.07.147.143.327.216.528.111.304.213.627.304.919l.015.05c.07.223.141.45.203.61l2.383 12.145.081.412.413.08 12.095 2.334c.16.062.386.133.609.202l.05.016c.291.09.614.192.918.303.202.074.381.147.528.217-.147.07-.326.143-.528.217a22.3 22.3 0 01-.918.303l-.05.015c-.219.069-.441.138-.601.2l-12.086 1.995zm-3.431 15.42s0 0 0 0h0z" stroke="url(#paint17_linear)" stroke-width="1.248"/><path d="M56.943 322.963l-.305-.31-.397.18-17.39 7.874c-.239.058-.58.168-.937.283l-.065.021c-.435.14-.925.297-1.402.426-.483.13-.917.222-1.245.245a1.702 1.702 0 01-.182.004c.015-.047.036-.104.066-.17.131-.301.364-.679.649-1.09.281-.405.594-.814.872-1.177l.042-.054c.225-.293.44-.575.576-.779l13.592-13.248.323-.316-.198-.405-8.345-17.048a15.831 15.831 0 00-.28-.927l-.021-.066c-.14-.435-.297-.925-.426-1.402-.13-.482-.222-.917-.245-1.244a1.9 1.9 0 01-.005-.183c.048.015.105.037.17.066.302.131.68.364 1.09.649.406.282.815.594 1.178.873l.054.041c.296.227.581.446.787.581l13.667 13.306.313.305.394-.19 16.633-8.054c.239-.058.577-.167.929-.28l.065-.021a32.3 32.3 0 011.402-.426c.483-.13.917-.222 1.245-.245.072-.005.133-.006.183-.005a1.815 1.815 0 01-.066.171c-.132.301-.364.679-.65 1.09-.28.405-.593.814-.872 1.177l-.041.054a15.01 15.01 0 00-.583.789l-12.85 13.437-.291.304.173.383 7.6 16.873c.058.239.168.581.283.937l.02.066c.14.435.298.925.426 1.401.13.483.223.918.245 1.245a1.9 1.9 0 01.005.183 1.763 1.763 0 01-.17-.066c-.301-.131-.68-.364-1.09-.649a31.414 31.414 0 01-1.177-.873l-.054-.041c-.294-.225-.576-.442-.781-.577l-12.914-13.118zm-22.088 8.702l.002.001-.002-.001zm.13.181v0zm6.657-38.434l-.001.003v-.003zm-.181.13h-.003.003zm38.434 6.657l-.003-.001.003.001zm-.13-.181v-.003.003zm-6.657 38.434v-.003.003zm.181-.13h0z" stroke="url(#paint18_linear)" stroke-width="1.248"/><path d="M376.825 378.577l-.411-.142-.275.337-13.406 16.446c-.207.174-.493.453-.795.748l-.053.051c-.364.355-.775.755-1.186 1.12-.417.369-.807.679-1.128.867-.111.065-.2.108-.268.133a1.845 1.845 0 01-.035-.296c-.018-.372.027-.868.107-1.419.08-.544.189-1.107.286-1.606l.014-.072c.08-.409.156-.797.188-1.065l6.967-19.914.149-.426-.359-.275-16.744-12.833c-.174-.206-.45-.489-.741-.787l-.052-.053c-.354-.364-.754-.775-1.119-1.186-.37-.417-.68-.808-.868-1.128a1.852 1.852 0 01-.133-.268 1.86 1.86 0 01.296-.035c.372-.018.868.027 1.419.107.545.08 1.108.189 1.606.286l.072.014c.413.081.806.157 1.074.189l20.189 6.474.416.134.268-.346 12.565-16.25c.206-.174.49-.45.789-.742l.052-.051a34.58 34.58 0 011.187-1.12c.416-.369.807-.679 1.127-.868.111-.065.2-.107.268-.132.015.07.029.168.035.296.019.371-.027.868-.107 1.419a36.01 36.01 0 01-.286 1.606l-.014.071c-.081.415-.158.809-.189 1.078l-6.135 19.733-.125.401.325.267 15.917 13.027c.174.207.453.493.748.795l.051.053c.355.364.755.775 1.12 1.186.369.417.679.808.868 1.128.065.111.107.2.132.268-.07.015-.168.029-.296.035-.371.018-.868-.027-1.419-.107a36.01 36.01 0 01-1.606-.286l-.071-.014c-.41-.08-.8-.156-1.068-.188l-19.346-6.66zm-17.639 19.592h.003-.003zm.154.082l.001.002-.001-.002zm-12.409-41.559v0zm-.081.154l-.002.001.002-.001zm41.558-12.409h-.003.003zm-.154-.082l-.001-.002.001.002zm12.409 41.559v-.003.003zm.082-.154l.002-.001-.002.001z" stroke="url(#paint19_linear)" stroke-width="1.248"/><path d="M431.766 589.454l-.411-.141-.275.337-13.406 16.446c-.207.173-.493.453-.795.747l-.053.052c-.364.354-.775.754-1.186 1.119-.417.37-.807.68-1.128.868-.111.065-.2.107-.267.133a1.733 1.733 0 01-.036-.297c-.018-.371.027-.867.108-1.418.079-.545.188-1.108.285-1.606l.014-.073c.08-.408.156-.797.188-1.065l6.967-19.913.149-.426-.358-.275-16.745-12.833c-.174-.207-.45-.49-.741-.788l-.052-.053a34.575 34.575 0 01-1.119-1.186c-.37-.417-.68-.807-.868-1.128a1.85 1.85 0 01-.133-.267 1.75 1.75 0 01.296-.035c.372-.019.868.026 1.419.107.545.08 1.108.188 1.606.286l.072.014c.413.08.806.157 1.074.188l20.189 6.475.416.133.268-.346 12.565-16.249c.206-.174.49-.451.789-.742l.052-.052c.364-.354.775-.754 1.187-1.119.416-.37.807-.68 1.127-.868.111-.065.2-.107.268-.133.015.071.029.168.035.296.019.372-.026.868-.107 1.419-.08.545-.189 1.108-.286 1.606l-.014.072a17.25 17.25 0 00-.189 1.077l-6.135 19.734-.125.401.325.266 15.917 13.027c.174.207.453.494.748.796l.051.053c.355.363.755.774 1.12 1.186.369.417.679.807.868 1.128.065.111.107.199.133.267a1.75 1.75 0 01-.297.035c-.371.019-.868-.026-1.419-.107a33.345 33.345 0 01-1.606-.286l-.071-.013c-.41-.08-.799-.156-1.068-.188l-19.346-6.661zm-17.639 19.593h.003-.003zm.154.081a.003.003 0 01.001.002l-.001-.002zm-12.409-41.558v0zm-.081.153l-.002.002.002-.002zm41.558-12.409h-.002.002zm-.154-.081l-.001-.002.001.002zm12.409 41.558v-.002.002zm.082-.153l.002-.002-.002.002z" stroke="url(#paint20_linear)" stroke-width="1.248"/><defs><linearGradient id="paint0_linear" x1="259.232" y1="290.613" x2="352.086" y2="291.192" gradientUnits="userSpaceOnUse"><stop stop-color="#FEBD2F"/><stop offset=".249" stop-color="#F95721"/><stop offset=".503" stop-color="#FC1370"/><stop offset=".672" stop-color="#BA2DB2"/><stop offset=".776" stop-color="#8342E9"/><stop offset=".964" stop-color="#3F89FC"/></linearGradient><linearGradient id="paint1_linear" x1="272.636" y1="621.582" x2="370.575" y2="683.873" gradientUnits="userSpaceOnUse"><stop stop-color="#FEBD2F"/><stop offset=".249" stop-color="#F95721"/><stop offset=".503" stop-color="#FC1370"/><stop offset=".672" stop-color="#BA2DB2"/><stop offset=".776" stop-color="#8342E9"/><stop offset=".964" stop-color="#3F89FC"/></linearGradient><linearGradient id="paint2_linear" x1="165.415" y1="518.923" x2="243.767" y2="568.755" gradientUnits="userSpaceOnUse"><stop stop-color="#FEBD2F"/><stop offset=".249" stop-color="#F95721"/><stop offset=".503" stop-color="#FC1370"/><stop offset=".672" stop-color="#BA2DB2"/><stop offset=".776" stop-color="#8342E9"/><stop offset=".964" stop-color="#3F89FC"/></linearGradient><linearGradient id="paint3_linear" x1="20.706" y1="374.213" x2="99.057" y2="424.045" gradientUnits="userSpaceOnUse"><stop stop-color="#FEBD2F"/><stop offset=".249" stop-color="#F95721"/><stop offset=".503" stop-color="#FC1370"/><stop offset=".672" stop-color="#BA2DB2"/><stop offset=".776" stop-color="#8342E9"/><stop offset=".964" stop-color="#3F89FC"/></linearGradient><linearGradient id="paint4_linear" x1="149.452" y1="62.058" x2="265.519" y2="62.781" gradientUnits="userSpaceOnUse"><stop stop-color="#FEBD2F"/><stop offset=".249" stop-color="#F95721"/><stop offset=".503" stop-color="#FC1370"/><stop offset=".672" stop-color="#BA2DB2"/><stop offset=".776" stop-color="#8342E9"/><stop offset=".964" stop-color="#3F89FC"/></linearGradient><linearGradient id="paint5_linear" x1="276.697" y1="486.365" x2="368.283" y2="486.876" gradientUnits="userSpaceOnUse"><stop stop-color="#FEBD2F"/><stop offset=".249" stop-color="#F95721"/><stop offset=".503" stop-color="#FC1370"/><stop offset=".672" stop-color="#BA2DB2"/><stop offset=".776" stop-color="#8342E9"/><stop offset=".964" stop-color="#3F89FC"/></linearGradient><linearGradient id="paint6_linear" x1="49.652" y1="790.754" x2="141.239" y2="791.266" gradientUnits="userSpaceOnUse"><stop stop-color="#FEBD2F"/><stop offset=".249" stop-color="#F95721"/><stop offset=".503" stop-color="#FC1370"/><stop offset=".672" stop-color="#BA2DB2"/><stop offset=".776" stop-color="#8342E9"/><stop offset=".964" stop-color="#3F89FC"/></linearGradient><linearGradient id="paint7_linear" x1="125.749" y1="237.207" x2="197.71" y2="237.655" gradientUnits="userSpaceOnUse"><stop stop-color="#FEBD2F"/><stop offset=".249" stop-color="#F95721"/><stop offset=".503" stop-color="#FC1370"/><stop offset=".672" stop-color="#BA2DB2"/><stop offset=".776" stop-color="#8342E9"/><stop offset=".964" stop-color="#3F89FC"/></linearGradient><linearGradient id="paint8_linear" x1="176.897" y1="759.909" x2="248.857" y2="760.357" gradientUnits="userSpaceOnUse"><stop stop-color="#FEBD2F"/><stop offset=".249" stop-color="#F95721"/><stop offset=".503" stop-color="#FC1370"/><stop offset=".672" stop-color="#BA2DB2"/><stop offset=".776" stop-color="#8342E9"/><stop offset=".964" stop-color="#3F89FC"/></linearGradient><linearGradient id="paint9_linear" x1="37.177" y1="161.4" x2="78.807" y2="161.633" gradientUnits="userSpaceOnUse"><stop stop-color="#FEBD2F"/><stop offset=".249" stop-color="#F95721"/><stop offset=".503" stop-color="#FC1370"/><stop offset=".672" stop-color="#BA2DB2"/><stop offset=".776" stop-color="#8342E9"/><stop offset=".964" stop-color="#3F89FC"/></linearGradient><linearGradient id="paint10_linear" x1="165.669" y1="655.409" x2="207.3" y2="655.642" gradientUnits="userSpaceOnUse"><stop stop-color="#FEBD2F"/><stop offset=".249" stop-color="#F95721"/><stop offset=".503" stop-color="#FC1370"/><stop offset=".672" stop-color="#BA2DB2"/><stop offset=".776" stop-color="#8342E9"/><stop offset=".964" stop-color="#3F89FC"/></linearGradient><linearGradient id="paint11_linear" x1="53.395" y1="504.462" x2="95.025" y2="504.695" gradientUnits="userSpaceOnUse"><stop stop-color="#FEBD2F"/><stop offset=".249" stop-color="#F95721"/><stop offset=".503" stop-color="#FC1370"/><stop offset=".672" stop-color="#BA2DB2"/><stop offset=".776" stop-color="#8342E9"/><stop offset=".964" stop-color="#3F89FC"/></linearGradient><linearGradient id="paint12_linear" x1="284.057" y1="165.607" x2="335.919" y2="142.797" gradientUnits="userSpaceOnUse"><stop stop-color="#FEBD2F"/><stop offset=".249" stop-color="#F95721"/><stop offset=".503" stop-color="#FC1370"/><stop offset=".672" stop-color="#BA2DB2"/><stop offset=".776" stop-color="#8342E9"/><stop offset=".964" stop-color="#3F89FC"/></linearGradient><linearGradient id="paint13_linear" x1="95.464" y1="673.672" x2="71.005" y2="622.566" gradientUnits="userSpaceOnUse"><stop stop-color="#FEBD2F"/><stop offset=".249" stop-color="#F95721"/><stop offset=".503" stop-color="#FC1370"/><stop offset=".672" stop-color="#BA2DB2"/><stop offset=".776" stop-color="#8342E9"/><stop offset=".964" stop-color="#3F89FC"/></linearGradient><linearGradient id="paint14_linear" x1="163.78" y1="389.628" x2="234.118" y2="410.958" gradientUnits="userSpaceOnUse"><stop stop-color="#FEBD2F"/><stop offset=".249" stop-color="#F95721"/><stop offset=".503" stop-color="#FC1370"/><stop offset=".672" stop-color="#BA2DB2"/><stop offset=".776" stop-color="#8342E9"/><stop offset=".964" stop-color="#3F89FC"/></linearGradient><linearGradient id="paint15_linear" x1="163.78" y1="389.628" x2="234.118" y2="410.958" gradientUnits="userSpaceOnUse"><stop stop-color="#FEBD2F"/><stop offset=".249" stop-color="#F95721"/><stop offset=".503" stop-color="#FC1370"/><stop offset=".672" stop-color="#BA2DB2"/><stop offset=".776" stop-color="#8342E9"/><stop offset=".964" stop-color="#3F89FC"/></linearGradient><linearGradient id="paint16_linear" x1="269.818" y1="767.619" x2="340.155" y2="788.95" gradientUnits="userSpaceOnUse"><stop stop-color="#FEBD2F"/><stop offset=".249" stop-color="#F95721"/><stop offset=".503" stop-color="#FC1370"/><stop offset=".672" stop-color="#BA2DB2"/><stop offset=".776" stop-color="#8342E9"/><stop offset=".964" stop-color="#3F89FC"/></linearGradient><linearGradient id="paint17_linear" x1="366.516" y1="38.492" x2="404.506" y2="38.714" gradientUnits="userSpaceOnUse"><stop stop-color="#FEBD2F"/><stop offset=".249" stop-color="#F95721"/><stop offset=".503" stop-color="#FC1370"/><stop offset=".672" stop-color="#BA2DB2"/><stop offset=".776" stop-color="#8342E9"/><stop offset=".964" stop-color="#3F89FC"/></linearGradient><linearGradient id="paint18_linear" x1="38.065" y1="295.202" x2="70.618" y2="341.974" gradientUnits="userSpaceOnUse"><stop stop-color="#FEBD2F"/><stop offset=".249" stop-color="#F95721"/><stop offset=".503" stop-color="#FC1370"/><stop offset=".672" stop-color="#BA2DB2"/><stop offset=".776" stop-color="#8342E9"/><stop offset=".964" stop-color="#3F89FC"/></linearGradient><linearGradient id="paint19_linear" x1="344.328" y1="360.239" x2="399.861" y2="390.654" gradientUnits="userSpaceOnUse"><stop stop-color="#FEBD2F"/><stop offset=".249" stop-color="#F95721"/><stop offset=".503" stop-color="#FC1370"/><stop offset=".672" stop-color="#BA2DB2"/><stop offset=".776" stop-color="#8342E9"/><stop offset=".964" stop-color="#3F89FC"/></linearGradient><linearGradient id="paint20_linear" x1="399.269" y1="571.116" x2="454.802" y2="601.531" gradientUnits="userSpaceOnUse"><stop stop-color="#FEBD2F"/><stop offset=".249" stop-color="#F95721"/><stop offset=".503" stop-color="#FC1370"/><stop offset=".672" stop-color="#BA2DB2"/><stop offset=".776" stop-color="#8342E9"/><stop offset=".964" stop-color="#3F89FC"/></linearGradient><filter id="filter0_b" x="28.584" y="128.384" width="58.197" height="60.15" filterUnits="userSpaceOnUse" color-interpolation-filters="sRGB"><feFlood flood-opacity="0" result="BackgroundImageFix"/><feGaussianBlur in="BackgroundImage" stdDeviation="4.296"/><feComposite in2="SourceAlpha" operator="in" result="effect1_backgroundBlur"/><feBlend in="SourceGraphic" in2="effect1_backgroundBlur" result="shape"/></filter><filter id="filter1_b" x="157.076" y="622.393" width="58.197" height="60.15" filterUnits="userSpaceOnUse" color-interpolation-filters="sRGB"><feFlood flood-opacity="0" result="BackgroundImageFix"/><feGaussianBlur in="BackgroundImage" stdDeviation="4.296"/><feComposite in2="SourceAlpha" operator="in" result="effect1_backgroundBlur"/><feBlend in="SourceGraphic" in2="effect1_backgroundBlur" result="shape"/></filter><filter id="filter2_b" x="44.802" y="471.446" width="58.197" height="60.15" filterUnits="userSpaceOnUse" color-interpolation-filters="sRGB"><feFlood flood-opacity="0" result="BackgroundImageFix"/><feGaussianBlur in="BackgroundImage" stdDeviation="4.296"/><feComposite in2="SourceAlpha" operator="in" result="effect1_backgroundBlur"/><feBlend in="SourceGraphic" in2="effect1_backgroundBlur" result="shape"/></filter></defs></svg>