<svg width="200" height="200" fill="none" xmlns="http://www.w3.org/2000/svg"><circle cx="100" cy="100" r="99.5" fill="#111" stroke="url(#paint0_linear)"/><path transform="matrix(.8486 -.52903 0 1 77.974 77.32)" fill="url(#paint1_linear)" fill-opacity=".2" stroke="url(#paint2_linear)" stroke-width=".5" d="M.212.118h74.77v92.293H.212z"/><path d="M121.461 76.405h0l.006-.005c.22-.2.617-.534.965-.827l.251-.212V99.78c0 2.848-2.007 6.325-4.474 7.749-2.467 1.424-4.474.265-4.474-2.583 0-2.849 2.007-6.325 4.474-7.75.815-.47 1.578-.657 2.237-.596l.325.03V84.74l-.276.25-14.228 12.863-.157.143v16.767c0 2.849-2.007 6.326-4.474 7.75-2.467 1.424-4.474.265-4.474-2.583 0-2.849 2.007-6.325 4.474-7.75.814-.47 1.578-.657 2.237-.596l.325.03V91.463l17.263-15.058z" fill="#111" stroke="url(#paint3_linear)" stroke-width=".5"/><path d="M59 162.613V69.64L122.743 30l19.023 7.387-63.743 39.82V170L59 162.613z" fill="#646569" fill-opacity=".2"/><path d="M78.023 77.207L59 69.64m19.023 7.567V170L59 162.613V69.64m19.023 7.567l63.743-39.82L122.743 30 59 69.64" stroke="url(#paint4_linear)" stroke-width=".5"/><defs><linearGradient id="paint0_linear" x1="0" y1="113.69" x2="203.018" y2="114.878" gradientUnits="userSpaceOnUse"><stop stop-color="#FEBD2F"/><stop offset=".249" stop-color="#F95721"/><stop offset=".503" stop-color="#FC1370"/><stop offset=".672" stop-color="#BA2DB2"/><stop offset=".776" stop-color="#8342E9"/><stop offset=".964" stop-color="#3F89FC"/></linearGradient><linearGradient id="paint1_linear" x1=".151" y1="93.001" x2="97.118" y2="40.098" gradientUnits="userSpaceOnUse"><stop stop-color="#FEBD2F"/><stop offset=".249" stop-color="#F95721"/><stop offset=".503" stop-color="#FC1370"/><stop offset=".672" stop-color="#BA2DB2"/><stop offset=".776" stop-color="#8342E9"/><stop offset="1" stop-color="#3F89FC"/></linearGradient><linearGradient id="paint2_linear" x1="0" y1="52.748" x2="76.406" y2="53.111" gradientUnits="userSpaceOnUse"><stop stop-color="#FEBD2F"/><stop offset=".249" stop-color="#F95721"/><stop offset=".503" stop-color="#FC1370"/><stop offset=".672" stop-color="#BA2DB2"/><stop offset=".776" stop-color="#8342E9"/><stop offset=".964" stop-color="#3F89FC"/></linearGradient><linearGradient id="paint3_linear" x1="96.945" y1="110.122" x2="123.227" y2="110.234" gradientUnits="userSpaceOnUse"><stop stop-color="#FEBD2F"/><stop offset=".249" stop-color="#F95721"/><stop offset=".503" stop-color="#FC1370"/><stop offset=".672" stop-color="#BA2DB2"/><stop offset=".776" stop-color="#8342E9"/><stop offset=".964" stop-color="#3F89FC"/></linearGradient><linearGradient id="paint4_linear" x1="59" y1="109.583" x2="143.017" y2="109.874" gradientUnits="userSpaceOnUse"><stop stop-color="#FEBD2F"/><stop offset=".249" stop-color="#F95721"/><stop offset=".503" stop-color="#FC1370"/><stop offset=".672" stop-color="#BA2DB2"/><stop offset=".776" stop-color="#8342E9"/><stop offset=".964" stop-color="#3F89FC"/></linearGradient></defs></svg>