<svg width="143" height="143" fill="none" xmlns="http://www.w3.org/2000/svg"><path d="M74.11 141c-11.02 0-21.84-1.96-31.11-6.5.13-.09-.5-.83-.5-1V97c0-11.59 9.41-21 21-21 .28 0 .5.28.5 0 0-.18-.86-.07 0-.5h-.5c-8-4-11.5-10.8-11.5-19C52 45.18 62.29 36 73.61 36c11.33 0 20.5 9.18 20.5 20.5 0 8.2-4.8 15.27-11.75 18.55v.02c-.15.09-.25.25-.25.43 0 .28.23.5.5.5 7.772 0 14.557 4.225 18.188 10.5a22.152 22.152 0 012.047 4.867 21.02 21.02 0 01.764 5.633v37.5c-11.514 5.76-17.974 6.303-29.5 6.5z" fill="url(#paint0_linear)" fill-opacity=".2"/><path d="M16.816 116C6.928 103.864 1 88.374 1 71.5 1 32.564 32.564 1 71.5 1S142 32.564 142 71.5 110.436 142 71.5 142c-18.056 0-34.527-6.788-47-17.951" stroke="url(#paint1_linear)"/><path fill-rule="evenodd" clip-rule="evenodd" d="M91.5 57c0-11.322-9.178-20.5-20.5-20.5S50.5 45.678 50.5 57c0 8.194 4.807 15.266 11.758 18.548l-.01.018A.5.5 0 0162 76.5c-11.598 0-21 9.402-21 21V134a.5.5 0 01-1 0V97.5c0-11.533 8.874-20.993 20.167-21.925C53.787 71.847 49.5 64.925 49.5 57c0-11.874 9.626-21.5 21.5-21.5S92.5 45.126 92.5 57c0 7.924-4.287 14.847-10.667 18.575C93.126 76.507 102 85.967 102 97.5V134a.5.5 0 01-1 0V97.5c0-11.598-9.402-21-21-21a.5.5 0 01-.249-.934l-.009-.018C86.692 72.266 91.5 65.194 91.5 57z" fill="url(#paint2_linear)"/><g filter="url(#filter0_b)"><path d="M17.5 120.5c-.703-2.829 1.664-6.729 5.355-7.647 1.665-.417 3.286-.33 4.645.147l.666-31.234S27.98 80 29.98 80c0 0 1.859 1.626 10.52 9 4.875 3.755 3.997 9.266 3.997 9.266-6.334-9.934-12.802-9.584-12.802-9.584l-.092 29.712c-.02 2.504-2.276 4.947-5.519 5.75-3.683.934-8.166-1.018-8.584-3.644z" fill="#111"/></g><g filter="url(#filter1_b)"><mask id="a" fill="#fff"><path d="M55.94 103.968C55.94 88.524 43.42 76 27.972 76S0 88.524 0 103.968c0 15.456 12.524 27.968 27.972 27.968 15.448 0 27.968-12.512 27.968-27.968zm-37.798 16.231c-.703-2.829 1.709-5.873 5.4-6.79 1.665-.418 3.286-.33 4.645.147v-31.29S28 80.5 30 80.5c0 0 1 1 9.661 8.374 4.876 3.754 4.856 8.892 4.856 8.892-6.334-9.934-12.802-9.584-12.802-9.584l-.091 29.712c-.02 2.504-2.277 4.947-5.52 5.75-3.683.934-7.545-.819-7.962-3.445z"/></mask><path d="M55.94 103.968C55.94 88.524 43.42 76 27.972 76S0 88.524 0 103.968c0 15.456 12.524 27.968 27.972 27.968 15.448 0 27.968-12.512 27.968-27.968zm-37.798 16.231c-.703-2.829 1.709-5.873 5.4-6.79 1.665-.418 3.286-.33 4.645.147v-31.29S28 80.5 30 80.5c0 0 1 1 9.661 8.374 4.876 3.754 4.856 8.892 4.856 8.892-6.334-9.934-12.802-9.584-12.802-9.584l-.091 29.712c-.02 2.504-2.277 4.947-5.52 5.75-3.683.934-7.545-.819-7.962-3.445z" fill="url(#paint3_linear)" fill-opacity=".2"/><path d="M18.142 120.199l.988-.157-.007-.042-.01-.042-.97.241zm5.4-6.79l.241.97h.002l-.243-.97zm4.645.147l-.332.943 1.332.467v-1.41h-1zm0-31.29h1v-.053l-.006-.052-.994.105zM30 80.5l.707-.707A1 1 0 0030 79.5v1zm9.661 8.374l-.648.76.019.017.02.015.61-.792zm4.856 8.892l-.843.537a1 1 0 001.843-.533l-1-.004zm-12.802-9.584l-.054-.998-.943.05-.003.945 1 .003zm-.091 29.712l1 .008v-.004l-1-.004zm-5.52 5.75l-.24-.971-.005.001.246.97zm30.836-19.676C56.94 87.972 43.973 75 27.972 75v2c14.896 0 26.968 12.076 26.968 26.968h2zM27.972 75C11.972 75-1 87.972-1 103.968h2C1 89.076 13.076 77 27.972 77v-2zM-1 103.968c0 16.009 12.972 28.968 28.972 28.968v-2C13.076 130.936 1 118.872 1 103.968h-2zm28.972 28.968c16 0 28.968-12.959 28.968-28.968h-2c0 14.904-12.072 26.968-26.968 26.968v2zm-8.86-12.978c-.514-2.072 1.264-4.732 4.671-5.579l-.483-1.941c-3.975.989-7.02 4.416-6.128 8.002l1.94-.482zm4.673-5.579c1.487-.373 2.907-.288 4.07.12l.663-1.887c-1.555-.545-3.376-.635-5.22-.173l.487 1.94zm5.402-.823v-31.29h-2v31.29h2zm-1-31.29l.994-.104v.006l.001.006a.879.879 0 01.07-.373.392.392 0 01.152-.178c.075-.047.245-.123.596-.123v-2c-.65 0-1.206.145-1.659.429a2.39 2.39 0 00-.906 1.036 2.825 2.825 0 00-.244 1.396v.008h.001c0 .001 0 .002.995-.103zM30 80.5l-.707.708.002.001.002.002.006.006.015.015.056.053a98.954 98.954 0 001.549 1.388c1.338 1.176 3.758 3.273 8.09 6.962l1.297-1.523c-4.33-3.685-6.74-5.775-8.067-6.941a96.725 96.725 0 01-1.497-1.341 3.003 3.003 0 01-.038-.036l-.004-.004.002.001v.001L30 80.5zm9.051 9.166c2.254 1.735 3.367 3.78 3.921 5.388.278.805.414 1.5.481 1.987a7.473 7.473 0 01.064.721v.001l1 .003 1 .003v-.029a3.83 3.83 0 00-.01-.263 9.39 9.39 0 00-.073-.709 12.565 12.565 0 00-.571-2.366c-.655-1.9-1.97-4.301-4.591-6.32l-1.22 1.584zm6.309 7.562c-3.256-5.107-6.593-7.638-9.187-8.88-1.293-.62-2.388-.914-3.178-1.05a7.936 7.936 0 00-.938-.11 5.078 5.078 0 00-.379-.005h-.016l.053 1c.054.998.053.998.052.998h-.005.03c.031 0 .085 0 .161.004.152.008.39.029.7.083.622.108 1.54.348 2.656.883 2.223 1.065 5.288 3.326 8.365 8.152l1.686-1.075zM30.715 88.18l-.091 29.712 2 .007.09-29.713-2-.006zm-.091 29.708c-.016 1.901-1.803 4.054-4.76 4.786l.48 1.942c3.528-.874 6.255-3.608 6.28-6.713l-2-.015zm-4.765 4.787c-1.625.412-3.284.227-4.558-.333-1.298-.57-2.035-1.442-2.171-2.299l-1.976.314c.282 1.77 1.684 3.087 3.342 3.816 1.682.739 3.796.963 5.854.441l-.491-1.939z" fill="url(#paint4_linear)" mask="url(#a)"/></g><defs><linearGradient id="paint0_linear" x1="100" y1="39" x2="40.806" y2="139.71" gradientUnits="userSpaceOnUse"><stop offset=".088" stop-color="#FEBD2F"/><stop offset=".249" stop-color="#F95721"/><stop offset=".503" stop-color="#FC1370"/><stop offset=".672" stop-color="#BA2DB2"/><stop offset=".776" stop-color="#8342E9"/><stop offset=".964" stop-color="#3F89FC"/></linearGradient><linearGradient id="paint1_linear" x1="142" y1="81.152" x2="-1.128" y2="81.989" gradientUnits="userSpaceOnUse"><stop stop-color="#FEBD2F"/><stop offset=".249" stop-color="#F95721"/><stop offset=".503" stop-color="#FC1370"/><stop offset=".672" stop-color="#BA2DB2"/><stop offset=".776" stop-color="#8342E9"/><stop offset=".964" stop-color="#3F89FC"/></linearGradient><linearGradient id="paint2_linear" x1="102" y1="91.777" x2="39.063" y2="92.007" gradientUnits="userSpaceOnUse"><stop stop-color="#FEBD2F"/><stop offset=".249" stop-color="#F95721"/><stop offset=".503" stop-color="#FC1370"/><stop offset=".672" stop-color="#BA2DB2"/><stop offset=".776" stop-color="#8342E9"/><stop offset=".964" stop-color="#3F89FC"/></linearGradient><linearGradient id="paint3_linear" x1="0" y1="107.797" x2="56.784" y2="108.129" gradientUnits="userSpaceOnUse"><stop stop-color="#FEBD2F"/><stop offset=".249" stop-color="#F95721"/><stop offset=".503" stop-color="#FC1370"/><stop offset=".672" stop-color="#BA2DB2"/><stop offset=".776" stop-color="#8342E9"/><stop offset=".964" stop-color="#3F89FC"/></linearGradient><linearGradient id="paint4_linear" x1="0" y1="107.797" x2="56.784" y2="108.129" gradientUnits="userSpaceOnUse"><stop stop-color="#FEBD2F"/><stop offset=".249" stop-color="#F95721"/><stop offset=".503" stop-color="#FC1370"/><stop offset=".672" stop-color="#BA2DB2"/><stop offset=".776" stop-color="#8342E9"/><stop offset=".964" stop-color="#3F89FC"/></linearGradient><filter id="filter0_b" x="7.377" y="70" width="47.181" height="64.381" filterUnits="userSpaceOnUse" color-interpolation-filters="sRGB"><feFlood flood-opacity="0" result="BackgroundImageFix"/><feGaussianBlur in="BackgroundImage" stdDeviation="5"/><feComposite in2="SourceAlpha" operator="in" result="effect1_backgroundBlur"/><feBlend in="SourceGraphic" in2="effect1_backgroundBlur" result="shape"/></filter><filter id="filter1_b" x="-10" y="66" width="75.94" height="75.936" filterUnits="userSpaceOnUse" color-interpolation-filters="sRGB"><feFlood flood-opacity="0" result="BackgroundImageFix"/><feGaussianBlur in="BackgroundImage" stdDeviation="5"/><feComposite in2="SourceAlpha" operator="in" result="effect1_backgroundBlur"/><feBlend in="SourceGraphic" in2="effect1_backgroundBlur" result="shape"/></filter></defs></svg>