<svg width="40" height="40" fill="none" xmlns="http://www.w3.org/2000/svg"><circle cx="20" cy="20" r="19.5" fill="#111" stroke="url(#paint0_linear)"/><path d="M21.214 32H17.37a1.165 1.165 0 01-1.165-1.164v-8.67h-2.242a1.166 1.166 0 01-1.164-1.163v-3.715c0-.642.522-1.164 1.164-1.164h2.242v-1.86c0-1.845.58-3.414 1.675-4.538C18.981 8.596 20.519 8 22.328 8l2.932.005c.64 0 1.162.523 1.162 1.164v3.449c0 .642-.522 1.164-1.164 1.164h-1.974c-.601 0-.755.121-.787.159-.055.06-.119.234-.119.713v1.47h2.732a1.168 1.168 0 011.175 1.165l-.002 3.714c0 .642-.522 1.164-1.164 1.164h-2.74v8.669c0 .642-.523 1.164-1.165 1.164zm-4.4-.607h4.957v-9.056c0-.429.349-.777.777-.777h3.128l.001-4.83h-3.129a.778.778 0 01-.777-.777v-.499c0-.55-.186-1.384.229-1.854.415-.47.733-.424 1.284-.424h2.53V8.61l-3.487-.004c-2.907 0-5.514 2.661-5.514 5.657v1.69a.778.778 0 01-.777.777h-2.63v4.829h2.63c.429 0 .777.348.777.777v9.056z" fill="url(#paint1_linear)"/><defs><linearGradient id="paint0_linear" x1="0" y1="22.738" x2="40.604" y2="22.976" gradientUnits="userSpaceOnUse"><stop stop-color="#FEBD2F"/><stop offset=".249" stop-color="#F95721"/><stop offset=".503" stop-color="#FC1370"/><stop offset=".672" stop-color="#BA2DB2"/><stop offset=".776" stop-color="#8342E9"/><stop offset=".964" stop-color="#3F89FC"/></linearGradient><linearGradient id="paint1_linear" x1="12.8" y1="21.643" x2="26.628" y2="21.689" gradientUnits="userSpaceOnUse"><stop stop-color="#FEBD2F"/><stop offset=".249" stop-color="#F95721"/><stop offset=".503" stop-color="#FC1370"/><stop offset=".672" stop-color="#BA2DB2"/><stop offset=".776" stop-color="#8342E9"/><stop offset=".964" stop-color="#3F89FC"/></linearGradient></defs></svg>