<svg width="16" height="16" fill="none" xmlns="http://www.w3.org/2000/svg"><path fill-rule="evenodd" clip-rule="evenodd" d="M5 0h6a5 5 0 015 5v6a5 5 0 01-5 5H5a5 5 0 01-5-5V5a5 5 0 015-5zm6 14.5c1.93 0 3.5-1.57 3.5-3.5V5c0-1.93-1.57-3.5-3.5-3.5H5C3.07 1.5 1.5 3.07 1.5 5v6c0 1.93 1.57 3.5 3.5 3.5h6z" fill="#fff"/><path fill-rule="evenodd" clip-rule="evenodd" d="M4 8a4 4 0 118 0 4 4 0 01-8 0zm1.5 0c0 1.378 1.122 2.5 2.5 2.5s2.5-1.122 2.5-2.5c0-1.379-1.122-2.5-2.5-2.5A2.503 2.503 0 005.5 8z" fill="#fff"/><path d="M12.3 4.233a.533.533 0 100-1.066.533.533 0 000 1.066z" fill="#fff"/></svg>