<svg width="31" height="30" fill="none" xmlns="http://www.w3.org/2000/svg"><circle cx="15.067" cy="15" r="14.75" stroke="url(#paint0_linear)" stroke-width=".5"/><path d="M27.176 23.744a12.908 12.908 0 00-7.525-7.86 6.942 6.942 0 002.313-5.17A6.972 6.972 0 0015 3.75a6.972 6.972 0 00-6.964 6.964 6.94 6.94 0 002.314 5.17 12.91 12.91 0 00-7.526 7.86A14.912 14.912 0 010 15C0 6.73 6.73 0 15 0s15 6.73 15 15c0 3.261-1.05 6.28-2.824 8.744z" fill="url(#paint1_linear)" fill-opacity=".2"/><path d="M27.176 23.744a12.908 12.908 0 00-7.525-7.86 6.942 6.942 0 002.313-5.17A6.972 6.972 0 0015 3.75a6.972 6.972 0 00-6.964 6.964 6.94 6.94 0 002.313 5.17 12.91 12.91 0 00-7.525 7.86" stroke="url(#paint2_linear)" stroke-width=".5"/><defs><linearGradient id="paint0_linear" x1=".067" y1="17.054" x2="30.52" y2="17.232" gradientUnits="userSpaceOnUse"><stop stop-color="#FEBD2F"/><stop offset=".249" stop-color="#F95721"/><stop offset=".503" stop-color="#FC1370"/><stop offset=".672" stop-color="#BA2DB2"/><stop offset=".776" stop-color="#8342E9"/><stop offset=".964" stop-color="#3F89FC"/></linearGradient><linearGradient id="paint1_linear" x1="-1.071" y1="17.2" x2="31.556" y2="17.391" gradientUnits="userSpaceOnUse"><stop stop-color="#FEBD2F"/><stop offset=".249" stop-color="#F95721"/><stop offset=".503" stop-color="#FC1370"/><stop offset=".672" stop-color="#BA2DB2"/><stop offset=".776" stop-color="#8342E9"/><stop offset=".964" stop-color="#3F89FC"/></linearGradient><linearGradient id="paint2_linear" x1="2.824" y1="15.116" x2="27.543" y2="15.292" gradientUnits="userSpaceOnUse"><stop stop-color="#FEBD2F"/><stop offset=".249" stop-color="#F95721"/><stop offset=".503" stop-color="#FC1370"/><stop offset=".672" stop-color="#BA2DB2"/><stop offset=".776" stop-color="#8342E9"/><stop offset=".964" stop-color="#3F89FC"/></linearGradient></defs></svg>