<svg width="2905" height="1422" viewBox="0 0 2905 1422" fill="none" xmlns="http://www.w3.org/2000/svg">
<rect x="2.36667" y="1260.99" width="2900.21" height="158.645" fill="url(#paint0_linear)" fill-opacity="0.2" stroke="url(#paint1_linear)" stroke-width="4.73334"/>
<rect x="839.312" y="982.183" width="230.97" height="297.458" rx="6.96667" fill="#464649" stroke="url(#paint2_linear)" stroke-width="5"/>
<mask id="path-3-inside-1" fill="white">
<rect x="867.216" y="980.095" width="235.97" height="302.458" rx="4.73334"/>
</mask>
<rect x="867.216" y="980.095" width="235.97" height="302.458" rx="4.73334" fill="#111111" stroke="url(#paint3_linear)" stroke-width="10" mask="url(#path-3-inside-1)"/>
<mask id="path-4-inside-2" fill="white">
<path fill-rule="evenodd" clip-rule="evenodd" d="M985.856 1107.86C1012.5 1107.86 1034.09 1083.93 1034.09 1054.41C1034.09 1024.89 1012.5 1000.96 985.856 1000.96C959.215 1000.96 937.619 1024.89 937.619 1054.41C937.619 1083.93 959.215 1107.86 985.856 1107.86ZM985.204 1269.52C1021.56 1269.52 1051.04 1235.95 1051.04 1194.55C1051.04 1153.15 1021.56 1119.59 985.204 1119.59C948.843 1119.59 919.367 1153.15 919.367 1194.55C919.367 1235.95 948.843 1269.52 985.204 1269.52Z"/>
</mask>
<path fill-rule="evenodd" clip-rule="evenodd" d="M985.856 1107.86C1012.5 1107.86 1034.09 1083.93 1034.09 1054.41C1034.09 1024.89 1012.5 1000.96 985.856 1000.96C959.215 1000.96 937.619 1024.89 937.619 1054.41C937.619 1083.93 959.215 1107.86 985.856 1107.86ZM985.204 1269.52C1021.56 1269.52 1051.04 1235.95 1051.04 1194.55C1051.04 1153.15 1021.56 1119.59 985.204 1119.59C948.843 1119.59 919.367 1153.15 919.367 1194.55C919.367 1235.95 948.843 1269.52 985.204 1269.52Z" fill="#646569" fill-opacity="0.2"/>
<path d="M1029.09 1054.41C1029.09 1081.66 1009.26 1102.86 985.856 1102.86V1112.86C1015.73 1112.86 1039.09 1086.19 1039.09 1054.41H1029.09ZM985.856 1005.96C1009.26 1005.96 1029.09 1027.15 1029.09 1054.41H1039.09C1039.09 1022.62 1015.73 995.955 985.856 995.955V1005.96ZM942.619 1054.41C942.619 1027.15 962.447 1005.96 985.856 1005.96V995.955C955.983 995.955 932.619 1022.62 932.619 1054.41H942.619ZM985.856 1102.86C962.447 1102.86 942.619 1081.66 942.619 1054.41H932.619C932.619 1086.19 955.983 1112.86 985.856 1112.86V1102.86ZM1046.04 1194.55C1046.04 1233.82 1018.21 1264.52 985.204 1264.52V1274.52C1024.92 1274.52 1056.04 1238.09 1056.04 1194.55H1046.04ZM985.204 1124.59C1018.21 1124.59 1046.04 1155.29 1046.04 1194.55H1056.04C1056.04 1151.02 1024.92 1114.59 985.204 1114.59V1124.59ZM924.367 1194.55C924.367 1155.29 952.195 1124.59 985.204 1124.59V1114.59C945.492 1114.59 914.367 1151.02 914.367 1194.55H924.367ZM985.204 1264.52C952.195 1264.52 924.367 1233.82 924.367 1194.55H914.367C914.367 1238.09 945.492 1274.52 985.204 1274.52V1264.52Z" fill="url(#paint4_linear)" mask="url(#path-4-inside-2)"/>
<mask id="path-6-inside-3" fill="white">
<path d="M1038.94 1206.29C1041.3 1206.29 1043.23 1204.37 1043.11 1202.01C1042.66 1193 1040.78 1184.15 1037.56 1175.88C1033.83 1166.31 1028.38 1157.73 1021.56 1150.71C1014.74 1143.68 1006.7 1138.36 997.962 1135.08C990.727 1132.37 983.144 1131.11 975.554 1131.35C972.919 1131.44 971.013 1133.79 971.244 1136.42C971.483 1139.14 973.923 1141.11 976.657 1141.07C982.972 1140.98 989.268 1142.07 995.288 1144.33C1002.89 1147.18 1009.88 1151.81 1015.82 1157.93C1021.75 1164.04 1026.49 1171.5 1029.74 1179.83C1032.48 1186.86 1034.1 1194.37 1034.54 1202.01C1034.68 1204.37 1036.58 1206.29 1038.94 1206.29Z"/>
</mask>
<path d="M1038.94 1206.29C1041.3 1206.29 1043.23 1204.37 1043.11 1202.01C1042.66 1193 1040.78 1184.15 1037.56 1175.88C1033.83 1166.31 1028.38 1157.73 1021.56 1150.71C1014.74 1143.68 1006.7 1138.36 997.962 1135.08C990.727 1132.37 983.144 1131.11 975.554 1131.35C972.919 1131.44 971.013 1133.79 971.244 1136.42C971.483 1139.14 973.923 1141.11 976.657 1141.07C982.972 1140.98 989.268 1142.07 995.288 1144.33C1002.89 1147.18 1009.88 1151.81 1015.82 1157.93C1021.75 1164.04 1026.49 1171.5 1029.74 1179.83C1032.48 1186.86 1034.1 1194.37 1034.54 1202.01C1034.68 1204.37 1036.58 1206.29 1038.94 1206.29Z" stroke="url(#paint5_linear)" stroke-width="6" mask="url(#path-6-inside-3)"/>
<rect x="357.148" y="749.404" width="412.901" height="530.652" rx="6.96667" fill="#464649" stroke="url(#paint6_linear)" stroke-width="5"/>
<rect x="412.563" y="749.404" width="412.901" height="530.652" rx="6.96667" fill="#111111" stroke="url(#paint7_linear)" stroke-width="5"/>
<mask id="path-9-inside-4" fill="white">
<path fill-rule="evenodd" clip-rule="evenodd" d="M620.164 973.171C667.344 973.171 705.591 930.789 705.591 878.508C705.591 826.228 667.344 783.846 620.164 783.846C572.984 783.846 534.737 826.228 534.737 878.508C534.737 930.789 572.984 973.171 620.164 973.171ZM619.012 1259.47C683.406 1259.47 735.608 1200.03 735.608 1126.71C735.608 1053.39 683.406 993.95 619.012 993.95C554.617 993.95 502.415 1053.39 502.415 1126.71C502.415 1200.03 554.617 1259.47 619.012 1259.47Z"/>
</mask>
<path fill-rule="evenodd" clip-rule="evenodd" d="M620.164 973.171C667.344 973.171 705.591 930.789 705.591 878.508C705.591 826.228 667.344 783.846 620.164 783.846C572.984 783.846 534.737 826.228 534.737 878.508C534.737 930.789 572.984 973.171 620.164 973.171ZM619.012 1259.47C683.406 1259.47 735.608 1200.03 735.608 1126.71C735.608 1053.39 683.406 993.95 619.012 993.95C554.617 993.95 502.415 1053.39 502.415 1126.71C502.415 1200.03 554.617 1259.47 619.012 1259.47Z" fill="#646569" fill-opacity="0.2"/>
<path d="M700.591 878.508C700.591 928.523 664.112 968.171 620.164 968.171V978.171C670.576 978.171 710.591 933.055 710.591 878.508H700.591ZM620.164 788.846C664.112 788.846 700.591 828.494 700.591 878.508H710.591C710.591 823.961 670.576 778.846 620.164 778.846V788.846ZM539.737 878.508C539.737 828.494 576.216 788.846 620.164 788.846V778.846C569.752 778.846 529.737 823.961 529.737 878.508H539.737ZM620.164 968.171C576.216 968.171 539.737 928.523 539.737 878.508H529.737C529.737 933.055 569.752 978.171 620.164 978.171V968.171ZM730.608 1126.71C730.608 1197.9 680.055 1254.47 619.012 1254.47V1264.47C686.758 1264.47 740.608 1202.16 740.608 1126.71H730.608ZM619.012 998.95C680.055 998.95 730.608 1055.52 730.608 1126.71H740.608C740.608 1051.26 686.758 988.95 619.012 988.95V998.95ZM507.415 1126.71C507.415 1055.52 557.969 998.95 619.012 998.95V988.95C551.266 988.95 497.415 1051.26 497.415 1126.71H507.415ZM619.012 1254.47C557.969 1254.47 507.415 1197.9 507.415 1126.71H497.415C497.415 1202.16 551.266 1264.47 619.012 1264.47V1254.47Z" fill="url(#paint8_linear)" mask="url(#path-9-inside-4)"/>
<mask id="path-11-inside-5" fill="white">
<path d="M714.182 1147.49C718.364 1147.49 721.775 1144.1 721.565 1139.92C720.765 1123.97 717.441 1108.29 711.735 1093.64C705.128 1076.69 695.474 1061.5 683.396 1049.06C671.318 1036.61 657.084 1027.18 641.611 1021.39C628.797 1016.58 615.369 1014.36 601.926 1014.78C597.26 1014.93 593.885 1019.1 594.293 1023.75C594.717 1028.57 599.038 1032.05 603.879 1031.98C615.063 1031.82 626.213 1033.77 636.875 1037.77C650.339 1042.81 662.724 1051.01 673.233 1061.84C683.742 1072.67 692.142 1085.89 697.89 1100.64C702.738 1113.08 705.61 1126.38 706.391 1139.92C706.632 1144.1 709.999 1147.49 714.182 1147.49Z"/>
</mask>
<path d="M714.182 1147.49C718.364 1147.49 721.775 1144.1 721.565 1139.92C720.765 1123.97 717.441 1108.29 711.735 1093.64C705.128 1076.69 695.474 1061.5 683.396 1049.06C671.318 1036.61 657.084 1027.18 641.611 1021.39C628.797 1016.58 615.369 1014.36 601.926 1014.78C597.26 1014.93 593.885 1019.1 594.293 1023.75C594.717 1028.57 599.038 1032.05 603.879 1031.98C615.063 1031.82 626.213 1033.77 636.875 1037.77C650.339 1042.81 662.724 1051.01 673.233 1061.84C683.742 1072.67 692.142 1085.89 697.89 1100.64C702.738 1113.08 705.61 1126.38 706.391 1139.92C706.632 1144.1 709.999 1147.49 714.182 1147.49Z" fill="url(#paint9_linear)" fill-opacity="0.2" stroke="url(#paint10_linear)" stroke-width="10" mask="url(#path-11-inside-5)"/>
<rect x="2228.77" y="985.128" width="230.97" height="297.458" rx="12.9859" fill="#464649" stroke="url(#paint11_linear)" stroke-width="5"/>
<rect x="2260.05" y="985.129" width="230.97" height="297.458" rx="12.9859" fill="#111111" stroke="url(#paint12_linear)" stroke-width="5"/>
<mask id="path-14-inside-6" fill="white">
<path fill-rule="evenodd" clip-rule="evenodd" d="M2376.19 1110.39C2402.83 1110.39 2424.43 1086.46 2424.43 1056.94C2424.43 1027.42 2402.83 1003.49 2376.19 1003.49C2349.55 1003.49 2327.95 1027.42 2327.95 1056.94C2327.95 1086.46 2349.55 1110.39 2376.19 1110.39ZM2375.54 1272.05C2411.9 1272.05 2441.38 1238.49 2441.38 1197.09C2441.38 1155.69 2411.9 1122.12 2375.54 1122.12C2339.18 1122.12 2309.7 1155.69 2309.7 1197.09C2309.7 1238.49 2339.18 1272.05 2375.54 1272.05Z"/>
</mask>
<path fill-rule="evenodd" clip-rule="evenodd" d="M2376.19 1110.39C2402.83 1110.39 2424.43 1086.46 2424.43 1056.94C2424.43 1027.42 2402.83 1003.49 2376.19 1003.49C2349.55 1003.49 2327.95 1027.42 2327.95 1056.94C2327.95 1086.46 2349.55 1110.39 2376.19 1110.39ZM2375.54 1272.05C2411.9 1272.05 2441.38 1238.49 2441.38 1197.09C2441.38 1155.69 2411.9 1122.12 2375.54 1122.12C2339.18 1122.12 2309.7 1155.69 2309.7 1197.09C2309.7 1238.49 2339.18 1272.05 2375.54 1272.05Z" fill="#646569" fill-opacity="0.2"/>
<path d="M2419.43 1056.94C2419.43 1084.19 2399.6 1105.39 2376.19 1105.39V1115.39C2406.06 1115.39 2429.43 1088.73 2429.43 1056.94H2419.43ZM2376.19 1008.49C2399.6 1008.49 2419.43 1029.69 2419.43 1056.94H2429.43C2429.43 1025.15 2406.06 998.489 2376.19 998.489V1008.49ZM2332.95 1056.94C2332.95 1029.69 2352.78 1008.49 2376.19 1008.49V998.489C2346.32 998.489 2322.95 1025.15 2322.95 1056.94H2332.95ZM2376.19 1105.39C2352.78 1105.39 2332.95 1084.19 2332.95 1056.94H2322.95C2322.95 1088.73 2346.32 1115.39 2376.19 1115.39V1105.39ZM2436.38 1197.09C2436.38 1236.36 2408.55 1267.05 2375.54 1267.05V1277.05C2415.25 1277.05 2446.38 1240.62 2446.38 1197.09H2436.38ZM2375.54 1127.12C2408.55 1127.12 2436.38 1157.82 2436.38 1197.09H2446.38C2446.38 1153.56 2415.25 1117.12 2375.54 1117.12V1127.12ZM2314.7 1197.09C2314.7 1157.82 2342.53 1127.12 2375.54 1127.12V1117.12C2335.83 1117.12 2304.7 1153.56 2304.7 1197.09H2314.7ZM2375.54 1267.05C2342.53 1267.05 2314.7 1236.36 2314.7 1197.09H2304.7C2304.7 1240.62 2335.83 1277.05 2375.54 1277.05V1267.05Z" fill="url(#paint13_linear)" mask="url(#path-14-inside-6)"/>
<mask id="path-16-inside-7" fill="white">
<path d="M2429.28 1208.82C2431.64 1208.82 2433.57 1206.9 2433.45 1204.55C2433 1195.54 2431.12 1186.69 2427.9 1178.42C2424.17 1168.84 2418.72 1160.27 2411.9 1153.24C2405.08 1146.21 2397.04 1140.89 2388.3 1137.62C2381.07 1134.9 2373.48 1133.65 2365.89 1133.89C2363.26 1133.97 2361.35 1136.32 2361.58 1138.95C2361.82 1141.67 2364.26 1143.64 2367 1143.6C2373.31 1143.51 2379.61 1144.61 2385.63 1146.86C2393.23 1149.71 2400.22 1154.34 2406.16 1160.46C2412.09 1166.57 2416.83 1174.04 2420.08 1182.37C2422.82 1189.39 2424.44 1196.9 2424.88 1204.55C2425.02 1206.9 2426.92 1208.82 2429.28 1208.82Z"/>
</mask>
<path d="M2429.28 1208.82C2431.64 1208.82 2433.57 1206.9 2433.45 1204.55C2433 1195.54 2431.12 1186.69 2427.9 1178.42C2424.17 1168.84 2418.72 1160.27 2411.9 1153.24C2405.08 1146.21 2397.04 1140.89 2388.3 1137.62C2381.07 1134.9 2373.48 1133.65 2365.89 1133.89C2363.26 1133.97 2361.35 1136.32 2361.58 1138.95C2361.82 1141.67 2364.26 1143.64 2367 1143.6C2373.31 1143.51 2379.61 1144.61 2385.63 1146.86C2393.23 1149.71 2400.22 1154.34 2406.16 1160.46C2412.09 1166.57 2416.83 1174.04 2420.08 1182.37C2422.82 1189.39 2424.44 1196.9 2424.88 1204.55C2425.02 1206.9 2426.92 1208.82 2429.28 1208.82Z" stroke="url(#paint14_linear)" stroke-width="6" mask="url(#path-16-inside-7)"/>
<rect x="1747.48" y="751.933" width="412.901" height="530.652" rx="6.96667" fill="#464649" stroke="url(#paint15_linear)" stroke-width="5"/>
<rect x="1802.9" y="751.932" width="412.901" height="530.652" rx="6.96667" fill="#111111" stroke="url(#paint16_linear)" stroke-width="5"/>
<mask id="path-19-inside-8" fill="white">
<path fill-rule="evenodd" clip-rule="evenodd" d="M2010.5 975.698C2057.68 975.698 2095.93 933.316 2095.93 881.036C2095.93 828.755 2057.68 786.373 2010.5 786.373C1963.32 786.373 1925.07 828.755 1925.07 881.036C1925.07 933.316 1963.32 975.698 2010.5 975.698ZM2009.35 1261.99C2073.74 1261.99 2125.94 1202.56 2125.94 1129.24C2125.94 1055.92 2073.74 996.478 2009.35 996.478C1944.95 996.478 1892.75 1055.92 1892.75 1129.24C1892.75 1202.56 1944.95 1261.99 2009.35 1261.99Z"/>
</mask>
<path fill-rule="evenodd" clip-rule="evenodd" d="M2010.5 975.698C2057.68 975.698 2095.93 933.316 2095.93 881.036C2095.93 828.755 2057.68 786.373 2010.5 786.373C1963.32 786.373 1925.07 828.755 1925.07 881.036C1925.07 933.316 1963.32 975.698 2010.5 975.698ZM2009.35 1261.99C2073.74 1261.99 2125.94 1202.56 2125.94 1129.24C2125.94 1055.92 2073.74 996.478 2009.35 996.478C1944.95 996.478 1892.75 1055.92 1892.75 1129.24C1892.75 1202.56 1944.95 1261.99 2009.35 1261.99Z" fill="#646569" fill-opacity="0.15"/>
<path d="M2090.93 881.036C2090.93 931.05 2054.45 970.698 2010.5 970.698V980.698C2060.91 980.698 2100.93 935.582 2100.93 881.036H2090.93ZM2010.5 791.373C2054.45 791.373 2090.93 831.021 2090.93 881.036H2100.93C2100.93 826.489 2060.91 781.373 2010.5 781.373V791.373ZM1930.07 881.036C1930.07 831.021 1966.55 791.373 2010.5 791.373V781.373C1960.09 781.373 1920.07 826.489 1920.07 881.036H1930.07ZM2010.5 970.698C1966.55 970.698 1930.07 931.05 1930.07 881.036H1920.07C1920.07 935.582 1960.09 980.698 2010.5 980.698V970.698ZM2120.94 1129.24C2120.94 1200.42 2070.39 1256.99 2009.35 1256.99V1266.99C2077.09 1266.99 2130.94 1204.69 2130.94 1129.24H2120.94ZM2009.35 1001.48C2070.39 1001.48 2120.94 1058.05 2120.94 1129.24H2130.94C2130.94 1053.78 2077.09 991.478 2009.35 991.478V1001.48ZM1897.75 1129.24C1897.75 1058.05 1948.3 1001.48 2009.35 1001.48V991.478C1941.6 991.478 1887.75 1053.78 1887.75 1129.24H1897.75ZM2009.35 1256.99C1948.3 1256.99 1897.75 1200.42 1897.75 1129.24H1887.75C1887.75 1204.69 1941.6 1266.99 2009.35 1266.99V1256.99Z" fill="url(#paint17_linear)" mask="url(#path-19-inside-8)"/>
<mask id="path-21-inside-9" fill="white">
<path d="M2104.52 1150.02C2108.7 1150.02 2112.11 1146.62 2111.9 1142.45C2111.1 1126.49 2107.78 1110.82 2102.07 1096.17C2095.46 1079.22 2085.81 1064.03 2073.73 1051.58C2061.65 1039.14 2047.42 1029.71 2031.95 1023.91C2019.13 1019.11 2005.7 1016.88 1992.26 1017.31C1987.6 1017.46 1984.22 1021.62 1984.63 1026.28C1985.05 1031.1 1989.37 1034.58 1994.22 1034.51C2005.4 1034.35 2016.55 1036.3 2027.21 1040.29C2040.67 1045.34 2053.06 1053.54 2063.57 1064.37C2074.08 1075.2 2082.48 1088.42 2088.23 1103.17C2093.07 1115.61 2095.95 1128.91 2096.73 1142.45C2096.97 1146.62 2100.34 1150.02 2104.52 1150.02Z"/>
</mask>
<path d="M2104.52 1150.02C2108.7 1150.02 2112.11 1146.62 2111.9 1142.45C2111.1 1126.49 2107.78 1110.82 2102.07 1096.17C2095.46 1079.22 2085.81 1064.03 2073.73 1051.58C2061.65 1039.14 2047.42 1029.71 2031.95 1023.91C2019.13 1019.11 2005.7 1016.88 1992.26 1017.31C1987.6 1017.46 1984.22 1021.62 1984.63 1026.28C1985.05 1031.1 1989.37 1034.58 1994.22 1034.51C2005.4 1034.35 2016.55 1036.3 2027.21 1040.29C2040.67 1045.34 2053.06 1053.54 2063.57 1064.37C2074.08 1075.2 2082.48 1088.42 2088.23 1103.17C2093.07 1115.61 2095.95 1128.91 2096.73 1142.45C2096.97 1146.62 2100.34 1150.02 2104.52 1150.02Z" fill="url(#paint18_linear)" fill-opacity="0.2" stroke="url(#paint19_linear)" stroke-width="10" mask="url(#path-21-inside-9)"/>
<path d="M1635.19 965.909L1657.43 904.76H1268.27L1234.91 992.496L1635.19 965.909Z" fill="#464649"/>
<path d="M1265.73 906.811C1222.24 1062.12 1096.63 1235.09 1202.78 1246.27L1596.91 1240.68C1514.98 1196.16 1614.86 1057.82 1658.35 902.503L1265.73 906.811Z" stroke="url(#paint20_linear)" stroke-width="4.73334"/>
<path fill-rule="evenodd" clip-rule="evenodd" d="M1269.03 903.974L1176.1 1138.74C1164.92 1172.28 1143.82 1242.15 1213.13 1242.15H1590.43V1242.29H1721.3V1281.41H1589.94V1281.28H1182.38C1147.92 1279.42 1092.39 1248.3 1146.05 1138.74L1232.69 903.974H1269.03Z" fill="#111111"/>
<path d="M1176.1 1138.74L1173.9 1137.87L1173.88 1137.93L1173.86 1137.99L1176.1 1138.74ZM1269.03 903.974L1271.23 904.845L1272.51 901.607H1269.03V903.974ZM1590.43 1242.15H1592.8V1239.78H1590.43V1242.15ZM1590.43 1242.29H1588.07V1244.65H1590.43V1242.29ZM1721.3 1242.29H1723.67V1239.92H1721.3V1242.29ZM1721.3 1281.41V1283.78H1723.67V1281.41H1721.3ZM1589.94 1281.41H1587.58V1283.78H1589.94V1281.41ZM1589.94 1281.28H1592.31V1278.91H1589.94V1281.28ZM1182.38 1281.28L1182.26 1283.64L1182.32 1283.65H1182.38V1281.28ZM1146.05 1138.74L1148.18 1139.78L1148.23 1139.67L1148.27 1139.56L1146.05 1138.74ZM1232.69 903.974V901.607H1231.04L1230.47 903.155L1232.69 903.974ZM1178.3 1139.61L1271.23 904.845L1266.83 903.103L1173.9 1137.87L1178.3 1139.61ZM1213.13 1239.78C1196.19 1239.78 1185.16 1235.52 1178.14 1228.98C1171.11 1222.43 1167.75 1213.28 1166.79 1202.81C1164.85 1181.72 1172.73 1156.33 1178.35 1139.49L1173.86 1137.99C1168.29 1154.69 1160.03 1181.01 1162.07 1203.24C1163.1 1214.43 1166.76 1224.84 1174.92 1232.44C1183.08 1240.05 1195.41 1244.52 1213.13 1244.52V1239.78ZM1590.43 1239.78H1213.13V1244.52H1590.43V1239.78ZM1592.8 1242.29V1242.15H1588.07V1242.29H1592.8ZM1590.43 1244.65H1721.3V1239.92H1590.43V1244.65ZM1718.94 1242.29V1281.41H1723.67V1242.29H1718.94ZM1721.3 1279.05H1589.94V1283.78H1721.3V1279.05ZM1592.31 1281.41V1281.28H1587.58V1281.41H1592.31ZM1182.38 1283.65H1589.94V1278.91H1182.38V1283.65ZM1143.93 1137.7C1116.96 1192.76 1117.07 1228.81 1129.08 1251.5C1141.08 1274.19 1164.51 1282.68 1182.26 1283.64L1182.51 1278.92C1165.79 1278.01 1144.23 1270.02 1133.26 1249.29C1122.3 1228.57 1121.48 1194.28 1148.18 1139.78L1143.93 1137.7ZM1230.47 903.155L1143.83 1137.92L1148.27 1139.56L1234.91 904.794L1230.47 903.155ZM1269.03 901.607H1232.69V906.341H1269.03V901.607Z" fill="url(#paint21_linear)"/>
<path d="M1597.92 1244.24V1279.52" stroke="url(#paint22_linear)" stroke-width="4.73334"/>
<rect x="743.327" y="36.8242" width="1354.57" height="871.288" rx="35.3667" fill="#464649" stroke="url(#paint23_linear)" stroke-width="5"/>
<rect x="807.059" y="36.8242" width="1354.57" height="871.288" rx="35.3667" fill="#111111" stroke="url(#paint24_linear)" stroke-width="5"/>
<rect x="885.637" y="143.87" width="1154.73" height="671.875" stroke="url(#paint25_linear)" stroke-width="2"/>
<rect x="988.781" y="614.418" width="327.87" height="154.861" stroke="url(#paint26_linear)" stroke-width="2"/>
<path d="M1016.18 686.1C1015.3 686.1 1014.66 685.853 1014.28 685.358C1013.9 684.855 1013.71 684.117 1013.71 683.144H1015.06C1015.06 683.714 1015.13 684.171 1015.28 684.515C1015.44 684.859 1015.75 685.031 1016.2 685.031C1016.54 685.031 1016.8 684.93 1016.97 684.729C1017.14 684.528 1017.24 684.263 1017.28 683.936C1017.33 683.601 1017.36 683.156 1017.36 682.603C1017.36 682.091 1017.33 681.685 1017.27 681.383C1017.22 681.072 1017.11 680.837 1016.94 680.678C1016.78 680.51 1016.54 680.427 1016.21 680.427C1015.95 680.427 1015.72 680.506 1015.52 680.666C1015.33 680.825 1015.18 681.026 1015.08 681.269H1013.94V675.81H1018.33V677.156H1015.16L1015.07 679.974C1015.43 679.596 1015.92 679.408 1016.54 679.408C1017.32 679.408 1017.87 679.676 1018.2 680.213C1018.54 680.741 1018.7 681.479 1018.7 682.427C1018.7 683.584 1018.52 684.486 1018.14 685.131C1017.76 685.777 1017.11 686.1 1016.18 686.1ZM1019.72 684.502H1021.06V686H1019.72V684.502ZM1024.62 686.113C1023.73 686.113 1023.09 685.857 1022.69 685.345C1022.3 684.834 1022.1 684.096 1022.1 683.131C1022.1 682.485 1022.21 681.97 1022.42 681.584C1022.63 681.198 1022.95 680.879 1023.36 680.628C1022.61 680.125 1022.23 679.366 1022.23 678.351C1022.23 677.521 1022.42 676.875 1022.82 676.413C1023.21 675.952 1023.81 675.722 1024.62 675.722C1025.41 675.722 1026.01 675.952 1026.39 676.413C1026.79 676.875 1026.98 677.521 1026.98 678.351C1026.98 678.896 1026.89 679.353 1026.69 679.722C1026.5 680.083 1026.22 680.385 1025.85 680.628C1026.26 680.888 1026.58 681.211 1026.79 681.596C1027.01 681.982 1027.12 682.494 1027.12 683.131C1027.12 684.087 1026.92 684.825 1026.53 685.345C1026.14 685.857 1025.5 686.113 1024.62 686.113ZM1024.62 680.011C1025.31 680.003 1025.66 679.424 1025.66 678.275C1025.66 677.822 1025.58 677.458 1025.41 677.181C1025.25 676.904 1024.99 676.766 1024.62 676.766C1024.25 676.766 1023.98 676.904 1023.8 677.181C1023.63 677.458 1023.55 677.822 1023.55 678.275C1023.55 678.779 1023.63 679.194 1023.79 679.521C1023.95 679.839 1024.22 680.003 1024.62 680.011ZM1024.62 685.043C1025.07 685.043 1025.39 684.88 1025.56 684.553C1025.74 684.217 1025.83 683.752 1025.83 683.156C1025.83 682.611 1025.73 682.167 1025.54 681.823C1025.35 681.479 1025.05 681.303 1024.62 681.295C1024.18 681.303 1023.87 681.479 1023.67 681.823C1023.48 682.167 1023.39 682.611 1023.39 683.156C1023.39 683.752 1023.47 684.217 1023.65 684.553C1023.83 684.88 1024.16 685.043 1024.62 685.043ZM1031.3 678.728H1032.55V679.42C1032.79 679.152 1033.06 678.95 1033.34 678.816C1033.64 678.674 1033.94 678.602 1034.26 678.602C1034.88 678.602 1035.28 678.909 1035.44 679.521C1035.95 678.909 1036.55 678.602 1037.26 678.602C1037.63 678.602 1037.94 678.741 1038.17 679.018C1038.42 679.294 1038.54 679.718 1038.54 680.288V686H1037.31V680.376C1037.31 680.041 1037.25 679.81 1037.14 679.684C1037.03 679.55 1036.88 679.483 1036.68 679.483C1036.49 679.483 1036.3 679.538 1036.1 679.647C1035.9 679.747 1035.71 679.89 1035.54 680.074V680.288V686H1034.31V680.376C1034.31 680.041 1034.26 679.81 1034.15 679.684C1034.04 679.55 1033.88 679.483 1033.68 679.483C1033.51 679.483 1033.32 679.538 1033.12 679.647C1032.91 679.747 1032.73 679.89 1032.55 680.074V686H1031.3V678.728ZM1041.54 686.1C1040.95 686.1 1040.48 685.916 1040.11 685.547C1039.75 685.178 1039.54 684.683 1039.49 684.062L1040.61 683.723C1040.68 684.192 1040.79 684.54 1040.95 684.767C1041.12 684.993 1041.35 685.106 1041.65 685.106C1041.89 685.106 1042.07 685.039 1042.2 684.905C1042.33 684.762 1042.4 684.574 1042.4 684.339C1042.4 684.129 1042.35 683.941 1042.26 683.773C1042.17 683.605 1042.01 683.433 1041.81 683.257L1040.56 682.188C1040.27 681.945 1040.05 681.689 1039.89 681.42C1039.74 681.144 1039.67 680.808 1039.67 680.414C1039.67 679.852 1039.83 679.416 1040.17 679.106C1040.51 678.787 1040.96 678.628 1041.54 678.628C1042.09 678.628 1042.53 678.808 1042.84 679.169C1043.16 679.521 1043.34 679.978 1043.39 680.54L1042.48 680.879C1042.43 680.468 1042.33 680.158 1042.2 679.948C1042.06 679.73 1041.86 679.621 1041.59 679.621C1041.37 679.621 1041.2 679.693 1041.06 679.835C1040.94 679.978 1040.87 680.154 1040.87 680.364C1040.87 680.632 1041 680.875 1041.24 681.093L1042.52 682.276C1042.85 682.578 1043.1 682.875 1043.28 683.169C1043.46 683.463 1043.55 683.819 1043.55 684.238C1043.55 684.842 1043.37 685.303 1043.01 685.622C1042.65 685.941 1042.16 686.1 1041.54 686.1Z" fill="url(#paint27_linear)"/>
<path fill-rule="evenodd" clip-rule="evenodd" d="M1045 662.437C1041.37 666.978 1036.15 669.978 1030.39 670.835L1029.96 667.89C1034.97 667.143 1039.51 664.531 1042.68 660.576C1045.84 656.621 1047.4 651.616 1047.03 646.563C1046.67 641.51 1044.4 636.782 1040.7 633.327C1036.99 629.871 1032.12 627.944 1027.05 627.929C1021.99 627.915 1017.1 629.816 1013.38 633.25C1011.5 634.981 1009.99 637.037 1008.9 639.297L1029.3 645.631L1028.27 648.936L1007.67 642.539C1007.31 643.808 1007.07 645.117 1006.97 646.45C1006.57 651.501 1008.1 656.515 1011.24 660.488C1014.39 664.46 1018.92 667.098 1023.92 667.873L1023.47 670.816C1017.72 669.926 1012.52 666.897 1008.91 662.336C1005.3 657.775 1003.54 652.017 1004 646.218C1004.45 640.418 1007.08 635.004 1011.36 631.061C1015.63 627.117 1021.24 624.935 1027.06 624.951C1032.88 624.968 1038.47 627.181 1042.73 631.149C1046.98 635.116 1049.58 640.545 1050 646.347C1050.42 652.149 1048.64 657.896 1045 662.437Z" fill="url(#paint28_linear)"/>
<path fill-rule="evenodd" clip-rule="evenodd" d="M1045 731.642C1041.37 736.183 1036.15 739.183 1030.39 740.04L1029.96 737.095C1034.97 736.348 1039.51 733.736 1042.68 729.781C1045.84 725.826 1047.4 720.821 1047.03 715.768C1046.67 710.715 1044.4 705.987 1040.7 702.532C1036.99 699.077 1032.12 697.149 1027.05 697.134C1021.99 697.12 1017.1 699.021 1013.38 702.455C1009.65 705.89 1007.36 710.605 1006.97 715.655C1006.82 717.506 1006.94 719.352 1007.29 721.144L1026.19 714.819L1027.29 718.101L1008.26 724.469C1008.98 726.335 1009.98 728.098 1011.24 729.693C1014.39 733.665 1018.92 736.303 1023.92 737.078L1023.47 740.021C1017.72 739.131 1012.52 736.102 1008.91 731.541C1007.43 729.673 1006.26 727.605 1005.43 725.415L1005.42 725.42L1005.23 724.863C1005.15 724.651 1005.08 724.437 1005.02 724.223L1004.32 722.139L1004.45 722.095C1003.98 719.923 1003.82 717.676 1004 715.423C1004.45 709.623 1007.08 704.21 1011.36 700.266C1015.63 696.322 1021.24 694.14 1027.06 694.156C1032.88 694.173 1038.47 696.386 1042.73 700.354C1046.98 704.322 1049.58 709.75 1050 715.552C1050.42 721.354 1048.64 727.101 1045 731.642Z" fill="url(#paint29_linear)"/>
<path d="M1013.99 755.113C1013.15 755.113 1012.52 754.807 1012.1 754.194C1011.69 753.574 1011.49 752.764 1011.49 751.766V748.332C1011.49 747.233 1011.68 746.357 1012.07 745.703C1012.45 745.049 1013.09 744.722 1013.99 744.722C1014.78 744.722 1015.39 744.935 1015.82 745.363C1016.24 745.791 1016.47 746.403 1016.48 747.2L1016.5 747.351H1015.14C1015.14 746.831 1015.05 746.449 1014.89 746.206C1014.72 745.954 1014.42 745.829 1013.99 745.829C1013.22 745.829 1012.83 746.554 1012.83 748.005V749.552C1012.97 749.334 1013.16 749.162 1013.41 749.037C1013.67 748.911 1013.98 748.848 1014.32 748.848C1015.12 748.848 1015.68 749.104 1016.02 749.615C1016.35 750.118 1016.52 750.844 1016.52 751.792C1016.52 752.79 1016.32 753.595 1015.9 754.207C1015.49 754.811 1014.86 755.113 1013.99 755.113ZM1013.99 753.993C1014.41 753.993 1014.71 753.821 1014.89 753.477C1015.07 753.133 1015.16 752.681 1015.16 752.119C1015.16 751.607 1015.14 751.2 1015.1 750.898C1015.06 750.596 1014.95 750.349 1014.78 750.156C1014.62 749.963 1014.35 749.867 1013.99 749.867C1013.73 749.867 1013.5 749.934 1013.3 750.068C1013.11 750.202 1012.95 750.366 1012.83 750.559V752.081C1012.83 752.66 1012.92 753.125 1013.1 753.477C1013.28 753.821 1013.58 753.993 1013.99 753.993ZM1020.32 755.113C1019.48 755.113 1018.85 754.807 1018.43 754.194C1018.02 753.574 1017.82 752.764 1017.82 751.766V748.332C1017.82 747.233 1018.01 746.357 1018.39 745.703C1018.78 745.049 1019.42 744.722 1020.32 744.722C1021.11 744.722 1021.72 744.935 1022.14 745.363C1022.57 745.791 1022.79 746.403 1022.81 747.2L1022.82 747.351H1021.46C1021.46 746.831 1021.38 746.449 1021.21 746.206C1021.04 745.954 1020.75 745.829 1020.32 745.829C1019.55 745.829 1019.16 746.554 1019.16 748.005V749.552C1019.3 749.334 1019.49 749.162 1019.74 749.037C1020 748.911 1020.3 748.848 1020.65 748.848C1021.44 748.848 1022.01 749.104 1022.34 749.615C1022.68 750.118 1022.85 750.844 1022.85 751.792C1022.85 752.79 1022.64 753.595 1022.23 754.207C1021.82 754.811 1021.18 755.113 1020.32 755.113ZM1020.32 753.993C1020.74 753.993 1021.04 753.821 1021.21 753.477C1021.4 753.133 1021.49 752.681 1021.49 752.119C1021.49 751.607 1021.47 751.2 1021.43 750.898C1021.38 750.596 1021.28 750.349 1021.11 750.156C1020.94 749.963 1020.68 749.867 1020.32 749.867C1020.06 749.867 1019.83 749.934 1019.63 750.068C1019.43 750.202 1019.28 750.366 1019.16 750.559V752.081C1019.16 752.66 1019.25 753.125 1019.43 753.477C1019.61 753.821 1019.91 753.993 1020.32 753.993ZM1024.03 753.502H1025.38V755H1024.03V753.502ZM1029.02 755.113C1028.18 755.113 1027.55 754.807 1027.13 754.194C1026.72 753.574 1026.51 752.764 1026.51 751.766V748.332C1026.51 747.233 1026.71 746.357 1027.09 745.703C1027.48 745.049 1028.12 744.722 1029.02 744.722C1029.81 744.722 1030.41 744.935 1030.84 745.363C1031.27 745.791 1031.49 746.403 1031.51 747.2L1031.52 747.351H1030.16C1030.16 746.831 1030.08 746.449 1029.91 746.206C1029.74 745.954 1029.44 745.829 1029.02 745.829C1028.25 745.829 1027.86 746.554 1027.86 748.005V749.552C1027.99 749.334 1028.19 749.162 1028.44 749.037C1028.7 748.911 1029 748.848 1029.34 748.848C1030.14 748.848 1030.71 749.104 1031.04 749.615C1031.38 750.118 1031.55 750.844 1031.55 751.792C1031.55 752.79 1031.34 753.595 1030.93 754.207C1030.52 754.811 1029.88 755.113 1029.02 755.113ZM1029.02 753.993C1029.44 753.993 1029.73 753.821 1029.91 753.477C1030.09 753.133 1030.19 752.681 1030.19 752.119C1030.19 751.607 1030.17 751.2 1030.12 750.898C1030.08 750.596 1029.98 750.349 1029.81 750.156C1029.64 749.963 1029.38 749.867 1029.02 749.867C1028.76 749.867 1028.53 749.934 1028.32 750.068C1028.13 750.202 1027.98 750.366 1027.86 750.559V752.081C1027.86 752.66 1027.95 753.125 1028.12 753.477C1028.31 753.821 1028.61 753.993 1029.02 753.993ZM1035.66 747.728H1036.91V748.42C1037.15 748.152 1037.42 747.95 1037.7 747.816C1038 747.674 1038.3 747.602 1038.62 747.602C1039.24 747.602 1039.64 747.909 1039.8 748.521C1040.31 747.909 1040.91 747.602 1041.62 747.602C1041.99 747.602 1042.3 747.741 1042.53 748.018C1042.78 748.294 1042.9 748.718 1042.9 749.288V755H1041.67V749.376C1041.67 749.041 1041.61 748.81 1041.5 748.684C1041.39 748.55 1041.24 748.483 1041.04 748.483C1040.85 748.483 1040.66 748.538 1040.46 748.647C1040.26 748.747 1040.07 748.89 1039.9 749.074V749.288V755H1038.67V749.376C1038.67 749.041 1038.62 748.81 1038.51 748.684C1038.4 748.55 1038.24 748.483 1038.04 748.483C1037.87 748.483 1037.68 748.538 1037.48 748.647C1037.27 748.747 1037.09 748.89 1036.91 749.074V755H1035.66V747.728ZM1045.9 755.1C1045.31 755.1 1044.84 754.916 1044.47 754.547C1044.11 754.178 1043.9 753.683 1043.85 753.062L1044.97 752.723C1045.04 753.192 1045.15 753.54 1045.31 753.767C1045.48 753.993 1045.71 754.106 1046.01 754.106C1046.25 754.106 1046.43 754.039 1046.56 753.905C1046.69 753.762 1046.76 753.574 1046.76 753.339C1046.76 753.129 1046.71 752.941 1046.62 752.773C1046.53 752.605 1046.37 752.433 1046.17 752.257L1044.92 751.188C1044.63 750.945 1044.41 750.689 1044.25 750.42C1044.1 750.144 1044.03 749.808 1044.03 749.414C1044.03 748.852 1044.19 748.416 1044.53 748.106C1044.87 747.787 1045.32 747.628 1045.9 747.628C1046.45 747.628 1046.89 747.808 1047.2 748.169C1047.52 748.521 1047.7 748.978 1047.75 749.54L1046.84 749.879C1046.79 749.468 1046.69 749.158 1046.56 748.948C1046.42 748.73 1046.22 748.621 1045.95 748.621C1045.73 748.621 1045.56 748.693 1045.42 748.835C1045.3 748.978 1045.23 749.154 1045.23 749.364C1045.23 749.632 1045.36 749.875 1045.6 750.093L1046.88 751.276C1047.21 751.578 1047.46 751.875 1047.64 752.169C1047.82 752.463 1047.91 752.819 1047.91 753.238C1047.91 753.842 1047.73 754.303 1047.37 754.622C1047.01 754.941 1046.52 755.1 1045.9 755.1Z" fill="url(#paint30_linear)"/>
<path fill-rule="evenodd" clip-rule="evenodd" d="M1255.06 624.645H1271.82V639.868H1255.06V624.645ZM1253.06 624.645H1236.61V639.868H1253.06V624.645ZM1234.61 624.645H1213.54V639.868H1234.61V624.645ZM1211.54 624.645H1190.48V639.868H1211.54V624.645ZM1188.48 624.645H1178.94V639.868H1188.48V624.645ZM1176.94 624.645H1167.4V639.868H1176.94V624.645ZM1165.4 624.645H1155.87V639.868H1165.4V624.645ZM1153.87 624.645H1144.34V639.868H1153.87V624.645ZM1142.34 624.645H1116.65V639.868H1142.34V624.645ZM1114.65 624.645H1107.43V639.868H1114.65V624.645ZM1105.43 624.645H1098.2V639.868H1105.43V624.645ZM1096.2 624.645H1091.28V639.868H1096.2V624.645ZM1089.28 624.645H1084.36V639.868H1089.28V624.645ZM1082.36 624.645H1079.74V639.868H1082.36V624.645ZM1077.74 624.645H1072.82V639.868H1077.74V624.645ZM1070.82 624.645H1063.6V639.868H1070.82V624.645ZM1063.6 641.868V659.092H1070.82V641.868H1063.6ZM1063.6 661.092V669.22C1063.86 669.339 1064.25 669.512 1064.74 669.732C1065.75 670.184 1067.23 670.834 1069.09 671.625C1069.63 671.859 1070.21 672.105 1070.82 672.362V661.092H1063.6ZM1063.6 671.413C1063.7 671.459 1063.81 671.507 1063.92 671.558C1064.95 672.015 1066.44 672.669 1068.3 673.465C1069.08 673.797 1069.92 674.154 1070.82 674.531V678.314H1063.6V671.413ZM1063.6 680.314V697.538H1070.82V680.314H1063.6ZM1063.6 699.538V716.761H1070.82V699.538H1063.6ZM1063.6 718.761V735.984H1070.82V718.761H1063.6ZM1070.82 737.984V737.984H1072.82V737.984H1077.74V737.984H1079.74V737.984H1082.36V737.984H1084.36V737.984H1089.28V737.984H1091.28V737.984H1096.2V737.984H1098.2V737.984H1105.43V737.984H1107.43V737.984H1114.65V737.984H1116.65V737.984H1142.34V737.984H1144.34V737.984H1153.87V737.984H1155.87V737.984H1165.4V737.984H1167.4V737.984H1176.94V737.984H1178.94V737.984H1188.48V737.984H1190.48V737.984H1211.54V737.984H1213.54V737.984H1234.61V737.984H1236.61V737.984H1253.06V737.984H1255.06V737.984H1271.82H1273.82V735.984V718.761H1273.83V716.761H1273.82V699.538H1273.83V697.538H1273.82V680.314H1273.83V678.314H1273.82V661.092H1273.83V659.092H1273.82V641.868H1273.83V639.868H1273.82V624.645V622.645H1271.82H1063.6H1061.6V624.645V735.984V737.984H1063.6H1070.82ZM1271.82 641.868H1255.06V659.092H1271.82V641.868ZM1271.82 661.092H1255.06V678.314H1271.82V661.092ZM1271.82 680.314H1255.6C1256.71 683.096 1257.61 686.02 1258.33 689.02C1259 691.801 1259.52 694.657 1259.9 697.538H1271.82V680.314ZM1271.82 699.538H1260.14C1260.79 705.358 1260.9 711.233 1260.62 716.761H1271.82V699.538ZM1271.82 718.761H1260.5C1260.06 725.311 1259.07 731.286 1257.8 735.984H1271.82V718.761ZM1255.73 735.984C1257.03 731.367 1258.04 725.37 1258.5 718.761H1255.06V735.984H1255.73ZM1253.06 735.984V718.761H1236.61V735.984H1253.06ZM1234.61 735.984V718.761H1213.54V735.984H1234.61ZM1211.54 735.984V718.761H1190.48V735.984H1211.54ZM1188.48 735.984V718.761H1178.94V735.984H1188.48ZM1176.94 735.984V718.761H1167.4V735.984H1176.94ZM1165.4 735.984V718.761H1155.87V735.984H1165.4ZM1153.87 735.984V718.761H1144.34V735.984H1153.87ZM1142.34 735.984V718.761H1116.65V735.984H1142.34ZM1114.65 735.984V718.761H1107.43V735.984H1114.65ZM1105.43 735.984V718.761H1098.2V735.984H1105.43ZM1096.2 735.984V718.761H1091.28V735.984H1096.2ZM1089.28 735.984V718.761H1084.36V735.984H1089.28ZM1082.36 735.984V718.761H1079.74V735.984H1082.36ZM1077.74 735.984V718.761H1072.82V735.984H1077.74ZM1072.82 675.361V678.314H1077.74V677.346C1075.99 676.653 1074.34 675.986 1072.82 675.361ZM1077.74 675.195C1075.98 674.493 1074.33 673.822 1072.82 673.197V661.092H1077.74V675.195ZM1079.74 678.13V678.314H1080.22C1080.06 678.253 1079.9 678.191 1079.74 678.13ZM1082.36 676.997C1081.47 676.655 1080.6 676.317 1079.74 675.984V661.092H1082.36V676.997ZM1085.87 678.314C1085.36 678.127 1084.86 677.94 1084.36 677.754V661.092H1089.28V678.314H1085.87ZM1085.51 680.314C1086.74 680.768 1088 681.224 1089.28 681.678V697.538H1084.36V680.314H1085.51ZM1091.28 682.38C1092.9 682.94 1094.54 683.495 1096.2 684.037V697.538H1091.28V682.38ZM1096.2 681.932C1094.59 681.403 1093 680.861 1091.43 680.314H1096.2V681.932ZM1098.2 684.68V697.538H1105.43V686.838C1103.01 686.165 1100.6 685.438 1098.2 684.68ZM1105.43 684.761C1103.02 684.08 1100.6 683.346 1098.2 682.581V680.314H1105.43V684.761ZM1107.43 687.384V697.538H1114.65V689.133C1112.28 688.625 1109.86 688.034 1107.43 687.384ZM1114.65 687.087C1112.29 686.571 1109.87 685.972 1107.43 685.314V680.314H1114.65V687.087ZM1116.65 689.545V697.538H1142.34V690.071C1136.22 691.186 1129.7 691.471 1122.6 690.534C1120.68 690.28 1118.69 689.946 1116.65 689.545ZM1142.34 688.037C1136.3 689.175 1129.87 689.476 1122.86 688.551C1120.86 688.287 1118.78 687.933 1116.65 687.506V680.314H1142.34V688.037ZM1144.34 689.674V697.538H1153.87V686.924C1150.79 688.032 1147.62 688.97 1144.34 689.674ZM1153.87 684.795C1150.78 685.936 1147.61 686.902 1144.34 687.627V680.314H1153.87V684.795ZM1155.87 686.177V697.538H1165.4V681.936C1162.29 683.477 1159.13 684.917 1155.87 686.177ZM1164.16 680.314C1161.44 681.656 1158.68 682.91 1155.87 684.028V680.314H1164.16ZM1167.4 680.927C1167.8 680.724 1168.19 680.52 1168.59 680.314H1176.94V697.538H1167.4V680.927ZM1172.34 678.314C1173.21 677.844 1174.07 677.37 1174.93 676.894C1175.6 676.526 1176.27 676.156 1176.94 675.786V678.314H1172.34ZM1176.94 673.498C1175.95 674.048 1174.96 674.597 1173.97 675.143C1172.01 676.22 1170.06 677.284 1168.09 678.314H1167.4V661.092H1176.94V673.498ZM1178.94 674.676V678.314H1188.48V669.523C1185.28 671.171 1182.11 672.916 1178.94 674.676ZM1188.48 667.273C1185.25 668.91 1182.09 670.645 1178.94 672.388V661.092H1188.48V667.273ZM1190.48 668.509V678.314H1211.54V661.092H1209.99C1203.11 662.724 1196.71 665.399 1190.48 668.509ZM1202.81 661.092C1198.55 662.538 1194.46 664.319 1190.48 666.275V661.092H1202.81ZM1211.54 658.703C1210.95 658.825 1210.36 658.955 1209.77 659.092H1190.48V641.868H1211.54V658.703ZM1223.11 661.092H1213.54V678.314H1234.61V670.798C1233.87 670.987 1233.1 671.088 1232.3 671.088C1227.21 671.088 1223.08 666.957 1223.08 661.861C1223.08 661.602 1223.09 661.346 1223.11 661.092ZM1234.61 668.713C1233.88 668.956 1233.11 669.088 1232.3 669.088C1228.31 669.088 1225.08 665.852 1225.08 661.861C1225.08 661.601 1225.09 661.345 1225.12 661.092H1234.61V668.713ZM1236.61 667.668V661.77C1237.58 662.185 1238.52 662.65 1239.41 663.163C1239.08 665.001 1238.05 666.597 1236.61 667.668ZM1236.61 670.025V678.314H1252.56C1250.77 674.497 1248.55 671.066 1245.82 668.21C1244.42 666.744 1242.89 665.426 1241.21 664.283C1240.53 666.773 1238.84 668.845 1236.61 670.025ZM1253.06 674.869C1251.44 671.905 1249.52 669.191 1247.27 666.829C1245.55 665.029 1243.64 663.438 1241.53 662.101C1241.53 662.021 1241.53 661.941 1241.53 661.861C1241.53 661.602 1241.52 661.346 1241.5 661.092H1253.06V674.869ZM1255.06 684.72V697.538H1257.88C1257.52 694.814 1257.02 692.116 1256.39 689.488C1256 687.866 1255.56 686.273 1255.06 684.72ZM1258.13 699.538H1255.06V716.761H1258.62C1258.9 711.238 1258.79 705.355 1258.13 699.538ZM1241.11 659.092C1240.37 656.757 1238.74 654.822 1236.61 653.697V641.868H1253.06V659.092H1241.11ZM1236.61 656.054C1237.65 656.828 1238.48 657.876 1238.98 659.092H1236.61V656.054ZM1234.61 655.009V658.905C1232.14 658.132 1229.46 657.64 1226.56 657.469C1227.88 655.745 1229.96 654.634 1232.3 654.634C1233.11 654.634 1233.88 654.766 1234.61 655.009ZM1234.61 652.924C1233.87 652.734 1233.1 652.634 1232.3 652.634C1228.82 652.634 1225.8 654.558 1224.22 657.401C1220.52 657.401 1216.96 657.732 1213.54 658.325V641.868H1234.61V652.924ZM1253.06 699.538V716.761H1236.61V699.538H1253.06ZM1234.61 699.538V716.761H1213.54V699.538H1234.61ZM1211.54 699.538V716.761H1190.48V699.538H1211.54ZM1188.48 699.538V716.761H1178.94V699.538H1188.48ZM1176.94 699.538V716.761H1167.4V699.538H1176.94ZM1165.4 699.538V716.761H1155.87V699.538H1165.4ZM1153.87 699.538V716.761H1144.34V699.538H1153.87ZM1142.34 699.538V716.761H1116.65V699.538H1142.34ZM1114.65 699.538V716.761H1107.43V699.538H1114.65ZM1105.43 699.538V716.761H1098.2V699.538H1105.43ZM1096.2 699.538V716.761H1091.28V699.538H1096.2ZM1089.28 699.538V716.761H1084.36V699.538H1089.28ZM1082.36 699.538V716.761H1079.74V699.538H1082.36ZM1077.74 699.538V716.761H1072.82V699.538H1077.74ZM1072.82 697.538H1077.74V680.314H1072.82V697.538ZM1079.74 697.538H1082.36V680.314H1079.74V697.538ZM1178.94 697.538H1188.48V680.314H1178.94V697.538ZM1190.48 697.538H1211.54V680.314H1190.48V697.538ZM1213.54 697.538H1234.61V680.314H1213.54V697.538ZM1236.61 697.538H1253.06V680.314H1236.61V697.538ZM1155.87 661.092H1165.4V678.314H1155.87V661.092ZM1144.34 661.092H1153.87V678.314H1144.34V661.092ZM1116.65 661.092H1142.34V678.314H1116.65V661.092ZM1107.43 661.092H1114.65V678.314H1107.43V661.092ZM1098.2 661.092H1105.43V678.314H1098.2V661.092ZM1091.28 661.092H1096.2V678.314H1091.28V661.092ZM1072.82 659.092H1077.74V641.868H1072.82V659.092ZM1079.74 659.092H1082.36V641.868H1079.74V659.092ZM1084.36 659.092H1089.28V641.868H1084.36V659.092ZM1091.28 659.092H1096.2V641.868H1091.28V659.092ZM1098.2 659.092H1105.43V641.868H1098.2V659.092ZM1107.43 659.092H1114.65V641.868H1107.43V659.092ZM1116.65 659.092H1142.34V641.868H1116.65V659.092ZM1144.34 659.092H1153.87V641.868H1144.34V659.092ZM1155.87 659.092H1165.4V641.868H1155.87V659.092ZM1167.4 659.092H1176.94V641.868H1167.4V659.092ZM1178.94 659.092H1188.48V641.868H1178.94V659.092ZM1236.61 762.443H1278.74V746.904H1236.61V762.443ZM1278.74 764.443H1280.74V762.443V746.904V744.904H1278.74H1236.61H1234.61V746.904V762.443V764.443H1236.61H1278.74ZM1247.16 756.675C1244.11 754.893 1242.25 752.401 1242.25 749.281C1242.25 748.728 1241.8 748.281 1241.25 748.281C1240.7 748.281 1240.25 748.728 1240.25 749.281C1240.25 753.342 1242.72 756.394 1246.15 758.401C1249.57 760.402 1254.06 761.446 1258.47 761.528C1262.89 761.61 1267.36 760.732 1270.72 758.757C1274.12 756.76 1276.44 753.598 1276.26 749.241C1276.24 748.689 1275.78 748.259 1275.23 748.281C1274.67 748.303 1274.24 748.769 1274.27 749.321C1274.4 752.779 1272.63 755.32 1269.71 757.032C1266.75 758.767 1262.68 759.605 1258.51 759.528C1254.35 759.451 1250.21 758.463 1247.16 756.675ZM1105.73 746.906H1063.6V762.455H1105.73V746.906ZM1063.6 744.906H1061.6V746.906V762.455V764.455H1063.6H1105.73H1107.73V762.455V746.906V744.906H1105.73H1063.6ZM1075.86 751.176C1072.7 751.43 1069.65 751.675 1067.07 751.675C1066.52 751.675 1066.07 751.228 1066.07 750.675C1066.07 750.123 1066.52 749.675 1067.07 749.675C1069.56 749.675 1072.5 749.439 1075.66 749.186L1075.66 749.185C1076.4 749.126 1077.16 749.065 1077.92 749.006C1081.89 748.701 1086.07 748.451 1089.85 748.7C1093.61 748.948 1097.14 749.697 1099.69 751.509C1102.33 753.377 1103.82 756.285 1103.65 760.49C1103.63 761.042 1103.16 761.471 1102.61 761.449C1102.06 761.427 1101.63 760.962 1101.65 760.41C1101.8 756.796 1100.56 754.571 1098.54 753.141C1096.44 751.654 1093.37 750.936 1089.72 750.696C1086.1 750.457 1082.04 750.695 1078.07 751C1077.33 751.058 1076.59 751.117 1075.86 751.176ZM1121.27 746.906H1163.4V762.455H1121.27V746.906ZM1163.4 744.906H1165.4V746.906V762.455V764.455H1163.4H1121.27H1119.27V762.455V746.906V744.906H1121.27H1163.4ZM1151.14 751.176C1154.3 751.43 1157.35 751.675 1159.93 751.675C1160.48 751.675 1160.93 751.228 1160.93 750.675C1160.93 750.123 1160.48 749.675 1159.93 749.675C1157.44 749.675 1154.5 749.439 1151.34 749.186L1151.34 749.185C1150.6 749.126 1149.84 749.065 1149.08 749.006C1145.11 748.701 1140.93 748.451 1137.14 748.7C1133.38 748.948 1129.86 749.697 1127.3 751.509C1124.67 753.377 1123.18 756.285 1123.35 760.49C1123.37 761.042 1123.84 761.471 1124.39 761.449C1124.94 761.427 1125.37 760.962 1125.35 760.41C1125.2 756.796 1126.44 754.571 1128.46 753.141C1130.56 751.654 1133.63 750.936 1137.28 750.696C1140.9 750.457 1144.95 750.695 1148.92 751C1149.67 751.058 1150.41 751.117 1151.14 751.176ZM1221.07 746.906H1178.94V762.455H1221.07V746.906ZM1223.07 744.906H1221.07H1178.94H1176.94V746.906V762.455V764.455H1178.94H1221.07H1223.07V762.455V746.906V744.906ZM1216.6 760.074C1216.6 756.952 1214.73 754.458 1211.69 752.676C1208.63 750.887 1204.5 749.897 1200.33 749.821C1196.17 749.744 1192.09 750.582 1189.14 752.318C1186.22 754.032 1184.44 756.574 1184.58 760.034C1184.6 760.586 1184.17 761.051 1183.62 761.074C1183.07 761.096 1182.6 760.666 1182.58 760.114C1182.41 755.755 1184.72 752.591 1188.12 750.593C1191.49 748.617 1195.96 747.739 1200.37 747.821C1204.79 747.902 1209.28 748.947 1212.7 750.95C1216.13 752.958 1218.6 756.012 1218.6 760.074C1218.6 760.627 1218.15 761.074 1217.6 761.074C1217.04 761.074 1216.6 760.627 1216.6 760.074Z" fill="url(#paint31_linear)"/>
<path fill-rule="evenodd" clip-rule="evenodd" d="M1451.14 617.724H1624.76V770.585H1451.14V617.724ZM1449.14 615.724H1451.14H1624.76H1626.76V617.724V770.585V772.585H1624.76H1451.14H1449.14V770.585V617.724V615.724ZM1565.26 656.258H1574.28V680.375H1570.92V748.32H1568.61V680.375H1565.26V656.258ZM1570.92 749.578H1568.61V749.578H1564V749.578V748.32V680.375V656.258V655H1565.26H1574.28H1575.53V656.258V748.32V749.578H1575.53V749.578H1570.92V749.578ZM1487.36 743.896C1484.99 746.847 1481.6 748.797 1477.86 749.354L1477.58 747.44C1480.83 746.954 1483.79 745.256 1485.85 742.686C1487.9 740.115 1488.92 736.862 1488.68 733.577C1488.44 730.293 1486.97 727.22 1484.56 724.974C1482.15 722.728 1478.98 721.475 1475.69 721.466C1472.4 721.456 1469.22 722.692 1466.8 724.924C1464.38 727.157 1462.89 730.221 1462.63 733.504C1462.51 735.063 1462.67 736.616 1463.09 738.093L1475.46 733.954L1475.84 735.091L1463.47 739.231C1463.94 740.444 1464.59 741.591 1465.41 742.628C1467.46 745.211 1470.4 746.925 1473.66 747.429L1473.36 749.342C1469.62 748.763 1466.24 746.795 1463.9 743.83C1462.93 742.615 1462.18 741.27 1461.63 739.846L1461.62 739.849L1461.49 739.443C1461.45 739.336 1461.42 739.228 1461.38 739.12L1461.24 738.711L1461.25 738.708C1460.75 736.986 1460.56 735.173 1460.7 733.353C1461 729.583 1462.71 726.064 1465.49 723.501C1468.27 720.938 1471.91 719.519 1475.69 719.53C1479.48 719.54 1483.11 720.979 1485.88 723.558C1488.64 726.137 1490.33 729.666 1490.61 733.437C1490.88 737.208 1489.72 740.944 1487.36 743.896ZM1477.86 712.445C1481.6 711.888 1484.99 709.938 1487.36 706.987C1489.72 704.035 1490.88 700.299 1490.61 696.528C1490.33 692.757 1488.64 689.228 1485.88 686.649C1483.11 684.07 1479.48 682.631 1475.69 682.621C1471.91 682.61 1468.27 684.028 1465.49 686.592C1462.71 689.155 1461 692.674 1460.7 696.444C1460.56 698.264 1460.75 700.078 1461.26 701.802L1461.24 701.805L1461.62 702.943L1461.64 702.939C1462.18 704.362 1462.94 705.707 1463.9 706.921C1466.24 709.886 1469.62 711.854 1473.36 712.432L1473.66 710.52C1470.4 710.016 1467.46 708.301 1465.41 705.719C1464.59 704.683 1463.94 703.537 1463.47 702.324L1475.84 698.185L1475.46 697.048L1463.09 701.187C1462.67 699.708 1462.51 698.154 1462.63 696.595C1462.89 693.312 1464.38 690.247 1466.8 688.015C1469.22 685.782 1472.4 684.547 1475.69 684.556C1478.98 684.566 1482.15 685.819 1484.56 688.065C1486.97 690.311 1488.44 693.384 1488.68 696.668C1488.92 699.953 1487.9 703.206 1485.85 705.777C1483.79 708.347 1480.83 710.045 1477.58 710.531L1477.86 712.445ZM1487.36 670.08C1484.99 673.031 1481.6 674.981 1477.86 675.538L1477.58 673.624C1480.83 673.139 1483.79 671.441 1485.85 668.87C1487.9 666.299 1488.92 663.046 1488.68 659.762C1488.44 656.477 1486.97 653.404 1484.56 651.158C1482.15 648.912 1478.98 647.659 1475.69 647.65C1472.4 647.64 1469.22 648.876 1466.8 651.108C1464.38 653.341 1462.89 656.405 1462.63 659.688C1462.51 661.247 1462.67 662.8 1463.09 664.278L1475.46 660.139L1475.84 661.276L1463.47 665.416C1463.94 666.629 1464.59 667.775 1465.41 668.813C1467.46 671.395 1470.4 673.109 1473.66 673.613L1473.36 675.526C1469.62 674.948 1466.24 672.979 1463.9 670.014C1462.93 668.799 1462.18 667.454 1461.64 666.03L1461.62 666.034L1461.48 665.599C1461.45 665.51 1461.42 665.421 1461.39 665.332L1461.24 664.897L1461.25 664.893C1460.75 663.17 1460.56 661.357 1460.7 659.537C1461 655.767 1462.71 652.248 1465.49 649.685C1468.27 647.122 1471.91 645.703 1475.69 645.714C1479.48 645.725 1483.11 647.163 1485.88 649.742C1488.64 652.321 1490.33 655.85 1490.61 659.621C1490.88 663.393 1489.72 667.128 1487.36 670.08ZM1514.73 625.952H1614.23V755.439H1514.73V625.952ZM1513.73 624.952H1514.73H1614.23H1615.23V625.952V755.439V756.439H1614.23H1514.73H1513.73V755.439V625.952V624.952ZM1542.71 655.941H1533.18V680.316H1536.8V748.519H1539.1V680.316H1542.71V655.941ZM1536.8 749.519H1539.1V749.519H1543.71V680.316H1543.71V655.941V654.941H1542.71H1533.18H1532.18V655.941V748.519V749.519H1532.18V749.519H1536.8V749.519ZM1588.54 655.941H1598.08V705.69H1594.46V748.519H1592.16V705.69H1588.54V655.941ZM1587.54 749.519V749.519H1587.54V705.69H1587.54V655.941V654.941H1588.54H1598.08H1599.08V655.941V748.519V749.519H1598.08H1588.54H1587.54Z" fill="url(#paint32_linear)"/>
<path fill-rule="evenodd" clip-rule="evenodd" d="M1672.12 186.664L977.774 186.664V287.759L1672.12 287.759V186.664ZM1644.44 288.162L1118.49 288.162V394.238H1644.44V288.162ZM1289.2 394.273L1815.14 394.273V495.767L1289.2 495.767V394.273ZM1644.44 495.772L1118.49 495.772V599.577H1644.44V495.772Z" fill="url(#paint33_linear)" fill-opacity="0.2"/>
<path fill-rule="evenodd" clip-rule="evenodd" d="M1673.81 190L1812.36 190V286.499H1673.81V190ZM1671.81 190L981 190V286.499L1671.81 286.499V190ZM981 288.499V392.609H1118.1V288.499H981ZM981 394.609V494.107H1288.77V394.609H981ZM981 496.107V596.914H1117.74V496.107H981ZM1119.74 596.914H1643.68V496.107L1119.74 496.107V596.914ZM1645.68 596.914H1812.36V496.107H1645.68V596.914ZM1815.36 496.107H1815.37V494.107H1815.36V394.609H1815.37V392.609H1815.36V288.499H1815.37V286.499H1815.36V190V187H1812.36L981 187H978V190V596.914V599.914H981H1812.36H1815.36V596.914V496.107ZM1812.36 288.499H1673.81V288.531H1671.81V288.499H1645.32V392.609L1812.36 392.609V288.499ZM1812.36 394.609L1290.05 394.609V494.107L1812.36 494.107V394.609ZM1119.37 288.499V392.609H1644.04V288.499L1119.37 288.499Z" fill="url(#paint34_linear)"/>
<path fill-rule="evenodd" clip-rule="evenodd" d="M2003.07 617.724H1755.63V770.585H2003.07V617.724ZM1755.63 615.724H1753.63V617.724V770.585V772.585H1755.63H2003.07H2005.07V770.585V617.724V615.724H2003.07L1755.63 615.724ZM1778.7 638.484H1977.7V690.456C1977.63 690.477 1977.56 690.507 1977.5 690.544C1977.04 690.808 1976.57 691.087 1976.07 691.374L1976.07 691.376C1972.2 693.638 1967.38 696.454 1962.85 697.475C1960.32 698.045 1957.99 698.024 1956.03 697.124C1954.08 696.235 1952.33 694.416 1951.06 691.057C1941.03 664.425 1929.44 655.307 1919.18 654.085C1909.02 652.875 1900.73 659.496 1897.46 663.04C1892.5 668.12 1883.34 674.639 1872.07 677.611C1860.83 680.576 1847.48 680.017 1834 670.972C1820 661.573 1807.54 661.312 1797.61 664.967C1789.29 668.03 1782.81 673.816 1778.7 679.093V638.484ZM1776.7 683.102V715.221V717.221H1778.7H1977.7H1979.7V715.221V638.484V636.484H1977.7H1778.7H1776.7V638.484V681.892L1776.66 681.956C1776.43 682.319 1776.46 682.777 1776.7 683.102ZM1778.7 682.494C1782.43 676.954 1789.24 670.179 1798.31 666.844C1807.61 663.419 1819.4 663.577 1832.89 672.632C1846.91 682.041 1860.86 682.636 1872.58 679.545C1884.26 676.464 1893.73 669.725 1898.9 664.427L1898.91 664.417L1898.91 664.407C1902.04 661.027 1909.73 654.975 1918.94 656.071C1928.06 657.156 1939.24 665.339 1949.19 691.762C1950.59 695.485 1952.66 697.783 1955.19 698.943C1957.7 700.091 1960.52 700.05 1963.29 699.426C1968.15 698.331 1973.26 695.339 1977.09 693.096L1977.09 693.095L1977.46 692.879L1977.7 692.741V715.221H1778.7V682.494ZM1826.88 763.142C1831.77 762.414 1836.21 759.864 1839.3 756.004C1842.39 752.144 1843.91 747.259 1843.55 742.328C1843.19 737.396 1840.98 732.782 1837.37 729.409C1833.75 726.037 1828.99 724.155 1824.05 724.141C1819.1 724.127 1814.34 725.982 1810.7 729.334C1807.07 732.686 1804.83 737.288 1804.45 742.218C1804.26 744.599 1804.51 746.971 1805.17 749.225L1805.15 749.228L1805.28 749.595C1805.36 749.846 1805.44 750.096 1805.53 750.344L1805.65 750.716L1805.66 750.712C1806.37 752.573 1807.36 754.331 1808.62 755.918C1811.69 759.795 1816.11 762.37 1820.99 763.126L1821.38 760.624C1817.13 759.966 1813.28 757.724 1810.6 754.347C1809.53 752.992 1808.68 751.494 1808.07 749.908L1824.25 744.494L1823.75 743.007L1807.57 748.421C1807.02 746.487 1806.81 744.455 1806.97 742.415C1807.31 738.122 1809.25 734.115 1812.42 731.195C1815.58 728.276 1819.73 726.66 1824.04 726.673C1828.35 726.685 1832.49 728.323 1835.64 731.26C1838.79 734.197 1840.71 738.216 1841.02 742.511C1841.34 746.806 1840.01 751.061 1837.32 754.422C1834.63 757.784 1830.77 760.004 1826.51 760.639L1826.88 763.142ZM1894.66 756.005C1891.57 759.864 1887.13 762.414 1882.24 763.143L1881.87 760.639C1886.13 760.004 1889.99 757.784 1892.68 754.422C1895.38 751.061 1896.7 746.806 1896.39 742.511C1896.07 738.216 1894.15 734.198 1891 731.261C1887.85 728.324 1883.71 726.685 1879.4 726.673C1875.1 726.661 1870.94 728.276 1867.78 731.195C1864.61 734.115 1862.67 738.122 1862.33 742.416C1862.17 744.455 1862.38 746.488 1862.93 748.422L1879.11 743.007L1879.61 744.495L1863.43 749.909C1864.04 751.494 1864.89 752.992 1865.96 754.347C1868.64 757.724 1872.49 759.966 1876.74 760.625L1876.36 763.126C1871.47 762.37 1867.05 759.796 1863.98 755.918C1862.72 754.331 1861.73 752.574 1861.03 750.713L1861.02 750.716L1860.92 750.431C1860.81 750.126 1860.71 749.817 1860.61 749.507L1860.52 749.229L1860.53 749.226C1859.87 746.972 1859.62 744.599 1859.81 742.218C1860.19 737.288 1862.43 732.687 1866.06 729.335C1869.7 725.982 1874.46 724.128 1879.41 724.141C1884.35 724.155 1889.11 726.037 1892.73 729.409C1896.34 732.782 1898.55 737.396 1898.91 742.328C1899.27 747.26 1897.75 752.145 1894.66 756.005ZM1937.6 763.143C1942.49 762.414 1946.93 759.864 1950.02 756.005C1953.11 752.145 1954.63 747.26 1954.27 742.328C1953.91 737.396 1951.7 732.782 1948.09 729.409C1944.47 726.037 1939.71 724.155 1934.77 724.141C1929.82 724.128 1925.06 725.982 1921.42 729.335C1917.79 732.687 1915.55 737.288 1915.17 742.218C1914.98 744.599 1915.23 746.972 1915.89 749.226L1915.88 749.229L1915.96 749.467C1916.06 749.804 1916.17 750.139 1916.29 750.47L1916.38 750.716L1916.39 750.714C1917.09 752.574 1918.08 754.331 1919.34 755.918C1922.41 759.796 1926.83 762.37 1931.72 763.126L1932.1 760.625C1927.85 759.966 1924 757.724 1921.32 754.347C1920.25 752.992 1919.4 751.495 1918.79 749.91L1934.97 744.495L1934.47 743.007L1918.29 748.422C1917.74 746.488 1917.53 744.456 1917.69 742.416C1918.03 738.122 1919.97 734.115 1923.14 731.195C1926.3 728.276 1930.46 726.661 1934.76 726.673C1939.07 726.685 1943.21 728.324 1946.36 731.261C1949.51 734.198 1951.43 738.216 1951.75 742.511C1952.06 746.806 1950.74 751.061 1948.04 754.422C1945.35 757.784 1941.49 760.004 1937.23 760.639L1937.6 763.143Z" fill="url(#paint35_linear)"/>
<path fill-rule="evenodd" clip-rule="evenodd" d="M2004.11 494.465H1851.52V593.963H2004.11V494.465ZM1851.52 493.465H1850.52V494.465V593.963V594.963H1851.52H2004.11H2005.11V593.963V494.465V493.465H2004.11H1851.52ZM1913.54 503.833H1860.89V522.133H1913.54V503.833ZM1860.89 502.833H1859.89V503.833V522.133V523.133H1860.89H1913.54H1914.54V522.133V503.833V502.833H1913.54H1860.89ZM1891.12 531.941H1913.54V550.241H1891.12V531.941ZM1890.12 531.941H1860.89V550.241H1890.12V531.941ZM1891.12 530.941H1913.54H1914.54V531.941V550.241V551.241H1913.54H1891.12H1890.12H1860.89H1859.89V550.241V531.941V530.941H1860.89H1890.12H1891.12ZM1990.05 531.941H1926.47V550.241H1990.05V531.941ZM1926.47 530.941H1925.47V531.941V550.241V551.241H1926.47H1990.05H1991.05V550.241V531.941V530.941H1990.05H1926.47ZM1912.42 561.61H1946.33V579.909H1912.42V561.61ZM1911.42 560.61H1912.42H1946.33H1947.33V561.61V579.909V580.909H1946.33H1912.42H1911.42V579.909V561.61V560.61ZM1894.8 561.61H1860.89V579.909H1894.8V561.61ZM1860.89 560.61H1859.89V561.61V579.909V580.909H1860.89H1894.8H1895.8V579.909V561.61V560.61H1894.8H1860.89Z" fill="url(#paint36_linear)"/>
<rect x="1933.78" y="503.333" width="27.1073" height="19.2997" stroke="url(#paint37_linear)"/>
<path d="M1945.24 518.28L1944.52 518.979L1944.53 518.987L1945.24 518.28ZM1944.26 515.92L1943.97 514.963L1943.2 515.197L1943.26 516.001L1944.26 515.92ZM1946.04 515.38L1947.03 515.239L1946.86 514.085L1945.75 514.423L1946.04 515.38ZM1946.58 517.04L1945.76 517.615L1945.77 517.625L1945.78 517.635L1946.58 517.04ZM1948.56 517.26L1947.83 516.575L1947.83 516.576L1948.56 517.26ZM1948.66 515.46L1947.78 515.942V515.942L1948.66 515.46ZM1947.94 514.64L1947.29 515.399L1947.3 515.406L1947.94 514.64ZM1945.96 512.94L1946.61 512.181L1946.61 512.179L1945.96 512.94ZM1944.9 511.72L1944.02 512.199L1944.03 512.215L1944.04 512.231L1944.9 511.72ZM1945.34 508.04L1946.02 508.774L1946.03 508.765L1945.34 508.04ZM1949.58 508.14L1948.82 508.792L1948.83 508.802L1948.84 508.811L1949.58 508.14ZM1950.46 510.32L1950.81 511.256L1951.52 510.989L1951.46 510.231L1950.46 510.32ZM1949.02 510.86L1948.03 511.001L1948.21 512.233L1949.37 511.796L1949.02 510.86ZM1948.56 509.38L1947.71 509.904L1947.71 509.912L1947.72 509.919L1948.56 509.38ZM1946.76 509.2L1946.03 508.515L1946.02 508.526L1946.01 508.538L1946.76 509.2ZM1947.04 511.2L1947.72 510.465L1947.71 510.455L1947.04 511.2ZM1949.08 513.08L1949.76 512.345L1949.76 512.345L1949.08 513.08ZM1950.28 514.5L1949.42 515.014L1949.43 515.023L1949.43 515.032L1950.28 514.5ZM1949.86 518.4L1949.2 517.651L1949.86 518.4ZM1947.52 518.16C1946.81 518.16 1946.32 517.948 1945.95 517.573L1944.53 518.987C1945.33 519.785 1946.36 520.16 1947.52 520.16V518.16ZM1945.95 517.581C1945.58 517.194 1945.32 516.643 1945.26 515.839L1943.26 516.001C1943.36 517.17 1943.76 518.193 1944.52 518.979L1945.95 517.581ZM1944.55 516.877L1946.33 516.337L1945.75 514.423L1943.97 514.963L1944.55 516.877ZM1945.05 515.521C1945.16 516.328 1945.37 517.065 1945.76 517.615L1947.4 516.465C1947.28 516.295 1947.13 515.926 1947.03 515.239L1945.05 515.521ZM1945.78 517.635C1946.25 518.27 1946.93 518.58 1947.7 518.58V516.58C1947.51 516.58 1947.45 516.53 1947.38 516.445L1945.78 517.635ZM1947.7 518.58C1948.27 518.58 1948.85 518.411 1949.29 517.944L1947.83 516.576C1947.83 516.572 1947.84 516.568 1947.84 516.564C1947.85 516.561 1947.85 516.561 1947.85 516.563C1947.84 516.567 1947.79 516.58 1947.7 516.58V518.58ZM1949.29 517.945C1949.71 517.497 1949.88 516.934 1949.88 516.36H1947.88C1947.88 516.532 1947.84 516.569 1947.83 516.575L1949.29 517.945ZM1949.88 516.36C1949.88 515.875 1949.77 515.406 1949.54 514.978L1947.78 515.942C1947.84 516.047 1947.88 516.179 1947.88 516.36H1949.88ZM1949.54 514.978C1949.31 514.567 1948.97 514.202 1948.58 513.874L1947.3 515.406C1947.57 515.638 1947.72 515.819 1947.78 515.942L1949.54 514.978ZM1948.59 513.881L1946.61 512.181L1945.31 513.699L1947.29 515.399L1948.59 513.881ZM1946.61 512.179C1946.22 511.85 1945.95 511.525 1945.76 511.209L1944.04 512.231C1944.36 512.768 1944.79 513.257 1945.31 513.701L1946.61 512.179ZM1945.78 511.241C1945.63 510.98 1945.54 510.621 1945.54 510.12H1943.54C1943.54 510.873 1943.68 511.58 1944.02 512.199L1945.78 511.241ZM1945.54 510.12C1945.54 509.437 1945.74 509.036 1946.02 508.774L1944.66 507.306C1943.88 508.031 1943.54 509.017 1943.54 510.12H1945.54ZM1946.03 508.765C1946.33 508.476 1946.79 508.28 1947.52 508.28V506.28C1946.41 506.28 1945.41 506.59 1944.65 507.315L1946.03 508.765ZM1947.52 508.28C1948.16 508.28 1948.55 508.477 1948.82 508.792L1950.34 507.488C1949.62 506.657 1948.64 506.28 1947.52 506.28V508.28ZM1948.84 508.811C1949.17 509.181 1949.4 509.69 1949.46 510.409L1951.46 510.231C1951.36 509.163 1951 508.219 1950.32 507.469L1948.84 508.811ZM1950.11 509.384L1948.67 509.924L1949.37 511.796L1950.81 511.256L1950.11 509.384ZM1950.01 510.719C1949.91 510.006 1949.73 509.349 1949.4 508.841L1947.72 509.919C1947.82 510.077 1947.94 510.407 1948.03 511.001L1950.01 510.719ZM1949.41 508.856C1949.01 508.197 1948.35 507.86 1947.6 507.86V509.86C1947.68 509.86 1947.69 509.874 1947.68 509.869C1947.68 509.868 1947.68 509.866 1947.68 509.868C1947.68 509.871 1947.69 509.881 1947.71 509.904L1949.41 508.856ZM1947.6 507.86C1947.01 507.86 1946.46 508.063 1946.03 508.515L1947.49 509.885C1947.49 509.878 1947.5 509.875 1947.5 509.875C1947.5 509.874 1947.5 509.873 1947.5 509.872C1947.51 509.87 1947.54 509.86 1947.6 509.86V507.86ZM1946.01 508.538C1945.63 508.967 1945.46 509.49 1945.46 510.04H1947.46C1947.46 509.923 1947.49 509.886 1947.51 509.862L1946.01 508.538ZM1945.46 510.04C1945.46 510.811 1945.82 511.453 1946.37 511.945L1947.71 510.455C1947.48 510.254 1947.46 510.122 1947.46 510.04H1945.46ZM1946.36 511.935L1948.4 513.815L1949.76 512.345L1947.72 510.465L1946.36 511.935ZM1948.4 513.815C1948.87 514.248 1949.2 514.65 1949.42 515.014L1951.14 513.986C1950.8 513.417 1950.33 512.872 1949.76 512.345L1948.4 513.815ZM1949.43 515.032C1949.61 515.309 1949.72 515.682 1949.72 516.2H1951.72C1951.72 515.385 1951.54 514.624 1951.13 513.968L1949.43 515.032ZM1949.72 516.2C1949.72 516.952 1949.5 517.38 1949.2 517.651L1950.52 519.149C1951.36 518.406 1951.72 517.368 1951.72 516.2H1949.72ZM1949.2 517.651C1948.85 517.954 1948.33 518.16 1947.52 518.16V520.16C1948.68 520.16 1949.72 519.86 1950.52 519.149L1949.2 517.651Z" fill="url(#paint38_linear)"/>
<path fill-rule="evenodd" clip-rule="evenodd" d="M1970.19 503.834H1990.05V522.134H1970.19V503.834ZM1969.19 502.834H1970.19H1990.05H1991.05V503.834V522.134V523.134H1990.05H1970.19H1969.19V522.134V503.834V502.834ZM1984.93 512.982C1984.93 515.448 1982.93 517.447 1980.47 517.447C1978 517.447 1976 515.448 1976 512.982C1976 510.516 1978 508.516 1980.47 508.516C1982.93 508.516 1984.93 510.516 1984.93 512.982ZM1985.93 512.982C1985.93 516 1983.48 518.447 1980.47 518.447C1977.45 518.447 1975 516 1975 512.982C1975 509.963 1977.45 507.516 1980.47 507.516C1983.48 507.516 1985.93 509.963 1985.93 512.982Z" fill="url(#paint39_linear)"/>
<path fill-rule="evenodd" clip-rule="evenodd" d="M2004.11 362.979H1851.52V462.478H2004.11V362.979ZM1851.52 361.979H1850.52V362.979V462.478V463.478H1851.52H2004.11H2005.11V462.478V362.979V361.979H2004.11H1851.52ZM1913.54 372.347H1860.89V390.647H1913.54V372.347ZM1860.89 371.347H1859.89V372.347V390.647V391.647H1860.89H1913.54H1914.54V390.647V372.347V371.347H1913.54H1860.89ZM1891.12 400.455H1913.54V418.754H1891.12V400.455ZM1890.12 400.455H1860.89V418.754H1890.12V400.455ZM1891.12 399.455H1913.54H1914.54V400.455V418.754V419.754H1913.54H1891.12H1890.12H1860.89H1859.89V418.754V400.455V399.455H1860.89H1890.12H1891.12ZM1990.05 400.455H1926.47V418.754H1990.05V400.455ZM1926.47 399.455H1925.47V400.455V418.754V419.754H1926.47H1990.05H1991.05V418.754V400.455V399.455H1990.05H1926.47ZM1912.42 430.123H1946.33V448.423H1912.42V430.123ZM1911.42 429.123H1912.42H1946.33H1947.33V430.123V448.423V449.423H1946.33H1912.42H1911.42V448.423V430.123V429.123ZM1894.8 430.123H1860.89V448.423H1894.8V430.123ZM1860.89 429.123H1859.89V430.123V448.423V449.423H1860.89H1894.8H1895.8V448.423V430.123V429.123H1894.8H1860.89Z" fill="url(#paint40_linear)"/>
<rect x="1933.78" y="371.848" width="27.1073" height="19.2997" stroke="url(#paint41_linear)"/>
<path d="M1944.86 386.28L1944.15 386.979L1944.16 386.987L1944.86 386.28ZM1943.88 383.92L1943.59 382.963L1942.82 383.197L1942.89 384.001L1943.88 383.92ZM1945.66 383.38L1946.65 383.239L1946.49 382.085L1945.37 382.423L1945.66 383.38ZM1946.2 385.04L1945.38 385.615L1945.39 385.625L1945.4 385.635L1946.2 385.04ZM1948.18 385.26L1947.45 384.575L1947.45 384.576L1948.18 385.26ZM1948.28 383.46L1947.41 383.942L1947.41 383.942L1948.28 383.46ZM1947.56 382.64L1946.91 383.399L1946.92 383.406L1947.56 382.64ZM1945.58 380.94L1946.23 380.181L1946.23 380.179L1945.58 380.94ZM1944.52 379.72L1943.64 380.199L1943.65 380.215L1943.66 380.231L1944.52 379.72ZM1944.96 376.04L1945.64 376.774L1945.65 376.765L1944.96 376.04ZM1949.2 376.14L1948.44 376.792L1948.45 376.802L1948.46 376.811L1949.2 376.14ZM1950.08 378.32L1950.43 379.256L1951.15 378.989L1951.08 378.231L1950.08 378.32ZM1948.64 378.86L1947.65 379.001L1947.83 380.233L1948.99 379.796L1948.64 378.86ZM1948.18 377.38L1947.33 377.904L1947.34 377.912L1947.34 377.919L1948.18 377.38ZM1946.38 377.2L1945.65 376.515L1945.64 376.526L1945.63 376.538L1946.38 377.2ZM1946.66 379.2L1947.34 378.465L1947.33 378.455L1946.66 379.2ZM1948.7 381.08L1949.38 380.345L1949.38 380.345L1948.7 381.08ZM1949.9 382.5L1949.04 383.014L1949.05 383.023L1949.06 383.032L1949.9 382.5ZM1949.48 386.4L1948.82 385.651L1949.48 386.4ZM1947.14 386.16C1946.44 386.16 1945.94 385.948 1945.57 385.573L1944.16 386.987C1944.95 387.785 1945.98 388.16 1947.14 388.16V386.16ZM1945.58 385.581C1945.2 385.194 1944.94 384.643 1944.88 383.839L1942.89 384.001C1942.98 385.17 1943.38 386.193 1944.15 386.979L1945.58 385.581ZM1944.17 384.877L1945.95 384.337L1945.37 382.423L1943.59 382.963L1944.17 384.877ZM1944.67 383.521C1944.79 384.328 1945 385.065 1945.38 385.615L1947.02 384.465C1946.9 384.295 1946.75 383.926 1946.65 383.239L1944.67 383.521ZM1945.4 385.635C1945.87 386.27 1946.55 386.58 1947.32 386.58V384.58C1947.13 384.58 1947.07 384.53 1947.01 384.445L1945.4 385.635ZM1947.32 386.58C1947.89 386.58 1948.47 386.411 1948.91 385.944L1947.45 384.576C1947.46 384.572 1947.46 384.568 1947.47 384.564C1947.47 384.561 1947.47 384.561 1947.47 384.563C1947.46 384.567 1947.42 384.58 1947.32 384.58V386.58ZM1948.91 385.945C1949.33 385.497 1949.5 384.934 1949.5 384.36H1947.5C1947.5 384.532 1947.46 384.569 1947.45 384.575L1948.91 385.945ZM1949.5 384.36C1949.5 383.875 1949.39 383.406 1949.16 382.978L1947.41 383.942C1947.46 384.047 1947.5 384.179 1947.5 384.36H1949.5ZM1949.16 382.978C1948.93 382.567 1948.6 382.202 1948.21 381.874L1946.92 383.406C1947.2 383.638 1947.34 383.819 1947.41 383.942L1949.16 382.978ZM1948.21 381.881L1946.23 380.181L1944.93 381.699L1946.91 383.399L1948.21 381.881ZM1946.23 380.179C1945.85 379.85 1945.57 379.525 1945.38 379.209L1943.66 380.231C1943.98 380.768 1944.41 381.257 1944.93 381.701L1946.23 380.179ZM1945.4 379.241C1945.26 378.98 1945.16 378.621 1945.16 378.12H1943.16C1943.16 378.873 1943.31 379.58 1943.64 380.199L1945.4 379.241ZM1945.16 378.12C1945.16 377.437 1945.36 377.036 1945.64 376.774L1944.28 375.306C1943.5 376.031 1943.16 377.017 1943.16 378.12H1945.16ZM1945.65 376.765C1945.95 376.476 1946.41 376.28 1947.14 376.28V374.28C1946.03 374.28 1945.04 374.59 1944.27 375.315L1945.65 376.765ZM1947.14 376.28C1947.78 376.28 1948.17 376.477 1948.44 376.792L1949.96 375.488C1949.25 374.657 1948.26 374.28 1947.14 374.28V376.28ZM1948.46 376.811C1948.8 377.181 1949.02 377.69 1949.09 378.409L1951.08 378.231C1950.98 377.163 1950.62 376.219 1949.94 375.469L1948.46 376.811ZM1949.73 377.384L1948.29 377.924L1948.99 379.796L1950.43 379.256L1949.73 377.384ZM1949.63 378.719C1949.53 378.006 1949.35 377.349 1949.02 376.841L1947.34 377.919C1947.44 378.077 1947.57 378.407 1947.65 379.001L1949.63 378.719ZM1949.03 376.856C1948.63 376.197 1947.98 375.86 1947.22 375.86V377.86C1947.3 377.86 1947.32 377.874 1947.31 377.869C1947.3 377.868 1947.3 377.866 1947.3 377.868C1947.31 377.871 1947.32 377.881 1947.33 377.904L1949.03 376.856ZM1947.22 375.86C1946.63 375.86 1946.08 376.063 1945.65 376.515L1947.11 377.885C1947.12 377.878 1947.12 377.875 1947.12 377.875C1947.12 377.874 1947.12 377.873 1947.13 377.872C1947.13 377.87 1947.16 377.86 1947.22 377.86V375.86ZM1945.63 376.538C1945.25 376.967 1945.08 377.49 1945.08 378.04H1947.08C1947.08 377.923 1947.11 377.886 1947.13 377.862L1945.63 376.538ZM1945.08 378.04C1945.08 378.811 1945.45 379.453 1945.99 379.945L1947.33 378.455C1947.1 378.254 1947.08 378.122 1947.08 378.04H1945.08ZM1945.98 379.935L1948.02 381.815L1949.38 380.345L1947.34 378.465L1945.98 379.935ZM1948.02 381.815C1948.49 382.248 1948.83 382.65 1949.04 383.014L1950.76 381.986C1950.42 381.417 1949.95 380.872 1949.38 380.345L1948.02 381.815ZM1949.06 383.032C1949.23 383.309 1949.34 383.682 1949.34 384.2H1951.34C1951.34 383.385 1951.16 382.624 1950.75 381.968L1949.06 383.032ZM1949.34 384.2C1949.34 384.952 1949.13 385.38 1948.82 385.651L1950.14 387.149C1950.99 386.406 1951.34 385.368 1951.34 384.2H1949.34ZM1948.82 385.651C1948.48 385.954 1947.96 386.16 1947.14 386.16V388.16C1948.3 388.16 1949.34 387.86 1950.14 387.149L1948.82 385.651Z" fill="url(#paint42_linear)"/>
<path fill-rule="evenodd" clip-rule="evenodd" d="M1970.19 372.347H1990.05V390.646H1970.19V372.347ZM1969.19 371.347H1970.19H1990.05H1991.05V372.347V390.646V391.646H1990.05H1970.19H1969.19V390.646V372.347V371.347ZM1985.37 381.497C1985.37 383.963 1983.37 385.963 1980.91 385.963C1978.44 385.963 1976.44 383.963 1976.44 381.497C1976.44 379.031 1978.44 377.032 1980.91 377.032C1983.37 377.032 1985.37 379.031 1985.37 381.497ZM1986.37 381.497C1986.37 384.516 1983.93 386.963 1980.91 386.963C1977.89 386.963 1975.44 384.516 1975.44 381.497C1975.44 378.479 1977.89 376.032 1980.91 376.032C1983.93 376.032 1986.37 378.479 1986.37 381.497Z" fill="url(#paint43_linear)"/>
<path fill-rule="evenodd" clip-rule="evenodd" d="M2004.11 231.492H1851.52V330.99H2004.11V231.492ZM1851.52 230.492H1850.52V231.492V330.99V331.99H1851.52H2004.11H2005.11V330.99V231.492V230.492H2004.11H1851.52ZM1913.54 240.859H1860.89V259.159H1913.54V240.859ZM1860.89 239.859H1859.89V240.859V259.159V260.159H1860.89H1913.54H1914.54V259.159V240.859V239.859H1913.54H1860.89ZM1891.12 268.967H1913.54V287.267H1891.12V268.967ZM1890.12 268.967H1860.89V287.267H1890.12V268.967ZM1891.12 267.967H1913.54H1914.54V268.967V287.267V288.267H1913.54H1891.12H1890.12H1860.89H1859.89V287.267V268.967V267.967H1860.89H1890.12H1891.12ZM1990.05 268.967H1926.47V287.267H1990.05V268.967ZM1926.47 267.967H1925.47V268.967V287.267V288.267H1926.47H1990.05H1991.05V287.267V268.967V267.967H1990.05H1926.47ZM1912.42 298.636H1946.33V316.935H1912.42V298.636ZM1911.42 297.636H1912.42H1946.33H1947.33V298.636V316.935V317.935H1946.33H1912.42H1911.42V316.935V298.636V297.636ZM1894.8 298.636H1860.89V316.935H1894.8V298.636ZM1860.89 297.636H1859.89V298.636V316.935V317.935H1860.89H1894.8H1895.8V316.935V298.636V297.636H1894.8H1860.89Z" fill="url(#paint44_linear)"/>
<rect x="1933.78" y="240.358" width="27.1073" height="19.2997" stroke="url(#paint45_linear)"/>
<path d="M1944.86 255.28L1944.15 255.978L1944.16 255.987L1944.86 255.28ZM1943.88 252.92L1943.59 251.963L1942.82 252.197L1942.89 253L1943.88 252.92ZM1945.66 252.38L1946.65 252.238L1946.49 251.084L1945.37 251.423L1945.66 252.38ZM1946.2 254.04L1945.38 254.615L1945.39 254.625L1945.4 254.635L1946.2 254.04ZM1948.18 254.26L1947.45 253.574L1947.45 253.576L1948.18 254.26ZM1948.28 252.46L1947.41 252.941L1947.41 252.941L1948.28 252.46ZM1947.56 251.64L1946.91 252.398L1946.92 252.405L1947.56 251.64ZM1945.58 249.94L1946.23 249.181L1946.23 249.179L1945.58 249.94ZM1944.52 248.72L1943.64 249.198L1943.65 249.214L1943.66 249.23L1944.52 248.72ZM1944.96 245.04L1945.64 245.774L1945.65 245.765L1944.96 245.04ZM1949.2 245.14L1948.44 245.792L1948.45 245.801L1948.46 245.81L1949.2 245.14ZM1950.08 247.32L1950.43 248.256L1951.15 247.989L1951.08 247.23L1950.08 247.32ZM1948.64 247.86L1947.65 248.001L1947.83 249.233L1948.99 248.796L1948.64 247.86ZM1948.18 246.38L1947.33 246.904L1947.34 246.911L1947.34 246.919L1948.18 246.38ZM1946.38 246.2L1945.65 245.514L1945.64 245.526L1945.63 245.538L1946.38 246.2ZM1946.66 248.2L1947.34 247.464L1947.33 247.455L1946.66 248.2ZM1948.7 250.08L1949.38 249.345L1949.38 249.344L1948.7 250.08ZM1949.9 251.5L1949.04 252.014L1949.05 252.023L1949.06 252.032L1949.9 251.5ZM1949.48 255.4L1948.82 254.65L1949.48 255.4ZM1947.14 255.16C1946.44 255.16 1945.94 254.947 1945.57 254.572L1944.16 255.987C1944.95 256.785 1945.98 257.16 1947.14 257.16V255.16ZM1945.58 254.581C1945.2 254.193 1944.94 253.643 1944.88 252.839L1942.89 253C1942.98 254.17 1943.38 255.192 1944.15 255.978L1945.58 254.581ZM1944.17 253.876L1945.95 253.336L1945.37 251.423L1943.59 251.963L1944.17 253.876ZM1944.67 252.521C1944.79 253.327 1945 254.065 1945.38 254.615L1947.02 253.464C1946.9 253.294 1946.75 252.925 1946.65 252.238L1944.67 252.521ZM1945.4 254.635C1945.87 255.27 1946.55 255.58 1947.32 255.58V253.58C1947.13 253.58 1947.07 253.529 1947.01 253.444L1945.4 254.635ZM1947.32 255.58C1947.89 255.58 1948.47 255.411 1948.91 254.943L1947.45 253.576C1947.46 253.572 1947.46 253.567 1947.47 253.564C1947.47 253.561 1947.47 253.561 1947.47 253.562C1947.46 253.566 1947.42 253.58 1947.32 253.58V255.58ZM1948.91 254.945C1949.33 254.497 1949.5 253.934 1949.5 253.36H1947.5C1947.5 253.532 1947.46 253.569 1947.45 253.574L1948.91 254.945ZM1949.5 253.36C1949.5 252.874 1949.39 252.406 1949.16 251.978L1947.41 252.941C1947.46 253.047 1947.5 253.178 1947.5 253.36H1949.5ZM1949.16 251.978C1948.93 251.567 1948.6 251.202 1948.21 250.874L1946.92 252.405C1947.2 252.637 1947.34 252.819 1947.41 252.941L1949.16 251.978ZM1948.21 250.881L1946.23 249.181L1944.93 250.698L1946.91 252.398L1948.21 250.881ZM1946.23 249.179C1945.85 248.849 1945.57 248.524 1945.38 248.209L1943.66 249.23C1943.98 249.768 1944.41 250.256 1944.93 250.7L1946.23 249.179ZM1945.4 248.241C1945.26 247.98 1945.16 247.62 1945.16 247.12H1943.16C1943.16 247.872 1943.31 248.579 1943.64 249.198L1945.4 248.241ZM1945.16 247.12C1945.16 246.436 1945.36 246.036 1945.64 245.774L1944.28 244.305C1943.5 245.03 1943.16 246.016 1943.16 247.12H1945.16ZM1945.65 245.765C1945.95 245.476 1946.41 245.28 1947.14 245.28V243.28C1946.03 243.28 1945.04 243.59 1944.27 244.315L1945.65 245.765ZM1947.14 245.28C1947.78 245.28 1948.17 245.476 1948.44 245.792L1949.96 244.487C1949.25 243.656 1948.26 243.28 1947.14 243.28V245.28ZM1948.46 245.81C1948.8 246.181 1949.02 246.69 1949.09 247.409L1951.08 247.23C1950.98 246.163 1950.62 245.218 1949.94 244.469L1948.46 245.81ZM1949.73 246.383L1948.29 246.923L1948.99 248.796L1950.43 248.256L1949.73 246.383ZM1949.63 247.718C1949.53 247.006 1949.35 246.349 1949.02 245.84L1947.34 246.919C1947.44 247.077 1947.57 247.407 1947.65 248.001L1949.63 247.718ZM1949.03 245.855C1948.63 245.196 1947.98 244.86 1947.22 244.86V246.86C1947.3 246.86 1947.32 246.874 1947.31 246.869C1947.3 246.867 1947.3 246.866 1947.3 246.868C1947.31 246.871 1947.32 246.881 1947.33 246.904L1949.03 245.855ZM1947.22 244.86C1946.63 244.86 1946.08 245.063 1945.65 245.514L1947.11 246.885C1947.12 246.878 1947.12 246.875 1947.12 246.874C1947.12 246.873 1947.12 246.873 1947.13 246.871C1947.13 246.87 1947.16 246.86 1947.22 246.86V244.86ZM1945.63 245.538C1945.25 245.967 1945.08 246.489 1945.08 247.04H1947.08C1947.08 246.923 1947.11 246.886 1947.13 246.861L1945.63 245.538ZM1945.08 247.04C1945.08 247.811 1945.45 248.452 1945.99 248.944L1947.33 247.455C1947.1 247.253 1947.08 247.121 1947.08 247.04H1945.08ZM1945.98 248.935L1948.02 250.815L1949.38 249.344L1947.34 247.464L1945.98 248.935ZM1948.02 250.814C1948.49 251.248 1948.83 251.649 1949.04 252.014L1950.76 250.985C1950.42 250.417 1949.95 249.871 1949.38 249.345L1948.02 250.814ZM1949.06 252.032C1949.23 252.308 1949.34 252.681 1949.34 253.2H1951.34C1951.34 252.384 1951.16 251.624 1950.75 250.967L1949.06 252.032ZM1949.34 253.2C1949.34 253.951 1949.13 254.38 1948.82 254.65L1950.14 256.149C1950.99 255.406 1951.34 254.368 1951.34 253.2H1949.34ZM1948.82 254.65C1948.48 254.953 1947.96 255.16 1947.14 255.16V257.16C1948.3 257.16 1949.34 256.859 1950.14 256.149L1948.82 254.65Z" fill="url(#paint46_linear)"/>
<path d="M1991.68 229.393L2127.25 229.393C2127.24 -41.7898 2021.41 5.09511 1889.13 5.0953C1867.77 1.8746 1821.87 3.80135 1809.12 37.2739H1939.62C1974.6 72.8286 1998.39 134.51 1991.68 229.393Z" fill="#2E2E34"/>
<path d="M1889.13 5.0953C2021.41 5.09511 2127.24 -41.7898 2127.25 229.393L1991.68 229.393C1998.39 134.51 1974.6 72.8286 1939.62 37.2739M1889.13 5.0953C1899.62 9.03757 1913.19 15.6944 1922.91 22.812C1928.7 27.0424 1934.29 31.8547 1939.62 37.2739M1889.13 5.0953C1867.77 1.8746 1821.87 3.80135 1809.12 37.2739H1939.62" stroke="url(#paint47_linear)" stroke-width="4"/>
<circle r="97.2162" transform="matrix(-1 0 0 1 2067.71 282.307)" fill="#1F1F22" stroke="url(#paint48_linear)" stroke-width="4"/>
<circle r="97.2162" transform="matrix(-1 0 0 1 2087.56 282.307)" fill="#2E2E34" stroke="url(#paint49_linear)" stroke-width="4"/>
<circle r="64.1441" transform="matrix(-1 0 0 1 2087.55 282.306)" fill="#949496" fill-opacity="0.2" stroke="url(#paint50_linear)" stroke-width="4"/>
<defs>
<linearGradient id="paint0_linear" x1="5.69283e-07" y1="1351.49" x2="2917.34" y2="1654.84" gradientUnits="userSpaceOnUse">
<stop stop-color="#FEBD2F"/>
<stop offset="0.248726" stop-color="#F95721"/>
<stop offset="0.502913" stop-color="#FC1370"/>
<stop offset="0.671875" stop-color="#BA2DB2"/>
<stop offset="0.776042" stop-color="#8342E9"/>
<stop offset="0.963542" stop-color="#3F89FC"/>
</linearGradient>
<linearGradient id="paint1_linear" x1="5.69283e-07" y1="1351.49" x2="2917.34" y2="1654.84" gradientUnits="userSpaceOnUse">
<stop stop-color="#FEBD2F"/>
<stop offset="0.248726" stop-color="#F95721"/>
<stop offset="0.502913" stop-color="#FC1370"/>
<stop offset="0.671875" stop-color="#BA2DB2"/>
<stop offset="0.776042" stop-color="#8342E9"/>
<stop offset="0.963542" stop-color="#3F89FC"/>
</linearGradient>
<linearGradient id="paint2_linear" x1="836.812" y1="1151.62" x2="1076.35" y2="1152.71" gradientUnits="userSpaceOnUse">
<stop stop-color="#FEBD2F"/>
<stop offset="0.248726" stop-color="#F95721"/>
<stop offset="0.502913" stop-color="#FC1370"/>
<stop offset="0.671875" stop-color="#BA2DB2"/>
<stop offset="0.776042" stop-color="#8342E9"/>
<stop offset="0.963542" stop-color="#3F89FC"/>
</linearGradient>
<linearGradient id="paint3_linear" x1="867.216" y1="1152.03" x2="1106.75" y2="1153.12" gradientUnits="userSpaceOnUse">
<stop stop-color="#FEBD2F"/>
<stop offset="0.248726" stop-color="#F95721"/>
<stop offset="0.502913" stop-color="#FC1370"/>
<stop offset="0.671875" stop-color="#BA2DB2"/>
<stop offset="0.776042" stop-color="#8342E9"/>
<stop offset="0.963542" stop-color="#3F89FC"/>
</linearGradient>
<linearGradient id="paint4_linear" x1="919.367" y1="1153.62" x2="1053.03" y2="1154" gradientUnits="userSpaceOnUse">
<stop stop-color="#FEBD2F"/>
<stop offset="0.248726" stop-color="#F95721"/>
<stop offset="0.502913" stop-color="#FC1370"/>
<stop offset="0.671875" stop-color="#BA2DB2"/>
<stop offset="0.776042" stop-color="#8342E9"/>
<stop offset="0.963542" stop-color="#3F89FC"/>
</linearGradient>
<linearGradient id="paint5_linear" x1="911.542" y1="1216.55" x2="1045.2" y2="1217.24" gradientUnits="userSpaceOnUse">
<stop stop-color="#FEBD2F"/>
<stop offset="0.248726" stop-color="#F95721"/>
<stop offset="0.502913" stop-color="#FC1370"/>
<stop offset="0.671875" stop-color="#BA2DB2"/>
<stop offset="0.776042" stop-color="#8342E9"/>
<stop offset="0.963542" stop-color="#3F89FC"/>
</linearGradient>
<linearGradient id="paint6_linear" x1="354.648" y1="1051.4" x2="778.861" y2="1053.33" gradientUnits="userSpaceOnUse">
<stop stop-color="#FEBD2F"/>
<stop offset="0.248726" stop-color="#F95721"/>
<stop offset="0.502913" stop-color="#FC1370"/>
<stop offset="0.671875" stop-color="#BA2DB2"/>
<stop offset="0.776042" stop-color="#8342E9"/>
<stop offset="0.963542" stop-color="#3F89FC"/>
</linearGradient>
<linearGradient id="paint7_linear" x1="410.063" y1="1051.4" x2="834.276" y2="1053.33" gradientUnits="userSpaceOnUse">
<stop stop-color="#FEBD2F"/>
<stop offset="0.248726" stop-color="#F95721"/>
<stop offset="0.502913" stop-color="#FC1370"/>
<stop offset="0.671875" stop-color="#BA2DB2"/>
<stop offset="0.776042" stop-color="#8342E9"/>
<stop offset="0.963542" stop-color="#3F89FC"/>
</linearGradient>
<linearGradient id="paint8_linear" x1="502.415" y1="1054.21" x2="739.133" y2="1054.89" gradientUnits="userSpaceOnUse">
<stop stop-color="#FEBD2F"/>
<stop offset="0.248726" stop-color="#F95721"/>
<stop offset="0.502913" stop-color="#FC1370"/>
<stop offset="0.671875" stop-color="#BA2DB2"/>
<stop offset="0.776042" stop-color="#8342E9"/>
<stop offset="0.963542" stop-color="#3F89FC"/>
</linearGradient>
<linearGradient id="paint9_linear" x1="488.562" y1="1165.66" x2="725.275" y2="1166.88" gradientUnits="userSpaceOnUse">
<stop stop-color="#FEBD2F"/>
<stop offset="0.248726" stop-color="#F95721"/>
<stop offset="0.502913" stop-color="#FC1370"/>
<stop offset="0.671875" stop-color="#BA2DB2"/>
<stop offset="0.776042" stop-color="#8342E9"/>
<stop offset="0.963542" stop-color="#3F89FC"/>
</linearGradient>
<linearGradient id="paint10_linear" x1="488.562" y1="1165.66" x2="725.275" y2="1166.88" gradientUnits="userSpaceOnUse">
<stop stop-color="#FEBD2F"/>
<stop offset="0.248726" stop-color="#F95721"/>
<stop offset="0.502913" stop-color="#FC1370"/>
<stop offset="0.671875" stop-color="#BA2DB2"/>
<stop offset="0.776042" stop-color="#8342E9"/>
<stop offset="0.963542" stop-color="#3F89FC"/>
</linearGradient>
<linearGradient id="paint11_linear" x1="2226.27" y1="1154.56" x2="2465.8" y2="1155.65" gradientUnits="userSpaceOnUse">
<stop stop-color="#FEBD2F"/>
<stop offset="0.248726" stop-color="#F95721"/>
<stop offset="0.502913" stop-color="#FC1370"/>
<stop offset="0.671875" stop-color="#BA2DB2"/>
<stop offset="0.776042" stop-color="#8342E9"/>
<stop offset="0.963542" stop-color="#3F89FC"/>
</linearGradient>
<linearGradient id="paint12_linear" x1="2257.55" y1="1154.56" x2="2497.09" y2="1155.65" gradientUnits="userSpaceOnUse">
<stop stop-color="#FEBD2F"/>
<stop offset="0.248726" stop-color="#F95721"/>
<stop offset="0.502913" stop-color="#FC1370"/>
<stop offset="0.671875" stop-color="#BA2DB2"/>
<stop offset="0.776042" stop-color="#8342E9"/>
<stop offset="0.963542" stop-color="#3F89FC"/>
</linearGradient>
<linearGradient id="paint13_linear" x1="2309.7" y1="1156.15" x2="2443.37" y2="1156.54" gradientUnits="userSpaceOnUse">
<stop stop-color="#FEBD2F"/>
<stop offset="0.248726" stop-color="#F95721"/>
<stop offset="0.502913" stop-color="#FC1370"/>
<stop offset="0.671875" stop-color="#BA2DB2"/>
<stop offset="0.776042" stop-color="#8342E9"/>
<stop offset="0.963542" stop-color="#3F89FC"/>
</linearGradient>
<linearGradient id="paint14_linear" x1="2301.88" y1="1219.08" x2="2435.54" y2="1219.77" gradientUnits="userSpaceOnUse">
<stop stop-color="#FEBD2F"/>
<stop offset="0.248726" stop-color="#F95721"/>
<stop offset="0.502913" stop-color="#FC1370"/>
<stop offset="0.671875" stop-color="#BA2DB2"/>
<stop offset="0.776042" stop-color="#8342E9"/>
<stop offset="0.963542" stop-color="#3F89FC"/>
</linearGradient>
<linearGradient id="paint15_linear" x1="1744.98" y1="1053.93" x2="2169.19" y2="1055.86" gradientUnits="userSpaceOnUse">
<stop stop-color="#FEBD2F"/>
<stop offset="0.248726" stop-color="#F95721"/>
<stop offset="0.502913" stop-color="#FC1370"/>
<stop offset="0.671875" stop-color="#BA2DB2"/>
<stop offset="0.776042" stop-color="#8342E9"/>
<stop offset="0.963542" stop-color="#3F89FC"/>
</linearGradient>
<linearGradient id="paint16_linear" x1="1800.4" y1="1053.92" x2="2224.61" y2="1055.86" gradientUnits="userSpaceOnUse">
<stop stop-color="#FEBD2F"/>
<stop offset="0.248726" stop-color="#F95721"/>
<stop offset="0.502913" stop-color="#FC1370"/>
<stop offset="0.671875" stop-color="#BA2DB2"/>
<stop offset="0.776042" stop-color="#8342E9"/>
<stop offset="0.963542" stop-color="#3F89FC"/>
</linearGradient>
<linearGradient id="paint17_linear" x1="1892.75" y1="1056.74" x2="2129.47" y2="1057.42" gradientUnits="userSpaceOnUse">
<stop stop-color="#FEBD2F"/>
<stop offset="0.248726" stop-color="#F95721"/>
<stop offset="0.502913" stop-color="#FC1370"/>
<stop offset="0.671875" stop-color="#BA2DB2"/>
<stop offset="0.776042" stop-color="#8342E9"/>
<stop offset="0.963542" stop-color="#3F89FC"/>
</linearGradient>
<linearGradient id="paint18_linear" x1="1878.9" y1="1168.19" x2="2115.61" y2="1169.41" gradientUnits="userSpaceOnUse">
<stop stop-color="#FEBD2F"/>
<stop offset="0.248726" stop-color="#F95721"/>
<stop offset="0.502913" stop-color="#FC1370"/>
<stop offset="0.671875" stop-color="#BA2DB2"/>
<stop offset="0.776042" stop-color="#8342E9"/>
<stop offset="0.963542" stop-color="#3F89FC"/>
</linearGradient>
<linearGradient id="paint19_linear" x1="1878.9" y1="1168.19" x2="2115.61" y2="1169.41" gradientUnits="userSpaceOnUse">
<stop stop-color="#FEBD2F"/>
<stop offset="0.248726" stop-color="#F95721"/>
<stop offset="0.502913" stop-color="#FC1370"/>
<stop offset="0.671875" stop-color="#BA2DB2"/>
<stop offset="0.776042" stop-color="#8342E9"/>
<stop offset="0.963542" stop-color="#3F89FC"/>
</linearGradient>
<linearGradient id="paint20_linear" x1="1161.23" y1="1097.92" x2="1665.83" y2="1102.19" gradientUnits="userSpaceOnUse">
<stop stop-color="#FEBD2F"/>
<stop offset="0.248726" stop-color="#F95721"/>
<stop offset="0.502913" stop-color="#FC1370"/>
<stop offset="0.671875" stop-color="#BA2DB2"/>
<stop offset="0.776042" stop-color="#8342E9"/>
<stop offset="0.963542" stop-color="#3F89FC"/>
</linearGradient>
<linearGradient id="paint21_linear" x1="1123.72" y1="1118.53" x2="1730.29" y2="1124.15" gradientUnits="userSpaceOnUse">
<stop stop-color="#FEBD2F"/>
<stop offset="0.248726" stop-color="#F95721"/>
<stop offset="0.502913" stop-color="#FC1370"/>
<stop offset="0.671875" stop-color="#BA2DB2"/>
<stop offset="0.776042" stop-color="#8342E9"/>
<stop offset="0.963542" stop-color="#3F89FC"/>
</linearGradient>
<linearGradient id="paint22_linear" x1="1597.92" y1="1293.75" x2="1582.07" y2="1252.91" gradientUnits="userSpaceOnUse">
<stop offset="0.357146" stop-color="#8145EA"/>
<stop offset="0.58769" stop-color="#8342E9"/>
<stop offset="0.963542" stop-color="#8145EA"/>
</linearGradient>
<linearGradient id="paint23_linear" x1="740.827" y1="532.452" x2="2120.85" y2="544.974" gradientUnits="userSpaceOnUse">
<stop stop-color="#FEBD2F"/>
<stop offset="0.248726" stop-color="#F95721"/>
<stop offset="0.502913" stop-color="#FC1370"/>
<stop offset="0.671875" stop-color="#BA2DB2"/>
<stop offset="0.776042" stop-color="#8342E9"/>
<stop offset="0.963542" stop-color="#3F89FC"/>
</linearGradient>
<linearGradient id="paint24_linear" x1="804.559" y1="532.452" x2="2184.58" y2="544.974" gradientUnits="userSpaceOnUse">
<stop stop-color="#FEBD2F"/>
<stop offset="0.248726" stop-color="#F95721"/>
<stop offset="0.502913" stop-color="#FC1370"/>
<stop offset="0.671875" stop-color="#BA2DB2"/>
<stop offset="0.776042" stop-color="#8342E9"/>
<stop offset="0.963542" stop-color="#3F89FC"/>
</linearGradient>
<linearGradient id="paint25_linear" x1="884.637" y1="525.936" x2="2058.74" y2="537.722" gradientUnits="userSpaceOnUse">
<stop stop-color="#FEBD2F"/>
<stop offset="0.248726" stop-color="#F95721"/>
<stop offset="0.502913" stop-color="#FC1370"/>
<stop offset="0.671875" stop-color="#BA2DB2"/>
<stop offset="0.776042" stop-color="#8342E9"/>
<stop offset="0.963542" stop-color="#3F89FC"/>
</linearGradient>
<linearGradient id="paint26_linear" x1="987.781" y1="702.586" x2="1322.59" y2="706.704" gradientUnits="userSpaceOnUse">
<stop stop-color="#FEBD2F"/>
<stop offset="0.248726" stop-color="#F95721"/>
<stop offset="0.502913" stop-color="#FC1370"/>
<stop offset="0.671875" stop-color="#BA2DB2"/>
<stop offset="0.776042" stop-color="#8342E9"/>
<stop offset="0.963542" stop-color="#3F89FC"/>
</linearGradient>
<linearGradient id="paint27_linear" x1="1010" y1="680.095" x2="1047.55" y2="680.603" gradientUnits="userSpaceOnUse">
<stop stop-color="#FEBD2F"/>
<stop offset="0.248726" stop-color="#F95721"/>
<stop offset="0.502913" stop-color="#FC1370"/>
<stop offset="0.671875" stop-color="#BA2DB2"/>
<stop offset="0.776042" stop-color="#8342E9"/>
<stop offset="0.963542" stop-color="#3F89FC"/>
</linearGradient>
<linearGradient id="paint28_linear" x1="1003.93" y1="651.034" x2="1050.76" y2="651.309" gradientUnits="userSpaceOnUse">
<stop stop-color="#FEBD2F"/>
<stop offset="0.248726" stop-color="#F95721"/>
<stop offset="0.502913" stop-color="#FC1370"/>
<stop offset="0.671875" stop-color="#BA2DB2"/>
<stop offset="0.776042" stop-color="#8342E9"/>
<stop offset="0.963542" stop-color="#3F89FC"/>
</linearGradient>
<linearGradient id="paint29_linear" x1="1003.93" y1="720.239" x2="1050.76" y2="720.514" gradientUnits="userSpaceOnUse">
<stop stop-color="#FEBD2F"/>
<stop offset="0.248726" stop-color="#F95721"/>
<stop offset="0.502913" stop-color="#FC1370"/>
<stop offset="0.671875" stop-color="#BA2DB2"/>
<stop offset="0.776042" stop-color="#8342E9"/>
<stop offset="0.963542" stop-color="#3F89FC"/>
</linearGradient>
<linearGradient id="paint30_linear" x1="1008" y1="749.095" x2="1051.64" y2="749.781" gradientUnits="userSpaceOnUse">
<stop stop-color="#FEBD2F"/>
<stop offset="0.248726" stop-color="#F95721"/>
<stop offset="0.502913" stop-color="#FC1370"/>
<stop offset="0.671875" stop-color="#BA2DB2"/>
<stop offset="0.776042" stop-color="#8342E9"/>
<stop offset="0.963542" stop-color="#3F89FC"/>
</linearGradient>
<linearGradient id="paint31_linear" x1="1061.6" y1="703.257" x2="1284.04" y2="705.267" gradientUnits="userSpaceOnUse">
<stop stop-color="#FEBD2F"/>
<stop offset="0.248726" stop-color="#F95721"/>
<stop offset="0.502913" stop-color="#FC1370"/>
<stop offset="0.671875" stop-color="#BA2DB2"/>
<stop offset="0.776042" stop-color="#8342E9"/>
<stop offset="0.963542" stop-color="#3F89FC"/>
</linearGradient>
<linearGradient id="paint32_linear" x1="1589.95" y1="748.564" x2="1584.26" y2="707.512" gradientUnits="userSpaceOnUse">
<stop stop-color="#FEBD2F"/>
<stop offset="0.248726" stop-color="#F95721"/>
<stop offset="0.502913" stop-color="#FC1370"/>
<stop offset="0.671875" stop-color="#BA2DB2"/>
<stop offset="0.776042" stop-color="#8342E9"/>
<stop offset="0.963542" stop-color="#3F89FC"/>
</linearGradient>
<linearGradient id="paint33_linear" x1="1118.49" y1="554.78" x2="1651.93" y2="570.586" gradientUnits="userSpaceOnUse">
<stop stop-color="#FEBD2F"/>
<stop offset="0.248726" stop-color="#F95721"/>
<stop offset="0.502913" stop-color="#FC1370"/>
<stop offset="0.671875" stop-color="#BA2DB2"/>
<stop offset="0.776042" stop-color="#8342E9"/>
<stop offset="0.963542" stop-color="#3F89FC"/>
</linearGradient>
<linearGradient id="paint34_linear" x1="978" y1="421.722" x2="1827.92" y2="431.802" gradientUnits="userSpaceOnUse">
<stop stop-color="#FEBD2F"/>
<stop offset="0.248726" stop-color="#F95721"/>
<stop offset="0.502913" stop-color="#FC1370"/>
<stop offset="0.671875" stop-color="#BA2DB2"/>
<stop offset="0.776042" stop-color="#8342E9"/>
<stop offset="0.963542" stop-color="#3F89FC"/>
</linearGradient>
<linearGradient id="paint35_linear" x1="1753.63" y1="704.892" x2="2008.85" y2="707.284" gradientUnits="userSpaceOnUse">
<stop stop-color="#FEBD2F"/>
<stop offset="0.248726" stop-color="#F95721"/>
<stop offset="0.502913" stop-color="#FC1370"/>
<stop offset="0.671875" stop-color="#BA2DB2"/>
<stop offset="0.776042" stop-color="#8342E9"/>
<stop offset="0.963542" stop-color="#3F89FC"/>
</linearGradient>
<linearGradient id="paint36_linear" x1="1850.52" y1="551.162" x2="2007.43" y2="552.56" gradientUnits="userSpaceOnUse">
<stop stop-color="#FEBD2F"/>
<stop offset="0.248726" stop-color="#F95721"/>
<stop offset="0.502913" stop-color="#FC1370"/>
<stop offset="0.671875" stop-color="#BA2DB2"/>
<stop offset="0.776042" stop-color="#8342E9"/>
<stop offset="0.963542" stop-color="#3F89FC"/>
</linearGradient>
<linearGradient id="paint37_linear" x1="1933.28" y1="514.372" x2="1961.81" y2="514.603" gradientUnits="userSpaceOnUse">
<stop stop-color="#FEBD2F"/>
<stop offset="0.248726" stop-color="#F95721"/>
<stop offset="0.502913" stop-color="#FC1370"/>
<stop offset="0.671875" stop-color="#BA2DB2"/>
<stop offset="0.776042" stop-color="#8342E9"/>
<stop offset="0.963542" stop-color="#3F89FC"/>
</linearGradient>
<linearGradient id="paint38_linear" x1="1943" y1="510.327" x2="1952.14" y2="510.342" gradientUnits="userSpaceOnUse">
<stop stop-color="#FEBD2F"/>
<stop offset="0.248726" stop-color="#F95721"/>
<stop offset="0.502913" stop-color="#FC1370"/>
<stop offset="0.671875" stop-color="#BA2DB2"/>
<stop offset="0.776042" stop-color="#8342E9"/>
<stop offset="0.963542" stop-color="#3F89FC"/>
</linearGradient>
<linearGradient id="paint39_linear" x1="1969.19" y1="514.373" x2="1991.38" y2="514.513" gradientUnits="userSpaceOnUse">
<stop stop-color="#FEBD2F"/>
<stop offset="0.248726" stop-color="#F95721"/>
<stop offset="0.502913" stop-color="#FC1370"/>
<stop offset="0.671875" stop-color="#BA2DB2"/>
<stop offset="0.776042" stop-color="#8342E9"/>
<stop offset="0.963542" stop-color="#3F89FC"/>
</linearGradient>
<linearGradient id="paint40_linear" x1="1850.52" y1="419.676" x2="2007.43" y2="421.074" gradientUnits="userSpaceOnUse">
<stop stop-color="#FEBD2F"/>
<stop offset="0.248726" stop-color="#F95721"/>
<stop offset="0.502913" stop-color="#FC1370"/>
<stop offset="0.671875" stop-color="#BA2DB2"/>
<stop offset="0.776042" stop-color="#8342E9"/>
<stop offset="0.963542" stop-color="#3F89FC"/>
</linearGradient>
<linearGradient id="paint41_linear" x1="1933.28" y1="382.888" x2="1961.81" y2="383.119" gradientUnits="userSpaceOnUse">
<stop stop-color="#FEBD2F"/>
<stop offset="0.248726" stop-color="#F95721"/>
<stop offset="0.502913" stop-color="#FC1370"/>
<stop offset="0.671875" stop-color="#BA2DB2"/>
<stop offset="0.776042" stop-color="#8342E9"/>
<stop offset="0.963542" stop-color="#3F89FC"/>
</linearGradient>
<linearGradient id="paint42_linear" x1="1944" y1="376.315" x2="1950.34" y2="376.325" gradientUnits="userSpaceOnUse">
<stop stop-color="#FEBD2F"/>
<stop offset="0.248726" stop-color="#F95721"/>
<stop offset="0.502913" stop-color="#FC1370"/>
<stop offset="0.671875" stop-color="#BA2DB2"/>
<stop offset="0.776042" stop-color="#8342E9"/>
<stop offset="0.963542" stop-color="#3F89FC"/>
</linearGradient>
<linearGradient id="paint43_linear" x1="1969.19" y1="382.886" x2="1991.38" y2="383.026" gradientUnits="userSpaceOnUse">
<stop stop-color="#FEBD2F"/>
<stop offset="0.248726" stop-color="#F95721"/>
<stop offset="0.502913" stop-color="#FC1370"/>
<stop offset="0.671875" stop-color="#BA2DB2"/>
<stop offset="0.776042" stop-color="#8342E9"/>
<stop offset="0.963542" stop-color="#3F89FC"/>
</linearGradient>
<linearGradient id="paint44_linear" x1="1850.52" y1="288.189" x2="2007.43" y2="289.586" gradientUnits="userSpaceOnUse">
<stop stop-color="#FEBD2F"/>
<stop offset="0.248726" stop-color="#F95721"/>
<stop offset="0.502913" stop-color="#FC1370"/>
<stop offset="0.671875" stop-color="#BA2DB2"/>
<stop offset="0.776042" stop-color="#8342E9"/>
<stop offset="0.963542" stop-color="#3F89FC"/>
</linearGradient>
<linearGradient id="paint45_linear" x1="1933.28" y1="251.398" x2="1961.81" y2="251.629" gradientUnits="userSpaceOnUse">
<stop stop-color="#FEBD2F"/>
<stop offset="0.248726" stop-color="#F95721"/>
<stop offset="0.502913" stop-color="#FC1370"/>
<stop offset="0.671875" stop-color="#BA2DB2"/>
<stop offset="0.776042" stop-color="#8342E9"/>
<stop offset="0.963542" stop-color="#3F89FC"/>
</linearGradient>
<linearGradient id="paint46_linear" x1="1944" y1="245.314" x2="1950.34" y2="245.324" gradientUnits="userSpaceOnUse">
<stop stop-color="#FEBD2F"/>
<stop offset="0.248726" stop-color="#F95721"/>
<stop offset="0.502913" stop-color="#FC1370"/>
<stop offset="0.671875" stop-color="#BA2DB2"/>
<stop offset="0.776042" stop-color="#8342E9"/>
<stop offset="0.963542" stop-color="#3F89FC"/>
</linearGradient>
<linearGradient id="paint47_linear" x1="2127.25" y1="131.262" x2="1804.33" y2="133.904" gradientUnits="userSpaceOnUse">
<stop stop-color="#FEBD2F"/>
<stop offset="0.248726" stop-color="#F95721"/>
<stop offset="0.502913" stop-color="#FC1370"/>
<stop offset="0.671875" stop-color="#BA2DB2"/>
<stop offset="0.776042" stop-color="#8342E9"/>
<stop offset="0.963542" stop-color="#3F89FC"/>
</linearGradient>
<linearGradient id="paint48_linear" x1="3.88869e-08" y1="112.799" x2="201.427" y2="113.977" gradientUnits="userSpaceOnUse">
<stop stop-color="#FEBD2F"/>
<stop offset="0.248726" stop-color="#F95721"/>
<stop offset="0.502913" stop-color="#FC1370"/>
<stop offset="0.671875" stop-color="#BA2DB2"/>
<stop offset="0.776042" stop-color="#8342E9"/>
<stop offset="0.963542" stop-color="#3F89FC"/>
</linearGradient>
<linearGradient id="paint49_linear" x1="3.88869e-08" y1="112.799" x2="201.427" y2="113.977" gradientUnits="userSpaceOnUse">
<stop stop-color="#FEBD2F"/>
<stop offset="0.248726" stop-color="#F95721"/>
<stop offset="0.502913" stop-color="#FC1370"/>
<stop offset="0.671875" stop-color="#BA2DB2"/>
<stop offset="0.776042" stop-color="#8342E9"/>
<stop offset="0.963542" stop-color="#3F89FC"/>
</linearGradient>
<linearGradient id="paint50_linear" x1="11.8533" y1="6.4053" x2="84.7685" y2="141.247" gradientUnits="userSpaceOnUse">
<stop stop-color="#FEBD2F"/>
<stop offset="0.248726" stop-color="#F95721"/>
<stop offset="0.502913" stop-color="#FC1370"/>
<stop offset="0.671875" stop-color="#BA2DB2"/>
<stop offset="0.776042" stop-color="#8342E9"/>
<stop offset="0.963542" stop-color="#3F89FC"/>
</linearGradient>
</defs>
</svg>
