<svg width="150" height="50" fill="none" xmlns="http://www.w3.org/2000/svg"><path fill="#fff" d="M0 0h150v50H0z"/><g clip-path="url(#clip0)"><path d="M61.01 16.135h-6.218a.864.864 0 00-.853.73l-2.515 15.942a.517.517 0 00.513.598h2.968a.864.864 0 00.854-.73l.678-4.3a.864.864 0 01.853-.73h1.968c4.095 0 6.459-1.981 7.076-5.909.278-1.718.012-3.068-.793-4.013-.883-1.038-2.45-1.588-4.531-1.588zm.717 5.823c-.34 2.231-2.045 2.231-3.693 2.231h-.938l.658-4.166a.519.519 0 01.512-.438h.43c1.123 0 2.182 0 2.73.64.325.382.425.95.3 1.733zm17.867-.072h-2.977a.518.518 0 00-.512.438l-.132.832-.208-.301c-.644-.936-2.082-1.249-3.516-1.249-3.29 0-6.1 2.492-6.647 5.988-.285 1.743.12 3.41 1.108 4.573.908 1.07 2.206 1.515 3.75 1.515 2.652 0 4.122-1.705 4.122-1.705l-.133.827a.52.52 0 00.51.6h2.682a.864.864 0 00.854-.73l1.61-10.19a.516.516 0 00-.51-.598zm-4.15 5.795c-.287 1.7-1.637 2.843-3.359 2.843-.864 0-1.555-.278-1.999-.803-.44-.522-.607-1.265-.467-2.092.268-1.686 1.64-2.865 3.336-2.865.846 0 1.533.28 1.986.81.453.536.633 1.283.503 2.107zm20.007-5.795h-2.992a.868.868 0 00-.716.38l-4.126 6.078-1.75-5.841a.867.867 0 00-.828-.617h-2.94a.519.519 0 00-.492.686l3.295 9.67-3.098 4.374a.518.518 0 00.423.819h2.988a.863.863 0 00.71-.371L95.876 22.7a.518.518 0 00-.425-.814z" fill="#253B80"/><path d="M105.357 16.135h-6.218a.864.864 0 00-.852.73l-2.515 15.942a.518.518 0 00.51.598h3.192a.605.605 0 00.596-.51l.714-4.52a.865.865 0 01.853-.73h1.967c4.096 0 6.459-1.981 7.077-5.909.279-1.718.011-3.068-.794-4.013-.882-1.038-2.449-1.588-4.53-1.588zm.718 5.823c-.339 2.231-2.044 2.231-3.693 2.231h-.937l.659-4.166a.52.52 0 01.511-.438h.43c1.122 0 2.182 0 2.729.64.326.382.425.95.301 1.733zm17.866-.072h-2.975a.516.516 0 00-.511.438l-.132.832-.209-.301c-.645-.936-2.081-1.249-3.516-1.249-3.29 0-6.099 2.492-6.646 5.988-.284 1.743.119 3.41 1.108 4.573.909 1.07 2.206 1.515 3.75 1.515 2.651 0 4.121-1.705 4.121-1.705l-.133.827a.521.521 0 00.296.553.516.516 0 00.217.047h2.681a.862.862 0 00.853-.73l1.61-10.19a.535.535 0 00-.014-.221.523.523 0 00-.5-.377zm-4.15 5.795c-.285 1.7-1.637 2.843-3.359 2.843-.863 0-1.555-.278-1.999-.803-.44-.522-.606-1.265-.467-2.092.27-1.686 1.641-2.865 3.336-2.865.845 0 1.533.28 1.985.81.456.536.636 1.283.504 2.107zm7.66-11.108l-2.552 16.234a.523.523 0 00.511.598h2.566a.862.862 0 00.853-.73l2.517-15.941a.522.522 0 00-.511-.6h-2.873a.52.52 0 00-.511.439z" fill="#179BD7"/><path d="M25.605 36.504l.476-3.02-1.06-.025h-5.056l3.514-22.285a.287.287 0 01.286-.243h8.527c2.83 0 4.784.589 5.804 1.752.479.545.783 1.115.93 1.742.155.659.158 1.445.007 2.404l-.011.07v.615l.478.27c.365.185.693.436.968.739.41.466.674 1.059.786 1.762.115.722.077 1.582-.112 2.556-.218 1.12-.571 2.095-1.047 2.893a5.953 5.953 0 01-1.66 1.819c-.632.449-1.384.79-2.234 1.008-.824.214-1.763.323-2.793.323h-.663c-.475 0-.936.17-1.298.477-.361.31-.6.737-.676 1.207l-.05.272-.84 5.323-.038.195c-.01.062-.027.093-.053.114a.142.142 0 01-.087.032h-4.098z" fill="#253B80"/><path d="M39.953 16.97c-.026.163-.055.33-.088.5-1.124 5.774-4.971 7.768-9.885 7.768h-2.502c-.6 0-1.107.436-1.2 1.03l-1.282 8.123-.362 2.303a.64.64 0 00.631.74h4.438c.525 0 .971-.382 1.054-.9l.044-.226.835-5.302.054-.29c.082-.52.529-.902 1.055-.902h.663c4.3 0 7.665-1.746 8.648-6.797.411-2.11.199-3.872-.889-5.11a4.24 4.24 0 00-1.214-.937z" fill="#179BD7"/><path d="M38.776 16.5a8.886 8.886 0 00-1.094-.242 13.893 13.893 0 00-2.205-.16h-6.684a1.066 1.066 0 00-1.054.901l-1.422 9.006-.04.262a1.214 1.214 0 011.2-1.029h2.502c4.914 0 8.761-1.995 9.886-7.768.033-.171.062-.337.087-.5a5.993 5.993 0 00-.924-.39 8.16 8.16 0 00-.252-.08z" fill="#222D65"/><path d="M27.74 17a1.063 1.063 0 011.054-.902h6.683c.792 0 1.531.052 2.206.161a8.86 8.86 0 011.346.321c.332.11.64.24.925.39.334-2.134-.003-3.586-1.157-4.902C37.525 10.62 35.23 10 32.293 10h-8.528c-.6 0-1.111.436-1.204 1.03l-3.552 22.514a.734.734 0 00.723.847h5.264l1.322-8.386 1.422-9.006z" fill="#253B80"/></g><defs><clipPath id="clip0"><path fill="#fff" transform="translate(19 10)" d="M0 0h112.727v30H0z"/></clipPath></defs></svg>