<svg width="115" height="115" fill="none" xmlns="http://www.w3.org/2000/svg"><path d="M57.518 102.43c24.532 0 44.42-19.887 44.42-44.419 0-24.532-19.888-44.419-44.42-44.419S13.1 33.48 13.1 58.012c0 24.531 19.887 44.418 44.42 44.418z" stroke="url(#paint0_linear)" stroke-width=".665" stroke-miterlimit="10" stroke-linecap="round" stroke-linejoin="round"/><path d="M112.235 57.265a.332.332 0 00-.47 0l-2.115 2.115a.332.332 0 00.47.47l1.88-1.88 1.88 1.88a.332.332 0 00.47-.47l-2.115-2.115zm-54.97 54.5c-.13.13-.13.34 0 .47l2.115 2.115a.332.332 0 00.47-.47L57.97 112l1.88-1.88a.332.332 0 00-.47-.47l-2.115 2.115zm-54.5-54.03c.13.13.34.13.47 0L5.35 55.62a.332.332 0 00-.47-.47L3 57.03l-1.88-1.88a.332.332 0 00-.47.47l2.115 2.115zm54.97-54.5c.13-.13.13-.34 0-.47L55.62.65a.332.332 0 00-.47.47L57.03 3l-1.88 1.88a.332.332 0 00.47.47l2.115-2.115zM111.668 57.5c0 29.916-24.252 54.168-54.168 54.168v.664c30.283 0 54.832-24.549 54.832-54.832h-.664zm-108.336 0c0-29.916 24.252-54.168 54.168-54.168v-.664C27.217 2.668 2.668 27.217 2.668 57.5h.664z" fill="url(#paint1_linear)"/><path d="M48.805 50.592c0-1.279.441-2.337 5.91-2.558v5.248c-5.072-.352-5.91-1.41-5.91-2.602v-.088zm16.892 13.849c0 1.367-.75 3.043-6.704 3.263V61.31c5.866.352 6.704 1.41 6.704 2.954v.177zm-6.704 13.231v-2.734c16.804 0 19.891-5.47 19.891-11.115v-.617c0-6.44-4.63-9.262-16.671-9.615l-3.22-.132v-5.38c5.293.484 5.866 2.337 5.998 3.66h12.747v-.397c0-5.116-3.573-9.968-18.745-10.188v-2.602h-4.278v2.602c-14.951 0-18.568 4.454-18.568 9.747v.397c0 5.028 3.308 9.394 15.481 9.747l3.087.132v6.44c-5.248-.574-6.13-3.044-6.13-4.764H35.706v.485c0 4.19 1.809 11.38 19.01 11.6v2.734h4.277z" fill="url(#paint2_linear)" fill-opacity=".2"/><path d="M54.715 48.034h.63v-.656l-.655.027.025.63zm0 5.248l-.044.63.674.046v-.675h-.63zm4.278 14.422h-.63v.654l.654-.024-.024-.63zm0-6.394l.038-.63-.668-.04v.67h.63zm0 16.362v.63h.63v-.63h-.63zm0-2.734v-.63h-.63v.63h.63zm3.22-21.347l-.026.63h.008l.018-.63zm-3.22-.132h-.63v.605l.605.025.025-.63zm0-5.38l.058-.628-.688-.063v.69h.63zm5.998 3.66l-.626.063.056.567h.57v-.63zm12.747 0v.63h.63v-.63h-.63zM58.993 41.154h-.63v.62l.621.01.01-.63zm0-2.602h.63v-.63h-.63v.63zm-4.278 0v-.63h-.63v.63h.63zm0 2.602v.63h.63v-.63h-.63zm-3.087 19.89l.027-.629h-.009l-.018.63zm3.087.133h.63v-.603l-.603-.026-.027.63zm0 6.44l-.068.626.698.076v-.703h-.63zm-6.13-4.764h.63v-.63h-.63v.63zm-12.879 0v-.63h-.63v.63h.63zm19.01 12.085h.63v-.622l-.623-.008-.008.63zm0 2.734h-.63v.63h.63v-.63zm-5.28-27.08c0-.292.027-.49.099-.65.064-.143.188-.308.486-.478.649-.37 1.987-.69 4.72-.8l-.051-1.26c-2.736.11-4.353.43-5.292.965-.496.282-.824.635-1.013 1.057-.182.405-.21.819-.21 1.166h1.26zm4.65-2.558v5.248h1.26v-5.248h-1.26zm.673 4.62c-2.521-.175-3.883-.523-4.6-.912-.345-.187-.511-.368-.598-.518a1.042 1.042 0 01-.126-.544h-1.26c0 .374.067.78.295 1.176.23.394.59.723 1.088.993.97.526 2.563.885 5.114 1.062l.087-1.257zm-5.324-1.974v-.088h-1.26v.088h1.26zm15.632 13.76c0 .286-.04.549-.152.792-.11.237-.307.495-.685.746-.783.519-2.314.988-5.26 1.097l.047 1.26c3.008-.112 4.829-.591 5.91-1.307.553-.367.915-.799 1.132-1.267a3.1 3.1 0 00.268-1.32h-1.26zm-5.444 3.264V61.31h-1.26v6.394h1.26zm-.667-5.766c2.93.177 4.482.527 5.293.959.385.204.57.41.669.599.103.195.15.436.15.768h1.26c0-.439-.06-.91-.297-1.357-.24-.456-.632-.826-1.19-1.123-1.075-.572-2.874-.927-5.81-1.103l-.075 1.257zm6.111 2.326v.177h1.26v-.177h-1.26zm-5.444 13.408v-2.734h-1.26v2.734h1.26zm-.63-2.104c8.444 0 13.581-1.37 16.616-3.56 3.088-2.228 3.905-5.233 3.905-8.185h-1.26c0 2.694-.726 5.247-3.383 7.164-2.71 1.955-7.518 3.32-15.878 3.32v1.26zm20.521-11.745v-.617h-1.26v.617h1.26zm0-.617c0-1.685-.303-3.176-.985-4.464-.684-1.293-1.728-2.341-3.148-3.17-2.807-1.639-7.111-2.434-13.15-2.61l-.037 1.259c6.003.176 10.034.97 12.552 2.44 1.244.725 2.11 1.612 2.67 2.67.562 1.063.838 2.34.838 3.875h1.26zM62.24 52.962l-3.22-.133-.051 1.26 3.22.132.05-1.26zm-2.616.497v-5.38h-1.26v5.38h1.26zm-.687-4.753c2.595.237 3.91.803 4.587 1.371.641.538.783 1.14.842 1.725l1.253-.126c-.073-.738-.284-1.724-1.286-2.564-.965-.81-2.583-1.414-5.281-1.661l-.115 1.255zm6.056 3.663h12.746v-1.26H64.992v1.26zm13.376-.63v-.397h-1.26v.397h1.26zm0-.397c0-2.731-.97-5.436-3.961-7.452-2.94-1.982-7.774-3.255-15.404-3.366l-.019 1.26c7.541.11 12.08 1.372 14.719 3.15 2.588 1.745 3.404 4.023 3.404 6.408h1.26zM59.623 41.154v-2.602h-1.26v2.602h1.26zm-.63-3.232h-4.278v1.26h4.278v-1.26zm-4.908.63v2.602h1.26v-2.602h-1.26zm.63 1.972c-7.513 0-12.303 1.114-15.23 2.988-2.987 1.912-3.968 4.57-3.968 7.389h1.26c0-2.474.828-4.69 3.387-6.328 2.62-1.676 7.114-2.789 14.551-2.789v-1.26zM35.517 50.9v.397h1.26V50.9h-1.26zm0 .397c0 2.669.89 5.224 3.427 7.13 2.5 1.878 6.525 3.069 12.666 3.247l.036-1.26c-6.032-.175-9.748-1.344-11.945-2.994-2.158-1.622-2.923-3.764-2.923-6.123h-1.26zm16.084 10.376l3.087.133.054-1.26-3.087-.132-.054 1.26zm2.484-.497v6.44h1.26v-6.44h-1.26zm.699 5.813c-2.54-.277-3.911-1.002-4.65-1.764-.73-.752-.92-1.622-.92-2.373h-1.26c0 .97.252 2.195 1.276 3.25 1.014 1.047 2.708 1.844 5.417 2.14l.137-1.253zm-6.2-4.767H35.707v1.26h12.879v-1.26zm-13.508.63v.485h1.26v-.485h-1.26zm0 .485c0 2.188.475 5.24 3.263 7.756 2.765 2.496 7.699 4.363 16.368 4.474l.016-1.26c-8.53-.11-13.102-1.948-15.54-4.15-2.417-2.181-2.846-4.817-2.846-6.82h-1.26zm19.01 11.6v2.734h1.26v-2.734h-1.26zm.63 3.364h4.277v-1.26h-4.278v1.26z" fill="url(#paint3_linear)"/><defs><linearGradient id="paint0_linear" x1="13.099" y1="64.093" x2="103.278" y2="64.62" gradientUnits="userSpaceOnUse"><stop stop-color="#FEBD2F"/><stop offset=".249" stop-color="#F95721"/><stop offset=".503" stop-color="#FC1370"/><stop offset=".672" stop-color="#BA2DB2"/><stop offset=".776" stop-color="#8342E9"/><stop offset=".964" stop-color="#3F89FC"/></linearGradient><linearGradient id="paint1_linear" x1="3" y1="64.961" x2="113.645" y2="65.608" gradientUnits="userSpaceOnUse"><stop stop-color="#FEBD2F"/><stop offset=".249" stop-color="#F95721"/><stop offset=".503" stop-color="#FC1370"/><stop offset=".672" stop-color="#BA2DB2"/><stop offset=".776" stop-color="#8342E9"/><stop offset=".964" stop-color="#3F89FC"/></linearGradient><linearGradient id="paint2_linear" x1="35.133" y1="59.109" x2="80.535" y2="59.737" gradientUnits="userSpaceOnUse"><stop stop-color="#FEBD2F"/><stop offset=".249" stop-color="#F95721"/><stop offset=".503" stop-color="#FC1370"/><stop offset=".672" stop-color="#BA2DB2"/><stop offset=".776" stop-color="#8342E9"/><stop offset=".964" stop-color="#3F89FC"/></linearGradient><linearGradient id="paint3_linear" x1="35.133" y1="59.109" x2="80.535" y2="59.737" gradientUnits="userSpaceOnUse"><stop stop-color="#FEBD2F"/><stop offset=".249" stop-color="#F95721"/><stop offset=".503" stop-color="#FC1370"/><stop offset=".672" stop-color="#BA2DB2"/><stop offset=".776" stop-color="#8342E9"/><stop offset=".964" stop-color="#3F89FC"/></linearGradient></defs></svg>