<svg width="86" height="86" fill="none" xmlns="http://www.w3.org/2000/svg"><path d="M43.014 76.8c18.455 0 33.416-14.96 33.416-33.416 0-18.455-14.96-33.416-33.416-33.416-18.455 0-33.416 14.961-33.416 33.416 0 18.456 14.96 33.417 33.416 33.417z" stroke="#FAFAFA" stroke-width=".5" stroke-miterlimit="10" stroke-linecap="round" stroke-linejoin="round"/><path d="M84.177 42.823a.25.25 0 00-.354 0l-1.59 1.591a.25.25 0 10.353.354L84 43.353l1.414 1.415a.25.25 0 10.354-.354l-1.591-1.59zm-41.354 41a.25.25 0 000 .354l1.591 1.59a.25.25 0 10.354-.353L43.353 84l1.415-1.414a.25.25 0 10-.354-.354l-1.59 1.591zm-41-40.646a.25.25 0 00.354 0l1.59-1.591a.25.25 0 10-.353-.354L2 42.647.586 41.232a.25.25 0 10-.354.354l1.591 1.59zm41.354-41a.25.25 0 000-.354L41.586.233a.25.25 0 10-.354.353L42.647 2l-1.415 1.414a.25.25 0 10.354.354l1.59-1.591zM83.75 43c0 22.506-18.244 40.75-40.75 40.75v.5c22.782 0 41.25-18.468 41.25-41.25h-.5zm-81.5 0C2.25 20.494 20.494 2.25 43 2.25v-.5C20.218 1.75 1.75 20.218 1.75 43h.5z" fill="#FAFAFA"/><path d="M36.459 38.244c0-.963.332-1.759 4.446-1.925v3.948c-3.816-.265-4.446-1.061-4.446-1.957v-.066zm12.708 10.418c0 1.028-.564 2.29-5.044 2.455v-4.81c4.413.265 5.044 1.06 5.044 2.222v.133zm-5.044 9.954v-2.057c12.642 0 14.964-4.115 14.964-8.362v-.464c0-4.844-3.484-6.968-12.542-7.233l-2.422-.1v-4.048c3.982.365 4.413 1.759 4.513 2.754h9.589v-.298c0-3.85-2.688-7.499-14.102-7.665v-1.957h-3.218v1.957c-11.248 0-13.968 3.351-13.968 7.333v.299c0 3.782 2.488 7.067 11.646 7.332l2.322.1v4.844c-3.948-.431-4.612-2.29-4.612-3.584h-9.688v.365c0 3.152 1.36 8.56 14.3 8.727v2.057h3.218z" fill="url(#paint0_linear)" fill-opacity=".2"/><path d="M40.905 36.32h.474v-.494l-.493.02.019.473zm0 3.947l-.033.473.507.036v-.509h-.474zm3.218 10.85h-.474v.492l.492-.018-.018-.474zm0-4.81l.029-.474-.503-.03v.503h.474zm0 12.309v.474h.474v-.474h-.474zm0-2.057v-.474h-.474v.474h.474zm2.422-16.06l-.019.474h.006l.014-.473zm-2.422-.099h-.474v.455l.455.019.02-.474zm0-4.048l.044-.472-.518-.047v.52h.474zm4.513 2.754l-.472.047.043.427h.429v-.474zm9.589 0v.474h.474v-.474h-.474zm-14.102-7.963h-.474v.467l.468.007.006-.474zm0-1.957h.474v-.474h-.474v.474zm-3.218 0v-.474h-.474v.474h.474zm0 1.957v.474h.474v-.474h-.474zm-2.322 14.964l.02-.474h-.007l-.013.474zm2.322.1h.474v-.455l-.454-.019-.02.474zm0 4.844l-.052.471.526.057v-.528h-.474zm-4.612-3.584h.474v-.474h-.474v.474zm-9.688 0v-.474h-.474v.474h.474zm14.3 9.092h.474v-.468l-.468-.006-.006.474zm0 2.057h-.474v.474h.474v-.474zm-3.972-20.372c0-.22.02-.37.075-.49.048-.107.141-.231.366-.36.488-.277 1.494-.518 3.55-.601l-.038-.947c-2.059.083-3.275.323-3.981.725-.373.212-.62.478-.762.795-.137.305-.158.616-.158.878h.948zm3.498-1.925v3.948h.948V36.32h-.948zm.507 3.476c-1.897-.132-2.921-.394-3.46-.687-.26-.14-.385-.276-.45-.39a.783.783 0 01-.095-.408h-.948c0 .28.05.587.222.884.172.297.443.544.818.748.73.395 1.928.665 3.847.798l.066-.945zm-4.005-1.485v-.066h-.948v.066h.948zm11.76 10.352c0 .214-.03.412-.115.595-.082.179-.231.373-.515.56-.59.391-1.741.744-3.957.827l.035.947c2.263-.084 3.633-.444 4.446-.983.416-.276.689-.6.852-.953.16-.348.202-.693.202-.993h-.948zm-4.096 2.455v-4.81h-.948v4.81h.948zm-.502-4.338c2.204.133 3.372.396 3.982.721.29.154.428.31.503.45.078.148.113.329.113.58h.948c0-.331-.044-.685-.223-1.022-.181-.343-.476-.621-.895-.845-.809-.43-2.163-.697-4.371-.83l-.057.946zm4.598 1.75v.133h.948v-.133h-.948zm-4.096 10.087v-2.057h-.948v2.057h.948zm-.474-1.584c6.353 0 10.217-1.03 12.5-2.677 2.324-1.677 2.938-3.938 2.938-6.158h-.948c0 2.027-.546 3.947-2.545 5.39-2.038 1.47-5.656 2.497-11.945 2.497v.948zm15.438-8.835v-.464h-.948v.464h.948zm0-.464c0-1.267-.228-2.39-.74-3.358-.515-.973-1.301-1.762-2.369-2.385-2.112-1.233-5.35-1.83-9.893-1.964l-.027.948c4.515.132 7.548.729 9.442 1.835.936.546 1.587 1.213 2.008 2.01.424.799.631 1.76.631 2.914h.948zm-12.996-7.707l-2.422-.1-.04.948 2.423.1.039-.948zm-1.968.374v-4.048h-.948V40.4h.948zm-.517-3.576c1.952.18 2.941.605 3.45 1.032.483.405.59.858.634 1.297l.943-.094c-.055-.555-.214-1.297-.967-1.93-.727-.609-1.944-1.063-3.973-1.249l-.087.944zm4.556 2.756h9.589v-.948h-9.59v.948zm10.063-.474v-.298h-.948v.298h.948zm0-.298c0-2.055-.73-4.09-2.98-5.607-2.212-1.49-5.848-2.448-11.589-2.532l-.014.948c5.674.083 9.088 1.033 11.073 2.37 1.947 1.312 2.562 3.027 2.562 4.82h.948zm-14.102-7.665v-1.957h-.948v1.957h.948zm-.474-2.431h-3.218v.948h3.218v-.948zm-3.692.474v1.957h.948v-1.957h-.948zm.474 1.483c-5.652 0-9.256.839-11.458 2.248-2.247 1.439-2.984 3.438-2.984 5.559h.948c0-1.861.622-3.528 2.547-4.76 1.971-1.262 5.352-2.099 10.947-2.099v-.948zm-14.442 7.807v.299h.948v-.3h-.948zm0 .299c0 2.008.668 3.93 2.578 5.364 1.88 1.412 4.908 2.308 9.528 2.442l.027-.948c-4.538-.131-7.333-1.01-8.986-2.252-1.624-1.22-2.2-2.832-2.2-4.606h-.947zm12.1 7.806l2.322.1.04-.948-2.322-.1-.04.948zm1.868-.374v4.844h.948v-4.844h-.948zm.526 4.373c-1.91-.21-2.943-.754-3.498-1.327-.55-.567-.692-1.221-.692-1.786h-.948c0 .73.19 1.651.96 2.446.762.787 2.036 1.386 4.074 1.609l.103-.942zm-4.664-3.587h-9.688v.948h9.688v-.948zm-10.162.474v.365h.948v-.365h-.948zm0 .365c0 1.646.357 3.943 2.454 5.835 2.08 1.878 5.792 3.282 12.314 3.365l.012-.947c-6.418-.083-9.856-1.466-11.691-3.122-1.819-1.64-2.141-3.624-2.141-5.13h-.948zm14.3 8.727v2.057h.948v-2.057h-.948zm.474 2.53h3.218v-.947h-3.218v.948z" fill="url(#paint1_linear)"/><defs><linearGradient id="paint0_linear" x1="26.174" y1="44.21" x2="60.329" y2="44.683" gradientUnits="userSpaceOnUse"><stop stop-color="#FEBD2F"/><stop offset=".249" stop-color="#F95721"/><stop offset=".503" stop-color="#FC1370"/><stop offset=".672" stop-color="#BA2DB2"/><stop offset=".776" stop-color="#8342E9"/><stop offset=".964" stop-color="#3F89FC"/></linearGradient><linearGradient id="paint1_linear" x1="26.174" y1="44.21" x2="60.329" y2="44.683" gradientUnits="userSpaceOnUse"><stop stop-color="#FEBD2F"/><stop offset=".249" stop-color="#F95721"/><stop offset=".503" stop-color="#FC1370"/><stop offset=".672" stop-color="#BA2DB2"/><stop offset=".776" stop-color="#8342E9"/><stop offset=".964" stop-color="#3F89FC"/></linearGradient></defs></svg>