<svg width="300" height="300" fill="none" xmlns="http://www.w3.org/2000/svg"><circle cx="150" cy="150" r="148.5" fill="#111" stroke="url(#paint0_linear)" stroke-width="3"/><path d="M189.574 128.488l-2.206-1.177v53.756c0 31.667-25.767 57.433-57.435 57.433-31.667 0-57.433-25.766-57.433-57.433 0-31.668 25.766-57.435 57.433-57.435a3.774 3.774 0 013.774 3.773v28.243a3.773 3.773 0 01-3.774 3.774c-11.935 0-21.643 9.708-21.643 21.645 0 11.935 9.708 21.643 21.643 21.643 11.936 0 21.645-9.708 21.645-21.643V65.273a3.774 3.774 0 013.774-3.773h28.243a3.773 3.773 0 013.773 3.773c0 19.723 16.043 35.765 35.765 35.765a3.775 3.775 0 013.774 3.774v28.243a3.774 3.774 0 01-3.774 3.773c-11.846 0-23.283-2.861-33.559-8.34z" fill="#111" stroke="url(#paint1_linear)" stroke-width="3"/><defs><linearGradient id="paint0_linear" x1="0" y1="170.536" x2="304.527" y2="172.317" gradientUnits="userSpaceOnUse"><stop stop-color="#FEBD2F"/><stop offset=".249" stop-color="#F95721"/><stop offset=".503" stop-color="#FC1370"/><stop offset=".672" stop-color="#BA2DB2"/><stop offset=".776" stop-color="#8342E9"/><stop offset=".964" stop-color="#3F89FC"/></linearGradient><linearGradient id="paint1_linear" x1="71" y1="162.321" x2="230.783" y2="163.139" gradientUnits="userSpaceOnUse"><stop stop-color="#FEBD2F"/><stop offset=".249" stop-color="#F95721"/><stop offset=".503" stop-color="#FC1370"/><stop offset=".672" stop-color="#BA2DB2"/><stop offset=".776" stop-color="#8342E9"/><stop offset=".964" stop-color="#3F89FC"/></linearGradient></defs></svg>