<svg width="40" height="40" fill="none" xmlns="http://www.w3.org/2000/svg"><circle cx="20" cy="20" r="19.5" fill="#111" stroke="url(#paint0_linear)"/><path d="M25.55 16.867l-.735-.392v7.667c0 4.057-3.3 7.358-7.358 7.358-4.056 0-7.357-3.301-7.357-7.358 0-4.056 3.3-7.358 7.357-7.358.113 0 .203.091.203.203v3.766c0 .112-.09.203-.203.203a3.189 3.189 0 00-3.185 3.186 3.189 3.189 0 003.185 3.186 3.189 3.189 0 003.186-3.186V8.703c0-.112.091-.203.203-.203h3.766c.113 0 .203.09.203.203a5.074 5.074 0 005.069 5.069c.112 0 .203.09.203.203v3.766c0 .112-.09.203-.203.203-1.53 0-3.007-.37-4.333-1.077z" fill="#111" stroke="url(#paint1_linear)"/><defs><linearGradient id="paint0_linear" x1="0" y1="22.738" x2="40.604" y2="22.976" gradientUnits="userSpaceOnUse"><stop stop-color="#FEBD2F"/><stop offset=".249" stop-color="#F95721"/><stop offset=".503" stop-color="#FC1370"/><stop offset=".672" stop-color="#BA2DB2"/><stop offset=".776" stop-color="#8342E9"/><stop offset=".964" stop-color="#3F89FC"/></linearGradient><linearGradient id="paint1_linear" x1="9.6" y1="21.643" x2="30.904" y2="21.752" gradientUnits="userSpaceOnUse"><stop stop-color="#FEBD2F"/><stop offset=".249" stop-color="#F95721"/><stop offset=".503" stop-color="#FC1370"/><stop offset=".672" stop-color="#BA2DB2"/><stop offset=".776" stop-color="#8342E9"/><stop offset=".964" stop-color="#3F89FC"/></linearGradient></defs></svg>