<svg width="141" height="141" fill="none" xmlns="http://www.w3.org/2000/svg"><circle cx="70.5" cy="70.5" r="70" fill="#111" stroke="url(#paint0_linear)"/><path transform="matrix(.8486 -.52903 0 1 54.98 54.543)" fill="url(#paint1_linear)" fill-opacity=".2" stroke="url(#paint2_linear)" stroke-width=".5" d="M.212.118h52.565v64.919H.212z"/><path d="M85.646 53.928h0l.005-.005c.155-.14.43-.372.674-.577l.103-.087v17.122c0 1.967-1.387 4.369-3.09 5.353-1.704.983-3.09.183-3.09-1.785 0-1.967 1.386-4.369 3.09-5.352.562-.325 1.09-.454 1.544-.412l.325.03v-8.607l-.275.248-10.03 9.07-.158.142v11.877c0 1.968-1.387 4.369-3.09 5.353-1.704.983-3.091.183-3.091-1.785 0-1.967 1.386-4.368 3.09-5.352.563-.325 1.09-.454 1.545-.412l.325.03V64.501l12.123-10.573z" fill="#111" stroke="url(#paint3_linear)" stroke-width=".5"/><path d="M41.595 114.642V49.096l44.94-27.946 13.41 5.208-44.939 28.073v65.419l-13.411-5.208z" fill="#646569" fill-opacity=".2"/><path d="M55.006 54.431l-13.411-5.335m13.411 5.335v65.419l-13.411-5.208V49.096m13.411 5.335l44.94-28.073-13.412-5.208-44.939 27.946" stroke="url(#paint4_linear)" stroke-width=".5"/><defs><linearGradient id="paint0_linear" x1="0" y1="80.152" x2="143.128" y2="80.989" gradientUnits="userSpaceOnUse"><stop stop-color="#FEBD2F"/><stop offset=".249" stop-color="#F95721"/><stop offset=".503" stop-color="#FC1370"/><stop offset=".672" stop-color="#BA2DB2"/><stop offset=".776" stop-color="#8342E9"/><stop offset=".964" stop-color="#3F89FC"/></linearGradient><linearGradient id="paint1_linear" x1=".107" y1="65.566" x2="68.469" y2="28.269" gradientUnits="userSpaceOnUse"><stop stop-color="#FEBD2F"/><stop offset=".249" stop-color="#F95721"/><stop offset=".503" stop-color="#FC1370"/><stop offset=".672" stop-color="#BA2DB2"/><stop offset=".776" stop-color="#8342E9"/><stop offset="1" stop-color="#3F89FC"/></linearGradient><linearGradient id="paint2_linear" x1="0" y1="37.188" x2="53.867" y2="37.443" gradientUnits="userSpaceOnUse"><stop stop-color="#FEBD2F"/><stop offset=".249" stop-color="#F95721"/><stop offset=".503" stop-color="#FC1370"/><stop offset=".672" stop-color="#BA2DB2"/><stop offset=".776" stop-color="#8342E9"/><stop offset=".964" stop-color="#3F89FC"/></linearGradient><linearGradient id="paint3_linear" x1="68.346" y1="77.636" x2="86.875" y2="77.715" gradientUnits="userSpaceOnUse"><stop stop-color="#FEBD2F"/><stop offset=".249" stop-color="#F95721"/><stop offset=".503" stop-color="#FC1370"/><stop offset=".672" stop-color="#BA2DB2"/><stop offset=".776" stop-color="#8342E9"/><stop offset=".964" stop-color="#3F89FC"/></linearGradient><linearGradient id="paint4_linear" x1="41.595" y1="77.256" x2="100.827" y2="77.461" gradientUnits="userSpaceOnUse"><stop stop-color="#FEBD2F"/><stop offset=".249" stop-color="#F95721"/><stop offset=".503" stop-color="#FC1370"/><stop offset=".672" stop-color="#BA2DB2"/><stop offset=".776" stop-color="#8342E9"/><stop offset=".964" stop-color="#3F89FC"/></linearGradient></defs></svg>