<svg width="202" height="143" fill="none" xmlns="http://www.w3.org/2000/svg"><path fill-rule="evenodd" clip-rule="evenodd" d="M192.119 32.177c-6.963-.681-17.712.382-31.003 2.991a.15.15 0 01-.058-.294c13.298-2.61 24.082-3.681 31.09-2.995a.15.15 0 11-.029.298zm6.414 1.307a.15.15 0 00-.142.265c1.162.62 1.918 1.399 2.255 2.333.346.96.25 2.071-.28 3.329-.532 1.259-1.495 2.653-2.865 4.163-2.74 3.02-7.085 6.479-12.774 10.222-11.375 7.486-28.095 16.088-48.011 24.565a.15.15 0 00.117.276c19.926-8.48 36.663-17.091 48.059-24.59 5.697-3.749 10.066-7.224 12.831-10.271 1.383-1.524 2.37-2.947 2.919-4.248.55-1.303.665-2.496.286-3.547-.37-1.026-1.191-1.854-2.395-2.497zm-77.012 51.232a.15.15 0 01-.085.194 603.193 603.193 0 01-13.914 5.225c-20.055 7.246-39.112 12.934-55.421 16.762a.15.15 0 11-.069-.292c16.296-3.825 35.342-9.51 55.388-16.752a601.315 601.315 0 0013.907-5.223.15.15 0 01.194.086zM3.116 102.027c.066.049.08.143.03.209-1.743 2.327-2.355 4.298-1.789 5.861.498 1.378 1.903 2.417 4.173 3.107 2.267.689 5.363 1.019 9.182 1.002 7.636-.032 18.122-1.446 30.555-4.088a.15.15 0 11.062.293c-12.44 2.645-22.95 4.063-30.616 4.095-3.831.017-6.962-.313-9.27-1.015-2.304-.699-3.822-1.781-4.368-3.292-.62-1.713.074-3.797 1.831-6.142a.15.15 0 01.21-.03zm27.962-19.856a.15.15 0 00-.144-.263c-4.16 2.273-7.955 4.49-11.35 6.63a.15.15 0 00.16.253c3.389-2.135 7.179-4.349 11.334-6.62z" fill="url(#paint0_linear)"/><path fill-rule="evenodd" clip-rule="evenodd" d="M153.984 25.396c13.174-2.925 24.33-4.54 32.46-4.677 4.065-.069 7.364.232 9.777.92 2.418.688 3.908 1.752 4.424 3.18.546 1.514-.009 3.411-1.63 5.644-1.616 2.227-4.266 4.75-7.826 7.496-7.119 5.489-17.849 11.84-31.138 18.44a.15.15 0 00-.067.2.15.15 0 00.201.068c13.296-6.604 24.046-12.964 31.187-18.47 3.57-2.753 6.245-5.297 7.886-7.558 1.636-2.254 2.268-4.263 1.669-5.921-.566-1.567-2.176-2.671-4.624-3.368-2.454-.699-5.786-1-9.864-.931-8.159.138-19.338 1.758-32.52 4.684a.15.15 0 10.065.293zm-7.714 37.846a.15.15 0 10-.123-.274c-11.71 5.278-24.794 10.584-38.727 15.618a577.286 577.286 0 01-24.476 8.242.15.15 0 00.09.286 577.188 577.188 0 0024.487-8.245c13.94-5.038 27.032-10.346 38.749-15.627zM7.488 86.222a.15.15 0 01-.013.211c-2.422 2.146-4.188 4.118-5.229 5.873-1.042 1.758-1.345 3.275-.892 4.528.642 1.772 2.785 2.981 6.312 3.608 3.513.624 8.34.659 14.245.139a.15.15 0 01.027.299c-5.917.521-10.773.488-14.325-.143-3.537-.628-5.838-1.862-6.54-3.8-.498-1.376-.147-2.991.915-4.784 1.064-1.794 2.855-3.79 5.288-5.944a.15.15 0 01.212.013zm52.7 7.261a.15.15 0 01-.107.183c-10.452 2.69-19.984 4.704-28.2 5.978a.15.15 0 01-.046-.297c8.204-1.272 17.727-3.284 28.17-5.972a.15.15 0 01.183.108zM30.375 71.122a.15.15 0 01-.06.203c-6.515 3.589-12.117 7.037-16.621 10.236a.15.15 0 11-.174-.244c4.516-3.208 10.128-6.662 16.651-10.254a.15.15 0 01.204.059z" fill="url(#paint1_linear)"/><path fill-rule="evenodd" clip-rule="evenodd" d="M182.011 46.918c3.957-.276 7.375-.28 10.174 0a.15.15 0 00.164-.135.149.149 0 00-.134-.164c-2.821-.282-6.258-.277-10.225 0a.15.15 0 00.021.3zm13.524.233a.15.15 0 00-.069.292c2.861.673 4.611 1.804 5.179 3.377.546 1.513-.009 3.41-1.63 5.643-1.616 2.227-4.266 4.75-7.826 7.496-7.119 5.489-17.849 11.84-31.138 18.44a.15.15 0 00-.067.2.15.15 0 00.201.068c13.296-6.604 24.046-12.964 31.187-18.47 3.57-2.753 6.245-5.297 7.886-7.558 1.636-2.254 2.268-4.263 1.669-5.921-.622-1.724-2.509-2.889-5.392-3.567zm-22.014.663a.15.15 0 00.128-.169.15.15 0 00-.168-.129c-1.952.266-3.989.577-6.104.935a.15.15 0 10.05.295c2.112-.356 4.146-.668 6.094-.932zM146.27 89.242a.15.15 0 10-.123-.274c-11.71 5.278-24.794 10.584-38.727 15.618a577.467 577.467 0 01-24.476 8.242.149.149 0 00-.099.187.15.15 0 00.188.099 577.31 577.31 0 0024.488-8.245c13.94-5.038 27.032-10.346 38.749-15.627zM7.488 112.222a.15.15 0 01-.013.211c-1.245 1.103-2.317 2.16-3.207 3.167-1.286 1.455-2.186 2.798-2.678 4.013-.492 1.214-.573 2.29-.236 3.221.642 1.772 2.785 2.981 6.312 3.608 3.513.624 8.34.659 14.245.139a.15.15 0 01.027.299c-5.917.521-10.774.488-14.325-.143-3.537-.628-5.839-1.862-6.541-3.801-.37-1.021-.27-2.176.24-3.435s1.433-2.631 2.732-4.1c.9-1.017 1.98-2.083 3.232-3.192a.15.15 0 01.212.013zm52.7 7.261a.15.15 0 01-.107.183c-10.452 2.689-19.984 4.704-28.2 5.978a.15.15 0 01-.17-.126.15.15 0 01.124-.171c8.204-1.272 17.727-3.284 28.17-5.972a.15.15 0 01.183.108zM30.375 97.122a.15.15 0 01-.06.203c-6.515 3.589-12.117 7.037-16.621 10.236a.15.15 0 11-.174-.244c4.516-3.208 10.128-6.662 16.651-10.254a.15.15 0 01.204.059z" fill="url(#paint2_linear)"/><path d="M171.254 71.517a71.14 71.14 0 01-.571 9.005c-4.503 1.99-3.823 5.803-4.544 7.985-.612 1.866-4.142 5.678-6.137 4.912-1.994-.77-9.97-.924-11.612-13.809-1.641-12.885-9.426-16.107-14.263-16.54-4.837-.427-7.327-4.021-9.111-5.569-1.783-1.547-4.33-2.7-4.33-2.7-3.252-1.69-4.638-.912-4.638-.912-8.626 3.256-9.771-.917-10.969-2.171-1.202-1.258-5.168-4.439-5.168-4.439-7.5-6.463-1.994-9.336-1.994-9.336s3.507-1.277 8.217-.158c4.705 1.116 3.815 5.145 4.307 7.18.658 2.712 3.662 2.881 3.662 2.881-.507-8.258 3.853-5.528 4.717-5.224 2.584.909 10.955 0 10.955 0 7.92-2.358 4.213-7.079 4.213-7.079s-5.719 7.372-7.582 3.035c-1.998-4.646-1.345-10.242-1.345-10.242 2.528-4.976 23.329-8.795 23.329-8.795 14.054 12.885 22.864 31.403 22.864 51.976z" fill="url(#paint3_linear)" fill-opacity=".2" stroke="url(#paint4_linear)" stroke-width=".3" stroke-miterlimit="10"/><path d="M99.76 17.93c-1.224-.628-7.537-1.74-4.356 3.368 2.37 3.805 8.476-.638 8.92-1.892 0 0-2.892-.624-4.563-1.476z" stroke="url(#paint5_linear)" stroke-width=".3" stroke-miterlimit="10"/><path d="M166.139 88.507c-.613 1.866-4.143 5.678-6.137 4.912-1.994-.77-9.971-.924-11.612-13.81-1.641-12.884-9.426-16.106-14.263-16.538-4.837-.428-7.327-4.023-9.111-5.57-1.784-1.547-4.33-2.7-4.33-2.7-3.252-1.69-4.638-.913-4.638-.913-8.626 3.256-9.772-.916-10.97-2.17-1.202-1.258-5.167-4.44-5.167-4.44-7.5-6.462-1.995-9.335-1.995-9.335s3.508-1.277 8.218-.158c4.705 1.115 3.815 5.145 4.307 7.18.657 2.712 3.662 2.88 3.662 2.88-.507-8.257 3.853-5.527 4.717-5.223 2.583.909 10.954 0 10.954 0 7.921-2.358 4.214-7.08 4.214-7.08s-5.72 7.373-7.582 3.035c-1.998-4.645-1.345-10.24-1.345-10.24 2.528-4.977 23.329-8.796 23.329-8.796C135.839 8.027 119.112 1 100.737 1c10.11 7.751.837 11.24-3.429 11.24s-2.347.672-5.964 1.758c-3.612 1.085-5.359 4.097-5.359 8.795 0 4.698-1.746 5.179-1.746 5.179a590.242 590.242 0 00-9.336-6.753c-5.787-6.943-.368-12.727.21-13.47.579-.744-1.442-1.364-1.442-1.364a70.02 70.02 0 00-12.138 6.512c2.975.47 2.577 3.332 3.26 4.304.68.977-2.144 4.387-6.628 6.629-4.48 2.242-6.523-2.926-6.523-2.926a67.138 67.138 0 00-3.437 3.575c10.527 3.301 17.876 13.377 17.876 13.377s3.016 10.395-.901 10.095c-3.92-.3-4.522-4.672-4.522-4.672-3.166.225-3.466 2.336-3.466 2.336C64.35 49.911 46.793 57.07 46.793 57.07s-1.13-.83-5.502 7.688c-4.367 8.513-8.363-.23-8.363-1.285 0-1.051-2.11-1.138-2.11-1.138a71.192 71.192 0 00-.575 10.76c.405.66 7.886 12.825 10.38 13.606 2.565.8 8.983.32 11.871 2.084 0 0 1.577.864.57 4.732 0 0 0 1.022 2.179 1.36 2.178.334 4.101 5.107 4.522 8.874.416 3.77 5.047 3.004 6.951 3.185 3.455.323 17.692 5.017 5.269 12.847-3.181 2.002-6.711 2.336-11.578 9.584 11.428 7.984 25.33 12.667 40.33 12.667 35.895 0 65.525-26.818 69.946-61.51-4.503 1.99-3.823 5.802-4.544 7.984zM99.76 17.93c1.672.852 4.563 1.476 4.563 1.476-.443 1.254-6.55 5.697-8.919 1.892-3.18-5.107 3.132-3.995 4.356-3.368zm47.826 86.304c-4.758 2.325-4.149 2.952-4.547 4.503-1.634 6.418-10.996 16.224-18.718 18.763 0 0-13.651 5.133-18.627-6.403 0 0-.721-7.744 1.296-12.36 0 0 5.659-14.721-4.439-18.747 0 0-11.841-2.223-14.8-6.17-2.96-3.947-9.044-13.047 0-16.032 2.249-.744 5.978.003 8.216-4.717.552-1.16.218-4.285 3.707-3.572 3.489.717 8.153-1.18 17.775 2.175 9.625 3.353 13.414 5.392 13.414 5.392s13.708 3.256 7.876 17.013c0 0-2.408 7.094 4.54 9.892 6.951 2.797 8.303 5.115 8.303 5.115s.766 2.82-3.996 5.148z" stroke="url(#paint6_linear)" stroke-width=".3" stroke-miterlimit="10"/><path d="M170.685 80.522h-.003" stroke="url(#paint7_linear)" stroke-width=".3" stroke-miterlimit="10" stroke-linecap="round" stroke-linejoin="round"/><path d="M147.586 104.235c-4.758 2.324-4.149 2.951-4.547 4.502-1.634 6.418-10.996 16.224-18.718 18.763 0 0-13.651 5.133-18.627-6.403 0 0-.721-7.744 1.296-12.36 0 0 5.659-14.721-4.439-18.747 0 0-11.841-2.223-14.8-6.17-2.96-3.947-9.044-13.047 0-16.032 2.249-.744 5.978.003 8.216-4.717.552-1.16.218-4.285 3.707-3.572 3.489.718 8.153-1.179 17.775 2.175 9.625 3.353 13.414 5.393 13.414 5.393s13.708 3.256 7.876 17.012c0 0-2.408 7.094 4.54 9.892 6.951 2.798 8.303 5.115 8.303 5.115s.766 2.82-3.996 5.149z" fill="url(#paint8_linear)" fill-opacity=".2" stroke="url(#paint9_linear)" stroke-width=".3" stroke-miterlimit="10"/><path d="M65.18 47.951c-3.92-.3-4.521-4.672-4.521-4.672-3.166.225-3.466 2.336-3.466 2.336 7.157 4.296-10.4 11.454-10.4 11.454s-1.13-.83-5.501 7.688c-4.368 8.513-8.364-.23-8.364-1.285 0-1.051-2.11-1.138-2.11-1.138 1.878-14.45 8.134-27.527 17.388-37.855 10.526 3.301 17.876 13.377 17.876 13.377s3.015 10.395-.902 10.095z" fill="url(#paint10_linear)" fill-opacity=".2" stroke="url(#paint11_linear)" stroke-width=".3" stroke-miterlimit="10"/><path d="M71.986 119.782c-3.181 2.002-6.711 2.336-11.579 9.584-17.845-12.465-29.653-32.977-30.163-56.272.405.66 7.886 12.825 10.38 13.606 2.565.8 8.983.32 11.87 2.084 0 0 1.578.864.572 4.732 0 0 0 1.021 2.178 1.36 2.178.334 4.1 5.107 4.521 8.874.417 3.77 5.048 3.004 6.952 3.184 3.455.323 17.692 5.018 5.269 12.848z" fill="url(#paint12_linear)" fill-opacity=".2" stroke="url(#paint13_linear)" stroke-width=".3" stroke-miterlimit="10"/><path d="M30.243 73.094l-.019-.03" stroke="url(#paint14_linear)" stroke-width=".3" stroke-miterlimit="10"/><path d="M97.308 12.24c-4.266 0-2.347.672-5.964 1.758-3.613 1.085-5.359 4.097-5.359 8.795 0 4.698-1.746 5.179-1.746 5.179a589.354 589.354 0 00-9.336-6.753c-5.788-6.943-.369-12.727.21-13.47.578-.744-1.442-1.364-1.442-1.364C82.004 2.915 91.145 1 100.737 1c10.109 7.751.837 11.24-3.43 11.24z" fill="url(#paint15_linear)" fill-opacity=".2" stroke="url(#paint16_linear)" stroke-width=".3" stroke-miterlimit="10"/><path d="M58.165 23.83c-4.48 2.242-6.523-2.926-6.523-2.926a70.725 70.725 0 019.892-8.006c2.974.469 2.576 3.33 3.26 4.303.68.977-2.145 4.387-6.629 6.629z" fill="url(#paint17_linear)" fill-opacity=".2" stroke="url(#paint18_linear)" stroke-width=".3" stroke-miterlimit="10"/><g filter="url(#filter0_b)"><path d="M104.324 19.405c-.444 1.255-6.55 5.698-8.92 1.893-3.18-5.107 3.132-3.996 4.357-3.368 1.671.852 4.563 1.476 4.563 1.476z" fill="url(#paint19_linear)" fill-opacity=".2"/><path d="M104.324 19.405c-.444 1.255-6.55 5.698-8.92 1.893-3.18-5.107 3.132-3.996 4.357-3.368 1.671.852 4.563 1.476 4.563 1.476z" stroke="url(#paint20_linear)" stroke-width=".3" stroke-miterlimit="10" stroke-linecap="round" stroke-linejoin="round"/></g><defs><linearGradient id="paint0_linear" x1=".852" y1="77.625" x2="204.136" y2="80.57" gradientUnits="userSpaceOnUse"><stop stop-color="#FEBD2F"/><stop offset=".249" stop-color="#F95721"/><stop offset=".503" stop-color="#FC1370"/><stop offset=".672" stop-color="#BA2DB2"/><stop offset=".776" stop-color="#8342E9"/><stop offset=".964" stop-color="#3F89FC"/></linearGradient><linearGradient id="paint1_linear" x1=".85" y1="66.359" x2="204.136" y2="69.305" gradientUnits="userSpaceOnUse"><stop stop-color="#FEBD2F"/><stop offset=".249" stop-color="#F95721"/><stop offset=".503" stop-color="#FC1370"/><stop offset=".672" stop-color="#BA2DB2"/><stop offset=".776" stop-color="#8342E9"/><stop offset=".964" stop-color="#3F89FC"/></linearGradient><linearGradient id="paint2_linear" x1=".85" y1="92.359" x2="204.136" y2="95.305" gradientUnits="userSpaceOnUse"><stop stop-color="#FEBD2F"/><stop offset=".249" stop-color="#F95721"/><stop offset=".503" stop-color="#FC1370"/><stop offset=".672" stop-color="#BA2DB2"/><stop offset=".776" stop-color="#8342E9"/><stop offset=".964" stop-color="#3F89FC"/></linearGradient><linearGradient id="paint3_linear" x1="95.969" y1="61.594" x2="172.39" y2="62.049" gradientUnits="userSpaceOnUse"><stop stop-color="#FEBD2F"/><stop offset=".249" stop-color="#F95721"/><stop offset=".503" stop-color="#FC1370"/><stop offset=".672" stop-color="#BA2DB2"/><stop offset=".776" stop-color="#8342E9"/><stop offset=".964" stop-color="#3F89FC"/></linearGradient><linearGradient id="paint4_linear" x1="95.969" y1="61.594" x2="172.39" y2="62.049" gradientUnits="userSpaceOnUse"><stop stop-color="#FEBD2F"/><stop offset=".249" stop-color="#F95721"/><stop offset=".503" stop-color="#FC1370"/><stop offset=".672" stop-color="#BA2DB2"/><stop offset=".776" stop-color="#8342E9"/><stop offset=".964" stop-color="#3F89FC"/></linearGradient><linearGradient id="paint5_linear" x1="94.518" y1="20.461" x2="104.471" y2="20.566" gradientUnits="userSpaceOnUse"><stop stop-color="#FEBD2F"/><stop offset=".249" stop-color="#F95721"/><stop offset=".503" stop-color="#FC1370"/><stop offset=".672" stop-color="#BA2DB2"/><stop offset=".776" stop-color="#8342E9"/><stop offset=".964" stop-color="#3F89FC"/></linearGradient><linearGradient id="paint6_linear" x1="30.224" y1="81.171" x2="172.802" y2="82.001" gradientUnits="userSpaceOnUse"><stop stop-color="#FEBD2F"/><stop offset=".249" stop-color="#F95721"/><stop offset=".503" stop-color="#FC1370"/><stop offset=".672" stop-color="#BA2DB2"/><stop offset=".776" stop-color="#8342E9"/><stop offset=".964" stop-color="#3F89FC"/></linearGradient><linearGradient id="paint7_linear" x1="170.682" y1="81.091" x2="170.685" y2="81.091" gradientUnits="userSpaceOnUse"><stop stop-color="#FEBD2F"/><stop offset=".249" stop-color="#F95721"/><stop offset=".503" stop-color="#FC1370"/><stop offset=".672" stop-color="#BA2DB2"/><stop offset=".776" stop-color="#8342E9"/><stop offset=".964" stop-color="#3F89FC"/></linearGradient><linearGradient id="paint8_linear" x1="82.99" y1="98.756" x2="152.663" y2="99.16" gradientUnits="userSpaceOnUse"><stop stop-color="#FEBD2F"/><stop offset=".249" stop-color="#F95721"/><stop offset=".503" stop-color="#FC1370"/><stop offset=".672" stop-color="#BA2DB2"/><stop offset=".776" stop-color="#8342E9"/><stop offset=".964" stop-color="#3F89FC"/></linearGradient><linearGradient id="paint9_linear" x1="82.99" y1="98.756" x2="152.663" y2="99.16" gradientUnits="userSpaceOnUse"><stop stop-color="#FEBD2F"/><stop offset=".249" stop-color="#F95721"/><stop offset=".503" stop-color="#FC1370"/><stop offset=".672" stop-color="#BA2DB2"/><stop offset=".776" stop-color="#8342E9"/><stop offset=".964" stop-color="#3F89FC"/></linearGradient><linearGradient id="paint10_linear" x1="30.818" y1="49.472" x2="67.739" y2="49.651" gradientUnits="userSpaceOnUse"><stop stop-color="#FEBD2F"/><stop offset=".249" stop-color="#F95721"/><stop offset=".503" stop-color="#FC1370"/><stop offset=".672" stop-color="#BA2DB2"/><stop offset=".776" stop-color="#8342E9"/><stop offset=".964" stop-color="#3F89FC"/></linearGradient><linearGradient id="paint11_linear" x1="30.818" y1="49.472" x2="67.739" y2="49.651" gradientUnits="userSpaceOnUse"><stop stop-color="#FEBD2F"/><stop offset=".249" stop-color="#F95721"/><stop offset=".503" stop-color="#FC1370"/><stop offset=".672" stop-color="#BA2DB2"/><stop offset=".776" stop-color="#8342E9"/><stop offset=".964" stop-color="#3F89FC"/></linearGradient><linearGradient id="paint12_linear" x1="30.244" y1="105.082" x2="77.687" y2="105.312" gradientUnits="userSpaceOnUse"><stop stop-color="#FEBD2F"/><stop offset=".249" stop-color="#F95721"/><stop offset=".503" stop-color="#FC1370"/><stop offset=".672" stop-color="#BA2DB2"/><stop offset=".776" stop-color="#8342E9"/><stop offset=".964" stop-color="#3F89FC"/></linearGradient><linearGradient id="paint13_linear" x1="30.244" y1="105.082" x2="77.687" y2="105.312" gradientUnits="userSpaceOnUse"><stop stop-color="#FEBD2F"/><stop offset=".249" stop-color="#F95721"/><stop offset=".503" stop-color="#FC1370"/><stop offset=".672" stop-color="#BA2DB2"/><stop offset=".776" stop-color="#8342E9"/><stop offset=".964" stop-color="#3F89FC"/></linearGradient><linearGradient id="paint14_linear" x1="30.224" y1="73.081" x2="30.243" y2="73.081" gradientUnits="userSpaceOnUse"><stop stop-color="#FEBD2F"/><stop offset=".249" stop-color="#F95721"/><stop offset=".503" stop-color="#FC1370"/><stop offset=".672" stop-color="#BA2DB2"/><stop offset=".776" stop-color="#8342E9"/><stop offset=".964" stop-color="#3F89FC"/></linearGradient><linearGradient id="paint15_linear" x1="72.255" y1="16.332" x2="105.787" y2="16.572" gradientUnits="userSpaceOnUse"><stop stop-color="#FEBD2F"/><stop offset=".249" stop-color="#F95721"/><stop offset=".503" stop-color="#FC1370"/><stop offset=".672" stop-color="#BA2DB2"/><stop offset=".776" stop-color="#8342E9"/><stop offset=".964" stop-color="#3F89FC"/></linearGradient><linearGradient id="paint16_linear" x1="72.255" y1="16.332" x2="105.787" y2="16.572" gradientUnits="userSpaceOnUse"><stop stop-color="#FEBD2F"/><stop offset=".249" stop-color="#F95721"/><stop offset=".503" stop-color="#FC1370"/><stop offset=".672" stop-color="#BA2DB2"/><stop offset=".776" stop-color="#8342E9"/><stop offset=".964" stop-color="#3F89FC"/></linearGradient><linearGradient id="paint17_linear" x1="51.642" y1="19.432" x2="65.094" y2="19.523" gradientUnits="userSpaceOnUse"><stop stop-color="#FEBD2F"/><stop offset=".249" stop-color="#F95721"/><stop offset=".503" stop-color="#FC1370"/><stop offset=".672" stop-color="#BA2DB2"/><stop offset=".776" stop-color="#8342E9"/><stop offset=".964" stop-color="#3F89FC"/></linearGradient><linearGradient id="paint18_linear" x1="51.642" y1="19.432" x2="65.094" y2="19.523" gradientUnits="userSpaceOnUse"><stop stop-color="#FEBD2F"/><stop offset=".249" stop-color="#F95721"/><stop offset=".503" stop-color="#FC1370"/><stop offset=".672" stop-color="#BA2DB2"/><stop offset=".776" stop-color="#8342E9"/><stop offset=".964" stop-color="#3F89FC"/></linearGradient><linearGradient id="paint19_linear" x1="94.518" y1="20.461" x2="104.471" y2="20.566" gradientUnits="userSpaceOnUse"><stop stop-color="#FEBD2F"/><stop offset=".249" stop-color="#F95721"/><stop offset=".503" stop-color="#FC1370"/><stop offset=".672" stop-color="#BA2DB2"/><stop offset=".776" stop-color="#8342E9"/><stop offset=".964" stop-color="#3F89FC"/></linearGradient><linearGradient id="paint20_linear" x1="94.518" y1="20.461" x2="104.471" y2="20.566" gradientUnits="userSpaceOnUse"><stop stop-color="#FEBD2F"/><stop offset=".249" stop-color="#F95721"/><stop offset=".503" stop-color="#FC1370"/><stop offset=".672" stop-color="#BA2DB2"/><stop offset=".776" stop-color="#8342E9"/><stop offset=".964" stop-color="#3F89FC"/></linearGradient><filter id="filter0_b" x="90.368" y="13.222" width="18.105" height="13.734" filterUnits="userSpaceOnUse" color-interpolation-filters="sRGB"><feFlood flood-opacity="0" result="BackgroundImageFix"/><feGaussianBlur in="BackgroundImage" stdDeviation="2"/><feComposite in2="SourceAlpha" operator="in" result="effect1_backgroundBlur"/><feBlend in="SourceGraphic" in2="effect1_backgroundBlur" result="shape"/></filter></defs></svg>