<svg width="268" height="352" viewBox="0 0 268 352" fill="none" xmlns="http://www.w3.org/2000/svg">
<g filter="url(#filter0_b)">
<path d="M138.168 0.999976C163.501 0.999976 185.835 5.16665 205.168 13.5C224.501 21.8333 239.501 33.8333 250.168 49.5C260.835 64.8333 266.168 82.6666 266.168 103C266.168 116 263.335 127.667 257.668 138C252.001 148 245.335 156.5 237.668 163.5C230.001 170.5 220.335 178.167 208.668 186.5C199.001 193.833 191.835 199.667 187.168 204C182.835 208.333 180.668 212.833 180.668 217.5V228H95.168V203C95.168 195 97.668 187.833 102.668 181.5C107.668 174.833 115.501 166.5 126.168 156.5C137.168 146.833 145.501 138.167 151.168 130.5C157.168 122.833 160.168 114.333 160.168 105C160.168 95.3333 157.168 87.1667 151.168 80.5C145.168 73.5 137.168 70 127.168 70C105.501 70 94.668 84 94.668 112C94.668 118 94.8346 122.5 95.168 125.5H3.16797C2.83464 123.167 2.5013 120.5 2.16797 117.5C1.83464 114.5 1.66797 110.833 1.66797 106.5C1.66797 85.1667 7.5013 66.6667 19.168 51C30.8346 35 47.0013 22.6667 67.668 14C88.668 5.33331 112.168 0.999976 138.168 0.999976ZM89.168 351V258.5H188.168V351H89.168Z" fill="url(#paint0_linear)" fill-opacity="0.2"/>
<path d="M205.168 13.5L204.772 14.4183L205.168 13.5ZM250.168 49.5L249.341 50.0628L249.347 50.071L250.168 49.5ZM257.668 138L258.538 138.493L258.545 138.481L257.668 138ZM237.668 163.5L236.994 162.761V162.762L237.668 163.5ZM208.668 186.5L208.087 185.686L208.075 185.695L208.064 185.703L208.668 186.5ZM187.168 204L186.488 203.267L186.474 203.28L186.461 203.293L187.168 204ZM180.668 228V229H181.668V228H180.668ZM95.168 228H94.168V229H95.168V228ZM102.668 181.5L103.453 182.12L103.461 182.11L103.468 182.1L102.668 181.5ZM126.168 156.5L125.508 155.749L125.496 155.759L125.484 155.77L126.168 156.5ZM151.168 130.5L150.38 129.884L150.372 129.895L150.364 129.906L151.168 130.5ZM151.168 80.5L150.409 81.1508L150.417 81.16L150.425 81.169L151.168 80.5ZM95.168 125.5V126.5H96.2852L96.1619 125.39L95.168 125.5ZM3.16797 125.5L2.17802 125.641L2.30067 126.5H3.16797V125.5ZM2.16797 117.5L3.16185 117.39L2.16797 117.5ZM19.168 51L19.9701 51.5973L19.976 51.5892L19.168 51ZM67.668 14L67.2865 13.0756L67.2812 13.0778L67.668 14ZM89.168 351H88.168V352H89.168V351ZM89.168 258.5V257.5H88.168V258.5H89.168ZM188.168 258.5H189.168V257.5H188.168V258.5ZM188.168 351V352H189.168V351H188.168ZM138.168 1.99997C163.392 1.99997 185.587 6.14864 204.772 14.4183L205.564 12.5817C186.083 4.18466 163.61 -3.05176e-05 138.168 -3.05176e-05V1.99997ZM204.772 14.4183C223.951 22.6851 238.793 34.5702 249.341 50.0628L250.995 48.9372C240.209 33.0965 225.052 20.9816 205.564 12.5817L204.772 14.4183ZM249.347 50.071C259.887 65.2218 265.168 82.8518 265.168 103H267.168C267.168 82.4815 261.783 64.4448 250.989 48.9289L249.347 50.071ZM265.168 103C265.168 115.85 262.369 127.348 256.791 137.519L258.545 138.481C264.3 127.985 267.168 116.15 267.168 103H265.168ZM256.798 137.507C251.178 147.425 244.575 155.84 236.994 162.761L238.342 164.238C246.095 157.16 252.825 148.575 258.538 138.493L256.798 137.507ZM236.994 162.762C229.365 169.727 219.732 177.368 208.087 185.686L209.249 187.314C220.937 178.965 230.637 171.273 238.342 164.238L236.994 162.762ZM208.064 185.703C198.39 193.042 191.191 198.899 186.488 203.267L187.848 204.733C192.478 200.434 199.613 194.624 209.272 187.297L208.064 185.703ZM186.461 203.293C182.001 207.753 179.668 212.493 179.668 217.5H181.668C181.668 213.174 183.668 208.914 187.875 204.707L186.461 203.293ZM179.668 217.5V228H181.668V217.5H179.668ZM180.668 227H95.168V229H180.668V227ZM96.168 228V203H94.168V228H96.168ZM96.168 203C96.168 195.227 98.5909 188.278 103.453 182.12L101.883 180.88C96.7451 187.389 94.168 194.773 94.168 203H96.168ZM103.468 182.1C108.417 175.502 116.201 167.215 126.852 157.23L125.484 155.77C114.802 165.785 106.919 174.165 101.868 180.9L103.468 182.1ZM126.828 157.251C137.856 147.56 146.247 138.84 151.972 131.094L150.364 129.906C144.756 137.493 136.48 146.107 125.508 155.749L126.828 157.251ZM151.955 131.116C158.087 123.282 161.168 114.567 161.168 105H159.168C159.168 114.1 156.249 122.385 150.38 129.884L151.955 131.116ZM161.168 105C161.168 95.1072 158.09 86.6963 151.911 79.831L150.425 81.169C156.246 87.637 159.168 95.5595 159.168 105H161.168ZM151.927 79.8492C145.72 72.6072 137.432 69 127.168 69V71C136.904 71 144.616 74.3928 150.409 81.1508L151.927 79.8492ZM127.168 69C116.102 69 107.651 72.5882 102.002 79.888C96.3911 87.1391 93.668 97.8988 93.668 112H95.668C95.668 98.1012 98.3615 87.8608 103.584 81.112C108.769 74.4118 116.567 71 127.168 71V69ZM93.668 112C93.668 118.008 93.8344 122.553 94.1741 125.61L96.1619 125.39C95.8348 122.447 95.668 117.992 95.668 112H93.668ZM95.168 124.5H3.16797V126.5H95.168V124.5ZM4.15792 125.359C3.8264 123.038 3.49434 120.382 3.16185 117.39L1.17409 117.61C1.50827 120.618 1.84287 123.295 2.17802 125.641L4.15792 125.359ZM3.16185 117.39C2.83392 114.438 2.66797 110.811 2.66797 106.5H0.667969C0.667969 110.856 0.835348 114.562 1.17409 117.61L3.16185 117.39ZM2.66797 106.5C2.66797 85.3609 8.44386 67.0752 19.97 51.5973L18.3659 50.4027C6.55875 66.2581 0.667969 84.9724 0.667969 106.5H2.66797ZM19.976 51.5892C31.5216 35.7552 47.5335 23.5278 68.0547 14.9222L67.2812 13.0778C46.4691 21.8055 30.1477 34.2448 18.36 50.4108L19.976 51.5892ZM68.0495 14.9244C88.9123 6.31432 112.28 1.99997 138.168 1.99997V-3.05176e-05C112.056 -3.05176e-05 88.4237 4.35231 67.2865 13.0756L68.0495 14.9244ZM90.168 351V258.5H88.168V351H90.168ZM89.168 259.5H188.168V257.5H89.168V259.5ZM187.168 258.5V351H189.168V258.5H187.168ZM188.168 350H89.168V352H188.168V350Z" fill="url(#paint1_linear)"/>
</g>
<defs>
<filter id="filter0_b" x="-14.332" y="-15" width="296.5" height="382" filterUnits="userSpaceOnUse" color-interpolation-filters="sRGB">
<feFlood flood-opacity="0" result="BackgroundImageFix"/>
<feGaussianBlur in="BackgroundImage" stdDeviation="7.5"/>
<feComposite in2="SourceAlpha" operator="in" result="effect1_backgroundBlur"/>
<feBlend mode="normal" in="SourceGraphic" in2="effect1_backgroundBlur" result="shape"/>
</filter>
<linearGradient id="paint0_linear" x1="-17" y1="186.19" x2="292.66" y2="203.507" gradientUnits="userSpaceOnUse">
<stop stop-color="#FEBD2F"/>
<stop offset="0.248726" stop-color="#F95721"/>
<stop offset="0.502913" stop-color="#FC1370"/>
<stop offset="0.671875" stop-color="#BA2DB2"/>
<stop offset="0.776042" stop-color="#8342E9"/>
<stop offset="0.963542" stop-color="#3F89FC"/>
</linearGradient>
<linearGradient id="paint1_linear" x1="-17" y1="186.19" x2="292.66" y2="203.507" gradientUnits="userSpaceOnUse">
<stop stop-color="#FEBD2F"/>
<stop offset="0.248726" stop-color="#F95721"/>
<stop offset="0.502913" stop-color="#FC1370"/>
<stop offset="0.671875" stop-color="#BA2DB2"/>
<stop offset="0.776042" stop-color="#8342E9"/>
<stop offset="0.963542" stop-color="#3F89FC"/>
</linearGradient>
</defs>
</svg>
