<svg width="150" height="50" viewBox="0 0 150 50" fill="none" xmlns="http://www.w3.org/2000/svg">
<rect width="150" height="50" fill="white"/>
<g clip-path="url(#clip0)">
<path d="M51.358 13.8677C50.5017 14.8811 49.1316 15.6803 47.7615 15.5661C47.5902 14.196 48.261 12.7402 49.0459 11.8411C49.9023 10.7992 51.4008 10.0571 52.614 10C52.7567 11.4272 52.2001 12.8259 51.358 13.8677ZM52.5997 15.8373C50.6159 15.7231 48.9175 16.9648 47.9755 16.9648C47.0193 16.9648 45.5778 15.8944 44.0079 15.9229C41.967 15.9515 40.0688 17.1075 39.0269 18.9486C36.8861 22.6308 38.4703 28.0828 40.5398 31.0799C41.5531 32.5642 42.7662 34.1912 44.3647 34.1342C45.8775 34.0771 46.477 33.1494 48.3038 33.1494C50.1449 33.1494 50.673 34.1342 52.2714 34.1056C53.927 34.0771 54.9689 32.6213 55.9822 31.137C57.1382 29.4529 57.6092 27.8116 57.6378 27.726C57.6092 27.6974 54.4408 26.4843 54.4123 22.8306C54.3837 19.7764 56.9099 18.3206 57.0241 18.235C55.5968 16.1227 53.3704 15.8944 52.5997 15.8373ZM64.0602 11.6984V33.9486H67.5141V26.3416H72.2952C76.6625 26.3416 79.731 23.3444 79.731 19.0057C79.731 14.667 76.7196 11.6984 72.4094 11.6984H64.0602ZM67.5141 14.6099H71.496C74.4931 14.6099 76.2058 16.2084 76.2058 19.02C76.2058 21.8316 74.4931 23.4443 71.4817 23.4443H67.5141V14.6099ZM86.0393 34.1199C88.2086 34.1199 90.221 33.0209 91.1344 31.2797H91.2058V33.9486H94.4027V22.8735C94.4027 19.6622 91.8338 17.5928 87.8804 17.5928C84.2125 17.5928 81.5007 19.6908 81.4008 22.5737H84.5122C84.7691 21.2036 86.0393 20.3045 87.7805 20.3045C89.8928 20.3045 91.0773 21.2892 91.0773 23.1018V24.3292L86.7672 24.5861C82.7567 24.8287 80.5873 26.47 80.5873 29.3245C80.5873 32.2074 82.8281 34.1199 86.0393 34.1199ZM86.967 31.4795C85.1259 31.4795 83.9556 30.5947 83.9556 29.2388C83.9556 27.8402 85.083 27.0266 87.2381 26.8982L91.0773 26.6556V27.9115C91.0773 29.9952 89.3076 31.4795 86.967 31.4795ZM98.6701 40C102.038 40 103.623 38.7155 105.007 34.8192L111.073 17.8069H107.562L103.494 30.9515H103.423L99.3552 17.8069H95.7443L101.596 34.0057L101.282 34.9905C100.754 36.6603 99.8975 37.3026 98.3704 37.3026C98.0992 37.3026 97.5712 37.274 97.3571 37.2455V39.9144C97.5569 39.9715 98.4132 40 98.6701 40Z" fill="black"/>
</g>
<defs>
<clipPath id="clip0">
<rect width="73.0733" height="30" fill="white" transform="translate(38 10)"/>
</clipPath>
</defs>
</svg>
