<svg width="42" height="30" viewBox="0 0 42 30" fill="none" xmlns="http://www.w3.org/2000/svg">
<path d="M0.00185602 5.00186C0.00083108 2.23971 2.23971 0 5.00186 0H37C39.7614 0 42 2.23858 42 5V25C42 27.7614 39.7614 30 37 30H5.00927C2.24858 30 0.0103017 27.7626 0.00927734 25.0019L0.00185602 5.00186Z" fill="white"/>
<path fill-rule="evenodd" clip-rule="evenodd" d="M41.9975 16.8844V24.9989C41.9975 27.5623 40.0685 29.6751 37.583 29.965H9.59583C29.5255 26.104 40.8766 17.7394 41.9975 16.8844Z" fill="#E57026"/>
<path d="M3.54877 9.10391H1.80109V15.9732H3.54877C4.4727 15.9732 5.1406 15.7234 5.73059 15.1863C6.43188 14.5369 6.84376 13.5627 6.84376 12.551C6.83263 10.5152 5.48569 9.10391 3.54877 9.10391ZM4.95136 14.2746C4.57289 14.6493 4.09422 14.8241 3.315 14.8241H2.99218V10.2779H3.315C4.08309 10.2779 4.55062 10.4278 4.95136 10.8275C5.36324 11.2396 5.60814 11.8766 5.60814 12.5386C5.60814 13.2005 5.36324 13.8624 4.95136 14.2746Z" fill="#231F20"/>
<path d="M8.58209 9.10388H7.39099V15.9732H8.58209V9.10388Z" fill="#231F20"/>
<path d="M11.4971 11.7392C10.7847 11.4395 10.5732 11.2397 10.5732 10.8775C10.5732 10.4403 10.9516 10.1156 11.4637 10.1156C11.8199 10.1156 12.1205 10.278 12.421 10.6776L13.0444 9.76589C12.5323 9.26631 11.9201 9.00403 11.2411 9.00403C10.1613 9.00403 9.3264 9.85332 9.3264 10.9774C9.3264 11.9266 9.71601 12.4137 10.8292 12.8633C11.2967 13.0507 11.5305 13.1756 11.6529 13.2505C11.8867 13.4253 12.0091 13.6751 12.0091 13.9624C12.0091 14.5244 11.6195 14.9366 11.0852 14.9366C10.5175 14.9366 10.0611 14.6119 9.7828 14.0248L9.01471 14.8616C9.56016 15.7734 10.2281 16.1731 11.1297 16.1731C12.3654 16.1731 13.2448 15.2488 13.2448 13.9124C13.267 12.8009 12.8552 12.3013 11.4971 11.7392Z" fill="#231F20"/>
<path d="M13.6362 12.551C13.6362 14.5743 15.05 16.1355 16.8644 16.1355C17.3765 16.1355 17.8218 16.0231 18.3561 15.7358V14.1621C17.8774 14.6992 17.4544 14.9115 16.9201 14.9115C15.7179 14.9115 14.8607 13.9373 14.8607 12.5385C14.8607 11.2146 15.7401 10.178 16.8644 10.178C17.4321 10.178 17.8663 10.4028 18.3561 10.9523V9.37862C17.8329 9.07887 17.3988 8.95398 16.8867 8.95398C15.0945 8.95398 13.6362 10.5526 13.6362 12.551Z" fill="#231F20"/>
<path d="M27.8392 13.725L26.2028 9.10388H24.9004L27.4941 16.148H28.1397L30.7779 9.10388H29.4867L27.8392 13.725Z" fill="#231F20"/>
<path d="M31.3232 15.9732H34.7073V14.8116H32.5143V12.9632H34.6294V11.8016H32.5143V10.2779H34.7073V9.10388H31.3232V15.9732Z" fill="#231F20"/>
<path d="M39.4393 11.1396C39.4393 9.85322 38.649 9.11633 37.2687 9.11633H35.4987V15.9856H36.6898V13.2254H36.8457L38.4932 15.9856H39.9625L38.0368 13.088C38.9384 12.8757 39.4393 12.1888 39.4393 11.1396ZM37.0349 12.2762H36.6898V10.1904H37.0572C37.803 10.1904 38.2037 10.5401 38.2037 11.2146C38.2037 11.9015 37.803 12.2762 37.0349 12.2762Z" fill="#231F20"/>
<path d="M22.0172 16.223C23.8185 16.223 25.2788 14.5846 25.2788 12.5635C25.2788 10.5424 23.8185 8.90405 22.0172 8.90405C20.2159 8.90405 18.7556 10.5424 18.7556 12.5635C18.7556 14.5846 20.2159 16.223 22.0172 16.223Z" fill="url(#paint0_linear)"/>
<path opacity="0.65" d="M22.0172 16.223C23.8185 16.223 25.2788 14.5846 25.2788 12.5635C25.2788 10.5424 23.8185 8.90405 22.0172 8.90405C20.2159 8.90405 18.7556 10.5424 18.7556 12.5635C18.7556 14.5846 20.2159 16.223 22.0172 16.223Z" fill="url(#paint1_linear)"/>
<path d="M40.1959 9.36618C40.1959 9.24128 40.118 9.17883 39.9956 9.17883H39.8174V9.77833H39.951V9.54103L40.1069 9.77833H40.2627L40.0846 9.52854C40.1514 9.51605 40.1959 9.4536 40.1959 9.36618ZM39.9733 9.45361H39.951V9.29124H39.9733C40.0401 9.29124 40.0735 9.31622 40.0735 9.36618C40.0735 9.42862 40.0401 9.45361 39.9733 9.45361Z" fill="#231F20"/>
<path d="M40.0175 8.9541C39.7614 8.9541 39.5499 9.1914 39.5499 9.47866C39.5499 9.76592 39.7614 10.0032 40.0175 10.0032C40.2735 10.0032 40.485 9.76592 40.485 9.47866C40.485 9.1914 40.2735 8.9541 40.0175 8.9541ZM40.0175 9.9158C39.8171 9.9158 39.639 9.72846 39.639 9.47866C39.639 9.24136 39.806 9.04153 40.0175 9.04153C40.2178 9.04153 40.3848 9.24136 40.3848 9.47866C40.3848 9.71597 40.2178 9.9158 40.0175 9.9158Z" fill="#231F20"/>
<defs>
<linearGradient id="paint0_linear" x1="23.6842" y1="15.4919" x2="21.044" y2="11.8076" gradientUnits="userSpaceOnUse">
<stop stop-color="#F89F20"/>
<stop offset="0.2502" stop-color="#F79A20"/>
<stop offset="0.5331" stop-color="#F68D20"/>
<stop offset="0.6196" stop-color="#F58720"/>
<stop offset="0.7232" stop-color="#F48120"/>
<stop offset="1" stop-color="#F37521"/>
</linearGradient>
<linearGradient id="paint1_linear" x1="23.3283" y1="15.4386" x2="19.3916" y2="8.58064" gradientUnits="userSpaceOnUse">
<stop stop-color="#F58720"/>
<stop offset="0.3587" stop-color="#E16F27"/>
<stop offset="0.703" stop-color="#D4602C"/>
<stop offset="0.9816" stop-color="#D05B2E"/>
</linearGradient>
</defs>
</svg>
