<svg width="42" height="30" viewBox="0 0 42 30" fill="none" xmlns="http://www.w3.org/2000/svg">
<path d="M2.62496 0H39.375C40.8241 0 42 1.16859 42 2.60984V27.3914C42 28.8314 40.8241 30 39.375 30H2.62496C1.17465 30.0001 0 28.8314 0 27.3916V2.60984C0 1.16859 1.17594 0 2.62496 0Z" fill="#26A6D1"/>
<path d="M6.24629 10L2 19.3381H7.0834L7.71359 17.8493H9.15408L9.78427 19.3381H15.3797V18.2018L15.8782 19.3381H18.7726L19.2712 18.1778V19.3381H30.9081L32.3231 17.8879L33.648 19.3381L39.625 19.3502L35.3653 14.6951L39.625 10H33.7407L32.3633 11.4234L31.0801 10H18.4207L17.3336 12.4103L16.2211 10H11.1483V11.0977L10.5839 10C10.5839 10 6.24629 10 6.24629 10ZM7.22989 11.326H9.70778L12.5243 17.6583V11.326H15.2388L17.4142 15.8662L19.4192 11.326H22.12V18.0268H20.4766L20.4632 12.7761L18.0673 18.0268H16.5972L14.1878 12.7761V18.0268H10.8069L10.166 16.5245H6.70316L6.06354 18.0254H4.2521L7.22989 11.326ZM23.6236 11.326H30.3061L32.3499 13.52L34.4597 11.326H36.5035L33.3981 14.6938L36.5035 18.0228H34.367L32.3231 15.8034L30.2026 18.0228H23.6236V11.326ZM8.43531 12.4598L7.29445 15.1358H9.57484L8.43531 12.4598ZM25.2738 12.7134V13.9366H28.9194V15.3H25.2738V16.6354H29.3628L31.2629 14.6685L29.4435 12.7122H25.2738V12.7134Z" fill="white"/>
</svg>
