<svg width="200" height="200" viewBox="0 0 200 200" fill="none" xmlns="http://www.w3.org/2000/svg">
<path fill-rule="evenodd" clip-rule="evenodd" d="M100 200C155.228 200 200 155.228 200 100C200 44.7715 155.228 0 100 0C44.7715 0 0 44.7715 0 100C0 155.228 44.7715 200 100 200ZM123.916 92.8333H76.0827H69.25C67.3686 92.8333 65.8333 94.364 65.8333 96.25V144.083C65.8333 145.969 67.3686 147.5 69.25 147.5H130.75C132.631 147.5 134.167 145.969 134.167 144.083V96.25C134.167 94.364 132.631 92.8333 130.75 92.8333H123.916ZM120.499 72.3333V86H79.4994V72.3333C79.4994 61.031 88.697 51.8333 99.9994 51.8333C111.302 51.8333 120.499 61.031 120.499 72.3333ZM72.666 86V72.3333C72.666 57.259 84.925 45 99.9994 45C115.074 45 127.333 57.259 127.333 72.3333V86H130.75C136.399 86 141 90.5966 141 96.25V144.083C141 149.737 136.399 154.333 130.75 154.333H69.25C63.6011 154.333 59 149.737 59 144.083V96.25C59 90.5966 63.6011 86 69.25 86H72.666ZM96.6953 121.78C93.3586 120.427 91 117.151 91 113.333C91 108.309 95.0863 104.222 100.111 104.222C105.136 104.222 109.222 108.309 109.222 113.333C109.222 117.15 106.864 120.425 103.529 121.78V132.694C103.529 134.58 101.998 136.111 100.112 136.111C98.226 136.111 96.6953 134.58 96.6953 132.694V121.78ZM97.8333 113.333C97.8333 112.076 98.8583 111.056 100.111 111.056C101.364 111.056 102.389 112.076 102.389 113.333C102.389 114.591 101.364 115.611 100.111 115.611C98.8583 115.611 97.8333 114.591 97.8333 113.333Z" fill="#FAFAFA"/>
</svg>
