<svg width="70" height="50" viewBox="0 0 70 50" fill="none" xmlns="http://www.w3.org/2000/svg">
<path d="M4.37494 0H65.6251C68.0401 0 70 1.94765 70 4.34973V45.6524C70 48.0523 68.0401 50 65.6251 50H4.37494C1.95775 50.0002 0 48.0523 0 45.6527V4.34973C0 1.94765 1.95991 0 4.37494 0Z" fill="#26A6D1"/>
<path d="M11.2876 17.3906L4.375 32.5923H12.6503L13.6762 30.1685H16.0212L17.0471 32.5923H26.1559V30.7424L26.9675 32.5923H31.6793L32.491 30.7033V32.5923H51.4348L53.7383 30.2314L55.8952 32.5923L65.6251 32.6118L58.6907 25.0339L65.6251 17.3906H56.0461L53.8038 19.7078L51.7148 17.3906H31.1064L29.3367 21.3143L27.5256 17.3906H19.2675V19.1776L18.3489 17.3906C18.3489 17.3906 11.2876 17.3906 11.2876 17.3906ZM12.8888 19.5493H16.9226L21.5077 29.8576V19.5493H25.9265L29.468 26.9403L32.7319 19.5493H37.1286V30.4575H34.4533L34.4314 21.9099L30.5311 30.4575H28.1379L24.2157 21.9099V30.4575H18.7119L17.6685 28.012H12.0313L10.9901 30.4553H8.04122L12.8888 19.5493ZM39.5763 19.5493H50.4547L53.7819 23.1208L57.2164 19.5493H60.5436L55.4883 25.0317L60.5436 30.451H57.0655L53.7383 26.838L50.2863 30.451H39.5763V19.5493ZM14.8511 21.3949L12.9939 25.7513H16.7062L14.8511 21.3949ZM42.2627 21.8078V23.7991H48.1973V26.0186H42.2627V28.1925H48.9193L52.0123 24.9905L49.0505 21.8059H42.2627V21.8078Z" fill="white"/>
</svg>
