<svg width="78" height="50" viewBox="0 0 78 50" fill="none" xmlns="http://www.w3.org/2000/svg">
<path d="M0.271686 4.31172C0.270766 2.10193 2.0619 0.310059 4.27169 0.310059H73.8718C76.081 0.310059 77.8718 2.10092 77.8718 4.31006V45.7136C77.8718 47.9227 76.081 49.7136 73.8718 49.7136H4.28892C2.08043 49.7136 0.289843 47.9238 0.288923 45.7153L0.271686 4.31172Z" fill="white"/>
<path fill-rule="evenodd" clip-rule="evenodd" d="M77.8675 28.1166V45.7121C77.8675 47.696 76.4231 49.3426 74.5286 49.6577H18C54.824 43.2993 75.7971 29.5241 77.8675 28.1166Z" fill="#E57026"/>
<path d="M6.82681 15.3024H3.59769V26.6146H6.82681C8.53393 26.6146 9.76799 26.2032 10.8581 25.3188C12.1538 24.2493 12.9148 22.645 12.9148 20.979C12.8943 17.6265 10.4056 15.3024 6.82681 15.3024ZM9.41834 23.8174C8.71904 24.4344 7.83463 24.7224 6.39489 24.7224H5.79843V17.2357H6.39489C7.81406 17.2357 8.6779 17.4825 9.41834 18.1407C10.1793 18.8194 10.6318 19.8684 10.6318 20.9585C10.6318 22.0486 10.1793 23.1386 9.41834 23.8174Z" fill="#231F20"/>
<path d="M16.1266 15.3024H13.9258V26.6146H16.1266V15.3024Z" fill="#231F20"/>
<path d="M21.5124 19.6421C20.1961 19.1485 19.8053 18.8194 19.8053 18.223C19.8053 17.5031 20.5046 16.9683 21.4507 16.9683C22.1089 16.9683 22.6642 17.2357 23.2195 17.8939L24.3713 16.3924C23.4252 15.5697 22.294 15.1378 21.0393 15.1378C19.0443 15.1378 17.5017 16.5364 17.5017 18.3875C17.5017 19.9507 18.2216 20.7528 20.2783 21.4932C21.1422 21.8017 21.5741 22.0074 21.8003 22.1308C22.2323 22.4188 22.4585 22.8301 22.4585 23.3032C22.4585 24.2287 21.7386 24.9075 20.7514 24.9075C19.7024 24.9075 18.8592 24.3727 18.345 23.406L16.9258 24.7841C17.9336 26.2855 19.1677 26.9437 20.8337 26.9437C23.1167 26.9437 24.7415 25.4217 24.7415 23.2209C24.7827 21.3904 24.0217 20.5677 21.5124 19.6421Z" fill="#231F20"/>
<path d="M25.4649 20.979C25.4649 24.311 28.077 26.882 31.4295 26.882C32.3756 26.882 33.1983 26.6968 34.1856 26.2238V23.6323C33.3012 24.5167 32.5196 24.8663 31.5323 24.8663C29.311 24.8663 27.7273 23.262 27.7273 20.9585C27.7273 18.7783 29.3522 17.0712 31.4295 17.0712C32.4784 17.0712 33.2806 17.4414 34.1856 18.3464V15.7548C33.2189 15.2612 32.4167 15.0555 31.4706 15.0555C28.1592 15.0555 25.4649 17.6882 25.4649 20.979Z" fill="#231F20"/>
<path d="M51.7072 22.9124L48.6838 15.3024H46.2773L51.0696 26.9025H52.2625L57.1371 15.3024H54.7512L51.7072 22.9124Z" fill="#231F20"/>
<path d="M58.1445 26.6146H64.3971V24.7018H60.3453V21.6578H64.2531V19.745H60.3453V17.2357H64.3971V15.3024H58.1445V26.6146Z" fill="#231F20"/>
<path d="M73.1403 18.6548C73.1403 16.5364 71.68 15.3229 69.1296 15.3229H65.8594V26.6351H68.0601V22.0896H68.3481L71.3921 26.6351H74.107L70.5488 21.8634C72.2148 21.5137 73.1403 20.3825 73.1403 18.6548ZM68.6977 20.5265H68.0601V17.0917H68.7388C70.1169 17.0917 70.8573 17.6676 70.8573 18.7782C70.8573 19.9095 70.1169 20.5265 68.6977 20.5265Z" fill="#231F20"/>
<path d="M40.9504 27.0259C44.2786 27.0259 46.9767 24.3278 46.9767 20.9995C46.9767 17.6713 44.2786 14.9732 40.9504 14.9732C37.6222 14.9732 34.9241 17.6713 34.9241 20.9995C34.9241 24.3278 37.6222 27.0259 40.9504 27.0259Z" fill="url(#paint0_linear)"/>
<path opacity="0.65" d="M40.9504 27.0259C44.2786 27.0259 46.9767 24.3278 46.9767 20.9995C46.9767 17.6713 44.2786 14.9732 40.9504 14.9732C37.6222 14.9732 34.9241 17.6713 34.9241 20.9995C34.9241 24.3278 37.6222 27.0259 40.9504 27.0259Z" fill="url(#paint1_linear)"/>
<path d="M74.5382 15.7341C74.5382 15.5284 74.3942 15.4256 74.168 15.4256H73.8389V16.4128H74.0857V16.0221L74.3736 16.4128H74.6616L74.3325 16.0015C74.4559 15.9809 74.5382 15.8781 74.5382 15.7341ZM74.1268 15.8781H74.0857V15.6107H74.1268C74.2502 15.6107 74.3119 15.6518 74.3119 15.7341C74.3119 15.837 74.2502 15.8781 74.1268 15.8781Z" fill="#231F20"/>
<path d="M74.2085 15.0555C73.7354 15.0555 73.3447 15.4463 73.3447 15.9194C73.3447 16.3924 73.7354 16.7832 74.2085 16.7832C74.6816 16.7832 75.0723 16.3924 75.0723 15.9194C75.0723 15.4463 74.6816 15.0555 74.2085 15.0555ZM74.2085 16.6393C73.8383 16.6393 73.5092 16.3307 73.5092 15.9194C73.5092 15.5286 73.8177 15.1995 74.2085 15.1995C74.5787 15.1995 74.8872 15.5286 74.8872 15.9194C74.8872 16.3102 74.5787 16.6393 74.2085 16.6393Z" fill="#231F20"/>
<defs>
<linearGradient id="paint0_linear" x1="44.0305" y1="25.822" x2="39.8647" y2="19.2997" gradientUnits="userSpaceOnUse">
<stop stop-color="#F89F20"/>
<stop offset="0.2502" stop-color="#F79A20"/>
<stop offset="0.5331" stop-color="#F68D20"/>
<stop offset="0.6196" stop-color="#F58720"/>
<stop offset="0.7232" stop-color="#F48120"/>
<stop offset="1" stop-color="#F37521"/>
</linearGradient>
<linearGradient id="paint1_linear" x1="43.3728" y1="25.7342" x2="37.2844" y2="13.8342" gradientUnits="userSpaceOnUse">
<stop stop-color="#F58720"/>
<stop offset="0.3587" stop-color="#E16F27"/>
<stop offset="0.703" stop-color="#D4602C"/>
<stop offset="0.9816" stop-color="#D05B2E"/>
</linearGradient>
</defs>
</svg>
