<svg width="151" height="40" viewBox="0 0 151 40" fill="none" xmlns="http://www.w3.org/2000/svg">
<path d="M56.0128 8.18066H47.7231C47.4487 8.18048 47.1832 8.27833 46.9745 8.45656C46.7659 8.63479 46.6277 8.8817 46.5849 9.15278L43.2322 30.4097C43.2168 30.5084 43.223 30.6092 43.2502 30.7052C43.2775 30.8013 43.3253 30.8902 43.3903 30.9661C43.4552 31.0419 43.5359 31.1027 43.6266 31.1443C43.7173 31.186 43.816 31.2075 43.9159 31.2073H47.8734C48.148 31.2075 48.4137 31.1094 48.6224 30.931C48.8311 30.7525 48.9691 30.5053 49.0116 30.234L49.9159 24.5007C49.9583 24.2296 50.0962 23.9825 50.3046 23.8041C50.5131 23.6256 50.7784 23.5275 51.0528 23.5273H53.6771C59.1377 23.5273 62.2892 20.8849 63.1122 15.6485C63.4831 13.3576 63.128 11.5576 62.0553 10.297C60.8771 8.91278 58.7874 8.18066 56.0128 8.18066ZM56.9692 15.9443C56.5159 18.9188 54.2431 18.9188 52.0456 18.9188H50.7946L51.6722 13.3637C51.6979 13.2012 51.7808 13.0531 51.9059 12.9463C52.031 12.8394 52.1901 12.7807 52.3546 12.7807H52.928C54.425 12.7807 55.8371 12.7807 56.5668 13.634C57.0019 14.1431 57.1353 14.8994 56.9692 15.9443ZM80.7922 15.8485H76.8225C76.658 15.8485 76.4989 15.9073 76.3737 16.0141C76.2486 16.121 76.1658 16.269 76.1401 16.4316L75.9644 17.5419L75.6868 17.1394C74.8274 15.8922 72.911 15.4752 70.9983 15.4752C66.6116 15.4752 62.865 18.7976 62.1353 23.4582C61.7559 25.7831 62.2953 28.0061 63.614 29.5564C64.8237 30.9819 66.5546 31.5758 68.614 31.5758C72.1486 31.5758 74.1086 29.3031 74.1086 29.3031L73.9316 30.4061C73.9159 30.5047 73.9217 30.6056 73.9486 30.7018C73.9756 30.7979 74.0231 30.8871 74.0878 30.9631C74.1526 31.0392 74.233 31.1003 74.3237 31.1422C74.4143 31.1842 74.513 31.206 74.6128 31.2061H78.1886C78.4632 31.2062 78.7288 31.1082 78.9375 30.9297C79.1462 30.7513 79.2843 30.5041 79.3268 30.2328L81.4722 16.6461C81.488 16.5477 81.4823 16.4471 81.4553 16.3511C81.4284 16.2551 81.381 16.1662 81.3164 16.0903C81.2517 16.0145 81.1714 15.9536 81.0809 15.9119C80.9904 15.8701 80.8919 15.8485 80.7922 15.8485ZM75.2589 23.5746C74.8759 25.8425 73.0759 27.3649 70.7801 27.3649C69.6274 27.3649 68.7062 26.9952 68.1147 26.2946C67.528 25.5988 67.305 24.6085 67.4916 23.5055C67.8492 21.257 69.6795 19.6849 71.9401 19.6849C73.0674 19.6849 73.9837 20.0594 74.5874 20.7661C75.1922 21.4801 75.4322 22.4764 75.2589 23.5746ZM101.934 15.8485H97.945C97.7568 15.8488 97.5716 15.895 97.4054 15.9831C97.2391 16.0712 97.0969 16.1985 96.991 16.354L91.4892 24.4582L89.1571 16.6704C89.0855 16.4328 88.9393 16.2247 88.7402 16.0766C88.5412 15.9286 88.2997 15.8487 88.0516 15.8485H84.1316C84.0216 15.8482 83.9131 15.8742 83.8151 15.9244C83.7172 15.9745 83.6326 16.0473 83.5684 16.1367C83.5043 16.2261 83.4624 16.3295 83.4463 16.4384C83.4302 16.5472 83.4403 16.6583 83.4759 16.7625L87.8698 29.657L83.7389 35.4885C83.6655 35.5919 83.6219 35.7135 83.613 35.84C83.6041 35.9665 83.6302 36.093 83.6884 36.2057C83.7466 36.3183 83.8347 36.4128 83.943 36.4787C84.0513 36.5447 84.1757 36.5795 84.3025 36.5794H88.2868C88.4728 36.5797 88.6561 36.5348 88.821 36.4487C88.9859 36.3626 89.1274 36.2377 89.2334 36.0849L102.501 16.9334C102.573 16.8298 102.615 16.7084 102.623 16.5826C102.631 16.4567 102.604 16.3311 102.546 16.2193C102.488 16.1075 102.4 16.0139 102.292 15.9485C102.184 15.8832 102.06 15.8486 101.934 15.8485Z" fill="#253B80"/>
<path d="M115.143 8.18059H106.852C106.578 8.18071 106.313 8.27869 106.104 8.45689C105.896 8.6351 105.758 8.88184 105.715 9.15272L102.363 30.4097C102.347 30.5082 102.353 30.6088 102.38 30.7048C102.407 30.8007 102.455 30.8897 102.519 30.9655C102.584 31.0413 102.664 31.1022 102.755 31.1439C102.846 31.1856 102.944 31.2073 103.044 31.2073H107.298C107.49 31.207 107.676 31.1382 107.822 31.0133C107.967 30.8885 108.064 30.7157 108.093 30.5261L109.045 24.5006C109.087 24.2295 109.225 23.9825 109.434 23.804C109.642 23.6256 109.908 23.5274 110.182 23.5273H112.805C118.267 23.5273 121.417 20.8848 122.241 15.6485C122.613 13.3576 122.256 11.5576 121.183 10.297C120.006 8.91272 117.918 8.18059 115.143 8.18059ZM116.1 15.9442C115.647 18.9188 113.375 18.9188 111.176 18.9188H109.926L110.805 13.3636C110.83 13.2011 110.913 13.053 111.038 12.946C111.163 12.8391 111.322 12.7804 111.486 12.7806H112.06C113.555 12.7806 114.969 12.7806 115.698 13.6339C116.133 14.143 116.266 14.8994 116.1 15.9442ZM139.921 15.8485H135.954C135.79 15.848 135.63 15.9066 135.505 16.0136C135.38 16.1206 135.298 16.2689 135.273 16.4315L135.097 17.5418L134.818 17.1394C133.959 15.8921 132.044 15.4751 130.131 15.4751C125.744 15.4751 121.999 18.7976 121.269 23.4582C120.891 25.783 121.428 28.0061 122.747 29.5564C123.959 30.9818 125.687 31.5757 127.747 31.5757C131.281 31.5757 133.241 29.303 133.241 29.303L133.064 30.406C133.049 30.5049 133.054 30.6059 133.082 30.7023C133.109 30.7986 133.156 30.8879 133.221 30.964C133.286 31.0401 133.367 31.1011 133.458 31.1429C133.549 31.1847 133.648 31.2063 133.748 31.2061H137.323C137.597 31.2059 137.862 31.1077 138.071 30.9293C138.279 30.7508 138.417 30.5038 138.46 30.2327L140.606 16.646C140.621 16.5473 140.615 16.4465 140.588 16.3505C140.56 16.2544 140.512 16.1655 140.447 16.0897C140.382 16.0139 140.301 15.9531 140.211 15.9115C140.12 15.8699 140.021 15.8484 139.921 15.8485ZM134.388 23.5745C134.007 25.8424 132.205 27.3648 129.909 27.3648C128.759 27.3648 127.835 26.9951 127.244 26.2945C126.657 25.5988 126.436 24.6085 126.621 23.5054C126.981 21.257 128.809 19.6848 131.069 19.6848C132.196 19.6848 133.113 20.0594 133.716 20.766C134.324 21.48 134.564 22.4764 134.388 23.5745ZM144.601 8.76362L141.199 30.4097C141.183 30.5082 141.189 30.6088 141.216 30.7048C141.243 30.8007 141.291 30.8897 141.356 30.9655C141.42 31.0413 141.501 31.1022 141.591 31.1439C141.682 31.1856 141.78 31.2073 141.88 31.2073H145.301C145.869 31.2073 146.352 30.7951 146.439 30.2339L149.794 8.97817C149.81 8.87964 149.804 8.77891 149.777 8.6829C149.75 8.58688 149.702 8.49787 149.637 8.42197C149.573 8.34607 149.492 8.28508 149.402 8.24321C149.311 8.20133 149.213 8.17956 149.113 8.17938H145.283C145.118 8.17996 144.959 8.23908 144.834 8.34613C144.71 8.45319 144.627 8.60119 144.601 8.76362Z" fill="#179BD7"/>
<path d="M8.80722 35.3382L9.44116 31.3115L8.02904 31.2788H1.28601L5.97207 1.56604C5.98602 1.47526 6.03213 1.39251 6.102 1.33288C6.17186 1.27325 6.26083 1.24071 6.35268 1.2412H17.7224C21.4969 1.2412 24.1018 2.02665 25.4618 3.57695C26.0993 4.30423 26.5054 5.06423 26.7018 5.90059C26.9078 6.77817 26.9115 7.82665 26.7103 9.10544L26.6957 9.19877V10.0182L27.3333 10.3794C27.82 10.626 28.2575 10.9595 28.6242 11.3636C29.1696 11.9854 29.5224 12.7757 29.6715 13.7127C29.8254 14.6763 29.7745 15.823 29.5224 17.1212C29.2315 18.6145 28.7612 19.9151 28.126 20.9794C27.5656 21.9328 26.8121 22.7585 25.9139 23.4036C25.0703 24.0024 24.0678 24.457 22.9345 24.7479C21.8363 25.0339 20.5842 25.1782 19.2109 25.1782H18.326C17.6933 25.1782 17.0787 25.406 16.5963 25.8145C16.1146 26.2274 15.795 26.7978 15.6945 27.4242L15.6278 27.7867L14.5078 34.8836L14.4569 35.1442C14.4436 35.2267 14.4206 35.2679 14.3866 35.2957C14.3537 35.3226 14.3127 35.3376 14.2703 35.3382H8.80722Z" fill="#253B80"/>
<path d="M27.937 9.2933C27.903 9.51027 27.8642 9.73209 27.8206 9.95997C26.3212 17.6582 21.1915 20.3175 14.64 20.3175H11.3042C10.503 20.3175 9.82788 20.8994 9.70303 21.6897L7.99516 32.5212L7.51152 35.5915C7.49225 35.7133 7.49961 35.8378 7.53308 35.9565C7.56655 36.0751 7.62534 36.1851 7.7054 36.2789C7.78547 36.3727 7.8849 36.448 7.99686 36.4997C8.10882 36.5513 8.23064 36.5781 8.35394 36.5782H14.2703C14.9709 36.5782 15.5661 36.0691 15.6764 35.3782L15.7346 35.0775L16.8485 28.0085L16.92 27.6206C17.0291 26.9272 17.6255 26.4182 18.3261 26.4182H19.2109C24.943 26.4182 29.4303 24.0909 30.7418 17.3563C31.2897 14.543 31.0061 12.1939 29.5564 10.5418C29.0969 10.0307 28.5481 9.60764 27.937 9.2933Z" fill="#179BD7"/>
<path d="M26.3676 8.66783C25.8888 8.52933 25.4018 8.42124 24.9094 8.34419C23.9365 8.19466 22.9532 8.12292 21.9688 8.12964H13.0573C12.7182 8.12938 12.3901 8.25046 12.1325 8.47099C11.8748 8.69152 11.7045 8.99695 11.6525 9.33207L9.75669 21.3393L9.70215 21.6896C9.76121 21.3074 9.95512 20.9589 10.2488 20.7073C10.5425 20.4556 10.9166 20.3173 11.3034 20.3175H14.6391C21.1906 20.3175 26.3203 17.6569 27.8197 9.95995C27.8646 9.73207 27.9021 9.51025 27.9361 9.29328C27.5404 9.0858 27.1281 8.91186 26.7034 8.77328C26.592 8.73633 26.4801 8.70118 26.3676 8.66783Z" fill="#222D65"/>
<path d="M11.6532 9.33212C11.7048 8.99691 11.875 8.69133 12.1328 8.47091C12.3905 8.2505 12.7188 8.12986 13.058 8.13091H21.9695C23.0253 8.13091 24.0107 8.2 24.9101 8.34546C25.5187 8.44111 26.119 8.58417 26.7053 8.77333C27.1477 8.92 27.5586 9.09333 27.938 9.29333C28.3841 6.44848 27.9344 4.51152 26.3962 2.75758C24.7004 0.826667 21.6398 0 17.7235 0H6.35377C5.55377 0 4.87134 0.581818 4.74771 1.37333L0.0119507 31.3915C-0.0101076 31.5309 -0.00171517 31.6734 0.0365508 31.8092C0.0748168 31.945 0.142048 32.0709 0.23362 32.1783C0.325192 32.2856 0.438932 32.3719 0.567015 32.4311C0.695098 32.4903 0.834485 32.521 0.975587 32.5212H7.99498L9.75741 21.3394L11.6532 9.33212Z" fill="#253B80"/>
</svg>
