<svg width="13" height="11" viewBox="0 0 13 11" fill="none" xmlns="http://www.w3.org/2000/svg">
<path d="M12.7652 1.43827L11.6245 0.245533C11.4681 0.0818648 11.2779 0 11.0543 0C10.8306 0 10.6403 0.0818648 10.4839 0.245533L4.98193 6.00762L2.51611 3.42035C2.35954 3.25662 2.16944 3.17485 1.94586 3.17485C1.72213 3.17485 1.53203 3.25662 1.37546 3.42035L0.234834 4.61312C0.0782586 4.77682 0 4.97566 0 5.20958C0 5.44332 0.0782586 5.64235 0.234834 5.80601L3.27091 8.98074L4.41162 10.1735C4.56811 10.3373 4.75826 10.419 4.98193 10.419C5.20552 10.419 5.39567 10.3371 5.55225 10.1735L6.69293 8.98074L12.7652 2.6311C12.9216 2.46737 13 2.26856 13 2.03464C13.0001 1.80084 12.9216 1.602 12.7652 1.43827Z" fill="#F4F5F6"/>
</svg>
