<svg width="23" height="26" viewBox="0 0 23 26" fill="none" xmlns="http://www.w3.org/2000/svg">
<path d="M21.3867 15.7255L19.4997 13.8385L11.0082 5.34734C9.44319 3.79409 6.917 3.79878 5.35789 5.35789C3.79878 6.917 3.79409 9.44319 5.34734 11.0082L13.8385 19.5018C14.1858 19.8493 14.7491 19.8493 15.0966 19.5018C15.4439 19.1543 15.4439 18.5912 15.0966 18.2437L6.60545 9.75005C5.73702 8.88162 5.73702 7.47389 6.60545 6.60545C7.47389 5.73702 8.88162 5.73702 9.75005 6.60545L18.2437 15.0966L20.1308 16.9835C21.6942 18.5474 21.6936 21.0826 20.1298 22.6458C18.5658 24.209 16.0308 24.2087 14.4674 22.6447L12.8952 21.0719L4.08943 12.2661L3.46027 11.6371C1.26127 9.36935 1.2892 5.75656 3.52278 3.52278C5.75656 1.2892 9.36935 1.26127 11.6371 3.46027L21.0719 12.8952C21.2967 13.1199 21.6243 13.2076 21.9311 13.1253C22.2382 13.0431 22.478 12.8034 22.5603 12.4964C22.6425 12.1893 22.5546 11.8619 22.33 11.6371L12.8952 2.20236C9.94049 -0.738898 5.16256 -0.733429 2.21466 2.21466C-0.733429 5.16256 -0.738898 9.94049 2.20236 12.8952L11.6371 22.33L13.2117 23.9028C15.4824 26.0838 19.0809 26.0475 21.3069 23.8207C23.533 21.5942 23.5684 17.9956 21.3867 15.7255Z" fill="black"/>
</svg>
