<svg width="50" height="50" viewBox="0 0 50 50" fill="none" xmlns="http://www.w3.org/2000/svg">
<circle cx="25" cy="25" r="24.5" fill="#111111" fill-opacity="0.2" stroke="url(#paint0_linear)"/>
<mask id="path-2-inside-1" fill="white">
<path fill-rule="evenodd" clip-rule="evenodd" d="M39.7852 20.8334C39.3818 20.8334 38.9842 20.8722 38.5952 20.9496C38.1719 18.9188 37.125 17.0651 35.5789 15.6407C33.7303 13.9379 31.327 13 28.8115 13C27.5845 13 26.3323 13.234 25.1899 13.6765C24.6928 13.8691 24.446 14.4282 24.6385 14.9253C24.8311 15.4224 25.3899 15.6693 25.8873 15.4766C26.8095 15.1193 27.8207 14.9304 28.8115 14.9304C33.0202 14.9304 36.4734 18.0904 36.8439 22.2809C36.8711 22.588 37.0431 22.8635 37.3072 23.0226C37.5713 23.1817 37.8955 23.2052 38.1796 23.0857C38.6877 22.872 39.228 22.7638 39.7853 22.7638C42.0744 22.7638 43.9367 24.6267 43.9367 26.9166C43.9367 29.2065 42.074 31.0696 39.7844 31.0696C39.6554 31.0696 26.0648 31.0634 25.616 31.0617C25.1217 31.0509 24.6953 31.4193 24.639 31.9188C24.5793 32.4485 24.9604 32.9264 25.4902 32.986C25.6135 32.9999 39.6426 33 39.7844 33C43.1385 33 45.8673 30.2709 45.8673 26.9165C45.8671 23.5624 43.1388 20.8334 39.7852 20.8334ZM5.96527 22.3762C5.43218 22.3762 5 22.8084 5 23.3415V31.0687C5 31.6018 5.43218 32.034 5.96527 32.034C6.49836 32.034 6.93054 31.6018 6.93054 31.0687V23.3415C6.93054 22.8084 6.49836 22.3762 5.96527 22.3762ZM9.94449 21.8124C9.94449 21.2793 10.3767 20.8471 10.9098 20.8471C11.4428 20.8471 11.875 21.2793 11.875 21.8124V30.9593C11.875 31.4924 11.4428 31.9246 10.9098 31.9246C10.3767 31.9246 9.94449 31.4924 9.94449 30.9593V21.8124ZM15.9737 16.7509C15.4406 16.7509 15.0084 17.1831 15.0084 17.7162V32.0022C15.0084 32.5353 15.4406 32.9674 15.9737 32.9674C16.5067 32.9674 16.9389 32.5353 16.9389 32.0022V17.7162C16.9389 17.1831 16.5067 16.7509 15.9737 16.7509ZM20.1934 17.8798C20.1934 17.3467 20.6256 16.9145 21.1587 16.9145C21.6918 16.9145 22.124 17.3467 22.124 17.8798V32.0147C22.124 32.5477 21.6918 32.9799 21.1587 32.9799C20.6256 32.9799 20.1934 32.5477 20.1934 32.0147V17.8798Z"/>
</mask>
<path d="M38.5952 20.9496L37.6162 21.1536L37.8184 22.1236L38.7902 21.9304L38.5952 20.9496ZM35.5789 15.6407L36.2565 14.9052L36.2564 14.9052L35.5789 15.6407ZM25.1899 13.6765L24.8287 12.744L24.8285 12.7441L25.1899 13.6765ZM24.6385 14.9253L25.571 14.5641L25.571 14.5641L24.6385 14.9253ZM25.8873 15.4766L26.2485 16.4091L26.2486 16.4091L25.8873 15.4766ZM36.8439 22.2809L35.8478 22.369V22.369L36.8439 22.2809ZM37.3072 23.0226L37.8232 22.166L37.8232 22.166L37.3072 23.0226ZM38.1796 23.0857L37.792 22.1638L37.7916 22.164L38.1796 23.0857ZM25.616 31.0617L25.5942 32.0615L25.6032 32.0617L25.6123 32.0617L25.616 31.0617ZM24.639 31.9188L25.6327 32.0308L25.6328 32.0307L24.639 31.9188ZM25.4902 32.986L25.6022 31.9923L25.6019 31.9922L25.4902 32.986ZM45.8673 26.9165H46.8673V26.9164L45.8673 26.9165ZM38.7902 21.9304C39.114 21.866 39.4463 21.8334 39.7852 21.8334V19.8334C39.3173 19.8334 38.8544 19.8785 38.4002 19.9688L38.7902 21.9304ZM34.9013 16.3762C36.2941 17.6593 37.2355 19.3272 37.6162 21.1536L39.5741 20.7455C39.1082 18.5104 37.9559 16.4709 36.2565 14.9052L34.9013 16.3762ZM28.8115 14C31.0761 14 33.2376 14.8436 34.9014 16.3762L36.2564 14.9052C34.2231 13.0321 31.5778 12 28.8115 12V14ZM25.5511 14.609C26.5781 14.2111 27.7079 14 28.8115 14V12C27.4611 12 26.0864 12.2568 24.8287 12.744L25.5511 14.609ZM25.571 14.5641C25.578 14.582 25.569 14.602 25.5513 14.6089L24.8285 12.7441C23.8167 13.1363 23.314 14.2744 23.706 15.2865L25.571 14.5641ZM25.5262 14.5441C25.5436 14.5374 25.5641 14.5462 25.571 14.5641L23.706 15.2864C24.098 16.2987 25.2362 16.8012 26.2485 16.4091L25.5262 14.5441ZM28.8115 13.9304C27.6973 13.9304 26.5636 14.1422 25.5261 14.5442L26.2486 16.4091C27.0554 16.0965 27.9441 15.9304 28.8115 15.9304V13.9304ZM37.84 22.1928C37.4238 17.4859 33.5379 13.9304 28.8115 13.9304V15.9304C32.5024 15.9304 35.5229 18.695 35.8478 22.369L37.84 22.1928ZM37.8232 22.166C37.8328 22.1718 37.8391 22.1819 37.84 22.1928L35.8478 22.369C35.9031 22.994 36.2535 23.5552 36.7913 23.8792L37.8232 22.166ZM37.7916 22.164C37.8025 22.1594 37.8142 22.1606 37.8232 22.166L36.7913 23.8792C37.3285 24.2028 37.9885 24.251 38.5676 24.0073L37.7916 22.164ZM39.7853 21.7638C39.0965 21.7638 38.4243 21.898 37.792 22.1638L38.5672 24.0075C38.9511 23.8461 39.3595 23.7638 39.7853 23.7638V21.7638ZM44.9367 26.9166C44.9367 24.0748 42.627 21.7638 39.7853 21.7638V23.7638C41.5218 23.7638 42.9367 25.1787 42.9367 26.9166H44.9367ZM39.7844 32.0696C42.6264 32.0696 44.9367 29.7586 44.9367 26.9166H42.9367C42.9367 28.6544 41.5216 30.0696 39.7844 30.0696V32.0696ZM25.6123 32.0617C26.0635 32.0634 39.6567 32.0696 39.7844 32.0696V30.0696C39.6542 30.0696 26.0661 30.0634 25.6198 30.0618L25.6123 32.0617ZM25.6328 32.0307C25.631 32.0464 25.6159 32.062 25.5942 32.0615L25.6379 30.062C24.6274 30.0399 23.7596 30.7922 23.6453 31.8069L25.6328 32.0307ZM25.6019 31.9922C25.6212 31.9944 25.6349 32.0117 25.6327 32.0308L23.6453 31.8068C23.5238 32.8853 24.2996 33.8584 25.3784 33.9797L25.6019 31.9922ZM39.7844 32C39.7135 32 36.171 32 32.6308 31.9982C30.8607 31.9973 29.0915 31.996 27.7572 31.994C27.0899 31.993 26.532 31.9919 26.1373 31.9906C25.9398 31.9899 25.7841 31.9892 25.6764 31.9884C25.6223 31.9881 25.582 31.9877 25.5551 31.9873C25.4866 31.9864 25.5422 31.9855 25.6022 31.9923L25.3781 33.9797C25.4051 33.9827 25.4266 33.984 25.4328 33.9844C25.4422 33.9849 25.4502 33.9853 25.4552 33.9855C25.4654 33.9859 25.4748 33.9862 25.4816 33.9863C25.4956 33.9867 25.5117 33.9869 25.5281 33.9871C25.5616 33.9876 25.607 33.988 25.6625 33.9884C25.7739 33.9892 25.9324 33.9899 26.1306 33.9906C26.5272 33.9919 27.0867 33.993 27.7542 33.994C29.0895 33.996 30.8595 33.9973 32.6298 33.9982C36.1705 34 39.7134 34 39.7844 34V32ZM44.8673 26.9165C44.8673 29.7187 42.5861 32 39.7844 32V34C43.6909 34 46.8673 30.823 46.8673 26.9165H44.8673ZM39.7852 21.8334C42.5863 21.8334 44.8672 24.1145 44.8673 26.9165L46.8673 26.9164C46.8671 23.0103 43.6912 19.8334 39.7852 19.8334V21.8334ZM6 23.3415C6 23.3607 5.98447 23.3762 5.96527 23.3762V21.3762C4.8799 21.3762 4 22.2561 4 23.3415H6ZM6 31.0687V23.3415H4V31.0687H6ZM5.96527 31.034C5.98447 31.034 6 31.0495 6 31.0687H4C4 32.1541 4.8799 33.034 5.96527 33.034V31.034ZM5.93054 31.0687C5.93054 31.0495 5.94607 31.034 5.96527 31.034V33.034C7.05064 33.034 7.93054 32.1541 7.93054 31.0687H5.93054ZM5.93054 23.3415V31.0687H7.93054V23.3415H5.93054ZM5.96527 23.3762C5.94607 23.3762 5.93054 23.3607 5.93054 23.3415H7.93054C7.93054 22.2561 7.05064 21.3762 5.96527 21.3762V23.3762ZM10.9098 19.8471C9.82439 19.8471 8.94449 20.727 8.94449 21.8124H10.9445C10.9445 21.8316 10.929 21.8471 10.9098 21.8471V19.8471ZM12.875 21.8124C12.875 20.727 11.9951 19.8471 10.9098 19.8471V21.8471C10.8906 21.8471 10.875 21.8316 10.875 21.8124H12.875ZM12.875 30.9593V21.8124H10.875V30.9593H12.875ZM10.9098 32.9246C11.9951 32.9246 12.875 32.0447 12.875 30.9593H10.875C10.875 30.9401 10.8906 30.9246 10.9098 30.9246V32.9246ZM8.94449 30.9593C8.94449 32.0447 9.82439 32.9246 10.9098 32.9246V30.9246C10.929 30.9246 10.9445 30.9401 10.9445 30.9593H8.94449ZM8.94449 21.8124V30.9593H10.9445V21.8124H8.94449ZM16.0084 17.7162C16.0084 17.7354 15.9929 17.7509 15.9737 17.7509V15.7509C14.8883 15.7509 14.0084 16.6308 14.0084 17.7162H16.0084ZM16.0084 32.0022V17.7162H14.0084V32.0022H16.0084ZM15.9737 31.9674C15.9929 31.9674 16.0084 31.983 16.0084 32.0022H14.0084C14.0084 33.0875 14.8883 33.9674 15.9737 33.9674V31.9674ZM15.9389 32.0022C15.9389 31.983 15.9545 31.9674 15.9737 31.9674V33.9674C17.059 33.9674 17.9389 33.0875 17.9389 32.0022H15.9389ZM15.9389 17.7162V32.0022H17.9389V17.7162H15.9389ZM15.9737 17.7509C15.9545 17.7509 15.9389 17.7354 15.9389 17.7162H17.9389C17.9389 16.6308 17.059 15.7509 15.9737 15.7509V17.7509ZM21.1587 15.9145C20.0733 15.9145 19.1934 16.7944 19.1934 17.8798H21.1934C21.1934 17.899 21.1779 17.9145 21.1587 17.9145V15.9145ZM23.124 17.8798C23.124 16.7944 22.2441 15.9145 21.1587 15.9145V17.9145C21.1395 17.9145 21.124 17.899 21.124 17.8798H23.124ZM23.124 32.0147V17.8798H21.124V32.0147H23.124ZM21.1587 33.9799C22.2441 33.9799 23.124 33.1 23.124 32.0147H21.124C21.124 31.9955 21.1395 31.9799 21.1587 31.9799V33.9799ZM19.1934 32.0147C19.1934 33.1 20.0733 33.9799 21.1587 33.9799V31.9799C21.1779 31.9799 21.1934 31.9955 21.1934 32.0147H19.1934ZM19.1934 17.8798V32.0147H21.1934V17.8798H19.1934Z" fill="url(#paint1_linear)" mask="url(#path-2-inside-1)"/>
<defs>
<linearGradient id="paint0_linear" x1="9.79853e-09" y1="28.4226" x2="50.7545" y2="28.7194" gradientUnits="userSpaceOnUse">
<stop stop-color="#FEBD2F"/>
<stop offset="0.248726" stop-color="#F95721"/>
<stop offset="0.502913" stop-color="#FC1370"/>
<stop offset="0.671875" stop-color="#BA2DB2"/>
<stop offset="0.776042" stop-color="#8342E9"/>
<stop offset="0.963542" stop-color="#3F89FC"/>
</linearGradient>
<linearGradient id="paint1_linear" x1="5" y1="24.369" x2="46.4795" y2="24.8647" gradientUnits="userSpaceOnUse">
<stop stop-color="#FEBD2F"/>
<stop offset="0.248726" stop-color="#F95721"/>
<stop offset="0.502913" stop-color="#FC1370"/>
<stop offset="0.671875" stop-color="#BA2DB2"/>
<stop offset="0.776042" stop-color="#8342E9"/>
<stop offset="0.963542" stop-color="#3F89FC"/>
</linearGradient>
</defs>
</svg>
