<svg width="30" height="30" viewBox="0 0 30 30" fill="none" xmlns="http://www.w3.org/2000/svg">
<path fill-rule="evenodd" clip-rule="evenodd" d="M15 30C6.71573 30 0 23.2843 0 15C0 6.71573 6.71573 0 15 0C23.2843 0 30 6.71573 30 15C30 23.2843 23.2843 30 15 30Z" fill="#F4F5F6"/>
<path fill-rule="evenodd" clip-rule="evenodd" d="M12.925 15.7071C12.5345 15.3166 12.5345 14.6834 12.925 14.2929L19.0551 8.16279C19.6374 7.58054 19.6374 6.63652 19.0551 6.05426C18.4729 5.47201 17.5288 5.47201 16.9466 6.05426L8.70795 14.2929C8.31743 14.6834 8.31743 15.3166 8.70795 15.7071L16.9466 23.9457C17.5288 24.528 18.4729 24.528 19.0551 23.9457C19.6374 23.3635 19.6374 22.4195 19.0551 21.8372L12.925 15.7071Z" fill="#111111"/>
</svg>
