<svg width="143" height="143" viewBox="0 0 143 143" fill="none" xmlns="http://www.w3.org/2000/svg">
<path d="M71.5 142C110.436 142 142 110.436 142 71.5C142 32.5639 110.436 1 71.5 1C32.5639 1 1 32.5639 1 71.5C1 110.436 32.5639 142 71.5 142Z" stroke="url(#paint0_linear)" stroke-width="1.0548" stroke-miterlimit="10" stroke-linecap="round" stroke-linejoin="round"/>
<path d="M57.6707 60.4585C57.6707 58.4285 58.3707 56.7485 67.0507 56.3985V64.7285C59.0007 64.1685 57.6707 62.4885 57.6707 60.5985V60.4585ZM84.4807 82.4385C84.4807 84.6085 83.2907 87.2685 73.8407 87.6185V77.4685C83.1507 78.0285 84.4807 79.7085 84.4807 82.1585V82.4385ZM73.8407 103.438V99.0985C100.511 99.0985 105.411 90.4185 105.411 81.4585V80.4785C105.411 70.2585 98.0607 65.7785 78.9507 65.2185L73.8407 65.0085V56.4685C82.2407 57.2385 83.1507 60.1785 83.3607 62.2785H103.591V61.6485C103.591 53.5285 97.9207 45.8285 73.8407 45.4785V41.3485H67.0507V45.4785C43.3207 45.4785 37.5807 52.5485 37.5807 60.9485V61.5785C37.5807 69.5585 42.8307 76.4885 62.1507 77.0485L67.0507 77.2585V87.4785C58.7207 86.5685 57.3207 82.6485 57.3207 79.9185H36.8807V80.6885C36.8807 87.3385 39.7507 98.7485 67.0507 99.0985V103.438H73.8407Z" fill="url(#paint1_linear)" fill-opacity="0.2"/>
<path d="M67.0507 56.3985H68.0507V55.3573L67.0104 55.3993L67.0507 56.3985ZM67.0507 64.7285L66.9813 65.7261L68.0507 65.8005V64.7285H67.0507ZM73.8407 87.6185H72.8407V88.6562L73.8777 88.6178L73.8407 87.6185ZM73.8407 77.4685L73.9007 76.4703L72.8407 76.4065V77.4685H73.8407ZM73.8407 103.438V104.438H74.8407V103.438H73.8407ZM73.8407 99.0985V98.0985H72.8407V99.0985H73.8407ZM78.9507 65.2185L78.9096 66.2177L78.9214 66.218L78.9507 65.2185ZM73.8407 65.0085H72.8407V65.9682L73.7996 66.0076L73.8407 65.0085ZM73.8407 56.4685L73.932 55.4727L72.8407 55.3726V56.4685H73.8407ZM83.3607 62.2785L82.3657 62.378L82.4557 63.2785H83.3607V62.2785ZM103.591 62.2785V63.2785H104.591V62.2785H103.591ZM73.8407 45.4785H72.8407V46.464L73.8262 46.4784L73.8407 45.4785ZM73.8407 41.3485H74.8407V40.3485H73.8407V41.3485ZM67.0507 41.3485V40.3485H66.0507V41.3485H67.0507ZM67.0507 45.4785V46.4785H68.0507V45.4785H67.0507ZM62.1507 77.0485L62.1935 76.0493L62.1797 76.0489L62.1507 77.0485ZM67.0507 77.2585H68.0507V76.3004L67.0935 76.2594L67.0507 77.2585ZM67.0507 87.4785L66.9421 88.4726L68.0507 88.5937V87.4785H67.0507ZM57.3207 79.9185H58.3207V78.9185H57.3207V79.9185ZM36.8807 79.9185V78.9185H35.8807V79.9185H36.8807ZM67.0507 99.0985H68.0507V98.1112L67.0635 98.0986L67.0507 99.0985ZM67.0507 103.438H66.0507V104.438H67.0507V103.438ZM58.6707 60.4585C58.6707 59.995 58.7142 59.6799 58.828 59.4264C58.93 59.1992 59.1266 58.9373 59.6005 58.6675C60.6301 58.0812 62.754 57.5725 67.091 57.3977L67.0104 55.3993C62.6674 55.5744 60.1013 56.0808 58.6109 56.9295C57.8248 57.3771 57.3039 57.9377 57.0034 58.6075C56.7147 59.2508 56.6707 59.9069 56.6707 60.4585H58.6707ZM66.0507 56.3985V64.7285H68.0507V56.3985H66.0507ZM67.1201 63.7309C63.1185 63.4525 60.9576 62.901 59.8188 62.2832C59.2717 61.9864 59.0075 61.6989 58.8694 61.4608C58.7318 61.2234 58.6707 60.951 58.6707 60.5985H56.6707C56.6707 61.191 56.7759 61.8373 57.1392 62.4639C57.5021 63.0899 58.0735 63.6118 58.8651 64.0412C60.4038 64.8759 62.9329 65.4444 66.9813 65.7261L67.1201 63.7309ZM58.6707 60.5985V60.4585H56.6707V60.5985H58.6707ZM83.4807 82.4385C83.4807 82.8911 83.4183 83.308 83.2396 83.694C83.0651 84.071 82.7514 84.4802 82.152 84.8774C80.9092 85.7011 78.4789 86.446 73.8037 86.6192L73.8777 88.6178C78.6525 88.4409 81.5422 87.6809 83.2569 86.5445C84.1362 85.9618 84.7107 85.2772 85.0546 84.5342C85.3943 83.8002 85.4807 83.0708 85.4807 82.4385H83.4807ZM74.8407 87.6185V77.4685H72.8407V87.6185H74.8407ZM73.7807 78.4667C78.4313 78.7464 80.8952 79.3026 82.1822 79.9875C82.7931 80.3126 83.0856 80.6399 83.2435 80.9384C83.4076 81.2487 83.4807 81.6303 83.4807 82.1585H85.4807C85.4807 81.4616 85.3876 80.7145 85.0114 80.0033C84.629 79.2802 84.0071 78.6931 83.1217 78.2219C81.4162 77.3143 78.5601 76.7505 73.9007 76.4703L73.7807 78.4667ZM83.4807 82.1585V82.4385H85.4807V82.1585H83.4807ZM74.8407 103.438V99.0985H72.8407V103.438H74.8407ZM73.8407 100.098C87.2427 100.098 95.3953 97.9256 100.212 94.4494C105.114 90.9119 106.411 86.1425 106.411 81.4585H104.411C104.411 85.7345 103.258 89.785 99.0417 92.8276C94.7411 95.9313 87.1087 98.0985 73.8407 98.0985V100.098ZM106.411 81.4585V80.4785H104.411V81.4585H106.411ZM106.411 80.4785C106.411 77.8047 105.93 75.4382 104.848 73.3935C103.762 71.3418 102.103 69.6773 99.8512 68.3624C95.3954 65.7609 88.5636 64.4997 78.98 64.2189L78.9214 66.218C88.4478 66.4972 94.846 67.7561 98.8428 70.0896C100.817 71.2421 102.191 72.6489 103.08 74.3291C103.973 76.0163 104.411 78.0423 104.411 80.4785H106.411ZM78.9918 64.2193L73.8818 64.0093L73.7996 66.0076L78.9096 66.2176L78.9918 64.2193ZM74.8407 65.0085V56.4685H72.8407V65.0085H74.8407ZM73.7494 57.4643C77.8678 57.8418 79.9543 58.739 81.0292 59.6408C82.0477 60.4952 82.2729 61.4503 82.3657 62.378L84.3557 62.179C84.2385 61.0067 83.9037 59.4417 82.3147 58.1086C80.7821 56.8229 78.2136 55.8651 73.932 55.4727L73.7494 57.4643ZM83.3607 63.2785H103.591V61.2785H83.3607V63.2785ZM104.591 62.2785V61.6485H102.591V62.2785H104.591ZM104.591 61.6485C104.591 57.3134 103.052 53.02 98.3046 49.8205C93.6375 46.6753 85.966 44.6546 73.8552 44.4786L73.8262 46.4784C85.7954 46.6523 92.9989 48.6567 97.1869 51.479C101.294 54.2469 102.591 57.8636 102.591 61.6485H104.591ZM74.8407 45.4785V41.3485H72.8407V45.4785H74.8407ZM73.8407 40.3485H67.0507V42.3485H73.8407V40.3485ZM66.0507 41.3485V45.4785H68.0507V41.3485H66.0507ZM67.0507 44.4785C55.1254 44.4785 47.5229 46.2477 42.8778 49.2213C38.1368 52.2562 36.5807 56.475 36.5807 60.9485H38.5807C38.5807 57.0219 39.8946 53.5057 43.9561 50.9057C48.1135 48.2443 55.246 46.4785 67.0507 46.4785V44.4785ZM36.5807 60.9485V61.5785H38.5807V60.9485H36.5807ZM36.5807 61.5785C36.5807 65.8149 37.9913 69.8692 42.0201 72.8955C45.9883 75.8763 52.3753 77.7656 62.1217 78.0481L62.1797 76.0489C52.6061 75.7714 46.7081 73.9156 43.2213 71.2964C39.7951 68.7228 38.5807 65.3221 38.5807 61.5785H36.5807ZM62.1079 78.0476L67.0079 78.2576L67.0935 76.2594L62.1935 76.0494L62.1079 78.0476ZM66.0507 77.2585V87.4785H68.0507V77.2585H66.0507ZM67.1593 86.4844C63.1293 86.0441 60.9522 84.8941 59.7799 83.6849C58.6217 82.4902 58.3207 81.1096 58.3207 79.9185H56.3207C56.3207 81.4573 56.7197 83.4017 58.344 85.0771C59.9542 86.7379 62.6421 88.0028 66.9421 88.4726L67.1593 86.4844ZM57.3207 78.9185H36.8807V80.9185H57.3207V78.9185ZM35.8807 79.9185V80.6885H37.8807V79.9185H35.8807ZM35.8807 80.6885C35.8807 84.1605 36.6348 89.006 41.0582 92.9983C45.4477 96.9601 53.278 99.922 67.0379 100.098L67.0635 98.0986C53.5234 97.925 46.2687 95.0069 42.3982 91.5136C38.5616 88.0509 37.8807 83.8665 37.8807 80.6885H35.8807ZM66.0507 99.0985V103.438H68.0507V99.0985H66.0507ZM67.0507 104.438H73.8407V102.438H67.0507V104.438Z" fill="url(#paint2_linear)"/>
<defs>
<linearGradient id="paint0_linear" x1="1" y1="81.1518" x2="144.128" y2="81.9888" gradientUnits="userSpaceOnUse">
<stop stop-color="#FEBD2F"/>
<stop offset="0.248726" stop-color="#F95721"/>
<stop offset="0.502913" stop-color="#FC1370"/>
<stop offset="0.671875" stop-color="#BA2DB2"/>
<stop offset="0.776042" stop-color="#8342E9"/>
<stop offset="0.963542" stop-color="#3F89FC"/>
</linearGradient>
<linearGradient id="paint1_linear" x1="35.9707" y1="73.242" x2="108.031" y2="74.2394" gradientUnits="userSpaceOnUse">
<stop stop-color="#FEBD2F"/>
<stop offset="0.248726" stop-color="#F95721"/>
<stop offset="0.502913" stop-color="#FC1370"/>
<stop offset="0.671875" stop-color="#BA2DB2"/>
<stop offset="0.776042" stop-color="#8342E9"/>
<stop offset="0.963542" stop-color="#3F89FC"/>
</linearGradient>
<linearGradient id="paint2_linear" x1="35.9707" y1="73.242" x2="108.031" y2="74.2394" gradientUnits="userSpaceOnUse">
<stop stop-color="#FEBD2F"/>
<stop offset="0.248726" stop-color="#F95721"/>
<stop offset="0.502913" stop-color="#FC1370"/>
<stop offset="0.671875" stop-color="#BA2DB2"/>
<stop offset="0.776042" stop-color="#8342E9"/>
<stop offset="0.963542" stop-color="#3F89FC"/>
</linearGradient>
</defs>
</svg>
