<svg width="141" height="141" viewBox="0 0 141 141" fill="none" xmlns="http://www.w3.org/2000/svg">
<path d="M101 133.5C91.73 138.04 80.91 140 69.89 140C41.43 140 16.94 123.02 6 98.64C6.22 98.59 6.39001 98.39 6.39001 98.15V76.12C6.39001 69.23 11.97 63.65 18.86 63.65C19.14 63.65 19.36 63.42 19.36 63.15C19.36 62.95 19.26 62.7901 19.1 62.7001V62.6901C14.97 60.7401 12.12 56.5401 12.12 51.6801C12.12 44.9501 17.57 39.5 24.29 39.5C31.02 39.5 37 43.77 37 50.5C39.53 54.8199 33.85 61.7 29.73 63.65L29.49 62.7001C29.73 63.65 29.73 63.45 29.73 63.65C29.45 63.65 29.73 63.92 29.73 63.65C36.62 63.65 43 68.61 43 75.5L43.201 85.5C41.411 88.68 40.39 92.09 40.39 96V133C40.39 133.28 39.61 133 39.89 133C40.16 133 40.39 132.78 40.39 132.5V96C40.39 84.41 49.79 75 61.39 75C61.66 75 61.89 74.78 61.89 74.5C61.89 74.32 61.79 74.1601 61.64 74.0701V74.05C54.69 70.7701 49.89 63.7 49.89 55.5C49.89 44.18 59.06 35 70.39 35C81.71 35 92 44.18 92 55.5C92 63.7 88.5 70.5 80.5 74.5H80C80.86 74.9299 80 74.82 80 75C80 75.28 80.22 75 80.5 75C92.09 75 101.5 84.41 101.5 96V132.5C101.5 132.67 100.87 133.41 101 133.5Z" fill="url(#paint0_linear)" fill-opacity="0.2"/>
<circle cx="70.5" cy="70.5" r="70" stroke="url(#paint1_linear)"/>
<path fill-rule="evenodd" clip-rule="evenodd" d="M12.7333 52.1742C12.7333 45.4506 18.1839 40 24.9075 40C31.6311 40 37.0817 45.4506 37.0817 52.1742C37.0817 57.04 34.2272 61.2401 30.0992 63.1893L30.1043 63.2C29.9468 63.2842 29.8396 63.4502 29.8396 63.6413C29.8396 63.9174 30.0635 64.1413 30.3396 64.1413C37.2299 64.1413 42.8156 69.727 42.8156 76.6173V77.9107V85.7388C42.8156 86.0149 43.0395 86.2388 43.3156 86.2388C43.5918 86.2388 43.8156 86.0149 43.8156 85.7388V77.9107V76.6173C43.8156 69.7529 38.6832 64.0872 32.0464 63.2484C35.6772 60.903 38.0817 56.8198 38.0817 52.1742C38.0817 44.8983 32.1834 39 24.9075 39C17.6316 39 11.7333 44.8983 11.7333 52.1742C11.7333 56.8198 14.1378 60.903 17.7687 63.2484C11.1322 64.0875 6 69.753 6 76.6173V98.6463C6 98.9225 6.22386 99.1463 6.5 99.1463C6.77614 99.1463 7 98.9225 7 98.6463V76.6173C7 69.727 12.5857 64.1413 19.476 64.1413C19.7521 64.1413 19.976 63.9174 19.976 63.6413C19.976 63.45 19.8686 63.2839 19.7108 63.1998L19.7158 63.1893C15.5878 61.2401 12.7333 57.04 12.7333 52.1742Z" fill="url(#paint2_linear)"/>
<path fill-rule="evenodd" clip-rule="evenodd" d="M105.733 52.1742C105.733 45.4506 111.184 40 117.907 40C124.631 40 130.082 45.4506 130.082 52.1742C130.082 57.04 127.227 61.2401 123.099 63.1893L123.104 63.2C122.947 63.2842 122.84 63.4502 122.84 63.6413C122.84 63.9174 123.063 64.1413 123.34 64.1413C130.23 64.1413 135.816 69.727 135.816 76.6173V77.9107V94.5002C135.816 94.7763 136.039 95.0002 136.316 95.0002C136.592 95.0002 136.816 94.7763 136.816 94.5002V77.9107V76.6173C136.816 69.7529 131.683 64.0872 125.046 63.2484C128.677 60.903 131.082 56.8198 131.082 52.1742C131.082 44.8983 125.183 39 117.907 39C110.632 39 104.733 44.8983 104.733 52.1742C104.733 56.8198 107.138 60.903 110.769 63.2484C104.132 64.0875 99 69.753 99 76.6173V81.1438V87.0002C99 87.2763 99.2239 87.5002 99.5 87.5002C99.7761 87.5002 100 87.2763 100 87.0002V81.1438V76.6173C100 69.727 105.586 64.1413 112.476 64.1413C112.752 64.1413 112.976 63.9174 112.976 63.6413C112.976 63.45 112.869 63.2839 112.711 63.1998L112.716 63.1893C108.588 61.2401 105.733 57.04 105.733 52.1742Z" fill="url(#paint3_linear)"/>
<path fill-rule="evenodd" clip-rule="evenodd" d="M50.5 56C50.5 44.6782 59.6782 35.5 71 35.5C82.3218 35.5 91.5 44.6782 91.5 56C91.5 64.1939 86.6927 71.266 79.7424 74.5479L79.7511 74.5663C79.601 74.6526 79.5 74.8145 79.5 75C79.5 75.2761 79.7239 75.5 80 75.5C91.598 75.5 101 84.902 101 96.5V133C101 133.276 101.224 133.5 101.5 133.5C101.776 133.5 102 133.276 102 133V96.5C102 84.967 93.1257 75.5068 81.833 74.5753C88.2128 70.8466 92.5 63.9244 92.5 56C92.5 44.1259 82.8741 34.5 71 34.5C59.1259 34.5 49.5 44.1259 49.5 56C49.5 63.9244 53.7872 70.8466 60.1669 74.5753C48.8743 75.5068 40 84.967 40 96.5V133C40 133.276 40.2239 133.5 40.5 133.5C40.7761 133.5 41 133.276 41 133V96.5C41 84.902 50.402 75.5 62 75.5C62.2761 75.5 62.5 75.2761 62.5 75C62.5 74.8145 62.399 74.6526 62.2489 74.5663L62.2576 74.5479C55.3073 71.266 50.5 64.1939 50.5 56Z" fill="url(#paint4_linear)"/>
<path d="M136.15 94.9501C129.98 111.53 117.7 125.13 102.05 133.03V96.5C102.05 93.18 101.32 90.0401 100 87.2201C100.03 87.1501 100.05 87.08 100.05 87V76.62C100.05 69.73 105.63 64.15 112.52 64.15C112.8 64.15 113.02 63.92 113.02 63.65C113.02 63.45 112.92 63.2901 112.76 63.2001V63.1901C108.63 61.2401 105.78 57.0401 105.78 52.1801C105.78 45.4501 111.23 40 117.95 40C124.68 40 130.13 45.4501 130.13 52.1801C130.13 57.0401 127.27 61.2401 123.15 63.1901V63.2001C122.99 63.2901 122.89 63.45 122.89 63.65C122.89 63.92 123.11 64.15 123.39 64.15C130.28 64.15 135.86 69.73 135.86 76.62V94.5C135.86 94.7 135.98 94.8701 136.15 94.9501Z" fill="url(#paint5_linear)" fill-opacity="0.2"/>
<defs>
<linearGradient id="paint0_linear" x1="6" y1="94.6875" x2="102.038" y2="95.1936" gradientUnits="userSpaceOnUse">
<stop stop-color="#FEBD2F"/>
<stop offset="0.248726" stop-color="#F95721"/>
<stop offset="0.502913" stop-color="#FC1370"/>
<stop offset="0.671875" stop-color="#BA2DB2"/>
<stop offset="0.776042" stop-color="#8342E9"/>
<stop offset="0.963542" stop-color="#3F89FC"/>
</linearGradient>
<linearGradient id="paint1_linear" x1="2.76319e-08" y1="80.1518" x2="143.128" y2="80.9888" gradientUnits="userSpaceOnUse">
<stop stop-color="#FEBD2F"/>
<stop offset="0.248726" stop-color="#F95721"/>
<stop offset="0.502913" stop-color="#FC1370"/>
<stop offset="0.671875" stop-color="#BA2DB2"/>
<stop offset="0.776042" stop-color="#8342E9"/>
<stop offset="0.963542" stop-color="#3F89FC"/>
</linearGradient>
<linearGradient id="paint2_linear" x1="6" y1="73.1903" x2="44.3871" y2="73.3315" gradientUnits="userSpaceOnUse">
<stop stop-color="#FEBD2F"/>
<stop offset="0.248726" stop-color="#F95721"/>
<stop offset="0.502913" stop-color="#FC1370"/>
<stop offset="0.671875" stop-color="#BA2DB2"/>
<stop offset="0.776042" stop-color="#8342E9"/>
<stop offset="0.963542" stop-color="#3F89FC"/>
</linearGradient>
<linearGradient id="paint3_linear" x1="99" y1="70.8334" x2="137.387" y2="70.985" gradientUnits="userSpaceOnUse">
<stop stop-color="#FEBD2F"/>
<stop offset="0.248726" stop-color="#F95721"/>
<stop offset="0.502913" stop-color="#FC1370"/>
<stop offset="0.671875" stop-color="#BA2DB2"/>
<stop offset="0.776042" stop-color="#8342E9"/>
<stop offset="0.963542" stop-color="#3F89FC"/>
</linearGradient>
<linearGradient id="paint4_linear" x1="40" y1="90.7768" x2="102.937" y2="91.0073" gradientUnits="userSpaceOnUse">
<stop stop-color="#FEBD2F"/>
<stop offset="0.248726" stop-color="#F95721"/>
<stop offset="0.502913" stop-color="#FC1370"/>
<stop offset="0.671875" stop-color="#BA2DB2"/>
<stop offset="0.776042" stop-color="#8342E9"/>
<stop offset="0.963542" stop-color="#3F89FC"/>
</linearGradient>
<linearGradient id="paint5_linear" x1="100" y1="92.8831" x2="136.697" y2="92.9665" gradientUnits="userSpaceOnUse">
<stop stop-color="#FEBD2F"/>
<stop offset="0.248726" stop-color="#F95721"/>
<stop offset="0.502913" stop-color="#FC1370"/>
<stop offset="0.671875" stop-color="#BA2DB2"/>
<stop offset="0.776042" stop-color="#8342E9"/>
<stop offset="0.963542" stop-color="#3F89FC"/>
</linearGradient>
</defs>
</svg>
