<svg width="141" height="141" viewBox="0 0 141 141" fill="none" xmlns="http://www.w3.org/2000/svg">
<circle cx="70.5" cy="70.5" r="70" stroke="url(#paint0_linear)"/>
<path d="M48.335 61V51.375H39.13V54.455H23.52C23.52 53.72 24.5 52.53 30.485 51.515L36.085 50.57C45.465 49.065 47.95 47.035 47.95 42.695V42.555C47.95 38.285 45.395 34.47 32.27 34.47H30.765C16.59 34.47 15.295 40.665 15.295 43.955V44.2H25.445C25.55 43.185 25.83 40.805 31.815 40.805C36.75 40.805 37.52 41.61 37.52 42.52C37.52 43.325 37.17 43.815 33.88 44.48C32.515 44.725 30.485 45.11 28.84 45.495C15.295 48.435 14.875 54.42 14.875 57.955V61H48.335ZM49.831 50.395V56.03H69.046V61H78.951V56.03H84.376V49.31H78.951V34.82H68.031L49.831 50.395ZM69.046 49.31H59.946L69.046 41.54V49.31Z" fill="url(#paint1_linear)" fill-opacity="0.2"/>
<path d="M48.335 61V62H49.335V61H48.335ZM48.335 51.375H49.335V50.375H48.335V51.375ZM39.13 51.375V50.375H38.13V51.375H39.13ZM39.13 54.455V55.455H40.13V54.455H39.13ZM23.52 54.455H22.52V55.455H23.52V54.455ZM30.485 51.515L30.3186 50.5289L30.3178 50.5291L30.485 51.515ZM36.085 50.57L35.9266 49.5826L35.9186 49.5839L36.085 50.57ZM15.295 44.2H14.295V45.2H15.295V44.2ZM25.445 44.2V45.2H26.3469L26.4397 44.3029L25.445 44.2ZM33.88 44.48L34.0567 45.4643L34.0674 45.4623L34.0781 45.4602L33.88 44.48ZM28.84 45.495L29.0521 46.4722L29.06 46.4705L29.0679 46.4687L28.84 45.495ZM14.875 61H13.875V62H14.875V61ZM49.335 61V51.375H47.335V61H49.335ZM48.335 50.375H39.13V52.375H48.335V50.375ZM38.13 51.375V54.455H40.13V51.375H38.13ZM39.13 53.455H23.52V55.455H39.13V53.455ZM24.52 54.455C24.52 54.6424 24.3569 54.4256 25.2194 53.9773C26.0729 53.5336 27.6915 53.003 30.6522 52.5009L30.3178 50.5291C27.2935 51.042 25.4296 51.6139 24.2969 52.2027C23.1731 52.7869 22.52 53.5326 22.52 54.455H24.52ZM30.6514 52.5011L36.2514 51.5561L35.9186 49.5839L30.3186 50.5289L30.6514 52.5011ZM36.2434 51.5574C40.9393 50.8039 44.1073 49.8962 46.1031 48.5186C47.1285 47.8108 47.8597 46.97 48.3235 45.9631C48.7821 44.9671 48.95 43.8718 48.95 42.695H46.95C46.95 43.6882 46.8073 44.4741 46.5068 45.1265C46.2115 45.7678 45.7352 46.3423 44.9669 46.8726C43.3752 47.9713 40.6107 48.8311 35.9266 49.5826L36.2434 51.5574ZM48.95 42.695V42.555H46.95V42.695H48.95ZM48.95 42.555C48.95 40.1812 48.2147 37.7942 45.5784 36.0738C43.049 34.4231 38.8856 33.47 32.27 33.47V35.47C38.7794 35.47 42.456 36.4244 44.4854 37.7487C46.4078 39.0033 46.95 40.6588 46.95 42.555H48.95ZM32.27 33.47H30.765V35.47H32.27V33.47ZM30.765 33.47C23.5595 33.47 19.3919 35.0406 17.0313 37.2484C14.6464 39.479 14.295 42.1807 14.295 43.955H16.295C16.295 42.4393 16.5911 40.3985 18.3975 38.7091C20.2281 36.9969 23.7955 35.47 30.765 35.47V33.47ZM14.295 43.955V44.2H16.295V43.955H14.295ZM15.295 45.2H25.445V43.2H15.295V45.2ZM26.4397 44.3029C26.4878 43.8382 26.5562 43.3324 27.0807 42.8769C27.6456 42.3863 28.9213 41.805 31.815 41.805V39.805C28.7237 39.805 26.8669 40.4137 25.7693 41.3668C24.6313 42.3551 24.5072 43.5468 24.4503 44.0971L26.4397 44.3029ZM31.815 41.805C34.2692 41.805 35.5329 42.0109 36.1554 42.2532C36.4491 42.3674 36.5153 42.4582 36.5164 42.4598C36.5175 42.4613 36.5168 42.4606 36.5157 42.4583C36.5146 42.456 36.5144 42.4548 36.5146 42.4559C36.5153 42.4582 36.52 42.4761 36.52 42.52H38.52C38.52 42.1429 38.4368 41.6962 38.1288 41.2765C37.8313 40.8711 37.3965 40.5901 36.8808 40.3893C35.8846 40.0016 34.2958 39.805 31.815 39.805V41.805ZM36.52 42.52C36.52 42.6559 36.503 42.6584 36.5183 42.6274C36.5385 42.5869 36.5454 42.6175 36.4105 42.7003C36.0815 42.9023 35.3367 43.1653 33.6819 43.4998L34.0781 45.4602C35.7133 45.1297 36.7885 44.8151 37.457 44.4047C37.8208 44.1813 38.1209 43.8968 38.3095 43.5172C38.4933 43.1472 38.52 42.7866 38.52 42.52H36.52ZM33.7033 43.4957C32.3337 43.7416 30.2831 44.1302 28.6121 44.5213L29.0679 46.4687C30.6869 46.0898 32.6963 45.7084 34.0567 45.4643L33.7033 43.4957ZM28.6279 44.5178C21.7397 46.0129 17.9894 48.3226 15.9896 50.8869C13.9759 53.469 13.875 56.1399 13.875 57.955H15.875C15.875 56.2351 15.9841 54.146 17.5667 52.1168C19.1631 50.0699 22.3953 47.9171 29.0521 46.4722L28.6279 44.5178ZM13.875 57.955V61H15.875V57.955H13.875ZM14.875 62H48.335V60H14.875V62ZM49.831 50.395L49.1808 49.6352L48.831 49.9346V50.395H49.831ZM49.831 56.03H48.831V57.03H49.831V56.03ZM69.046 56.03H70.046V55.03H69.046V56.03ZM69.046 61H68.046V62H69.046V61ZM78.951 61V62H79.951V61H78.951ZM78.951 56.03V55.03H77.951V56.03H78.951ZM84.376 56.03V57.03H85.376V56.03H84.376ZM84.376 49.31H85.376V48.31H84.376V49.31ZM78.951 49.31H77.951V50.31H78.951V49.31ZM78.951 34.82H79.951V33.82H78.951V34.82ZM68.031 34.82V33.82H67.6615L67.3808 34.0602L68.031 34.82ZM69.046 49.31V50.31H70.046V49.31H69.046ZM59.946 49.31L59.2966 48.5495L57.2348 50.31H59.946V49.31ZM69.046 41.54H70.046V39.3712L68.3966 40.7795L69.046 41.54ZM48.831 50.395V56.03H50.831V50.395H48.831ZM49.831 57.03H69.046V55.03H49.831V57.03ZM68.046 56.03V61H70.046V56.03H68.046ZM69.046 62H78.951V60H69.046V62ZM79.951 61V56.03H77.951V61H79.951ZM78.951 57.03H84.376V55.03H78.951V57.03ZM85.376 56.03V49.31H83.376V56.03H85.376ZM84.376 48.31H78.951V50.31H84.376V48.31ZM79.951 49.31V34.82H77.951V49.31H79.951ZM78.951 33.82H68.031V35.82H78.951V33.82ZM67.3808 34.0602L49.1808 49.6352L50.4812 51.1548L68.6812 35.5798L67.3808 34.0602ZM69.046 48.31H59.946V50.31H69.046V48.31ZM60.5953 50.0705L69.6953 42.3005L68.3966 40.7795L59.2966 48.5495L60.5953 50.0705ZM68.046 41.54V49.31H70.046V41.54H68.046Z" fill="url(#paint2_linear)"/>
<path d="M83.085 77.96V89.51H92.71V84.47H106.325C106.22 85.065 104.085 86.745 100.445 89.965C95.3 94.62 94.005 97.14 94.005 100.885V104H105.135V103.79C105.135 99.59 105.66 96.3 109.405 91.26C111.96 87.76 114.515 85.1 115.635 83.805V77.96H83.085Z" fill="url(#paint3_linear)" fill-opacity="0.2"/>
<path d="M83.085 77.96V76.96H82.085V77.96H83.085ZM83.085 89.51H82.085V90.51H83.085V89.51ZM92.71 89.51V90.51H93.71V89.51H92.71ZM92.71 84.47V83.47H91.71V84.47H92.71ZM106.325 84.47L107.31 84.6438L107.517 83.47H106.325V84.47ZM100.445 89.965L99.7824 89.216L99.7741 89.2235L100.445 89.965ZM94.005 104H93.005V105H94.005V104ZM105.135 104V105H106.135V104H105.135ZM109.405 91.26L110.208 91.8564L110.213 91.8496L109.405 91.26ZM115.635 83.805L116.391 84.4592L116.635 84.1774V83.805H115.635ZM115.635 77.96H116.635V76.96H115.635V77.96ZM82.085 77.96V89.51H84.085V77.96H82.085ZM83.085 90.51H92.71V88.51H83.085V90.51ZM93.71 89.51V84.47H91.71V89.51H93.71ZM92.71 85.47H106.325V83.47H92.71V85.47ZM105.34 84.2962C105.365 84.156 105.419 84.104 105.369 84.1759C105.332 84.2291 105.262 84.3164 105.142 84.4448C104.903 84.7011 104.542 85.0422 104.044 85.4881C103.03 86.3953 101.639 87.5741 99.7824 89.216L101.108 90.714C102.892 89.1359 104.387 87.8647 105.378 86.9782C105.881 86.5272 106.301 86.1355 106.605 85.8088C106.757 85.6457 106.9 85.479 107.014 85.3139C107.115 85.1674 107.259 84.9327 107.31 84.6438L105.34 84.2962ZM99.7741 89.2235C97.18 91.5705 95.4756 93.4488 94.4289 95.2674C93.3588 97.1268 93.005 98.8723 93.005 100.885H95.005C95.005 99.1527 95.2987 97.7657 96.1623 96.2651C97.0494 94.7237 98.565 93.0145 101.116 90.7065L99.7741 89.2235ZM93.005 100.885V104H95.005V100.885H93.005ZM94.005 105H105.135V103H94.005V105ZM106.135 104V103.79H104.135V104H106.135ZM106.135 103.79C106.135 101.731 106.265 99.9714 106.823 98.1301C107.38 96.2896 108.385 94.3095 110.208 91.8564L108.602 90.6636C106.68 93.2505 105.55 95.4354 104.909 97.5499C104.268 99.6636 104.135 101.649 104.135 103.79H106.135ZM110.213 91.8496C112.735 88.394 115.232 85.8 116.391 84.4592L114.879 83.1508C113.798 84.4 111.185 87.126 108.597 90.6704L110.213 91.8496ZM116.635 83.805V77.96H114.635V83.805H116.635ZM115.635 76.96H83.085V78.96H115.635V76.96Z" fill="url(#paint4_linear)"/>
<path d="M42 107.5L116.5 33" stroke="url(#paint5_linear)" stroke-width="3"/>
<defs>
<linearGradient id="paint0_linear" x1="2.76319e-08" y1="80.1518" x2="143.128" y2="80.9888" gradientUnits="userSpaceOnUse">
<stop stop-color="#FEBD2F"/>
<stop offset="0.248726" stop-color="#F95721"/>
<stop offset="0.502913" stop-color="#FC1370"/>
<stop offset="0.671875" stop-color="#BA2DB2"/>
<stop offset="0.776042" stop-color="#8342E9"/>
<stop offset="0.963542" stop-color="#3F89FC"/>
</linearGradient>
<linearGradient id="paint1_linear" x1="14" y1="50.0536" x2="86.06" y2="51.0509" gradientUnits="userSpaceOnUse">
<stop stop-color="#FEBD2F"/>
<stop offset="0.248726" stop-color="#F95721"/>
<stop offset="0.502913" stop-color="#FC1370"/>
<stop offset="0.671875" stop-color="#BA2DB2"/>
<stop offset="0.776042" stop-color="#8342E9"/>
<stop offset="0.963542" stop-color="#3F89FC"/>
</linearGradient>
<linearGradient id="paint2_linear" x1="14" y1="50.0536" x2="86.06" y2="51.0509" gradientUnits="userSpaceOnUse">
<stop stop-color="#FEBD2F"/>
<stop offset="0.248726" stop-color="#F95721"/>
<stop offset="0.502913" stop-color="#FC1370"/>
<stop offset="0.671875" stop-color="#BA2DB2"/>
<stop offset="0.776042" stop-color="#8342E9"/>
<stop offset="0.963542" stop-color="#3F89FC"/>
</linearGradient>
<linearGradient id="paint3_linear" x1="82" y1="93.0536" x2="117.528" y2="93.296" gradientUnits="userSpaceOnUse">
<stop stop-color="#FEBD2F"/>
<stop offset="0.248726" stop-color="#F95721"/>
<stop offset="0.502913" stop-color="#FC1370"/>
<stop offset="0.671875" stop-color="#BA2DB2"/>
<stop offset="0.776042" stop-color="#8342E9"/>
<stop offset="0.963542" stop-color="#3F89FC"/>
</linearGradient>
<linearGradient id="paint4_linear" x1="82" y1="93.0536" x2="117.528" y2="93.296" gradientUnits="userSpaceOnUse">
<stop stop-color="#FEBD2F"/>
<stop offset="0.248726" stop-color="#F95721"/>
<stop offset="0.502913" stop-color="#FC1370"/>
<stop offset="0.671875" stop-color="#BA2DB2"/>
<stop offset="0.776042" stop-color="#8342E9"/>
<stop offset="0.963542" stop-color="#3F89FC"/>
</linearGradient>
<linearGradient id="paint5_linear" x1="42" y1="75.3497" x2="117.624" y2="75.7919" gradientUnits="userSpaceOnUse">
<stop stop-color="#FEBD2F"/>
<stop offset="0.248726" stop-color="#F95721"/>
<stop offset="0.502913" stop-color="#FC1370"/>
<stop offset="0.671875" stop-color="#BA2DB2"/>
<stop offset="0.776042" stop-color="#8342E9"/>
<stop offset="0.963542" stop-color="#3F89FC"/>
</linearGradient>
</defs>
</svg>
