<svg width="181" height="181" viewBox="0 0 181 181" fill="none" xmlns="http://www.w3.org/2000/svg">
<path d="M90.5293 161.811C129.465 161.811 161.029 130.248 161.029 91.3115C161.029 52.3754 129.465 20.8115 90.5293 20.8115C51.5932 20.8115 20.0293 52.3754 20.0293 91.3115C20.0293 130.248 51.5932 161.811 90.5293 161.811Z" stroke="url(#paint0_linear)" stroke-width="1.0548" stroke-miterlimit="10" stroke-linecap="round" stroke-linejoin="round"/>
<path d="M177.373 90.1271C177.167 89.9211 176.833 89.9211 176.627 90.1271L173.271 93.4834C173.065 93.6894 173.065 94.0233 173.271 94.2293C173.477 94.4352 173.811 94.4352 174.017 94.2293L177 91.2458L179.983 94.2293C180.189 94.4352 180.523 94.4352 180.729 94.2293C180.935 94.0233 180.935 93.6894 180.729 93.4834L177.373 90.1271ZM90.1271 176.627C89.9211 176.833 89.9211 177.167 90.1271 177.373L93.4834 180.729C93.6894 180.935 94.0233 180.935 94.2293 180.729C94.4352 180.523 94.4352 180.189 94.2293 179.983L91.2459 177L94.2293 174.017C94.4352 173.811 94.4352 173.477 94.2293 173.271C94.0233 173.065 93.6894 173.065 93.4834 173.271L90.1271 176.627ZM3.62707 90.8729C3.83303 91.0789 4.16697 91.0789 4.37293 90.8729L7.72928 87.5166C7.93524 87.3106 7.93524 86.9767 7.72928 86.7707C7.52332 86.5647 7.18939 86.5647 6.98343 86.7707L4 89.7541L1.01657 86.7707C0.810612 86.5647 0.476681 86.5647 0.270719 86.7707C0.0647562 86.9767 0.0647562 87.3106 0.270719 87.5166L3.62707 90.8729ZM90.8729 4.37293C91.0789 4.16697 91.0789 3.83303 90.8729 3.62707L87.5166 0.270719C87.3106 0.0647562 86.9767 0.0647562 86.7707 0.270719C86.5648 0.476681 86.5648 0.810612 86.7707 1.01657L89.7541 4L86.7707 6.98343C86.5648 7.18939 86.5648 7.52332 86.7707 7.72928C86.9767 7.93524 87.3106 7.93524 87.5166 7.72928L90.8729 4.37293ZM176.473 90.5C176.473 137.981 137.981 176.473 90.5 176.473V177.527C138.564 177.527 177.527 138.564 177.527 90.5H176.473ZM4.5274 90.5C4.5274 43.0186 43.0186 4.5274 90.5 4.5274V3.4726C42.4361 3.4726 3.4726 42.4361 3.4726 90.5H4.5274Z" fill="url(#paint1_linear)"/>
<path d="M76.7 80.27C76.7 78.24 77.4 76.56 86.08 76.21V84.54C78.03 83.98 76.7 82.3 76.7 80.41V80.27ZM103.51 102.25C103.51 104.42 102.32 107.08 92.87 107.43V97.28C102.18 97.84 103.51 99.52 103.51 101.97V102.25ZM92.87 123.25V118.91C119.54 118.91 124.44 110.23 124.44 101.27V100.29C124.44 90.07 117.09 85.59 97.98 85.03L92.87 84.82V76.28C101.27 77.05 102.18 79.99 102.39 82.09H122.62V81.46C122.62 73.34 116.95 65.64 92.87 65.29V61.16H86.08V65.29C62.35 65.29 56.61 72.36 56.61 80.76V81.39C56.61 89.37 61.86 96.3 81.18 96.86L86.08 97.07V107.29C77.75 106.38 76.35 102.46 76.35 99.73H55.91V100.5C55.91 107.15 58.78 118.56 86.08 118.91V123.25H92.87Z" fill="url(#paint2_linear)" fill-opacity="0.2"/>
<path d="M86.08 76.21H87.08V75.1689L86.0397 75.2108L86.08 76.21ZM86.08 84.54L86.0106 85.5376L87.08 85.612V84.54H86.08ZM92.87 107.43H91.87V108.468L92.907 108.429L92.87 107.43ZM92.87 97.28L92.93 96.2818L91.87 96.218V97.28H92.87ZM92.87 123.25V124.25H93.87V123.25H92.87ZM92.87 118.91V117.91H91.87V118.91H92.87ZM97.98 85.03L97.9389 86.0292L97.9507 86.0296L97.98 85.03ZM92.87 84.82H91.87V85.7797L92.8289 85.8192L92.87 84.82ZM92.87 76.28L92.9613 75.2842L91.87 75.1841V76.28H92.87ZM102.39 82.09L101.395 82.1895L101.485 83.09H102.39V82.09ZM122.62 82.09V83.09H123.62V82.09H122.62ZM92.87 65.29H91.87V66.2756L92.8555 66.2899L92.87 65.29ZM92.87 61.16H93.87V60.16H92.87V61.16ZM86.08 61.16V60.16H85.08V61.16H86.08ZM86.08 65.29V66.29H87.08V65.29H86.08ZM81.18 96.86L81.2228 95.8608L81.209 95.8604L81.18 96.86ZM86.08 97.07H87.08V96.1119L86.1228 96.0709L86.08 97.07ZM86.08 107.29L85.9714 108.284L87.08 108.405V107.29H86.08ZM76.35 99.73H77.35V98.73H76.35V99.73ZM55.91 99.73V98.73H54.91V99.73H55.91ZM86.08 118.91H87.08V117.923L86.0928 117.91L86.08 118.91ZM86.08 123.25H85.08V124.25H86.08V123.25ZM77.7 80.27C77.7 79.8066 77.7435 79.4915 77.8573 79.2379C77.9593 79.0108 78.1559 78.7488 78.6298 78.479C79.6594 77.8927 81.7833 77.3841 86.1203 77.2092L86.0397 75.2108C81.6967 75.3859 79.1306 75.8923 77.6402 76.741C76.8541 77.1887 76.3332 77.7492 76.0327 78.419C75.744 79.0623 75.7 79.7184 75.7 80.27H77.7ZM85.08 76.21V84.54H87.08V76.21H85.08ZM86.1494 83.5424C82.1478 83.264 79.9869 82.7125 78.8481 82.0948C78.301 81.7979 78.0368 81.5105 77.8987 81.2723C77.761 81.0349 77.7 80.7625 77.7 80.41H75.7C75.7 81.0025 75.8052 81.6489 76.1685 82.2755C76.5314 82.9014 77.1028 83.4233 77.8944 83.8527C79.4331 84.6875 81.9622 85.256 86.0106 85.5376L86.1494 83.5424ZM77.7 80.41V80.27H75.7V80.41H77.7ZM102.51 102.25C102.51 102.703 102.448 103.119 102.269 103.506C102.094 103.883 101.781 104.292 101.181 104.689C99.9385 105.513 97.5082 106.258 92.833 106.431L92.907 108.429C97.6818 108.252 100.572 107.492 102.286 106.356C103.166 105.773 103.74 105.089 104.084 104.346C104.424 103.612 104.51 102.882 104.51 102.25H102.51ZM93.87 107.43V97.28H91.87V107.43H93.87ZM92.81 98.2782C97.4606 98.5579 99.9245 99.1142 101.211 99.799C101.822 100.124 102.115 100.451 102.273 100.75C102.437 101.06 102.51 101.442 102.51 101.97H104.51C104.51 101.273 104.417 100.526 104.041 99.8148C103.658 99.0917 103.036 98.5046 102.151 98.0335C100.445 97.1258 97.5894 96.5621 92.93 96.2818L92.81 98.2782ZM102.51 101.97V102.25H104.51V101.97H102.51ZM93.87 123.25V118.91H91.87V123.25H93.87ZM92.87 119.91C106.272 119.91 114.425 117.737 119.241 114.261C124.143 110.723 125.44 105.954 125.44 101.27H123.44C123.44 105.546 122.287 109.597 118.071 112.639C113.77 115.743 106.138 117.91 92.87 117.91V119.91ZM125.44 101.27V100.29H123.44V101.27H125.44ZM125.44 100.29C125.44 97.6162 124.959 95.2497 123.877 93.205C122.791 91.1533 121.133 89.4889 118.88 88.1739C114.425 85.5724 107.593 84.3113 98.0093 84.0304L97.9507 86.0296C107.477 86.3087 113.875 87.5676 117.872 89.9011C119.846 91.0536 121.22 92.4604 122.109 94.1406C123.002 95.8278 123.44 97.8538 123.44 100.29H125.44ZM98.0211 84.0308L92.9111 83.8208L92.8289 85.8192L97.9389 86.0292L98.0211 84.0308ZM93.87 84.82V76.28H91.87V84.82H93.87ZM92.7787 77.2758C96.8971 77.6533 98.9836 78.5506 100.059 79.4524C101.077 80.3068 101.302 81.2618 101.395 82.1895L103.385 81.9905C103.268 80.8182 102.933 79.2532 101.344 77.9201C99.8114 76.6344 97.2429 75.6767 92.9613 75.2842L92.7787 77.2758ZM102.39 83.09H122.62V81.09H102.39V83.09ZM123.62 82.09V81.46H121.62V82.09H123.62ZM123.62 81.46C123.62 77.1249 122.082 72.8316 117.334 69.632C112.667 66.4868 104.995 64.4661 92.8845 64.2901L92.8555 66.2899C104.825 66.4639 112.028 68.4682 116.216 71.2905C120.323 74.0584 121.62 77.6751 121.62 81.46H123.62ZM93.87 65.29V61.16H91.87V65.29H93.87ZM92.87 60.16H86.08V62.16H92.87V60.16ZM85.08 61.16V65.29H87.08V61.16H85.08ZM86.08 64.29C74.1547 64.29 66.5522 66.0592 61.9071 69.0328C57.1661 72.0678 55.61 76.2865 55.61 80.76H57.61C57.61 76.8335 58.9239 73.3172 62.9854 70.7172C67.1428 68.0558 74.2753 66.29 86.08 66.29V64.29ZM55.61 80.76V81.39H57.61V80.76H55.61ZM55.61 81.39C55.61 85.6264 57.0206 89.6807 61.0494 92.707C65.0176 95.6879 71.4046 97.5771 81.151 97.8596L81.209 95.8604C71.6354 95.5829 65.7374 93.7271 62.2506 91.108C58.8244 88.5343 57.61 85.1336 57.61 81.39H55.61ZM81.1372 97.8591L86.0372 98.0691L86.1228 96.0709L81.2228 95.8609L81.1372 97.8591ZM85.08 97.07V107.29H87.08V97.07H85.08ZM86.1886 106.296C82.1586 105.856 79.9815 104.706 78.8092 103.496C77.651 102.302 77.35 100.921 77.35 99.73H75.35C75.35 101.269 75.749 103.213 77.3733 104.889C78.9835 106.549 81.6714 107.814 85.9714 108.284L86.1886 106.296ZM76.35 98.73H55.91V100.73H76.35V98.73ZM54.91 99.73V100.5H56.91V99.73H54.91ZM54.91 100.5C54.91 103.972 55.6641 108.818 60.0875 112.81C64.477 116.772 72.3073 119.734 86.0672 119.91L86.0928 117.91C72.5527 117.736 65.298 114.818 61.4275 111.325C57.5909 107.862 56.91 103.678 56.91 100.5H54.91ZM85.08 118.91V123.25H87.08V118.91H85.08ZM86.08 124.25H92.87V122.25H86.08V124.25Z" fill="url(#paint3_linear)"/>
<defs>
<linearGradient id="paint0_linear" x1="20.0293" y1="100.963" x2="163.157" y2="101.8" gradientUnits="userSpaceOnUse">
<stop stop-color="#FEBD2F"/>
<stop offset="0.248726" stop-color="#F95721"/>
<stop offset="0.502913" stop-color="#FC1370"/>
<stop offset="0.671875" stop-color="#BA2DB2"/>
<stop offset="0.776042" stop-color="#8342E9"/>
<stop offset="0.963542" stop-color="#3F89FC"/>
</linearGradient>
<linearGradient id="paint1_linear" x1="4" y1="102.342" x2="179.611" y2="103.369" gradientUnits="userSpaceOnUse">
<stop stop-color="#FEBD2F"/>
<stop offset="0.248726" stop-color="#F95721"/>
<stop offset="0.502913" stop-color="#FC1370"/>
<stop offset="0.671875" stop-color="#BA2DB2"/>
<stop offset="0.776042" stop-color="#8342E9"/>
<stop offset="0.963542" stop-color="#3F89FC"/>
</linearGradient>
<linearGradient id="paint2_linear" x1="55" y1="93.0536" x2="127.06" y2="94.0509" gradientUnits="userSpaceOnUse">
<stop stop-color="#FEBD2F"/>
<stop offset="0.248726" stop-color="#F95721"/>
<stop offset="0.502913" stop-color="#FC1370"/>
<stop offset="0.671875" stop-color="#BA2DB2"/>
<stop offset="0.776042" stop-color="#8342E9"/>
<stop offset="0.963542" stop-color="#3F89FC"/>
</linearGradient>
<linearGradient id="paint3_linear" x1="55" y1="93.0536" x2="127.06" y2="94.0509" gradientUnits="userSpaceOnUse">
<stop stop-color="#FEBD2F"/>
<stop offset="0.248726" stop-color="#F95721"/>
<stop offset="0.502913" stop-color="#FC1370"/>
<stop offset="0.671875" stop-color="#BA2DB2"/>
<stop offset="0.776042" stop-color="#8342E9"/>
<stop offset="0.963542" stop-color="#3F89FC"/>
</linearGradient>
</defs>
</svg>
