<svg width="141" height="141" viewBox="0 0 141 141" fill="none" xmlns="http://www.w3.org/2000/svg">
<mask id="path-1-inside-1" fill="white">
<path fill-rule="evenodd" clip-rule="evenodd" d="M77.8094 30.2833C76.8151 29.8091 75.6437 29.9348 74.7866 30.6262L46.9935 52.8595H33.714C30.5656 52.8595 28 55.4251 28 58.5736V81.4298C28 84.5839 30.5656 87.1438 33.714 87.1438H46.9935L74.7809 109.377C75.3009 109.789 75.9351 110 76.5694 110C76.9922 110 77.4151 109.903 77.8094 109.714C78.7979 109.24 79.4264 108.24 79.4264 107.143V32.8604C79.4264 31.7633 78.7979 30.7633 77.8094 30.2833ZM93.8891 49.7968C92.7635 48.6883 90.9578 48.7054 89.8493 49.8196C88.7408 50.9453 88.7522 52.7509 89.8721 53.8652C94.192 58.1279 96.569 63.8591 96.569 70.0017C96.569 76.1443 94.192 81.8754 89.8721 86.1381C88.7522 87.2409 88.7408 89.0523 89.8493 90.178C90.4093 90.7436 91.1464 91.0236 91.8778 91.0236C92.6035 91.0236 93.3291 90.7494 93.8891 90.1951C99.306 84.8639 102.283 77.687 102.283 70.0017C102.283 62.3163 99.306 55.1394 93.8891 49.7968ZM97.9062 41.7628C99.0205 40.6429 100.826 40.6315 101.952 41.7457C109.54 49.2654 113.711 59.2992 113.711 70.0017C113.711 80.7041 109.54 90.7379 101.952 98.2519C101.392 98.8062 100.66 99.0804 99.9347 99.0804C99.2033 99.0804 98.4719 98.8004 97.9062 98.2405C96.7977 97.1205 96.8091 95.3092 97.9234 94.1949C104.42 87.7552 107.997 79.167 107.997 70.0017C107.997 60.8363 104.42 52.2424 97.9234 45.8027C96.8091 44.6941 96.7977 42.8828 97.9062 41.7628Z"/>
</mask>
<path fill-rule="evenodd" clip-rule="evenodd" d="M77.8094 30.2833C76.8151 29.8091 75.6437 29.9348 74.7866 30.6262L46.9935 52.8595H33.714C30.5656 52.8595 28 55.4251 28 58.5736V81.4298C28 84.5839 30.5656 87.1438 33.714 87.1438H46.9935L74.7809 109.377C75.3009 109.789 75.9351 110 76.5694 110C76.9922 110 77.4151 109.903 77.8094 109.714C78.7979 109.24 79.4264 108.24 79.4264 107.143V32.8604C79.4264 31.7633 78.7979 30.7633 77.8094 30.2833ZM93.8891 49.7968C92.7635 48.6883 90.9578 48.7054 89.8493 49.8196C88.7408 50.9453 88.7522 52.7509 89.8721 53.8652C94.192 58.1279 96.569 63.8591 96.569 70.0017C96.569 76.1443 94.192 81.8754 89.8721 86.1381C88.7522 87.2409 88.7408 89.0523 89.8493 90.178C90.4093 90.7436 91.1464 91.0236 91.8778 91.0236C92.6035 91.0236 93.3291 90.7494 93.8891 90.1951C99.306 84.8639 102.283 77.687 102.283 70.0017C102.283 62.3163 99.306 55.1394 93.8891 49.7968ZM97.9062 41.7628C99.0205 40.6429 100.826 40.6315 101.952 41.7457C109.54 49.2654 113.711 59.2992 113.711 70.0017C113.711 80.7041 109.54 90.7379 101.952 98.2519C101.392 98.8062 100.66 99.0804 99.9347 99.0804C99.2033 99.0804 98.4719 98.8004 97.9062 98.2405C96.7977 97.1205 96.8091 95.3092 97.9234 94.1949C104.42 87.7552 107.997 79.167 107.997 70.0017C107.997 60.8363 104.42 52.2424 97.9234 45.8027C96.8091 44.6941 96.7977 42.8828 97.9062 41.7628Z" fill="url(#paint0_linear)" fill-opacity="0.2"/>
<path d="M74.7866 30.6262L75.4113 31.4071L75.4145 31.4045L74.7866 30.6262ZM77.8094 30.2833L78.2461 29.3837L78.2399 29.3808L77.8094 30.2833ZM46.9935 52.8595V53.8595H47.3443L47.6182 53.6404L46.9935 52.8595ZM46.9935 87.1438L47.6182 86.363L47.3443 86.1438H46.9935V87.1438ZM74.7809 109.377L74.1561 110.158L74.1604 110.161L74.7809 109.377ZM77.8094 109.714L78.2408 110.616L78.2419 110.616L77.8094 109.714ZM89.8493 49.8196L89.1404 49.1143L89.1368 49.118L89.8493 49.8196ZM93.8891 49.7968L94.5913 49.0848L94.5908 49.0843L93.8891 49.7968ZM89.8721 53.8652L89.1668 54.5741L89.1698 54.577L89.8721 53.8652ZM89.8721 86.1381L90.5738 86.8507L90.5745 86.8499L89.8721 86.1381ZM89.8493 90.178L89.1368 90.8796L89.1386 90.8815L89.8493 90.178ZM93.8891 90.1951L93.1877 89.4824L93.1856 89.4844L93.8891 90.1951ZM101.952 41.7457L102.656 41.0354L102.655 41.035L101.952 41.7457ZM97.9062 41.7628L97.1973 41.0575L97.1955 41.0594L97.9062 41.7628ZM101.952 98.2519L102.655 98.9626L102.655 98.9625L101.952 98.2519ZM97.9062 98.2405L97.1955 98.944L97.2027 98.9512L97.9062 98.2405ZM97.9234 94.1949L97.2194 93.4847L97.2163 93.4878L97.9234 94.1949ZM97.9234 45.8027L97.2181 46.5116L97.2194 46.5129L97.9234 45.8027ZM75.4145 31.4045C75.9652 30.9602 76.7239 30.8735 77.3788 31.1859L78.2399 29.3808C76.9063 28.7446 75.3222 28.9093 74.1588 29.8478L75.4145 31.4045ZM47.6182 53.6404L75.4113 31.4071L74.1619 29.8453L46.3688 52.0786L47.6182 53.6404ZM33.714 53.8595H46.9935V51.8595H33.714V53.8595ZM29 58.5736C29 55.9774 31.1179 53.8595 33.714 53.8595V51.8595C30.0133 51.8595 27 54.8729 27 58.5736H29ZM29 81.4298V58.5736H27V81.4298H29ZM33.714 86.1438C31.1172 86.1438 29 84.031 29 81.4298H27C27 85.1369 30.014 88.1438 33.714 88.1438V86.1438ZM46.9935 86.1438H33.714V88.1438H46.9935V86.1438ZM75.4057 108.596L47.6182 86.363L46.3687 87.9246L74.1562 110.158L75.4057 108.596ZM76.5694 109C76.156 109 75.7414 108.862 75.4014 108.593L74.1604 110.161C74.8604 110.715 75.7142 111 76.5694 111V109ZM77.3779 108.812C77.1143 108.938 76.8385 109 76.5694 109V111C77.146 111 77.7159 110.867 78.2408 110.616L77.3779 108.812ZM78.4264 107.143C78.4264 107.856 78.0179 108.505 77.3768 108.813L78.2419 110.616C79.5778 109.975 80.4264 108.624 80.4264 107.143H78.4264ZM78.4264 32.8604V107.143H80.4264V32.8604H78.4264ZM77.3726 31.1829C78.0183 31.4964 78.4264 32.1481 78.4264 32.8604H80.4264C80.4264 31.3784 79.5774 30.0302 78.2461 29.3838L77.3726 31.1829ZM90.5582 50.5249C91.2809 49.7985 92.4562 49.7892 93.1875 50.5093L94.5908 49.0843C93.0707 47.5874 90.6347 47.6123 89.1404 49.1144L90.5582 50.5249ZM90.5774 53.1563C89.8466 52.4292 89.8404 51.2539 90.5618 50.5213L89.1368 49.118C87.6411 50.6367 87.6578 53.0727 89.1668 54.5741L90.5774 53.1563ZM97.569 70.0017C97.569 63.5954 95.0875 57.6067 90.5745 53.1534L89.1698 54.577C93.2964 58.649 95.569 64.1227 95.569 70.0017H97.569ZM90.5745 86.8499C95.0875 82.3966 97.569 76.4079 97.569 70.0017H95.569C95.569 75.8806 93.2964 81.3543 89.1698 85.4263L90.5745 86.8499ZM90.5618 89.4763C89.8384 88.7417 89.8498 87.5635 90.5738 86.8507L89.1705 85.4256C87.6546 86.9183 87.6431 89.3629 89.1368 90.8796L90.5618 89.4763ZM91.8778 90.0236C91.4007 90.0236 90.9234 89.8416 90.56 89.4744L89.1386 90.8815C89.8951 91.6457 90.8921 92.0236 91.8778 92.0236V90.0236ZM93.1856 89.4844C92.8201 89.8462 92.3504 90.0236 91.8778 90.0236V92.0236C92.8566 92.0236 93.8382 91.6526 94.5926 90.9058L93.1856 89.4844ZM101.283 70.0017C101.283 77.4233 98.4106 84.3421 93.1877 89.4824L94.5906 90.9078C100.201 85.3857 103.283 77.9508 103.283 70.0017H101.283ZM93.1869 50.5088C98.4107 55.6609 101.283 62.5802 101.283 70.0017H103.283C103.283 62.0523 100.201 54.6179 94.5913 49.0848L93.1869 50.5088ZM102.655 41.035C101.136 39.5315 98.699 39.5482 97.1973 41.0575L98.6151 42.4681C99.342 41.7376 100.516 41.7314 101.248 42.4564L102.655 41.035ZM114.711 70.0017C114.711 59.0335 110.434 48.7436 102.656 41.0354L101.248 42.456C108.646 49.7872 112.711 59.565 112.711 70.0017H114.711ZM102.655 98.9625C110.434 91.2598 114.711 80.9698 114.711 70.0017H112.711C112.711 80.4384 108.646 90.216 101.248 97.5413L102.655 98.9625ZM99.9347 100.08C100.911 100.08 101.899 99.7108 102.655 98.9626L101.248 97.5412C100.884 97.9015 100.409 98.0804 99.9347 98.0804V100.08ZM97.2027 98.9512C97.9604 99.7012 98.9466 100.08 99.9347 100.08V98.0804C99.46 98.0804 98.9834 97.8997 98.6097 97.5298L97.2027 98.9512ZM97.2163 93.4878C95.716 94.9881 95.6968 97.4298 97.1955 98.9439L98.617 97.537C97.8986 96.8112 97.9023 95.6302 98.6305 94.902L97.2163 93.4878ZM106.997 70.0017C106.997 78.9007 103.526 87.2331 97.2194 93.4847L98.6273 94.9052C105.314 88.2773 108.997 79.4333 108.997 70.0017H106.997ZM97.2194 46.5129C103.526 52.7644 106.997 61.1024 106.997 70.0017H108.997C108.997 60.5702 105.314 51.7204 98.6273 45.0924L97.2194 46.5129ZM97.1955 41.0594C95.6978 42.5725 95.7144 45.0156 97.2181 46.5116L98.6287 45.0937C97.9039 44.3727 97.8976 43.1931 98.617 42.4663L97.1955 41.0594Z" fill="url(#paint1_linear)" mask="url(#path-1-inside-1)"/>
<circle cx="70.5" cy="70.5" r="70" stroke="url(#paint2_linear)"/>
<defs>
<linearGradient id="paint0_linear" x1="28" y1="91.5153" x2="117.58" y2="52.5197" gradientUnits="userSpaceOnUse">
<stop stop-color="#FEBD2F"/>
<stop offset="0.248726" stop-color="#F95721"/>
<stop offset="0.502913" stop-color="#FC1370"/>
<stop offset="0.671875" stop-color="#BA2DB2"/>
<stop offset="0.776042" stop-color="#8342E9"/>
<stop offset="0.963542" stop-color="#3F89FC"/>
</linearGradient>
<linearGradient id="paint1_linear" x1="28" y1="75.4762" x2="124.818" y2="44.1916" gradientUnits="userSpaceOnUse">
<stop stop-color="#FEBD2F"/>
<stop offset="0.248726" stop-color="#F95721"/>
<stop offset="0.502913" stop-color="#FC1370"/>
<stop offset="0.571188" stop-color="#BA2DB2"/>
<stop offset="0.776042" stop-color="#8342E9"/>
<stop offset="0.963542" stop-color="#3F89FC"/>
</linearGradient>
<linearGradient id="paint2_linear" x1="2.76319e-08" y1="80.1518" x2="143.128" y2="80.9888" gradientUnits="userSpaceOnUse">
<stop stop-color="#FEBD2F"/>
<stop offset="0.248726" stop-color="#F95721"/>
<stop offset="0.502913" stop-color="#FC1370"/>
<stop offset="0.671875" stop-color="#BA2DB2"/>
<stop offset="0.776042" stop-color="#8342E9"/>
<stop offset="0.963542" stop-color="#3F89FC"/>
</linearGradient>
</defs>
</svg>
