<svg width="200" height="200" viewBox="0 0 200 200" fill="none" xmlns="http://www.w3.org/2000/svg">
<circle cx="100" cy="100" r="99.5" fill="#111111" stroke="url(#paint0_linear)"/>
<path d="M20.85 119H45.55C67.3 119 71.75 108.9 71.75 100.9V99.4C71.75 91.05 67.05 81.8 45.5 81.8H20.85V119ZM32.5 90.6H44.6C58 90.6 59.55 96.35 59.55 100.15V100.45C59.55 104.25 57.8 110.05 44.6 110.05H32.5V90.6ZM102.798 103.8H88.6984L95.5984 89.85L102.798 103.8ZM110.598 119H123.148L103.248 81.8H88.1484L69.3484 119H81.1984L84.5484 112.2H107.098L110.598 119ZM144.525 119L152.975 94.1L161.925 119H173.675L188.725 81.8H177.275L167.875 106.65L159.375 81.8H146.975L138.675 107.4L129.075 81.8H116.375L131.675 119H144.525Z" fill="url(#paint1_linear)" fill-opacity="0.2"/>
<path d="M20.85 119H19.85V120H20.85V119ZM20.85 81.8V80.8H19.85V81.8H20.85ZM32.5 90.6V89.6H31.5V90.6H32.5ZM32.5 110.05H31.5V111.05H32.5V110.05ZM20.85 120H45.55V118H20.85V120ZM45.55 120C56.5621 120 63.3981 117.445 67.4833 113.686C71.5832 109.914 72.75 105.081 72.75 100.9H70.75C70.75 104.719 69.6918 108.936 66.1292 112.214C62.5519 115.505 56.2879 118 45.55 118V120ZM72.75 100.9V99.4H70.75V100.9H72.75ZM72.75 99.4C72.75 95.0359 71.5153 90.3169 67.3616 86.7134C63.2364 83.1347 56.3943 80.8 45.5 80.8V82.8C56.1557 82.8 62.4386 85.0903 66.0509 88.2241C69.6347 91.3331 70.75 95.4141 70.75 99.4H72.75ZM45.5 80.8H20.85V82.8H45.5V80.8ZM19.85 81.8V119H21.85V81.8H19.85ZM32.5 91.6H44.6V89.6H32.5V91.6ZM44.6 91.6C51.1863 91.6 54.6237 93.0175 56.4201 94.6833C58.1905 96.3249 58.55 98.3798 58.55 100.15H60.55C60.55 98.1202 60.1345 95.4001 57.7799 93.2167C55.4513 91.0574 51.4137 89.6 44.6 89.6V91.6ZM58.55 100.15V100.45H60.55V100.15H58.55ZM58.55 100.45C58.55 102.201 58.1498 104.278 56.3471 105.94C54.5217 107.623 51.079 109.05 44.6 109.05V111.05C51.321 111.05 55.3533 109.577 57.7029 107.41C60.0752 105.222 60.55 102.499 60.55 100.45H58.55ZM44.6 109.05H32.5V111.05H44.6V109.05ZM33.5 110.05V90.6H31.5V110.05H33.5ZM102.798 103.8V104.8H104.44L103.687 103.341L102.798 103.8ZM88.6984 103.8L87.8021 103.357L87.0882 104.8H88.6984V103.8ZM95.5984 89.85L96.4871 89.3914L95.5794 87.6329L94.7021 89.4066L95.5984 89.85ZM110.598 119L109.709 119.458L109.988 120H110.598V119ZM123.148 119V120H124.817L124.03 118.528L123.148 119ZM103.248 81.8L104.13 81.3283L103.848 80.8H103.248V81.8ZM88.1484 81.8V80.8H87.5334L87.2559 81.349L88.1484 81.8ZM69.3484 119L68.4559 118.549L67.7226 120H69.3484V119ZM81.1984 119V120H81.8206L82.0955 119.442L81.1984 119ZM84.5484 112.2V111.2H83.9263L83.6514 111.758L84.5484 112.2ZM107.098 112.2L107.988 111.742L107.708 111.2H107.098V112.2ZM102.798 102.8H88.6984V104.8H102.798V102.8ZM89.5948 104.243L96.4948 90.2934L94.7021 89.4066L87.8021 103.357L89.5948 104.243ZM94.7098 90.3086L101.91 104.259L103.687 103.341L96.4871 89.3914L94.7098 90.3086ZM110.598 120H123.148V118H110.598V120ZM124.03 118.528L104.13 81.3283L102.367 82.2717L122.267 119.472L124.03 118.528ZM103.248 80.8H88.1484V82.8H103.248V80.8ZM87.2559 81.349L68.4559 118.549L70.2409 119.451L89.0409 82.251L87.2559 81.349ZM69.3484 120H81.1984V118H69.3484V120ZM82.0955 119.442L85.4455 112.642L83.6514 111.758L80.3014 118.558L82.0955 119.442ZM84.5484 113.2H107.098V111.2H84.5484V113.2ZM106.209 112.658L109.709 119.458L111.488 118.542L107.988 111.742L106.209 112.658ZM144.525 119V120H145.241L145.472 119.321L144.525 119ZM152.975 94.1L153.916 93.7617L152.947 91.0681L152.028 93.7786L152.975 94.1ZM161.925 119L160.984 119.338L161.221 120H161.925V119ZM173.675 119V120H174.349L174.602 119.375L173.675 119ZM188.725 81.8L189.652 82.175L190.208 80.8H188.725V81.8ZM177.275 81.8V80.8H176.584L176.339 81.4462L177.275 81.8ZM167.875 106.65L166.928 106.974L167.827 109.602L168.81 107.004L167.875 106.65ZM159.375 81.8L160.321 81.4764L160.089 80.8H159.375V81.8ZM146.975 81.8V80.8H146.248L146.023 81.4916L146.975 81.8ZM138.675 107.4L137.738 107.751L138.743 110.431L139.626 107.708L138.675 107.4ZM129.075 81.8L130.011 81.4489L129.768 80.8H129.075V81.8ZM116.375 81.8V80.8H114.882L115.45 82.1804L116.375 81.8ZM131.675 119L130.75 119.38L131.005 120H131.675V119ZM145.472 119.321L153.922 94.4214L152.028 93.7786L143.578 118.679L145.472 119.321ZM152.034 94.4382L160.984 119.338L162.866 118.662L153.916 93.7617L152.034 94.4382ZM161.925 120H173.675V118H161.925V120ZM174.602 119.375L189.652 82.175L187.798 81.425L172.748 118.625L174.602 119.375ZM188.725 80.8H177.275V82.8H188.725V80.8ZM176.339 81.4462L166.939 106.296L168.81 107.004L178.21 82.1538L176.339 81.4462ZM168.821 106.326L160.321 81.4764L158.428 82.1236L166.928 106.974L168.821 106.326ZM159.375 80.8H146.975V82.8H159.375V80.8ZM146.023 81.4916L137.723 107.092L139.626 107.708L147.926 82.1084L146.023 81.4916ZM139.611 107.049L130.011 81.4489L128.138 82.1511L137.738 107.751L139.611 107.049ZM129.075 80.8H116.375V82.8H129.075V80.8ZM115.45 82.1804L130.75 119.38L132.599 118.62L117.299 81.4196L115.45 82.1804ZM131.675 120H144.525V118H131.675V120Z" fill="url(#paint2_linear)"/>
<defs>
<linearGradient id="paint0_linear" x1="3.91941e-08" y1="113.69" x2="203.018" y2="114.878" gradientUnits="userSpaceOnUse">
<stop stop-color="#FEBD2F"/>
<stop offset="0.248726" stop-color="#F95721"/>
<stop offset="0.502913" stop-color="#FC1370"/>
<stop offset="0.671875" stop-color="#BA2DB2"/>
<stop offset="0.776042" stop-color="#8342E9"/>
<stop offset="0.963542" stop-color="#3F89FC"/>
</linearGradient>
<linearGradient id="paint1_linear" x1="18" y1="102.054" x2="191.394" y2="107.833" gradientUnits="userSpaceOnUse">
<stop stop-color="#FEBD2F"/>
<stop offset="0.248726" stop-color="#F95721"/>
<stop offset="0.502913" stop-color="#FC1370"/>
<stop offset="0.671875" stop-color="#BA2DB2"/>
<stop offset="0.776042" stop-color="#8342E9"/>
<stop offset="0.963542" stop-color="#3F89FC"/>
</linearGradient>
<linearGradient id="paint2_linear" x1="18" y1="102.054" x2="191.394" y2="107.833" gradientUnits="userSpaceOnUse">
<stop stop-color="#FEBD2F"/>
<stop offset="0.248726" stop-color="#F95721"/>
<stop offset="0.502913" stop-color="#FC1370"/>
<stop offset="0.671875" stop-color="#BA2DB2"/>
<stop offset="0.776042" stop-color="#8342E9"/>
<stop offset="0.963542" stop-color="#3F89FC"/>
</linearGradient>
</defs>
</svg>
