<svg width="141" height="141" viewBox="0 0 141 141" fill="none" xmlns="http://www.w3.org/2000/svg">
<path d="M100.534 36.1844L102.013 34.6452C109.074 40.8336 114.121 48.994 116.504 58.0756C118.888 67.1572 118.498 76.7443 115.386 85.6026C115.003 85.3605 114.607 85.1402 114.199 84.9427L113.913 84.8052C113.943 84.3744 113.925 83.9416 113.859 83.5149C116.485 75.1848 116.623 66.2695 114.256 57.8621C111.889 49.4548 107.12 41.921 100.534 36.1844Z" fill="url(#paint0_linear)" fill-opacity="0.2"/>
<path d="M93.3388 115.085C92.646 114.752 92.1137 114.157 91.8589 113.432C91.604 112.706 91.6473 111.909 91.9793 111.215L105.454 83.147C105.692 82.6538 106.064 82.2378 106.527 81.9467C106.991 81.6556 107.527 81.5012 108.074 81.5014C108.564 81.5022 109.046 81.6271 109.475 81.8646C109.904 82.102 110.265 82.4442 110.526 82.8593C110.787 83.2743 110.938 83.7486 110.966 84.238C110.993 84.7273 110.897 85.2157 110.684 85.6575L110.66 85.7098L97.2096 113.726C97.0448 114.07 96.814 114.377 96.5303 114.632C96.2465 114.886 95.9154 115.082 95.5559 115.208C95.1965 115.334 94.8156 115.388 94.4352 115.367C94.0547 115.346 93.6822 115.251 93.3388 115.085Z" fill="url(#paint1_linear)" fill-opacity="0.2"/>
<path d="M117.152 99.6428L111.264 111.919C110.237 114.062 108.405 115.713 106.167 116.514C103.929 117.314 101.466 117.199 99.3125 116.193L113.006 87.6481C115.137 88.699 116.768 90.5477 117.545 92.7932C118.323 95.0387 118.183 97.5001 117.158 99.6436L117.152 99.6428Z" fill="url(#paint2_linear)" fill-opacity="0.2"/>
<path d="M35.8727 116.53C34.7535 116.14 33.7228 115.531 32.8402 114.74C31.9577 113.949 31.2408 112.99 30.731 111.92L24.8434 99.6436C23.8175 97.5006 23.6776 95.0396 24.454 92.7942C25.2304 90.5487 26.8605 88.6998 28.991 87.6481L42.6826 116.194C40.5455 117.199 38.0983 117.32 35.8727 116.53Z" fill="url(#paint3_linear)" fill-opacity="0.2"/>
<path d="M32.666 81.7841C33.056 81.5958 33.4835 81.498 33.9166 81.4981C34.464 81.4979 35.0003 81.6522 35.4638 81.9433C35.9273 82.2344 36.2993 82.6505 36.5368 83.1436L50.0158 111.212C50.1806 111.556 50.2762 111.928 50.297 112.309C50.3179 112.689 50.2635 113.07 50.1372 113.43C50.0108 113.789 49.8149 114.12 49.5606 114.404C49.3063 114.688 48.9986 114.918 48.6551 115.083C48.3115 115.248 47.9389 115.344 47.5584 115.365C47.178 115.385 46.7971 115.331 46.4376 115.205C46.0782 115.078 45.7471 114.882 45.4633 114.628C45.1796 114.374 44.9487 114.066 44.7838 113.723L31.3369 85.7064L31.3124 85.6541C31.1474 85.3108 31.0516 84.9382 31.0306 84.5579C31.0096 84.1775 31.0637 83.7967 31.19 83.4373C31.3163 83.0779 31.5121 82.7469 31.7664 82.4632C32.0207 82.1796 32.3284 81.9488 32.6719 81.7841H32.666Z" fill="url(#paint4_linear)" fill-opacity="0.2"/>
<path d="M26.0628 69.9979C26.0607 74.5832 26.761 79.1417 28.1395 83.5149C28.0735 83.9419 28.0554 84.375 28.0855 84.806L27.7994 84.9427C27.3919 85.1402 26.9957 85.3605 26.613 85.6026C23.5001 76.7447 23.1099 67.1578 25.4926 58.0762C27.8753 48.9945 32.9217 40.834 39.9823 34.6452L41.4633 36.1844C36.6243 40.3888 32.745 45.5836 30.088 51.4174C27.431 57.2511 26.0583 63.5876 26.0628 69.9979Z" fill="url(#paint5_linear)" fill-opacity="0.2"/>
<path d="M95.5075 35.4156C88.3477 30.3276 79.7819 27.594 70.9984 27.594C62.2149 27.594 53.6491 30.3276 46.4893 35.4156C46.2188 35.6137 45.8858 35.7073 45.5517 35.679C45.2176 35.6508 44.905 35.5027 44.6716 35.262L42.2565 32.749C50.4915 26.3975 60.5985 22.9526 70.9984 22.9526C81.3983 22.9526 91.5053 26.3975 99.7403 32.749L97.3269 35.2612C97.0935 35.5024 96.7806 35.651 96.4461 35.6794C96.1117 35.7078 95.7782 35.6141 95.5075 35.4156Z" fill="url(#paint6_linear)" fill-opacity="0.2"/>
<path fill-rule="evenodd" clip-rule="evenodd" d="M120.997 69.9979C121.008 62.6355 119.388 55.3621 116.253 48.7004C113.118 42.0386 108.547 36.1538 102.868 31.4689C93.9021 24.0557 82.6327 20 70.9992 20C59.3658 20 48.0964 24.0557 39.1308 31.4689C31.1054 38.1044 25.3531 47.0811 22.6776 57.1449C20.0022 67.2086 20.5372 77.8568 24.208 87.6017C22.5749 89.3635 21.5087 91.5752 21.1476 93.9501C20.7865 96.325 21.1471 98.7537 22.1827 100.921L28.0712 113.197C28.7496 114.617 29.7014 115.888 30.8723 116.94C32.0431 117.991 33.4099 118.801 34.8942 119.323C36.3786 119.845 37.9514 120.069 39.5224 119.982C41.0935 119.895 42.632 119.499 44.0497 118.816L45.2952 118.219C45.4018 118.166 45.5016 118.101 45.5923 118.024C46.6815 118.382 47.8521 118.412 48.9581 118.109C50.0642 117.807 51.0568 117.186 51.8125 116.323C52.5681 115.461 53.0533 114.395 53.2077 113.259C53.3621 112.123 53.1788 110.966 52.6807 109.934L39.2034 81.8651C38.8204 81.0618 38.2588 80.3566 37.5615 79.8035C36.8643 79.2504 36.0498 78.8641 35.1803 78.674C34.3108 78.484 33.4094 78.4952 32.5449 78.7069C31.6805 78.9187 30.8759 79.3252 30.1926 79.8956C28.3714 72.3681 28.6696 64.4834 31.0544 57.1151C33.4391 49.7468 37.8173 43.1826 43.7037 38.1497C44.3068 38.467 44.9767 38.6359 45.6581 38.6426C46.571 38.6407 47.4606 38.3537 48.2023 37.8215C54.8621 33.0896 62.8292 30.5474 70.9988 30.5474C79.1684 30.5474 87.1356 33.0896 93.7953 37.8215C94.4423 38.2877 95.2056 38.566 96.0008 38.6256C96.7961 38.6852 97.5923 38.5237 98.3015 38.159C104.185 43.1922 108.561 49.7556 110.944 57.1224C113.327 64.4892 113.624 72.3718 111.803 79.8973C111.12 79.3269 110.315 78.9204 109.451 78.7086C108.587 78.4969 107.685 78.4856 106.816 78.6757C105.946 78.8657 105.132 79.2521 104.434 79.8052C103.737 80.3582 103.176 81.0634 102.793 81.8668L89.3186 109.934C88.8147 110.966 88.6269 112.125 88.779 113.264C88.931 114.403 89.4161 115.471 90.1732 116.335C90.9304 117.2 91.926 117.821 93.035 118.122C94.1441 118.422 95.3172 118.388 96.4071 118.025C96.498 118.101 96.5977 118.166 96.7041 118.219L97.9497 118.817C100.814 120.19 104.106 120.37 107.103 119.316C110.099 118.262 112.554 116.061 113.928 113.197L119.817 100.921C120.852 98.7537 121.213 96.325 120.852 93.9501C120.491 91.5752 119.424 89.3635 117.791 87.6017C119.92 81.9771 121.006 76.0118 120.997 69.9979ZM32.8402 114.74C33.7228 115.531 34.7535 116.14 35.8727 116.53C38.0983 117.32 40.5455 117.199 42.6826 116.194L28.991 87.6481C26.8605 88.6998 25.2304 90.5487 24.454 92.7942C23.6776 95.0396 23.8175 97.5006 24.8434 99.6436L30.731 111.92C31.2408 112.99 31.9577 113.949 32.8402 114.74ZM33.9166 81.4981C33.4835 81.498 33.056 81.5958 32.666 81.7841H32.6719C32.3284 81.9488 32.0207 82.1796 31.7664 82.4632C31.5121 82.7469 31.3163 83.0779 31.19 83.4373C31.0637 83.7967 31.0096 84.1775 31.0306 84.5579C31.0516 84.9382 31.1474 85.3108 31.3124 85.6541L31.3369 85.7064L44.7838 113.723C44.9487 114.066 45.1796 114.374 45.4633 114.628C45.7471 114.882 46.0782 115.078 46.4376 115.205C46.7971 115.331 47.178 115.385 47.5584 115.365C47.9389 115.344 48.3115 115.248 48.6551 115.083C48.9986 114.918 49.3063 114.688 49.5606 114.404C49.8149 114.12 50.0108 113.789 50.1372 113.43C50.2635 113.07 50.3179 112.689 50.297 112.309C50.2762 111.928 50.1806 111.556 50.0158 111.212L36.5368 83.1436C36.2993 82.6505 35.9273 82.2344 35.4638 81.9433C35.0003 81.6522 34.464 81.4979 33.9166 81.4981ZM28.1395 83.5149C26.761 79.1417 26.0607 74.5832 26.0628 69.9979C26.0583 63.5876 27.431 57.2511 30.088 51.4174C32.745 45.5836 36.6243 40.3888 41.4633 36.1844L39.9823 34.6452C32.9217 40.834 27.8753 48.9945 25.4926 58.0762C23.1099 67.1578 23.5001 76.7447 26.613 85.6026C26.9957 85.3605 27.3919 85.1402 27.7994 84.9427L28.0855 84.806C28.0554 84.375 28.0735 83.9419 28.1395 83.5149ZM70.9984 27.594C79.7819 27.594 88.3477 30.3276 95.5075 35.4156C95.7782 35.6141 96.1117 35.7078 96.4461 35.6794C96.7806 35.651 97.0935 35.5024 97.3269 35.2612L99.7403 32.749C91.5053 26.3975 81.3983 22.9526 70.9984 22.9526C60.5985 22.9526 50.4915 26.3975 42.2565 32.749L44.6716 35.262C44.905 35.5027 45.2176 35.6508 45.5517 35.679C45.8858 35.7073 46.2188 35.6137 46.4893 35.4156C53.6491 30.3276 62.2149 27.594 70.9984 27.594ZM102.013 34.6452L100.534 36.1844C107.12 41.921 111.889 49.4548 114.256 57.8621C116.623 66.2695 116.485 75.1848 113.859 83.5149C113.925 83.9416 113.943 84.3744 113.913 84.8052L114.199 84.9427C114.607 85.1402 115.003 85.3605 115.386 85.6026C118.498 76.7443 118.888 67.1572 116.504 58.0756C114.121 48.994 109.074 40.8336 102.013 34.6452ZM91.8589 113.432C92.1137 114.157 92.646 114.752 93.3388 115.085C93.6822 115.251 94.0547 115.346 94.4352 115.367C94.8156 115.388 95.1965 115.334 95.5559 115.208C95.9154 115.082 96.2465 114.886 96.5303 114.632C96.814 114.377 97.0448 114.07 97.2096 113.726L110.66 85.7098L110.684 85.6575C110.897 85.2157 110.993 84.7273 110.966 84.238C110.938 83.7486 110.787 83.2743 110.526 82.8593C110.265 82.4442 109.904 82.102 109.475 81.8646C109.046 81.6271 108.564 81.5022 108.074 81.5014C107.527 81.5012 106.991 81.6556 106.527 81.9467C106.064 82.2378 105.692 82.6538 105.454 83.147L91.9793 111.215C91.6473 111.909 91.604 112.706 91.8589 113.432ZM111.264 111.919L117.152 99.6428L117.158 99.6436C118.183 97.5001 118.323 95.0387 117.545 92.7932C116.768 90.5477 115.137 88.699 113.006 87.6481L99.3125 116.193C101.466 117.199 103.929 117.314 106.167 116.514C108.405 115.713 110.237 114.062 111.264 111.919Z" fill="url(#paint7_linear)" fill-opacity="0.2"/>
<path d="M120.747 69.9976V69.9983C120.756 75.9818 119.675 81.917 117.558 87.5132L117.503 87.6581L117.608 87.7717C119.207 89.4967 120.251 91.6623 120.605 93.9877C120.958 96.3131 120.605 98.6911 119.591 100.813L113.703 113.089C112.358 115.893 109.954 118.048 107.02 119.08C104.086 120.112 100.862 119.936 98.0577 118.592L96.815 117.995C96.8146 117.994 96.8142 117.994 96.8138 117.994C96.7257 117.95 96.6431 117.896 96.5678 117.833L96.4606 117.743L96.3279 117.787C95.2847 118.136 94.1619 118.168 93.1004 117.88C92.0389 117.593 91.086 116.998 90.3613 116.171C89.6366 115.344 89.1723 114.321 89.0268 113.231C88.8813 112.14 89.061 111.032 89.5433 110.043L89.544 110.042L103.018 81.975L103.018 81.9744C103.385 81.2054 103.922 80.5304 104.59 80.001C105.257 79.4716 106.037 79.1018 106.869 78.9199C107.701 78.738 108.564 78.7488 109.392 78.9515C110.219 79.1541 110.989 79.5433 111.643 80.0892L111.952 80.3468L112.046 79.9561C113.878 72.3857 113.579 64.4561 111.182 57.0454C108.784 49.6348 104.383 43.0322 98.4641 37.9691L98.3365 37.8599L98.1872 37.9367C97.519 38.2803 96.7688 38.4324 96.0195 38.3763C95.2702 38.3202 94.5511 38.058 93.9415 37.6187L93.9401 37.6177C87.2381 32.8558 79.2203 30.2974 70.9988 30.2974C62.7773 30.2974 54.7596 32.8558 48.0575 37.6177L48.0566 37.6183C47.3576 38.1199 46.5194 38.3905 45.6591 38.3926C45.0179 38.3861 44.3875 38.227 43.8201 37.9285L43.6701 37.8496L43.5412 37.9597C37.6197 43.0225 33.2155 49.6259 30.8165 57.0381C28.4176 64.4504 28.1175 72.3821 29.9496 79.9544L30.0442 80.3451L30.3528 80.0875C31.0068 79.5416 31.777 79.1524 32.6044 78.9498C33.4318 78.7471 34.2947 78.7363 35.1269 78.9182C35.9591 79.1002 36.7388 79.4699 37.4062 79.9993C38.0736 80.5287 38.6111 81.2037 38.9777 81.9727L38.978 81.9734L52.4553 110.042L52.4555 110.042C52.9323 111.031 53.1078 112.138 52.96 113.225C52.8122 114.313 52.3477 115.333 51.6244 116.159C50.9011 116.984 49.9509 117.579 48.8922 117.868C47.8335 118.157 46.713 118.129 45.6703 117.786L45.5374 117.743L45.4306 117.833C45.3558 117.896 45.2736 117.95 45.1857 117.994C45.1854 117.994 45.185 117.994 45.1846 117.995L43.9416 118.591L43.9412 118.591C42.5532 119.259 41.0468 119.647 39.5086 119.732C37.9704 119.817 36.4305 119.598 34.9772 119.087C33.5238 118.576 32.1856 117.783 31.0393 116.754C29.8929 115.724 28.9609 114.479 28.2967 113.089L28.2966 113.089L22.4083 100.813C21.3943 98.6911 21.0411 96.3131 21.3947 93.9877C21.7483 91.6623 22.7923 89.4967 24.3913 87.7717L24.4964 87.6583L24.4419 87.5136C20.7895 77.8174 20.2572 67.2225 22.9192 57.2091C25.5813 47.1956 31.3048 38.2639 39.2901 31.6616L39.1308 31.4689L39.2901 31.6616C48.2108 24.2854 59.424 20.25 70.9992 20.25C82.5745 20.25 93.7877 24.2854 102.708 31.6616L102.709 31.6617C108.36 36.3232 112.908 42.1784 116.027 48.8068C119.146 55.4352 120.758 62.6721 120.747 69.9976Z" stroke="url(#paint8_linear)" stroke-width="0.5"/>
<circle cx="70.5" cy="70.5" r="70" stroke="url(#paint9_linear)"/>
<defs>
<linearGradient id="paint0_linear" x1="25" y1="133" x2="143.695" y2="-15.046" gradientUnits="userSpaceOnUse">
<stop stop-color="#FEBD2F"/>
<stop offset="0.248726" stop-color="#F95721"/>
<stop offset="0.502913" stop-color="#FC1370"/>
<stop offset="0.671875" stop-color="#BA2DB2"/>
<stop offset="0.776042" stop-color="#8342E9"/>
<stop offset="0.963542" stop-color="#3F89FC"/>
</linearGradient>
<linearGradient id="paint1_linear" x1="25" y1="133" x2="143.695" y2="-15.046" gradientUnits="userSpaceOnUse">
<stop stop-color="#FEBD2F"/>
<stop offset="0.248726" stop-color="#F95721"/>
<stop offset="0.502913" stop-color="#FC1370"/>
<stop offset="0.671875" stop-color="#BA2DB2"/>
<stop offset="0.776042" stop-color="#8342E9"/>
<stop offset="0.963542" stop-color="#3F89FC"/>
</linearGradient>
<linearGradient id="paint2_linear" x1="25" y1="133" x2="143.695" y2="-15.046" gradientUnits="userSpaceOnUse">
<stop stop-color="#FEBD2F"/>
<stop offset="0.248726" stop-color="#F95721"/>
<stop offset="0.502913" stop-color="#FC1370"/>
<stop offset="0.671875" stop-color="#BA2DB2"/>
<stop offset="0.776042" stop-color="#8342E9"/>
<stop offset="0.963542" stop-color="#3F89FC"/>
</linearGradient>
<linearGradient id="paint3_linear" x1="25" y1="133" x2="143.695" y2="-15.046" gradientUnits="userSpaceOnUse">
<stop stop-color="#FEBD2F"/>
<stop offset="0.248726" stop-color="#F95721"/>
<stop offset="0.502913" stop-color="#FC1370"/>
<stop offset="0.671875" stop-color="#BA2DB2"/>
<stop offset="0.776042" stop-color="#8342E9"/>
<stop offset="0.963542" stop-color="#3F89FC"/>
</linearGradient>
<linearGradient id="paint4_linear" x1="25" y1="133" x2="143.695" y2="-15.046" gradientUnits="userSpaceOnUse">
<stop stop-color="#FEBD2F"/>
<stop offset="0.248726" stop-color="#F95721"/>
<stop offset="0.502913" stop-color="#FC1370"/>
<stop offset="0.671875" stop-color="#BA2DB2"/>
<stop offset="0.776042" stop-color="#8342E9"/>
<stop offset="0.963542" stop-color="#3F89FC"/>
</linearGradient>
<linearGradient id="paint5_linear" x1="25" y1="133" x2="143.695" y2="-15.046" gradientUnits="userSpaceOnUse">
<stop stop-color="#FEBD2F"/>
<stop offset="0.248726" stop-color="#F95721"/>
<stop offset="0.502913" stop-color="#FC1370"/>
<stop offset="0.671875" stop-color="#BA2DB2"/>
<stop offset="0.776042" stop-color="#8342E9"/>
<stop offset="0.963542" stop-color="#3F89FC"/>
</linearGradient>
<linearGradient id="paint6_linear" x1="25" y1="133" x2="143.695" y2="-15.046" gradientUnits="userSpaceOnUse">
<stop stop-color="#FEBD2F"/>
<stop offset="0.248726" stop-color="#F95721"/>
<stop offset="0.502913" stop-color="#FC1370"/>
<stop offset="0.671875" stop-color="#BA2DB2"/>
<stop offset="0.776042" stop-color="#8342E9"/>
<stop offset="0.963542" stop-color="#3F89FC"/>
</linearGradient>
<linearGradient id="paint7_linear" x1="25" y1="133" x2="143.695" y2="-15.046" gradientUnits="userSpaceOnUse">
<stop stop-color="#FEBD2F"/>
<stop offset="0.248726" stop-color="#F95721"/>
<stop offset="0.502913" stop-color="#FC1370"/>
<stop offset="0.671875" stop-color="#BA2DB2"/>
<stop offset="0.776042" stop-color="#8342E9"/>
<stop offset="0.963542" stop-color="#3F89FC"/>
</linearGradient>
<linearGradient id="paint8_linear" x1="21" y1="142.5" x2="134.24" y2="-0.497889" gradientUnits="userSpaceOnUse">
<stop stop-color="#FEBD2F"/>
<stop offset="0.248726" stop-color="#F95721"/>
<stop offset="0.502913" stop-color="#FC1370"/>
<stop offset="0.671875" stop-color="#BA2DB2"/>
<stop offset="0.776042" stop-color="#8342E9"/>
<stop offset="0.963542" stop-color="#3F89FC"/>
</linearGradient>
<linearGradient id="paint9_linear" x1="2.76319e-08" y1="80.1518" x2="143.128" y2="80.9888" gradientUnits="userSpaceOnUse">
<stop stop-color="#FEBD2F"/>
<stop offset="0.248726" stop-color="#F95721"/>
<stop offset="0.502913" stop-color="#FC1370"/>
<stop offset="0.671875" stop-color="#BA2DB2"/>
<stop offset="0.776042" stop-color="#8342E9"/>
<stop offset="0.963542" stop-color="#3F89FC"/>
</linearGradient>
</defs>
</svg>
