<svg width="143" height="143" viewBox="0 0 143 143" fill="none" xmlns="http://www.w3.org/2000/svg">
<path d="M74.1094 141C63.0894 141 52.2694 139.04 42.9994 134.5C43.1294 134.41 42.4994 133.67 42.4994 133.5V97C42.4994 85.41 51.9094 76 63.4994 76C63.7794 76 63.9994 76.28 63.9994 76C63.9994 75.82 63.1394 75.9299 63.9994 75.5H63.4994C55.4994 71.5 51.9994 64.7 51.9994 56.5C51.9994 45.18 62.2894 36 73.6094 36C84.9394 36 94.1094 45.18 94.1094 56.5C94.1094 64.7 89.3094 71.7701 82.3594 75.05V75.0701C82.2094 75.1601 82.1094 75.32 82.1094 75.5C82.1094 75.78 82.3394 76 82.6094 76C90.3822 76 97.1673 80.2251 100.798 86.5C101.674 88.0565 102.366 89.6682 102.845 91.3665C103.343 93.1596 103.609 95.0489 103.609 97V134.5C92.0951 140.26 85.6355 140.803 74.1094 141Z" fill="url(#paint0_linear)" fill-opacity="0.2"/>
<path d="M16.8162 116C6.92849 103.864 1 88.3744 1 71.5C1 32.5639 32.5639 1 71.5 1C110.436 1 142 32.5639 142 71.5C142 110.436 110.436 142 71.5 142C53.4437 142 36.9728 135.212 24.5 124.049" stroke="url(#paint1_linear)"/>
<path fill-rule="evenodd" clip-rule="evenodd" d="M91.5 57C91.5 45.6782 82.3218 36.5 71 36.5C59.6782 36.5 50.5 45.6782 50.5 57C50.5 65.1939 55.3073 72.266 62.2576 75.5479L62.2489 75.5663C62.399 75.6526 62.5 75.8145 62.5 76C62.5 76.2761 62.2761 76.5 62 76.5C50.402 76.5 41 85.902 41 97.5V134C41 134.276 40.7761 134.5 40.5 134.5C40.2239 134.5 40 134.276 40 134V97.5C40 85.967 48.8743 76.5068 60.167 75.5753C53.7872 71.8466 49.5 64.9244 49.5 57C49.5 45.1259 59.1259 35.5 71 35.5C82.8741 35.5 92.5 45.1259 92.5 57C92.5 64.9244 88.2128 71.8466 81.8331 75.5753C93.1257 76.5068 102 85.967 102 97.5V134C102 134.276 101.776 134.5 101.5 134.5C101.224 134.5 101 134.276 101 134V97.5C101 85.902 91.598 76.5 80 76.5C79.7239 76.5 79.5 76.2761 79.5 76C79.5 75.8145 79.601 75.6526 79.7511 75.5663L79.7424 75.5479C86.6927 72.266 91.5 65.1939 91.5 57Z" fill="url(#paint2_linear)"/>
<g filter="url(#filter0_b)">
<path d="M17.5005 120.5C16.7973 117.671 19.1643 113.771 22.8555 112.853C24.5203 112.436 26.1414 112.523 27.5003 113L28.1665 81.7659C28.1665 81.7659 27.9799 80 29.9799 80C29.9799 80 31.8387 81.6265 40.5002 89C45.3754 92.7548 44.4968 98.2658 44.4968 98.2658C38.1633 88.3325 31.6948 88.6822 31.6948 88.6822L31.6034 118.394C31.5836 120.898 29.3267 123.341 26.0845 124.144C22.4013 125.078 17.9177 123.126 17.5005 120.5Z" fill="#111111"/>
</g>
<g filter="url(#filter1_b)">
<mask id="path-5-inside-1" fill="white">
<path d="M55.9401 103.968C55.9401 88.5238 43.4202 76 27.972 76C12.5238 76 0 88.5238 0 103.968C0 119.424 12.5238 131.936 27.972 131.936C43.4202 131.936 55.9401 119.424 55.9401 103.968ZM18.1421 120.199C17.4388 117.37 19.8506 114.326 23.5418 113.409C25.2066 112.991 26.8277 113.079 28.1866 113.556V82.2659C28.1866 82.2659 28 80.5 30 80.5C30 80.5 31 81.5 39.6615 88.8735C44.5367 92.6283 44.5168 97.7657 44.5168 97.7657C38.1834 87.8325 31.7149 88.1821 31.7149 88.1821L31.6235 117.894C31.6036 120.398 29.3468 122.841 26.1046 123.644C22.4213 124.578 18.5593 122.825 18.1421 120.199Z"/>
</mask>
<path d="M55.9401 103.968C55.9401 88.5238 43.4202 76 27.972 76C12.5238 76 0 88.5238 0 103.968C0 119.424 12.5238 131.936 27.972 131.936C43.4202 131.936 55.9401 119.424 55.9401 103.968ZM18.1421 120.199C17.4388 117.37 19.8506 114.326 23.5418 113.409C25.2066 112.991 26.8277 113.079 28.1866 113.556V82.2659C28.1866 82.2659 28 80.5 30 80.5C30 80.5 31 81.5 39.6615 88.8735C44.5367 92.6283 44.5168 97.7657 44.5168 97.7657C38.1834 87.8325 31.7149 88.1821 31.7149 88.1821L31.6235 117.894C31.6036 120.398 29.3468 122.841 26.1046 123.644C22.4213 124.578 18.5593 122.825 18.1421 120.199Z" fill="url(#paint3_linear)" fill-opacity="0.2"/>
<path d="M18.1421 120.199L19.1297 120.042L19.1229 120L19.1125 119.958L18.1421 120.199ZM23.5418 113.409L23.7831 114.379L23.7849 114.379L23.5418 113.409ZM28.1866 113.556L27.8555 114.499L29.1866 114.966V113.556H28.1866ZM28.1866 82.2659H29.1866V82.2132L29.1811 82.1608L28.1866 82.2659ZM30 80.5L30.7071 79.7929C30.5196 79.6054 30.2652 79.5 30 79.5V80.5ZM39.6615 88.8735L39.0133 89.6349L39.0319 89.6508L39.0513 89.6658L39.6615 88.8735ZM44.5168 97.7657L43.6737 98.3034C43.9122 98.6775 44.3688 98.8497 44.795 98.7263C45.2212 98.6028 45.5151 98.2133 45.5168 97.7696L44.5168 97.7657ZM31.7149 88.1821L31.6609 87.1836L30.7178 87.2346L30.7149 88.1791L31.7149 88.1821ZM31.6235 117.894L32.6235 117.902L32.6235 117.898L31.6235 117.894ZM26.1046 123.644L25.8643 122.673L25.8588 122.674L26.1046 123.644ZM56.9401 103.968C56.9401 87.9716 43.9726 75 27.972 75V77C42.8678 77 54.9401 89.076 54.9401 103.968H56.9401ZM27.972 75C11.9716 75 -1 87.9715 -1 103.968H1C1 89.0762 13.076 77 27.972 77V75ZM-1 103.968C-1 119.977 11.9719 132.936 27.972 132.936V130.936C13.0758 130.936 1 118.872 1 103.968H-1ZM27.972 132.936C43.9723 132.936 56.9401 119.977 56.9401 103.968H54.9401C54.9401 118.872 42.8681 130.936 27.972 130.936V132.936ZM19.1125 119.958C18.5975 117.886 20.3761 115.226 23.7831 114.379L23.3005 112.438C19.3251 113.427 16.2802 116.854 17.1716 120.44L19.1125 119.958ZM23.7849 114.379C25.2716 114.006 26.6924 114.091 27.8555 114.499L28.5177 112.612C26.963 112.067 25.1417 111.977 23.2987 112.439L23.7849 114.379ZM29.1866 113.556V82.2659H27.1866V113.556H29.1866ZM28.1866 82.2659C29.1811 82.1608 29.1811 82.1614 29.1812 82.1619C29.1812 82.1621 29.1812 82.1626 29.1813 82.1629C29.1813 82.1636 29.1814 82.1643 29.1815 82.1649C29.1816 82.1661 29.1817 82.1673 29.1818 82.1684C29.182 82.1705 29.1822 82.1723 29.1823 82.1738C29.1826 82.1766 29.1827 82.1781 29.1827 82.1783C29.1827 82.1787 29.1824 82.1741 29.1822 82.1653C29.1817 82.1472 29.1818 82.1146 29.1852 82.0728C29.1927 81.9837 29.2129 81.8852 29.2516 81.8013C29.2861 81.7263 29.3318 81.6686 29.4045 81.6229C29.4791 81.5761 29.6494 81.5 30 81.5V79.5C29.3506 79.5 28.7942 79.6447 28.3413 79.9289C27.8865 80.2144 27.6038 80.5981 27.435 80.9646C27.2703 81.3221 27.2122 81.6652 27.1921 81.9072C27.1818 82.0309 27.1808 82.1362 27.1828 82.2148C27.1838 82.2543 27.1855 82.2876 27.1873 82.3138C27.1882 82.3269 27.1891 82.3383 27.1899 82.3479C27.1903 82.3527 27.1907 82.357 27.1911 82.3608C27.1913 82.3628 27.1915 82.3646 27.1916 82.3663C27.1917 82.3671 27.1918 82.3679 27.1919 82.3687C27.1919 82.3691 27.192 82.3697 27.192 82.3699C27.1921 82.3704 27.1921 82.371 28.1866 82.2659ZM30 80.5C29.2929 81.2071 29.2931 81.2073 29.2933 81.2076C29.2934 81.2076 29.2937 81.2079 29.2938 81.208C29.2941 81.2084 29.2945 81.2087 29.2948 81.209C29.2955 81.2097 29.2963 81.2105 29.2971 81.2112C29.2987 81.2128 29.3005 81.2146 29.3026 81.2167C29.3067 81.2207 29.3119 81.2258 29.3183 81.232C29.3311 81.2444 29.3491 81.2616 29.3738 81.2848C29.423 81.3313 29.5001 81.403 29.6177 81.5103C29.8527 81.7247 30.2532 82.0844 30.9224 82.6727C32.2607 83.8493 34.6806 85.9465 39.0133 89.6349L40.3097 88.112C35.9809 84.427 33.57 82.3374 32.243 81.1707C31.5794 80.5873 31.1886 80.2362 30.9655 80.0326C30.854 79.931 30.7853 79.867 30.746 79.8299C30.7264 79.8114 30.7144 79.7999 30.7084 79.794C30.7054 79.7911 30.7039 79.7897 30.7037 79.7895C30.7036 79.7894 30.7039 79.7897 30.7045 79.7903C30.7047 79.7905 30.7051 79.7909 30.7056 79.7913C30.7058 79.7916 30.706 79.7918 30.7063 79.7921C30.7064 79.7922 30.7066 79.7924 30.7067 79.7925C30.7069 79.7927 30.7071 79.7929 30 80.5ZM39.0513 89.6658C41.3046 91.4012 42.418 93.4462 42.972 95.0535C43.2496 95.8592 43.3862 96.5539 43.4531 97.0406C43.4865 97.2836 43.5024 97.4736 43.51 97.5983C43.5138 97.6606 43.5155 97.7064 43.5162 97.7342C43.5166 97.7481 43.5168 97.7575 43.5168 97.7622C43.5168 97.7645 43.5168 97.7657 43.5168 97.7656C43.5168 97.7656 43.5168 97.7653 43.5168 97.7647C43.5168 97.7644 43.5168 97.764 43.5168 97.7635C43.5168 97.7633 43.5168 97.7629 43.5168 97.7627C43.5169 97.7623 43.5169 97.7619 44.5168 97.7657C45.5168 97.7696 45.5168 97.7691 45.5168 97.7686C45.5168 97.7684 45.5168 97.7679 45.5168 97.7675C45.5168 97.7667 45.5168 97.7659 45.5168 97.7649C45.5168 97.7631 45.5168 97.7609 45.5168 97.7584C45.5168 97.7533 45.5168 97.7471 45.5167 97.7396C45.5165 97.7246 45.5162 97.7047 45.5155 97.68C45.5142 97.6308 45.5115 97.5625 45.5063 97.477C45.496 97.306 45.4753 97.0654 45.4344 96.7681C45.3528 96.1742 45.1896 95.3499 44.8628 94.4018C44.2079 92.5017 42.8936 90.1006 40.2717 88.0812L39.0513 89.6658ZM45.36 97.2281C42.1036 92.1208 38.7671 89.5902 36.1729 88.3472C34.88 87.7276 33.7849 87.4344 32.9955 87.2974C32.6012 87.229 32.284 87.1997 32.0571 87.1879C31.9437 87.182 31.8529 87.1805 31.7863 87.1806C31.753 87.1807 31.7258 87.1812 31.7048 87.1819C31.6943 87.1822 31.6854 87.1825 31.6781 87.1828C31.6744 87.1829 31.6712 87.1831 31.6683 87.1832C31.6669 87.1833 31.6655 87.1834 31.6643 87.1834C31.6637 87.1834 31.6628 87.1835 31.6625 87.1835C31.6617 87.1836 31.6609 87.1836 31.7149 88.1821C31.7689 89.1807 31.7681 89.1807 31.7674 89.1808C31.7672 89.1808 31.7665 89.1808 31.7661 89.1808C31.7652 89.1809 31.7645 89.1809 31.7638 89.1809C31.7625 89.181 31.7616 89.181 31.7611 89.1811C31.76 89.1811 31.7605 89.1811 31.7624 89.181C31.7663 89.1809 31.7762 89.1807 31.7918 89.1806C31.8231 89.1805 31.8774 89.1812 31.9533 89.1852C32.1049 89.193 32.3425 89.214 32.6535 89.268C33.275 89.3758 34.1928 89.6161 35.3087 90.1508C37.5322 91.2162 40.5966 93.4774 43.6737 98.3034L45.36 97.2281ZM30.7149 88.1791L30.6235 117.891L32.6235 117.898L32.7149 88.1852L30.7149 88.1791ZM30.6235 117.887C30.6084 119.788 28.8212 121.941 25.8643 122.673L26.3449 124.615C29.8724 123.741 32.5988 121.007 32.6235 117.902L30.6235 117.887ZM25.8588 122.674C24.2337 123.086 22.5755 122.901 21.3009 122.341C20.003 121.771 19.2658 120.899 19.1297 120.042L17.1545 120.356C17.4356 122.126 18.8379 123.443 20.4962 124.172C22.1778 124.911 24.2922 125.135 26.3503 124.613L25.8588 122.674Z" fill="url(#paint4_linear)" mask="url(#path-5-inside-1)"/>
</g>
<defs>
<filter id="filter0_b" x="7.37695" y="70" width="47.1815" height="64.3809" filterUnits="userSpaceOnUse" color-interpolation-filters="sRGB">
<feFlood flood-opacity="0" result="BackgroundImageFix"/>
<feGaussianBlur in="BackgroundImage" stdDeviation="5"/>
<feComposite in2="SourceAlpha" operator="in" result="effect1_backgroundBlur"/>
<feBlend mode="normal" in="SourceGraphic" in2="effect1_backgroundBlur" result="shape"/>
</filter>
<filter id="filter1_b" x="-10" y="66" width="75.9401" height="75.9361" filterUnits="userSpaceOnUse" color-interpolation-filters="sRGB">
<feFlood flood-opacity="0" result="BackgroundImageFix"/>
<feGaussianBlur in="BackgroundImage" stdDeviation="5"/>
<feComposite in2="SourceAlpha" operator="in" result="effect1_backgroundBlur"/>
<feBlend mode="normal" in="SourceGraphic" in2="effect1_backgroundBlur" result="shape"/>
</filter>
<linearGradient id="paint0_linear" x1="100" y1="39" x2="40.8061" y2="139.71" gradientUnits="userSpaceOnUse">
<stop offset="0.0876891" stop-color="#FEBD2F"/>
<stop offset="0.248726" stop-color="#F95721"/>
<stop offset="0.502913" stop-color="#FC1370"/>
<stop offset="0.671875" stop-color="#BA2DB2"/>
<stop offset="0.776042" stop-color="#8342E9"/>
<stop offset="0.963542" stop-color="#3F89FC"/>
</linearGradient>
<linearGradient id="paint1_linear" x1="142" y1="81.1518" x2="-1.12767" y2="81.9888" gradientUnits="userSpaceOnUse">
<stop stop-color="#FEBD2F"/>
<stop offset="0.248726" stop-color="#F95721"/>
<stop offset="0.502913" stop-color="#FC1370"/>
<stop offset="0.671875" stop-color="#BA2DB2"/>
<stop offset="0.776042" stop-color="#8342E9"/>
<stop offset="0.963542" stop-color="#3F89FC"/>
</linearGradient>
<linearGradient id="paint2_linear" x1="102" y1="91.7768" x2="39.0631" y2="92.0073" gradientUnits="userSpaceOnUse">
<stop stop-color="#FEBD2F"/>
<stop offset="0.248726" stop-color="#F95721"/>
<stop offset="0.502913" stop-color="#FC1370"/>
<stop offset="0.671875" stop-color="#BA2DB2"/>
<stop offset="0.776042" stop-color="#8342E9"/>
<stop offset="0.963542" stop-color="#3F89FC"/>
</linearGradient>
<linearGradient id="paint3_linear" x1="1.09626e-08" y1="107.797" x2="56.7842" y2="108.129" gradientUnits="userSpaceOnUse">
<stop stop-color="#FEBD2F"/>
<stop offset="0.248726" stop-color="#F95721"/>
<stop offset="0.502913" stop-color="#FC1370"/>
<stop offset="0.671875" stop-color="#BA2DB2"/>
<stop offset="0.776042" stop-color="#8342E9"/>
<stop offset="0.963542" stop-color="#3F89FC"/>
</linearGradient>
<linearGradient id="paint4_linear" x1="1.09626e-08" y1="107.797" x2="56.7842" y2="108.129" gradientUnits="userSpaceOnUse">
<stop stop-color="#FEBD2F"/>
<stop offset="0.248726" stop-color="#F95721"/>
<stop offset="0.502913" stop-color="#FC1370"/>
<stop offset="0.671875" stop-color="#BA2DB2"/>
<stop offset="0.776042" stop-color="#8342E9"/>
<stop offset="0.963542" stop-color="#3F89FC"/>
</linearGradient>
</defs>
</svg>
