<svg width="471" height="832" viewBox="0 0 471 832" fill="none" xmlns="http://www.w3.org/2000/svg">
<path d="M350.706 255.625H351.028C351.028 255.567 351.012 255.51 350.982 255.459L350.706 255.625ZM268.933 327.696L268.724 327.94C268.807 328.012 268.921 328.036 269.026 328.004C269.131 327.973 269.213 327.89 269.243 327.784L268.933 327.696ZM350.706 280.573L350.984 280.735L351.028 280.66V280.573H350.706ZM259.232 319.38H258.909V319.528L259.022 319.625L259.232 319.38ZM259.232 297.204L258.922 297.116L258.909 297.159V297.204H259.232ZM342.39 241.767L342.666 241.601C342.608 241.504 342.502 241.444 342.388 241.445C342.274 241.446 342.169 241.506 342.112 241.605L342.39 241.767ZM269.243 304.223C270.111 301.185 275.66 294.755 291.109 294.755V294.11C275.512 294.11 269.603 300.616 268.624 304.046L269.243 304.223ZM291.109 294.755C298.945 294.755 303.209 292.301 305.675 289.085C308.117 285.899 308.755 282.001 309.439 279.265L308.814 279.108C308.112 281.917 307.503 285.641 305.163 288.692C302.848 291.713 298.796 294.11 291.109 294.11V294.755ZM309.439 279.265C310.134 276.483 311.23 272.328 313.637 269.413C314.834 267.963 316.347 266.831 318.29 266.323C320.235 265.815 322.645 265.924 325.648 267.016L325.868 266.41C322.773 265.285 320.228 265.151 318.128 265.699C316.026 266.248 314.403 267.472 313.14 269.002C310.627 272.047 309.505 276.346 308.814 279.108L309.439 279.265ZM325.648 267.016C331.859 269.274 337.39 267.858 341.761 265.186C346.123 262.52 349.346 258.596 350.984 255.788L350.427 255.463C348.832 258.198 345.679 262.036 341.425 264.636C337.18 267.231 331.854 268.587 325.868 266.41L325.648 267.016ZM269.243 327.784C269.671 326.286 271.248 324.267 274.686 322.616C278.118 320.968 283.38 319.702 291.109 319.702V319.058C283.315 319.058 277.951 320.333 274.407 322.035C270.869 323.733 269.119 325.871 268.624 327.607L269.243 327.784ZM291.109 319.702C298.945 319.702 303.209 317.249 305.675 314.032C308.117 310.847 308.755 306.948 309.439 304.212L308.814 304.056C308.112 306.864 307.503 310.589 305.163 313.64C302.848 316.661 298.796 319.058 291.109 319.058V319.702ZM309.439 304.212C310.134 301.431 311.23 297.276 313.637 294.36C314.834 292.911 316.347 291.778 318.29 291.271C320.235 290.763 322.645 290.871 325.648 291.963L325.868 291.358C322.773 290.232 320.228 290.098 318.128 290.647C316.026 291.196 314.403 292.42 313.14 293.95C310.627 296.994 309.505 301.293 308.814 304.056L309.439 304.212ZM325.648 291.963C331.859 294.222 337.39 292.805 341.761 290.134C346.123 287.467 349.346 283.544 350.984 280.735L350.427 280.411C348.832 283.146 345.679 286.984 341.425 289.584C337.18 292.179 331.854 293.534 325.868 291.358L325.648 291.963ZM268.611 304.134V327.696H269.256V304.134H268.611ZM350.383 255.625V280.573H351.028V255.625H350.383ZM269.143 327.451L259.441 319.135L259.022 319.625L268.724 327.94L269.143 327.451ZM259.554 319.38V297.204H258.909V319.38H259.554ZM259.044 297.467L268.746 304.396L269.121 303.872L259.419 296.942L259.044 297.467ZM259.541 297.293C260.409 294.255 265.958 287.826 281.407 287.826V287.182C265.811 287.182 259.902 293.686 258.922 297.116L259.541 297.293ZM281.407 287.826C289.243 287.826 293.507 285.373 295.973 282.156C298.415 278.971 299.053 275.072 299.737 272.337L299.112 272.18C298.41 274.989 297.801 278.713 295.462 281.764C293.146 284.785 289.094 287.182 281.407 287.182V287.826ZM299.737 272.337C300.433 269.555 301.528 265.4 303.935 262.485C305.132 261.035 306.645 259.903 308.589 259.395C310.534 258.887 312.943 258.995 315.946 260.088L316.167 259.482C313.072 258.356 310.526 258.223 308.426 258.771C306.324 259.32 304.702 260.544 303.438 262.074C300.925 265.119 299.803 269.418 299.112 272.18L299.737 272.337ZM315.946 260.088C322.223 262.37 328.126 259.141 332.805 254.753C337.494 250.355 341.047 244.709 342.668 241.929L342.112 241.605C340.499 244.369 336.984 249.95 332.364 254.283C327.733 258.627 322.086 261.634 316.167 259.482L315.946 260.088ZM342.114 241.933L350.429 255.791L350.982 255.459L342.666 241.601L342.114 241.933Z" fill="url(#paint0_linear)"/>
<path d="M392.739 645.295L393.012 645.466C393.043 645.417 393.06 645.36 393.061 645.301L392.739 645.295ZM258.277 667.293L257.97 667.389C258.002 667.494 258.086 667.575 258.192 667.604C258.298 667.633 258.411 667.606 258.493 667.533L258.277 667.293ZM376.167 671.712L376.317 671.997L376.394 671.957L376.44 671.883L376.167 671.712ZM253.528 652.043L253.255 651.872L253.176 651.998L253.22 652.139L253.528 652.043ZM268.258 628.561L268.042 628.322L268.009 628.352L267.985 628.39L268.258 628.561ZM393.138 625.097L393.461 625.103C393.463 624.989 393.405 624.882 393.308 624.822C393.211 624.763 393.09 624.758 392.989 624.811L393.138 625.097ZM274.143 642.583C277.119 639.909 287.308 636.802 303.683 647.074L304.025 646.528C287.526 636.177 276.991 639.157 273.713 642.104L274.143 642.583ZM303.683 647.074C311.965 652.269 318.083 652.495 322.802 650.738C327.484 648.994 330.735 645.306 333.283 642.857L332.837 642.393C330.235 644.894 327.101 648.449 322.577 650.134C318.09 651.805 312.181 651.644 304.025 646.528L303.683 647.074ZM333.283 642.857C335.865 640.376 339.798 636.69 344.303 635.195C346.545 634.451 348.917 634.254 351.332 635.014C353.749 635.774 356.24 637.501 358.703 640.662L359.211 640.266C356.689 637.028 354.095 635.207 351.526 634.399C348.955 633.591 346.442 633.806 344.1 634.583C339.436 636.131 335.405 639.924 332.837 642.393L333.283 642.857ZM358.703 640.662C363.761 647.156 370.533 649.323 376.917 649.397C383.292 649.471 389.297 647.461 392.888 645.58L392.589 645.009C389.073 646.851 383.173 648.825 376.925 648.752C370.687 648.68 364.122 646.57 359.211 640.266L358.703 640.662ZM258.493 667.533C259.964 666.21 263.001 665.118 267.752 665.655C272.497 666.192 278.92 668.352 287.111 673.491L287.454 672.945C279.208 667.772 272.692 665.565 267.825 665.015C262.964 664.465 259.717 665.566 258.062 667.054L258.493 667.533ZM287.111 673.491C295.393 678.686 301.512 678.912 306.231 677.155C310.913 675.411 314.164 671.724 316.712 669.275L316.265 668.81C313.663 671.311 310.53 674.866 306.006 676.551C301.518 678.222 295.609 678.061 287.454 672.945L287.111 673.491ZM316.712 669.275C319.294 666.793 323.227 663.107 327.731 661.612C329.974 660.868 332.346 660.672 334.761 661.431C337.177 662.191 339.669 663.918 342.131 667.079L342.64 666.683C340.118 663.445 337.524 661.624 334.954 660.816C332.384 660.008 329.87 660.223 327.528 661C322.865 662.548 318.833 666.342 316.265 668.81L316.712 669.275ZM342.131 667.079C347.19 673.573 353.961 675.74 360.346 675.814C366.72 675.888 372.726 673.878 376.317 671.997L376.018 671.426C372.502 673.268 366.601 675.242 360.353 675.169C354.116 675.097 347.55 672.987 342.64 666.683L342.131 667.079ZM273.655 642.173L258.004 667.122L258.55 667.465L274.201 642.515L273.655 642.173ZM392.466 645.124L375.894 671.541L376.44 671.883L393.012 645.466L392.466 645.124ZM258.585 667.197L253.835 651.947L253.22 652.139L257.97 667.389L258.585 667.197ZM253.801 652.214L268.531 628.733L267.985 628.39L253.255 651.872L253.801 652.214ZM267.96 628.684L273.63 642.466L274.226 642.221L268.556 628.439L267.96 628.684ZM268.473 628.801C271.448 626.127 281.637 623.021 298.012 633.293L298.354 632.747C281.855 622.397 271.32 625.375 268.042 628.322L268.473 628.801ZM298.012 633.293C306.293 638.488 312.412 638.714 317.131 636.957C321.813 635.213 325.064 631.526 327.612 629.077L327.165 628.612C324.563 631.113 321.43 634.669 316.906 636.353C312.419 638.024 306.51 637.863 298.354 632.747L298.012 633.293ZM327.612 629.077C330.194 626.595 334.127 622.909 338.632 621.414C340.874 620.67 343.246 620.474 345.661 621.233C348.077 621.993 350.569 623.72 353.031 626.881L353.54 626.485C351.018 623.248 348.424 621.427 345.855 620.619C343.284 619.81 340.771 620.026 338.429 620.803C333.765 622.35 329.734 626.144 327.165 628.612L327.612 629.077ZM353.031 626.881C358.133 633.431 366.487 633.939 374.347 632.401C382.222 630.861 389.727 627.247 393.288 625.382L392.989 624.811C389.443 626.668 382.006 630.247 374.223 631.769C366.426 633.294 358.407 632.734 353.54 626.485L353.031 626.881ZM392.816 625.09L392.417 645.288L393.061 645.301L393.461 625.103L392.816 625.09Z" fill="url(#paint1_linear)"/>
<path d="M261.498 537.893L261.953 538.178C262.004 538.096 262.033 538.001 262.035 537.903L261.498 537.893ZM153.928 555.492L153.416 555.651C153.47 555.826 153.61 555.961 153.786 556.009C153.962 556.058 154.151 556.013 154.287 555.891L153.928 555.492ZM248.24 559.026L248.49 559.502L248.618 559.435L248.695 559.312L248.24 559.026ZM150.129 543.292L149.674 543.006L149.542 543.215L149.616 543.451L150.129 543.292ZM161.913 524.506L161.554 524.107L161.498 524.157L161.458 524.221L161.913 524.506ZM261.817 521.734L262.354 521.745C262.358 521.555 262.261 521.377 262.1 521.277C261.938 521.178 261.736 521.17 261.568 521.258L261.817 521.734ZM166.808 535.931C169.057 533.91 177.059 531.369 190.104 539.552L190.675 538.642C177.421 530.328 168.844 532.657 166.09 535.133L166.808 535.931ZM190.104 539.552C196.785 543.743 201.771 543.952 205.646 542.509C209.46 541.088 212.111 538.081 214.127 536.144L213.382 535.37C211.277 537.393 208.821 540.18 205.271 541.502C201.781 542.802 197.145 542.701 190.675 538.642L190.104 539.552ZM214.127 536.144C216.198 534.153 219.302 531.251 222.837 530.078C224.588 529.497 226.424 529.348 228.289 529.934C230.155 530.522 232.104 531.863 234.048 534.358L234.896 533.698C232.852 531.075 230.733 529.577 228.611 528.91C226.487 528.242 224.415 528.423 222.499 529.059C218.699 530.319 215.431 533.401 213.382 535.37L214.127 536.144ZM234.048 534.358C238.159 539.635 243.666 541.394 248.837 541.454C253.992 541.513 258.841 539.89 261.747 538.368L261.248 537.417C258.468 538.873 253.793 540.437 248.85 540.38C243.923 540.322 238.76 538.659 234.896 533.698L234.048 534.358ZM154.287 555.891C155.385 554.904 157.723 554.034 161.477 554.458C165.219 554.882 170.318 556.59 176.847 560.686L177.418 559.776C170.797 555.623 165.545 553.838 161.598 553.391C157.662 552.946 154.973 553.83 153.569 555.092L154.287 555.891ZM176.847 560.686C183.527 564.876 188.513 565.085 192.389 563.642C196.203 562.222 198.854 559.215 200.87 557.278L200.125 556.503C198.02 558.527 195.564 561.314 192.014 562.636C188.524 563.935 183.888 563.835 177.418 559.776L176.847 560.686ZM200.87 557.278C202.941 555.287 206.045 552.385 209.58 551.212C211.331 550.631 213.167 550.482 215.032 551.068C216.898 551.655 218.847 552.996 220.791 555.492L221.639 554.832C219.595 552.208 217.476 550.711 215.354 550.044C213.23 549.376 211.158 549.556 209.241 550.192C205.441 551.453 202.174 554.535 200.125 556.503L200.87 557.278ZM220.791 555.492C224.902 560.769 230.409 562.527 235.58 562.587C240.734 562.647 245.584 561.024 248.49 559.502L247.991 558.551C245.211 560.007 240.536 561.571 235.593 561.513C230.666 561.456 225.503 559.793 221.639 554.832L220.791 555.492ZM165.994 535.247L153.473 555.206L154.383 555.777L166.904 535.817L165.994 535.247ZM261.043 537.607L247.785 558.741L248.695 559.312L261.953 538.178L261.043 537.607ZM154.441 555.332L150.641 543.132L149.616 543.451L153.416 555.651L154.441 555.332ZM150.584 543.577L162.368 524.792L161.458 524.221L149.674 543.006L150.584 543.577ZM161.416 524.71L165.952 535.736L166.946 535.328L162.409 524.302L161.416 524.71ZM162.272 524.906C164.521 522.884 172.522 520.344 185.567 528.528L186.138 527.618C172.885 519.304 164.307 521.631 161.554 524.107L162.272 524.906ZM185.567 528.528C192.248 532.718 197.234 532.927 201.109 531.484C204.923 530.064 207.574 527.057 209.59 525.12L208.845 524.345C206.74 526.368 204.284 529.156 200.734 530.478C197.244 531.777 192.608 531.676 186.138 527.618L185.567 528.528ZM209.59 525.12C211.661 523.129 214.765 520.226 218.3 519.053C220.051 518.472 221.887 518.324 223.752 518.91C225.618 519.497 227.567 520.838 229.511 523.334L230.359 522.674C228.315 520.05 226.196 518.553 224.074 517.885C221.95 517.217 219.878 517.398 217.962 518.034C214.162 519.295 210.894 522.376 208.845 524.345L209.59 525.12ZM229.511 523.334C233.694 528.703 240.522 529.087 246.838 527.852C253.179 526.612 259.211 523.706 262.066 522.21L261.568 521.258C258.738 522.74 252.817 525.588 246.632 526.798C240.422 528.013 234.151 527.543 230.359 522.674L229.511 523.334ZM261.28 521.724L260.961 537.882L262.035 537.903L262.354 521.745L261.28 521.724Z" fill="url(#paint2_linear)"/>
<path d="M116.788 393.183L117.061 393.354C117.092 393.305 117.109 393.248 117.11 393.189L116.788 393.183ZM9.21857 410.782L8.91092 410.878C8.94355 410.982 9.0273 411.063 9.13315 411.093C9.23899 411.122 9.35236 411.095 9.434 411.021L9.21857 410.782ZM103.531 414.317L103.68 414.602L103.757 414.562L103.804 414.488L103.531 414.317ZM5.41898 398.582L5.14601 398.411L5.06726 398.536L5.11133 398.678L5.41898 398.582ZM17.203 379.796L16.9876 379.557L16.954 379.587L16.9301 379.625L17.203 379.796ZM117.108 377.024L117.43 377.031C117.432 376.917 117.374 376.81 117.277 376.75C117.18 376.69 117.059 376.686 116.958 376.739L117.108 377.024ZM21.9546 391.062C24.3044 388.949 32.4215 386.451 45.5089 394.661L45.8514 394.115C32.6392 385.827 24.1765 388.198 21.5238 390.583L21.9546 391.062ZM45.5089 394.661C52.1469 398.825 57.063 399.012 60.861 397.598C64.6227 396.197 67.2349 393.234 69.2681 391.28L68.8215 390.815C66.7345 392.821 64.2393 395.652 60.6361 396.994C57.0693 398.322 52.3631 398.2 45.8514 394.115L45.5089 394.661ZM69.2681 391.28C71.3351 389.293 74.4714 386.355 78.0594 385.164C79.8435 384.572 81.727 384.417 83.6434 385.02C85.561 385.623 87.5443 386.995 89.5081 389.517L90.0166 389.12C87.9929 386.523 85.9077 385.056 83.8368 384.405C81.7648 383.753 79.7399 383.928 77.8565 384.553C74.1095 385.796 70.8747 388.842 68.8215 390.815L69.2681 391.28ZM89.5081 389.517C93.5696 394.73 99.0076 396.47 104.13 396.529C109.242 396.588 114.057 394.977 116.937 393.468L116.638 392.898C113.833 394.367 109.123 395.942 104.137 395.885C99.1622 395.827 93.9303 394.145 90.0166 389.12L89.5081 389.517ZM9.434 411.021C10.5927 409.98 13.0013 409.107 16.7914 409.535C20.5746 409.963 25.7044 411.687 32.2517 415.794L32.5942 415.248C25.9918 411.107 20.7701 409.337 16.8638 408.895C12.9644 408.454 10.3457 409.335 9.00315 410.542L9.434 411.021ZM32.2517 415.794C38.8898 419.958 43.8058 420.146 47.6039 418.731C51.3655 417.331 53.9778 414.367 56.0109 412.413L55.5644 411.949C53.4773 413.955 50.9822 416.786 47.379 418.128C43.8122 419.456 39.1059 419.333 32.5942 415.248L32.2517 415.794ZM56.0109 412.413C58.0779 410.427 61.2143 407.489 64.8023 406.298C66.5863 405.706 68.4699 405.551 70.3863 406.154C72.3038 406.757 74.2871 408.129 76.251 410.65L76.7594 410.254C74.7357 407.656 72.6506 406.19 70.5797 405.539C68.5076 404.887 66.4828 405.061 64.5993 405.686C60.8524 406.93 57.6175 409.975 55.5644 411.949L56.0109 412.413ZM76.251 410.65C80.3124 415.864 85.7505 417.603 90.8728 417.663C95.985 417.722 100.8 416.111 103.68 414.602L103.381 414.031C100.576 415.501 95.8658 417.076 90.8803 417.018C85.9051 416.961 80.6732 415.279 76.7594 410.254L76.251 410.65ZM21.4662 390.651L8.9456 410.611L9.49154 410.953L22.0122 390.993L21.4662 390.651ZM116.515 393.012L103.258 414.145L103.804 414.488L117.061 393.354L116.515 393.012ZM9.52623 410.686L5.72664 398.486L5.11133 398.678L8.91092 410.878L9.52623 410.686ZM5.69195 398.753L17.476 379.968L16.9301 379.625L5.14601 398.411L5.69195 398.753ZM16.905 379.919L21.4412 390.945L22.0372 390.7L17.501 379.674L16.905 379.919ZM17.4185 380.036C19.7682 377.924 27.8845 375.426 40.9719 383.636L41.3144 383.09C28.1022 374.802 19.6403 377.172 16.9876 379.557L17.4185 380.036ZM40.9719 383.636C47.6099 387.8 52.526 387.987 56.324 386.573C60.0857 385.173 62.6979 382.209 64.7311 380.255L64.2845 379.79C62.1975 381.796 59.7023 384.628 56.0991 385.969C52.5323 387.297 47.8261 387.175 41.3144 383.09L40.9719 383.636ZM64.7311 380.255C66.7981 378.268 69.9345 375.33 73.5225 374.14C75.3065 373.548 77.19 373.393 79.1065 373.995C81.024 374.598 83.0073 375.971 84.9712 378.492L85.4796 378.096C83.4559 375.498 81.3707 374.032 79.2998 373.381C77.2278 372.729 75.2029 372.903 73.3195 373.528C69.5725 374.772 66.3377 377.817 64.2845 379.79L64.7311 380.255ZM84.9712 378.492C89.0757 383.761 95.7922 384.163 102.087 382.931C108.397 381.697 114.406 378.803 117.257 377.31L116.958 376.739C114.123 378.224 108.18 381.083 101.963 382.299C95.732 383.518 89.3502 383.065 85.4796 378.096L84.9712 378.492ZM116.785 377.018L116.466 393.177L117.11 393.189L117.43 377.031L116.785 377.018Z" fill="url(#paint3_linear)"/>
<path d="M263.794 18.3227H264.117C264.117 18.2643 264.101 18.207 264.071 18.1569L263.794 18.3227ZM161.579 108.411L161.369 108.656C161.453 108.727 161.567 108.751 161.672 108.719C161.777 108.688 161.859 108.605 161.889 108.499L161.579 108.411ZM263.794 49.5073L264.073 49.6697L264.117 49.5944V49.5073H263.794ZM149.452 98.0161H149.13V98.1643L149.242 98.2608L149.452 98.0161ZM149.452 70.2967L149.142 70.2081L149.13 70.2515V70.2967H149.452ZM253.4 1L253.676 0.834199C253.617 0.736538 253.512 0.677068 253.398 0.677774C253.284 0.678479 253.179 0.739256 253.121 0.837635L253.4 1ZM161.889 79.0473C162.988 75.2007 169.969 67.1538 189.298 67.1538V66.5093C169.821 66.5093 162.48 74.632 161.269 78.8703L161.889 79.0473ZM189.298 67.1538C199.075 67.1538 204.378 64.0937 207.442 60.0978C210.482 56.1327 211.276 51.2814 212.133 47.8526L211.508 47.6963C210.633 51.1976 209.867 55.8748 206.93 59.7057C204.017 63.5058 198.926 66.5093 189.298 66.5093V67.1538ZM212.133 47.8526C213.002 44.3782 214.374 39.166 217.396 35.5057C218.901 33.6838 220.806 32.2568 223.255 31.6169C225.706 30.9768 228.734 31.1157 232.5 32.4851L232.72 31.8794C228.863 30.4768 225.698 30.3126 223.092 30.9934C220.485 31.6745 218.47 33.1927 216.899 35.0954C213.771 38.8848 212.372 44.2405 211.508 47.6963L212.133 47.8526ZM232.5 32.4851C240.236 35.2981 247.124 33.5351 252.572 30.2051C258.011 26.8804 262.03 21.9866 264.073 18.4851L263.516 18.1604C261.516 21.5887 257.566 26.3966 252.235 29.6552C246.913 32.9084 240.23 34.6103 232.72 31.8794L232.5 32.4851ZM161.889 108.499C162.432 106.597 164.425 104.058 168.735 101.988C173.039 99.9215 179.629 98.3383 189.298 98.3383V97.6939C179.564 97.6939 172.872 99.2869 168.456 101.407C164.046 103.524 161.881 106.182 161.269 108.322L161.889 108.499ZM189.298 98.3383C199.075 98.3383 204.378 95.2783 207.442 91.2824C210.482 87.3173 211.276 82.4659 212.133 79.0371L211.508 78.8808C210.633 82.3821 209.867 87.0593 206.93 90.8903C204.017 94.6904 198.926 97.6939 189.298 97.6939V98.3383ZM212.133 79.0371C213.002 75.5628 214.374 70.3505 217.396 66.6903C218.901 64.8683 220.806 63.4414 223.255 62.8015C225.706 62.1613 228.734 62.3003 232.5 63.6696L232.72 63.064C228.863 61.6614 225.698 61.4972 223.092 62.178C220.485 62.8591 218.47 64.3772 216.899 66.28C213.771 70.0694 212.372 75.4251 211.508 78.8808L212.133 79.0371ZM232.5 63.6696C240.236 66.4827 247.124 64.7196 252.572 61.3896C258.011 58.0649 262.03 53.1711 264.073 49.6697L263.516 49.3449C261.516 52.7733 257.566 57.5812 252.235 60.8397C246.913 64.093 240.23 65.7949 232.72 63.064L232.5 63.6696ZM161.257 78.9588V108.411H161.901V78.9588H161.257ZM263.472 18.3227V49.5073H264.117V18.3227H263.472ZM161.789 108.166L149.661 97.7714L149.242 98.2608L161.369 108.656L161.789 108.166ZM149.774 98.0161V70.2967H149.13V98.0161H149.774ZM149.264 70.5589L161.392 79.221L161.766 78.6966L149.639 70.0345L149.264 70.5589ZM149.762 70.3852C150.861 66.5386 157.841 58.4936 177.171 58.4936V57.8491C157.694 57.8491 150.353 65.9699 149.142 70.2081L149.762 70.3852ZM177.171 58.4936C186.948 58.4936 192.251 55.4335 195.315 51.4376C198.355 47.4725 199.149 42.6212 200.006 39.1924L199.381 39.0361C198.505 42.5373 197.74 47.2146 194.803 51.0455C191.89 54.8456 186.798 57.8491 177.171 57.8491V58.4936ZM200.006 39.1924C200.874 35.718 202.247 30.5057 205.269 26.8455C206.773 25.0235 208.678 23.5966 211.128 22.9567C213.578 22.3165 216.607 22.4555 220.373 23.8249L220.593 23.2192C216.736 21.8166 213.571 21.6524 210.965 22.3332C208.358 23.0143 206.343 24.5325 204.772 26.4352C201.644 30.2246 200.245 35.5803 199.381 39.0361L200.006 39.1924ZM220.373 23.8249C228.174 26.6619 235.521 22.6531 241.363 17.1737C247.216 11.6839 251.652 4.63491 253.678 1.16236L253.121 0.837635C251.105 4.29487 246.706 11.2788 240.922 16.7036C235.127 22.1388 228.037 25.9261 220.593 23.2192L220.373 23.8249ZM253.123 1.1658L263.518 18.4885L264.071 18.1569L253.676 0.834199L253.123 1.1658Z" fill="url(#paint4_linear)"/>
<path d="M366.599 479.895C366.599 505.833 346.532 526.833 321.809 526.833C297.086 526.833 277.019 505.833 277.019 479.895C277.019 453.957 297.086 432.956 321.809 432.956C346.532 432.956 366.599 453.957 366.599 479.895Z" stroke="url(#paint5_linear)" stroke-width="0.644465"/>
<path d="M139.555 784.284C139.555 810.222 119.488 831.223 94.7645 831.223C70.0415 831.223 49.9742 810.222 49.9742 784.284C49.9742 758.346 70.0415 737.346 94.7645 737.346C119.488 737.346 139.555 758.346 139.555 784.284Z" stroke="url(#paint6_linear)" stroke-width="0.644465"/>
<path d="M196.64 210.092H196.963C196.963 210.034 196.947 209.976 196.917 209.926L196.64 210.092ZM133.268 265.946L133.058 266.19C133.142 266.262 133.256 266.286 133.361 266.254C133.466 266.223 133.548 266.14 133.578 266.034L133.268 265.946ZM196.64 229.426L196.919 229.588L196.963 229.513V229.426H196.64ZM125.749 259.501H125.427V259.649L125.54 259.746L125.749 259.501ZM125.749 242.315L125.439 242.227L125.427 242.27V242.315H125.749ZM190.196 199.352L190.472 199.186C190.413 199.089 190.308 199.029 190.194 199.03C190.08 199.031 189.975 199.091 189.917 199.19L190.196 199.352ZM133.578 247.774C134.238 245.464 138.497 240.489 150.454 240.489V239.845C138.35 239.845 133.73 244.895 132.958 247.597L133.578 247.774ZM150.454 240.489C156.543 240.489 159.872 238.581 161.8 236.067C163.704 233.583 164.202 230.542 164.73 228.43L164.105 228.274C163.558 230.458 163.09 233.325 161.288 235.674C159.51 237.993 156.394 239.845 150.454 239.845V240.489ZM164.73 228.43C165.269 226.272 166.115 223.068 167.969 220.823C168.888 219.709 170.049 218.842 171.537 218.453C173.027 218.064 174.879 218.145 177.196 218.988L177.417 218.382C175.008 217.506 173.02 217.399 171.375 217.829C169.728 218.259 168.458 219.218 167.472 220.413C165.512 222.787 164.639 226.135 164.105 228.274L164.73 228.43ZM177.196 218.988C182.035 220.747 186.345 219.642 189.746 217.563C193.139 215.49 195.644 212.439 196.919 210.254L196.362 209.93C195.13 212.041 192.695 215.006 189.41 217.013C186.134 219.016 182.03 220.059 177.417 218.382L177.196 218.988ZM133.578 266.034C133.902 264.9 135.104 263.348 137.758 262.074C140.405 260.803 144.471 259.823 150.454 259.823V259.179C144.406 259.179 140.238 260.168 137.479 261.493C134.726 262.815 133.35 264.485 132.958 265.857L133.578 266.034ZM150.454 259.823C156.543 259.823 159.872 257.915 161.8 255.401C163.704 252.917 164.202 249.876 164.73 247.764L164.105 247.608C163.558 249.792 163.09 252.659 161.288 255.009C159.51 257.327 156.394 259.179 150.454 259.179V259.823ZM164.73 247.764C165.269 245.606 166.115 242.402 167.969 240.157C168.888 239.043 170.049 238.176 171.537 237.787C173.027 237.398 174.879 237.479 177.196 238.322L177.417 237.716C175.008 236.84 173.02 236.733 171.375 237.163C169.728 237.593 168.458 238.552 167.472 239.747C165.512 242.121 164.639 245.469 164.105 247.608L164.73 247.764ZM177.196 238.322C182.035 240.081 186.345 238.977 189.746 236.897C193.139 234.824 195.644 231.773 196.919 229.588L196.362 229.264C195.13 231.375 192.695 234.34 189.41 236.348C186.134 238.35 182.03 239.393 177.417 237.716L177.196 238.322ZM132.946 247.686V265.946H133.59V247.686H132.946ZM196.318 210.092V229.426H196.963V210.092H196.318ZM133.478 265.701L125.959 259.256L125.54 259.746L133.058 266.19L133.478 265.701ZM126.072 259.501V242.315H125.427V259.501H126.072ZM125.562 242.577L133.081 247.948L133.455 247.423L125.937 242.053L125.562 242.577ZM126.059 242.404C126.719 240.093 130.979 235.12 142.935 235.12V234.475C130.831 234.475 126.211 239.525 125.439 242.227L126.059 242.404ZM142.935 235.12C149.025 235.12 152.353 233.212 154.281 230.697C156.185 228.213 156.683 225.173 157.211 223.061L156.586 222.904C156.04 225.089 155.571 227.956 153.769 230.305C151.992 232.624 148.875 234.475 142.935 234.475V235.12ZM157.211 223.061C157.75 220.903 158.597 217.699 160.45 215.454C161.37 214.34 162.53 213.472 164.019 213.083C165.508 212.694 167.36 212.776 169.678 213.618L169.898 213.013C167.489 212.137 165.501 212.03 163.856 212.46C162.209 212.89 160.939 213.849 159.953 215.044C157.993 217.418 157.121 220.765 156.586 222.904L157.211 223.061ZM169.678 213.618C174.583 215.402 179.186 212.874 182.817 209.469C186.459 206.053 189.217 201.67 190.474 199.514L189.917 199.19C188.669 201.33 185.949 205.648 182.376 208.999C178.792 212.36 174.445 214.666 169.898 213.013L169.678 213.618ZM189.919 199.518L196.364 210.258L196.917 209.926L190.472 199.186L189.919 199.518Z" fill="url(#paint7_linear)"/>
<path d="M247.788 732.793H248.11C248.11 732.735 248.094 732.678 248.064 732.628L247.788 732.793ZM184.415 788.647L184.206 788.892C184.289 788.963 184.403 788.987 184.508 788.956C184.613 788.924 184.695 788.841 184.725 788.736L184.415 788.647ZM247.788 752.127L248.066 752.29L248.11 752.215V752.127H247.788ZM176.897 782.202H176.574V782.351L176.687 782.447L176.897 782.202ZM176.897 765.017L176.587 764.928L176.574 764.972V765.017H176.897ZM241.343 722.053L241.62 721.888C241.561 721.79 241.455 721.731 241.341 721.731C241.227 721.732 241.122 721.793 241.065 721.891L241.343 722.053ZM184.725 770.476C185.385 768.165 189.645 763.191 201.601 763.191V762.546C189.498 762.546 184.878 767.596 184.106 770.299L184.725 770.476ZM201.601 763.191C207.691 763.191 211.019 761.283 212.947 758.768C214.851 756.284 215.349 753.243 215.877 751.131L215.252 750.975C214.706 753.159 214.237 756.026 212.436 758.376C210.658 760.695 207.542 762.546 201.601 762.546V763.191ZM215.877 751.131C216.417 748.974 217.263 745.769 219.116 743.525C220.036 742.41 221.196 741.543 222.685 741.154C224.175 740.765 226.027 740.846 228.344 741.689L228.564 741.083C226.155 740.207 224.167 740.101 222.522 740.531C220.876 740.961 219.606 741.919 218.619 743.114C216.659 745.488 215.787 748.836 215.252 750.975L215.877 751.131ZM228.344 741.689C233.183 743.449 237.492 742.344 240.894 740.265C244.286 738.191 246.792 735.141 248.066 732.956L247.51 732.631C246.278 734.743 243.842 737.707 240.558 739.715C237.282 741.717 233.177 742.761 228.564 741.083L228.344 741.689ZM184.725 788.736C185.049 787.601 186.252 786.049 188.905 784.775C191.552 783.504 195.619 782.525 201.601 782.525V781.88C195.554 781.88 191.385 782.87 188.626 784.194C185.873 785.516 184.498 787.186 184.106 788.559L184.725 788.736ZM201.601 782.525C207.691 782.525 211.019 780.617 212.947 778.102C214.851 775.618 215.349 772.577 215.877 770.465L215.252 770.309C214.706 772.494 214.237 775.36 212.436 777.71C210.658 780.029 207.542 781.88 201.601 781.88V782.525ZM215.877 770.465C216.417 768.308 217.263 765.103 219.116 762.859C220.036 761.744 221.196 760.877 222.685 760.488C224.175 760.099 226.027 760.18 228.344 761.023L228.564 760.417C226.155 759.541 224.167 759.435 222.522 759.865C220.876 760.295 219.606 761.253 218.619 762.448C216.659 764.822 215.787 768.17 215.252 770.309L215.877 770.465ZM228.344 761.023C233.183 762.783 237.492 761.678 240.894 759.599C244.286 757.525 246.792 754.475 248.066 752.29L247.51 751.965C246.278 754.077 243.842 757.041 240.558 759.049C237.282 761.051 233.177 762.095 228.564 760.417L228.344 761.023ZM184.093 770.387V788.647H184.738V770.387H184.093ZM247.466 732.793V752.127H248.11V732.793H247.466ZM184.625 788.402L177.106 781.958L176.687 782.447L184.206 788.892L184.625 788.402ZM177.219 782.202V765.017H176.574V782.202H177.219ZM176.709 765.279L184.228 770.649L184.603 770.125L177.084 764.754L176.709 765.279ZM177.207 765.105C177.867 762.795 182.126 757.821 194.082 757.821V757.177C181.979 757.177 177.359 762.226 176.587 764.928L177.207 765.105ZM194.082 757.821C200.172 757.821 203.5 755.913 205.428 753.399C207.333 750.915 207.831 747.874 208.358 745.762L207.733 745.606C207.187 747.79 206.718 750.657 204.917 753.007C203.139 755.325 200.023 757.177 194.082 757.177V757.821ZM208.358 745.762C208.898 743.604 209.744 740.4 211.597 738.155C212.517 737.041 213.677 736.174 215.166 735.785C216.656 735.396 218.508 735.477 220.825 736.32L221.045 735.714C218.637 734.838 216.649 734.732 215.003 735.161C213.357 735.591 212.087 736.55 211.1 737.745C209.14 740.119 208.268 743.467 207.733 745.606L208.358 745.762ZM220.825 736.32C225.73 738.103 230.334 735.576 233.964 732.17C237.606 728.754 240.364 724.372 241.622 722.216L241.065 721.891C239.816 724.032 237.096 728.349 233.523 731.7C229.94 735.062 225.593 737.368 221.045 735.714L220.825 736.32ZM241.067 722.219L247.512 732.959L248.064 732.628L241.62 721.888L241.067 722.219Z" fill="url(#paint8_linear)"/>
<g filter="url(#filter0_b)">
<path d="M77.8662 158.459C77.8662 170.16 68.8158 179.619 57.6827 179.619C46.5497 179.619 37.4992 170.16 37.4992 158.459C37.4992 146.759 46.5497 137.3 57.6827 137.3C68.8158 137.3 77.8662 146.759 77.8662 158.459Z" stroke="url(#paint9_linear)" stroke-width="0.644465"/>
</g>
<g filter="url(#filter1_b)">
<path d="M206.358 652.468C206.358 664.169 197.308 673.628 186.175 673.628C175.042 673.628 165.991 664.169 165.991 652.468C165.991 640.768 175.042 631.308 186.175 631.308C197.308 631.308 206.358 640.768 206.358 652.468Z" stroke="url(#paint10_linear)" stroke-width="0.644465"/>
</g>
<g filter="url(#filter2_b)">
<path d="M94.0837 501.521C94.0837 513.222 85.0333 522.681 73.9002 522.681C62.7672 522.681 53.7168 513.222 53.7168 501.521C53.7168 489.821 62.7672 480.361 73.9002 480.361C85.0333 480.361 94.0837 489.821 94.0837 501.521Z" stroke="url(#paint11_linear)" stroke-width="0.644465"/>
</g>
<path d="M323.385 150.109C326.451 147.043 327.487 142.284 325.624 138.091C324.233 134.961 321.402 132.658 318.05 131.929C309.597 130.088 302.529 127.618 296.571 124.419L295.742 123.974L296.124 124.834L318.657 175.542C321.709 182.41 318.605 190.482 311.736 193.534C304.868 196.586 296.796 193.481 293.744 186.613C290.692 179.744 293.797 171.673 300.665 168.621C302.934 167.613 305.331 167.28 307.638 167.529L308.194 167.589L307.967 167.078L285.767 117.121L283.809 112.715C284.626 112.602 285.762 112.609 286.923 112.694C288.248 112.791 289.563 112.985 290.399 113.189L296.478 117.039C296.478 117.039 296.478 117.039 296.478 117.039C302.495 120.85 309.996 123.694 319.397 125.741C324.712 126.898 329.204 130.554 331.41 135.52C332.369 137.677 332.659 139.511 332.442 141.105C332.227 142.697 331.502 144.079 330.381 145.328C328.746 147.148 326.287 148.667 323.385 150.109Z" stroke="url(#paint12_linear)" stroke-width="0.644465"/>
<path d="M73.5736 628.186C75.1937 629.549 76.6107 631.554 77.9678 633.951C74.777 631.542 70.3786 630.958 66.538 632.814C63.3923 634.334 61.1373 637.295 60.5029 640.735C58.9365 649.228 56.6991 656.352 53.704 662.388L53.007 663.792L54.4188 663.11L104.379 638.965C111.039 635.746 119.078 638.546 122.297 645.206C125.515 651.867 122.715 659.905 116.055 663.124C109.395 666.343 101.356 663.542 98.1376 656.882C97.0747 654.683 96.6719 652.335 96.8439 650.058L96.9141 649.128L96.0747 649.534L46.8544 673.321L42.776 675.292C42.6772 674.532 42.6584 673.539 42.7004 672.51C42.7536 671.208 42.9011 669.918 43.0723 669.09L46.7078 662.922C46.7078 662.922 46.7078 662.922 46.7078 662.922C50.341 656.758 52.9498 649.143 54.6979 639.665C55.672 634.383 59.1388 629.834 63.9694 627.5C66.0691 626.485 67.8526 626.149 69.4032 626.309C70.95 626.469 72.3154 627.127 73.5736 628.186Z" stroke="url(#paint13_linear)" stroke-width="1.07411"/>
<path d="M242.824 363.788L242.824 363.789L242.837 363.789C243.478 363.798 244.618 363.87 245.612 363.934C245.894 363.952 246.165 363.969 246.409 363.984C246.369 364.118 246.327 364.26 246.283 364.408C245.989 365.396 245.626 366.613 245.421 367.303L229.544 420.603C227.569 427.233 220.566 431.022 213.935 429.046C207.304 427.071 203.516 420.069 205.491 413.438C207.467 406.807 214.469 403.019 221.1 404.994C223.29 405.646 225.166 406.848 226.63 408.403L227.27 409.081L227.536 408.188L235.209 382.429L235.412 381.748L234.702 381.739L193.454 381.173L193.047 381.168L192.932 381.557L181.497 419.944C179.522 426.575 172.519 430.363 165.888 428.388C159.257 426.413 155.469 419.41 157.444 412.779C159.419 406.148 166.422 402.36 173.053 404.335C175.243 404.988 177.119 406.19 178.583 407.744L179.223 408.423L179.489 407.529L192.132 365.084L193.103 361.825L242.824 363.788Z" stroke="url(#paint14_linear)" stroke-width="1.07411"/>
<path d="M242.824 363.788L242.824 363.789L242.837 363.789C243.478 363.798 244.618 363.87 245.612 363.934C245.894 363.952 246.165 363.969 246.409 363.984C246.369 364.118 246.327 364.26 246.283 364.408C245.989 365.396 245.626 366.613 245.421 367.303L229.544 420.603C227.569 427.233 220.566 431.022 213.935 429.046C207.304 427.071 203.516 420.069 205.491 413.438C207.467 406.807 214.469 403.019 221.1 404.994C223.29 405.646 225.166 406.848 226.63 408.403L227.27 409.081L227.536 408.188L235.209 382.429L235.412 381.748L234.702 381.739L193.454 381.173L193.047 381.168L192.932 381.557L181.497 419.944C179.522 426.575 172.519 430.363 165.888 428.388C159.257 426.413 155.469 419.41 157.444 412.779C159.419 406.148 166.422 402.36 173.053 404.335C175.243 404.988 177.119 406.19 178.583 407.744L179.223 408.423L179.489 407.529L192.132 365.084L193.103 361.825L242.824 363.788Z" stroke="url(#paint15_linear)" stroke-width="1.07411"/>
<path d="M348.861 741.78L348.861 741.78L348.875 741.781C349.515 741.789 350.655 741.862 351.649 741.925C351.932 741.943 352.203 741.961 352.447 741.976C352.407 742.11 352.364 742.252 352.321 742.399C352.026 743.388 351.664 744.605 351.458 745.295L335.581 798.594C333.606 805.225 326.603 809.013 319.973 807.038C313.342 805.063 309.554 798.06 311.529 791.429C313.504 784.799 320.507 781.01 327.137 782.986C329.327 783.638 331.203 784.84 332.668 786.394L333.307 787.073L333.573 786.179L341.246 760.421L341.449 759.74L340.739 759.73L299.491 759.165L299.085 759.159L298.969 759.549L287.534 797.936C285.559 804.567 278.556 808.355 271.926 806.38C265.295 804.404 261.506 797.402 263.482 790.771C265.457 784.14 272.459 780.352 279.09 782.327C281.28 782.979 283.156 784.181 284.621 785.736L285.26 786.414L285.526 785.521L298.17 743.075L299.14 739.817L348.861 741.78Z" stroke="url(#paint16_linear)" stroke-width="1.07411"/>
<path d="M388.861 38.6603L388.431 38.7313L388.35 39.1588L385.966 51.6409C385.904 51.8012 385.834 52.0267 385.764 52.2494L385.749 52.2993C385.658 52.5908 385.556 52.9136 385.445 53.2174C385.372 53.4194 385.299 53.5986 385.229 53.7459C385.158 53.5986 385.086 53.4194 385.012 53.2174C384.901 52.9137 384.8 52.5908 384.709 52.2993L384.693 52.2495C384.625 52.0311 384.556 51.81 384.495 51.6504L382.499 39.1772L382.428 38.7312L381.982 38.6598L369.508 36.6638C369.349 36.6028 369.128 36.5338 368.909 36.4657C368.893 36.4605 368.876 36.4553 368.86 36.4501C368.568 36.3591 368.245 36.2577 367.941 36.1468C367.739 36.0731 367.56 36.0002 367.413 35.93C367.56 35.8598 367.739 35.787 367.941 35.7133C368.245 35.6024 368.568 35.501 368.859 35.4099C368.876 35.4048 368.892 35.3996 368.909 35.3945C369.131 35.3251 369.356 35.2548 369.517 35.193L381.998 32.8587L382.428 32.7783L382.499 32.3468L384.494 20.211C384.555 20.0513 384.625 19.8296 384.693 19.6107C384.698 19.594 384.703 19.5773 384.708 19.5607C384.8 19.2692 384.901 18.9464 385.012 18.6426C385.086 18.4406 385.158 18.2614 385.229 18.1142C385.299 18.2614 385.372 18.4406 385.445 18.6425C385.556 18.9463 385.658 19.2691 385.749 19.5607C385.754 19.5771 385.759 19.5937 385.764 19.6102C385.834 19.8338 385.905 20.0602 385.967 20.2207L388.35 32.3657L388.431 32.7783L388.844 32.858L400.939 35.1923C401.099 35.2542 401.325 35.3247 401.548 35.3943L401.598 35.4099C401.889 35.5009 402.212 35.6023 402.516 35.7132C402.718 35.7869 402.897 35.8598 403.044 35.93C402.897 36.0002 402.718 36.073 402.516 36.1467C402.212 36.2576 401.889 36.359 401.598 36.45L401.548 36.4655C401.329 36.5339 401.107 36.6032 400.947 36.6644L388.861 38.6603ZM385.43 54.0794C385.43 54.0794 385.43 54.0794 385.43 54.0793C385.431 54.0798 385.431 54.08 385.431 54.08C385.431 54.08 385.431 54.0798 385.43 54.0794Z" stroke="url(#paint17_linear)" stroke-width="1.2475"/>
<path d="M56.943 322.963L56.6377 322.653L56.2412 322.833L38.8512 330.707C38.6124 330.765 38.2706 330.875 37.9144 330.99L37.849 331.011C37.4136 331.151 36.9235 331.308 36.4471 331.437C35.9643 331.567 35.5301 331.659 35.2025 331.682C35.1301 331.687 35.0695 331.688 35.0195 331.686C35.035 331.639 35.0564 331.582 35.0855 331.516C35.217 331.215 35.4496 330.837 35.7349 330.426C36.0164 330.021 36.329 329.612 36.6073 329.249L36.649 329.195C36.8737 328.902 37.0894 328.62 37.2247 328.416L50.8169 315.168L51.1403 314.852L50.9418 314.447L42.5969 297.399C42.5384 297.161 42.4298 296.823 42.3167 296.472C42.3098 296.45 42.3028 296.428 42.2958 296.406C42.1558 295.971 41.9989 295.481 41.8702 295.004C41.7397 294.522 41.6478 294.087 41.6251 293.76C41.6201 293.688 41.619 293.627 41.6204 293.577C41.6679 293.592 41.7246 293.614 41.7909 293.643C42.0918 293.774 42.4698 294.007 42.8806 294.292C43.2859 294.574 43.6948 294.886 44.0578 295.165L44.1116 295.206C44.4083 295.433 44.693 295.652 44.8986 295.787L58.5662 309.093L58.8795 309.398L59.2731 309.208L75.9065 301.154C76.1449 301.096 76.4829 300.987 76.835 300.874C76.8567 300.867 76.8785 300.86 76.9003 300.853C77.3357 300.713 77.8259 300.556 78.3023 300.427C78.7851 300.297 79.2193 300.205 79.547 300.182C79.6193 300.177 79.6799 300.176 79.7298 300.177C79.7143 300.225 79.6929 300.282 79.6639 300.348C79.5323 300.649 79.2998 301.027 79.0145 301.438C78.7331 301.843 78.4205 302.252 78.1422 302.615L78.1009 302.669C77.8725 302.966 77.6532 303.252 77.5183 303.458L64.6675 316.895L64.3769 317.199L64.5496 317.582L72.1501 334.455C72.2079 334.694 72.318 335.036 72.4327 335.392L72.4537 335.458C72.5938 335.893 72.7506 336.383 72.8794 336.859C73.0098 337.342 73.1017 337.777 73.1244 338.104C73.1294 338.176 73.1305 338.237 73.1291 338.287C73.0816 338.272 73.0249 338.25 72.9586 338.221C72.6577 338.09 72.2797 337.857 71.8689 337.572C71.4636 337.29 71.0547 336.978 70.6917 336.699L70.6379 336.658C70.3441 336.433 70.0619 336.216 69.8568 336.081L56.943 322.963ZM34.8548 331.665C34.8549 331.665 34.8557 331.665 34.8572 331.666C34.8555 331.665 34.8548 331.665 34.8548 331.665ZM34.9842 331.846C34.9843 331.848 34.9843 331.849 34.9843 331.849C34.9842 331.849 34.9842 331.848 34.9842 331.846ZM41.6418 293.412C41.6418 293.412 41.6415 293.413 41.6409 293.415C41.6415 293.413 41.6418 293.412 41.6418 293.412ZM41.4605 293.542C41.4589 293.542 41.458 293.542 41.458 293.542C41.458 293.542 41.4588 293.542 41.4605 293.542ZM79.8946 300.199C79.8946 300.199 79.8938 300.199 79.8923 300.198C79.8939 300.198 79.8947 300.199 79.8946 300.199ZM79.7651 300.018C79.765 300.016 79.765 300.015 79.7651 300.015C79.7651 300.015 79.7652 300.016 79.7651 300.018ZM73.1077 338.452C73.1077 338.452 73.1079 338.451 73.1086 338.449C73.1081 338.451 73.1077 338.452 73.1077 338.452ZM73.289 338.322C73.2907 338.322 73.2915 338.322 73.2915 338.322C73.2915 338.322 73.2907 338.322 73.289 338.322Z" stroke="url(#paint18_linear)" stroke-width="1.2475"/>
<path d="M376.825 378.577L376.414 378.435L376.139 378.772L362.733 395.218C362.526 395.392 362.24 395.671 361.938 395.966L361.885 396.017C361.521 396.372 361.11 396.772 360.699 397.137C360.282 397.506 359.892 397.816 359.571 398.004C359.46 398.069 359.371 398.112 359.303 398.137C359.288 398.067 359.274 397.969 359.268 397.841C359.25 397.469 359.295 396.973 359.375 396.422C359.455 395.878 359.564 395.315 359.661 394.816L359.675 394.744C359.755 394.335 359.831 393.947 359.863 393.679L366.83 373.765L366.979 373.339L366.62 373.064L349.876 360.231C349.702 360.025 349.426 359.742 349.135 359.444L349.083 359.391C348.729 359.027 348.329 358.616 347.964 358.205C347.594 357.788 347.284 357.397 347.096 357.077C347.031 356.966 346.989 356.877 346.963 356.809C347.034 356.794 347.131 356.78 347.259 356.774C347.631 356.756 348.127 356.801 348.678 356.881C349.223 356.961 349.786 357.07 350.284 357.167L350.356 357.181C350.769 357.262 351.162 357.338 351.43 357.37L371.619 363.844L372.035 363.978L372.303 363.632L384.868 347.382C385.074 347.208 385.358 346.932 385.657 346.64L385.709 346.589C386.073 346.234 386.484 345.834 386.896 345.469C387.312 345.1 387.703 344.79 388.023 344.601C388.134 344.536 388.223 344.494 388.291 344.469C388.306 344.539 388.32 344.637 388.326 344.765C388.345 345.136 388.299 345.633 388.219 346.184C388.139 346.728 388.03 347.291 387.933 347.79L387.919 347.861C387.838 348.276 387.761 348.67 387.73 348.939L381.595 368.672L381.47 369.073L381.795 369.34L397.712 382.367C397.886 382.574 398.165 382.86 398.46 383.162L398.511 383.215C398.866 383.579 399.266 383.99 399.631 384.401C400 384.818 400.31 385.209 400.499 385.529C400.564 385.64 400.606 385.729 400.631 385.797C400.561 385.812 400.463 385.826 400.335 385.832C399.964 385.85 399.467 385.805 398.916 385.725C398.372 385.645 397.809 385.536 397.31 385.439L397.239 385.425C396.829 385.345 396.439 385.269 396.171 385.237L376.825 378.577ZM359.186 398.169C359.186 398.169 359.187 398.169 359.189 398.169C359.187 398.169 359.186 398.169 359.186 398.169ZM359.34 398.251C359.341 398.252 359.341 398.252 359.341 398.253C359.341 398.253 359.341 398.252 359.34 398.251ZM346.931 356.692C346.931 356.692 346.931 356.693 346.931 356.695C346.931 356.693 346.931 356.692 346.931 356.692ZM346.85 356.846C346.848 356.847 346.848 356.847 346.848 356.847C346.848 356.847 346.848 356.847 346.85 356.846ZM388.408 344.437C388.408 344.437 388.407 344.437 388.405 344.437C388.407 344.437 388.408 344.437 388.408 344.437ZM388.254 344.355C388.253 344.354 388.253 344.353 388.253 344.353C388.253 344.353 388.254 344.354 388.254 344.355ZM400.663 385.914C400.663 385.914 400.663 385.913 400.663 385.911C400.663 385.913 400.663 385.914 400.663 385.914ZM400.745 385.76C400.746 385.759 400.747 385.759 400.747 385.759C400.747 385.759 400.746 385.759 400.745 385.76Z" stroke="url(#paint19_linear)" stroke-width="1.2475"/>
<path d="M431.766 589.454L431.355 589.313L431.08 589.65L417.674 606.096C417.467 606.269 417.181 606.549 416.879 606.843L416.826 606.895C416.462 607.249 416.051 607.649 415.64 608.014C415.223 608.384 414.833 608.694 414.512 608.882C414.401 608.947 414.312 608.989 414.245 609.015C414.229 608.944 414.215 608.847 414.209 608.718C414.191 608.347 414.236 607.851 414.317 607.3C414.396 606.755 414.505 606.192 414.602 605.694L414.616 605.621C414.696 605.213 414.772 604.824 414.804 604.556L421.771 584.643L421.92 584.217L421.562 583.942L404.817 571.109C404.643 570.902 404.367 570.619 404.076 570.321L404.024 570.268C403.67 569.905 403.27 569.494 402.905 569.082C402.535 568.665 402.225 568.275 402.037 567.954C401.972 567.843 401.93 567.755 401.904 567.687C401.975 567.671 402.072 567.658 402.2 567.652C402.572 567.633 403.068 567.678 403.619 567.759C404.164 567.839 404.727 567.947 405.225 568.045L405.297 568.059C405.71 568.139 406.103 568.216 406.371 568.247L426.56 574.722L426.976 574.855L427.244 574.509L439.809 558.26C440.015 558.086 440.299 557.809 440.598 557.518L440.65 557.466C441.014 557.112 441.425 556.712 441.837 556.347C442.253 555.977 442.644 555.667 442.964 555.479C443.075 555.414 443.164 555.372 443.232 555.346C443.247 555.417 443.261 555.514 443.267 555.642C443.286 556.014 443.241 556.51 443.16 557.061C443.08 557.606 442.971 558.169 442.874 558.667L442.86 558.739C442.779 559.154 442.703 559.548 442.671 559.816L436.536 579.55L436.411 579.951L436.736 580.217L452.653 593.244C452.827 593.451 453.106 593.738 453.401 594.04L453.452 594.093C453.807 594.456 454.207 594.867 454.572 595.279C454.941 595.696 455.251 596.086 455.44 596.407C455.505 596.518 455.547 596.606 455.573 596.674C455.502 596.69 455.405 596.703 455.276 596.709C454.905 596.728 454.408 596.683 453.857 596.602C453.313 596.523 452.75 596.414 452.251 596.316L452.18 596.303C451.77 596.223 451.381 596.147 451.112 596.115L431.766 589.454ZM414.127 609.047C414.127 609.047 414.128 609.047 414.13 609.047C414.128 609.047 414.127 609.047 414.127 609.047ZM414.281 609.128C414.282 609.129 414.282 609.13 414.282 609.13C414.282 609.131 414.282 609.13 414.281 609.128ZM401.872 567.57C401.872 567.57 401.872 567.571 401.872 567.572C401.872 567.571 401.872 567.57 401.872 567.57ZM401.791 567.723C401.789 567.724 401.789 567.725 401.789 567.725C401.789 567.725 401.789 567.724 401.791 567.723ZM443.349 555.314C443.349 555.314 443.348 555.314 443.347 555.314C443.348 555.314 443.349 555.314 443.349 555.314ZM443.195 555.233C443.195 555.231 443.194 555.231 443.194 555.231C443.194 555.231 443.195 555.231 443.195 555.233ZM455.604 596.791C455.604 596.791 455.604 596.79 455.604 596.789C455.604 596.791 455.604 596.791 455.604 596.791ZM455.686 596.638C455.687 596.637 455.688 596.636 455.688 596.636C455.688 596.636 455.687 596.637 455.686 596.638Z" stroke="url(#paint20_linear)" stroke-width="1.2475"/>
<defs>
<filter id="filter0_b" x="28.5841" y="128.384" width="58.1972" height="60.1501" filterUnits="userSpaceOnUse" color-interpolation-filters="sRGB">
<feFlood flood-opacity="0" result="BackgroundImageFix"/>
<feGaussianBlur in="BackgroundImage" stdDeviation="4.29643"/>
<feComposite in2="SourceAlpha" operator="in" result="effect1_backgroundBlur"/>
<feBlend mode="normal" in="SourceGraphic" in2="effect1_backgroundBlur" result="shape"/>
</filter>
<filter id="filter1_b" x="157.076" y="622.393" width="58.1972" height="60.1501" filterUnits="userSpaceOnUse" color-interpolation-filters="sRGB">
<feFlood flood-opacity="0" result="BackgroundImageFix"/>
<feGaussianBlur in="BackgroundImage" stdDeviation="4.29643"/>
<feComposite in2="SourceAlpha" operator="in" result="effect1_backgroundBlur"/>
<feBlend mode="normal" in="SourceGraphic" in2="effect1_backgroundBlur" result="shape"/>
</filter>
<filter id="filter2_b" x="44.8017" y="471.446" width="58.1972" height="60.1501" filterUnits="userSpaceOnUse" color-interpolation-filters="sRGB">
<feFlood flood-opacity="0" result="BackgroundImageFix"/>
<feGaussianBlur in="BackgroundImage" stdDeviation="4.29643"/>
<feComposite in2="SourceAlpha" operator="in" result="effect1_backgroundBlur"/>
<feBlend mode="normal" in="SourceGraphic" in2="effect1_backgroundBlur" result="shape"/>
</filter>
<linearGradient id="paint0_linear" x1="259.232" y1="290.613" x2="352.086" y2="291.192" gradientUnits="userSpaceOnUse">
<stop stop-color="#FEBD2F"/>
<stop offset="0.248726" stop-color="#F95721"/>
<stop offset="0.502913" stop-color="#FC1370"/>
<stop offset="0.671875" stop-color="#BA2DB2"/>
<stop offset="0.776042" stop-color="#8342E9"/>
<stop offset="0.963542" stop-color="#3F89FC"/>
</linearGradient>
<linearGradient id="paint1_linear" x1="272.636" y1="621.582" x2="370.575" y2="683.873" gradientUnits="userSpaceOnUse">
<stop stop-color="#FEBD2F"/>
<stop offset="0.248726" stop-color="#F95721"/>
<stop offset="0.502913" stop-color="#FC1370"/>
<stop offset="0.671875" stop-color="#BA2DB2"/>
<stop offset="0.776042" stop-color="#8342E9"/>
<stop offset="0.963542" stop-color="#3F89FC"/>
</linearGradient>
<linearGradient id="paint2_linear" x1="165.415" y1="518.923" x2="243.767" y2="568.755" gradientUnits="userSpaceOnUse">
<stop stop-color="#FEBD2F"/>
<stop offset="0.248726" stop-color="#F95721"/>
<stop offset="0.502913" stop-color="#FC1370"/>
<stop offset="0.671875" stop-color="#BA2DB2"/>
<stop offset="0.776042" stop-color="#8342E9"/>
<stop offset="0.963542" stop-color="#3F89FC"/>
</linearGradient>
<linearGradient id="paint3_linear" x1="20.7055" y1="374.213" x2="99.057" y2="424.045" gradientUnits="userSpaceOnUse">
<stop stop-color="#FEBD2F"/>
<stop offset="0.248726" stop-color="#F95721"/>
<stop offset="0.502913" stop-color="#FC1370"/>
<stop offset="0.671875" stop-color="#BA2DB2"/>
<stop offset="0.776042" stop-color="#8342E9"/>
<stop offset="0.963542" stop-color="#3F89FC"/>
</linearGradient>
<linearGradient id="paint4_linear" x1="149.452" y1="62.058" x2="265.519" y2="62.7805" gradientUnits="userSpaceOnUse">
<stop stop-color="#FEBD2F"/>
<stop offset="0.248726" stop-color="#F95721"/>
<stop offset="0.502913" stop-color="#FC1370"/>
<stop offset="0.671875" stop-color="#BA2DB2"/>
<stop offset="0.776042" stop-color="#8342E9"/>
<stop offset="0.963542" stop-color="#3F89FC"/>
</linearGradient>
<linearGradient id="paint5_linear" x1="276.697" y1="486.365" x2="368.283" y2="486.876" gradientUnits="userSpaceOnUse">
<stop stop-color="#FEBD2F"/>
<stop offset="0.248726" stop-color="#F95721"/>
<stop offset="0.502913" stop-color="#FC1370"/>
<stop offset="0.671875" stop-color="#BA2DB2"/>
<stop offset="0.776042" stop-color="#8342E9"/>
<stop offset="0.963542" stop-color="#3F89FC"/>
</linearGradient>
<linearGradient id="paint6_linear" x1="49.652" y1="790.754" x2="141.239" y2="791.266" gradientUnits="userSpaceOnUse">
<stop stop-color="#FEBD2F"/>
<stop offset="0.248726" stop-color="#F95721"/>
<stop offset="0.502913" stop-color="#FC1370"/>
<stop offset="0.671875" stop-color="#BA2DB2"/>
<stop offset="0.776042" stop-color="#8342E9"/>
<stop offset="0.963542" stop-color="#3F89FC"/>
</linearGradient>
<linearGradient id="paint7_linear" x1="125.749" y1="237.207" x2="197.71" y2="237.655" gradientUnits="userSpaceOnUse">
<stop stop-color="#FEBD2F"/>
<stop offset="0.248726" stop-color="#F95721"/>
<stop offset="0.502913" stop-color="#FC1370"/>
<stop offset="0.671875" stop-color="#BA2DB2"/>
<stop offset="0.776042" stop-color="#8342E9"/>
<stop offset="0.963542" stop-color="#3F89FC"/>
</linearGradient>
<linearGradient id="paint8_linear" x1="176.897" y1="759.909" x2="248.857" y2="760.357" gradientUnits="userSpaceOnUse">
<stop stop-color="#FEBD2F"/>
<stop offset="0.248726" stop-color="#F95721"/>
<stop offset="0.502913" stop-color="#FC1370"/>
<stop offset="0.671875" stop-color="#BA2DB2"/>
<stop offset="0.776042" stop-color="#8342E9"/>
<stop offset="0.963542" stop-color="#3F89FC"/>
</linearGradient>
<linearGradient id="paint9_linear" x1="37.177" y1="161.4" x2="78.8074" y2="161.633" gradientUnits="userSpaceOnUse">
<stop stop-color="#FEBD2F"/>
<stop offset="0.248726" stop-color="#F95721"/>
<stop offset="0.502913" stop-color="#FC1370"/>
<stop offset="0.671875" stop-color="#BA2DB2"/>
<stop offset="0.776042" stop-color="#8342E9"/>
<stop offset="0.963542" stop-color="#3F89FC"/>
</linearGradient>
<linearGradient id="paint10_linear" x1="165.669" y1="655.409" x2="207.3" y2="655.642" gradientUnits="userSpaceOnUse">
<stop stop-color="#FEBD2F"/>
<stop offset="0.248726" stop-color="#F95721"/>
<stop offset="0.502913" stop-color="#FC1370"/>
<stop offset="0.671875" stop-color="#BA2DB2"/>
<stop offset="0.776042" stop-color="#8342E9"/>
<stop offset="0.963542" stop-color="#3F89FC"/>
</linearGradient>
<linearGradient id="paint11_linear" x1="53.3945" y1="504.462" x2="95.0249" y2="504.695" gradientUnits="userSpaceOnUse">
<stop stop-color="#FEBD2F"/>
<stop offset="0.248726" stop-color="#F95721"/>
<stop offset="0.502913" stop-color="#FC1370"/>
<stop offset="0.671875" stop-color="#BA2DB2"/>
<stop offset="0.776042" stop-color="#8342E9"/>
<stop offset="0.963542" stop-color="#3F89FC"/>
</linearGradient>
<linearGradient id="paint12_linear" x1="284.057" y1="165.607" x2="335.919" y2="142.797" gradientUnits="userSpaceOnUse">
<stop stop-color="#FEBD2F"/>
<stop offset="0.248726" stop-color="#F95721"/>
<stop offset="0.502913" stop-color="#FC1370"/>
<stop offset="0.671875" stop-color="#BA2DB2"/>
<stop offset="0.776042" stop-color="#8342E9"/>
<stop offset="0.963542" stop-color="#3F89FC"/>
</linearGradient>
<linearGradient id="paint13_linear" x1="95.4639" y1="673.672" x2="71.0047" y2="622.566" gradientUnits="userSpaceOnUse">
<stop stop-color="#FEBD2F"/>
<stop offset="0.248726" stop-color="#F95721"/>
<stop offset="0.502913" stop-color="#FC1370"/>
<stop offset="0.671875" stop-color="#BA2DB2"/>
<stop offset="0.776042" stop-color="#8342E9"/>
<stop offset="0.963542" stop-color="#3F89FC"/>
</linearGradient>
<linearGradient id="paint14_linear" x1="163.78" y1="389.628" x2="234.118" y2="410.958" gradientUnits="userSpaceOnUse">
<stop stop-color="#FEBD2F"/>
<stop offset="0.248726" stop-color="#F95721"/>
<stop offset="0.502913" stop-color="#FC1370"/>
<stop offset="0.671875" stop-color="#BA2DB2"/>
<stop offset="0.776042" stop-color="#8342E9"/>
<stop offset="0.963542" stop-color="#3F89FC"/>
</linearGradient>
<linearGradient id="paint15_linear" x1="163.78" y1="389.628" x2="234.118" y2="410.958" gradientUnits="userSpaceOnUse">
<stop stop-color="#FEBD2F"/>
<stop offset="0.248726" stop-color="#F95721"/>
<stop offset="0.502913" stop-color="#FC1370"/>
<stop offset="0.671875" stop-color="#BA2DB2"/>
<stop offset="0.776042" stop-color="#8342E9"/>
<stop offset="0.963542" stop-color="#3F89FC"/>
</linearGradient>
<linearGradient id="paint16_linear" x1="269.818" y1="767.619" x2="340.155" y2="788.95" gradientUnits="userSpaceOnUse">
<stop stop-color="#FEBD2F"/>
<stop offset="0.248726" stop-color="#F95721"/>
<stop offset="0.502913" stop-color="#FC1370"/>
<stop offset="0.671875" stop-color="#BA2DB2"/>
<stop offset="0.776042" stop-color="#8342E9"/>
<stop offset="0.963542" stop-color="#3F89FC"/>
</linearGradient>
<linearGradient id="paint17_linear" x1="366.516" y1="38.4918" x2="404.506" y2="38.714" gradientUnits="userSpaceOnUse">
<stop stop-color="#FEBD2F"/>
<stop offset="0.248726" stop-color="#F95721"/>
<stop offset="0.502913" stop-color="#FC1370"/>
<stop offset="0.671875" stop-color="#BA2DB2"/>
<stop offset="0.776042" stop-color="#8342E9"/>
<stop offset="0.963542" stop-color="#3F89FC"/>
</linearGradient>
<linearGradient id="paint18_linear" x1="38.0646" y1="295.202" x2="70.6183" y2="341.974" gradientUnits="userSpaceOnUse">
<stop stop-color="#FEBD2F"/>
<stop offset="0.248726" stop-color="#F95721"/>
<stop offset="0.502913" stop-color="#FC1370"/>
<stop offset="0.671875" stop-color="#BA2DB2"/>
<stop offset="0.776042" stop-color="#8342E9"/>
<stop offset="0.963542" stop-color="#3F89FC"/>
</linearGradient>
<linearGradient id="paint19_linear" x1="344.328" y1="360.239" x2="399.861" y2="390.654" gradientUnits="userSpaceOnUse">
<stop stop-color="#FEBD2F"/>
<stop offset="0.248726" stop-color="#F95721"/>
<stop offset="0.502913" stop-color="#FC1370"/>
<stop offset="0.671875" stop-color="#BA2DB2"/>
<stop offset="0.776042" stop-color="#8342E9"/>
<stop offset="0.963542" stop-color="#3F89FC"/>
</linearGradient>
<linearGradient id="paint20_linear" x1="399.269" y1="571.116" x2="454.802" y2="601.531" gradientUnits="userSpaceOnUse">
<stop stop-color="#FEBD2F"/>
<stop offset="0.248726" stop-color="#F95721"/>
<stop offset="0.502913" stop-color="#FC1370"/>
<stop offset="0.671875" stop-color="#BA2DB2"/>
<stop offset="0.776042" stop-color="#8342E9"/>
<stop offset="0.963542" stop-color="#3F89FC"/>
</linearGradient>
</defs>
</svg>
