<svg width="40" height="40" viewBox="0 0 40 40" fill="none" xmlns="http://www.w3.org/2000/svg">
<circle cx="20" cy="20" r="19.5" fill="#111111" stroke="url(#paint0_linear)"/>
<path d="M21.2139 32H17.3705C16.7285 32 16.2063 31.4778 16.2063 30.8358V22.1669H13.964C13.322 22.1669 12.7998 21.6445 12.7998 21.0027V17.288C12.7998 16.6461 13.322 16.1238 13.964 16.1238H16.2063V14.2637C16.2063 12.4193 16.7855 10.85 17.881 9.72595C18.9814 8.59674 20.5193 8 22.3284 8L25.2596 8.00476C25.9005 8.00586 26.4218 8.52808 26.4218 9.16895V12.6179C26.4218 13.2599 25.8997 13.7821 25.2579 13.7821L23.2844 13.7828C22.6826 13.7828 22.5293 13.9035 22.4965 13.9405C22.4425 14.0018 22.3782 14.1752 22.3782 14.6541V16.1237H25.1096C25.3152 16.1237 25.5145 16.1744 25.6857 16.27C26.055 16.4763 26.2846 16.8665 26.2846 17.2882L26.2831 21.0029C26.2831 21.6445 25.7609 22.1667 25.119 22.1667H22.3782V30.8358C22.3782 31.4778 21.8558 32 21.2139 32ZM16.8133 31.393H21.7711V22.337C21.7711 21.9083 22.1199 21.5597 22.5484 21.5597H25.6762L25.6774 16.7308H22.5482C22.1197 16.7308 21.7711 16.3822 21.7711 15.9535V15.4541C21.7711 14.9044 21.5849 14.0698 21.9998 13.6C22.4147 13.1302 22.7333 13.1759 23.2841 13.1759L25.8148 13.1751V8.61138L22.3273 8.60698C19.42 8.60698 16.8133 11.2681 16.8133 14.2637V15.9535C16.8133 16.382 16.4646 16.7308 16.0362 16.7308H13.4068V21.5597H16.0362C16.4646 21.5597 16.8133 21.9083 16.8133 22.337V31.393Z" fill="url(#paint1_linear)"/>
<defs>
<linearGradient id="paint0_linear" x1="7.83883e-09" y1="22.7381" x2="40.6036" y2="22.9755" gradientUnits="userSpaceOnUse">
<stop stop-color="#FEBD2F"/>
<stop offset="0.248726" stop-color="#F95721"/>
<stop offset="0.502913" stop-color="#FC1370"/>
<stop offset="0.671875" stop-color="#BA2DB2"/>
<stop offset="0.776042" stop-color="#8342E9"/>
<stop offset="0.963542" stop-color="#3F89FC"/>
</linearGradient>
<linearGradient id="paint1_linear" x1="12.7998" y1="21.6429" x2="26.6276" y2="21.6888" gradientUnits="userSpaceOnUse">
<stop stop-color="#FEBD2F"/>
<stop offset="0.248726" stop-color="#F95721"/>
<stop offset="0.502913" stop-color="#FC1370"/>
<stop offset="0.671875" stop-color="#BA2DB2"/>
<stop offset="0.776042" stop-color="#8342E9"/>
<stop offset="0.963542" stop-color="#3F89FC"/>
</linearGradient>
</defs>
</svg>
