<svg width="9" height="16" viewBox="0 0 9 16" fill="none" xmlns="http://www.w3.org/2000/svg">
<path d="M8.55416 0.00332907L6.42212 0C4.02684 0 2.47891 1.54552 2.47891 3.93762V5.75313H0.335243C0.150004 5.75313 0 5.89927 0 6.07954V8.71001C0 8.89028 0.150175 9.03626 0.335243 9.03626H2.47891V15.6738C2.47891 15.854 2.62892 16 2.81416 16H5.61104C5.79628 16 5.94628 15.8539 5.94628 15.6738V9.03626H8.45273C8.63797 9.03626 8.78797 8.89028 8.78797 8.71001L8.789 6.07954C8.789 5.99299 8.75359 5.91009 8.69082 5.84884C8.62805 5.78758 8.54253 5.75313 8.45359 5.75313H5.94628V4.2141C5.94628 3.47438 6.12741 3.09886 7.11758 3.09886L8.55382 3.09836C8.73888 3.09836 8.88889 2.95222 8.88889 2.77211V0.329578C8.88889 0.149642 8.73906 0.00366197 8.55416 0.00332907Z" fill="white"/>
</svg>
