<svg width="150" height="50" viewBox="0 0 150 50" fill="none" xmlns="http://www.w3.org/2000/svg">
<rect width="150" height="50" fill="white"/>
<g clip-path="url(#clip0)">
<path d="M72.7302 24.656V33.4499H69.9404V11.7327H77.3395C78.2227 11.7143 79.1008 11.8709 79.9231 12.1936C80.7455 12.5163 81.4957 12.9986 82.1307 13.6128C82.772 14.1897 83.2825 14.8972 83.6277 15.6877C83.9729 16.4783 84.1449 17.3335 84.1321 18.1961C84.1504 19.0632 83.9811 19.9241 83.6356 20.7197C83.2902 21.5152 82.7768 22.2267 82.1307 22.8053C80.8369 24.0391 79.2398 24.6554 77.3395 24.6542H72.7302V24.656ZM72.7302 14.4064V21.9874H77.4088C77.9217 22.0026 78.4321 21.9106 78.9075 21.7173C79.3828 21.5239 79.8125 21.2335 80.1692 20.8646C80.5239 20.5197 80.806 20.1071 80.9985 19.6513C81.1911 19.1954 81.2903 18.7056 81.2903 18.2108C81.2903 17.716 81.1911 17.2262 80.9985 16.7703C80.806 16.3145 80.5239 15.902 80.1692 15.557C79.817 15.1803 79.3887 14.8828 78.9129 14.6841C78.437 14.4855 77.9243 14.3902 77.4088 14.4047H72.7302V14.4064Z" fill="#5F6368"/>
<path d="M90.5609 18.1061C92.6229 18.1061 94.2506 18.6571 95.4439 19.7592C96.6373 20.8612 97.2333 22.3722 97.2322 24.2922V33.45H94.5637V31.388H94.4424C93.2872 33.0862 91.7508 33.9352 89.8331 33.9352C88.1962 33.9352 86.8267 33.45 85.7247 32.4797C85.1958 32.0343 84.7729 31.4765 84.487 30.847C84.201 30.2175 84.0591 29.5321 84.0716 28.8408C84.0716 27.3032 84.6526 26.0804 85.8148 25.1724C86.9769 24.2645 88.5283 23.8093 90.4691 23.807C92.1256 23.807 93.4899 24.1102 94.5619 24.7167V24.079C94.5651 23.6078 94.4633 23.1417 94.264 22.7146C94.0647 22.2875 93.7729 21.9101 93.4096 21.6098C92.6719 20.9442 91.7104 20.581 90.7169 20.5927C89.1585 20.5927 87.9253 21.25 87.0173 22.5646L84.5602 21.0172C85.9118 19.0764 87.912 18.1061 90.5609 18.1061ZM86.9515 28.9014C86.9496 29.2565 87.0326 29.6069 87.1936 29.9233C87.3545 30.2398 87.5888 30.5133 87.8768 30.7209C88.4938 31.2062 89.2596 31.4633 90.0445 31.4487C91.2218 31.4467 92.3503 30.9781 93.1826 30.1456C94.1068 29.2757 94.5689 28.2551 94.5689 27.0837C93.699 26.3906 92.486 26.044 90.93 26.044C89.7967 26.044 88.8518 26.3173 88.0951 26.8637C87.331 27.4182 86.9515 28.0922 86.9515 28.9014Z" fill="#5F6368"/>
<path d="M112.551 18.5912L103.235 40H100.355L103.812 32.5091L97.6868 18.5912H100.719L105.146 29.2653H105.207L109.513 18.5912H112.551Z" fill="#5F6368"/>
<path d="M61.457 22.7603C61.4581 21.9101 61.3862 21.0614 61.2422 20.2235H49.4764V25.0286H56.2153C56.0774 25.796 55.7855 26.5276 55.3573 27.1792C54.9291 27.8308 54.3733 28.3889 53.7235 28.8199V31.939H57.7454C60.1002 29.7678 61.457 26.5569 61.457 22.7603Z" fill="#4285F4"/>
<path d="M49.475 34.9524C52.8418 34.9524 55.6767 33.8469 57.7439 31.9408L53.7221 28.8217C52.6027 29.5807 51.161 30.0139 49.475 30.0139C46.2208 30.0139 43.4587 27.8202 42.471 24.864H38.3279V28.0784C39.3663 30.1447 40.9586 31.8817 42.927 33.0956C44.8954 34.3094 47.1624 34.9523 49.475 34.9524Z" fill="#34A853"/>
<path d="M42.4721 24.864C41.9499 23.3149 41.9499 21.6374 42.4721 20.0884V16.874H38.329C37.4554 18.6123 37.0005 20.5308 37.0005 22.4762C37.0005 24.4216 37.4554 26.3401 38.329 28.0783L42.4721 24.864Z" fill="#FBBC04"/>
<path d="M49.475 14.9384C51.2542 14.9094 52.9734 15.5816 54.261 16.8099L57.8219 13.249C55.5639 11.1281 52.5726 9.96378 49.475 9.99996C47.1624 10.0001 44.8954 10.6429 42.927 11.8568C40.9586 13.0706 39.3663 14.8077 38.3279 16.874L42.471 20.0883C43.4587 17.1322 46.2208 14.9384 49.475 14.9384Z" fill="#EA4335"/>
</g>
<defs>
<clipPath id="clip0">
<rect width="75.545" height="30" fill="white" transform="translate(37 10)"/>
</clipPath>
</defs>
</svg>
