<svg width="59" height="59" viewBox="0 0 59 59" fill="none" xmlns="http://www.w3.org/2000/svg">
<path d="M29.526 58.052C45.2805 58.052 58.052 45.2805 58.052 29.526C58.052 13.7715 45.2805 1 29.526 1C13.7715 1 1 13.7715 1 29.526C1 45.2805 13.7715 58.052 29.526 58.052Z" stroke="url(#paint0_linear)" stroke-width="1.0548" stroke-miterlimit="10" stroke-linecap="round" stroke-linejoin="round"/>
<path d="M52.8885 29.3248C52.6826 29.1189 52.3487 29.1189 52.1427 29.3248L48.7863 32.6812C48.5804 32.8871 48.5804 33.2211 48.7863 33.427C48.9923 33.633 49.3262 33.633 49.5322 33.427L52.5156 30.4436L55.499 33.427C55.705 33.633 56.0389 33.633 56.2449 33.427C56.4509 33.2211 56.4509 32.8871 56.2449 32.6812L52.8885 29.3248ZM29.6427 51.8248C29.4367 52.0308 29.4367 52.3647 29.6427 52.5707L32.999 55.927C33.205 56.133 33.5389 56.133 33.7449 55.927C33.9509 55.7211 33.9509 55.3871 33.7449 55.1812L30.7615 52.1978L33.7449 49.2143C33.9509 49.0084 33.9509 48.6744 33.7449 48.4685C33.5389 48.2625 33.205 48.2625 32.999 48.4685L29.6427 51.8248ZM7.1427 30.0707C7.34866 30.2766 7.68259 30.2766 7.88855 30.0707L11.2449 26.7143C11.4509 26.5084 11.4509 26.1744 11.2449 25.9685C11.0389 25.7625 10.705 25.7625 10.4991 25.9685L7.51562 28.9519L4.5322 25.9685C4.32624 25.7625 3.99231 25.7625 3.78634 25.9685C3.58038 26.1744 3.58038 26.5084 3.78634 26.7143L7.1427 30.0707ZM30.3886 7.57068C30.5945 7.36472 30.5945 7.03079 30.3886 6.82483L27.0322 3.46847C26.8262 3.26251 26.4923 3.26251 26.2863 3.46847C26.0804 3.67444 26.0804 4.00837 26.2863 4.21433L29.2698 7.19775L26.2863 10.1812C26.0804 10.3871 26.0804 10.7211 26.2863 10.927C26.4923 11.133 26.8262 11.133 27.0322 10.927L30.3886 7.57068ZM51.9882 29.6977C51.9882 41.8329 42.1508 51.6703 30.0156 51.6703V52.7252C42.7333 52.7252 53.043 42.4154 53.043 29.6977H51.9882ZM8.04303 29.6977C8.04303 17.5626 17.8805 7.72515 30.0156 7.72515V6.67035C17.2979 6.67035 6.98822 16.9801 6.98822 29.6977H8.04303Z" fill="url(#paint1_linear)"/>
<path d="M26.2656 26.7228C26.2656 25.9978 26.5156 25.3978 29.6156 25.2728V28.2478C26.7406 28.0478 26.2656 27.4478 26.2656 26.7728V26.7228ZM35.8406 34.5728C35.8406 35.3478 35.4156 36.2978 32.0406 36.4228V32.7978C35.3656 32.9978 35.8406 33.5978 35.8406 34.4728V34.5728ZM32.0406 42.0728V40.5228C41.5656 40.5228 43.3156 37.4228 43.3156 34.2228V33.8728C43.3156 30.2228 40.6906 28.6228 33.8656 28.4228L32.0406 28.3478V25.2978C35.0406 25.5728 35.3656 26.6228 35.4406 27.3728H42.6656V27.1478C42.6656 24.2478 40.6406 21.4978 32.0406 21.3728V19.8978H29.6156V21.3728C21.1406 21.3728 19.0906 23.8978 19.0906 26.8978V27.1228C19.0906 29.9728 20.9656 32.4478 27.8656 32.6478L29.6156 32.7228V36.3728C26.6406 36.0478 26.1406 34.6478 26.1406 33.6728H18.8406V33.9478C18.8406 36.3228 19.8656 40.3978 29.6156 40.5228V42.0728H32.0406Z" fill="url(#paint2_linear)" fill-opacity="0.2"/>
<path d="M29.6156 25.2728H30.6156V24.2316L29.5753 24.2736L29.6156 25.2728ZM29.6156 28.2478L29.5462 29.2453L30.6156 29.3197V28.2478H29.6156ZM32.0406 36.4228H31.0406V37.4605L32.0776 37.4221L32.0406 36.4228ZM32.0406 32.7978L32.1007 31.7996L31.0406 31.7358V32.7978H32.0406ZM32.0406 42.0728V43.0728H33.0406V42.0728H32.0406ZM32.0406 40.5228V39.5228H31.0406V40.5228H32.0406ZM33.8656 28.4228L33.8246 29.422L33.8363 29.4223L33.8656 28.4228ZM32.0406 28.3478H31.0406V29.3075L31.9996 29.3469L32.0406 28.3478ZM32.0406 25.2978L32.1319 24.3019L31.0406 24.2019V25.2978H32.0406ZM35.4406 27.3728L34.4456 27.4723L34.5356 28.3728H35.4406V27.3728ZM42.6656 27.3728V28.3728H43.6656V27.3728H42.6656ZM32.0406 21.3728H31.0406V22.3583L32.0261 22.3726L32.0406 21.3728ZM32.0406 19.8978H33.0406V18.8978H32.0406V19.8978ZM29.6156 19.8978V18.8978H28.6156V19.8978H29.6156ZM29.6156 21.3728V22.3728H30.6156V21.3728H29.6156ZM27.8656 32.6478L27.9084 31.6486L27.8946 31.6482L27.8656 32.6478ZM29.6156 32.7228H30.6156V31.7647L29.6584 31.7237L29.6156 32.7228ZM29.6156 36.3728L29.507 37.3668L30.6156 37.4879V36.3728H29.6156ZM26.1406 33.6728H27.1406V32.6728H26.1406V33.6728ZM18.8406 33.6728V32.6728H17.8406V33.6728H18.8406ZM29.6156 40.5228H30.6156V39.5355L29.6284 39.5228L29.6156 40.5228ZM29.6156 42.0728H28.6156V43.0728H29.6156V42.0728ZM27.2656 26.7228C27.2656 26.5856 27.281 26.5827 27.2655 26.6173C27.238 26.6785 27.2041 26.681 27.273 26.6417C27.4925 26.5167 28.1089 26.3343 29.6559 26.2719L29.5753 24.2736C28.0224 24.3362 26.9637 24.5163 26.2833 24.9038C25.9022 25.1208 25.612 25.417 25.4408 25.7985C25.2815 26.1535 25.2656 26.4974 25.2656 26.7228H27.2656ZM28.6156 25.2728V28.2478H30.6156V25.2728H28.6156ZM29.685 27.2502C28.2709 27.1518 27.6175 26.9603 27.3393 26.8094C27.2225 26.746 27.2269 26.7187 27.2499 26.7583C27.2732 26.7986 27.2656 26.8215 27.2656 26.7728H25.2656C25.2656 27.0615 25.3174 27.4126 25.5196 27.7614C25.7215 28.1096 26.0244 28.3714 26.3857 28.5674C27.0638 28.9352 28.0853 29.1437 29.5462 29.2453L29.685 27.2502ZM27.2656 26.7728V26.7228H25.2656V26.7728H27.2656ZM34.8406 34.5728C34.8406 34.6766 34.8261 34.7251 34.814 34.7511C34.8061 34.7681 34.7779 34.8257 34.6538 34.9079C34.3616 35.1016 33.6413 35.3628 32.0036 35.4234L32.0776 37.4221C33.8149 37.3577 34.9946 37.0814 35.7587 36.5751C36.1627 36.3073 36.4517 35.9743 36.629 35.5913C36.8021 35.2173 36.8406 34.8564 36.8406 34.5728H34.8406ZM33.0406 36.4228V32.7978H31.0406V36.4228H33.0406ZM31.9806 33.7959C33.6388 33.8957 34.3926 34.0919 34.7177 34.2649C34.8477 34.3341 34.8463 34.3674 34.8305 34.3376C34.821 34.3196 34.8406 34.3384 34.8406 34.4728H36.8406C36.8406 34.1697 36.8009 33.7853 36.5984 33.4025C36.3897 33.0078 36.0617 32.7146 35.6573 32.4993C34.9136 32.1036 33.7675 31.8998 32.1007 31.7996L31.9806 33.7959ZM34.8406 34.4728V34.5728H36.8406V34.4728H34.8406ZM33.0406 42.0728V40.5228H31.0406V42.0728H33.0406ZM32.0406 41.5228C36.8701 41.5228 39.949 40.7449 41.8352 39.3836C43.8062 37.9612 44.3156 36.0268 44.3156 34.2228H42.3156C42.3156 35.6187 41.9501 36.8343 40.6648 37.7619C39.2947 38.7506 36.7361 39.5228 32.0406 39.5228V41.5228ZM44.3156 34.2228V33.8728H42.3156V34.2228H44.3156ZM44.3156 33.8728C44.3156 32.8415 44.13 31.8868 43.6827 31.0417C43.2316 30.1895 42.548 29.5122 41.6542 28.9904C39.9153 27.9752 37.336 27.524 33.8949 27.4232L33.8363 29.4223C37.2202 29.5215 39.3659 29.9703 40.6458 30.7176C41.2614 31.077 41.6606 31.4966 41.915 31.9773C42.1731 32.4649 42.3156 33.079 42.3156 33.8728H44.3156ZM33.9067 27.4236L32.0817 27.3486L31.9996 29.3469L33.8246 29.4219L33.9067 27.4236ZM33.0406 28.3478V25.2978H31.0406V28.3478H33.0406ZM31.9493 26.2936C33.3677 26.4236 33.958 26.7246 34.1948 26.9232C34.3751 27.0745 34.4203 27.2195 34.4456 27.4723L36.4357 27.2732C36.3859 26.776 36.2311 26.021 35.4802 25.391C34.7858 24.8084 33.7135 24.4469 32.1319 24.3019L31.9493 26.2936ZM35.4406 28.3728H42.6656V26.3728H35.4406V28.3728ZM43.6656 27.3728V27.1478H41.6656V27.3728H43.6656ZM43.6656 27.1478C43.6656 25.4226 43.0385 23.6718 41.137 22.3904C39.3162 21.1633 36.4259 20.4364 32.0552 20.3729L32.0261 22.3726C36.2553 22.4341 38.6775 23.1447 40.0193 24.0489C41.2803 24.8987 41.6656 25.9729 41.6656 27.1478H43.6656ZM33.0406 21.3728V19.8978H31.0406V21.3728H33.0406ZM32.0406 18.8978H29.6156V20.8978H32.0406V18.8978ZM28.6156 19.8978V21.3728H30.6156V19.8978H28.6156ZM29.6156 20.3728C25.3178 20.3728 22.4516 21.0057 20.6359 22.168C18.7243 23.3918 18.0906 25.1243 18.0906 26.8978H20.0906C20.0906 25.6712 20.482 24.6412 21.7141 23.8525C23.0422 23.0023 25.4384 22.3728 29.6156 22.3728V20.3728ZM18.0906 26.8978V27.1228H20.0906V26.8978H18.0906ZM18.0906 27.1228C18.0906 28.7941 18.6574 30.4522 20.29 31.6786C21.862 32.8594 24.3002 33.5448 27.8367 33.6473L27.8946 31.6482C24.531 31.5507 22.5818 30.8986 21.4912 30.0795C20.4613 29.3058 20.0906 28.3014 20.0906 27.1228H18.0906ZM27.8228 33.6468L29.5728 33.7218L29.6584 31.7237L27.9084 31.6487L27.8228 33.6468ZM28.6156 32.7228V36.3728H30.6156V32.7228H28.6156ZM29.7242 35.3787C28.3717 35.2309 27.7584 34.8571 27.4805 34.5704C27.2166 34.2983 27.1406 33.9864 27.1406 33.6728H25.1406C25.1406 34.3341 25.3147 35.2097 26.0445 35.9626C26.7604 36.7009 27.8845 37.1896 29.507 37.3668L29.7242 35.3787ZM26.1406 32.6728H18.8406V34.6728H26.1406V32.6728ZM17.8406 33.6728V33.9478H19.8406V33.6728H17.8406ZM17.8406 33.9478C17.8406 35.2823 18.1335 37.2253 19.9019 38.8214C21.6364 40.3868 24.618 41.4588 29.6028 41.5227L29.6284 39.5228C24.8633 39.4617 22.4574 38.4337 21.2419 37.3366C20.0603 36.2702 19.8406 34.9883 19.8406 33.9478H17.8406ZM28.6156 40.5228V42.0728H30.6156V40.5228H28.6156ZM29.6156 43.0728H32.0406V41.0728H29.6156V43.0728Z" fill="url(#paint3_linear)"/>
<defs>
<linearGradient id="paint0_linear" x1="1" y1="33.4314" x2="58.9129" y2="33.77" gradientUnits="userSpaceOnUse">
<stop stop-color="#FEBD2F"/>
<stop offset="0.248726" stop-color="#F95721"/>
<stop offset="0.502913" stop-color="#FC1370"/>
<stop offset="0.671875" stop-color="#BA2DB2"/>
<stop offset="0.776042" stop-color="#8342E9"/>
<stop offset="0.963542" stop-color="#3F89FC"/>
</linearGradient>
<linearGradient id="paint1_linear" x1="7.51563" y1="32.7781" x2="53.1947" y2="33.0452" gradientUnits="userSpaceOnUse">
<stop stop-color="#FEBD2F"/>
<stop offset="0.248726" stop-color="#F95721"/>
<stop offset="0.502913" stop-color="#FC1370"/>
<stop offset="0.671875" stop-color="#BA2DB2"/>
<stop offset="0.776042" stop-color="#8342E9"/>
<stop offset="0.963542" stop-color="#3F89FC"/>
</linearGradient>
<linearGradient id="paint2_linear" x1="18.5156" y1="31.546" x2="47.9531" y2="31.7309" gradientUnits="userSpaceOnUse">
<stop stop-color="#FEBD2F"/>
<stop offset="0.248726" stop-color="#F95721"/>
<stop offset="0.502913" stop-color="#FC1370"/>
<stop offset="0.671875" stop-color="#BA2DB2"/>
<stop offset="0.776042" stop-color="#8342E9"/>
<stop offset="0.963542" stop-color="#3F89FC"/>
</linearGradient>
<linearGradient id="paint3_linear" x1="18.5156" y1="31.546" x2="47.9531" y2="31.7309" gradientUnits="userSpaceOnUse">
<stop stop-color="#FEBD2F"/>
<stop offset="0.248726" stop-color="#F95721"/>
<stop offset="0.502913" stop-color="#FC1370"/>
<stop offset="0.671875" stop-color="#BA2DB2"/>
<stop offset="0.776042" stop-color="#8342E9"/>
<stop offset="0.963542" stop-color="#3F89FC"/>
</linearGradient>
</defs>
</svg>
