<svg width="51" height="48" viewBox="0 0 51 48" fill="none" xmlns="http://www.w3.org/2000/svg">
<path d="M6.99399 9.32182C9.31012 6.63586 11.7939 4.64876 14.4453 3.36053C17.0966 2.07229 19.7407 1.57858 22.3775 1.87941C24.9789 2.14978 27.3579 3.21408 29.5143 5.07233C30.8931 6.26038 31.8714 7.62699 32.4492 9.17215C32.9917 10.6868 33.2837 12.1705 33.3251 13.6231C33.3666 15.0756 33.2959 16.8012 33.1131 18.7997C33.0071 20.4948 32.9705 21.7878 33.0034 22.6786C33.0668 23.534 33.346 24.175 33.8409 24.6015L34.9545 25.5611L27.1376 34.6262L24.4862 32.3415C23.6377 31.6103 23.1062 30.6903 22.8916 29.5814C22.6417 28.442 22.4741 26.8499 22.3887 24.8051C22.3692 22.7554 22.2119 21.0798 21.9169 19.7784C21.6524 18.4416 21.0251 17.3467 20.0353 16.4937C19.0101 15.6103 17.8697 15.182 16.6141 15.2089C15.3231 15.2053 14.2205 15.7337 13.3062 16.7939C11.3253 19.0911 11.8197 21.5192 14.7893 24.0781C15.4256 24.6264 15.9181 25.02 16.2667 25.2588L7.85554 35.0131C7.57759 34.8352 7.2643 34.6268 6.91566 34.388C6.56701 34.1492 6.1629 33.8318 5.70332 33.4357C3.44077 31.4861 2.01204 29.1769 1.41712 26.5082C0.786848 23.809 0.95687 20.9678 1.92718 17.9846C2.92797 14.9661 4.61691 12.0785 6.99399 9.32182ZM39.634 46.5032L29.8238 38.0497L38.8749 27.5532L48.6852 36.0067L39.634 46.5032Z" fill="url(#paint0_linear)" fill-opacity="0.2"/>
<path d="M14.4453 3.36053L14.8824 4.25976L14.4453 3.36053ZM22.3775 1.87942L22.264 2.87284L22.274 2.87388L22.3775 1.87942ZM32.4492 9.17215L33.391 8.83506L33.3861 8.822L32.4492 9.17215ZM33.3251 13.6231L32.3254 13.6516L33.3251 13.6231ZM33.1131 18.7997L32.1171 18.7087L32.1158 18.723L32.1149 18.7374L33.1131 18.7997ZM33.0034 22.6786L32.0039 22.7155L32.0046 22.734L32.006 22.7525L33.0034 22.6786ZM34.9545 25.5611L35.7121 26.2138L36.3651 25.4565L35.6076 24.8037L34.9545 25.5611ZM27.1376 34.6262L26.4845 35.3835L27.2421 36.0363L27.8951 35.279L27.1376 34.6262ZM22.8916 29.5814L23.8736 29.3915L23.8712 29.3793L23.8686 29.3672L22.8916 29.5814ZM22.3887 24.8051L21.3886 24.8147L21.3887 24.8308L21.3894 24.8468L22.3887 24.8051ZM21.9169 19.7784L20.9357 19.9725L20.9384 19.986L20.9415 19.9994L21.9169 19.7784ZM16.6141 15.2089L16.6112 16.2087L16.6233 16.2088L16.6354 16.2085L16.6141 15.2089ZM16.2667 25.2588L17.0243 25.9116L17.7539 25.0655L16.8321 24.434L16.2667 25.2588ZM7.85554 35.0131L7.31619 35.8551L8.0467 36.3227L8.61308 35.6659L7.85554 35.0131ZM6.91566 34.388L7.48105 33.5632L6.91566 34.388ZM1.41712 26.5082L2.39339 26.2907L2.39111 26.2809L1.41712 26.5082ZM1.92718 17.9846L0.977783 17.6701L0.976028 17.6755L1.92718 17.9846ZM39.634 46.5032L38.981 47.2605L39.7385 47.9133L40.3916 47.1559L39.634 46.5032ZM29.8238 38.0497L29.0662 37.3969L28.4132 38.1542L29.1707 38.807L29.8238 38.0497ZM38.8749 27.5532L39.528 26.7959L38.7704 26.1431L38.1174 26.9005L38.8749 27.5532ZM48.6852 36.0067L49.4428 36.6595L50.0958 35.9022L49.3383 35.2494L48.6852 36.0067ZM7.75154 9.9746C9.99648 7.3712 12.3758 5.47769 14.8824 4.25976L14.0081 2.4613C11.212 3.81984 8.62376 5.90053 6.23644 8.66905L7.75154 9.9746ZM14.8824 4.25976C17.3825 3.04504 19.8365 2.59584 22.264 2.87279L22.4909 0.886037C19.6449 0.561332 16.8108 1.09954 14.0081 2.4613L14.8824 4.25976ZM22.274 2.87388C24.6542 3.12126 26.8451 4.09229 28.8613 5.82965L30.1674 4.31501C27.8706 2.33588 25.3036 1.1783 22.481 0.884948L22.274 2.87388ZM28.8613 5.82965C30.1261 6.91954 30.9993 8.15034 31.5124 9.5223L33.3861 8.822C32.7435 7.10364 31.6601 5.60123 30.1674 4.31501L28.8613 5.82965ZM31.5076 9.50921C32.0183 10.9353 32.2872 12.3149 32.3254 13.6516L34.3249 13.5945C34.2801 12.026 33.9651 10.4384 33.3909 8.8351L31.5076 9.50921ZM32.3254 13.6516C32.3654 15.0525 32.2975 16.7362 32.1171 18.7087L34.1091 18.8907C34.2943 16.8662 34.3678 15.0988 34.3249 13.5945L32.3254 13.6516ZM32.1149 18.7374C32.0083 20.4417 31.9691 21.7742 32.0039 22.7155L34.0029 22.6416C33.9719 21.8014 34.0059 20.548 34.1113 18.8621L32.1149 18.7374ZM32.006 22.7525C32.0826 23.7864 32.435 24.71 33.1879 25.3588L34.494 23.8442C34.257 23.64 34.051 23.2817 34.0009 22.6046L32.006 22.7525ZM33.1879 25.3588L34.3015 26.3184L35.6076 24.8037L34.494 23.8442L33.1879 25.3588ZM34.197 24.9083L26.38 33.9734L27.8951 35.279L35.7121 26.2138L34.197 24.9083ZM27.7906 33.8689L25.1392 31.5841L23.8331 33.0988L26.4845 35.3835L27.7906 33.8689ZM25.1392 31.5841C24.4627 31.0012 24.0459 30.2818 23.8736 29.3915L21.9097 29.7713C22.1665 31.0989 22.8127 32.2195 23.8331 33.0988L25.1392 31.5841ZM23.8686 29.3672C23.637 28.3115 23.4725 26.7865 23.388 24.7634L21.3894 24.8468C21.4757 26.9133 21.6464 28.5725 21.9147 29.7956L23.8686 29.3672ZM23.3889 24.7955C23.369 22.7082 23.2091 20.9547 22.8923 19.5574L20.9415 19.9994C21.2147 21.205 21.3694 22.8026 21.3886 24.8147L23.3889 24.7955ZM22.8981 19.5843C22.5922 18.0385 21.8551 16.7418 20.6883 15.7364L19.3822 17.2511C20.1952 17.9516 20.7125 18.8446 20.9357 19.9725L22.8981 19.5843ZM20.6883 15.7364C19.4918 14.7054 18.1154 14.1767 16.5927 14.2093L16.6354 16.2085C17.6239 16.1874 18.5283 16.5152 19.3822 17.2511L20.6883 15.7364ZM16.6169 14.2091C15.0071 14.2046 13.6353 14.881 12.5487 16.1412L14.0638 17.4467C14.8057 16.5864 15.6391 16.2061 16.6112 16.2087L16.6169 14.2091ZM12.5487 16.1412C11.4064 17.4658 10.8884 18.9519 11.2112 20.5373C11.5217 22.0624 12.5748 23.4899 14.1362 24.8354L15.4423 23.3208C14.0342 22.1074 13.3552 21.0413 13.1714 20.1384C12.9998 19.2958 13.2251 18.4193 14.0638 17.4467L12.5487 16.1412ZM14.1362 24.8354C14.7789 25.3892 15.3054 25.8124 15.7014 26.0836L16.8321 24.434C16.5308 24.2276 16.0723 23.8636 15.4423 23.3208L14.1362 24.8354ZM15.5092 24.606L7.09799 34.3603L8.61308 35.6659L17.0243 25.9116L15.5092 24.606ZM8.39488 34.1711C8.12774 34.0001 7.82335 33.7977 7.48105 33.5632L6.35026 35.2128C6.70525 35.456 7.02745 35.6703 7.31619 35.8551L8.39488 34.1711ZM7.48105 33.5632C7.17278 33.3521 6.79891 33.0598 6.35636 32.6784L5.05027 34.1931C5.52689 34.6038 5.96124 34.9463 6.35026 35.2128L7.48105 33.5632ZM6.35636 32.6784C4.24097 30.8556 2.93709 28.7298 2.39335 26.2907L0.44089 26.7257C1.08699 29.624 2.64057 32.1166 5.05027 34.1931L6.35636 32.6784ZM2.39111 26.2809C1.80755 23.7818 1.95682 21.1269 2.87834 18.2937L0.976028 17.6755C-0.0430831 20.8088 -0.233855 23.8363 0.443126 26.7355L2.39111 26.2809ZM2.87657 18.2991C3.83066 15.4214 5.44768 12.6463 7.75154 9.9746L6.23644 8.66905C3.78614 11.5106 2.02529 14.5107 0.977797 17.6701L2.87657 18.2991ZM40.2871 45.7458L30.4768 37.2924L29.1707 38.807L38.981 47.2605L40.2871 45.7458ZM30.5813 38.7025L39.6325 28.206L38.1174 26.9005L29.0662 37.3969L30.5813 38.7025ZM38.2219 28.3106L48.0322 36.764L49.3383 35.2494L39.528 26.7959L38.2219 28.3106ZM47.9277 35.3539L38.8765 45.8504L40.3916 47.1559L49.4428 36.6595L47.9277 35.3539Z" fill="url(#paint1_linear)"/>
<defs>
<linearGradient id="paint0_linear" x1="56.9087" y1="85.4116" x2="89.7795" y2="47.3924" gradientUnits="userSpaceOnUse">
<stop stop-color="#FEBD2F"/>
<stop offset="0.248726" stop-color="#F95721"/>
<stop offset="0.502913" stop-color="#FC1370"/>
<stop offset="0.671875" stop-color="#BA2DB2"/>
<stop offset="0.776042" stop-color="#8342E9"/>
<stop offset="0.963542" stop-color="#3F89FC"/>
</linearGradient>
<linearGradient id="paint1_linear" x1="56.9087" y1="85.4116" x2="89.7795" y2="47.3924" gradientUnits="userSpaceOnUse">
<stop stop-color="#FEBD2F"/>
<stop offset="0.248726" stop-color="#F95721"/>
<stop offset="0.502913" stop-color="#FC1370"/>
<stop offset="0.671875" stop-color="#BA2DB2"/>
<stop offset="0.776042" stop-color="#8342E9"/>
<stop offset="0.963542" stop-color="#3F89FC"/>
</linearGradient>
</defs>
</svg>
