<svg width="33" height="33" viewBox="0 0 33 33" fill="none" xmlns="http://www.w3.org/2000/svg">
<path fill-rule="evenodd" clip-rule="evenodd" d="M16.5 33C25.6127 33 33 25.6127 33 16.5C33 7.3873 25.6127 0 16.5 0C7.3873 0 0 7.3873 0 16.5C0 25.6127 7.3873 33 16.5 33ZM20.4454 15.3174H12.5529H11.4255C11.1151 15.3174 10.8618 15.57 10.8618 15.8812V23.7737C10.8618 24.0848 11.1151 24.3374 11.4255 24.3374H21.573C21.8835 24.3374 22.1368 24.0848 22.1368 23.7737V15.8812C22.1368 15.57 21.8835 15.3174 21.573 15.3174H20.4454ZM11.9892 14.1899V11.9349C11.9892 9.44764 14.0119 7.4249 16.4992 7.4249C18.9865 7.4249 21.0092 9.44764 21.0092 11.9349V14.1899H21.573C22.5051 14.1899 23.2643 14.9483 23.2643 15.8812V23.7737C23.2643 24.7065 22.5051 25.4649 21.573 25.4649H11.4255C10.4935 25.4649 9.7343 24.7065 9.7343 23.7737V15.8812C9.7343 14.9483 10.4935 14.1899 11.4255 14.1899H11.9892ZM13.1167 14.1899H19.8817V11.9349C19.8817 10.07 18.3641 8.5524 16.4992 8.5524C14.6343 8.5524 13.1167 10.07 13.1167 11.9349V14.1899ZM15.9553 20.094C15.4048 19.8706 15.0156 19.3301 15.0156 18.7003C15.0156 17.8712 15.6899 17.1969 16.519 17.1969C17.348 17.1969 18.0223 17.8712 18.0223 18.7003C18.0223 19.33 17.6333 19.8705 17.0828 20.0939V21.8949C17.0828 22.206 16.8303 22.4586 16.5191 22.4586C16.2079 22.4586 15.9553 22.206 15.9553 21.8949V20.094ZM16.1431 18.7003C16.1431 18.4928 16.3122 18.3244 16.519 18.3244C16.7257 18.3244 16.8948 18.4928 16.8948 18.7003C16.8948 18.9077 16.7257 19.0761 16.519 19.0761C16.3122 19.0761 16.1431 18.9077 16.1431 18.7003Z" fill="#111111"/>
</svg>
