<svg width="320" height="180" viewBox="0 0 320 180" fill="none" xmlns="http://www.w3.org/2000/svg">
<g clip-path="url(#clip0)">
<path d="M0 10C0 4.47716 4.47715 0 10 0H310C315.523 0 320 4.47715 320 10V180H0V10Z" fill="#111111"/>
<path d="M-9.66504 83.3414C-9.66504 83.3414 10.3598 81.1246 26.2625 57.1407C41.5695 34.0543 52.5231 32.4409 58.7493 50.7382C60.8938 57.0435 68.695 116.904 76.6511 116.193C84.6072 115.482 87.6214 36.5959 100.882 35.1717C114.142 33.75 115.3 83.6201 125.908 84.331C136.516 85.0418 151.773 43.3487 158.199 31.5281C168.343 12.8677 179.497 25.3096 182.325 28.7998C191.136 39.6693 177.066 134.641 193.226 156.748C205.297 173.263 210.721 55.2639 224.643 55.2639C238.566 55.2639 242.728 90.4369 255.989 89.0127C269.249 87.5885 274.886 41.4873 287.484 39.3548C300.082 37.2198 290.765 88.1919 303.372 95.1416C316.371 102.306 337.87 116.101 344.502 111.12" stroke="url(#paint0_linear)" stroke-width="0.165741" stroke-miterlimit="10"/>
<path d="M-9.55322 83.7015C-9.55322 83.7015 10.0308 81.344 25.6499 58.7715C28.1018 55.2302 30.4632 52.2437 32.6577 49.7584C43.9687 36.938 51.932 38.5361 57.5839 53.0645C60.1669 59.7048 68.3493 116.867 76.1482 115.995C84.0018 115.09 86.9636 39.3262 99.6638 37.1681C103.405 36.5468 106.15 40.1955 108.482 45.7236C114.07 58.9556 117.025 83.0162 124.366 83.8907C127.44 84.2563 130.904 81.0423 134.426 76.0333C142.783 64.2433 151.828 42.259 156.484 34.1561C160.067 27.9172 163.651 25.2529 166.949 24.6623C172.918 23.5935 178.05 29.3951 179.942 31.7705C188.835 42.888 176.813 134.175 192.788 155.18C204.661 170.851 210.504 58.1476 224.359 57.0712C237.634 56.0407 241.835 89.1937 254.468 87.1789C267.376 85.1205 273.028 41.001 285.087 38.8762C297.661 36.6593 289.652 88.5289 302.074 95.7241C302.391 95.9082 302.712 96.0923 303.036 96.2738C316.039 103.502 337.837 115.965 344.344 111.339" stroke="url(#paint1_linear)" stroke-width="0.165741" stroke-miterlimit="10"/>
<path d="M-9.43457 84.0607C-9.43457 84.0607 9.72058 81.5601 25.0442 60.4016C27.4794 57.0392 29.8455 54.2317 31.9924 51.8742C42.958 39.8235 50.4494 41.6568 56.4207 55.3874C59.4611 62.3806 68.0081 116.853 75.6473 115.795C83.4032 114.721 86.3007 42.0071 98.4481 39.1613C102.018 38.3251 104.65 41.5929 106.957 46.7169C112.497 59.0132 115.621 82.1942 122.826 83.4445C125.814 83.9636 129.157 81.0666 132.593 76.4641C140.714 65.5819 149.966 44.6842 154.772 36.7782C158.368 30.8641 161.844 28.2509 165.028 27.6781C170.68 26.663 175.61 32.2448 177.563 34.7327C186.539 46.0956 176.563 133.703 192.356 153.604C204.031 168.429 210.21 61.0587 224.085 58.87C236.666 56.8858 240.962 87.9191 252.955 85.3341C265.531 82.6237 271.176 40.4985 282.699 38.3865C295.251 36.0853 288.541 88.8677 300.784 96.2956C301.108 96.4925 301.432 96.6868 301.761 96.8683C314.695 104.038 337.65 115.935 344.196 111.548" stroke="url(#paint2_linear)" stroke-width="0.165741" stroke-miterlimit="10"/>
<path d="M-9.32275 84.4194C-9.32275 84.4194 9.41065 81.7807 24.4317 62.0311C26.8502 58.8503 29.2234 56.2217 31.3227 53.9895C41.9403 42.7033 49.0553 44.7489 55.2529 57.7124C58.7699 65.0636 67.6624 116.823 75.1443 115.593C82.8002 114.335 85.6357 44.7131 97.2303 41.1538C100.626 40.1106 103.149 42.9923 105.429 47.7123C110.924 59.0778 114.212 81.3716 121.284 83.0029C124.184 83.6702 127.42 81.1031 130.758 76.8995C138.664 66.9429 148.095 47.1166 153.059 39.4075C156.657 33.8155 160.036 31.256 163.107 30.7037C168.44 29.7449 173.167 35.1093 175.183 37.7045C184.216 49.336 176.362 133.193 191.922 152.035C203.436 165.98 209.84 64.0254 223.806 60.6759C235.66 57.8326 240.095 86.6235 251.437 83.4964C263.701 80.1161 269.317 39.9981 280.304 37.904C292.835 35.5158 287.424 89.2239 299.488 96.8742C299.817 97.0838 300.145 97.2858 300.479 97.4699C313.344 104.581 337.46 115.913 344.041 111.761" stroke="url(#paint3_linear)" stroke-width="0.165741" stroke-miterlimit="10"/>
<path d="M-9.2041 84.7791C-9.2041 84.7791 9.11947 82.0023 23.826 63.6615C26.2326 60.6623 28.6058 58.2127 30.6574 56.1084C40.9224 45.5892 47.7372 47.8214 54.092 60.0384C58.1046 67.7526 67.3236 116.797 74.6459 115.396C82.2017 113.951 84.9728 47.4277 96.017 43.15C99.2409 41.9022 101.655 44.3952 103.909 48.7087C109.361 59.146 112.808 80.5449 119.749 82.5597C122.564 83.3754 125.687 81.1381 128.928 77.3334C136.622 68.2998 146.225 49.5448 151.348 42.0326C154.943 36.7628 158.229 34.2596 161.186 33.7226C166.202 32.82 170.727 37.962 172.804 40.6697C181.916 52.5517 176.126 132.706 191.488 150.461C202.813 163.55 209.411 67.0546 223.527 62.4777C234.633 58.875 239.236 85.2931 249.921 81.6571C261.889 77.584 267.46 39.4884 277.914 37.4173C290.423 34.9397 286.303 89.5861 298.196 97.4486C298.532 97.6711 298.863 97.8808 299.204 98.0674C312.002 105.119 337.273 115.889 343.893 111.972" stroke="url(#paint4_linear)" stroke-width="0.165741" stroke-miterlimit="10"/>
<path d="M-9.09229 85.1398C-9.09229 85.1398 8.83336 82.23 23.2158 65.293C25.6105 62.4727 27.9814 60.2021 29.99 58.2256C39.9 48.4684 46.4789 50.8668 52.9267 62.3653C57.454 70.44 66.9779 116.766 74.1429 115.199C81.5987 113.568 84.3055 50.1458 94.7992 45.147C97.8492 43.6947 100.156 45.799 102.381 49.7086C107.793 59.2203 111.395 79.714 118.208 82.12C120.934 83.0814 123.95 81.174 127.093 77.7682C134.575 69.6576 144.342 51.974 149.634 44.6586C153.218 39.7059 156.42 37.2615 159.263 36.745C163.959 35.8986 168.284 40.8181 170.421 43.641C179.612 55.7736 175.883 132.228 191.052 148.891C202.186 161.124 208.946 70.1664 223.245 64.283C233.598 60.0232 238.378 83.9303 248.4 79.8188C260.083 75.0246 265.599 38.9772 275.516 36.9342C288.004 34.3645 285.174 89.9595 296.897 98.0292C297.238 98.2644 297.576 98.4843 297.919 98.671C310.648 105.664 337.08 115.869 343.738 112.189" stroke="url(#paint5_linear)" stroke-width="0.165741" stroke-miterlimit="10"/>
<path d="M-8.97363 85.4997C-8.97363 85.4997 8.56838 82.4621 22.6101 66.9237C24.9929 64.2849 27.3637 62.1934 29.3271 60.3422C38.8797 51.3444 45.2727 53.886 51.7682 64.6889C56.8339 73.1165 66.6415 116.732 73.6468 114.999C81.0025 113.178 83.645 52.8657 93.5883 47.1408C96.4643 45.4839 98.666 47.2022 100.861 50.7026C106.238 59.2913 109.991 78.8747 116.673 81.6745C119.31 82.7817 122.22 81.2066 125.263 78.1997C132.537 71.0122 142.457 54.3948 147.925 47.284C151.492 42.6432 154.616 40.2627 157.347 39.7641C161.726 38.974 165.851 43.6711 168.048 46.6064C177.317 58.987 175.646 131.744 190.622 147.318C201.564 158.697 208.474 73.3645 222.971 66.085C232.578 61.2601 237.53 82.5285 246.887 77.9772C258.293 72.4287 263.745 38.455 273.128 36.4478C285.593 33.7809 284.051 90.3374 295.607 98.6039C295.953 98.8519 296.296 99.0795 296.644 99.2687C309.304 106.203 336.896 115.843 343.589 112.398" stroke="url(#paint6_linear)" stroke-width="0.165741" stroke-miterlimit="10"/>
<path d="M-8.85498 85.8587C-8.85498 85.8587 8.3177 82.7009 22.0044 68.5535C24.38 66.0963 26.7437 64.1812 28.6619 62.4604C37.8522 54.222 44.1047 56.8863 50.6049 67.0142C56.2306 75.7819 66.3002 116.698 73.1483 114.8C80.4039 112.791 82.9821 55.5925 92.375 49.1363C95.0771 47.28 97.1787 48.607 99.3375 51.7009C104.689 59.3742 108.585 78.032 115.135 81.2358C117.685 82.4836 120.489 81.246 123.432 78.638C130.502 72.371 140.562 56.8224 146.216 49.9136C149.759 45.5847 152.812 43.2682 155.428 42.79C159.488 42.0536 163.413 46.5308 165.672 49.5786C175.022 62.2047 175.405 131.27 190.193 145.749C200.939 156.274 208.016 76.6615 222.696 67.8913C231.579 62.5857 236.676 81.0952 245.376 76.1424C256.503 69.8038 261.891 37.937 270.74 35.9682C283.183 33.2016 282.921 90.7296 294.318 99.1854C294.671 99.4462 295.016 99.684 295.369 99.8757C307.962 106.751 336.71 115.828 343.441 112.619" stroke="url(#paint7_linear)" stroke-width="0.165741" stroke-miterlimit="10"/>
<path d="M-8.74316 86.218C-8.74316 86.218 8.07925 82.9503 21.3918 70.1836C23.7627 67.9105 26.1169 66.1692 27.9921 64.5763C36.8132 57.0922 42.9631 59.8613 49.4371 69.3398C55.6467 78.4322 65.9546 116.661 72.643 114.602C79.7985 112.401 82.3123 58.3246 91.1548 51.132C93.6853 49.0737 95.6869 50.0121 97.8076 52.6968C103.143 59.4548 107.174 77.1819 113.593 80.7923C116.057 82.1781 118.757 81.2781 121.595 79.0714C128.467 73.7249 138.651 59.2374 144.5 52.5383C148.015 48.5137 151.003 46.2687 153.505 45.8085C157.246 45.1284 160.973 49.3831 163.289 52.5434C172.722 65.4175 175.155 130.788 189.757 144.176C200.308 153.849 207.594 80.0533 222.417 69.6927C230.602 63.9728 235.806 79.6212 243.858 74.3002C254.699 67.1332 260.03 37.4039 268.348 35.4811C280.767 32.6097 281.784 91.1222 293.024 99.7595C293.381 100.033 293.732 100.279 294.089 100.473C306.613 107.29 336.521 115.802 343.289 112.83" stroke="url(#paint8_linear)" stroke-width="0.165741" stroke-miterlimit="10"/>
<path d="M-8.62451 86.577C-8.62451 86.577 7.86193 83.2121 20.7861 71.8133C23.1546 69.7243 25.4945 68.1544 27.3268 66.6944C35.7762 59.9595 41.8523 62.8181 48.2762 71.665C55.0981 81.0617 65.6133 116.623 72.1445 114.404C79.1999 112.006 81.6542 61.0589 89.9415 53.1274C92.3005 50.8696 94.2091 51.4168 96.2845 53.695C101.612 59.5427 105.77 76.3289 112.056 80.3509C114.434 81.8723 117.031 81.3148 119.764 79.5071C126.443 75.0836 136.739 61.647 142.789 55.1678C146.268 51.4424 149.196 49.2767 151.584 48.8343C155.008 48.2104 158.535 52.2427 160.91 55.5181C170.427 68.6377 174.904 130.321 189.322 142.612C199.673 151.436 207.241 83.5547 222.138 71.504C229.66 65.4185 234.924 78.1264 242.342 72.4679C252.878 64.4315 258.17 36.8782 265.955 35.004C278.35 32.02 280.645 91.5272 291.729 100.343C292.092 100.632 292.449 100.885 292.809 101.08C305.264 107.835 336.333 115.785 343.138 113.051" stroke="url(#paint9_linear)" stroke-width="0.165741" stroke-miterlimit="10"/>
<path d="M-8.5127 86.9367C-8.5127 86.9367 7.65684 83.4925 20.1736 73.4438C22.5421 71.5441 24.8653 70.1429 26.6571 68.8107C34.7276 62.8173 40.756 65.7526 47.1085 73.9885C54.569 83.6613 65.2677 116.579 71.6416 114.204C78.5969 111.611 80.9964 63.7966 88.7237 55.1184C90.9111 52.6638 92.7316 52.8172 94.7569 54.6863C100.097 59.6186 104.369 75.4638 110.514 79.9026C112.806 81.5595 115.306 81.3473 117.927 79.9333C124.42 76.4354 134.811 64.0369 141.073 57.7853C144.509 54.3539 147.385 52.27 149.661 51.8456C152.766 51.2779 156.094 55.0852 158.527 58.4757C168.13 71.8381 174.647 129.839 188.886 141.028C199.034 149.003 206.976 87.131 221.857 73.2955C228.755 66.8802 234.018 76.5837 240.821 70.6184C251.022 61.6744 256.305 36.3276 263.558 34.5097C275.929 31.4081 279.496 91.9201 290.428 100.913C290.795 101.215 291.157 101.475 291.522 101.672C303.91 108.369 336.135 115.756 342.978 113.255" stroke="url(#paint10_linear)" stroke-width="0.165741" stroke-miterlimit="10"/>
<path d="M-8.39404 87.2956C-8.39404 87.2956 7.47526 83.7926 19.5679 75.0735C21.9387 73.3629 24.2405 72.1254 25.9942 70.9262C33.6811 65.6692 39.6809 68.6659 45.95 76.3136C54.0776 86.2293 64.9264 116.536 71.1455 114.003C77.9984 111.21 80.3478 66.536 87.5128 57.1112C89.531 54.4597 91.2704 54.2142 93.2362 55.6819C98.607 59.6937 102.977 74.5979 108.979 79.4612C111.19 81.251 113.588 81.3891 116.099 80.3689C122.413 77.8069 132.881 66.426 139.367 60.4147C142.758 57.2723 145.583 55.2753 147.745 54.8713C150.533 54.3599 153.661 57.9447 156.153 61.4477C165.839 75.0556 174.394 129.375 188.457 139.462C198.403 146.593 206.833 90.8088 221.582 75.1042C227.899 68.3795 233.096 75.0352 239.308 68.7835C249.137 58.8933 254.443 35.789 261.17 34.0299C273.512 30.8005 278.352 92.3327 289.139 101.494C289.51 101.811 289.877 102.077 290.247 102.277C302.566 108.914 335.951 115.736 342.83 113.473" stroke="url(#paint11_linear)" stroke-width="0.165741" stroke-miterlimit="10"/>
<path d="M-8.28223 87.656C-8.28223 87.656 7.30591 84.1198 18.9577 76.7047C21.3357 75.191 23.6113 74.1094 25.3245 73.0457C32.6206 68.5149 38.6109 71.5653 44.7823 78.6403C53.6128 88.7606 64.5784 116.495 70.6402 113.806C77.3906 110.811 79.6947 69.2794 86.2926 59.108C88.1417 56.257 89.8072 55.605 91.7063 56.6789C97.1295 59.7472 101.581 73.731 107.435 79.0187C109.565 80.9415 111.865 81.435 114.259 80.8034C120.402 79.1875 130.932 68.7962 137.649 63.0405C140.987 60.1793 143.77 58.277 145.819 57.8909C148.288 57.4332 151.223 60.793 153.771 64.4136C163.566 78.2465 174.129 128.912 188.021 137.887C197.759 144.179 206.806 94.5443 221.301 76.9067C227.074 69.8777 232.14 73.4702 237.79 66.9424C247.197 56.0729 252.58 35.2366 258.775 33.5439C271.089 30.179 277.196 92.7442 287.842 102.069C288.219 102.399 288.591 102.675 288.965 102.875C301.214 109.454 335.76 115.713 342.675 113.685" stroke="url(#paint12_linear)" stroke-width="0.165741" stroke-miterlimit="10"/>
<path d="M-8.16357 88.0136C-8.16357 88.0136 7.15293 84.4774 18.352 78.3332C20.7395 77.024 22.9841 76.0882 24.6616 75.16C31.5621 71.3451 37.5524 74.4415 43.6214 80.9617C53.1882 91.2379 64.2348 116.447 70.1417 113.603C76.7872 110.407 79.0533 72.0176 85.0793 61.0995C86.7616 58.0517 88.358 56.9778 90.1832 57.6707C95.6779 59.7597 100.196 72.8562 105.898 78.571C107.947 80.6267 110.149 81.4807 112.429 81.2327C118.402 80.5807 128.98 71.1457 135.94 65.6611C139.226 63.0735 141.966 61.2734 143.901 60.9078C146.052 60.5063 148.788 63.6437 151.392 67.3768C161.269 81.4552 173.866 128.454 187.586 136.311C197.115 141.768 206.92 98.3308 221.022 78.7065C226.295 71.3681 231.16 71.8948 236.271 65.1011C245.202 53.2294 250.711 34.6815 256.382 33.0578C268.663 29.5421 276.042 93.1582 286.548 102.644C286.929 102.99 287.306 103.271 287.685 103.473C299.865 109.993 335.569 115.687 342.522 113.895" stroke="url(#paint13_linear)" stroke-width="0.165741" stroke-miterlimit="10"/>
<path d="M-8.04492 88.3746C-8.04492 88.3746 7.00709 84.8742 17.7463 79.9649C20.1457 78.868 22.3569 78.0651 23.9963 77.2802C30.4965 74.1658 36.4916 77.3032 42.4604 83.2915C52.8017 93.6675 63.8911 116.404 69.6456 113.409C76.1863 110.009 78.4189 74.7642 83.8684 63.0995C85.3838 59.8548 86.9112 58.3436 88.6625 58.6735C94.2311 59.7218 98.8179 71.9899 104.363 78.1342C106.336 80.3203 108.432 81.5477 110.598 81.673C116.398 82.0079 127.018 73.4806 134.228 68.2952C137.457 65.9735 140.161 64.2834 141.982 63.9356C143.814 63.5904 146.35 66.5053 149.016 70.3535C158.976 84.6799 173.604 128.017 187.157 134.747C196.476 139.375 207.175 102.156 220.749 80.5172C225.558 72.8516 230.159 70.333 234.76 63.2683C243.155 50.3814 248.85 34.1296 253.994 32.5801C266.237 28.8956 274.886 93.5805 285.258 103.228C285.644 103.588 286.028 103.877 286.409 104.079C298.523 110.541 335.385 115.67 342.376 114.115" stroke="url(#paint14_linear)" stroke-width="0.165741" stroke-miterlimit="10"/>
<path d="M-7.93311 88.7355C-7.93311 88.7355 6.85203 85.3169 17.1337 81.5966C19.5451 80.7247 21.7206 80.0369 23.3266 79.3976C29.4265 76.966 35.4263 80.1417 41.2927 85.6161C52.4465 96.0227 63.5383 116.353 69.1402 113.21C75.5737 109.602 77.8016 77.5157 82.6482 65.0942C84.004 61.6552 85.4504 59.7989 87.1326 59.6685C92.7345 59.2363 97.4357 71.1158 102.818 77.6922C104.715 80.0087 106.702 81.6145 108.761 82.108C114.37 83.4478 125.045 75.7873 132.513 70.9214C135.684 68.8555 138.35 67.2881 140.056 66.9582C141.572 66.6693 143.907 69.3617 146.631 73.3224C156.672 87.8943 173.33 127.585 186.718 133.177C195.828 136.982 207.549 105.982 220.466 82.3227C224.843 74.3042 229.12 68.7762 233.24 61.4302C241.039 47.5205 246.977 33.5649 251.599 32.0972C263.797 28.2209 273.723 94.0027 283.962 103.809C284.353 104.182 284.741 104.478 285.13 104.686C297.175 111.088 335.197 115.655 342.223 114.335" stroke="url(#paint15_linear)" stroke-width="0.165741" stroke-miterlimit="10"/>
<path d="M-7.81445 89.0935C-7.81445 89.0935 14.7123 83.9771 22.6637 81.5123C40.2224 76.0686 60.5713 117.882 68.6441 113.008C76.717 108.135 78.0418 62.2868 85.6119 60.6632C93.182 59.0395 99.3629 79.2341 106.931 82.5376C114.498 85.8411 132.588 71.057 138.14 69.9755C143.69 68.8913 169.433 125.936 186.289 131.602C203.791 137.486 236.594 35.8687 249.209 31.6089C261.823 27.3491 273.434 99.7636 283.85 105.279C295.825 111.623 335.005 115.624 342.07 114.54" stroke="url(#paint16_linear)" stroke-width="0.165741" stroke-miterlimit="10"/>
<g filter="url(#filter0_f)">
<ellipse cx="163.246" cy="78.084" rx="113.917" ry="31.75" fill="url(#paint17_linear)"/>
</g>
<path d="M66.7819 77.6655H71.3729V69.9752L75.6821 77.6655H78.0854L82.4112 69.9752V77.6655H87.0685V65.3344H80.8698L77.0246 72.2624L73.2457 65.3344H66.7819V77.6655ZM101.907 68.7487H97.4159V72.8922C97.4159 74.1021 96.6038 75.0634 95.0956 75.0634C93.5873 75.0634 93.0404 74.1518 93.0404 73.0082V68.7487H88.5156V74.3839C88.5156 75.8258 89.4769 77.8644 92.7918 77.8644H92.9078C95.6425 77.8644 97.0016 76.5053 97.4325 76.0744V77.6655H101.907V68.7487ZM109.643 77.9141C114.88 77.9141 115.792 76.4888 115.792 74.8479V74.7319C115.792 72.9585 114.963 72.0303 110.936 71.8977L109.063 71.848C107.687 71.7983 107.405 71.5331 107.405 71.1851V71.1685C107.405 70.7707 107.687 70.5552 109.146 70.5552H109.162C110.787 70.5552 110.903 71.0856 110.952 71.384H115.46V71.2679C115.46 69.8591 114.4 68.5001 109.61 68.5001H108.731C103.809 68.5001 102.881 69.8094 102.881 71.2679V71.3674C102.881 72.6933 103.726 74.0358 107.488 74.1684L109.378 74.2181C110.853 74.2678 111.085 74.5165 111.085 74.9474V74.9805C111.085 75.3617 110.836 75.7264 109.245 75.7264H109.212C107.538 75.7264 107.372 74.964 107.372 74.6325H102.781V74.7485C102.781 75.9087 103.361 77.9141 108.731 77.9141H109.643ZM121.236 65.3344H116.728V68.0028H121.236V65.3344ZM121.236 68.7487H116.728V77.6655H121.236V68.7487ZM129.764 77.9141C135.863 77.9141 136.344 75.0302 136.344 73.8203V73.7872H131.736C131.687 74.1352 131.372 75.3949 129.267 75.3949H129.201C127.311 75.3949 126.781 74.2181 126.781 73.1408V73.0579C126.781 72.0469 127.278 70.9862 129.201 70.9862H129.267C131.388 70.9862 131.687 72.1961 131.736 72.5276H136.344V72.4778C136.344 71.2514 135.731 68.5001 129.781 68.5001H128.753C123.035 68.5001 122.206 71.1685 122.206 73.0082V73.3065C122.206 75.1628 123.052 77.9141 128.77 77.9141H129.764ZM152.693 73.8038C157.201 73.8038 158.544 71.9143 158.544 69.6768V69.4116C158.544 67.141 157.251 65.3344 152.693 65.3344H142.417V77.6655H147.124V73.8038H152.693ZM147.124 68.4172H152.13C153.24 68.4172 153.688 68.8315 153.688 69.5442V69.594C153.688 70.2735 153.207 70.721 152.13 70.721H147.124V68.4172ZM163.949 68.7487H159.474V77.6655H163.982V73.174C163.982 72.0469 164.579 71.2514 165.639 71.2514C166.816 71.2514 167.247 72.0801 167.247 73.0745V73.3894H171.623V72.4944C171.623 70.5884 170.827 68.5498 167.877 68.5498H167.678C165.457 68.5498 164.297 69.8757 163.949 70.3895V68.7487ZM180.209 77.9141C186.208 77.9141 186.954 75.2126 186.954 73.3065V73.0082C186.954 71.1519 186.142 68.5001 180.225 68.5001H178.966C173.247 68.5001 172.22 71.1353 172.22 73.0248V73.29C172.22 75.2126 173.281 77.9141 178.982 77.9141H180.209ZM179.612 71.0193C181.816 71.0193 182.396 72.1298 182.396 73.1077V73.174C182.396 74.1021 181.816 75.3783 179.612 75.3783H179.595C177.358 75.3783 176.794 74.1518 176.794 73.174V73.1077C176.794 72.1298 177.374 71.0193 179.595 71.0193H179.612ZM197.541 73.2071C197.541 74.2015 196.663 75.312 194.74 75.312H194.674C192.817 75.312 192.154 74.185 192.154 73.2071V73.1242C192.154 72.1298 192.701 71.069 194.657 71.069H194.74C196.629 71.069 197.541 72.1298 197.541 73.1242V73.2071ZM197.541 65.3344V69.8757C197.127 69.5608 195.917 68.5829 193.166 68.5829H192.851C188.972 68.5829 187.58 70.7044 187.58 72.9751V73.3231C187.58 75.6932 189.088 77.8313 192.983 77.8313H193.265C196.049 77.8313 197.259 76.7042 197.558 76.3727V77.6655H202.049V65.3344H197.541ZM216.744 68.7487H212.253V72.8922C212.253 74.1021 211.441 75.0634 209.933 75.0634C208.424 75.0634 207.877 74.1518 207.877 73.0082V68.7487H203.353V74.3839C203.353 75.8258 204.314 77.8644 207.629 77.8644H207.745C210.479 77.8644 211.839 76.5053 212.269 76.0744V77.6655H216.744V68.7487ZM225.275 77.9141C231.375 77.9141 231.855 75.0302 231.855 73.8203V73.7872H227.248C227.198 74.1352 226.883 75.3949 224.778 75.3949H224.712C222.822 75.3949 222.292 74.2181 222.292 73.1408V73.0579C222.292 72.0469 222.789 70.9862 224.712 70.9862H224.778C226.9 70.9862 227.198 72.1961 227.248 72.5276H231.855V72.4778C231.855 71.2514 231.242 68.5001 225.292 68.5001H224.264C218.546 68.5001 217.718 71.1685 217.718 73.0082V73.3065C217.718 75.1628 218.563 77.9141 224.281 77.9141H225.275ZM240.204 77.6655V74.8977H239.243C238.596 74.8977 238.497 74.6656 238.497 74.1187V71.4834H240.204V68.7487H238.497V66.1465H234.022V68.7487H232.315V71.4834H234.022V75.1297C234.022 76.8368 234.851 77.6655 236.392 77.6655H240.204ZM245.784 65.3344H241.276V68.0028H245.784V65.3344ZM245.784 68.7487H241.276V77.6655H245.784V68.7487ZM254.743 77.9141C260.743 77.9141 261.489 75.2126 261.489 73.3065V73.0082C261.489 71.1519 260.677 68.5001 254.76 68.5001H253.5C247.782 68.5001 246.755 71.1353 246.755 73.0248V73.29C246.755 75.2126 247.815 77.9141 253.517 77.9141H254.743ZM254.147 71.0193C256.351 71.0193 256.931 72.1298 256.931 73.1077V73.174C256.931 74.1021 256.351 75.3783 254.147 75.3783H254.13C251.893 75.3783 251.329 74.1518 251.329 73.174V73.1077C251.329 72.1298 251.909 71.0193 254.13 71.0193H254.147ZM262.463 77.6655H266.971V73.522C266.971 72.2624 267.816 71.3508 269.341 71.3508C270.883 71.3508 271.496 72.2127 271.496 73.406V77.6655H276.02V71.9309C276.02 70.5221 274.976 68.5498 271.645 68.5498H271.545C268.761 68.5498 267.385 69.9089 266.938 70.3232V68.7487H262.463V77.6655ZM112.506 85.3344V97.6655H126.279V94.5827H117.147V92.8922H125.964V89.8923H117.147V88.3509H126.147V85.3344H112.506ZM133.921 97.9141C139.159 97.9141 140.07 96.4888 140.07 94.8479V94.7319C140.07 92.9585 139.242 92.0303 135.214 91.8977L133.341 91.848C131.966 91.7983 131.684 91.5331 131.684 91.1851V91.1685C131.684 90.7707 131.966 90.5552 133.424 90.5552H133.441C135.065 90.5552 135.181 91.0856 135.231 91.384H139.739V91.2679C139.739 89.8591 138.678 88.5001 133.888 88.5001H133.01C128.087 88.5001 127.159 89.8094 127.159 91.2679V91.3674C127.159 92.6933 128.004 94.0358 131.767 94.1684L133.656 94.2181C135.131 94.2678 135.363 94.5165 135.363 94.9474V94.9805C135.363 95.3617 135.115 95.7264 133.524 95.7264H133.49C131.816 95.7264 131.651 94.964 131.651 94.6325H127.06V94.7485C127.06 95.9087 127.64 97.9141 133.01 97.9141H133.921ZM147.453 97.9141C152.69 97.9141 153.602 96.4888 153.602 94.8479V94.7319C153.602 92.9585 152.773 92.0303 148.745 91.8977L146.872 91.848C145.497 91.7983 145.215 91.5331 145.215 91.1851V91.1685C145.215 90.7707 145.497 90.5552 146.955 90.5552H146.972C148.596 90.5552 148.712 91.0856 148.762 91.384H153.27V91.2679C153.27 89.8591 152.209 88.5001 147.419 88.5001H146.541C141.618 88.5001 140.69 89.8094 140.69 91.2679V91.3674C140.69 92.6933 141.536 94.0358 145.298 94.1684L147.187 94.2181C148.662 94.2678 148.894 94.5165 148.894 94.9474V94.9805C148.894 95.3617 148.646 95.7264 147.055 95.7264H147.022C145.348 95.7264 145.182 94.964 145.182 94.6325H140.591V94.7485C140.591 95.9087 141.171 97.9141 146.541 97.9141H147.453ZM161.233 90.6878C162.94 90.6878 163.62 91.1851 163.802 92.0303H158.664C158.88 91.2348 159.526 90.6878 161.233 90.6878ZM168.277 94.417H163.835C163.802 94.6159 163.471 95.4943 161.333 95.4943H161.316C159.509 95.4943 158.747 94.7816 158.614 93.8535H168.31V93.3563C168.31 91.2182 167.498 88.5001 161.681 88.5001H160.769C155.25 88.5001 154.189 90.9365 154.189 92.9916V93.3231C154.189 95.4115 155.333 97.9141 160.819 97.9141H161.697C167.515 97.9141 168.277 95.6932 168.277 94.4502V94.417ZM169.25 97.6655H173.758V93.522C173.758 92.2624 174.603 91.3508 176.128 91.3508C177.67 91.3508 178.283 92.2127 178.283 93.406V97.6655H182.807V91.9309C182.807 90.5221 181.763 88.5498 178.432 88.5498H178.332C175.548 88.5498 174.172 89.9089 173.725 90.3232V88.7487H169.25V97.6655ZM191.372 97.6655V94.8977H190.411C189.764 94.8977 189.665 94.6656 189.665 94.1187V91.4834H191.372V88.7487H189.665V86.1465H185.19V88.7487H183.483V91.4834H185.19V95.1297C185.19 96.8368 186.019 97.6655 187.56 97.6655H191.372ZM196.952 85.3344H192.444V88.0028H196.952V85.3344ZM196.952 88.7487H192.444V97.6655H196.952V88.7487ZM206.243 93.8369C206.243 94.7651 205.232 95.6766 203.574 95.6766C202.464 95.6766 202.166 95.1794 202.166 94.7651V94.7485C202.166 94.301 202.481 94.1187 203.26 93.9861L206.243 93.4557V93.8369ZM206.326 96.4722C206.458 97.2512 206.989 97.6655 207.768 97.6655H211.513V95.0634H211.033C210.718 95.0634 210.652 94.9308 210.652 94.6822V91.384C210.652 90.174 210.27 88.5166 204.701 88.5166H203.773C198.42 88.5166 198.055 90.3066 198.055 91.5V91.5994H202.232C202.282 91.3177 202.331 90.6878 204.237 90.6878H204.304C206.061 90.6878 206.243 91.0359 206.243 91.3674C206.243 91.616 206.127 91.7486 205.746 91.7983L201.453 92.1795C198.801 92.395 197.84 93.2734 197.84 94.7651V94.964C197.84 96.4225 198.983 97.8313 201.967 97.8313H202.149C204.751 97.8313 205.895 96.9031 206.326 96.4722ZM216.796 85.3344H212.287V97.6655H216.796V85.3344ZM224.528 97.9141C229.766 97.9141 230.677 96.4888 230.677 94.8479V94.7319C230.677 92.9585 229.849 92.0303 225.821 91.8977L223.948 91.848C222.573 91.7983 222.291 91.5331 222.291 91.1851V91.1685C222.291 90.7707 222.573 90.5552 224.031 90.5552H224.048C225.672 90.5552 225.788 91.0856 225.838 91.384H230.346V91.2679C230.346 89.8591 229.285 88.5001 224.495 88.5001H223.617C218.694 88.5001 217.766 89.8094 217.766 91.2679V91.3674C217.766 92.6933 218.612 94.0358 222.374 94.1684L224.263 94.2181C225.738 94.2678 225.97 94.5165 225.97 94.9474V94.9805C225.97 95.3617 225.722 95.7264 224.131 95.7264H224.098C222.424 95.7264 222.258 94.964 222.258 94.6325H217.667V94.7485C217.667 95.9087 218.247 97.9141 223.617 97.9141H224.528Z" fill="#E5E6EF"/>
</g>
<defs>
<filter id="filter0_f" x="34.4129" y="31.4173" width="257.667" height="93.3333" filterUnits="userSpaceOnUse" color-interpolation-filters="sRGB">
<feFlood flood-opacity="0" result="BackgroundImageFix"/>
<feBlend mode="normal" in="SourceGraphic" in2="BackgroundImageFix" result="shape"/>
<feGaussianBlur stdDeviation="7.45833" result="effect1_foregroundBlur"/>
</filter>
<linearGradient id="paint0_linear" x1="-9.67826" y1="89.9169" x2="344.571" y2="89.9169" gradientUnits="userSpaceOnUse">
<stop stop-color="#FFBE10"/>
<stop offset="0.2181" stop-color="#FF571A"/>
<stop offset="0.4968" stop-color="#FF0F74"/>
<stop offset="0.7459" stop-color="#9640EE"/>
<stop offset="0.7779" stop-color="#8F44EF"/>
<stop offset="0.8248" stop-color="#7B4DF1"/>
<stop offset="0.8811" stop-color="#5B5DF5"/>
<stop offset="0.9439" stop-color="#2E73FA"/>
<stop offset="1" stop-color="#008AFF"/>
</linearGradient>
<linearGradient id="paint1_linear" x1="-9.56626" y1="90.6001" x2="344.413" y2="90.6001" gradientUnits="userSpaceOnUse">
<stop stop-color="#FFBE10"/>
<stop offset="0.2181" stop-color="#FF571A"/>
<stop offset="0.4968" stop-color="#FF0F74"/>
<stop offset="0.7459" stop-color="#9640EE"/>
<stop offset="0.7779" stop-color="#8F44EF"/>
<stop offset="0.8248" stop-color="#7B4DF1"/>
<stop offset="0.8811" stop-color="#5B5DF5"/>
<stop offset="0.9439" stop-color="#2E73FA"/>
<stop offset="1" stop-color="#008AFF"/>
</linearGradient>
<linearGradient id="paint2_linear" x1="-9.44984" y1="91.2852" x2="344.26" y2="91.2852" gradientUnits="userSpaceOnUse">
<stop stop-color="#FFBE10"/>
<stop offset="0.2181" stop-color="#FF571A"/>
<stop offset="0.4968" stop-color="#FF0F74"/>
<stop offset="0.7459" stop-color="#9640EE"/>
<stop offset="0.7779" stop-color="#8F44EF"/>
<stop offset="0.8248" stop-color="#7B4DF1"/>
<stop offset="0.8811" stop-color="#5B5DF5"/>
<stop offset="0.9439" stop-color="#2E73FA"/>
<stop offset="1" stop-color="#008AFF"/>
</linearGradient>
<linearGradient id="paint3_linear" x1="-9.33788" y1="91.9647" x2="344.103" y2="91.9647" gradientUnits="userSpaceOnUse">
<stop stop-color="#FFBE10"/>
<stop offset="0.2181" stop-color="#FF571A"/>
<stop offset="0.4968" stop-color="#FF0F74"/>
<stop offset="0.7459" stop-color="#9640EE"/>
<stop offset="0.7779" stop-color="#8F44EF"/>
<stop offset="0.8248" stop-color="#7B4DF1"/>
<stop offset="0.8811" stop-color="#5B5DF5"/>
<stop offset="0.9439" stop-color="#2E73FA"/>
<stop offset="1" stop-color="#008AFF"/>
</linearGradient>
<linearGradient id="paint4_linear" x1="-9.22152" y1="92.6502" x2="343.95" y2="92.6502" gradientUnits="userSpaceOnUse">
<stop stop-color="#FFBE10"/>
<stop offset="0.2181" stop-color="#FF571A"/>
<stop offset="0.4968" stop-color="#FF0F74"/>
<stop offset="0.7459" stop-color="#9640EE"/>
<stop offset="0.7779" stop-color="#8F44EF"/>
<stop offset="0.8248" stop-color="#7B4DF1"/>
<stop offset="0.8811" stop-color="#5B5DF5"/>
<stop offset="0.9439" stop-color="#2E73FA"/>
<stop offset="1" stop-color="#008AFF"/>
</linearGradient>
<linearGradient id="paint5_linear" x1="-9.10961" y1="93.3345" x2="343.793" y2="93.3345" gradientUnits="userSpaceOnUse">
<stop stop-color="#FFBE10"/>
<stop offset="0.2181" stop-color="#FF571A"/>
<stop offset="0.4968" stop-color="#FF0F74"/>
<stop offset="0.7459" stop-color="#9640EE"/>
<stop offset="0.7779" stop-color="#8F44EF"/>
<stop offset="0.8248" stop-color="#7B4DF1"/>
<stop offset="0.8811" stop-color="#5B5DF5"/>
<stop offset="0.9439" stop-color="#2E73FA"/>
<stop offset="1" stop-color="#008AFF"/>
</linearGradient>
<linearGradient id="paint6_linear" x1="-8.99324" y1="92.3599" x2="343.639" y2="92.3599" gradientUnits="userSpaceOnUse">
<stop stop-color="#FFBE10"/>
<stop offset="0.2181" stop-color="#FF571A"/>
<stop offset="0.4968" stop-color="#FF0F74"/>
<stop offset="0.7459" stop-color="#9640EE"/>
<stop offset="0.7779" stop-color="#8F44EF"/>
<stop offset="0.8248" stop-color="#7B4DF1"/>
<stop offset="0.8811" stop-color="#5B5DF5"/>
<stop offset="0.9439" stop-color="#2E73FA"/>
<stop offset="1" stop-color="#008AFF"/>
</linearGradient>
<linearGradient id="paint7_linear" x1="-8.87447" y1="91.2872" x2="343.488" y2="91.2872" gradientUnits="userSpaceOnUse">
<stop stop-color="#FFBE10"/>
<stop offset="0.2181" stop-color="#FF571A"/>
<stop offset="0.4968" stop-color="#FF0F74"/>
<stop offset="0.7459" stop-color="#9640EE"/>
<stop offset="0.7779" stop-color="#8F44EF"/>
<stop offset="0.8248" stop-color="#7B4DF1"/>
<stop offset="0.8811" stop-color="#5B5DF5"/>
<stop offset="0.9439" stop-color="#2E73FA"/>
<stop offset="1" stop-color="#008AFF"/>
</linearGradient>
<linearGradient id="paint8_linear" x1="-8.7649" y1="90.2128" x2="343.328" y2="90.2128" gradientUnits="userSpaceOnUse">
<stop stop-color="#FFBE10"/>
<stop offset="0.2181" stop-color="#FF571A"/>
<stop offset="0.4968" stop-color="#FF0F74"/>
<stop offset="0.7459" stop-color="#9640EE"/>
<stop offset="0.7779" stop-color="#8F44EF"/>
<stop offset="0.8248" stop-color="#7B4DF1"/>
<stop offset="0.8811" stop-color="#5B5DF5"/>
<stop offset="0.9439" stop-color="#2E73FA"/>
<stop offset="1" stop-color="#008AFF"/>
</linearGradient>
<linearGradient id="paint9_linear" x1="-8.64603" y1="89.1411" x2="343.177" y2="89.1411" gradientUnits="userSpaceOnUse">
<stop stop-color="#FFBE10"/>
<stop offset="0.2181" stop-color="#FF571A"/>
<stop offset="0.4968" stop-color="#FF0F74"/>
<stop offset="0.7459" stop-color="#9640EE"/>
<stop offset="0.7779" stop-color="#8F44EF"/>
<stop offset="0.8248" stop-color="#7B4DF1"/>
<stop offset="0.8811" stop-color="#5B5DF5"/>
<stop offset="0.9439" stop-color="#2E73FA"/>
<stop offset="1" stop-color="#008AFF"/>
</linearGradient>
<linearGradient id="paint10_linear" x1="-8.53626" y1="88.0681" x2="343.017" y2="88.0681" gradientUnits="userSpaceOnUse">
<stop stop-color="#FFBE10"/>
<stop offset="0.2181" stop-color="#FF571A"/>
<stop offset="0.4968" stop-color="#FF0F74"/>
<stop offset="0.7459" stop-color="#9640EE"/>
<stop offset="0.7779" stop-color="#8F44EF"/>
<stop offset="0.8248" stop-color="#7B4DF1"/>
<stop offset="0.8811" stop-color="#5B5DF5"/>
<stop offset="0.9439" stop-color="#2E73FA"/>
<stop offset="1" stop-color="#008AFF"/>
</linearGradient>
<linearGradient id="paint11_linear" x1="-8.41718" y1="86.9972" x2="342.865" y2="86.9972" gradientUnits="userSpaceOnUse">
<stop stop-color="#FFBE10"/>
<stop offset="0.2181" stop-color="#FF571A"/>
<stop offset="0.4968" stop-color="#FF0F74"/>
<stop offset="0.7459" stop-color="#9640EE"/>
<stop offset="0.7779" stop-color="#8F44EF"/>
<stop offset="0.8248" stop-color="#7B4DF1"/>
<stop offset="0.8811" stop-color="#5B5DF5"/>
<stop offset="0.9439" stop-color="#2E73FA"/>
<stop offset="1" stop-color="#008AFF"/>
</linearGradient>
<linearGradient id="paint12_linear" x1="-8.30713" y1="85.9255" x2="342.705" y2="85.9255" gradientUnits="userSpaceOnUse">
<stop stop-color="#FFBE10"/>
<stop offset="0.2181" stop-color="#FF571A"/>
<stop offset="0.4968" stop-color="#FF0F74"/>
<stop offset="0.7459" stop-color="#9640EE"/>
<stop offset="0.7779" stop-color="#8F44EF"/>
<stop offset="0.8248" stop-color="#7B4DF1"/>
<stop offset="0.8811" stop-color="#5B5DF5"/>
<stop offset="0.9439" stop-color="#2E73FA"/>
<stop offset="1" stop-color="#008AFF"/>
</linearGradient>
<linearGradient id="paint13_linear" x1="-8.18764" y1="84.8537" x2="342.553" y2="84.8537" gradientUnits="userSpaceOnUse">
<stop stop-color="#FFBE10"/>
<stop offset="0.2181" stop-color="#FF571A"/>
<stop offset="0.4968" stop-color="#FF0F74"/>
<stop offset="0.7459" stop-color="#9640EE"/>
<stop offset="0.7779" stop-color="#8F44EF"/>
<stop offset="0.8248" stop-color="#7B4DF1"/>
<stop offset="0.8811" stop-color="#5B5DF5"/>
<stop offset="0.9439" stop-color="#2E73FA"/>
<stop offset="1" stop-color="#008AFF"/>
</linearGradient>
<linearGradient id="paint14_linear" x1="-8.07027" y1="83.7826" x2="342.399" y2="83.7826" gradientUnits="userSpaceOnUse">
<stop stop-color="#FFBE10"/>
<stop offset="0.2181" stop-color="#FF571A"/>
<stop offset="0.4968" stop-color="#FF0F74"/>
<stop offset="0.7459" stop-color="#9640EE"/>
<stop offset="0.7779" stop-color="#8F44EF"/>
<stop offset="0.8248" stop-color="#7B4DF1"/>
<stop offset="0.8811" stop-color="#5B5DF5"/>
<stop offset="0.9439" stop-color="#2E73FA"/>
<stop offset="1" stop-color="#008AFF"/>
</linearGradient>
<linearGradient id="paint15_linear" x1="-7.95708" y1="82.711" x2="342.241" y2="82.711" gradientUnits="userSpaceOnUse">
<stop stop-color="#FFBE10"/>
<stop offset="0.2181" stop-color="#FF571A"/>
<stop offset="0.4968" stop-color="#FF0F74"/>
<stop offset="0.7459" stop-color="#9640EE"/>
<stop offset="0.7779" stop-color="#8F44EF"/>
<stop offset="0.8248" stop-color="#7B4DF1"/>
<stop offset="0.8811" stop-color="#5B5DF5"/>
<stop offset="0.9439" stop-color="#2E73FA"/>
<stop offset="1" stop-color="#008AFF"/>
</linearGradient>
<linearGradient id="paint16_linear" x1="-7.83911" y1="81.6383" x2="342.087" y2="81.6383" gradientUnits="userSpaceOnUse">
<stop stop-color="#FFBE10"/>
<stop offset="0.2181" stop-color="#FF571A"/>
<stop offset="0.4968" stop-color="#FF0F74"/>
<stop offset="0.7459" stop-color="#9640EE"/>
<stop offset="0.7779" stop-color="#8F44EF"/>
<stop offset="0.8248" stop-color="#7B4DF1"/>
<stop offset="0.8811" stop-color="#5B5DF5"/>
<stop offset="0.9439" stop-color="#2E73FA"/>
<stop offset="1" stop-color="#008AFF"/>
</linearGradient>
<linearGradient id="paint17_linear" x1="163.246" y1="46.334" x2="163.246" y2="109.834" gradientUnits="userSpaceOnUse">
<stop stop-color="#111111" stop-opacity="0"/>
<stop offset="0.411787" stop-color="#111111"/>
<stop offset="0.677083" stop-color="#111111" stop-opacity="0.912014"/>
<stop offset="1" stop-color="#111111" stop-opacity="0"/>
</linearGradient>
<clipPath id="clip0">
<path d="M0 10C0 4.47716 4.47715 0 10 0H310C315.523 0 320 4.47715 320 10V180H0V10Z" fill="white"/>
</clipPath>
</defs>
</svg>
