<svg width="150" height="41" viewBox="0 0 150 41" fill="none" xmlns="http://www.w3.org/2000/svg">
<path fill-rule="evenodd" clip-rule="evenodd" d="M97.5946 25.0864V24.2667C96.1716 24.1536 93.2242 24.1819 92.7416 24.3232C92.6805 24.5043 92.6848 24.7217 92.6889 24.9318C92.6896 24.9689 92.6903 25.0057 92.6907 25.0421C92.6908 25.0569 92.6909 25.0717 92.6909 25.0864V33.1424C92.6909 33.4816 92.6909 33.849 92.6653 34.1882C92.6402 34.4991 92.589 34.8101 92.5132 35.0927C92.4369 35.4037 92.2335 35.545 91.9538 35.545C91.649 35.545 91.4964 35.4319 91.3693 35.0927C91.3195 34.9539 91.2944 34.7878 91.2693 34.6212L91.2679 34.6122C91.2592 34.449 91.2476 34.289 91.2361 34.1301L91.2361 34.1299C91.2137 33.8211 91.1916 33.5161 91.1916 33.1989V24.4928C91.1916 24.4423 91.1912 24.395 91.1906 24.3507C91.1902 24.3183 91.1897 24.2875 91.1893 24.2582C91.1804 23.6979 91.1799 23.6702 91.9031 23.4187C92.5639 23.1926 93.1991 23.023 93.8849 22.9099L93.9423 22.8971C94.1149 22.9046 94.3066 22.8752 94.5195 22.7962C95.7821 22.3281 95.8146 22.0477 95.8861 21.4325L95.8918 21.3829C95.963 20.9269 95.0218 20.457 94.1114 20.0024C93.7238 19.8089 93.3418 19.6182 93.0458 19.4325C91.4958 18.4432 91.8262 17.3408 91.8262 17.3408C91.8262 17.3408 91.7805 6.67266 91.8192 5.53785C91.8622 5.52986 91.9071 5.52605 91.9538 5.52605C92.2079 5.52605 92.4112 5.63911 92.5132 5.92177C92.589 6.14791 92.6402 6.37404 92.6653 6.60017C92.6909 6.96762 92.716 7.36336 92.716 7.73082V16.7478H97.5946V7.16549C97.5946 6.68497 97.569 6.17617 97.5182 5.69565C97.3149 3.94312 96.3242 1.82314 94.012 1.17301C92.818 0.833812 91.6234 0.833812 90.4294 1.05994C88.2949 1.42741 86.8468 3.01033 86.4657 5.38471C86.3902 5.91623 86.3648 6.44776 86.3395 6.97928L86.3387 6.9959V16.3569C86.3224 16.5201 85.947 20.3714 86.6189 20.6481C86.8088 20.7264 87.1137 20.809 87.4434 20.8983C88.3046 21.1316 89.3352 21.4108 88.9311 21.7788C88.7613 21.9332 88.3948 22.0695 87.9731 22.2262C87.0058 22.5858 85.7479 23.0533 85.9074 24.0966C86.1358 25.5665 86.0595 35.177 86.0595 35.177C86.0595 35.177 86.2885 37.3818 87.7622 38.6538C87.8296 38.712 87.892 38.7418 87.9497 38.7458C88.4741 39.2559 89.1275 39.6268 89.9213 39.8415C91.2423 40.209 92.5639 40.209 93.8849 39.8698C95.8161 39.3893 96.9594 38.0042 97.4168 35.8842C97.5418 35.2724 97.5681 34.6334 97.5933 34.0207L97.5946 33.9904C97.6117 33.3674 97.6059 32.7319 97.6002 32.1007V32.1C97.5974 31.7862 97.5946 31.4734 97.5946 31.1637V25.0864ZM63.9027 16.8079C63.979 16.8079 64.0297 16.7796 64.0804 16.7514C64.15 16.6429 64.1663 16.5175 64.1835 16.3845C64.1977 16.2747 64.2126 16.1597 64.2587 16.0447V7.14077C64.2587 6.66025 64.2331 6.17972 64.1824 5.72746C63.979 3.97494 62.9878 1.85496 60.6505 1.2331C59.3038 0.865635 57.9571 0.865635 56.6105 1.20483C55.6122 1.46233 54.82 1.98553 54.2243 2.73794L54.2228 2.64267C54.2228 2.64267 52.5204 4.50825 52.1901 6.4021C52.0889 6.95091 52.0633 9.90949 52.038 12.8297V12.8298V12.8298V12.8299V12.83V12.8301V12.8301V12.8302V12.8302V12.8303C52.0124 15.7759 51.9873 18.6823 51.8852 19.0372C51.7799 19.4031 51.1365 19.7539 50.4416 20.1326C49.7946 20.4854 49.103 20.8624 48.7599 21.2985C48.4444 21.6737 48.5528 21.9504 48.7799 22.1442C48.8149 22.2157 48.8673 22.2846 48.9371 22.3481C49.0641 22.4612 49.242 22.6025 49.4199 22.659C49.8264 22.8286 50.233 22.97 50.6395 23.0831C50.9584 23.1717 51.2773 23.2382 51.59 23.3033L51.5901 23.3033C51.7756 23.342 51.9588 23.3802 52.1386 23.4222C52.9746 23.6425 52.9724 23.7144 52.9568 24.2435V24.2435V24.2436V24.2436V24.2437V24.2437V24.2438V24.2438V24.2439C52.9544 24.3258 52.9517 24.4186 52.9517 24.5246V26.2206V34.1352C52.9517 34.7288 52.9517 35.3224 53.0787 35.8878C53.536 37.9794 54.6286 39.4211 56.5598 39.9299C57.9828 40.2973 59.4052 40.269 60.8282 39.845C61.7682 39.5624 62.556 38.9688 63.1405 38.0925C63.6993 37.2445 64.0297 36.3117 64.1311 35.2942C64.1824 34.8136 64.2075 34.3614 64.2075 33.8809V25.0334C64.2075 24.9823 64.2095 24.9312 64.2116 24.8802C64.2198 24.6769 64.228 24.4735 64.106 24.2703C64.0679 24.2703 64.0297 24.2632 63.9916 24.2561C63.9534 24.2491 63.9152 24.242 63.8771 24.242H59.5579C59.4976 24.242 59.4533 24.2596 59.3998 24.2809L59.3794 24.289L59.3545 24.2985C59.2935 24.5018 59.2976 24.7051 59.3017 24.9084C59.3028 24.9595 59.3038 25.0106 59.3038 25.0617V33.2024C59.3038 33.5416 59.3038 33.8526 59.2782 34.1918C59.2531 34.4744 59.2024 34.7571 59.1512 35.0397C59.0497 35.4072 58.872 35.5768 58.5667 35.5768C58.4489 35.5768 58.3473 35.5552 58.2606 35.5094C58.2532 33.5267 58.2159 22.9728 58.2619 22.2048C58.3022 21.5367 56.4655 21.3072 55.3737 21.1708C55.0796 21.1341 54.8397 21.1041 54.7049 21.0741C54.3193 20.9883 55.1227 20.6421 55.9729 20.2758C56.5232 20.0386 57.093 19.7931 57.3726 19.6043C58.1097 19.152 57.932 18.9542 57.932 18.9542V6.10534C57.9482 6.05226 57.9655 6.00131 57.9828 5.95359C58.0842 5.69919 58.2875 5.58613 58.5416 5.58613C58.7957 5.58613 58.999 5.69919 59.0748 5.98186C59.1512 6.26452 59.2024 6.57545 59.2275 6.88639C59.2531 7.2256 59.2531 7.53651 59.2531 7.8757V16.073C59.2531 16.1232 59.2506 16.1734 59.2481 16.2236C59.2394 16.3995 59.2306 16.5754 59.3294 16.7514C59.3801 16.7796 59.4565 16.8079 59.5072 16.8079H63.9027ZM42.0865 20.8381C42.1721 20.7826 42.2626 20.7251 42.3565 20.6653C43.3553 20.0305 44.7448 19.1471 44.7448 17.8221V1.62545V1.37106H47.1586L47.1579 1.39888H50.1573C50.2176 1.39888 50.2779 1.41658 50.3508 1.43798C50.3701 1.44362 50.3902 1.44952 50.4114 1.45542C50.4961 1.69097 50.4925 1.92652 50.489 2.16208C50.4883 2.20919 50.4876 2.2563 50.4876 2.30341V15.0798V18.8958V19.5742C50.3098 19.8851 50.0557 20.0265 49.8016 20.1395C49.3192 20.3372 48.8368 20.5067 48.3544 20.6762L48.3533 20.6766C48.0635 20.7714 47.7736 20.8663 47.4915 20.9611C47.2162 21.2221 46.8995 21.7769 47.8196 22.1472C49.0138 22.6277 51.0719 23.5605 51.1227 24.352C51.1735 25.1434 51.1227 39.8137 51.1227 39.8137H48.277V39.813H45.8379C45.8007 39.813 45.7499 39.7978 45.6854 39.7786L45.6415 39.7656L45.6092 39.7564C45.5837 39.6434 45.5583 39.502 45.5583 39.3607V38.7389V24.8883C45.5583 23.9837 45.5075 23.8707 44.7707 23.475C44.4108 23.2748 44.011 23.1189 43.6243 22.9681L43.4749 22.9096C43.2691 22.8253 43.0634 22.7461 42.8596 22.6677L42.8595 22.6676L42.8594 22.6676L42.8593 22.6676L42.8592 22.6675L42.859 22.6675L42.859 22.6674L42.8587 22.6673L42.8584 22.6672C42.5845 22.5618 42.314 22.4577 42.052 22.3443C41.9394 22.2974 41.8268 22.2244 41.7186 22.1398L41.6704 22.1469C41.6704 22.1469 41.6071 22.1234 41.5214 21.9708C41.5032 21.954 41.4853 21.9372 41.4676 21.9203C41.2898 21.7507 41.2898 21.4681 41.4422 21.2985C41.5692 21.1571 41.7217 21.0158 41.8995 20.931C41.9618 20.899 42.0241 20.8681 42.0865 20.8381ZM16.033 18.5001C14.7372 19.6307 15.6264 21.2985 15.6264 21.2985L15.6811 21.2849C15.809 21.5347 16.0112 21.7163 16.2878 21.836C16.364 21.8642 16.4465 21.8925 16.5291 21.9207L16.5291 21.9208L16.5292 21.9208C16.6118 21.949 16.6943 21.9773 16.7705 22.0056C16.8848 22.0621 17.0055 22.1045 17.1262 22.1469C17.2469 22.1893 17.3676 22.2317 17.4819 22.2882C18.1934 22.6274 18.2442 22.7405 18.2442 23.6167V33.8775C18.2442 34.358 18.2442 34.8668 18.295 35.3473C18.4983 37.4108 19.6417 39.3046 21.8014 39.9265C23.1227 40.2939 24.4439 40.2939 25.7651 39.983C26.1122 39.9028 26.4344 39.7924 26.7324 39.6531C30.3126 38.7679 30.2625 32.9723 30.2625 32.9723C30.2625 32.9723 30.1354 23.8705 30.1354 23.1638C30.1354 22.6546 29.4625 22.3362 28.5445 21.9018L28.5445 21.9018C28.1886 21.7334 27.7959 21.5476 27.3913 21.3265C26.7553 20.9727 26.6727 20.6246 26.7758 20.3477C27.4383 20.137 28.1008 19.9246 28.7633 19.6877C28.794 19.6753 28.8251 19.6632 28.8562 19.6511L28.8568 19.6509L28.8575 19.6506L28.8577 19.6505C29.1093 19.5525 29.3676 19.452 29.5256 19.1506V1.65372C29.5256 1.62197 29.5096 1.59023 29.491 1.55348C29.4765 1.52478 29.4605 1.49304 29.4494 1.45586C29.4283 1.44999 29.4083 1.44412 29.3891 1.43851L29.3891 1.4385L29.3888 1.43842L29.3888 1.43841C29.3159 1.41702 29.2556 1.39932 29.1953 1.39932H24.7996C24.7489 1.39932 24.6727 1.42753 24.5965 1.45577L24.5963 1.45586C24.5523 1.61899 24.5422 1.78212 24.5317 1.95069C24.524 2.0742 24.5162 2.20063 24.4947 2.33211V18.1048V18.7549C24.4947 19.0093 24.3931 19.1506 24.1898 19.2354C24.0882 19.292 23.9611 19.3485 23.8341 19.3768C23.6498 19.425 23.4609 19.4784 23.2693 19.5326C23.0119 19.6053 22.7497 19.6794 22.4874 19.7442C22.332 19.7903 22.1724 19.827 22.012 19.8639L22.012 19.8639L22.012 19.8639C21.779 19.9175 21.5444 19.9715 21.3187 20.0552C21.0391 20.1682 20.7342 20.3378 20.4802 20.5357C20.2769 20.677 20.2515 21.0162 20.4294 21.2141C20.531 21.3272 20.658 21.4685 20.8105 21.5533C20.8823 21.5932 20.9541 21.6354 21.0264 21.678L21.0266 21.6781L21.0267 21.6781C21.2103 21.7861 21.3977 21.8962 21.5981 21.9773C21.9031 22.1281 22.208 22.2537 22.513 22.3794C22.6654 22.4422 22.8178 22.505 22.9702 22.5709L22.9704 22.571C23.4023 22.7688 23.8342 22.9667 24.2152 23.2775C24.4185 23.4471 24.5455 23.645 24.5201 23.9277V24.2103V33.5383C24.5201 33.8169 24.4981 34.1077 24.4759 34.4027C24.4643 34.5566 24.4526 34.7117 24.4439 34.8668C24.4379 34.8934 24.4319 34.9233 24.4256 34.9547C24.4051 35.0567 24.3811 35.1761 24.3422 35.2625C24.1644 35.7148 23.5546 35.7713 23.3005 35.3473C23.2243 35.206 23.1735 35.0646 23.1481 34.895C23.0972 34.4145 23.0464 33.9058 23.0464 33.4252V24.0973V23.532C23.0464 23.3058 22.9448 23.1362 22.7669 23.0231C22.6145 22.9101 22.462 22.8253 22.3096 22.7688C21.956 22.6048 21.5939 22.4505 21.2282 22.2946L21.228 22.2945L21.2278 22.2944L21.2276 22.2943C20.9628 22.1814 20.6961 22.0677 20.4294 21.949C19.9212 21.7229 19.4384 21.4968 19.0573 21.0728C18.727 20.7336 18.7778 20.3944 19.1589 20.1682C19.3642 20.0414 19.6105 19.96 19.8425 19.8834L19.9212 19.8573C20.3793 19.7117 20.8481 19.5895 21.3137 19.4681L21.3138 19.4681L21.3138 19.4681L21.3138 19.4681L21.3138 19.4681L21.3138 19.4681L21.3139 19.4681L21.3139 19.4681L21.3139 19.4681L21.314 19.468L21.3141 19.468L21.3142 19.468L21.3144 19.468L21.3147 19.4679L21.315 19.4678L21.3152 19.4677L21.3153 19.4677L21.3157 19.4676L21.316 19.4675C21.5726 19.4006 21.8284 19.334 22.0809 19.2637C22.4366 19.1506 22.7669 19.0376 23.0464 18.6984V18.2178V2.02118V1.82332C23.021 1.68198 22.9956 1.54065 23.1227 1.39932C23.0631 1.39932 23.0123 1.38962 22.9702 1.38159C22.9404 1.37591 22.915 1.37106 22.894 1.37106H18.6254C18.5784 1.37106 18.5314 1.38312 18.482 1.39888H17.7608V15.6169C17.7608 16.5214 17.3288 17.3694 16.033 18.5001ZM100.009 17.4124L99.9831 17.5667C99.9831 17.5667 99.602 20.4498 100.11 20.5912C100.618 20.7325 102.651 21.6088 102.118 22.0045C101.951 22.128 101.641 22.2625 101.292 22.4141C100.522 22.7481 99.561 23.1649 99.5257 23.7288C99.475 24.5485 99.5257 39.7841 99.5257 39.7841H102.931L102.931 39.7304H104.887V24.2969V22.5444H106.387V23.3641V27.3214V39.7021H111.265V1.25972H106.387V1.37279V3.86024V6.31942V8.72205V11.1812V13.5839V16.0431C106.387 16.2395 106.388 16.4358 106.39 16.6326C106.394 17.229 106.399 17.8294 106.361 18.4457C105.879 18.5588 105.421 18.5305 104.938 18.474L104.936 18.46C104.912 18.2668 104.887 18.0743 104.887 17.9087V15.506V1.31626H100.009V17.4124ZM73.4815 17.9389C73.5366 18.0493 73.6633 18.1489 73.8079 18.2334C73.9223 18.4318 74.0442 18.5811 74.1683 18.6412C74.3234 18.7161 74.7734 18.8965 75.3429 19.1248C76.9204 19.7572 79.4148 20.7571 79.0976 20.9024C78.9981 20.948 78.792 20.9756 78.5319 21.0104C77.6631 21.1267 76.1913 21.3237 76.0738 22.5419C76.0547 22.7765 76.4152 23.3651 76.869 24.1059C77.618 25.3287 78.621 26.9662 78.5894 28.1104C78.5456 29.6737 78.6154 34.15 78.6352 35.3373C78.5037 35.5081 78.314 35.6054 78.0803 35.6054C77.7249 35.6054 77.4452 35.4641 77.3181 35.0966C77.1979 34.8024 77.146 34.4828 77.0979 34.1858L77.0897 34.1356C77.0517 33.8817 77.0562 33.6436 77.0609 33.3976V33.3976C77.0625 33.315 77.0641 33.2315 77.0641 33.1463V25.1469C77.0641 25.0904 77.0666 25.0339 77.0691 24.9771C77.078 24.7781 77.0871 24.5753 76.9883 24.3554C76.8612 24.3271 76.7342 24.2989 76.6066 24.2989H72.9733C72.9144 24.2989 72.8467 24.318 72.7704 24.3395C72.7155 24.355 72.6561 24.3718 72.5922 24.3837V25.0338V34.1638C72.5922 34.4465 72.5922 34.7292 72.6178 35.0119C72.77 37.2166 74.0659 39.3366 76.3018 39.9019C77.6234 40.2411 78.9701 40.2411 80.3168 39.8737C82.0953 39.3932 83.1879 38.0646 83.6448 36.1143C83.7974 35.4924 83.8481 34.8423 83.8481 34.2204V28.4258C83.8481 27.0407 83.6448 25.7122 83.1366 24.4402C83.124 24.3974 83.1047 24.3545 83.0855 24.3117C83.0667 24.2697 83.0479 24.2278 83.0352 24.1858C82.9589 23.9032 83.0096 23.7336 83.2386 23.5922C83.4921 23.4512 83.7457 23.3383 83.9992 23.2254L84.0008 23.2247C84.1785 23.1399 84.3564 23.0622 84.5343 22.9845C84.7122 22.9067 84.89 22.829 85.0678 22.7442C85.2455 22.6594 85.4238 22.5181 85.5759 22.3485C85.6092 22.3168 85.6354 22.2821 85.655 22.2454C85.9862 21.9174 85.985 21.6329 85.9838 21.3508L85.9837 21.3006C85.9604 20.4776 83.1603 19.5375 81.6608 19.0341L81.6604 19.034L81.6574 19.0329L81.6573 19.0329C81.5103 18.9835 81.3758 18.9384 81.2578 18.898C78.6106 17.9582 77.7347 14.1715 77.4798 10.9816C77.4849 10.3516 77.4807 9.72156 77.4765 9.09153C77.4736 8.66754 77.4708 8.24354 77.4708 7.81955C77.4708 7.53995 77.4928 7.24805 77.5152 6.95198C77.5267 6.79906 77.5384 6.64503 77.5471 6.491C77.5722 6.32141 77.5978 6.15181 77.6485 6.01047C77.8012 5.64301 78.1567 5.47341 78.4871 5.64301C78.6648 5.72781 78.7667 5.92568 78.8175 6.12354C78.9445 6.60407 78.9445 7.08462 78.9445 7.5934V15.932V16.78C79.4864 16.8365 79.9833 16.8428 80.4802 16.8491C80.7286 16.8522 80.977 16.8554 81.2311 16.8648C81.4895 16.8545 81.7478 16.8592 82.0074 16.8638C82.4627 16.872 82.9216 16.8802 83.3907 16.8083C83.3907 16.7056 83.3976 16.6182 83.4042 16.5342L83.4043 16.5339C83.4104 16.456 83.4163 16.381 83.4163 16.2995C83.4163 15.2355 83.4192 14.1747 83.422 13.1149L83.422 13.1095V13.1085V13.1075V13.1065V13.1055V13.1045V13.1036V13.1026C83.4277 10.9849 83.4334 8.87142 83.4163 6.7454C83.4163 6.26488 83.3656 5.75608 83.2637 5.27555C82.8068 3.15557 81.6885 1.74224 79.7574 1.23345C78.5127 0.922515 77.2674 0.922515 76.0478 1.31825C74.5997 1.79877 73.5834 2.81637 72.999 4.37102C72.7193 5.07768 72.5922 5.84088 72.5922 6.63234V13.1336C72.5922 13.4069 72.5852 13.6937 72.5781 13.9861C72.5401 15.5385 72.4983 17.2491 73.4815 17.9389ZM14.5453 20.2402C14.5669 20.6023 14.6374 20.9596 14.8139 21.1329C14.9023 21.2197 15.0313 21.3327 15.1809 21.4637C15.7618 21.9723 16.6537 22.7533 16.6941 23.3377C16.7449 24.0726 16.6941 39.7604 16.6941 39.7604H15.7041C15.026 39.8688 12.291 39.8402 11.7387 39.7564C11.7133 39.6434 11.6879 39.502 11.6879 39.3607V38.7388V19.5742V18.7262C11.5355 18.9523 11.5101 19.1219 11.4846 19.2915L11.4846 19.2915C11.4211 20.0695 11.3511 20.8404 11.2812 21.6113L11.2812 21.6114C11.2114 22.381 11.1416 23.1506 11.0781 23.9272C11.0018 24.7195 10.9255 25.5188 10.8492 26.3182L10.8489 26.3216C10.7728 27.1181 10.6968 27.9147 10.6208 28.7043C10.5446 29.4946 10.4749 30.2779 10.4051 31.0612L10.4051 31.0614L10.405 31.0617L10.405 31.0618L10.405 31.0619C10.3351 31.8471 10.2651 32.6324 10.1888 33.4247C10.0363 35.0359 9.8839 36.6471 9.73145 38.2866L9.65523 39.0498L9.65521 39.05L9.6552 39.0501C9.62981 39.2761 9.6044 39.5021 9.55361 39.7847C9.24696 39.87 8.95479 39.8588 8.67707 39.8481C8.58657 39.8446 8.49762 39.8412 8.41019 39.8412H7.26682C7.15731 39.8412 7.04779 39.8459 6.93887 39.8505C6.66876 39.862 6.40235 39.8734 6.14887 39.813C5.99642 39.3607 5.76771 36.958 5.58986 34.5271C5.50793 33.3969 5.40487 32.2667 5.30112 31.1289L5.30111 31.1288C5.24398 30.5024 5.18665 29.8736 5.13251 29.2413C5.08023 28.65 5.03094 28.0554 4.98156 27.4597L4.98155 27.4596L4.98154 27.4594L4.98153 27.4594C4.88693 26.3182 4.79202 25.1731 4.67516 24.0403C4.62181 23.5145 4.57531 22.9888 4.52881 22.4631C4.42032 21.2363 4.31182 20.0095 4.11617 18.7827C4.11617 18.8393 4.10982 18.8958 4.10347 18.9523C4.09712 19.0089 4.09076 19.0654 4.09076 19.122V19.5459V33.8205V39.0498C4.09076 39.1595 4.08478 39.2692 4.07862 39.3822C4.07209 39.502 4.06536 39.6255 4.06536 39.7564C4.02558 39.7653 3.99078 39.7741 3.9594 39.7821L3.95918 39.7822C3.89046 39.7997 3.83817 39.813 3.78587 39.813H0.228676C0.189853 39.813 0.136198 39.78 0.0903745 39.7518C0.0762188 39.7431 0.0628103 39.7348 0.050817 39.7282C0.0254085 39.6434 0 39.5586 0 39.4455C0.0254085 26.867 0.0254085 14.2601 0.0254085 1.65327C0.0254085 1.59673 0.0508169 1.51193 0.0762254 1.4554C0.0966457 1.44783 0.115243 1.44026 0.132504 1.43323L0.13251 1.43322L0.132513 1.43322C0.179682 1.41402 0.216884 1.39887 0.254085 1.39887H5.97102C6.02332 1.39887 6.07561 1.41218 6.14433 1.42966C6.17576 1.43766 6.21062 1.44653 6.25049 1.4554C6.2632 1.55432 6.28225 1.66031 6.3013 1.7663L6.3013 1.7663L6.30131 1.76633C6.32036 1.87233 6.33942 1.97833 6.35212 2.07726C6.42825 2.92425 6.49804 3.76418 6.56784 4.60411L6.56786 4.60434L6.56786 4.60443C6.63781 5.44625 6.70776 6.28805 6.78409 7.13694C6.86032 7.99916 6.93655 8.85432 7.01278 9.70947C7.08899 10.5645 7.1652 11.4194 7.24142 12.2815C7.29223 12.875 7.34303 13.4756 7.39384 14.0762L7.39386 14.0764C7.44468 14.6771 7.49549 15.2777 7.5463 15.8713C7.59711 16.5214 7.64793 17.1715 7.7242 17.8499C7.72941 17.8904 7.73248 17.9322 7.7356 17.9746C7.74773 18.1392 7.76063 18.3145 7.90205 18.4718C8.11063 16.2507 8.31146 14.0381 8.51212 11.8275C8.82472 8.38351 9.13692 4.94407 9.47739 1.48367L9.54256 1.47138C9.66689 1.44775 9.7754 1.42713 9.8839 1.42713H15.2959C15.4165 1.42713 15.5213 1.44484 15.6479 1.46624C15.6813 1.47188 15.7162 1.47777 15.7533 1.48367C15.7581 1.52624 15.7628 1.56681 15.7675 1.60594L15.7675 1.60596C15.7873 1.77467 15.8041 1.91666 15.8041 2.07726V17.7086C15.8041 18.1043 15.7025 18.387 15.4229 18.6131C15.2793 18.7273 15.1522 18.8968 15.0283 19.062L15.0283 19.062C14.9988 19.1013 14.9695 19.1404 14.9402 19.1784C14.7196 19.5056 14.5888 19.8698 14.5453 20.2402ZM38.3982 20.0464C38.5504 19.977 38.7017 19.9065 38.8503 19.833C39.079 19.7482 39.3077 19.6351 39.3585 19.2959C39.295 19.197 39.2315 19.091 39.1679 18.985C39.1044 18.879 39.0409 18.773 38.9773 18.6741C38.4184 17.8261 37.9356 16.9498 37.5545 15.9888C37.0463 14.745 36.7668 13.4447 36.7668 12.088C36.7499 11.0329 36.7555 9.97778 36.7612 8.92268V8.92214C36.764 8.39449 36.7668 7.86685 36.7668 7.33919C36.7668 7.00001 36.8176 6.63256 36.8685 6.29336C36.8685 6.18029 36.8939 6.06722 36.9447 5.95416C37.0463 5.6715 37.2496 5.55843 37.5037 5.55843C37.7578 5.55843 37.961 5.6715 38.0626 5.95416C38.1134 6.12376 38.1389 6.26509 38.1643 6.43469C38.173 6.59891 38.1846 6.75983 38.1962 6.9197L38.1962 6.9198V6.91987V6.91994V6.92001V6.92006V6.92012V6.92016C38.2185 7.22794 38.2405 7.53186 38.2405 7.84803V15.9888C38.2405 16.0524 38.2373 16.1159 38.2341 16.1795C38.2246 16.3703 38.2151 16.5611 38.2913 16.7519L38.2915 16.752C38.3677 16.7802 38.4438 16.8085 38.4946 16.8085H42.4329C42.4837 16.8085 42.5344 16.7834 42.5852 16.7583C42.6107 16.7457 42.6361 16.7331 42.6616 16.7237C42.6616 16.6069 42.6683 16.5051 42.6749 16.4067L42.6749 16.4066C42.681 16.3147 42.687 16.2257 42.687 16.1301V6.94351C42.687 6.46296 42.6616 5.95416 42.5599 5.47363C42.1534 3.24058 41.0101 1.74246 38.9773 1.2054C37.7832 0.894466 36.5381 0.894466 35.3439 1.2902C34.2601 1.62711 33.4262 2.26436 32.8422 3.16707C32.3788 3.64707 31.4844 4.9378 31.4061 7.05224L31.3986 7.25743C31.3352 8.97511 31.1271 14.6151 31.711 16.2388C32.2954 17.9348 31.0757 19.4895 30.6438 19.857C30.2118 20.2244 29.1955 21.4964 32.3462 22.1748C32.4656 22.2005 32.5877 22.2072 32.7114 22.1976C32.7507 22.2107 32.7897 22.2233 32.8285 22.2356C33.2347 22.3627 33.6472 22.4827 34.0597 22.6028L34.0601 22.6029C34.4732 22.7231 34.8863 22.8433 35.2931 22.9706C35.5876 23.0729 35.8955 23.205 36.1974 23.3345L36.1977 23.3346C36.3124 23.3838 36.4262 23.4327 36.5381 23.4793C36.7668 23.5925 36.9193 23.762 37.0463 23.9881C37.6561 25.2319 38.1389 26.5039 38.2405 27.9172C38.249 28.1056 38.2602 28.294 38.2715 28.4825C38.2941 28.8594 38.3167 29.2363 38.3167 29.6132V33.4291C38.3167 33.938 38.2913 34.4185 38.1389 34.899C38.0118 35.2382 37.7832 35.4643 37.4274 35.4926C37.0463 35.5209 36.7668 35.3513 36.6143 34.9555C36.5127 34.7294 36.4619 34.475 36.4365 34.2206C36.3857 33.8249 36.3857 33.4291 36.3857 33.0334V25.2601C36.3857 25.1932 36.3886 25.1295 36.3915 25.0668V25.0667V25.0666V25.0666V25.0665V25.0665V25.0665V25.0664V25.0664C36.3971 24.944 36.4025 24.8256 36.3857 24.6948C36.3857 24.6147 36.3602 24.5204 36.3362 24.432L36.3362 24.432C36.3264 24.3956 36.3169 24.3603 36.3095 24.3274C36.2822 24.3198 36.2568 24.3122 36.2332 24.3052C36.1688 24.286 36.118 24.2708 36.0808 24.2708H32.2695C32.208 24.2708 32.1465 24.2915 32.0793 24.3141C32.0355 24.3289 31.9893 24.3445 31.9392 24.3556C31.9392 24.5048 31.9321 24.6383 31.9254 24.7643C31.9194 24.877 31.9138 24.9838 31.9138 25.0905V33.9945C31.9138 34.3902 31.9392 34.7859 31.9646 35.1817C32.117 36.9624 33.1588 39.2238 35.5472 39.8739C36.9193 40.2696 38.3167 40.2696 39.6888 39.8739C39.986 39.7939 40.2643 39.6887 40.5237 39.5594L40.5274 39.6735C40.5274 39.6735 40.5323 39.6194 40.6485 39.4945C40.9931 39.3079 41.3028 39.0768 41.5782 38.8035C41.6688 38.748 41.7672 38.6894 41.874 38.6277C43.1953 37.8928 43.6526 33.4549 43.6526 33.4549C43.6526 33.4549 43.6018 25.0598 43.6526 24.127C43.6974 23.3052 40.3694 22.0664 38.8298 21.4934L38.8296 21.4933C38.6219 21.4159 38.4467 21.3507 38.3168 21.3003C37.7265 21.0713 38.0115 20.5121 38.3982 20.0464ZM141.145 1.45586C141.175 1.44469 141.205 1.42912 141.234 1.41436C141.278 1.39175 141.318 1.37106 141.348 1.37106H145.592C145.676 1.37106 145.76 1.39052 145.859 1.41329L145.86 1.41349C145.88 1.4181 145.901 1.42285 145.922 1.42759C145.947 1.56892 145.973 1.71025 145.999 1.85158V2.55825V34.782C145.999 34.8514 145.996 34.9208 145.993 34.9902C145.985 35.2318 145.976 35.4733 146.074 35.7148C146.201 35.7431 146.354 35.7713 146.481 35.7713H149.276C149.372 35.7713 149.468 35.7776 149.569 35.7843L149.569 35.7843C149.683 35.7917 149.803 35.7996 149.937 35.7996C150.013 36.3088 150.003 36.8022 149.994 37.2915C149.99 37.4541 149.987 37.6161 149.987 37.7783C149.987 37.9399 149.989 38.1015 149.991 38.2635V38.2648V38.2661V38.2675C149.995 38.756 150 39.2485 149.962 39.7569C149.925 39.7673 149.891 39.7815 149.858 39.7953L149.858 39.7953C149.801 39.8191 149.747 39.8417 149.683 39.8417H141.298C141.259 39.8417 141.205 39.8086 141.159 39.7804L141.159 39.7801L141.158 39.7797L141.143 39.7707C141.135 39.7657 141.127 39.761 141.12 39.7569C141.044 39.135 140.993 4.1129 141.069 1.79505L141.071 1.78541L141.071 1.78493L141.071 1.78444L141.071 1.78395L141.071 1.78347L141.071 1.78298C141.096 1.67394 141.121 1.5649 141.145 1.45586ZM124.96 34.0229V20.5964V20.5931C124.96 16.0998 124.96 11.6348 124.985 7.16978C124.985 6.54794 124.985 5.92608 124.858 5.33249C124.401 3.26903 123.334 1.82744 121.454 1.26212C120.234 0.894654 118.989 0.922921 117.744 1.14905C115.711 1.51652 114.467 2.87331 113.907 5.04982C113.73 5.72821 113.704 6.43487 113.704 7.14156V33.9946C113.704 34.5317 113.73 35.0405 113.806 35.5493C114.034 37.3301 115.076 39.337 117.287 39.9306C118.455 40.2416 119.675 40.2416 120.87 40.0437C122.979 39.7044 124.477 38.065 124.833 35.7189C124.935 35.1536 124.96 34.5882 124.96 34.0229ZM118.582 33.0894V20.5957C118.582 16.4122 118.582 12.2571 118.532 8.0737C118.532 7.97491 118.53 7.87619 118.529 7.77741V7.77723V7.77704V7.77686C118.524 7.48009 118.519 7.18326 118.557 6.88648C118.608 6.54728 118.684 6.23635 118.786 5.92542C118.862 5.69929 119.04 5.58623 119.243 5.58623C119.378 5.56958 119.504 5.61174 119.6 5.69541C119.692 5.75192 119.764 5.83787 119.803 5.95325C119.879 6.17939 119.955 6.43378 120.006 6.68818C120.057 7.11215 120.082 7.53617 120.082 7.96018V33.3152C120.082 33.7391 120.057 34.1631 120.031 34.587V34.5872C120.006 34.785 119.955 35.0112 119.904 35.209C119.803 35.4917 119.599 35.6047 119.345 35.6047C119.249 35.6047 119.159 35.5843 119.081 35.545C118.929 35.4939 118.814 35.3792 118.761 35.1812C118.684 34.9268 118.634 34.6441 118.608 34.3614C118.582 33.9375 118.582 33.5135 118.582 33.0894ZM138.681 20.5938V34.0203C138.681 34.5574 138.655 35.0945 138.579 35.6315C138.198 37.8928 137.029 39.4192 134.971 39.928C133.675 40.2672 132.354 40.2672 131.058 39.8997C129.025 39.3344 127.907 37.808 127.526 35.575C127.45 35.0662 127.425 34.5574 127.425 34.0203V7.0259C127.425 6.31921 127.475 5.61256 127.653 4.93416C128.187 2.87071 129.432 1.54219 131.388 1.14646C132.633 0.892059 133.878 0.892059 135.098 1.25952C137.054 1.82485 138.147 3.29471 138.554 5.41469C138.655 5.95175 138.681 6.48881 138.681 7.0259V20.5938ZM132.405 6.40344C132.408 6.37749 132.414 6.35153 132.42 6.32558C132.453 6.17818 132.516 6.01995 132.58 5.90052L132.581 5.89754L132.582 5.89465C132.786 5.49928 133.268 5.49892 133.471 5.89356L133.472 5.89432L133.472 5.89507V5.89574C133.596 6.11587 133.671 6.38941 133.699 6.66432L133.7 6.6755L133.701 6.68654C133.751 7.16706 133.777 7.67584 133.777 8.15641V20.735V32.9461C133.777 33.4549 133.751 33.9919 133.726 34.5007C133.701 34.7268 133.65 34.953 133.574 35.1791C133.497 35.4618 133.269 35.5749 133.015 35.5749C132.996 35.5749 132.978 35.5741 132.96 35.5726C132.732 35.5572 132.551 35.441 132.481 35.1787C132.405 34.9243 132.354 34.6699 132.328 34.4155C132.303 34.0763 132.303 33.7088 132.303 33.3696V7.8733C132.303 7.39279 132.354 6.88397 132.405 6.40344Z" fill="white"/>
</svg>
