<svg width="31" height="30" viewBox="0 0 31 30" fill="none" xmlns="http://www.w3.org/2000/svg">
<circle cx="15.0669" cy="15" r="14.75" stroke="url(#paint0_linear)" stroke-width="0.5"/>
<path d="M27.1762 23.7445C25.9618 20.1584 23.1911 17.2602 19.6511 15.8834C21.067 14.6079 21.9643 12.7661 21.9643 10.7143C21.9643 6.87429 18.84 3.75 15 3.75C11.16 3.75 8.03571 6.87429 8.03571 10.7143C8.03571 12.7661 8.93304 14.6079 10.3495 15.8834C6.80946 17.2607 4.03875 20.1584 2.82429 23.7445C1.04946 21.2807 0 18.2614 0 15C0 6.72911 6.72911 0 15 0C23.2709 0 30 6.72911 30 15C30 18.2614 28.9505 21.2807 27.1762 23.7445Z" fill="url(#paint1_linear)" fill-opacity="0.2"/>
<path d="M27.1762 23.7445C25.9617 20.1584 23.191 17.2602 19.651 15.8834C21.0669 14.6079 21.9642 12.7661 21.9642 10.7143C21.9642 6.87429 18.8399 3.75 14.9999 3.75C11.1599 3.75 8.03565 6.87429 8.03565 10.7143C8.03565 12.7661 8.93297 14.6079 10.3494 15.8834C6.8094 17.2607 4.03868 20.1584 2.82422 23.7445" stroke="url(#paint2_linear)" stroke-width="0.5"/>
<defs>
<linearGradient id="paint0_linear" x1="0.0668945" y1="17.0536" x2="30.5196" y2="17.2317" gradientUnits="userSpaceOnUse">
<stop stop-color="#FEBD2F"/>
<stop offset="0.248726" stop-color="#F95721"/>
<stop offset="0.502913" stop-color="#FC1370"/>
<stop offset="0.671875" stop-color="#BA2DB2"/>
<stop offset="0.776042" stop-color="#8342E9"/>
<stop offset="0.963542" stop-color="#3F89FC"/>
</linearGradient>
<linearGradient id="paint1_linear" x1="-1.07143" y1="17.2003" x2="31.5565" y2="17.3911" gradientUnits="userSpaceOnUse">
<stop stop-color="#FEBD2F"/>
<stop offset="0.248726" stop-color="#F95721"/>
<stop offset="0.502913" stop-color="#FC1370"/>
<stop offset="0.671875" stop-color="#BA2DB2"/>
<stop offset="0.776042" stop-color="#8342E9"/>
<stop offset="0.963542" stop-color="#3F89FC"/>
</linearGradient>
<linearGradient id="paint2_linear" x1="2.82422" y1="15.1159" x2="27.5432" y2="15.292" gradientUnits="userSpaceOnUse">
<stop stop-color="#FEBD2F"/>
<stop offset="0.248726" stop-color="#F95721"/>
<stop offset="0.502913" stop-color="#FC1370"/>
<stop offset="0.671875" stop-color="#BA2DB2"/>
<stop offset="0.776042" stop-color="#8342E9"/>
<stop offset="0.963542" stop-color="#3F89FC"/>
</linearGradient>
</defs>
</svg>
