<svg width="150" height="50" viewBox="0 0 150 50" fill="none" xmlns="http://www.w3.org/2000/svg">
<rect width="150" height="50" fill="white"/>
<g clip-path="url(#clip0)">
<path d="M61.0096 16.1354H54.7924C54.5865 16.1353 54.3874 16.2087 54.2309 16.3424C54.0744 16.476 53.9708 16.6612 53.9387 16.8645L51.4242 32.8073C51.4126 32.8812 51.4172 32.9568 51.4377 33.0289C51.4582 33.1009 51.494 33.1676 51.5427 33.2245C51.5914 33.2813 51.6519 33.327 51.72 33.3582C51.788 33.3894 51.862 33.4055 51.9369 33.4054H54.9051C55.111 33.4055 55.3103 33.332 55.4668 33.1982C55.6233 33.0643 55.7269 32.8789 55.7587 32.6754L56.4369 28.3754C56.4688 28.1721 56.5722 27.9868 56.7285 27.853C56.8848 27.7192 57.0838 27.6456 57.2896 27.6454H59.2578C63.3533 27.6454 65.7169 25.6636 66.3342 21.7363C66.6124 20.0182 66.346 18.6682 65.5415 17.7227C64.6578 16.6845 63.0905 16.1354 61.0096 16.1354ZM61.7269 21.9582C61.3869 24.1891 59.6824 24.1891 58.0342 24.1891H57.096L57.7542 20.0227C57.7735 19.9008 57.8356 19.7898 57.9294 19.7096C58.0232 19.6295 58.1426 19.5854 58.266 19.5854H58.696C59.8187 19.5854 60.8778 19.5854 61.4251 20.2254C61.7515 20.6073 61.8515 21.1745 61.7269 21.9582ZM79.5942 21.8863H76.6169C76.4935 21.8863 76.3742 21.9304 76.2803 22.0106C76.1865 22.0907 76.1244 22.2017 76.1051 22.3236L75.9733 23.1563L75.7651 22.8545C75.1206 21.9191 73.6833 21.6063 72.2487 21.6063C68.9587 21.6063 66.1487 24.0982 65.6015 27.5936C65.3169 29.3373 65.7215 31.0045 66.7105 32.1673C67.6178 33.2363 68.916 33.6818 70.4605 33.6818C73.1115 33.6818 74.5815 31.9773 74.5815 31.9773L74.4487 32.8045C74.4369 32.8785 74.4413 32.9541 74.4615 33.0263C74.4817 33.0984 74.5173 33.1653 74.5659 33.2223C74.6144 33.2793 74.6748 33.3251 74.7428 33.3566C74.8107 33.3881 74.8847 33.4044 74.9596 33.4045H77.6415C77.8474 33.4046 78.0466 33.3311 78.2032 33.1973C78.3597 33.0634 78.4632 32.878 78.4951 32.6745L80.1042 22.4845C80.116 22.4107 80.1117 22.3352 80.0915 22.2633C80.0713 22.1913 80.0358 22.1246 79.9873 22.0677C79.9388 22.0108 79.8785 21.9651 79.8107 21.9338C79.7428 21.9025 79.6689 21.8863 79.5942 21.8863ZM75.4442 27.6809C75.1569 29.3818 73.8069 30.5236 72.0851 30.5236C71.2205 30.5236 70.5296 30.2463 70.086 29.7209C69.646 29.1991 69.4787 28.4563 69.6187 27.6291C69.8869 25.9427 71.2596 24.7636 72.9551 24.7636C73.8006 24.7636 74.4878 25.0445 74.9405 25.5745C75.3942 26.11 75.5742 26.8573 75.4442 27.6809ZM95.4506 21.8863H92.4587C92.3176 21.8866 92.1787 21.9212 92.054 21.9873C91.9294 22.0533 91.8227 22.1488 91.7433 22.2654L87.6169 28.3436L85.8678 22.5027C85.8141 22.3246 85.7045 22.1684 85.5552 22.0574C85.4059 21.9464 85.2248 21.8864 85.0387 21.8863H82.0987C82.0162 21.8861 81.9348 21.9056 81.8613 21.9432C81.7879 21.9808 81.7244 22.0354 81.6763 22.1024C81.6282 22.1695 81.5968 22.2471 81.5847 22.3287C81.5727 22.4103 81.5803 22.4937 81.6069 22.5718L84.9024 32.2427L81.8042 36.6163C81.7491 36.6939 81.7165 36.7851 81.7098 36.88C81.7031 36.9748 81.7227 37.0697 81.7663 37.1542C81.81 37.2387 81.876 37.3095 81.9573 37.359C82.0385 37.4084 82.1318 37.4346 82.2269 37.4345H85.2151C85.3546 37.4347 85.4921 37.4011 85.6158 37.3365C85.7394 37.2719 85.8456 37.1782 85.9251 37.0636L95.876 22.7C95.9299 22.6223 95.9616 22.5313 95.9675 22.4369C95.9734 22.3425 95.9533 22.2482 95.9095 22.1644C95.8657 22.0806 95.7997 22.0104 95.7188 21.9613C95.6379 21.9123 95.5451 21.8864 95.4506 21.8863Z" fill="#253B80"/>
<path d="M105.357 16.1354H99.1393C98.9336 16.1355 98.7347 16.209 98.5784 16.3427C98.4221 16.4763 98.3186 16.6614 98.2865 16.8645L95.772 32.8072C95.7603 32.8811 95.7648 32.9566 95.7851 33.0286C95.8053 33.1005 95.841 33.1672 95.8896 33.2241C95.9381 33.281 95.9984 33.3266 96.0663 33.3579C96.1342 33.3892 96.2081 33.4054 96.2829 33.4054H99.4738C99.6178 33.4052 99.7569 33.3536 99.8662 33.26C99.9756 33.1663 100.048 33.0367 100.07 32.8945L100.784 28.3754C100.816 28.1721 100.919 27.9868 101.075 27.853C101.232 27.7192 101.431 27.6456 101.637 27.6454H103.604C107.7 27.6454 110.063 25.6636 110.681 21.7363C110.96 20.0182 110.692 18.6682 109.887 17.7227C109.005 16.6845 107.438 16.1354 105.357 16.1354ZM106.075 21.9582C105.736 24.1891 104.031 24.1891 102.382 24.1891H101.445L102.104 20.0227C102.123 19.9008 102.185 19.7897 102.278 19.7095C102.372 19.6293 102.491 19.5853 102.615 19.5854H103.045C104.167 19.5854 105.227 19.5854 105.774 20.2254C106.1 20.6072 106.199 21.1745 106.075 21.9582ZM123.941 21.8863H120.966C120.842 21.886 120.723 21.9299 120.629 22.0102C120.535 22.0904 120.473 22.2016 120.455 22.3236L120.323 23.1563L120.114 22.8545C119.469 21.9191 118.033 21.6063 116.598 21.6063C113.308 21.6063 110.499 24.0982 109.952 27.5936C109.668 29.3372 110.071 31.0045 111.06 32.1673C111.969 33.2363 113.266 33.6818 114.81 33.6818C117.461 33.6818 118.931 31.9772 118.931 31.9772L118.798 32.8045C118.786 32.8786 118.791 32.9544 118.811 33.0267C118.832 33.0989 118.867 33.1659 118.916 33.223C118.965 33.28 119.025 33.3258 119.094 33.3572C119.162 33.3885 119.236 33.4047 119.311 33.4045H121.992C122.198 33.4044 122.397 33.3308 122.553 33.197C122.709 33.0631 122.813 32.8778 122.845 32.6745L124.455 22.4845C124.466 22.4105 124.461 22.3349 124.441 22.2628C124.42 22.1908 124.384 22.1241 124.336 22.0673C124.287 22.0104 124.226 21.9648 124.158 21.9336C124.09 21.9024 124.016 21.8863 123.941 21.8863ZM119.791 27.6809C119.506 29.3818 118.154 30.5236 116.432 30.5236C115.569 30.5236 114.877 30.2463 114.433 29.7209C113.993 29.1991 113.827 28.4563 113.966 27.6291C114.236 25.9427 115.607 24.7636 117.302 24.7636C118.147 24.7636 118.835 25.0445 119.287 25.5745C119.743 26.11 119.923 26.8572 119.791 27.6809ZM127.451 16.5727L124.899 32.8072C124.888 32.8811 124.892 32.9566 124.912 33.0286C124.933 33.1005 124.968 33.1672 125.017 33.2241C125.065 33.281 125.126 33.3266 125.194 33.3579C125.262 33.3892 125.335 33.4054 125.41 33.4054H127.976C128.402 33.4054 128.764 33.0963 128.829 32.6754L131.346 16.7336C131.357 16.6597 131.353 16.5842 131.333 16.5122C131.312 16.4401 131.277 16.3734 131.228 16.3165C131.18 16.2595 131.119 16.2138 131.051 16.1824C130.983 16.151 130.91 16.1347 130.835 16.1345H127.962C127.839 16.135 127.72 16.1793 127.626 16.2596C127.532 16.3399 127.47 16.4509 127.451 16.5727Z" fill="#179BD7"/>
<path d="M25.6055 36.5036L26.081 33.4836L25.0219 33.459H19.9646L23.4791 11.1745C23.4896 11.1064 23.5242 11.0443 23.5766 10.9996C23.629 10.9549 23.6957 10.9305 23.7646 10.9309H32.2919C35.1228 10.9309 37.0764 11.5199 38.0964 12.6827C38.5746 13.2281 38.8791 13.7981 39.0264 14.4254C39.181 15.0836 39.1837 15.8699 39.0328 16.829L39.0219 16.899V17.5136L39.5001 17.7845C39.8651 17.9694 40.1932 18.2196 40.4682 18.5227C40.8773 18.989 41.1419 19.5818 41.2537 20.2845C41.3691 21.0072 41.331 21.8672 41.1419 22.8409C40.9237 23.9609 40.571 24.9363 40.0946 25.7345C39.6743 26.4495 39.1092 27.0688 38.4355 27.5527C37.8028 28.0018 37.051 28.3427 36.201 28.5609C35.3773 28.7754 34.4382 28.8836 33.4082 28.8836H32.7446C32.2701 28.8836 31.8091 29.0545 31.4473 29.3609C31.086 29.6705 30.8463 30.0983 30.771 30.5681L30.721 30.8399L29.881 36.1627L29.8428 36.3581C29.8328 36.4199 29.8155 36.4509 29.7901 36.4718C29.7654 36.4919 29.7346 36.5031 29.7028 36.5036H25.6055Z" fill="#253B80"/>
<path d="M39.9527 16.97C39.9272 17.1327 39.8981 17.2991 39.8654 17.47C38.7409 23.2436 34.8936 25.2382 29.98 25.2382H27.4781C26.8772 25.2382 26.3709 25.6745 26.2772 26.2672L24.9963 34.3909L24.6336 36.6936C24.6191 36.785 24.6247 36.8783 24.6498 36.9673C24.6749 37.0563 24.719 37.1389 24.779 37.2092C24.8391 37.2795 24.9136 37.336 24.9976 37.3747C25.0816 37.4135 25.1729 37.4336 25.2654 37.4336H29.7027C30.2281 37.4336 30.6745 37.0518 30.7572 36.5336L30.8009 36.3082L31.6363 31.0063L31.69 30.7154C31.7718 30.1954 32.219 29.8136 32.7445 29.8136H33.4081C37.7072 29.8136 41.0727 28.0682 42.0563 23.0172C42.4672 20.9072 42.2545 19.1454 41.1672 17.9063C40.8226 17.523 40.4111 17.2057 39.9527 16.97Z" fill="#179BD7"/>
<path d="M38.7757 16.5008C38.4166 16.397 38.0514 16.3159 37.6821 16.2581C36.9524 16.146 36.2149 16.0921 35.4766 16.0972H28.793C28.5386 16.097 28.2926 16.1878 28.0993 16.3532C27.9061 16.5186 27.7784 16.7477 27.7393 16.999L26.3175 26.0045L26.2766 26.2672C26.3209 25.9805 26.4663 25.7191 26.6866 25.5304C26.9069 25.3416 27.1874 25.238 27.4775 25.2381H29.9793C34.893 25.2381 38.7402 23.2426 39.8648 17.4699C39.8984 17.299 39.9266 17.1326 39.9521 16.9699C39.6553 16.8143 39.3461 16.6838 39.0275 16.5799C38.944 16.5522 38.8601 16.5258 38.7757 16.5008Z" fill="#222D65"/>
<path d="M27.7399 16.9991C27.7786 16.7477 27.9063 16.5185 28.0996 16.3532C28.293 16.1879 28.5392 16.0974 28.7936 16.0982H35.4772C36.269 16.0982 37.0081 16.15 37.6826 16.2591C38.1391 16.3308 38.5893 16.4381 39.029 16.58C39.3608 16.69 39.669 16.82 39.9536 16.97C40.2881 14.8364 39.9508 13.3836 38.7972 12.0682C37.5254 10.62 35.2299 10 32.2926 10H23.7654C23.1654 10 22.6536 10.4364 22.5608 11.03L19.009 33.5436C18.9925 33.6482 18.9988 33.755 19.0275 33.8569C19.0562 33.9588 19.1066 34.0532 19.1753 34.1337C19.2439 34.2142 19.3292 34.2789 19.4253 34.3233C19.5214 34.3677 19.6259 34.3908 19.7317 34.3909H24.9963L26.3181 26.0045L27.7399 16.9991Z" fill="#253B80"/>
</g>
<defs>
<clipPath id="clip0">
<rect width="112.727" height="30" fill="white" transform="translate(19 10)"/>
</clipPath>
</defs>
</svg>
