<svg width="141" height="141" viewBox="0 0 141 141" fill="none" xmlns="http://www.w3.org/2000/svg">
<circle cx="70.5" cy="70.5" r="70" fill="#111111" stroke="url(#paint0_linear)"/>
<circle cx="70.5" cy="70.5" r="70" fill="#111111" stroke="url(#paint1_linear)"/>
<rect x="26.5" y="37.78" width="87.9968" height="66.0862" fill="url(#paint2_linear)" fill-opacity="0.2" stroke="url(#paint3_linear)" stroke-width="0.83"/>
<path fill-rule="evenodd" clip-rule="evenodd" d="M34.9675 62.5808V37.365H34.1276V104.281H34.9675V63.4208H47.4032V62.5808H34.9675ZM114.913 63.1246H72.8646V62.2846H114.913V63.1246ZM103.066 81.0381H114.915V80.1981H103.066V81.0381ZM85.3061 81.1121H36.1518V80.2721H85.3061V81.1121Z" fill="url(#paint4_linear)"/>
<path d="M97.587 77.7888C95.4407 76.2153 93.7719 74.6449 92.5082 73.0166L91.7653 72.0595V73.2711L91.7653 90.4792C91.7653 92.636 90.0099 94.3913 87.8532 94.3913C85.6964 94.3913 83.941 92.636 83.941 90.4792C83.941 88.3224 85.6964 86.567 87.8532 86.567C88.5654 86.567 89.2325 86.7591 89.8085 87.0932L90.4317 87.4546V86.7342V69.781V68.7417C90.5633 68.8006 90.706 68.871 90.8531 68.9496C91.1836 69.1263 91.4951 69.3223 91.6917 69.4688L92.9001 71.2812C94.1517 73.1586 95.9492 74.9345 98.3755 76.7131L98.6208 76.3784L98.3755 76.7131C99.6551 77.6511 100.42 79.1586 100.42 80.7431C100.42 81.4329 100.28 81.9279 100.056 82.2905C99.8335 82.6505 99.5083 82.9132 99.079 83.1055C98.7409 83.2569 98.3478 83.3609 97.9076 83.4316C98.6319 82.7624 99.086 81.805 99.086 80.7432C99.086 79.5804 98.5258 78.4769 97.587 77.7888ZM97.587 77.7888L97.3417 78.1235M97.587 77.7888L97.3417 78.1235M97.3417 78.1235C95.3972 76.698 93.8303 75.2677 92.5953 73.7867M97.3417 78.1235C98.1741 78.7336 98.671 79.7129 98.671 80.7432C98.671 81.9214 98.0399 82.955 97.098 83.5237L92.5953 73.7867M92.5953 73.7867V73.2711H92.1803L91.8525 73.5255C91.9591 73.6629 92.0683 73.7997 92.1803 73.9361L92.1803 90.4792C92.1803 92.8652 90.2391 94.8064 87.8532 94.8064C85.4672 94.8064 83.526 92.8652 83.526 90.4792C83.526 88.0932 85.4672 86.152 87.8532 86.152C88.4753 86.152 89.0668 86.2847 89.6017 86.5224V86.7342H90.0167L90.2249 86.3752C90.1566 86.3356 90.0872 86.2976 90.0167 86.2613V69.781L92.5953 73.7867Z" fill="#111111" stroke="url(#paint5_linear)" stroke-width="0.83"/>
<path d="M67.4852 50.5119L67.4852 50.512L67.4955 50.5091C67.6728 50.459 67.9762 50.3888 68.2583 50.3241V51.086V68.3327C68.2583 70.3411 66.6237 71.9758 64.6153 71.9758C62.6068 71.9758 60.9722 70.3411 60.9722 68.3327C60.9722 66.3243 62.6068 64.6896 64.6153 64.6896C65.2785 64.6896 65.8997 64.8685 66.4361 65.1796L67.0593 65.541V64.8206V56.4855V55.9367L66.5313 56.0862L54.2218 59.57L53.9199 59.6555V59.9693V72.3908C53.9199 74.3992 52.2852 76.0338 50.2768 76.0338C48.2684 76.0338 46.6337 74.3992 46.6337 72.3908C46.6337 70.3823 48.2684 68.7477 50.2768 68.7477C50.94 68.7477 51.5612 68.9265 52.0976 69.2376L52.7208 69.5991V68.8786V55.144V54.2826L67.4852 50.5119Z" fill="#111111" stroke="url(#paint6_linear)" stroke-width="0.83"/>
<defs>
<linearGradient id="paint0_linear" x1="2.76319e-08" y1="80.1518" x2="143.128" y2="80.9888" gradientUnits="userSpaceOnUse">
<stop stop-color="#FEBD2F"/>
<stop offset="0.248726" stop-color="#F95721"/>
<stop offset="0.502913" stop-color="#FC1370"/>
<stop offset="0.671875" stop-color="#BA2DB2"/>
<stop offset="0.776042" stop-color="#8342E9"/>
<stop offset="0.963542" stop-color="#3F89FC"/>
</linearGradient>
<linearGradient id="paint1_linear" x1="2.76319e-08" y1="80.1518" x2="143.128" y2="80.9888" gradientUnits="userSpaceOnUse">
<stop stop-color="#FEBD2F"/>
<stop offset="0.248726" stop-color="#F95721"/>
<stop offset="0.502913" stop-color="#FC1370"/>
<stop offset="0.671875" stop-color="#BA2DB2"/>
<stop offset="0.776042" stop-color="#8342E9"/>
<stop offset="0.963542" stop-color="#3F89FC"/>
</linearGradient>
<linearGradient id="paint2_linear" x1="26.085" y1="75.4036" x2="116.25" y2="76.1036" gradientUnits="userSpaceOnUse">
<stop stop-color="#FEBD2F"/>
<stop offset="0.248726" stop-color="#F95721"/>
<stop offset="0.502913" stop-color="#FC1370"/>
<stop offset="0.671875" stop-color="#BA2DB2"/>
<stop offset="0.776042" stop-color="#8342E9"/>
<stop offset="0.963542" stop-color="#3F89FC"/>
</linearGradient>
<linearGradient id="paint3_linear" x1="26.085" y1="75.4036" x2="116.25" y2="76.1036" gradientUnits="userSpaceOnUse">
<stop stop-color="#FEBD2F"/>
<stop offset="0.248726" stop-color="#F95721"/>
<stop offset="0.502913" stop-color="#FC1370"/>
<stop offset="0.671875" stop-color="#BA2DB2"/>
<stop offset="0.776042" stop-color="#8342E9"/>
<stop offset="0.963542" stop-color="#3F89FC"/>
</linearGradient>
<linearGradient id="paint4_linear" x1="34.1276" y1="75.4036" x2="116.133" y2="75.9826" gradientUnits="userSpaceOnUse">
<stop stop-color="#FEBD2F"/>
<stop offset="0.248726" stop-color="#F95721"/>
<stop offset="0.502913" stop-color="#FC1370"/>
<stop offset="0.671875" stop-color="#BA2DB2"/>
<stop offset="0.776042" stop-color="#8342E9"/>
<stop offset="0.963542" stop-color="#3F89FC"/>
</linearGradient>
<linearGradient id="paint5_linear" x1="83.526" y1="83.3065" x2="101.096" y2="83.3732" gradientUnits="userSpaceOnUse">
<stop stop-color="#FEBD2F"/>
<stop offset="0.248726" stop-color="#F95721"/>
<stop offset="0.502913" stop-color="#FC1370"/>
<stop offset="0.671875" stop-color="#BA2DB2"/>
<stop offset="0.776042" stop-color="#8342E9"/>
<stop offset="0.963542" stop-color="#3F89FC"/>
</linearGradient>
<linearGradient id="paint6_linear" x1="46.2188" y1="64.9489" x2="69.0124" y2="65.0612" gradientUnits="userSpaceOnUse">
<stop stop-color="#FEBD2F"/>
<stop offset="0.248726" stop-color="#F95721"/>
<stop offset="0.502913" stop-color="#FC1370"/>
<stop offset="0.671875" stop-color="#BA2DB2"/>
<stop offset="0.776042" stop-color="#8342E9"/>
<stop offset="0.963542" stop-color="#3F89FC"/>
</linearGradient>
</defs>
</svg>
