<svg width="1440" height="366" viewBox="0 0 1440 366" fill="none" xmlns="http://www.w3.org/2000/svg">
<path d="M-149 165.51C-149 165.51 -46.7177 159.613 34.5094 95.8117C112.694 34.3979 168.642 30.1059 200.444 78.7798C211.398 95.5532 251.245 254.791 291.883 252.9C332.52 251.009 347.916 41.1589 415.646 37.3703C483.376 33.5884 489.291 166.251 543.475 168.142C597.659 170.033 675.587 59.1225 708.412 27.6776C760.222 -21.9622 817.193 11.1356 831.64 20.4201C876.647 49.3347 804.779 301.975 887.321 360.784C948.977 404.717 976.678 90.8191 1047.79 90.8191C1118.9 90.8191 1140.17 184.385 1207.9 180.597C1275.63 176.808 1304.42 54.1708 1368.77 48.4981C1433.11 42.8185 1385.53 178.413 1449.92 196.901C1516.31 215.959 1626.13 252.655 1660 239.405" stroke="url(#paint0_linear)" stroke-miterlimit="10"/>
<path d="M-148.418 166.469C-148.418 166.469 -48.3875 160.198 31.3913 100.151C43.9149 90.7307 55.9761 82.7861 67.1852 76.1748C124.959 42.0704 165.634 46.3215 194.503 84.9695C207.696 102.634 249.49 254.696 289.324 252.376C329.439 249.968 344.567 48.4233 409.437 42.6825C428.545 41.0297 442.565 50.7359 454.48 65.4415C483.021 100.641 498.112 164.646 535.61 166.972C551.31 167.945 569.006 159.395 586.995 146.07C629.677 114.707 675.877 56.225 699.659 34.6699C717.963 18.0735 736.268 10.986 753.112 9.41474C783.6 6.57157 809.815 22.0049 819.479 28.3238C864.9 57.8982 803.499 300.737 885.091 356.614C945.737 398.303 975.58 98.4916 1046.35 95.628C1114.16 92.8868 1135.61 181.079 1200.14 175.72C1266.07 170.244 1294.94 52.8785 1356.53 47.2261C1420.76 41.329 1379.85 179.311 1443.3 198.451C1444.92 198.941 1446.56 199.431 1448.22 199.914C1514.63 219.143 1625.97 252.295 1659.21 239.99" stroke="url(#paint1_linear)" stroke-miterlimit="10"/>
<path d="M-147.822 167.421C-147.822 167.421 -49.9815 160.769 28.2881 104.484C40.7265 95.5396 52.812 88.0712 63.7778 81.7999C119.787 49.7428 158.052 54.6198 188.552 91.1456C204.081 109.749 247.737 254.655 286.757 251.839C326.372 248.982 341.172 55.5516 403.218 47.9812C421.45 45.757 434.898 54.4497 446.679 68.0806C474.976 100.791 490.932 162.456 527.736 165.782C542.998 167.163 560.073 159.456 577.624 147.213C619.101 118.265 666.36 62.6731 690.908 41.6419C709.274 25.9092 727.031 18.9577 743.291 17.4341C772.16 14.7338 797.341 29.5822 807.321 36.2004C853.168 66.4277 802.209 299.479 882.876 352.418C942.512 391.855 974.071 106.232 1044.94 100.41C1109.2 95.1315 1131.15 177.685 1192.4 170.809C1256.64 163.599 1285.47 51.5385 1344.33 45.9202C1408.44 39.7986 1374.17 180.209 1436.7 199.968C1438.36 200.492 1440.01 201.009 1441.69 201.492C1507.76 220.564 1625.01 252.213 1658.44 240.541" stroke="url(#paint2_linear)" stroke-miterlimit="10"/>
<path d="M-147.236 168.38C-147.236 168.38 -51.5497 161.361 25.1742 108.823C37.5274 100.362 49.6494 93.3697 60.3718 87.4317C114.604 57.4084 150.946 62.8499 182.602 97.3352C200.566 116.89 245.987 254.58 284.203 251.308C323.307 247.962 337.79 62.7546 397.013 53.2865C414.356 50.5113 427.244 58.177 438.892 70.7332C466.957 100.967 483.753 160.273 519.875 164.612C534.687 166.387 551.215 159.558 568.266 148.376C608.648 121.89 656.82 69.1484 682.171 48.6408C700.549 33.7652 717.807 26.9566 733.495 25.4874C760.733 22.9367 784.88 37.207 795.176 44.1108C841.315 75.0524 801.201 298.125 880.675 348.248C939.484 385.345 972.198 114.129 1043.53 105.219C1104.08 97.6549 1126.73 174.244 1184.66 165.925C1247.3 156.933 1275.99 50.2121 1332.11 44.6414C1396.12 38.2884 1368.48 181.161 1430.1 201.512C1431.78 202.07 1433.45 202.607 1435.16 203.097C1500.87 222.013 1624.05 252.159 1657.66 241.112" stroke="url(#paint3_linear)" stroke-miterlimit="10"/>
<path d="M-146.637 169.333C-146.637 169.333 -53.0442 161.946 22.0732 113.156C34.3655 105.178 46.4875 98.6617 56.9665 93.0638C109.398 65.081 144.206 71.019 176.665 103.518C197.16 124.039 244.249 254.505 281.649 250.778C320.242 246.935 334.397 69.9716 390.808 58.5921C407.275 55.2728 419.604 61.9046 431.117 73.3793C458.964 101.144 476.575 158.069 512.028 163.429C526.401 165.599 542.357 159.647 558.909 149.526C598.208 125.495 647.256 75.6035 673.423 55.6197C691.789 41.6011 708.572 34.9421 723.676 33.5137C749.295 31.1127 772.407 44.7912 783.02 51.9943C829.561 83.6024 799.986 296.826 878.45 344.058C936.298 378.877 969.998 122.182 1042.1 110.007C1098.82 100.423 1122.34 170.7 1176.91 161.028C1238.05 150.192 1266.5 48.8519 1319.89 43.3424C1383.79 36.7514 1362.75 182.12 1423.49 203.036C1425.21 203.628 1426.9 204.185 1428.64 204.682C1494.01 223.441 1623.09 252.091 1656.9 241.67" stroke="url(#paint4_linear)" stroke-miterlimit="10"/>
<path d="M-146.053 170.292C-146.053 170.292 -54.4929 162.551 18.9693 117.496C31.2008 109.994 43.3106 103.953 53.5705 98.6957C104.188 72.7399 137.792 79.12 170.725 109.708C193.85 131.188 242.496 254.424 279.093 250.254C317.175 245.915 331.001 77.2019 384.601 63.9043C400.179 60.0408 411.96 65.6388 423.328 76.0388C450.967 101.342 469.369 155.858 504.165 162.259C518.089 164.816 533.497 159.742 549.55 150.682C587.766 129.107 637.653 82.0652 664.684 62.6051C682.989 49.43 699.347 42.9274 713.866 41.5534C737.855 39.302 759.944 52.3888 770.861 59.898C817.804 92.1727 798.757 295.554 876.235 339.882C933.109 372.422 967.637 130.46 1040.67 114.809C1093.55 103.477 1117.97 167.075 1169.16 156.137C1228.83 143.384 1257.01 47.4915 1307.66 42.0568C1371.45 35.221 1356.99 183.113 1416.87 204.58C1418.61 205.206 1420.34 205.791 1422.09 206.287C1487.11 224.89 1622.11 252.036 1656.12 242.248" stroke="url(#paint5_linear)" stroke-miterlimit="10"/>
<path d="M-145.458 171.251C-145.458 171.251 -55.8578 163.17 15.864 121.836C28.0346 114.816 40.1444 109.252 50.1731 104.328C98.9653 80.3919 131.619 87.153 164.796 115.891C190.671 138.31 240.766 254.335 276.548 249.724C314.118 244.881 327.616 84.439 378.404 69.2097C393.094 64.8021 404.34 69.373 415.549 78.6847C443.018 101.532 462.187 153.627 496.313 161.075C509.786 164.02 524.647 159.831 540.189 151.832C577.346 132.712 628.012 88.5065 655.944 69.5906C674.163 57.2453 690.119 50.9128 704.067 49.5864C726.436 47.4847 747.504 59.9796 758.725 67.7881C806.069 100.723 797.538 294.269 874.03 335.699C929.918 365.967 965.213 138.969 1039.26 119.605C1088.33 106.769 1113.62 163.347 1161.42 151.24C1219.68 136.48 1247.52 46.1039 1295.45 40.7644C1359.12 33.6701 1351.24 184.12 1410.27 206.11C1412.03 206.77 1413.79 207.375 1415.56 207.879C1480.23 226.325 1621.16 251.968 1655.35 242.806" stroke="url(#paint6_linear)" stroke-miterlimit="10"/>
<path d="M-144.874 172.203C-144.874 172.203 -57.1604 163.803 12.748 126.168C24.8821 119.632 36.9555 114.537 46.7528 109.959C93.6951 88.0439 125.631 95.1315 158.833 122.074C187.568 145.397 239.001 254.24 273.979 249.193C311.039 243.847 324.208 91.6897 372.184 74.5151C385.986 69.577 396.721 73.1071 407.747 81.3373C435.082 101.75 454.982 151.383 488.439 159.905C501.461 163.225 515.786 159.933 530.817 152.995C566.927 136.323 618.312 94.9614 647.193 76.5829C665.291 65.0673 680.881 58.9049 694.245 57.6329C714.984 55.674 735.029 67.584 746.567 75.6918C794.324 109.279 796.284 293.004 871.815 331.522C926.705 359.519 962.852 147.737 1037.84 124.407C1083.21 110.293 1109.24 159.531 1153.68 146.356C1210.51 129.494 1238.03 44.7231 1283.23 39.4857C1346.79 32.1261 1345.45 185.161 1403.66 207.654C1405.46 208.348 1407.23 208.981 1409.03 209.491C1473.35 227.781 1620.19 251.927 1654.57 243.391" stroke="url(#paint7_linear)" stroke-miterlimit="10"/>
<path d="M-144.278 173.162C-144.278 173.162 -58.3528 164.47 9.64479 130.508C21.7546 124.461 33.7792 119.829 43.3576 115.592C88.4134 95.6826 119.826 103.049 152.894 128.263C184.61 152.451 237.261 254.145 271.424 248.67C307.972 242.813 320.812 98.9611 365.978 79.8276C378.903 74.3521 389.126 76.8483 399.958 83.9903C427.208 101.968 447.801 149.125 480.589 158.729C493.173 162.415 506.963 160.021 521.458 154.151C556.558 139.929 608.576 101.389 638.455 83.5686C656.407 72.8625 671.669 66.8905 684.448 65.6661C703.556 63.8568 722.591 75.1751 734.421 83.5822C782.604 117.829 795.031 291.725 869.612 327.34C923.504 353.071 960.722 156.763 1036.44 129.202C1078.24 113.986 1104.82 155.614 1145.95 141.459C1201.32 122.393 1228.55 43.3085 1271.04 38.1935C1334.47 30.5551 1339.67 186.208 1397.08 209.185C1398.9 209.913 1400.69 210.566 1402.52 211.083C1466.49 229.216 1619.25 251.86 1653.82 243.956" stroke="url(#paint8_linear)" stroke-miterlimit="10"/>
<path d="M-143.692 174.114C-143.692 174.114 -59.4828 165.163 6.53091 134.841C18.6286 129.283 30.5802 125.107 39.9394 121.223C83.0966 103.307 114.132 110.912 146.944 134.446C181.789 159.443 235.498 254.043 268.858 248.139C304.895 241.759 317.431 106.232 359.76 85.1327C371.809 79.1267 381.558 80.5823 392.159 86.6427C419.372 102.199 440.61 146.853 472.716 157.552C484.863 161.599 498.129 160.116 512.089 155.307C546.203 143.54 598.792 107.796 629.694 90.5606C647.463 80.6503 662.421 74.8892 674.616 73.7125C692.105 72.0528 710.118 82.7793 722.252 91.4925C770.861 126.393 793.73 290.48 867.375 323.177C920.244 346.65 958.898 166.075 1034.99 134.018C1073.41 117.829 1100.3 151.634 1138.18 136.582C1192 115.204 1219.03 41.9071 1258.8 36.9213C1322.11 28.9836 1333.83 187.283 1390.45 210.735C1392.3 211.504 1394.12 212.177 1395.96 212.694C1459.58 230.665 1618.27 251.812 1653.03 244.541" stroke="url(#paint9_linear)" stroke-miterlimit="10"/>
<path d="M-143.097 175.074C-143.097 175.074 -60.507 165.912 3.42558 139.18C15.5232 134.127 27.3896 130.399 36.542 126.855C77.7641 110.912 108.556 118.72 141.003 140.629C179.109 166.36 233.756 253.927 266.312 247.608C301.838 240.711 314.094 113.517 353.564 90.4316C364.736 83.9018 374.035 84.3099 384.38 89.2821C411.654 102.403 433.476 144.554 464.864 156.362C476.573 160.769 489.34 160.205 502.727 156.443C535.892 147.138 588.969 114.156 620.953 97.5259C638.503 88.3978 653.193 82.8543 664.816 81.7252C680.675 80.2152 697.677 90.3432 710.104 99.3624C759.151 134.909 792.438 289.202 865.17 318.966C917.005 340.181 957.57 175.591 1033.58 138.786C1068.81 121.72 1095.69 147.533 1130.44 131.664C1182.54 107.871 1209.53 40.4449 1246.57 35.6088C1309.76 27.3582 1327.98 188.33 1383.82 212.252C1385.7 213.055 1387.55 213.749 1389.41 214.273C1452.69 232.087 1617.28 251.737 1652.24 245.085" stroke="url(#paint10_linear)" stroke-miterlimit="10"/>
<path d="M-142.513 176.026C-142.513 176.026 -61.4566 166.707 0.309594 143.513C12.4194 138.962 24.1763 135.67 33.1339 132.48C72.3965 118.496 103.042 126.467 135.063 146.812C176.577 173.189 231.991 253.811 263.756 247.071C298.759 239.643 310.759 120.801 347.356 95.7299C357.665 88.6764 366.549 88.0234 376.59 91.9277C404.023 102.6 426.344 142.248 457.002 155.185C468.296 159.946 480.54 160.313 493.368 157.599C525.62 150.784 579.086 120.509 612.214 104.518C629.533 96.1584 643.968 90.8462 655.007 89.7715C669.246 88.4111 685.226 97.9473 697.957 107.266C747.431 143.465 791.123 287.963 862.955 314.797C913.755 333.767 956.815 185.371 1032.15 143.594C1064.42 125.706 1090.96 143.411 1122.69 126.78C1172.89 100.471 1200 39.0094 1234.35 34.3297C1297.4 25.739 1322.12 189.425 1377.21 213.796C1379.11 214.64 1380.99 215.347 1382.87 215.878C1445.8 233.535 1616.32 251.682 1651.46 245.663" stroke="url(#paint11_linear)" stroke-miterlimit="10"/>
<path d="M-141.919 176.985C-141.919 176.985 -62.2982 167.578 -2.78359 147.852C9.36274 143.826 20.9857 140.948 29.7365 138.119C67.0031 126.066 97.6001 134.181 129.122 153.001C174.227 179.923 230.236 253.702 261.198 246.547C295.678 238.582 307.447 128.1 341.147 101.042C350.592 93.458 359.099 91.7236 368.799 94.5803C396.5 102.743 419.234 139.942 449.138 154.008C460.018 159.123 471.763 160.436 483.995 158.756C515.371 154.457 569.153 126.814 603.462 111.503C620.513 103.892 634.728 98.8315 645.195 97.8044C657.804 96.5869 672.798 105.524 685.809 115.156C735.842 151.954 789.795 286.732 860.75 310.607C910.491 327.346 956.703 195.309 1030.74 148.39C1060.23 129.691 1086.1 139.248 1114.96 121.883C1163.01 92.9683 1190.5 37.5401 1222.15 33.0373C1285.04 24.0861 1316.24 190.52 1370.62 215.327C1372.54 216.204 1374.44 216.939 1376.35 217.469C1438.92 234.97 1615.37 251.621 1650.69 246.227" stroke="url(#paint12_linear)" stroke-miterlimit="10"/>
<path d="M-141.331 177.937C-141.331 177.937 -63.0975 168.53 -5.89534 152.185C6.29967 148.703 17.7645 146.213 26.3326 143.744C61.5789 133.596 92.1759 141.833 123.175 159.178C172.04 186.514 228.463 253.573 258.634 246.01C292.578 237.508 304.152 135.385 334.932 106.341C343.525 98.2331 351.679 95.3764 361.002 97.2197C389.067 102.777 412.143 137.616 441.267 152.818C451.734 158.287 462.98 160.558 474.627 159.899C505.139 158.164 559.165 133.065 594.715 118.475C611.498 111.592 625.495 106.803 635.377 105.831C646.367 104.763 660.339 113.109 673.642 123.039C724.089 160.49 788.436 285.515 858.514 306.417C907.185 320.932 957.267 205.382 1029.29 153.178C1056.23 133.657 1081.08 135.058 1107.19 116.986C1152.8 85.4049 1180.94 36.0644 1209.91 31.7452C1272.63 22.3927 1310.33 191.622 1363.99 216.857C1365.93 217.775 1367.86 218.524 1369.79 219.061C1432.01 236.406 1614.37 251.553 1649.89 246.785" stroke="url(#paint13_linear)" stroke-miterlimit="10"/>
<path d="M-140.734 178.896C-140.734 178.896 -63.8518 169.585 -8.99861 156.525C3.25726 153.607 14.5516 151.471 22.9251 149.383C56.1267 141.098 86.7481 149.444 117.236 165.374C170.056 192.976 226.699 253.458 256.091 245.493C289.499 236.447 300.903 142.69 328.738 111.66C336.478 103.029 344.279 99.0087 353.225 99.8861C381.668 102.675 405.096 135.31 433.417 151.655C443.495 157.47 454.205 160.735 465.268 161.069C494.892 161.96 549.136 139.276 585.965 125.481C602.456 119.305 616.27 114.809 625.568 113.884C634.927 112.966 647.877 120.72 661.496 130.957C712.369 169.068 787.085 284.352 856.312 302.254C903.911 314.566 958.558 215.558 1027.89 157.994C1052.45 137.602 1075.96 130.902 1099.46 112.109C1142.33 77.8278 1171.42 34.5953 1197.7 30.4734C1260.23 20.6719 1304.41 192.745 1357.39 218.408C1359.36 219.367 1361.32 220.136 1363.27 220.673C1425.14 237.861 1613.42 251.506 1649.13 247.37" stroke="url(#paint14_linear)" stroke-miterlimit="10"/>
<path d="M-140.152 179.855C-140.152 179.855 -64.6331 170.761 -12.1166 160.864C0.200077 158.545 11.3119 156.715 19.5149 155.015C50.6719 148.546 81.3176 156.994 111.282 171.557C168.253 199.24 224.907 253.322 253.52 244.962C286.381 235.365 297.761 150.009 322.516 116.965C329.441 107.817 336.829 102.879 345.421 102.532C374.034 101.382 398.047 132.984 425.541 150.478C435.229 156.64 445.379 160.912 455.894 162.225C484.544 165.789 539.069 145.411 577.212 132.467C593.411 126.971 607.03 122.801 615.744 121.924C623.485 121.155 635.412 128.318 649.323 138.854C700.61 177.617 785.695 283.202 854.082 298.078C900.611 308.199 960.478 225.733 1026.46 162.796C1048.81 141.465 1070.66 126.76 1091.7 107.218C1131.54 70.2163 1161.87 33.0919 1185.48 29.1876C1247.78 18.876 1298.48 193.867 1350.78 219.952C1352.78 220.945 1354.76 221.734 1356.74 222.285C1418.27 239.317 1612.47 251.465 1648.36 247.955" stroke="url(#paint15_linear)" stroke-miterlimit="10"/>
<path d="M-139.555 180.808C-139.555 180.808 -24.4939 167.197 16.1196 160.64C105.805 146.159 209.743 257.389 250.977 244.425C292.211 231.461 298.978 109.497 337.644 105.178C376.311 100.859 407.881 154.58 446.535 163.368C485.189 172.156 577.589 132.827 605.947 129.95C634.292 127.066 765.784 278.815 851.88 293.888C941.273 309.539 1108.83 39.2205 1173.26 27.8887C1237.69 16.5568 1297 209.192 1350.2 223.863C1411.37 240.739 1611.49 251.383 1647.57 248.499" stroke="url(#paint16_linear)" stroke-miterlimit="10"/>
<defs>
<linearGradient id="paint0_linear" x1="-149.068" y1="183.002" x2="1660.35" y2="183.002" gradientUnits="userSpaceOnUse">
<stop stop-color="#FFBE10"/>
<stop offset="0.2181" stop-color="#FF571A"/>
<stop offset="0.4968" stop-color="#FF0F74"/>
<stop offset="0.7459" stop-color="#9640EE"/>
<stop offset="0.7779" stop-color="#8F44EF"/>
<stop offset="0.8248" stop-color="#7B4DF1"/>
<stop offset="0.8811" stop-color="#5B5DF5"/>
<stop offset="0.9439" stop-color="#2E73FA"/>
<stop offset="1" stop-color="#008AFF"/>
</linearGradient>
<linearGradient id="paint1_linear" x1="-148.485" y1="184.821" x2="1659.56" y2="184.821" gradientUnits="userSpaceOnUse">
<stop stop-color="#FFBE10"/>
<stop offset="0.2181" stop-color="#FF571A"/>
<stop offset="0.4968" stop-color="#FF0F74"/>
<stop offset="0.7459" stop-color="#9640EE"/>
<stop offset="0.7779" stop-color="#8F44EF"/>
<stop offset="0.8248" stop-color="#7B4DF1"/>
<stop offset="0.8811" stop-color="#5B5DF5"/>
<stop offset="0.9439" stop-color="#2E73FA"/>
<stop offset="1" stop-color="#008AFF"/>
</linearGradient>
<linearGradient id="paint2_linear" x1="-147.9" y1="186.64" x2="1658.77" y2="186.64" gradientUnits="userSpaceOnUse">
<stop stop-color="#FFBE10"/>
<stop offset="0.2181" stop-color="#FF571A"/>
<stop offset="0.4968" stop-color="#FF0F74"/>
<stop offset="0.7459" stop-color="#9640EE"/>
<stop offset="0.7779" stop-color="#8F44EF"/>
<stop offset="0.8248" stop-color="#7B4DF1"/>
<stop offset="0.8811" stop-color="#5B5DF5"/>
<stop offset="0.9439" stop-color="#2E73FA"/>
<stop offset="1" stop-color="#008AFF"/>
</linearGradient>
<linearGradient id="paint3_linear" x1="-147.313" y1="188.452" x2="1657.98" y2="188.452" gradientUnits="userSpaceOnUse">
<stop stop-color="#FFBE10"/>
<stop offset="0.2181" stop-color="#FF571A"/>
<stop offset="0.4968" stop-color="#FF0F74"/>
<stop offset="0.7459" stop-color="#9640EE"/>
<stop offset="0.7779" stop-color="#8F44EF"/>
<stop offset="0.8248" stop-color="#7B4DF1"/>
<stop offset="0.8811" stop-color="#5B5DF5"/>
<stop offset="0.9439" stop-color="#2E73FA"/>
<stop offset="1" stop-color="#008AFF"/>
</linearGradient>
<linearGradient id="paint4_linear" x1="-146.726" y1="190.271" x2="1657.19" y2="190.271" gradientUnits="userSpaceOnUse">
<stop stop-color="#FFBE10"/>
<stop offset="0.2181" stop-color="#FF571A"/>
<stop offset="0.4968" stop-color="#FF0F74"/>
<stop offset="0.7459" stop-color="#9640EE"/>
<stop offset="0.7779" stop-color="#8F44EF"/>
<stop offset="0.8248" stop-color="#7B4DF1"/>
<stop offset="0.8811" stop-color="#5B5DF5"/>
<stop offset="0.9439" stop-color="#2E73FA"/>
<stop offset="1" stop-color="#008AFF"/>
</linearGradient>
<linearGradient id="paint5_linear" x1="-146.141" y1="192.091" x2="1656.4" y2="192.091" gradientUnits="userSpaceOnUse">
<stop stop-color="#FFBE10"/>
<stop offset="0.2181" stop-color="#FF571A"/>
<stop offset="0.4968" stop-color="#FF0F74"/>
<stop offset="0.7459" stop-color="#9640EE"/>
<stop offset="0.7779" stop-color="#8F44EF"/>
<stop offset="0.8248" stop-color="#7B4DF1"/>
<stop offset="0.8811" stop-color="#5B5DF5"/>
<stop offset="0.9439" stop-color="#2E73FA"/>
<stop offset="1" stop-color="#008AFF"/>
</linearGradient>
<linearGradient id="paint6_linear" x1="-145.558" y1="189.5" x2="1655.61" y2="189.5" gradientUnits="userSpaceOnUse">
<stop stop-color="#FFBE10"/>
<stop offset="0.2181" stop-color="#FF571A"/>
<stop offset="0.4968" stop-color="#FF0F74"/>
<stop offset="0.7459" stop-color="#9640EE"/>
<stop offset="0.7779" stop-color="#8F44EF"/>
<stop offset="0.8248" stop-color="#7B4DF1"/>
<stop offset="0.8811" stop-color="#5B5DF5"/>
<stop offset="0.9439" stop-color="#2E73FA"/>
<stop offset="1" stop-color="#008AFF"/>
</linearGradient>
<linearGradient id="paint7_linear" x1="-144.974" y1="186.644" x2="1654.81" y2="186.644" gradientUnits="userSpaceOnUse">
<stop stop-color="#FFBE10"/>
<stop offset="0.2181" stop-color="#FF571A"/>
<stop offset="0.4968" stop-color="#FF0F74"/>
<stop offset="0.7459" stop-color="#9640EE"/>
<stop offset="0.7779" stop-color="#8F44EF"/>
<stop offset="0.8248" stop-color="#7B4DF1"/>
<stop offset="0.8811" stop-color="#5B5DF5"/>
<stop offset="0.9439" stop-color="#2E73FA"/>
<stop offset="1" stop-color="#008AFF"/>
</linearGradient>
<linearGradient id="paint8_linear" x1="-144.389" y1="183.789" x2="1654.02" y2="183.789" gradientUnits="userSpaceOnUse">
<stop stop-color="#FFBE10"/>
<stop offset="0.2181" stop-color="#FF571A"/>
<stop offset="0.4968" stop-color="#FF0F74"/>
<stop offset="0.7459" stop-color="#9640EE"/>
<stop offset="0.7779" stop-color="#8F44EF"/>
<stop offset="0.8248" stop-color="#7B4DF1"/>
<stop offset="0.8811" stop-color="#5B5DF5"/>
<stop offset="0.9439" stop-color="#2E73FA"/>
<stop offset="1" stop-color="#008AFF"/>
</linearGradient>
<linearGradient id="paint9_linear" x1="-143.802" y1="180.935" x2="1653.23" y2="180.935" gradientUnits="userSpaceOnUse">
<stop stop-color="#FFBE10"/>
<stop offset="0.2181" stop-color="#FF571A"/>
<stop offset="0.4968" stop-color="#FF0F74"/>
<stop offset="0.7459" stop-color="#9640EE"/>
<stop offset="0.7779" stop-color="#8F44EF"/>
<stop offset="0.8248" stop-color="#7B4DF1"/>
<stop offset="0.8811" stop-color="#5B5DF5"/>
<stop offset="0.9439" stop-color="#2E73FA"/>
<stop offset="1" stop-color="#008AFF"/>
</linearGradient>
<linearGradient id="paint10_linear" x1="-143.218" y1="178.083" x2="1652.43" y2="178.083" gradientUnits="userSpaceOnUse">
<stop stop-color="#FFBE10"/>
<stop offset="0.2181" stop-color="#FF571A"/>
<stop offset="0.4968" stop-color="#FF0F74"/>
<stop offset="0.7459" stop-color="#9640EE"/>
<stop offset="0.7779" stop-color="#8F44EF"/>
<stop offset="0.8248" stop-color="#7B4DF1"/>
<stop offset="0.8811" stop-color="#5B5DF5"/>
<stop offset="0.9439" stop-color="#2E73FA"/>
<stop offset="1" stop-color="#008AFF"/>
</linearGradient>
<linearGradient id="paint11_linear" x1="-142.631" y1="175.232" x2="1651.64" y2="175.232" gradientUnits="userSpaceOnUse">
<stop stop-color="#FFBE10"/>
<stop offset="0.2181" stop-color="#FF571A"/>
<stop offset="0.4968" stop-color="#FF0F74"/>
<stop offset="0.7459" stop-color="#9640EE"/>
<stop offset="0.7779" stop-color="#8F44EF"/>
<stop offset="0.8248" stop-color="#7B4DF1"/>
<stop offset="0.8811" stop-color="#5B5DF5"/>
<stop offset="0.9439" stop-color="#2E73FA"/>
<stop offset="1" stop-color="#008AFF"/>
</linearGradient>
<linearGradient id="paint12_linear" x1="-142.046" y1="172.381" x2="1650.84" y2="172.381" gradientUnits="userSpaceOnUse">
<stop stop-color="#FFBE10"/>
<stop offset="0.2181" stop-color="#FF571A"/>
<stop offset="0.4968" stop-color="#FF0F74"/>
<stop offset="0.7459" stop-color="#9640EE"/>
<stop offset="0.7779" stop-color="#8F44EF"/>
<stop offset="0.8248" stop-color="#7B4DF1"/>
<stop offset="0.8811" stop-color="#5B5DF5"/>
<stop offset="0.9439" stop-color="#2E73FA"/>
<stop offset="1" stop-color="#008AFF"/>
</linearGradient>
<linearGradient id="paint13_linear" x1="-141.453" y1="169.531" x2="1650.05" y2="169.531" gradientUnits="userSpaceOnUse">
<stop stop-color="#FFBE10"/>
<stop offset="0.2181" stop-color="#FF571A"/>
<stop offset="0.4968" stop-color="#FF0F74"/>
<stop offset="0.7459" stop-color="#9640EE"/>
<stop offset="0.7779" stop-color="#8F44EF"/>
<stop offset="0.8248" stop-color="#7B4DF1"/>
<stop offset="0.8811" stop-color="#5B5DF5"/>
<stop offset="0.9439" stop-color="#2E73FA"/>
<stop offset="1" stop-color="#008AFF"/>
</linearGradient>
<linearGradient id="paint14_linear" x1="-140.863" y1="166.681" x2="1649.25" y2="166.681" gradientUnits="userSpaceOnUse">
<stop stop-color="#FFBE10"/>
<stop offset="0.2181" stop-color="#FF571A"/>
<stop offset="0.4968" stop-color="#FF0F74"/>
<stop offset="0.7459" stop-color="#9640EE"/>
<stop offset="0.7779" stop-color="#8F44EF"/>
<stop offset="0.8248" stop-color="#7B4DF1"/>
<stop offset="0.8811" stop-color="#5B5DF5"/>
<stop offset="0.9439" stop-color="#2E73FA"/>
<stop offset="1" stop-color="#008AFF"/>
</linearGradient>
<linearGradient id="paint15_linear" x1="-140.275" y1="163.829" x2="1648.46" y2="163.829" gradientUnits="userSpaceOnUse">
<stop stop-color="#FFBE10"/>
<stop offset="0.2181" stop-color="#FF571A"/>
<stop offset="0.4968" stop-color="#FF0F74"/>
<stop offset="0.7459" stop-color="#9640EE"/>
<stop offset="0.7779" stop-color="#8F44EF"/>
<stop offset="0.8248" stop-color="#7B4DF1"/>
<stop offset="0.8811" stop-color="#5B5DF5"/>
<stop offset="0.9439" stop-color="#2E73FA"/>
<stop offset="1" stop-color="#008AFF"/>
</linearGradient>
<linearGradient id="paint16_linear" x1="-139.681" y1="160.975" x2="1647.66" y2="160.975" gradientUnits="userSpaceOnUse">
<stop stop-color="#FFBE10"/>
<stop offset="0.2181" stop-color="#FF571A"/>
<stop offset="0.4968" stop-color="#FF0F74"/>
<stop offset="0.7459" stop-color="#9640EE"/>
<stop offset="0.7779" stop-color="#8F44EF"/>
<stop offset="0.8248" stop-color="#7B4DF1"/>
<stop offset="0.8811" stop-color="#5B5DF5"/>
<stop offset="0.9439" stop-color="#2E73FA"/>
<stop offset="1" stop-color="#008AFF"/>
</linearGradient>
</defs>
</svg>
