<svg width="375" height="177" viewBox="0 0 375 177" fill="none" xmlns="http://www.w3.org/2000/svg">
<path d="M-69 79.991C-69 79.991 -39.938 77.1507 -16.8586 46.4219C5.35633 16.8429 21.2533 14.7757 30.2893 38.2188C33.4016 46.2974 44.7235 122.992 56.2701 122.081C67.8168 121.17 72.1913 20.0992 91.4357 18.2745C110.68 16.453 112.361 80.3481 127.756 81.2588C143.152 82.1696 165.294 28.7511 174.621 13.6062C189.342 -10.302 205.529 5.63898 209.634 10.1107C222.422 24.037 202.002 145.717 225.455 174.042C242.974 195.201 250.844 44.0173 271.05 44.0173C291.256 44.0173 297.297 89.0819 316.542 87.2572C335.786 85.4325 343.968 26.3662 362.251 23.634C380.534 20.8986 367.013 86.2056 385.31 95.1098C404.174 104.289 435.376 121.963 445 115.581" stroke="url(#paint0_linear)" stroke-width="0.3" stroke-miterlimit="10"/>
<path d="M-68.8333 80.4528C-68.8333 80.4528 -40.4111 77.4323 -17.7432 48.5118C-14.1848 43.9745 -10.7578 40.1481 -7.57285 36.9639C8.84281 20.538 20.3998 22.5855 28.6025 41.1997C32.3511 49.7075 44.2262 122.946 55.5446 121.829C66.9426 120.669 71.241 23.5978 89.6727 20.8328C95.102 20.0368 99.0857 24.7116 102.471 31.7943C110.58 48.7477 114.869 79.5748 125.523 80.6952C129.984 81.1637 135.012 77.0458 140.123 70.6281C152.251 55.5224 165.378 27.3553 172.135 16.9737C177.336 8.98025 182.537 5.56666 187.323 4.8099C195.985 3.44053 203.434 10.8738 206.18 13.9172C219.086 28.1613 201.64 145.121 224.823 172.033C242.054 192.112 250.534 47.7124 270.643 46.3332C289.908 45.013 296.004 87.4897 314.339 84.9082C333.072 82.271 341.275 25.7436 358.776 23.0212C377.025 20.1809 365.402 86.6379 383.429 95.8566C383.889 96.0925 384.356 96.3283 384.826 96.5609C403.697 105.822 435.332 121.789 444.776 115.863" stroke="url(#paint1_linear)" stroke-width="0.3" stroke-miterlimit="10"/>
<path d="M-68.6653 80.9114C-68.6653 80.9114 -40.8656 77.7075 -18.6265 50.5986C-15.0923 46.2907 -11.6584 42.6936 -8.5426 39.6732C7.37163 24.2334 18.2439 26.5823 26.91 44.1744C31.3225 53.1342 43.7268 122.926 54.8135 121.57C66.0696 120.194 70.2747 27.0311 87.9042 23.3849C93.0844 22.3137 96.9056 26.5004 100.253 33.0655C108.293 48.8197 112.827 78.5199 123.284 80.1219C127.621 80.7869 132.472 77.0752 137.459 71.1784C149.244 57.2358 162.672 30.4611 169.647 20.3317C174.865 12.7543 179.911 9.40623 184.531 8.6724C192.733 7.37183 199.888 14.5233 202.724 17.7109C215.751 32.2694 201.271 144.515 224.192 170.012C241.137 189.006 250.103 51.4405 270.24 48.6363C288.499 46.0941 294.734 85.8549 312.139 82.5429C330.39 79.0703 338.583 25.0983 355.306 22.3923C373.524 19.4439 363.785 87.0703 381.553 96.5871C382.024 96.8393 382.494 97.0883 382.971 97.3209C401.742 106.507 435.057 121.75 444.557 116.128" stroke="url(#paint2_linear)" stroke-width="0.3" stroke-miterlimit="10"/>
<path d="M-68.498 81.3736C-68.498 81.3736 -41.3104 77.9928 -19.5104 52.689C-16.0004 48.6137 -12.5562 45.2459 -9.50956 42.386C5.89979 27.9258 16.2257 30.5466 25.2203 47.1558C30.3244 56.5743 43.2301 122.89 54.0886 121.315C65.1995 119.703 69.3146 30.5007 86.1418 25.9405C91.0696 24.6039 94.7318 28.2959 98.0412 34.3434C106.016 48.9052 110.788 77.4686 121.051 79.5587C125.26 80.4137 129.956 77.1247 134.801 71.7389C146.275 58.9822 159.962 33.5801 167.165 23.703C172.387 16.5384 177.291 13.2591 181.748 12.5515C189.488 11.323 196.348 18.1961 199.274 21.5212C212.384 36.4237 200.986 143.863 223.567 168.004C240.277 185.871 249.572 55.2443 269.84 50.9527C287.044 47.3098 293.48 84.1975 309.941 80.191C327.739 75.8601 335.89 24.4598 351.836 21.7767C370.022 18.7169 362.168 87.5292 379.677 97.331C380.154 97.5996 380.631 97.8584 381.115 98.0943C399.786 107.205 434.785 121.724 444.337 116.404" stroke="url(#paint3_linear)" stroke-width="0.3" stroke-miterlimit="10"/>
<path d="M-68.3263 81.8323C-68.3263 81.8323 -41.7334 78.2746 -20.3899 54.7758C-16.8972 50.9331 -13.453 47.7947 -10.4755 45.0985C4.42202 31.6211 14.3122 34.481 23.535 50.1337C29.3585 60.0174 42.7379 122.854 53.3647 121.059C64.3304 119.208 68.3521 33.9765 84.3805 28.4958C89.0593 26.8971 92.5624 30.0912 95.8338 35.6178C103.746 48.9904 108.75 76.4073 118.823 78.9888C122.907 80.0338 127.441 77.1673 132.144 72.2926C143.31 60.7185 157.246 36.689 164.681 27.0641C169.9 20.3123 174.668 17.1051 178.96 16.4171C186.239 15.2607 192.806 21.8487 195.822 25.318C209.045 40.5416 200.642 143.238 222.937 165.986C239.373 182.756 248.949 59.1231 269.434 53.259C285.553 48.6432 292.234 82.4908 307.74 77.8323C325.11 72.6137 333.195 23.8045 348.366 21.151C366.521 17.9765 360.542 87.9912 377.801 98.0649C378.289 98.3499 378.77 98.6186 379.264 98.8577C397.838 107.893 434.514 121.691 444.121 116.673" stroke="url(#paint4_linear)" stroke-width="0.3" stroke-miterlimit="10"/>
<path d="M-68.1612 82.2938C-68.1612 82.2938 -42.1458 78.5657 -21.2726 56.8655C-17.7972 53.2521 -14.3564 50.343 -11.4412 47.8106C2.94106 35.3094 12.4889 38.3823 21.8466 53.1145C28.417 63.4601 42.2391 122.815 52.6376 120.806C63.458 118.716 67.3865 37.4585 82.616 31.0539C87.0424 29.1931 90.3898 31.8893 93.6197 36.8983C101.473 49.085 106.702 75.3421 116.588 78.4248C120.545 79.6566 124.923 77.2127 129.484 72.8491C140.342 62.4576 154.517 39.8008 162.198 30.4282C167.399 24.0826 172.046 20.9507 176.172 20.289C182.988 19.2046 189.264 25.5076 192.366 29.1243C205.704 44.6689 200.292 142.625 222.306 163.974C238.466 179.647 248.277 63.1095 269.029 55.5715C284.055 50.1136 290.991 80.7442 305.536 75.4764C322.491 69.3339 330.497 23.1489 344.89 20.5314C363.014 17.239 358.905 88.469 375.919 98.8081C376.414 99.1094 376.905 99.3912 377.403 99.6303C395.876 108.59 434.237 121.665 443.899 116.951" stroke="url(#paint5_linear)" stroke-width="0.3" stroke-miterlimit="10"/>
<path d="M-67.9939 82.7558C-67.9939 82.7558 -42.5353 78.8639 -22.1566 58.9557C-18.6985 55.5748 -15.2577 52.895 -12.4082 50.5232C1.45538 38.995 10.7335 42.2513 20.1603 56.0924C27.5123 66.8901 41.7459 122.772 51.9127 120.551C62.5879 118.218 66.4229 40.9442 80.8536 33.6092C85.0276 31.4864 88.2229 33.6879 91.4078 38.1727C99.2128 49.1768 104.659 74.2677 114.356 77.8549C118.184 79.2734 122.406 77.2554 126.822 73.4028C137.38 64.194 151.776 42.9032 159.712 33.7927C164.889 27.8468 169.423 24.7968 173.386 24.158C179.742 23.1457 185.728 29.1637 188.916 32.9246C202.368 48.7869 199.944 142.006 221.678 161.96C237.558 176.538 247.587 67.2079 268.626 57.8811C282.569 51.6993 289.755 78.9491 303.335 73.1178C319.889 66.0089 327.801 22.4807 341.419 19.909C359.508 16.4921 357.271 88.954 374.043 99.5453C374.544 99.863 375.042 100.155 375.547 100.397C393.92 109.282 433.965 121.632 443.679 117.219" stroke="url(#paint6_linear)" stroke-width="0.3" stroke-miterlimit="10"/>
<path d="M-67.8288 83.2148C-67.8288 83.2148 -42.9062 79.169 -23.0428 61.0429C-19.595 57.8947 -16.1646 55.441 -13.3808 53.2362C-0.0428709 42.681 9.03122 46.0945 18.4649 59.0708C26.6296 70.3041 41.2435 122.727 51.1822 120.296C61.7121 117.721 65.4538 44.4369 79.0857 36.165C83.0072 33.7866 86.0572 35.4869 89.1903 39.4508C96.9572 49.2821 102.611 73.187 112.118 77.2918C115.818 78.8905 119.888 77.3049 124.159 73.9634C134.419 65.934 149.019 46.0126 157.225 37.1609C162.367 31.6147 166.797 28.6466 170.594 28.034C176.487 27.0905 182.182 32.8268 185.461 36.7318C199.03 52.9086 199.587 141.396 221.048 159.948C236.644 173.432 246.915 71.4311 268.22 60.1944C281.112 53.3967 288.509 77.1117 301.135 70.7661C317.284 62.6449 325.103 21.8162 337.946 19.2937C356.004 15.749 355.624 89.4556 372.164 100.289C372.676 100.623 373.177 100.928 373.689 101.174C391.965 109.983 433.687 121.613 443.457 117.501" stroke="url(#paint7_linear)" stroke-width="0.3" stroke-miterlimit="10"/>
<path d="M-67.657 83.6765C-67.657 83.6765 -43.2428 79.4898 -23.9223 63.1328C-20.4815 60.2204 -17.0648 57.9894 -14.3433 55.9485C-1.54137 46.3597 7.38402 49.9076 16.7797 62.0517C25.7916 73.7011 40.7514 122.68 50.4583 120.043C60.843 117.223 64.4913 47.9387 77.3244 38.7233C80.9969 36.0862 83.9017 37.2885 86.9794 40.7282C94.7221 49.3867 100.573 72.0991 109.889 76.7248C113.465 78.5004 117.383 77.3473 121.502 74.5201C131.475 67.67 146.255 49.1082 154.745 40.5251C159.845 35.3687 164.182 32.4924 167.813 31.9027C173.242 31.0313 178.651 36.4826 182.012 40.5317C195.702 57.0263 199.233 140.78 220.425 157.933C235.737 170.326 246.312 75.7781 267.825 62.5038C279.704 55.1754 287.256 75.2244 298.941 68.4071C314.675 59.2245 322.411 21.1345 334.484 18.671C352.507 14.9921 353.984 89.9598 370.296 101.026C370.814 101.377 371.323 101.691 371.842 101.94C390.017 110.674 433.424 121.58 443.245 117.773" stroke="url(#paint8_linear)" stroke-width="0.3" stroke-miterlimit="10"/>
<path d="M-67.4919 84.1348C-67.4919 84.1348 -43.5653 79.8236 -24.8085 65.2192C-21.3711 62.5427 -17.9752 60.5312 -15.3159 58.6606C-3.05348 50.0316 5.76471 53.6942 15.0878 65.0292C24.9884 77.0685 40.249 122.631 49.7277 119.788C59.9672 116.715 63.529 51.4403 75.5563 41.2782C78.9799 38.3855 81.7498 39.0865 84.7618 42.0055C92.4942 49.4977 98.5286 71.0046 107.651 76.1577C111.102 78.107 114.872 77.3928 118.838 75.0767C128.531 69.4092 143.474 52.1938 152.254 43.8924C157.303 39.1193 161.553 36.3445 165.018 35.7778C169.987 34.9784 175.105 40.1447 178.553 44.3412C192.364 61.1504 198.862 140.181 219.787 155.928C234.809 167.234 245.792 80.2626 267.412 64.8228C278.33 57.0259 285.969 73.3076 296.734 66.0578C312.026 55.7614 319.706 20.4592 331.004 18.0579C348.993 14.2348 352.323 90.4771 368.41 101.773C368.936 102.143 369.454 102.467 369.977 102.716C388.052 111.371 433.142 121.557 443.019 118.054" stroke="url(#paint9_linear)" stroke-width="0.3" stroke-miterlimit="10"/>
<path d="M-67.3224 84.5972C-67.3224 84.5972 -43.8556 80.1845 -25.6902 67.3098C-22.2528 64.8757 -18.8811 63.0804 -16.2806 61.3736C-4.56801 53.6947 4.18101 57.4555 13.4003 68.0075C24.2277 80.4007 39.7546 122.576 49.0051 119.533C59.0993 116.211 62.5816 54.9494 73.7963 43.8307C76.9708 40.6857 79.6128 40.8823 82.5522 43.277C90.3018 49.5964 96.5022 69.8978 105.421 75.5849C108.747 77.7078 112.375 77.4359 116.179 75.6243C125.602 71.1427 140.683 55.2574 149.771 47.2475C154.758 42.8511 158.932 40.1812 162.234 39.6374C166.74 38.9101 171.571 43.7881 175.102 48.1321C189.038 65.2524 198.496 139.565 219.162 153.901C233.89 164.119 245.415 84.8462 267.011 67.1198C277.023 58.9003 284.662 71.3327 294.535 63.6898C309.339 52.2303 317.005 19.7553 327.532 17.4261C345.486 13.4523 350.663 90.9822 366.529 102.504C367.062 102.89 367.587 103.225 368.116 103.477C386.095 112.057 432.863 121.521 442.794 118.317" stroke="url(#paint10_linear)" stroke-width="0.3" stroke-miterlimit="10"/>
<path d="M-67.1573 85.0558C-67.1573 85.0558 -44.1263 80.5677 -26.5763 69.3965C-23.1355 67.2049 -19.795 65.6193 -17.2498 64.0829C-6.09394 57.3474 2.61359 61.1869 11.7119 70.9854C23.5075 83.6897 39.2523 122.52 48.278 119.274C58.2235 115.696 61.6332 58.458 72.0317 46.3827C74.9608 42.9855 77.4852 42.671 80.3381 44.5514C88.1327 49.6914 94.4749 68.7872 103.186 75.0182C106.395 77.3114 109.874 77.4883 113.519 76.1811C122.683 72.8986 137.874 58.3171 147.287 50.6152C152.208 46.589 156.309 44.0305 159.446 43.5129C163.492 42.8577 168.032 47.4506 171.65 51.9388C185.707 69.3736 198.121 138.969 218.531 151.893C232.965 161.029 245.2 89.557 266.606 69.4359C275.773 60.82 283.316 69.3474 292.331 61.3376C306.596 48.666 314.297 19.0641 324.059 16.8102C341.972 12.6726 348.995 91.5095 364.65 103.247C365.19 103.654 365.722 103.994 366.258 104.25C384.137 112.754 432.588 121.495 442.572 118.595" stroke="url(#paint11_linear)" stroke-width="0.3" stroke-miterlimit="10"/>
<path d="M-66.9878 85.5176C-66.9878 85.5176 -44.3648 80.9869 -27.4547 71.4865C-24.0035 69.5471 -20.701 68.1614 -18.2146 66.7986C-7.62584 60.9935 1.06785 64.9018 10.0244 73.9664C22.8401 86.9328 38.7544 122.468 47.5518 119.021C57.3486 115.185 60.6926 61.973 70.2681 48.9411C72.9516 45.2884 75.3689 44.453 78.125 45.8289C85.9956 49.7601 92.4554 67.6765 100.952 74.4513C104.044 76.9148 107.381 77.5471 110.856 76.7379C119.771 74.6675 135.052 61.3539 144.801 53.9796C149.646 50.3137 153.685 47.8764 156.659 47.3817C160.241 46.7953 164.502 51.1 168.198 55.7388C182.415 73.4619 197.745 138.376 217.905 149.875C232.039 157.937 245.169 94.3431 266.205 71.7453C274.584 62.7396 281.936 67.3424 290.135 58.9787C303.788 45.0525 311.599 18.3564 320.59 16.1877C338.462 11.8765 347.325 92.0369 362.776 103.984C363.322 104.407 363.862 104.761 364.405 105.016C382.183 113.445 432.319 121.465 442.354 118.867" stroke="url(#paint12_linear)" stroke-width="0.3" stroke-miterlimit="10"/>
<path d="M-66.8204 85.9763C-66.8204 85.9763 -44.5917 81.4456 -28.3386 73.5734C-24.8735 71.8961 -21.616 70.697 -19.1815 69.5079C-9.16679 64.6201 -0.473093 68.5873 8.33472 76.9411C22.219 90.1073 38.2508 122.405 46.8235 118.762C56.4682 114.667 59.7568 65.4817 68.5024 51.4932C70.9438 47.5882 73.2608 46.2123 75.9097 47.1001C83.8841 49.7765 90.4407 66.5562 98.7159 73.878C101.69 76.5119 104.885 77.6061 108.195 77.2883C116.864 76.453 132.215 64.3645 142.316 57.3375C147.085 54.0222 151.061 51.7159 153.869 51.2475C156.992 50.7331 160.962 54.7528 164.742 59.5357C179.076 77.5734 197.359 137.789 217.27 147.857C231.099 154.848 245.33 99.1949 265.795 74.0517C273.447 64.6496 280.509 65.3244 287.927 56.6201C300.888 41.4096 308.883 17.6456 317.113 15.5653C334.936 11.0608 345.646 92.5676 360.893 104.722C361.446 105.164 361.992 105.524 362.542 105.783C380.22 114.137 432.036 121.432 442.127 119.136" stroke="url(#paint13_linear)" stroke-width="0.3" stroke-miterlimit="10"/>
<path d="M-66.6509 86.4381C-66.6509 86.4381 -44.806 81.9533 -29.2203 75.6634C-25.738 74.258 -22.5289 73.2293 -20.1497 72.2236C-10.716 68.2334 -2.01536 72.2531 6.64721 79.9254C21.6554 93.2194 37.7495 122.35 46.1008 118.513C55.5933 114.156 58.8336 69 66.7423 54.0549C68.9416 49.8976 71.1583 47.9615 73.7 48.3841C81.7816 49.7273 88.4385 65.4455 96.4855 73.3178C99.3488 76.1187 102.392 77.6912 105.535 77.8517C113.952 78.2809 129.365 67.3554 139.829 60.7117C144.515 57.7371 148.44 55.5717 151.082 55.1261C153.741 54.6839 157.421 58.4185 161.291 63.3489C175.745 81.7043 196.975 137.229 216.645 145.852C230.169 151.781 245.696 104.096 265.397 76.371C272.375 66.5495 279.053 63.3227 285.731 54.2711C297.914 37.7601 306.179 16.9378 313.645 14.9526C331.412 10.2318 343.965 93.1081 359.018 105.468C359.579 105.93 360.135 106.301 360.689 106.559C378.27 114.838 431.767 121.409 441.913 119.418" stroke="url(#paint14_linear)" stroke-width="0.3" stroke-miterlimit="10"/>
<path d="M-66.4858 86.9001C-66.4858 86.9001 -45.0283 82.5201 -30.1065 77.7535C-26.6069 76.6364 -23.4496 75.7552 -21.1189 74.9362C-12.2661 71.8207 -3.55857 75.8895 4.9553 82.9034C21.1427 96.2367 37.2402 122.284 45.3703 118.258C54.7072 113.636 57.9405 72.5251 64.9743 56.6102C66.942 52.204 69.041 49.8256 71.4825 49.6586C79.6125 49.1049 86.4353 64.3252 94.2472 72.7511C96.9999 75.7192 99.8839 77.7765 102.872 78.4087C111.012 80.1254 126.504 70.3105 137.342 64.0762C141.945 61.4292 145.815 59.421 148.291 58.9984C150.49 58.6282 153.879 62.0779 157.832 67.1524C172.404 85.8223 196.58 136.676 216.011 143.84C229.231 148.715 246.242 108.997 264.988 78.6839C271.341 68.4104 277.548 61.3277 283.527 51.9157C294.845 34.0943 303.463 16.2139 310.172 14.3334C327.874 9.36702 342.28 93.6487 357.14 106.212C357.707 106.69 358.271 107.07 358.834 107.336C376.315 115.539 431.496 121.39 441.694 119.699" stroke="url(#paint15_linear)" stroke-width="0.3" stroke-miterlimit="10"/>
<path d="M-66.3163 87.3591C-66.3163 87.3591 -33.6233 80.8039 -22.0836 77.6458C3.39927 70.6712 32.9315 124.244 44.6476 118C56.3637 111.756 58.2864 53.0135 69.2728 50.9333C80.2593 48.853 89.2296 74.7269 100.213 78.9595C111.196 83.1921 137.45 64.2502 145.507 62.8645C153.561 61.4755 190.922 134.563 215.385 141.823C240.785 149.361 288.393 19.1659 306.7 13.7081C325.007 8.25027 341.859 101.03 356.974 108.096C374.354 116.224 431.216 121.351 441.469 119.962" stroke="url(#paint16_linear)" stroke-width="0.3" stroke-miterlimit="10"/>
<defs>
<linearGradient id="paint0_linear" x1="-69.0192" y1="88.4157" x2="445.1" y2="88.4157" gradientUnits="userSpaceOnUse">
<stop stop-color="#FFBE10"/>
<stop offset="0.2181" stop-color="#FF571A"/>
<stop offset="0.4968" stop-color="#FF0F74"/>
<stop offset="0.7459" stop-color="#9640EE"/>
<stop offset="0.7779" stop-color="#8F44EF"/>
<stop offset="0.8248" stop-color="#7B4DF1"/>
<stop offset="0.8811" stop-color="#5B5DF5"/>
<stop offset="0.9439" stop-color="#2E73FA"/>
<stop offset="1" stop-color="#008AFF"/>
</linearGradient>
<linearGradient id="paint1_linear" x1="-68.8522" y1="89.2915" x2="444.876" y2="89.2915" gradientUnits="userSpaceOnUse">
<stop stop-color="#FFBE10"/>
<stop offset="0.2181" stop-color="#FF571A"/>
<stop offset="0.4968" stop-color="#FF0F74"/>
<stop offset="0.7459" stop-color="#9640EE"/>
<stop offset="0.7779" stop-color="#8F44EF"/>
<stop offset="0.8248" stop-color="#7B4DF1"/>
<stop offset="0.8811" stop-color="#5B5DF5"/>
<stop offset="0.9439" stop-color="#2E73FA"/>
<stop offset="1" stop-color="#008AFF"/>
</linearGradient>
<linearGradient id="paint2_linear" x1="-68.6875" y1="90.1676" x2="444.65" y2="90.1676" gradientUnits="userSpaceOnUse">
<stop stop-color="#FFBE10"/>
<stop offset="0.2181" stop-color="#FF571A"/>
<stop offset="0.4968" stop-color="#FF0F74"/>
<stop offset="0.7459" stop-color="#9640EE"/>
<stop offset="0.7779" stop-color="#8F44EF"/>
<stop offset="0.8248" stop-color="#7B4DF1"/>
<stop offset="0.8811" stop-color="#5B5DF5"/>
<stop offset="0.9439" stop-color="#2E73FA"/>
<stop offset="1" stop-color="#008AFF"/>
</linearGradient>
<linearGradient id="paint3_linear" x1="-68.52" y1="91.0408" x2="444.427" y2="91.0408" gradientUnits="userSpaceOnUse">
<stop stop-color="#FFBE10"/>
<stop offset="0.2181" stop-color="#FF571A"/>
<stop offset="0.4968" stop-color="#FF0F74"/>
<stop offset="0.7459" stop-color="#9640EE"/>
<stop offset="0.7779" stop-color="#8F44EF"/>
<stop offset="0.8248" stop-color="#7B4DF1"/>
<stop offset="0.8811" stop-color="#5B5DF5"/>
<stop offset="0.9439" stop-color="#2E73FA"/>
<stop offset="1" stop-color="#008AFF"/>
</linearGradient>
<linearGradient id="paint4_linear" x1="-68.3516" y1="91.9169" x2="444.204" y2="91.9169" gradientUnits="userSpaceOnUse">
<stop stop-color="#FFBE10"/>
<stop offset="0.2181" stop-color="#FF571A"/>
<stop offset="0.4968" stop-color="#FF0F74"/>
<stop offset="0.7459" stop-color="#9640EE"/>
<stop offset="0.7779" stop-color="#8F44EF"/>
<stop offset="0.8248" stop-color="#7B4DF1"/>
<stop offset="0.8811" stop-color="#5B5DF5"/>
<stop offset="0.9439" stop-color="#2E73FA"/>
<stop offset="1" stop-color="#008AFF"/>
</linearGradient>
<linearGradient id="paint5_linear" x1="-68.1863" y1="92.7932" x2="443.978" y2="92.7932" gradientUnits="userSpaceOnUse">
<stop stop-color="#FFBE10"/>
<stop offset="0.2181" stop-color="#FF571A"/>
<stop offset="0.4968" stop-color="#FF0F74"/>
<stop offset="0.7459" stop-color="#9640EE"/>
<stop offset="0.7779" stop-color="#8F44EF"/>
<stop offset="0.8248" stop-color="#7B4DF1"/>
<stop offset="0.8811" stop-color="#5B5DF5"/>
<stop offset="0.9439" stop-color="#2E73FA"/>
<stop offset="1" stop-color="#008AFF"/>
</linearGradient>
<linearGradient id="paint6_linear" x1="-68.0224" y1="91.5453" x2="443.751" y2="91.5453" gradientUnits="userSpaceOnUse">
<stop stop-color="#FFBE10"/>
<stop offset="0.2181" stop-color="#FF571A"/>
<stop offset="0.4968" stop-color="#FF0F74"/>
<stop offset="0.7459" stop-color="#9640EE"/>
<stop offset="0.7779" stop-color="#8F44EF"/>
<stop offset="0.8248" stop-color="#7B4DF1"/>
<stop offset="0.8811" stop-color="#5B5DF5"/>
<stop offset="0.9439" stop-color="#2E73FA"/>
<stop offset="1" stop-color="#008AFF"/>
</linearGradient>
<linearGradient id="paint7_linear" x1="-67.8571" y1="90.17" x2="443.525" y2="90.17" gradientUnits="userSpaceOnUse">
<stop stop-color="#FFBE10"/>
<stop offset="0.2181" stop-color="#FF571A"/>
<stop offset="0.4968" stop-color="#FF0F74"/>
<stop offset="0.7459" stop-color="#9640EE"/>
<stop offset="0.7779" stop-color="#8F44EF"/>
<stop offset="0.8248" stop-color="#7B4DF1"/>
<stop offset="0.8811" stop-color="#5B5DF5"/>
<stop offset="0.9439" stop-color="#2E73FA"/>
<stop offset="1" stop-color="#008AFF"/>
</linearGradient>
<linearGradient id="paint8_linear" x1="-67.6886" y1="88.7947" x2="443.302" y2="88.7947" gradientUnits="userSpaceOnUse">
<stop stop-color="#FFBE10"/>
<stop offset="0.2181" stop-color="#FF571A"/>
<stop offset="0.4968" stop-color="#FF0F74"/>
<stop offset="0.7459" stop-color="#9640EE"/>
<stop offset="0.7779" stop-color="#8F44EF"/>
<stop offset="0.8248" stop-color="#7B4DF1"/>
<stop offset="0.8811" stop-color="#5B5DF5"/>
<stop offset="0.9439" stop-color="#2E73FA"/>
<stop offset="1" stop-color="#008AFF"/>
</linearGradient>
<linearGradient id="paint9_linear" x1="-67.5232" y1="87.42" x2="443.075" y2="87.42" gradientUnits="userSpaceOnUse">
<stop stop-color="#FFBE10"/>
<stop offset="0.2181" stop-color="#FF571A"/>
<stop offset="0.4968" stop-color="#FF0F74"/>
<stop offset="0.7459" stop-color="#9640EE"/>
<stop offset="0.7779" stop-color="#8F44EF"/>
<stop offset="0.8248" stop-color="#7B4DF1"/>
<stop offset="0.8811" stop-color="#5B5DF5"/>
<stop offset="0.9439" stop-color="#2E73FA"/>
<stop offset="1" stop-color="#008AFF"/>
</linearGradient>
<linearGradient id="paint10_linear" x1="-67.3566" y1="86.0468" x2="442.85" y2="86.0468" gradientUnits="userSpaceOnUse">
<stop stop-color="#FFBE10"/>
<stop offset="0.2181" stop-color="#FF571A"/>
<stop offset="0.4968" stop-color="#FF0F74"/>
<stop offset="0.7459" stop-color="#9640EE"/>
<stop offset="0.7779" stop-color="#8F44EF"/>
<stop offset="0.8248" stop-color="#7B4DF1"/>
<stop offset="0.8811" stop-color="#5B5DF5"/>
<stop offset="0.9439" stop-color="#2E73FA"/>
<stop offset="1" stop-color="#008AFF"/>
</linearGradient>
<linearGradient id="paint11_linear" x1="-67.1909" y1="84.6735" x2="442.623" y2="84.6735" gradientUnits="userSpaceOnUse">
<stop stop-color="#FFBE10"/>
<stop offset="0.2181" stop-color="#FF571A"/>
<stop offset="0.4968" stop-color="#FF0F74"/>
<stop offset="0.7459" stop-color="#9640EE"/>
<stop offset="0.7779" stop-color="#8F44EF"/>
<stop offset="0.8248" stop-color="#7B4DF1"/>
<stop offset="0.8811" stop-color="#5B5DF5"/>
<stop offset="0.9439" stop-color="#2E73FA"/>
<stop offset="1" stop-color="#008AFF"/>
</linearGradient>
<linearGradient id="paint12_linear" x1="-67.0239" y1="83.3004" x2="442.397" y2="83.3004" gradientUnits="userSpaceOnUse">
<stop stop-color="#FFBE10"/>
<stop offset="0.2181" stop-color="#FF571A"/>
<stop offset="0.4968" stop-color="#FF0F74"/>
<stop offset="0.7459" stop-color="#9640EE"/>
<stop offset="0.7779" stop-color="#8F44EF"/>
<stop offset="0.8248" stop-color="#7B4DF1"/>
<stop offset="0.8811" stop-color="#5B5DF5"/>
<stop offset="0.9439" stop-color="#2E73FA"/>
<stop offset="1" stop-color="#008AFF"/>
</linearGradient>
<linearGradient id="paint13_linear" x1="-66.8554" y1="81.9277" x2="442.173" y2="81.9277" gradientUnits="userSpaceOnUse">
<stop stop-color="#FFBE10"/>
<stop offset="0.2181" stop-color="#FF571A"/>
<stop offset="0.4968" stop-color="#FF0F74"/>
<stop offset="0.7459" stop-color="#9640EE"/>
<stop offset="0.7779" stop-color="#8F44EF"/>
<stop offset="0.8248" stop-color="#7B4DF1"/>
<stop offset="0.8811" stop-color="#5B5DF5"/>
<stop offset="0.9439" stop-color="#2E73FA"/>
<stop offset="1" stop-color="#008AFF"/>
</linearGradient>
<linearGradient id="paint14_linear" x1="-66.6877" y1="80.5547" x2="441.947" y2="80.5547" gradientUnits="userSpaceOnUse">
<stop stop-color="#FFBE10"/>
<stop offset="0.2181" stop-color="#FF571A"/>
<stop offset="0.4968" stop-color="#FF0F74"/>
<stop offset="0.7459" stop-color="#9640EE"/>
<stop offset="0.7779" stop-color="#8F44EF"/>
<stop offset="0.8248" stop-color="#7B4DF1"/>
<stop offset="0.8811" stop-color="#5B5DF5"/>
<stop offset="0.9439" stop-color="#2E73FA"/>
<stop offset="1" stop-color="#008AFF"/>
</linearGradient>
<linearGradient id="paint15_linear" x1="-66.5206" y1="79.1814" x2="441.72" y2="79.1814" gradientUnits="userSpaceOnUse">
<stop stop-color="#FFBE10"/>
<stop offset="0.2181" stop-color="#FF571A"/>
<stop offset="0.4968" stop-color="#FF0F74"/>
<stop offset="0.7459" stop-color="#9640EE"/>
<stop offset="0.7779" stop-color="#8F44EF"/>
<stop offset="0.8248" stop-color="#7B4DF1"/>
<stop offset="0.8811" stop-color="#5B5DF5"/>
<stop offset="0.9439" stop-color="#2E73FA"/>
<stop offset="1" stop-color="#008AFF"/>
</linearGradient>
<linearGradient id="paint16_linear" x1="-66.3521" y1="77.8073" x2="441.494" y2="77.8073" gradientUnits="userSpaceOnUse">
<stop stop-color="#FFBE10"/>
<stop offset="0.2181" stop-color="#FF571A"/>
<stop offset="0.4968" stop-color="#FF0F74"/>
<stop offset="0.7459" stop-color="#9640EE"/>
<stop offset="0.7779" stop-color="#8F44EF"/>
<stop offset="0.8248" stop-color="#7B4DF1"/>
<stop offset="0.8811" stop-color="#5B5DF5"/>
<stop offset="0.9439" stop-color="#2E73FA"/>
<stop offset="1" stop-color="#008AFF"/>
</linearGradient>
</defs>
</svg>
