<svg width="115" height="115" viewBox="0 0 115 115" fill="none" xmlns="http://www.w3.org/2000/svg">
<path d="M57.5184 102.43C82.0504 102.43 101.938 82.5433 101.938 58.0113C101.938 33.4794 82.0504 13.5923 57.5184 13.5923C32.9865 13.5923 13.0994 33.4794 13.0994 58.0113C13.0994 82.5433 32.9865 102.43 57.5184 102.43Z" stroke="url(#paint0_linear)" stroke-width="0.664585" stroke-miterlimit="10" stroke-linecap="round" stroke-linejoin="round"/>
<path d="M112.235 57.265C112.105 57.1353 111.895 57.1353 111.765 57.265L109.65 59.3797C109.521 59.5095 109.521 59.7199 109.65 59.8497C109.78 59.9794 109.991 59.9794 110.12 59.8497L112 57.9699L113.88 59.8497C114.009 59.9794 114.22 59.9794 114.35 59.8497C114.479 59.7199 114.479 59.5095 114.35 59.3797L112.235 57.265ZM57.265 111.765C57.1353 111.895 57.1353 112.105 57.265 112.235L59.3797 114.35C59.5095 114.479 59.7199 114.479 59.8497 114.35C59.9794 114.22 59.9794 114.009 59.8497 113.88L57.9699 112L59.8497 110.12C59.9794 109.991 59.9794 109.78 59.8497 109.65C59.7199 109.521 59.5095 109.521 59.3797 109.65L57.265 111.765ZM2.76503 57.735C2.8948 57.8647 3.1052 57.8647 3.23497 57.735L5.34966 55.6203C5.47943 55.4905 5.47943 55.2801 5.34966 55.1503C5.21989 55.0206 5.0095 55.0206 4.87973 55.1503L3 57.0301L1.12027 55.1503C0.990501 55.0206 0.780106 55.0206 0.650337 55.1503C0.520569 55.2801 0.520569 55.4905 0.650337 55.6203L2.76503 57.735ZM57.735 3.23497C57.8647 3.1052 57.8647 2.8948 57.735 2.76503L55.6203 0.650337C55.4905 0.520569 55.2801 0.520569 55.1503 0.650337C55.0206 0.780106 55.0206 0.990501 55.1503 1.12027L57.0301 3L55.1503 4.87973C55.0206 5.0095 55.0206 5.21989 55.1503 5.34966C55.2801 5.47943 55.4905 5.47943 55.6203 5.34966L57.735 3.23497ZM111.668 57.5C111.668 87.416 87.416 111.668 57.5 111.668V112.332C87.783 112.332 112.332 87.783 112.332 57.5H111.668ZM3.33229 57.5C3.33229 27.584 27.584 3.33229 57.5 3.33229V2.66771C27.217 2.66771 2.66771 27.2169 2.66771 57.5H3.33229Z" fill="url(#paint1_linear)"/>
<path d="M48.8053 50.5922C48.8053 49.3132 49.2464 48.2547 54.7153 48.0341V53.2825C49.6433 52.9297 48.8053 51.8712 48.8053 50.6804V50.5922ZM65.6972 64.4408C65.6972 65.8081 64.9474 67.484 58.9933 67.7045V61.3095C64.8592 61.6623 65.6972 62.7208 65.6972 64.2644V64.4408ZM58.9933 77.6721V74.9376C75.797 74.9376 78.8843 69.4687 78.8843 63.8234V63.2059C78.8843 56.7667 74.2533 53.9441 62.2129 53.5913L58.9933 53.4589V48.0782C64.2858 48.5634 64.8592 50.4158 64.9915 51.7389H77.7376V51.3419C77.7376 46.2259 74.1651 41.3744 58.9933 41.1539V38.5518H54.7153V41.1539C39.764 41.1539 36.1474 45.6084 36.1474 50.9009V51.2978C36.1474 56.3257 39.4553 60.692 51.628 61.0448L54.7153 61.1771V67.6163C49.4669 67.043 48.5848 64.5732 48.5848 62.8531H35.7064V63.3382C35.7064 67.5281 37.5147 74.7171 54.7153 74.9376V77.6721H58.9933Z" fill="url(#paint2_linear)" fill-opacity="0.2"/>
<path d="M54.7153 48.0341H55.3453V47.3782L54.6899 47.4046L54.7153 48.0341ZM54.7153 53.2825L54.6715 53.9111L55.3453 53.9579V53.2825H54.7153ZM58.9933 67.7045H58.3633V68.3584L59.0167 68.3342L58.9933 67.7045ZM58.9933 61.3095L59.0312 60.6805L58.3633 60.6404V61.3095H58.9933ZM58.9933 77.6721V78.3021H59.6234V77.6721H58.9933ZM58.9933 74.9376V74.3076H58.3633V74.9376H58.9933ZM62.2129 53.5913L62.1871 54.2208L62.1945 54.221L62.2129 53.5913ZM58.9933 53.4589H58.3633V54.0636L58.9675 54.0885L58.9933 53.4589ZM58.9933 48.0782L59.0509 47.4508L58.3633 47.3878V48.0782H58.9933ZM64.9915 51.7389L64.3646 51.8016L64.4213 52.3689H64.9915V51.7389ZM77.7376 51.7389V52.3689H78.3676V51.7389H77.7376ZM58.9933 41.1539H58.3633V41.7749L58.9842 41.7839L58.9933 41.1539ZM58.9933 38.5518H59.6234V37.9217H58.9933V38.5518ZM54.7153 38.5518V37.9217H54.0852V38.5518H54.7153ZM54.7153 41.1539V41.784H55.3453V41.1539H54.7153ZM51.628 61.0448L51.655 60.4153L51.6462 60.415L51.628 61.0448ZM54.7153 61.1771H55.3453V60.5735L54.7422 60.5477L54.7153 61.1771ZM54.7153 67.6163L54.6468 68.2427L55.3453 68.319V67.6163H54.7153ZM48.5848 62.8531H49.2148V62.223H48.5848V62.8531ZM35.7064 62.8531V62.223H35.0764V62.8531H35.7064ZM54.7153 74.9376H55.3453V74.3156L54.7233 74.3076L54.7153 74.9376ZM54.7153 77.6721H54.0852V78.3021H54.7153V77.6721ZM49.4354 50.5922C49.4354 50.3002 49.4628 50.1017 49.5345 49.9419C49.5987 49.7988 49.7226 49.6338 50.0212 49.4637C50.6699 49.0943 52.0081 48.7739 54.7406 48.6637L54.6899 47.4046C51.9535 47.5149 50.3367 47.834 49.3977 48.3687C48.9024 48.6508 48.5742 49.0039 48.3849 49.4259C48.203 49.8312 48.1753 50.2447 48.1753 50.5922H49.4354ZM54.0852 48.0341V53.2825H55.3453V48.0341H54.0852ZM54.759 52.654C52.2378 52.4786 50.8762 52.1311 50.1587 51.7419C49.814 51.5549 49.6475 51.3737 49.5606 51.2237C49.4738 51.0741 49.4354 50.9025 49.4354 50.6804H48.1753C48.1753 51.0537 48.2415 51.4609 48.4704 51.8557C48.6991 52.2501 49.0591 52.5789 49.5579 52.8495C50.5273 53.3754 52.1208 53.7336 54.6715 53.9111L54.759 52.654ZM49.4354 50.6804V50.5922H48.1753V50.6804H49.4354ZM65.0671 64.4408C65.0671 64.726 65.0278 64.9887 64.9152 65.2319C64.8053 65.4694 64.6076 65.7272 64.23 65.9775C63.4469 66.4965 61.9157 66.9658 58.97 67.0749L59.0167 68.3342C62.0251 68.2228 63.8457 67.7439 64.9261 67.0279C65.4801 66.6607 65.842 66.2294 66.0588 65.7613C66.2728 65.2988 66.3272 64.8393 66.3272 64.4408H65.0671ZM59.6234 67.7045V61.3095H58.3633V67.7045H59.6234ZM58.9555 61.9384C61.8857 62.1146 63.4381 62.4651 64.249 62.8966C64.6339 63.1014 64.8182 63.3076 64.9176 63.4957C65.021 63.6912 65.0671 63.9317 65.0671 64.2644H66.3272C66.3272 63.8254 66.2685 63.3546 66.0315 62.9065C65.7906 62.451 65.3987 62.081 64.8409 61.7842C63.7663 61.2123 61.9668 60.8571 59.0312 60.6805L58.9555 61.9384ZM65.0671 64.2644V64.4408H66.3272V64.2644H65.0671ZM59.6234 77.6721V74.9376H58.3633V77.6721H59.6234ZM58.9933 75.5677C67.4374 75.5677 72.574 74.1986 75.6089 72.0084C78.6972 69.7796 79.5143 66.7746 79.5143 63.8234H78.2542C78.2542 66.5175 77.5277 69.0696 74.8715 70.9866C72.1618 72.9421 67.353 74.3076 58.9933 74.3076V75.5677ZM79.5143 63.8234V63.2059H78.2542V63.8234H79.5143ZM79.5143 63.2059C79.5143 61.5213 79.2113 60.0303 78.5294 58.742C77.8452 57.4493 76.8005 56.4006 75.3814 55.5721C72.5741 53.933 68.2696 53.1384 62.2314 52.9615L62.1945 54.221C68.1967 54.3969 72.2279 55.1901 74.7461 56.6603C75.9898 57.3865 76.8554 58.2729 77.4157 59.3315C77.9784 60.3945 78.2542 61.671 78.2542 63.2059H79.5143ZM62.2388 52.9617L59.0192 52.8294L58.9675 54.0885L62.1871 54.2208L62.2388 52.9617ZM59.6234 53.4589V48.0782H58.3633V53.4589H59.6234ZM58.9358 48.7057C61.5306 48.9435 62.8453 49.5088 63.5225 50.077C64.1642 50.6153 64.3061 51.2171 64.3646 51.8016L65.6184 51.6762C65.5446 50.9376 65.3336 49.9516 64.3324 49.1116C63.3668 48.3016 61.7485 47.6981 59.0509 47.4508L58.9358 48.7057ZM64.9915 52.3689H77.7376V51.1088H64.9915V52.3689ZM78.3676 51.7389V51.3419H77.1075V51.7389H78.3676ZM78.3676 51.3419C78.3676 48.6106 77.3984 45.9055 74.407 43.8896C71.4665 41.908 66.633 40.6348 59.0025 40.5239L58.9842 41.7839C66.5255 41.8935 71.0641 43.1563 73.7028 44.9346C76.2906 46.6785 77.1075 48.9573 77.1075 51.3419H78.3676ZM59.6234 41.1539V38.5518H58.3633V41.1539H59.6234ZM58.9933 37.9217H54.7153V39.1818H58.9933V37.9217ZM54.0852 38.5518V41.1539H55.3453V38.5518H54.0852ZM54.7153 40.5239C47.2016 40.5239 42.4116 41.6385 39.4849 43.5121C36.4978 45.4243 35.5174 48.0824 35.5174 50.9009H36.7775C36.7775 48.427 37.6053 46.2115 40.1643 44.5734C42.7837 42.8965 47.2776 41.784 54.7153 41.784V40.5239ZM35.5174 50.9009V51.2978H36.7775V50.9009H35.5174ZM35.5174 51.2978C35.5174 53.967 36.4061 56.5215 38.9445 58.4282C41.4447 60.3063 45.4689 61.4966 51.6097 61.6746L51.6462 60.415C45.6143 60.2402 41.8982 59.0709 39.7014 57.4207C37.5427 55.7992 36.7775 53.6565 36.7775 51.2978H35.5174ZM51.601 61.6743L54.6883 61.8066L54.7422 60.5477L51.6549 60.4154L51.601 61.6743ZM54.0852 61.1771V67.6163H55.3453V61.1771H54.0852ZM54.7837 66.99C52.2446 66.7126 50.8728 65.988 50.1342 65.2262C49.4045 64.4735 49.2148 63.6036 49.2148 62.8531H47.9547C47.9547 63.8227 48.2061 65.0477 49.2295 66.1033C50.244 67.1497 51.9376 67.9467 54.6468 68.2427L54.7837 66.99ZM48.5848 62.223H35.7064V63.4832H48.5848V62.223ZM35.0764 62.8531V63.3382H36.3365V62.8531H35.0764ZM35.0764 63.3382C35.0764 65.5258 35.5515 68.5788 38.3385 71.0942C41.1041 73.5903 46.0377 75.4565 54.7072 75.5676L54.7233 74.3076C46.1923 74.1982 41.6214 72.3597 39.1828 70.1587C36.7655 67.977 36.3365 65.3406 36.3365 63.3382H35.0764ZM54.0852 74.9376V77.6721H55.3453V74.9376H54.0852ZM54.7153 78.3021H58.9933V77.042H54.7153V78.3021Z" fill="url(#paint3_linear)"/>
<defs>
<linearGradient id="paint0_linear" x1="13.0994" y1="64.0925" x2="103.278" y2="64.6199" gradientUnits="userSpaceOnUse">
<stop stop-color="#FEBD2F"/>
<stop offset="0.248726" stop-color="#F95721"/>
<stop offset="0.502913" stop-color="#FC1370"/>
<stop offset="0.671875" stop-color="#BA2DB2"/>
<stop offset="0.776042" stop-color="#8342E9"/>
<stop offset="0.963542" stop-color="#3F89FC"/>
</linearGradient>
<linearGradient id="paint1_linear" x1="3" y1="64.9613" x2="113.645" y2="65.6084" gradientUnits="userSpaceOnUse">
<stop stop-color="#FEBD2F"/>
<stop offset="0.248726" stop-color="#F95721"/>
<stop offset="0.502913" stop-color="#FC1370"/>
<stop offset="0.671875" stop-color="#BA2DB2"/>
<stop offset="0.776042" stop-color="#8342E9"/>
<stop offset="0.963542" stop-color="#3F89FC"/>
</linearGradient>
<linearGradient id="paint2_linear" x1="35.1331" y1="59.109" x2="80.535" y2="59.7374" gradientUnits="userSpaceOnUse">
<stop stop-color="#FEBD2F"/>
<stop offset="0.248726" stop-color="#F95721"/>
<stop offset="0.502913" stop-color="#FC1370"/>
<stop offset="0.671875" stop-color="#BA2DB2"/>
<stop offset="0.776042" stop-color="#8342E9"/>
<stop offset="0.963542" stop-color="#3F89FC"/>
</linearGradient>
<linearGradient id="paint3_linear" x1="35.1331" y1="59.109" x2="80.535" y2="59.7374" gradientUnits="userSpaceOnUse">
<stop stop-color="#FEBD2F"/>
<stop offset="0.248726" stop-color="#F95721"/>
<stop offset="0.502913" stop-color="#FC1370"/>
<stop offset="0.671875" stop-color="#BA2DB2"/>
<stop offset="0.776042" stop-color="#8342E9"/>
<stop offset="0.963542" stop-color="#3F89FC"/>
</linearGradient>
</defs>
</svg>
