<svg width="86" height="86" viewBox="0 0 86 86" fill="none" xmlns="http://www.w3.org/2000/svg">
<path d="M43.0138 76.8006C61.4691 76.8006 76.43 61.8397 76.43 43.3844C76.43 24.9292 61.4691 9.96826 43.0138 9.96826C24.5586 9.96826 9.59766 24.9292 9.59766 43.3844C9.59766 61.8397 24.5586 76.8006 43.0138 76.8006Z" stroke="#FAFAFA" stroke-width="0.499963" stroke-miterlimit="10" stroke-linecap="round" stroke-linejoin="round"/>
<path d="M84.1768 42.8232C84.0791 42.7256 83.9209 42.7256 83.8232 42.8232L82.2324 44.4141C82.1347 44.5117 82.1347 44.67 82.2324 44.7676C82.33 44.8653 82.4883 44.8653 82.5859 44.7676L84 43.3535L85.4141 44.7676C85.5117 44.8653 85.67 44.8653 85.7676 44.7676C85.8653 44.67 85.8653 44.5117 85.7676 44.4141L84.1768 42.8232ZM42.8232 83.8232C42.7256 83.9209 42.7256 84.0791 42.8232 84.1768L44.4141 85.7676C44.5117 85.8653 44.67 85.8653 44.7676 85.7676C44.8653 85.67 44.8653 85.5117 44.7676 85.4141L43.3535 84L44.7676 82.5859C44.8653 82.4883 44.8653 82.33 44.7676 82.2324C44.67 82.1347 44.5117 82.1347 44.4141 82.2324L42.8232 83.8232ZM1.82324 43.1768C1.92086 43.2744 2.07914 43.2744 2.17676 43.1768L3.76764 41.5859C3.86526 41.4883 3.86526 41.33 3.76764 41.2324C3.67001 41.1347 3.51173 41.1347 3.41411 41.2324L2 42.6465L0.585891 41.2324C0.488267 41.1347 0.329988 41.1347 0.232364 41.2324C0.13474 41.33 0.13474 41.4883 0.232364 41.5859L1.82324 43.1768ZM43.1768 2.17676C43.2744 2.07914 43.2744 1.92086 43.1768 1.82324L41.5859 0.232364C41.4883 0.13474 41.33 0.13474 41.2324 0.232364C41.1347 0.329988 41.1347 0.488267 41.2324 0.585891L42.6465 2L41.2324 3.41411C41.1347 3.51173 41.1347 3.67001 41.2324 3.76764C41.33 3.86526 41.4883 3.86526 41.5859 3.76764L43.1768 2.17676ZM83.75 43C83.75 65.5056 65.5056 83.75 43 83.75V84.25C65.7817 84.25 84.25 65.7817 84.25 43H83.75ZM2.24998 43C2.24998 20.4944 20.4944 2.24998 43 2.24998V1.75002C20.2183 1.75002 1.75002 20.2183 1.75002 43H2.24998Z" fill="#FAFAFA"/>
<path d="M36.459 38.2436C36.459 37.2814 36.7908 36.4851 40.905 36.3192V40.2675C37.0894 40.0021 36.459 39.2058 36.459 38.31V38.2436ZM49.1666 48.6619C49.1666 49.6904 48.6026 50.9512 44.1234 51.1171V46.3062C48.5362 46.5716 49.1666 47.3679 49.1666 48.5292V48.6619ZM44.1234 58.6156V56.5585C56.7647 56.5585 59.0872 52.4443 59.0872 48.1974V47.7329C59.0872 42.8887 55.6034 40.7652 46.5455 40.4998L44.1234 40.4003V36.3524C48.1049 36.7174 48.5362 38.1109 48.6358 39.1063H58.2246V38.8077C58.2246 34.9589 55.537 31.3092 44.1234 31.1433V29.1857H40.905V31.1433C29.6573 31.1433 26.9366 34.4944 26.9366 38.4759V38.7745C26.9366 42.5569 29.425 45.8416 38.5825 46.1071L40.905 46.2066V51.0508C36.9567 50.6195 36.2931 48.7614 36.2931 47.4674H26.6048V47.8324C26.6048 50.9844 27.9651 56.3926 40.905 56.5585V58.6156H44.1234Z" fill="url(#paint0_linear)" fill-opacity="0.2"/>
<path d="M40.905 36.3192H41.379V35.8257L40.8859 35.8456L40.905 36.3192ZM40.905 40.2675L40.8721 40.7404L41.379 40.7757V40.2675H40.905ZM44.1234 51.1171H43.6494V51.609L44.1409 51.5908L44.1234 51.1171ZM44.1234 46.3062L44.1519 45.833L43.6494 45.8028V46.3062H44.1234ZM44.1234 58.6156V59.0896H44.5974V58.6156H44.1234ZM44.1234 56.5585V56.0845H43.6494V56.5585H44.1234ZM46.5455 40.4998L46.526 40.9734L46.5316 40.9736L46.5455 40.4998ZM44.1234 40.4003H43.6494V40.8552L44.1039 40.8738L44.1234 40.4003ZM44.1234 36.3524L44.1667 35.8804L43.6494 35.833V36.3524H44.1234ZM48.6358 39.1063L48.1641 39.1534L48.2068 39.5803H48.6358V39.1063ZM58.2246 39.1063V39.5803H58.6986V39.1063H58.2246ZM44.1234 31.1433H43.6494V31.6104L44.1165 31.6172L44.1234 31.1433ZM44.1234 29.1857H44.5974V28.7117H44.1234V29.1857ZM40.905 29.1857V28.7117H40.431V29.1857H40.905ZM40.905 31.1433V31.6173H41.379V31.1433H40.905ZM38.5825 46.1071L38.6028 45.6335L38.5962 45.6333L38.5825 46.1071ZM40.905 46.2066H41.379V45.7525L40.9253 45.7331L40.905 46.2066ZM40.905 51.0508L40.8535 51.522L41.379 51.5794V51.0508H40.905ZM36.2931 47.4674H36.7671V46.9934H36.2931V47.4674ZM26.6048 47.4674V46.9934H26.1308V47.4674H26.6048ZM40.905 56.5585H41.379V56.0906L40.9111 56.0846L40.905 56.5585ZM40.905 58.6156H40.431V59.0896H40.905V58.6156ZM36.933 38.2436C36.933 38.024 36.9536 37.8746 37.0076 37.7544C37.0559 37.6468 37.1491 37.5226 37.3737 37.3947C37.8617 37.1168 38.8684 36.8757 40.9241 36.7928L40.8859 35.8456C38.8274 35.9286 37.6111 36.1686 36.9046 36.5709C36.532 36.7831 36.2852 37.0488 36.1427 37.3663C36.0059 37.6712 35.985 37.9822 35.985 38.2436H36.933ZM40.431 36.3192V40.2675H41.379V36.3192H40.431ZM40.9379 39.7947C39.0412 39.6628 38.0169 39.4013 37.4772 39.1085C37.2178 38.9678 37.0926 38.8316 37.0272 38.7187C36.9619 38.6062 36.933 38.4771 36.933 38.31H35.985C35.985 38.5908 36.0349 38.8972 36.2071 39.1942C36.3791 39.4909 36.6499 39.7382 37.0251 39.9418C37.7545 40.3374 38.9532 40.6069 40.8721 40.7404L40.9379 39.7947ZM36.933 38.31V38.2436H35.985V38.31H36.933ZM48.6927 48.6619C48.6927 48.8764 48.6631 49.074 48.5784 49.257C48.4957 49.4357 48.347 49.6296 48.0629 49.8179C47.4738 50.2083 46.3219 50.5614 44.1059 50.6435L44.1409 51.5908C46.4041 51.507 47.7738 51.1467 48.5866 50.6081C49.0034 50.3319 49.2756 50.0074 49.4387 49.6552C49.5997 49.3073 49.6406 48.9616 49.6406 48.6619H48.6927ZM44.5974 51.1171V46.3062H43.6494V51.1171H44.5974ZM44.0949 46.7793C46.2993 46.9119 47.4672 47.1755 48.0772 47.5001C48.3667 47.6542 48.5054 47.8094 48.5802 47.9508C48.658 48.0979 48.6927 48.2788 48.6927 48.5292H49.6406C49.6406 48.1989 49.5965 47.8447 49.4182 47.5076C49.2369 47.1649 48.9421 46.8866 48.5225 46.6633C47.7141 46.2331 46.3603 45.9659 44.1519 45.833L44.0949 46.7793ZM48.6927 48.5292V48.6619H49.6406V48.5292H48.6927ZM44.5974 58.6156V56.5585H43.6494V58.6156H44.5974ZM44.1234 57.0325C50.4758 57.0325 54.3401 56.0026 56.6232 54.3549C58.9465 52.6782 59.5612 50.4175 59.5612 48.1974H58.6132C58.6132 50.2241 58.0667 52.1441 56.0684 53.5862C54.0299 55.0573 50.4123 56.0845 44.1234 56.0845V57.0325ZM59.5612 48.1974V47.7329H58.6132V48.1974H59.5612ZM59.5612 47.7329C59.5612 46.4655 59.3333 45.3438 58.8203 44.3747C58.3055 43.4022 57.5196 42.6133 56.4521 41.99C54.3401 40.7569 51.1019 40.1591 46.5594 40.026L46.5316 40.9736C51.047 41.1059 54.0797 41.7026 55.9741 42.8086C56.9098 43.3549 57.5609 44.0217 57.9824 44.8181C58.4057 45.6178 58.6132 46.5781 58.6132 47.7329H59.5612ZM46.5649 40.0262L44.1429 39.9267L44.1039 40.8738L46.526 40.9734L46.5649 40.0262ZM44.5974 40.4003V36.3524H43.6494V40.4003H44.5974ZM44.0801 36.8244C46.0322 37.0033 47.0212 37.4286 47.5307 37.8561C48.0134 38.261 48.1202 38.7137 48.1641 39.1534L49.1074 39.0591C49.0518 38.5035 48.8932 37.7617 48.14 37.1298C47.4135 36.5204 46.1961 36.0664 44.1667 35.8804L44.0801 36.8244ZM48.6358 39.5803H58.2246V38.6323H48.6358V39.5803ZM58.6986 39.1063V38.8077H57.7506V39.1063H58.6986ZM58.6986 38.8077C58.6986 36.7529 57.9694 34.7179 55.719 33.2013C53.5069 31.7105 49.8707 30.7528 44.1303 30.6693L44.1165 31.6172C49.7898 31.6997 53.2042 32.6497 55.1892 33.9874C57.136 35.2994 57.7506 37.0137 57.7506 38.8077H58.6986ZM44.5974 31.1433V29.1857H43.6494V31.1433H44.5974ZM44.1234 28.7117H40.905V29.6597H44.1234V28.7117ZM40.431 29.1857V31.1433H41.379V29.1857H40.431ZM40.905 30.6693C35.2526 30.6693 31.6491 31.5079 29.4473 32.9173C27.2002 34.3558 26.4626 36.3555 26.4626 38.4759H27.4106C27.4106 36.6147 28.0333 34.9481 29.9584 33.7157C31.929 32.4542 35.3097 31.6173 40.905 31.6173V30.6693ZM26.4626 38.4759V38.7745H27.4106V38.4759H26.4626ZM26.4626 38.7745C26.4626 40.7825 27.1312 42.7042 29.0408 44.1386C30.9217 45.5515 33.9491 46.447 38.5687 46.5809L38.5962 45.6333C34.0584 45.5018 31.2629 44.6221 29.6102 43.3807C27.9862 42.1608 27.4106 40.5489 27.4106 38.7745H26.4626ZM38.5622 46.5806L40.8847 46.6802L40.9253 45.7331L38.6028 45.6335L38.5622 46.5806ZM40.431 46.2066V51.0508H41.379V46.2066H40.431ZM40.9565 50.5796C39.0463 50.3709 38.0144 49.8258 37.4588 49.2527C36.9098 48.6864 36.7671 48.032 36.7671 47.4674H35.8191C35.8191 48.1968 36.0083 49.1184 36.7781 49.9125C37.5414 50.6998 38.8154 51.2993 40.8535 51.522L40.9565 50.5796ZM36.2931 46.9934H26.6048V47.9414H36.2931V46.9934ZM26.1308 47.4674V47.8324H27.0788V47.4674H26.1308ZM26.1308 47.8324C26.1308 49.4781 26.4882 51.7748 28.5849 53.6671C30.6655 55.5449 34.3769 56.9489 40.8989 57.0325L40.9111 56.0846C34.4932 56.0023 31.0546 54.6192 29.22 52.9634C27.4015 51.3221 27.0788 49.3387 27.0788 47.8324H26.1308ZM40.431 56.5585V58.6156H41.379V56.5585H40.431ZM40.905 59.0896H44.1234V58.1416H40.905V59.0896Z" fill="url(#paint1_linear)"/>
<defs>
<linearGradient id="paint0_linear" x1="26.1735" y1="44.2104" x2="60.3291" y2="44.6831" gradientUnits="userSpaceOnUse">
<stop stop-color="#FEBD2F"/>
<stop offset="0.248726" stop-color="#F95721"/>
<stop offset="0.502913" stop-color="#FC1370"/>
<stop offset="0.671875" stop-color="#BA2DB2"/>
<stop offset="0.776042" stop-color="#8342E9"/>
<stop offset="0.963542" stop-color="#3F89FC"/>
</linearGradient>
<linearGradient id="paint1_linear" x1="26.1735" y1="44.2104" x2="60.3291" y2="44.6831" gradientUnits="userSpaceOnUse">
<stop stop-color="#FEBD2F"/>
<stop offset="0.248726" stop-color="#F95721"/>
<stop offset="0.502913" stop-color="#FC1370"/>
<stop offset="0.671875" stop-color="#BA2DB2"/>
<stop offset="0.776042" stop-color="#8342E9"/>
<stop offset="0.963542" stop-color="#3F89FC"/>
</linearGradient>
</defs>
</svg>
