<svg width="19" height="18" viewBox="0 0 19 18" fill="none" xmlns="http://www.w3.org/2000/svg">
<path fill-rule="evenodd" clip-rule="evenodd" d="M6.36506 0H11.8196C12.8238 0 13.6378 0.732267 13.6378 1.63557V2.45337H16.3636C17.3678 2.45337 18.1818 3.18563 18.1818 4.08893V5.72449C18.1818 6.62778 17.3678 7.36005 16.3636 7.36005H16.2907L15.4544 16.3554C15.4544 17.2587 14.6404 17.9909 13.6363 17.9909H4.54535C3.54119 17.9909 2.72717 17.2587 2.73031 16.4233L1.8907 7.36005H1.81818C0.814028 7.36005 0 6.62778 0 5.72449V4.08893C0 3.18563 0.814028 2.45337 1.81818 2.45337H4.54688V1.63557C4.54688 0.732267 5.3609 0 6.36506 0ZM4.54688 4.08891V4.08862H1.81641V5.72418H16.3619V4.08862H13.6378V4.08891H4.54688ZM14.4673 7.36005H3.71573L4.54619 16.3556H13.6371L13.6402 16.2877L14.4673 7.36005ZM11.8182 1.63553V2.45334H6.36363V1.63553H11.8182Z" fill="#F4F5F6"/>
</svg>
