<svg width="40" height="40" viewBox="0 0 40 40" fill="none" xmlns="http://www.w3.org/2000/svg">
<circle cx="20" cy="20" r="19.5" fill="#111111" stroke="url(#paint0_linear)"/>
<path d="M25.5506 16.867L24.8154 16.4749V17.3082V24.1422C24.8154 28.1989 21.5141 31.5 17.4574 31.5C13.4007 31.5 10.0996 28.1989 10.0996 24.1422C10.0996 20.0855 13.4007 16.7842 17.4574 16.7842C17.5695 16.7842 17.6605 16.8752 17.6605 16.9874V20.7531C17.6605 20.8653 17.5696 20.9562 17.4574 20.9562C15.7003 20.9562 14.2716 22.385 14.2716 24.1422C14.2716 25.8993 15.7003 27.328 17.4574 27.328C19.2145 27.328 20.6434 25.8994 20.6434 24.1422V8.70312C20.6434 8.59099 20.7344 8.5 20.8465 8.5H24.6122C24.7245 8.5 24.8154 8.5909 24.8154 8.70312C24.8154 11.4984 27.0887 13.7718 29.884 13.7718C29.9962 13.7718 30.0872 13.8628 30.0872 13.9749V17.7407C30.0872 17.8529 29.9963 17.9438 29.884 17.9438C28.3534 17.9438 26.8769 17.5742 25.5506 16.867Z" fill="#111111" stroke="url(#paint1_linear)"/>
<defs>
<linearGradient id="paint0_linear" x1="7.83883e-09" y1="22.7381" x2="40.6036" y2="22.9755" gradientUnits="userSpaceOnUse">
<stop stop-color="#FEBD2F"/>
<stop offset="0.248726" stop-color="#F95721"/>
<stop offset="0.502913" stop-color="#FC1370"/>
<stop offset="0.671875" stop-color="#BA2DB2"/>
<stop offset="0.776042" stop-color="#8342E9"/>
<stop offset="0.963542" stop-color="#3F89FC"/>
</linearGradient>
<linearGradient id="paint1_linear" x1="9.59961" y1="21.6429" x2="30.904" y2="21.7518" gradientUnits="userSpaceOnUse">
<stop stop-color="#FEBD2F"/>
<stop offset="0.248726" stop-color="#F95721"/>
<stop offset="0.502913" stop-color="#FC1370"/>
<stop offset="0.671875" stop-color="#BA2DB2"/>
<stop offset="0.776042" stop-color="#8342E9"/>
<stop offset="0.963542" stop-color="#3F89FC"/>
</linearGradient>
</defs>
</svg>
