<svg width="202" height="143" viewBox="0 0 202 143" fill="none" xmlns="http://www.w3.org/2000/svg">
<path fill-rule="evenodd" clip-rule="evenodd" d="M192.119 32.1773C185.156 31.496 174.407 32.5589 161.116 35.1683C161.035 35.1843 160.956 35.1313 160.94 35.05C160.924 34.9687 160.977 34.8899 161.058 34.8739C174.356 32.2633 185.14 31.193 192.148 31.8787C192.231 31.8868 192.291 31.9602 192.283 32.0426C192.275 32.1251 192.201 32.1854 192.119 32.1773ZM198.533 33.4844C198.46 33.4454 198.369 33.4731 198.33 33.5462C198.291 33.6193 198.318 33.7101 198.391 33.7491C199.553 34.3686 200.309 35.1476 200.646 36.0824L200.646 36.0825C200.992 37.0412 200.896 38.1532 200.366 39.411C199.834 40.6699 198.871 42.0639 197.501 43.5739C194.761 46.5937 190.416 50.053 184.727 53.7964C173.352 61.2818 156.632 69.8844 136.716 78.3605C136.64 78.393 136.604 78.481 136.637 78.5573C136.669 78.6335 136.757 78.669 136.833 78.6366C156.759 70.1567 173.496 61.546 184.892 54.047C190.589 50.2982 194.958 46.8227 197.723 43.7755C199.106 42.252 200.093 40.8295 200.642 39.5277C201.192 38.2249 201.307 37.032 200.928 35.9806C200.558 34.9551 199.737 34.1268 198.533 33.4844ZM121.521 84.7156C121.551 84.7928 121.513 84.8797 121.436 84.9098C116.909 86.6754 112.266 88.4183 107.522 90.135L107.522 90.135C87.4669 97.381 68.4098 103.069 52.1008 106.897C52.0201 106.916 51.9394 106.866 51.9205 106.785C51.9016 106.705 51.9516 106.624 52.0322 106.605C68.3283 102.78 87.3743 97.0955 107.42 89.8529C112.162 88.137 116.803 86.395 121.327 84.6303C121.404 84.6002 121.491 84.6384 121.521 84.7156ZM3.116 102.027C3.1823 102.076 3.19578 102.17 3.14611 102.236C1.40317 104.563 0.790776 106.534 1.35695 108.097L1.357 108.097C1.8549 109.475 3.25959 110.514 5.5305 111.204C7.79722 111.893 10.8933 112.223 14.712 112.206C22.3475 112.174 32.8345 110.76 45.2666 108.118C45.3476 108.1 45.4273 108.152 45.4445 108.233C45.4617 108.314 45.41 108.394 45.329 108.411C32.8885 111.056 22.3786 112.474 14.7133 112.506C10.8816 112.523 7.75135 112.193 5.4433 111.491C3.13945 110.792 1.62096 109.71 1.07484 108.199C0.454369 106.486 1.1489 104.402 2.90602 102.057C2.95569 101.99 3.0497 101.977 3.116 102.027ZM31.0778 82.1712C31.1505 82.1314 31.1772 82.0403 31.1375 81.9676C31.0978 81.8949 31.0066 81.8682 30.9339 81.9079C26.7744 84.1812 22.9786 86.3985 19.5844 88.5373C19.5143 88.5815 19.4933 88.6741 19.5374 88.7442C19.5816 88.8143 19.6742 88.8353 19.7443 88.7911C23.1325 86.6562 26.9227 84.442 31.0778 82.1712Z" fill="url(#paint0_linear)"/>
<path fill-rule="evenodd" clip-rule="evenodd" d="M153.984 25.3959C167.158 22.4713 178.314 20.856 186.444 20.7187C190.509 20.6501 193.808 20.9513 196.221 21.6383C198.639 22.3268 200.129 23.3913 200.645 24.8197C201.191 26.3327 200.636 28.2302 199.015 30.4629C197.399 32.6896 194.749 35.2138 191.189 37.9589C184.07 43.4479 173.34 49.7981 160.051 56.3983C159.977 56.4351 159.947 56.5252 159.984 56.5993C160.02 56.6735 160.11 56.7038 160.185 56.667C173.481 50.0629 184.231 43.7027 191.372 38.1965C194.942 35.4441 197.617 32.8995 199.258 30.6391C200.894 28.3846 201.526 26.3764 200.927 24.7178C200.361 23.1513 198.751 22.047 196.303 21.3498C193.849 20.6511 190.517 20.3499 186.439 20.4188C178.28 20.5566 167.101 22.1766 153.919 25.1031C153.838 25.121 153.787 25.2011 153.805 25.282C153.823 25.3629 153.903 25.4139 153.984 25.3959ZM146.27 63.2415C146.346 63.2074 146.379 63.1186 146.345 63.0431C146.311 62.9676 146.222 62.9339 146.147 62.968C134.437 68.2465 121.353 73.5516 107.42 78.5864C99.0431 81.6126 90.8433 84.3685 82.944 86.8276C82.8649 86.8522 82.8207 86.9363 82.8453 87.0154C82.87 87.0945 82.954 87.1387 83.0331 87.114C90.9369 84.6535 99.141 81.8962 107.521 78.8686C121.461 73.8313 134.553 68.5234 146.27 63.2415ZM7.48816 86.2217C7.54308 86.2837 7.53733 86.3785 7.47531 86.4334C5.05268 88.5788 3.2874 90.5506 2.24628 92.3064C1.2041 94.064 0.901162 95.5807 1.35416 96.8342C1.99615 98.606 4.13907 99.8152 7.66593 100.442C11.1789 101.066 16.0055 101.101 21.9114 100.581C21.994 100.574 22.0668 100.635 22.074 100.718C22.0813 100.8 22.0203 100.873 21.9377 100.88C16.0214 101.401 11.1645 101.368 7.61345 100.737C4.07625 100.109 1.77457 98.8751 1.0721 96.9364L1.07206 96.9363C0.574978 95.561 0.925503 93.9456 1.98823 92.1534C3.05205 90.3593 4.84321 88.3635 7.27642 86.2088C7.33844 86.1539 7.43324 86.1597 7.48816 86.2217ZM60.1885 93.483C60.2092 93.5632 60.1609 93.645 60.0807 93.6656C49.6294 96.3555 40.0968 98.3695 31.8814 99.6436C31.7995 99.6563 31.7229 99.6002 31.7102 99.5183C31.6975 99.4365 31.7535 99.3598 31.8354 99.3471C40.039 98.0749 49.5617 96.0631 60.0059 93.3751C60.0861 93.3544 60.1679 93.4027 60.1885 93.483ZM30.3749 71.1216C30.4149 71.1942 30.3884 71.2854 30.3159 71.3253C23.7997 74.9137 18.198 78.362 13.6936 81.5612C13.626 81.6092 13.5324 81.5933 13.4844 81.5258C13.4365 81.4582 13.4523 81.3646 13.5199 81.3166C18.0361 78.109 23.6482 74.6547 30.1711 71.0626C30.2437 71.0226 30.3349 71.049 30.3749 71.1216Z" fill="url(#paint1_linear)"/>
<path fill-rule="evenodd" clip-rule="evenodd" d="M182.011 46.9181C185.968 46.6417 189.386 46.6375 192.185 46.9177C192.268 46.926 192.341 46.8658 192.349 46.7834C192.358 46.701 192.298 46.6275 192.215 46.6192C189.394 46.3367 185.957 46.3418 181.99 46.6188C181.908 46.6246 181.845 46.6963 181.851 46.7789C181.857 46.8615 181.929 46.9239 182.011 46.9181ZM195.535 47.1508C195.454 47.1318 195.374 47.1818 195.355 47.2624C195.336 47.3431 195.386 47.4238 195.466 47.4428C198.327 48.1162 200.077 49.2469 200.645 50.8197C201.191 52.3327 200.636 54.2302 199.015 56.4629C197.399 58.6896 194.749 61.2138 191.189 63.9589C184.07 69.4479 173.34 75.7981 160.051 82.3983C159.977 82.4351 159.947 82.5252 159.984 82.5993C160.02 82.6735 160.11 82.7038 160.185 82.667C173.481 76.0629 184.231 69.7027 191.372 64.1965C194.942 61.4441 197.617 58.8995 199.258 56.6391C200.894 54.3846 201.526 52.3764 200.927 50.7178C200.305 48.9943 198.418 47.8295 195.535 47.1508ZM173.521 47.8138C173.603 47.8026 173.661 47.7271 173.649 47.645C173.638 47.5629 173.563 47.5054 173.481 47.5165C171.529 47.7816 169.492 48.0933 167.377 48.4506C167.295 48.4644 167.24 48.5418 167.254 48.6235C167.268 48.7052 167.345 48.7602 167.427 48.7464C169.539 48.3896 171.573 48.0784 173.521 47.8138ZM146.27 89.2415C146.346 89.2074 146.379 89.1186 146.345 89.0431C146.311 88.9676 146.222 88.9339 146.147 88.968C134.437 94.2465 121.353 99.5516 107.42 104.586C99.0431 107.613 90.8433 110.368 82.944 112.828C82.8649 112.852 82.8207 112.936 82.8453 113.015C82.87 113.095 82.954 113.139 83.0331 113.114C90.9369 110.654 99.141 107.896 107.521 104.869C121.461 99.8313 134.553 94.5234 146.27 89.2415ZM7.48807 112.222C7.54299 112.284 7.53724 112.379 7.47522 112.433C6.23017 113.536 5.158 114.593 4.26834 115.6C2.98215 117.055 2.08173 118.398 1.5896 119.613C1.09792 120.827 1.01744 121.903 1.35411 122.834C1.99615 124.606 4.13906 125.815 7.66584 126.442C11.1789 127.066 16.0054 127.101 21.9114 126.581C21.9939 126.574 22.0667 126.635 22.0739 126.718C22.0812 126.8 22.0202 126.873 21.9377 126.88C16.0213 127.401 11.1644 127.368 7.61336 126.737C4.07616 126.109 1.77448 124.875 1.07201 122.936L1.07197 122.936C0.702793 121.915 0.801458 120.76 1.31154 119.501C1.82117 118.242 2.74512 116.87 4.04358 115.401C4.94307 114.384 6.02433 113.318 7.27633 112.209C7.33835 112.154 7.43315 112.16 7.48807 112.222ZM60.1885 119.483C60.2091 119.563 60.1608 119.645 60.0806 119.666C49.6293 122.355 40.0967 124.37 31.8813 125.644C31.7994 125.656 31.7228 125.6 31.7101 125.518C31.6974 125.436 31.7535 125.36 31.8353 125.347C40.0389 124.075 49.5616 122.063 60.0058 119.375C60.086 119.354 60.1678 119.403 60.1885 119.483ZM30.3749 97.1216C30.4149 97.1942 30.3884 97.2854 30.3159 97.3253C23.7997 100.914 18.198 104.362 13.6936 107.561C13.626 107.609 13.5324 107.593 13.4844 107.526C13.4365 107.458 13.4523 107.365 13.5199 107.317C18.0361 104.109 23.6482 100.655 30.1711 97.0626C30.2437 97.0226 30.3349 97.049 30.3749 97.1216Z" fill="url(#paint2_linear)"/>
<path d="M171.254 71.5169C171.254 74.5701 171.059 77.5745 170.683 80.5225C166.18 82.5129 166.86 86.3247 166.139 88.5067C165.527 90.3731 161.997 94.1849 160.002 93.4188C158.008 92.6489 150.032 92.495 148.39 79.61C146.749 66.7249 138.964 63.5027 134.127 63.0708C129.29 62.6427 126.8 59.0487 125.016 57.5014C123.233 55.9542 120.686 54.8012 120.686 54.8012C117.434 53.1113 116.048 53.8886 116.048 53.8886C107.422 57.1446 106.277 52.9723 105.079 51.718C103.877 50.4599 99.911 47.279 99.911 47.279C92.4113 40.8158 97.9168 37.9429 97.9168 37.9429C97.9168 37.9429 101.424 36.666 106.134 37.7852C110.839 38.9005 109.949 42.9302 110.441 44.9656C111.099 47.6771 114.103 47.8461 114.103 47.8461C113.596 39.5878 117.956 42.318 118.82 42.6222C121.404 43.531 129.775 42.6222 129.775 42.6222C137.695 40.2637 133.988 35.5431 133.988 35.5431C133.988 35.5431 128.269 42.9152 126.406 38.5776C124.408 33.932 125.061 28.3364 125.061 28.3364C127.589 23.3604 148.39 19.541 148.39 19.541C162.444 32.4261 171.254 50.9444 171.254 71.5169Z" fill="url(#paint3_linear)" fill-opacity="0.2" stroke="url(#paint4_linear)" stroke-width="0.3" stroke-miterlimit="10"/>
<path d="M99.7606 17.9296C98.5363 17.3024 92.2234 16.1908 95.4043 21.2983C97.774 25.1026 103.88 20.6598 104.324 19.4055C104.324 19.4055 101.432 18.7821 99.7606 17.9296Z" stroke="url(#paint5_linear)" stroke-width="0.3" stroke-miterlimit="10"/>
<path d="M166.139 88.5065C165.526 90.3729 161.996 94.1847 160.002 93.4186C158.008 92.6488 150.031 92.4948 148.39 79.6098C146.749 66.7247 138.964 63.5025 134.127 63.0706C129.29 62.6425 126.8 59.0485 125.016 57.5012C123.232 55.954 120.686 54.801 120.686 54.801C117.434 53.1111 116.048 53.8884 116.048 53.8884C107.422 57.1444 106.276 52.9721 105.078 51.7178C103.876 50.4597 99.9107 47.2788 99.9107 47.2788C92.411 40.8156 97.9165 37.9427 97.9165 37.9427C97.9165 37.9427 101.424 36.6658 106.134 37.785C110.839 38.9003 109.949 42.93 110.441 44.9654C111.098 47.6769 114.103 47.8459 114.103 47.8459C113.596 39.5876 117.956 42.3178 118.82 42.622C121.403 43.5308 129.774 42.622 129.774 42.622C137.695 40.2635 133.988 35.5429 133.988 35.5429C133.988 35.5429 128.268 42.9149 126.406 38.5774C124.408 33.9318 125.061 28.3362 125.061 28.3362C127.589 23.3601 148.39 19.5408 148.39 19.5408C135.839 8.0265 119.112 1 100.737 1C110.847 8.75131 101.574 12.2402 97.3081 12.2402C93.0419 12.2402 94.9609 12.9124 91.3444 13.9977C87.7316 15.083 85.9853 18.095 85.9853 22.7931C85.9853 27.4912 84.239 27.9719 84.239 27.9719C80.0216 24.8398 74.9029 21.2195 74.9029 21.2195C69.1157 14.2756 74.5349 8.49217 75.1132 7.74859C75.6916 7.005 73.6711 6.38535 73.6711 6.38535C69.3974 8.16169 65.334 10.3474 61.5334 12.8974C64.5078 13.3668 64.1097 16.2285 64.7932 17.2012C65.4729 18.1776 62.6488 21.5876 58.1647 23.8296C53.6844 26.0716 51.6415 20.9041 51.6415 20.9041C50.4547 22.0495 49.3093 23.2437 48.2052 24.4793C58.7318 27.7803 66.0813 37.8563 66.0813 37.8563C66.0813 37.8563 69.0969 48.2515 65.18 47.951C61.2592 47.6506 60.6584 43.2792 60.6584 43.2792C57.4925 43.5045 57.1921 45.6151 57.1921 45.6151C64.35 49.9114 46.7931 57.0694 46.7931 57.0694C46.7931 57.0694 45.6627 56.2394 41.2914 64.7568C36.9237 73.2705 32.9279 64.5277 32.9279 63.4724C32.9279 62.4209 30.8173 62.3345 30.8173 62.3345C30.4267 65.3389 30.224 68.4034 30.224 71.5167C30.224 72.0424 30.2315 72.5682 30.2427 73.094C30.6483 73.7549 38.1293 85.919 40.6229 86.7001C43.1879 87.5 49.606 87.0193 52.494 88.7844C52.494 88.7844 54.0713 89.6481 53.0648 93.5163C53.0648 93.5163 53.0648 94.5378 55.243 94.8758C57.4212 95.21 59.344 99.9832 59.7646 103.75C60.1814 107.52 64.8119 106.754 66.716 106.935C70.171 107.258 84.408 111.952 71.9849 119.782C68.804 121.784 65.2739 122.118 60.4068 129.366C71.8347 137.35 85.7375 142.033 100.737 142.033C136.632 142.033 166.262 115.215 170.683 80.5223C166.18 82.5127 166.86 86.3245 166.139 88.5065ZM99.7604 17.9297C101.432 18.7822 104.323 19.4056 104.323 19.4056C103.88 20.6599 97.7738 25.1027 95.4041 21.2984C92.2232 16.1909 98.5362 17.3025 99.7604 17.9297ZM147.586 104.234C142.828 106.559 143.437 107.186 143.039 108.737C141.405 115.155 132.043 124.961 124.321 127.5C124.321 127.5 110.67 132.633 105.694 121.097C105.694 121.097 104.973 113.353 106.99 108.737C106.99 108.737 112.649 94.0157 102.551 89.9899C102.551 89.9899 90.7097 87.7666 87.7504 83.8196C84.7911 79.8726 78.7072 70.7731 87.7504 67.7875C90 67.0439 93.7292 67.7912 95.9674 63.0706C96.5195 61.9102 96.1852 58.7856 99.6741 59.4991C103.163 60.2164 107.827 58.3199 117.449 61.6736C127.074 65.0272 130.863 67.0664 130.863 67.0664C130.863 67.0664 144.571 70.3224 138.739 84.0787C138.739 84.0787 136.331 91.1729 143.279 93.9707C150.23 96.7685 151.582 99.0857 151.582 99.0857C151.582 99.0857 152.348 101.906 147.586 104.234Z" stroke="url(#paint6_linear)" stroke-width="0.3" stroke-miterlimit="10"/>
<path d="M170.685 80.5225H170.682" stroke="url(#paint7_linear)" stroke-width="0.3" stroke-miterlimit="10" stroke-linecap="round" stroke-linejoin="round"/>
<path d="M147.586 104.235C142.828 106.559 143.437 107.186 143.039 108.737C141.405 115.155 132.043 124.961 124.321 127.5C124.321 127.5 110.67 132.633 105.694 121.097C105.694 121.097 104.973 113.353 106.99 108.737C106.99 108.737 112.649 94.0159 102.551 89.99C102.551 89.99 90.7097 87.7668 87.7504 83.8198C84.791 79.8727 78.7072 70.7732 87.7504 67.7876C89.9999 67.044 93.7291 67.7914 95.9674 63.0707C96.5194 61.9103 96.1852 58.7857 99.674 59.4993C103.163 60.2166 107.827 58.32 117.449 61.6737C127.074 65.0273 130.863 67.0666 130.863 67.0666C130.863 67.0666 144.571 70.3225 138.739 84.0789C138.739 84.0789 136.331 91.173 143.279 93.9708C150.23 96.7687 151.582 99.0858 151.582 99.0858C151.582 99.0858 152.348 101.906 147.586 104.235Z" fill="url(#paint8_linear)" fill-opacity="0.2" stroke="url(#paint9_linear)" stroke-width="0.3" stroke-miterlimit="10"/>
<path d="M65.1804 47.951C61.2596 47.6506 60.6588 43.2792 60.6588 43.2792C57.4929 43.5045 57.1925 45.6151 57.1925 45.6151C64.3504 49.9114 46.7936 57.0693 46.7936 57.0693C46.7936 57.0693 45.6631 56.2393 41.2918 64.7568C36.9241 73.2705 32.9283 64.5277 32.9283 63.4724C32.9283 62.4209 30.8177 62.3345 30.8177 62.3345C32.6955 47.8834 38.9521 34.8068 48.2056 24.4792C58.7322 27.7803 66.0817 37.8563 66.0817 37.8563C66.0817 37.8563 69.0973 48.2514 65.1804 47.951Z" fill="url(#paint10_linear)" fill-opacity="0.2" stroke="url(#paint11_linear)" stroke-width="0.3" stroke-miterlimit="10"/>
<path d="M71.9857 119.782C68.8048 121.784 65.2746 122.118 60.4075 129.366C42.5615 116.901 30.7542 96.389 30.2435 73.0938C30.6491 73.7547 38.13 85.9188 40.6237 86.6999C43.1886 87.4998 49.6068 87.0191 52.4947 88.7842C52.4947 88.7842 54.072 89.6479 53.0656 93.5161C53.0656 93.5161 53.0656 94.5375 55.2437 94.8755C57.4219 95.2098 59.3447 99.983 59.7653 103.75C60.1822 107.52 64.8127 106.754 66.7167 106.934C70.1718 107.257 84.4088 111.952 71.9857 119.782Z" fill="url(#paint12_linear)" fill-opacity="0.2" stroke="url(#paint13_linear)" stroke-width="0.3" stroke-miterlimit="10"/>
<path d="M30.2427 73.0942C30.2315 73.0755 30.224 73.0642 30.224 73.0642" stroke="url(#paint14_linear)" stroke-width="0.3" stroke-miterlimit="10"/>
<path d="M97.3078 12.2402C93.0416 12.2402 94.9606 12.9124 91.3441 13.9977C87.7313 15.083 85.985 18.095 85.985 22.7931C85.985 27.4912 84.2387 27.9719 84.2387 27.9719C80.0213 24.8398 74.9026 21.2195 74.9026 21.2195C69.1154 14.2756 74.5345 8.49217 75.1129 7.74859C75.6912 7.005 73.6708 6.38535 73.6708 6.38535C82.0042 2.91528 91.145 1 100.737 1C110.846 8.75131 101.574 12.2402 97.3078 12.2402Z" fill="url(#paint15_linear)" fill-opacity="0.2" stroke="url(#paint16_linear)" stroke-width="0.3" stroke-miterlimit="10"/>
<path d="M58.1652 23.8297C53.6849 26.0717 51.6419 20.9041 51.6419 20.9041C54.6876 17.9486 57.9962 15.2672 61.5339 12.8975C64.5082 13.3669 64.1101 16.2286 64.7936 17.2012C65.4734 18.1777 62.6492 21.5876 58.1652 23.8297Z" fill="url(#paint17_linear)" fill-opacity="0.2" stroke="url(#paint18_linear)" stroke-width="0.3" stroke-miterlimit="10"/>
<g filter="url(#filter0_b)">
<path d="M104.324 19.4055C103.88 20.6598 97.774 25.1026 95.4043 21.2983C92.2234 16.1908 98.5363 17.3024 99.7606 17.9296C101.432 18.7821 104.324 19.4055 104.324 19.4055Z" fill="url(#paint19_linear)" fill-opacity="0.2"/>
<path d="M104.324 19.4055C103.88 20.6598 97.774 25.1026 95.4043 21.2983C92.2234 16.1908 98.5363 17.3024 99.7606 17.9296C101.432 18.7821 104.324 19.4055 104.324 19.4055Z" stroke="url(#paint20_linear)" stroke-width="0.3" stroke-miterlimit="10" stroke-linecap="round" stroke-linejoin="round"/>
</g>
<defs>
<filter id="filter0_b" x="90.3682" y="13.2224" width="18.1054" height="13.7339" filterUnits="userSpaceOnUse" color-interpolation-filters="sRGB">
<feFlood flood-opacity="0" result="BackgroundImageFix"/>
<feGaussianBlur in="BackgroundImage" stdDeviation="2"/>
<feComposite in2="SourceAlpha" operator="in" result="effect1_backgroundBlur"/>
<feBlend mode="normal" in="SourceGraphic" in2="effect1_backgroundBlur" result="shape"/>
</filter>
<linearGradient id="paint0_linear" x1="0.851837" y1="77.6246" x2="204.136" y2="80.5705" gradientUnits="userSpaceOnUse">
<stop stop-color="#FEBD2F"/>
<stop offset="0.248726" stop-color="#F95721"/>
<stop offset="0.502913" stop-color="#FC1370"/>
<stop offset="0.671875" stop-color="#BA2DB2"/>
<stop offset="0.776042" stop-color="#8342E9"/>
<stop offset="0.963542" stop-color="#3F89FC"/>
</linearGradient>
<linearGradient id="paint1_linear" x1="0.849884" y1="66.3595" x2="204.136" y2="69.3052" gradientUnits="userSpaceOnUse">
<stop stop-color="#FEBD2F"/>
<stop offset="0.248726" stop-color="#F95721"/>
<stop offset="0.502913" stop-color="#FC1370"/>
<stop offset="0.671875" stop-color="#BA2DB2"/>
<stop offset="0.776042" stop-color="#8342E9"/>
<stop offset="0.963542" stop-color="#3F89FC"/>
</linearGradient>
<linearGradient id="paint2_linear" x1="0.849884" y1="92.3595" x2="204.136" y2="95.3052" gradientUnits="userSpaceOnUse">
<stop stop-color="#FEBD2F"/>
<stop offset="0.248726" stop-color="#F95721"/>
<stop offset="0.502913" stop-color="#FC1370"/>
<stop offset="0.671875" stop-color="#BA2DB2"/>
<stop offset="0.776042" stop-color="#8342E9"/>
<stop offset="0.963542" stop-color="#3F89FC"/>
</linearGradient>
<linearGradient id="paint3_linear" x1="95.9688" y1="61.5941" x2="172.39" y2="62.0489" gradientUnits="userSpaceOnUse">
<stop stop-color="#FEBD2F"/>
<stop offset="0.248726" stop-color="#F95721"/>
<stop offset="0.502913" stop-color="#FC1370"/>
<stop offset="0.671875" stop-color="#BA2DB2"/>
<stop offset="0.776042" stop-color="#8342E9"/>
<stop offset="0.963542" stop-color="#3F89FC"/>
</linearGradient>
<linearGradient id="paint4_linear" x1="95.9688" y1="61.5941" x2="172.39" y2="62.0489" gradientUnits="userSpaceOnUse">
<stop stop-color="#FEBD2F"/>
<stop offset="0.248726" stop-color="#F95721"/>
<stop offset="0.502913" stop-color="#FC1370"/>
<stop offset="0.671875" stop-color="#BA2DB2"/>
<stop offset="0.776042" stop-color="#8342E9"/>
<stop offset="0.963542" stop-color="#3F89FC"/>
</linearGradient>
<linearGradient id="paint5_linear" x1="94.5182" y1="20.4612" x2="104.471" y2="20.5663" gradientUnits="userSpaceOnUse">
<stop stop-color="#FEBD2F"/>
<stop offset="0.248726" stop-color="#F95721"/>
<stop offset="0.502913" stop-color="#FC1370"/>
<stop offset="0.671875" stop-color="#BA2DB2"/>
<stop offset="0.776042" stop-color="#8342E9"/>
<stop offset="0.963542" stop-color="#3F89FC"/>
</linearGradient>
<linearGradient id="paint6_linear" x1="30.224" y1="81.1707" x2="172.802" y2="82.0011" gradientUnits="userSpaceOnUse">
<stop stop-color="#FEBD2F"/>
<stop offset="0.248726" stop-color="#F95721"/>
<stop offset="0.502913" stop-color="#FC1370"/>
<stop offset="0.671875" stop-color="#BA2DB2"/>
<stop offset="0.776042" stop-color="#8342E9"/>
<stop offset="0.963542" stop-color="#3F89FC"/>
</linearGradient>
<linearGradient id="paint7_linear" x1="170.682" y1="81.0909" x2="170.685" y2="81.0909" gradientUnits="userSpaceOnUse">
<stop stop-color="#FEBD2F"/>
<stop offset="0.248726" stop-color="#F95721"/>
<stop offset="0.502913" stop-color="#FC1370"/>
<stop offset="0.671875" stop-color="#BA2DB2"/>
<stop offset="0.776042" stop-color="#8342E9"/>
<stop offset="0.963542" stop-color="#3F89FC"/>
</linearGradient>
<linearGradient id="paint8_linear" x1="82.9896" y1="98.7562" x2="152.663" y2="99.1601" gradientUnits="userSpaceOnUse">
<stop stop-color="#FEBD2F"/>
<stop offset="0.248726" stop-color="#F95721"/>
<stop offset="0.502913" stop-color="#FC1370"/>
<stop offset="0.671875" stop-color="#BA2DB2"/>
<stop offset="0.776042" stop-color="#8342E9"/>
<stop offset="0.963542" stop-color="#3F89FC"/>
</linearGradient>
<linearGradient id="paint9_linear" x1="82.9896" y1="98.7562" x2="152.663" y2="99.1601" gradientUnits="userSpaceOnUse">
<stop stop-color="#FEBD2F"/>
<stop offset="0.248726" stop-color="#F95721"/>
<stop offset="0.502913" stop-color="#FC1370"/>
<stop offset="0.671875" stop-color="#BA2DB2"/>
<stop offset="0.776042" stop-color="#8342E9"/>
<stop offset="0.963542" stop-color="#3F89FC"/>
</linearGradient>
<linearGradient id="paint10_linear" x1="30.8177" y1="49.4723" x2="67.7394" y2="49.651" gradientUnits="userSpaceOnUse">
<stop stop-color="#FEBD2F"/>
<stop offset="0.248726" stop-color="#F95721"/>
<stop offset="0.502913" stop-color="#FC1370"/>
<stop offset="0.671875" stop-color="#BA2DB2"/>
<stop offset="0.776042" stop-color="#8342E9"/>
<stop offset="0.963542" stop-color="#3F89FC"/>
</linearGradient>
<linearGradient id="paint11_linear" x1="30.8177" y1="49.4723" x2="67.7394" y2="49.651" gradientUnits="userSpaceOnUse">
<stop stop-color="#FEBD2F"/>
<stop offset="0.248726" stop-color="#F95721"/>
<stop offset="0.502913" stop-color="#FC1370"/>
<stop offset="0.671875" stop-color="#BA2DB2"/>
<stop offset="0.776042" stop-color="#8342E9"/>
<stop offset="0.963542" stop-color="#3F89FC"/>
</linearGradient>
<linearGradient id="paint12_linear" x1="30.2435" y1="105.082" x2="77.6869" y2="105.312" gradientUnits="userSpaceOnUse">
<stop stop-color="#FEBD2F"/>
<stop offset="0.248726" stop-color="#F95721"/>
<stop offset="0.502913" stop-color="#FC1370"/>
<stop offset="0.671875" stop-color="#BA2DB2"/>
<stop offset="0.776042" stop-color="#8342E9"/>
<stop offset="0.963542" stop-color="#3F89FC"/>
</linearGradient>
<linearGradient id="paint13_linear" x1="30.2435" y1="105.082" x2="77.6869" y2="105.312" gradientUnits="userSpaceOnUse">
<stop stop-color="#FEBD2F"/>
<stop offset="0.248726" stop-color="#F95721"/>
<stop offset="0.502913" stop-color="#FC1370"/>
<stop offset="0.671875" stop-color="#BA2DB2"/>
<stop offset="0.776042" stop-color="#8342E9"/>
<stop offset="0.963542" stop-color="#3F89FC"/>
</linearGradient>
<linearGradient id="paint14_linear" x1="30.224" y1="73.0813" x2="30.243" y2="73.0813" gradientUnits="userSpaceOnUse">
<stop stop-color="#FEBD2F"/>
<stop offset="0.248726" stop-color="#F95721"/>
<stop offset="0.502913" stop-color="#FC1370"/>
<stop offset="0.671875" stop-color="#BA2DB2"/>
<stop offset="0.776042" stop-color="#8342E9"/>
<stop offset="0.963542" stop-color="#3F89FC"/>
</linearGradient>
<linearGradient id="paint15_linear" x1="72.2552" y1="16.3322" x2="105.787" y2="16.5724" gradientUnits="userSpaceOnUse">
<stop stop-color="#FEBD2F"/>
<stop offset="0.248726" stop-color="#F95721"/>
<stop offset="0.502913" stop-color="#FC1370"/>
<stop offset="0.671875" stop-color="#BA2DB2"/>
<stop offset="0.776042" stop-color="#8342E9"/>
<stop offset="0.963542" stop-color="#3F89FC"/>
</linearGradient>
<linearGradient id="paint16_linear" x1="72.2552" y1="16.3322" x2="105.787" y2="16.5724" gradientUnits="userSpaceOnUse">
<stop stop-color="#FEBD2F"/>
<stop offset="0.248726" stop-color="#F95721"/>
<stop offset="0.502913" stop-color="#FC1370"/>
<stop offset="0.671875" stop-color="#BA2DB2"/>
<stop offset="0.776042" stop-color="#8342E9"/>
<stop offset="0.963542" stop-color="#3F89FC"/>
</linearGradient>
<linearGradient id="paint17_linear" x1="51.6419" y1="19.4324" x2="65.0941" y2="19.5231" gradientUnits="userSpaceOnUse">
<stop stop-color="#FEBD2F"/>
<stop offset="0.248726" stop-color="#F95721"/>
<stop offset="0.502913" stop-color="#FC1370"/>
<stop offset="0.671875" stop-color="#BA2DB2"/>
<stop offset="0.776042" stop-color="#8342E9"/>
<stop offset="0.963542" stop-color="#3F89FC"/>
</linearGradient>
<linearGradient id="paint18_linear" x1="51.6419" y1="19.4324" x2="65.0941" y2="19.5231" gradientUnits="userSpaceOnUse">
<stop stop-color="#FEBD2F"/>
<stop offset="0.248726" stop-color="#F95721"/>
<stop offset="0.502913" stop-color="#FC1370"/>
<stop offset="0.671875" stop-color="#BA2DB2"/>
<stop offset="0.776042" stop-color="#8342E9"/>
<stop offset="0.963542" stop-color="#3F89FC"/>
</linearGradient>
<linearGradient id="paint19_linear" x1="94.5182" y1="20.4612" x2="104.471" y2="20.5663" gradientUnits="userSpaceOnUse">
<stop stop-color="#FEBD2F"/>
<stop offset="0.248726" stop-color="#F95721"/>
<stop offset="0.502913" stop-color="#FC1370"/>
<stop offset="0.671875" stop-color="#BA2DB2"/>
<stop offset="0.776042" stop-color="#8342E9"/>
<stop offset="0.963542" stop-color="#3F89FC"/>
</linearGradient>
<linearGradient id="paint20_linear" x1="94.5182" y1="20.4612" x2="104.471" y2="20.5663" gradientUnits="userSpaceOnUse">
<stop stop-color="#FEBD2F"/>
<stop offset="0.248726" stop-color="#F95721"/>
<stop offset="0.502913" stop-color="#FC1370"/>
<stop offset="0.671875" stop-color="#BA2DB2"/>
<stop offset="0.776042" stop-color="#8342E9"/>
<stop offset="0.963542" stop-color="#3F89FC"/>
</linearGradient>
</defs>
</svg>
