<svg width="40" height="40" viewBox="0 0 40 40" fill="none" xmlns="http://www.w3.org/2000/svg">
<circle cx="20" cy="20" r="19.5" fill="#111111" stroke="url(#paint0_linear)"/>
<path d="M34.2457 14.4366C34.2457 14.3427 33.9639 12.2766 33.0718 11.2905C31.9917 10.1166 30.8178 9.97577 30.2074 9.92878H30.0196C26.2161 9.64704 20.5344 9.6001 20.4405 9.6001C20.3935 9.6001 14.6648 9.64704 10.9083 10.0227H10.7674C10.1099 10.0696 8.93605 10.2105 7.90302 11.3844C6.96387 12.3705 6.68213 14.4835 6.68213 14.5775C6.68213 14.5775 6.40039 16.9723 6.40039 19.367V21.574C6.40039 23.9219 6.68213 26.3167 6.68213 26.3636C6.68213 26.4575 6.96387 28.5236 7.85603 29.5097C8.84211 30.6366 10.016 30.7775 10.7674 30.8714C10.9082 30.8714 11.0022 30.8714 11.143 30.9184C13.303 31.1062 20.1587 31.2001 20.4404 31.2001C20.4874 31.2001 26.2161 31.2001 30.0196 30.7775H30.1604C30.8178 30.7306 31.9917 30.5897 33.0248 29.4157C33.9639 28.4296 34.2457 26.3166 34.2457 26.2227C34.2457 26.2227 34.5274 23.8279 34.5274 21.4331V19.2262C34.5274 16.8783 34.2457 14.4835 34.2457 14.4366ZM33.5882 21.527C33.5882 23.8749 33.3065 26.2227 33.3065 26.2227C33.2126 26.7392 32.9308 28.2418 32.3204 28.8992C31.5221 29.8383 30.583 29.9322 30.0665 29.9792H29.9256C26.1691 30.261 20.4874 30.261 20.4404 30.261C20.3935 30.261 13.35 30.167 11.2839 29.9323C11.143 29.9323 11.0022 29.8853 10.8613 29.8853C10.2039 29.8384 9.26478 29.6975 8.51344 28.8523C7.94996 28.2419 7.62128 26.7393 7.57429 26.2227C7.57429 26.1758 7.29255 23.8279 7.29255 21.5271V19.3201C7.29255 16.9723 7.57429 14.6245 7.57429 14.6245C7.62122 14.1079 7.94996 12.6054 8.51344 11.9479C9.35865 11.0088 10.2508 10.9149 10.8143 10.8679H10.9552C14.7117 10.5862 20.3934 10.5392 20.4404 10.5392C20.4873 10.5392 26.1691 10.5862 29.9256 10.8679H30.1134C30.6299 10.9149 31.569 11.0088 32.3673 11.9479C32.9308 12.6054 33.2125 14.1079 33.3064 14.6245C33.3534 14.7184 33.5882 17.0662 33.5882 19.3201L33.5882 21.527Z" fill="url(#paint1_linear)"/>
<path d="M26.3105 20.4471L17.3888 15.2349C17.248 15.141 17.0601 15.141 16.9193 15.2349C16.7784 15.3288 16.6845 15.4697 16.6845 15.6575V25.8471C16.6845 26.0349 16.7784 26.1757 16.9193 26.2697C17.0132 26.3166 17.0601 26.3166 17.1541 26.3166C17.248 26.3166 17.2949 26.3166 17.3889 26.2697L26.3106 21.2923C26.4515 21.1984 26.5454 21.0575 26.5454 20.8697C26.5454 20.6819 26.4514 20.541 26.3105 20.4471ZM17.6236 25.0488V16.4557L25.1367 20.8696L17.6236 25.0488Z" fill="url(#paint2_linear)"/>
<defs>
<linearGradient id="paint0_linear" x1="7.83883e-09" y1="22.7381" x2="40.6036" y2="22.9755" gradientUnits="userSpaceOnUse">
<stop stop-color="#FEBD2F"/>
<stop offset="0.248726" stop-color="#F95721"/>
<stop offset="0.502913" stop-color="#FC1370"/>
<stop offset="0.671875" stop-color="#BA2DB2"/>
<stop offset="0.776042" stop-color="#8342E9"/>
<stop offset="0.963542" stop-color="#3F89FC"/>
</linearGradient>
<linearGradient id="paint1_linear" x1="6.40039" y1="21.8787" x2="34.9511" y2="22.0961" gradientUnits="userSpaceOnUse">
<stop stop-color="#FEBD2F"/>
<stop offset="0.248726" stop-color="#F95721"/>
<stop offset="0.502913" stop-color="#FC1370"/>
<stop offset="0.671875" stop-color="#BA2DB2"/>
<stop offset="0.776042" stop-color="#8342E9"/>
<stop offset="0.963542" stop-color="#3F89FC"/>
</linearGradient>
<linearGradient id="paint2_linear" x1="16.6845" y1="21.5039" x2="26.6943" y2="21.5557" gradientUnits="userSpaceOnUse">
<stop stop-color="#FEBD2F"/>
<stop offset="0.248726" stop-color="#F95721"/>
<stop offset="0.502913" stop-color="#FC1370"/>
<stop offset="0.671875" stop-color="#BA2DB2"/>
<stop offset="0.776042" stop-color="#8342E9"/>
<stop offset="0.963542" stop-color="#3F89FC"/>
</linearGradient>
</defs>
</svg>
