<svg width="20" height="14" viewBox="0 0 20 14" fill="none" xmlns="http://www.w3.org/2000/svg">
<path d="M19.3359 2.60938C19.4766 3.24219 19.6172 4.22656 19.6875 5.49219L19.7227 7.25L19.6875 9.00781C19.6172 10.3438 19.4766 11.293 19.3359 11.9258C19.1953 12.3477 18.9844 12.6992 18.7031 12.9805C18.3867 13.2969 18.0352 13.5078 17.6133 13.6133C16.9805 13.7891 15.5742 13.8945 13.3242 13.9648L10.125 14L6.92578 13.9648C4.67578 13.8945 3.23438 13.7891 2.63672 13.6133C2.21484 13.5078 1.82812 13.2969 1.54688 12.9805C1.23047 12.6992 1.01953 12.3477 0.914062 11.9258C0.738281 11.293 0.632812 10.3438 0.5625 9.00781L0.527344 7.25C0.527344 6.75781 0.527344 6.16016 0.5625 5.49219C0.632812 4.22656 0.738281 3.24219 0.914062 2.60938C1.01953 2.1875 1.23047 1.83594 1.54688 1.51953C1.82812 1.23828 2.21484 1.02734 2.63672 0.886719C3.23438 0.746094 4.67578 0.605469 6.92578 0.535156L10.125 0.5L13.3242 0.535156C15.5742 0.605469 16.9805 0.746094 17.6133 0.886719C18.0352 1.02734 18.3867 1.23828 18.7031 1.51953C18.9844 1.83594 19.1953 2.1875 19.3359 2.60938ZM8.15625 10.1328L13.1836 7.25L8.15625 4.40234V10.1328Z" fill="#F4F5F6"/>
</svg>
